<?xml version="1.0" standalone="no"?>
<!DOCTYPE svg PUBLIC "-//W3C//DTD SVG 1.1//EN" "http://www.w3.org/Graphics/SVG/1.1/DTD/svg11.dtd" >
<svg xmlns="http://www.w3.org/2000/svg">
<metadata>Generated by IcoMoon</metadata>
<defs>
<font id="bradesco_v2" horiz-adv-x="1024">
<font-face units-per-em="1024" ascent="960" descent="-64" />
<missing-glyph horiz-adv-x="1024" />
<glyph unicode="&#x20;" horiz-adv-x="512" d="" />
<glyph unicode="&#xe19d;" glyph-name="icon-info-gestante" d="M428.8 626.133c74.667 0 135.467 60.8 135.467 135.467s-60.8 135.467-135.467 135.467-135.467-60.8-135.467-135.467 60.8-135.467 135.467-135.467zM428.8 865.067c56.533 0 103.467-45.867 103.467-103.467s-45.867-103.467-103.467-103.467-103.467 45.867-103.467 103.467 46.933 103.467 103.467 103.467zM643.2 396.8c22.4 21.333 36.267 51.2 36.267 83.2 0 62.933-51.2 114.133-114.133 114.133-1.067 0-1.067 0-2.133 0s-1.067 0-2.133 0h-285.867c-8.533 0-16-7.467-16-16v-375.467c0-8.533 7.467-16 16-16h28.8v-171.733c0-8.533 7.467-16 16-16h256c104.533 0 189.867 91.733 189.867 205.867-1.067 86.4-51.2 162.133-122.667 192zM576 30.933h-240v155.733h168.533c44.8 0 81.067 36.267 81.067 81.067s-36.267 81.067-81.067 81.067h-105.6v123.733c0 8.533-7.467 16-16 16s-16-7.467-16-16v-139.733c0-8.533 7.467-16 16-16h121.6c26.667 0 49.067-22.4 49.067-49.067s-22.4-49.067-49.067-49.067h-213.333v344.533h268.8c1.067 0 1.067 0 2.133 0s1.067 0 2.133 0c45.867 0 82.133-37.333 82.133-82.133 0-32-18.133-60.8-45.867-74.667-7.467-4.267-11.733-13.867-7.467-21.333 2.133-4.267 5.333-6.4 8.533-8.533 1.067-1.067 3.2-1.067 4.267-1.067 73.6-16 126.933-87.467 126.933-170.667 0-96-70.4-173.867-156.8-173.867z" />
<glyph unicode="&#xe207;" glyph-name="icon-nav-salvar-como" d="M468.267 404.267c-57.6 0-104.533-46.933-104.533-104.533s46.933-104.533 104.533-104.533c57.6 0 104.533 46.933 104.533 104.533 0 0 0 0 0 0-1.067 57.6-46.933 104.533-104.533 104.533zM468.267 224c-42.667 0-76.8 34.133-76.8 76.8s34.133 76.8 76.8 76.8 76.8-34.133 76.8-76.8c-1.067-42.667-35.2-77.867-76.8-76.8v0zM953.6 689.067l-195.2 196.267c-16 16-38.4 25.6-60.8 25.6h-474.667c-46.933 0-85.333-37.333-86.4-84.267h-1.067c-48 0-86.4-38.4-86.4-86.4l-1.067-667.733c0-48 38.4-86.4 85.333-86.4 0 0 0 0 0 0h667.733c46.933 0 85.333 37.333 86.4 84.267h1.067c48 0 86.4 38.4 86.4 86.4v478.933c1.067 20.267-6.4 39.467-21.333 53.333zM859.733 72.533c0-32-25.6-57.6-57.6-57.6h-667.733c-32 0-57.6 25.6-57.6 57.6 0 0 0 0 0 0l1.067 666.667c0 32 25.6 57.6 57.6 57.6h2.133v-236.8c1.067-34.133 28.8-60.8 62.933-59.733h317.867c34.133-1.067 61.867 25.6 62.933 59.733v236.8h28.8c14.933 0 29.867-6.4 40.533-17.067l196.267-195.2c8.533-8.533 13.867-20.267 13.867-33.067l-1.067-478.933zM339.2 572.8h124.8c14.933 0 27.733 11.733 27.733 27.733v196.267h60.8v-236.8c-1.067-18.133-16-32-34.133-30.933h-317.867c-18.133-1.067-33.067 12.8-34.133 30.933v236.8h145.067v-197.333c0-14.933 11.733-26.667 27.733-26.667zM340.267 601.6v195.2h121.6v-195.2h-121.6zM947.2 156.8c0-32-25.6-57.6-57.6-57.6h-1.067v452.267c0 20.267-7.467 39.467-22.4 53.333l-196.267 195.2c-16 16-38.4 25.6-60.8 25.6h-443.733c1.067 30.933 25.6 55.467 57.6 55.467h474.667c14.933 0 29.867-6.4 40.533-17.067l196.267-195.2c8.533-8.533 13.867-20.267 13.867-33.067l-1.067-478.933z" />
<glyph unicode="&#xe210;" glyph-name="icon-nav-web-acess" d="M164.267 793.6c10.667 0 19.2-8.533 19.2-19.2s-8.533-19.2-19.2-19.2-19.2 8.533-19.2 19.2 8.533 19.2 19.2 19.2zM242.133 793.6c10.667 0 19.2-8.533 19.2-19.2s-8.533-19.2-19.2-19.2-19.2 8.533-19.2 19.2 8.533 19.2 19.2 19.2zM318.933 793.6c10.667 0 19.2-8.533 19.2-19.2s-8.533-19.2-19.2-19.2-19.2 8.533-19.2 19.2 8.533 19.2 19.2 19.2zM710.4 29.867h-631.467c-8.533 0-16 7.467-16 16v794.667c0 8.533 7.467 16 16 16h869.333c8.533 0 16-7.467 16-16v-565.333c0-8.533-7.467-16-16-16s-16 7.467-16 16v549.333h-837.333v-762.667h616.533c8.533 0 16-7.467 16-16s-7.467-16-17.067-16zM948.267 689.067h-869.333c-8.533 0-16 7.467-16 16s7.467 16 16 16h869.333c8.533 0 16-7.467 16-16s-7.467-16-16-16zM898.133 75.733c-4.267 0-8.533 1.067-11.733 4.267-6.4 6.4-6.4 16 0 22.4l33.067 33.067-150.4 148.267c-3.2 3.2-5.333 7.467-4.267 12.8 0 4.267 3.2 8.533 6.4 11.733l78.933 56.533-355.2 112c-8.533 2.133-12.8 11.733-10.667 20.267s11.733 12.8 20.267 10.667l385.067-121.6c5.333-2.133 9.6-6.4 10.667-12.8s-1.067-11.733-6.4-16l-89.6-64 149.333-146.133c3.2-3.2 5.333-7.467 5.333-11.733s-2.133-8.533-4.267-11.733l-44.8-43.733c-4.267-2.133-7.467-4.267-11.733-4.267zM853.333 32v0c-4.267 0-8.533 2.133-11.733 5.333l-146.133 149.333-64-89.6c-3.2-5.333-9.6-7.467-16-6.4s-10.667 5.333-12.8 10.667l-119.467 384c-2.133 8.533 2.133 17.067 10.667 20.267 8.533 2.133 17.067-2.133 20.267-10.667l112-354.133 56.533 78.933c3.2 4.267 7.467 6.4 11.733 6.4s9.6-1.067 12.8-4.267l146.133-151.467 33.067 33.067c6.4 6.4 16 6.4 22.4 0s6.4-16 0-22.4l-43.733-44.8c-3.2-3.2-7.467-4.267-11.733-4.267z" />
<glyph unicode="&#xe900;" glyph-name="icon-viagem-abrangencia" d="M834.133 29.867c0 1.067 0 1.067 0 0-3.2 25.6-8.533 49.067-17.067 72.533 91.733 85.333 145.067 204.8 145.067 330.667 0 247.467-201.6 450.133-450.133 450.133s-450.133-202.667-450.133-450.133c0-125.867 52.267-245.333 145.067-330.667-8.533-22.4-13.867-46.933-17.067-71.467 0 0 0-1.067 0-1.067s0-1.067 0-1.067c0 0 0 0 0-1.067s0-1.067 0-2.133c0 0 0-1.067 0-1.067s0-1.067 0-1.067c0 0 0-1.067 1.067-1.067 0 0 0-1.067 1.067-1.067 0 0 1.067-1.067 1.067-1.067s1.067-1.067 1.067-1.067c0 0 1.067-1.067 1.067-1.067s1.067-1.067 1.067-1.067c0 0 1.067-1.067 1.067-1.067s1.067 0 1.067-1.067c0 0 1.067 0 1.067-1.067 0 0 1.067 0 1.067 0 1.067 0 1.067 0 2.133 0 0 0 0 0 1.067 0s1.067 0 2.133 0v0 0 0 0h613.333c1.067 0 1.067 0 2.133 0 0 0 0 0 1.067 0s1.067 0 2.133 0c0 0 1.067 0 1.067 0s1.067 0 1.067 1.067c0 0 1.067 0 1.067 1.067 0 0 1.067 1.067 1.067 1.067s1.067 1.067 1.067 1.067 1.067 1.067 1.067 1.067 1.067 1.067 1.067 1.067c0 0 1.067 1.067 1.067 1.067s0 1.067 1.067 1.067c0 0 0 1.067 1.067 1.067 0 0 0 1.067 0 1.067s0 1.067 0 1.067 0 1.067 0 2.133c0 0 0 0 0 1.067-1.067 1.067-1.067 1.067-1.067 1.067zM310.4 204.8c0 0 0 0 0 0 1.067 0 1.067 0 0 0 29.867 28.8 66.133 51.2 106.667 65.067 1.067 0 2.133 1.067 3.2 2.133 4.267 1.067 7.467 3.2 9.6 6.4 5.333 7.467 3.2 17.067-3.2 22.4-46.933 34.133-75.733 86.4-73.6 137.6 3.2 88.533 77.867 157.867 165.333 153.6 88.533-3.2 156.8-76.8 153.6-165.333-1.067-45.867-27.733-93.867-68.267-124.8-6.4-5.333-8.533-14.933-3.2-22.4 1.067-5.333 5.333-9.6 9.6-11.733 76.8-28.8 138.667-88.533 170.667-162.133 0-4.267 1.067-7.467 4.267-10.667 0 0 0 0 0 0 6.4-16 10.667-32 13.867-49.067h-574.933c11.733 60.8 42.667 116.267 86.4 158.933zM723.2 237.867c-24.533 21.333-52.267 39.467-83.2 52.267 38.4 37.333 62.933 86.4 64 135.467 3.2 105.6-78.933 195.2-184.533 198.4s-195.2-78.933-198.4-184.533c-2.133-53.333 22.4-107.733 65.067-147.2-32-13.867-60.8-32-86.4-54.4-49.067 53.333-75.733 121.6-75.733 195.2 0 158.933 129.067 288 288 288s288-129.067 288-288c-1.067-72.533-27.733-141.867-76.8-195.2zM93.867 433.067c0 230.4 187.733 418.133 418.133 418.133s418.133-187.733 418.133-418.133c0-113.067-45.867-220.8-125.867-299.733-14.933 30.933-34.133 58.667-57.6 83.2 54.4 59.733 85.333 135.467 85.333 216.533 0 176-142.933 320-320 320s-320-142.933-320-320c0-81.067 29.867-157.867 84.267-216.533-23.467-24.533-42.667-52.267-57.6-82.133-78.933 77.867-124.8 185.6-124.8 298.667z" />
<glyph unicode="&#xe901;" glyph-name="icon-viagem-acessoria-mundial" d="M458.667 420.267c1.067 0 2.133 0 3.2 0 46.933-43.733 109.867-71.467 179.2-71.467 128 0 238.933 94.933 258.133 221.867 1.067 8.533-4.267 17.067-13.867 18.133-8.533 1.067-17.067-4.267-18.133-13.867-4.267-25.6-11.733-49.067-23.467-71.467h-51.2c5.333 20.267 9.6 41.6 11.733 64 1.067 8.533-5.333 17.067-13.867 17.067-8.533 1.067-17.067-5.333-17.067-13.867-2.133-23.467-7.467-45.867-13.867-67.2h-73.6c-8.533 0-16-7.467-16-16s7.467-16 16-16h60.8c-22.4-49.067-55.467-83.2-91.733-89.6 0 1.067 0 1.067 0 2.133v80c0 8.533-7.467 16-16 16s-16-7.467-16-16v-80c0-1.067 0-2.133 0-2.133-44.8 3.2-85.333 19.2-119.467 44.8 20.267 7.467 40.533 21.333 60.8 41.6l157.867 157.867c6.4 6.4 6.4 16 0 22.4s-16 6.4-22.4 0l-157.867-156.8c-22.4-22.4-44.8-35.2-67.2-38.4-36.267 38.4-58.667 88.533-61.867 144h62.933c1.067-28.8 4.267-56.533 10.667-82.133 2.133-7.467 8.533-11.733 16-11.733 1.067 0 2.133 0 4.267 0 8.533 2.133 13.867 10.667 11.733 19.2-6.4 23.467-9.6 49.067-9.6 74.667h88.533c8.533 0 16 7.467 16 16s-7.467 16-16 16h-89.6c2.133 33.067 7.467 62.933 17.067 90.667h72.533c8.533 0 16 7.467 16 16s-7.467 16-16 16h-59.733c21.333 45.867 52.267 77.867 87.467 85.333v-180.267c0-8.533 7.467-16 16-16s16 7.467 16 16v197.333c0 8.533-7.467 16-16 16-144 0-260.267-117.333-260.267-260.267 0-52.267 16-101.333 42.667-141.867-11.733 8.533-19.2 18.133-19.2 18.133-5.333 7.467-14.933 8.533-22.4 3.2s-8.533-14.933-3.2-22.4c0-2.133 29.867-42.667 80-46.933zM822.4 472.533c-21.333-27.733-48-50.133-78.933-66.133 14.933 18.133 26.667 40.533 36.267 66.133h42.667zM475.733 628.267h-62.933c3.2 33.067 11.733 64 27.733 91.733 1.067 0 2.133 0 3.2 0h46.933c-8.533-28.8-12.8-58.667-14.933-91.733zM536.533 812.8c-13.867-17.067-25.6-38.4-34.133-60.8h-39.467c19.2 24.533 43.733 45.867 73.6 60.8zM681.6 696.533l59.733-33.067 30.933-60.8c2.133-4.267 6.4-7.467 11.733-8.533 1.067 0 2.133 0 2.133 0 4.267 0 8.533 2.133 11.733 4.267l18.133 18.133c4.267 4.267 5.333 10.667 4.267 16l-12.8 45.867 34.133 30.933 53.333-91.733c2.133-4.267 6.4-7.467 11.733-7.467 5.333-1.067 9.6 1.067 13.867 4.267l25.6 24.533c4.267 4.267 6.4 10.667 4.267 16l-38.4 116.267 32 28.8c8.533 8.533 13.867 19.2 14.933 30.933 0 11.733-4.267 23.467-12.8 32s-19.2 12.8-30.933 12.8c0 0 0 0 0 0-11.733 0-23.467-5.333-32-13.867l-29.867-29.867-115.2 39.467c-5.333 2.133-11.733 1.067-16-3.2l-25.6-24.533c-3.2-3.2-5.333-8.533-4.267-12.8 1.067-5.333 3.2-9.6 7.467-11.733l90.667-54.4-32-34.133-45.867 13.867c-5.333 2.133-11.733 0-16-4.267l-18.133-18.133c-3.2-3.2-5.333-8.533-4.267-13.867 0-5.333 3.2-9.6 7.467-11.733zM758.4 696.533c5.333-2.133 11.733 0 16 4.267l52.267 55.467c3.2 3.2 5.333 8.533 4.267 12.8s-3.2 8.533-7.467 11.733l-89.6 54.4 3.2 3.2 115.2-40.533c6.4-2.133 12.8 0 17.067 4.267l36.267 39.467c2.133 2.133 5.333 3.2 8.533 4.267 3.2 0 6.4-1.067 8.533-3.2s3.2-5.333 3.2-8.533c0-3.2-1.067-6.4-4.267-8.533l-39.467-36.267c-4.267-4.267-6.4-10.667-4.267-17.067l38.4-116.267-3.2-3.2-52.267 90.667c-2.133 4.267-6.4 7.467-11.733 7.467-1.067 0-2.133 0-2.133 0-4.267 0-7.467-1.067-10.667-4.267l-56.533-51.2c-4.267-4.267-6.4-10.667-4.267-16l6.4-21.333-13.867 24.533c-1.067 3.2-4.267 5.333-6.4 6.4l-24.533 12.8 21.333-5.333zM184.533 96c17.067 0 30.933 13.867 30.933 30.933s-13.867 30.933-30.933 30.933-30.933-13.867-30.933-30.933c0-17.067 13.867-30.933 30.933-30.933zM938.667 263.467c-22.4 20.267-66.133 23.467-107.733-18.133-32-26.667-74.667-54.4-105.6-57.6-5.333 24.533-20.267 48-33.067 58.667-46.933 39.467-129.067 30.933-165.333 26.667-72.533 77.867-186.667 81.067-221.867 81.067l1.067-32c32 1.067 139.733-3.2 202.667-75.733 3.2-4.267 9.6-6.4 14.933-5.333 72.533 10.667 121.6 5.333 148.267-18.133 6.4-5.333 14.933-18.133 20.267-33.067h-245.333c-8.533 0-16-7.467-16-16s7.467-16 16-16h264.533c0 0 0 0 0 0 52.267-5.333 115.2 43.733 139.733 65.067 0 0 1.067 1.067 1.067 1.067 26.667 26.667 52.267 27.733 64 17.067 6.4-6.4 24.533-22.4-5.333-65.067-52.267-74.667-215.467-129.067-217.6-129.067-41.6-12.8-81.067-14.933-115.2-14.933-101.333 0-208 54.4-265.6 83.2-3.2 2.133-6.4 3.2-9.6 4.267v275.2c0 13.867-8.533 23.467-19.2 23.467h-200.533c-10.667 0-19.2-10.667-19.2-23.467v-349.867c0-13.867 8.533-23.467 19.2-23.467h205.867c8.533 0 16 7.467 16 16v45.867c60.8-30.933 168.533-84.267 275.2-84.267 36.267 0 78.933 2.133 123.733 16 2.133 0 174.933 56.533 234.667 141.867 37.333 54.4 20.267 88.533 0 106.667zM273.067 52.267h-177.067v333.867h177.067v-333.867z" />
<glyph unicode="&#xe902;" glyph-name="icon-viagem-bagagem" d="M950.4 700.8h-261.333v109.867c0 8.533-7.467 16-16 16h-322.133c-8.533 0-16-7.467-16-16v-109.867h-261.333c-8.533 0-16-7.467-16-16v-599.467c0-8.533 7.467-16 16-16h876.8c8.533 0 16 7.467 16 16v599.467c0 8.533-7.467 16-16 16zM89.6 529.067c75.733 3.2 136.533 64 139.733 139.733h573.867c3.2-72.533 59.733-132.267 131.2-139.733v-297.6c-68.267-7.467-122.667-61.867-130.133-130.133h-584.533c-7.467 68.267-61.867 122.667-130.133 130.133v297.6zM934.4 562.133c-53.333 7.467-96 52.267-99.2 106.667h99.2v-106.667zM366.933 794.667h289.067v-93.867h-289.067v93.867zM197.333 668.8c-3.2-58.667-50.133-104.533-107.733-107.733v107.733h107.733zM89.6 199.467c50.133-7.467 90.667-46.933 98.133-98.133h-98.133v98.133zM836.267 101.333c7.467 50.133 46.933 90.667 98.133 98.133v-98.133h-98.133zM258.133 246.4l150.4-58.667c2.133-1.067 4.267-1.067 5.333-1.067 2.133 0 4.267 0 6.4 1.067 4.267 2.133 7.467 5.333 8.533 8.533l38.4 98.133c3.2 8.533-1.067 17.067-8.533 20.267l-150.4 58.667c-4.267 1.067-8.533 1.067-11.733 0-4.267-2.133-7.467-5.333-8.533-8.533l-38.4-98.133c-4.267-7.467 0-17.067 8.533-20.267zM311.467 339.2l120.533-46.933-26.667-69.333-120.533 46.933 26.667 69.333zM487.467 398.933l43.733-117.333c1.067-4.267 4.267-7.467 8.533-8.533 2.133-1.067 4.267-1.067 6.4-1.067s4.267 0 5.333 1.067l211.2 80c8.533 3.2 12.8 12.8 9.6 20.267l-43.733 117.333c-1.067 4.267-4.267 7.467-8.533 8.533-4.267 2.133-8.533 2.133-11.733 0l-211.2-80c-8.533-3.2-12.8-12.8-9.6-20.267zM704 462.933l33.067-87.467-181.333-68.267-33.067 87.467 181.333 68.267zM396.8 396.8c50.133 0 91.733 40.533 91.733 91.733s-40.533 91.733-91.733 91.733-91.733-40.533-91.733-91.733 41.6-91.733 91.733-91.733zM396.8 548.267c33.067 0 59.733-26.667 59.733-59.733s-26.667-59.733-59.733-59.733-59.733 26.667-59.733 59.733c1.067 33.067 27.733 59.733 59.733 59.733z" />
<glyph unicode="&#xe903;" glyph-name="icon-viagem-hospedagem" d="M309.333 130.133c-36.267 0-65.067-28.8-65.067-65.067s28.8-65.067 65.067-65.067 65.067 28.8 65.067 65.067c0 36.267-28.8 65.067-65.067 65.067zM309.333 32c-18.133 0-33.067 14.933-33.067 33.067s14.933 33.067 33.067 33.067c18.133 0 33.067-14.933 33.067-33.067s-14.933-33.067-33.067-33.067zM714.667 130.133c-36.267 0-65.067-28.8-65.067-65.067s28.8-65.067 65.067-65.067 65.067 28.8 65.067 65.067c0 36.267-28.8 65.067-65.067 65.067zM714.667 32c-18.133 0-33.067 14.933-33.067 33.067s14.933 33.067 33.067 33.067c18.133 0 33.067-14.933 33.067-33.067s-14.933-33.067-33.067-33.067zM856.533 178.133h-35.2v358.4c0 136.533-104.533 249.6-238.933 262.4 2.133 7.467 3.2 14.933 3.2 22.4 2.133 41.6-32 74.667-73.6 74.667s-75.733-34.133-75.733-75.733c0-7.467 1.067-16 3.2-22.4-133.333-12.8-238.933-124.8-238.933-262.4v-357.333h-35.2c-8.533 0-16-7.467-16-16s7.467-16 16-16h690.133c8.533 0 16 7.467 16 16s-5.333 16-14.933 16zM512 864c24.533 0 43.733-19.2 43.733-43.733 0-7.467-2.133-14.933-5.333-21.333h-75.733c-4.267 6.4-5.333 13.867-5.333 21.333-1.067 24.533 18.133 43.733 42.667 43.733zM583.467 477.867h-156.8l13.867 64h156.8l-13.867-64zM406.4 445.867h198.4v-267.733h-290.133v267.733h91.733zM636.8 178.133v267.733h67.2v-267.733h-67.2zM736 178.133v283.733c0 8.533-7.467 16-16 16h-103.467l17.067 76.8c1.067 4.267 0 9.6-3.2 13.867s-7.467 6.4-12.8 6.4h-189.867c-7.467 0-13.867-5.333-16-12.8l-18.133-84.267h-94.933c-8.533 0-16-7.467-16-16v-283.733h-49.067v358.4c0 126.933 103.467 231.467 231.467 231.467h94.933c126.933 0 231.467-103.467 231.467-231.467v-357.333h-55.467z" />
<glyph unicode="&#xe904;" glyph-name="icon-viagem-perda" d="M944 176h-864c-8.533 0-16-7.467-16-16s7.467-16 16-16h862.933c8.533 0 16 7.467 16 16s-6.4 16-14.933 16zM944 101.333h-864c-8.533 0-16-7.467-16-16s7.467-16 16-16h862.933c8.533 0 16 7.467 16 16s-6.4 16-14.933 16zM946.133 772.267l-22.4 17.067c-37.333 28.8-87.467 32-128 8.533l-160-92.8-363.733 121.6c-4.267 1.067-9.6 1.067-12.8-1.067l-98.133-57.6c-5.333-3.2-7.467-8.533-7.467-13.867s3.2-10.667 7.467-13.867l261.333-158.933-132.267-76.8-138.667 9.6c-3.2 0-6.4 0-9.6-2.133l-78.933-45.867c-4.267-2.133-7.467-7.467-7.467-12.8s2.133-10.667 5.333-13.867l128-106.667 33.067-62.933c2.133-4.267 5.333-6.4 9.6-7.467 1.067 0 3.2-1.067 4.267-1.067 3.2 0 5.333 1.067 8.533 2.133l695.467 405.333c18.133 10.667 28.8 28.8 29.867 49.067 1.067 21.333-7.467 41.6-23.467 54.4zM922.667 697.6l-680.533-396.8-26.667 51.2c-1.067 2.133-2.133 3.2-4.267 5.333l-113.067 92.8 55.467 32 138.667-9.6c3.2 0 6.4 0 9.6 2.133l160 92.8c5.333 3.2 7.467 8.533 7.467 13.867s-3.2 10.667-7.467 13.867l-261.333 158.933 67.2 39.467 364.8-121.6c4.267-1.067 9.6-1.067 12.8 1.067l165.333 97.067c28.8 17.067 65.067 14.933 92.8-6.4l22.4-17.067c7.467-6.4 11.733-14.933 11.733-24.533-1.067-10.667-6.4-19.2-14.933-24.533z" />
<glyph unicode="&#xe905;" glyph-name="icon-viagem-pousar" d="M80 116.267h862.933c8.533 0 16 7.467 16 16s-7.467 16-16 16h-862.933c-8.533 0-16-7.467-16-16s7.467-16 16-16zM944 73.6h-864c-8.533 0-16-7.467-16-16s7.467-16 16-16h862.933c8.533 0 16 7.467 16 16s-6.4 16-14.933 16zM96 509.867l-16-69.333c-1.067-4.267 0-8.533 2.133-12.8 2.133-3.2 6.4-6.4 10.667-7.467l790.4-152.533c4.267-1.067 7.467-1.067 11.733-1.067 16 0 32 6.4 43.733 18.133 13.867 14.933 20.267 35.2 17.067 55.467l-5.333 27.733c-9.6 45.867-44.8 81.067-90.667 90.667l-181.333 35.2-196.267 331.733c-2.133 4.267-6.4 6.4-10.667 7.467l-109.867 21.333c-5.333 1.067-11.733-1.067-14.933-5.333s-5.333-9.6-3.2-16l91.733-291.2-150.4 28.8-98.133 99.2c-2.133 2.133-5.333 4.267-8.533 4.267l-89.6 17.067c-5.333 1.067-10.667-1.067-13.867-4.267-4.267-3.2-5.333-8.533-4.267-13.867l25.6-163.2zM167.467 644.267l98.133-99.2c2.133-2.133 5.333-4.267 8.533-4.267l181.333-35.2c5.333-1.067 11.733 1.067 14.933 5.333s5.333 9.6 3.2 16l-91.733 291.2 76.8-14.933 194.133-331.733c2.133-4.267 6.4-6.4 10.667-7.467l188.8-36.267c33.067-6.4 58.667-32 65.067-65.067l5.333-27.733c2.133-9.6-1.067-19.2-7.467-26.667-7.467-7.467-17.067-9.6-26.667-8.533l-773.333 149.333 12.8 55.467c0 2.133 1.067 4.267 0 6.4l-23.467 145.067 62.933-11.733z" />
<glyph unicode="&#xe906;" glyph-name="icon-cesta-basica" d="M889.6 398.933l-57.6 160c0 0 0 0 0 0 0 1.067-1.067 1.067-1.067 2.133 0 0 0 1.067 0 1.067 0 1.067-1.067 1.067-1.067 1.067s0 1.067-1.067 1.067-1.067 1.067-2.133 1.067c0 0 0 0 0 0-1.067 0-1.067 1.067-2.133 1.067 0 0 0 0 0 0-1.067 0-1.067 0-2.133 1.067 0 0-1.067 0-1.067 0s0 0 0 0l-140.8 30.933c19.2 29.867 29.867 66.133 29.867 104.533 0 108.8-88.533 197.333-197.333 197.333s-197.333-88.533-197.333-197.333c0-38.4 11.733-74.667 29.867-104.533l-140.8-30.933c0 0 0 0 0 0s-1.067 0-1.067 0-1.067 0-2.133-1.067c0 0 0 0-1.067 0s-1.067-1.067-2.133-1.067c0 0 0 0-1.067-1.067-1.067 0-1.067-1.067-1.067-1.067s0-1.067-1.067-1.067c0 0-1.067-1.067-1.067-1.067s0-1.067-1.067-1.067c0-1.067-1.067-1.067-1.067-2.133 0 0 0 0 0 0l-57.6-158.933c-1.067-4.267-1.067-8.533 1.067-11.733 2.133-4.267 5.333-6.4 8.533-8.533l59.733-21.333v-209.067c0-6.4 3.2-11.733 9.6-13.867l291.2-132.267c3.2-2.133 5.333-2.133 7.467-2.133s4.267 0 6.4 1.067l294.4 132.267c5.333 2.133 9.6 8.533 9.6 13.867v210.133l59.733 21.333c4.267 1.067 7.467 4.267 8.533 8.533 0 3.2 1.067 7.467-1.067 11.733zM513.067 869.333c91.733 0 166.4-74.667 166.4-166.4s-74.667-166.4-166.4-166.4-166.4 74.667-166.4 166.4c0 91.733 74.667 166.4 166.4 166.4zM513.067 505.6c57.6 0 109.867 25.6 146.133 65.067l102.4-22.4-248.533-89.6-248.533 90.667 102.4 22.4c36.267-40.533 87.467-66.133 146.133-66.133zM217.6 532.267l274.133-99.2-46.933-130.133-274.133 99.2 46.933 130.133zM235.733 345.6l213.333-77.867c2.133-1.067 3.2-1.067 5.333-1.067 6.4 0 12.8 4.267 14.933 10.667l28.8 78.933v-316.8l-262.4 118.4v187.733zM790.4 157.867l-261.333-117.333v315.733l28.8-78.933c2.133-6.4 8.533-10.667 14.933-10.667 2.133 0 3.2 0 5.333 1.067l213.333 77.867-1.067-187.733zM581.333 302.933l-46.933 130.133 274.133 99.2 46.933-130.133-274.133-99.2zM510.933 647.467c-8.533 0-14.933 2.133-18.133 6.4-1.067 1.067-3.2 4.267-2.133 9.6 1.067 8.533-6.4 16-14.933 17.067s-16-6.4-17.067-14.933c-1.067-12.8 3.2-24.533 10.667-33.067s18.133-12.8 27.733-14.933v-8.533c0-8.533 7.467-16 16-16s16 7.467 16 16v9.6c20.267 4.267 34.133 19.2 37.333 39.467 2.133 13.867-1.067 26.667-10.667 36.267-6.4 7.467-16 11.733-21.333 14.933-8.533 4.267-22.4 10.667-32 17.067-4.267 2.133-7.467 4.267-8.533 5.333 0 0-1.067 1.067-1.067 2.133-1.067 2.133-1.067 4.267-1.067 5.333s0 1.067 0 2.133c0 0 0 6.4 4.267 10.667s11.733 5.333 18.133 5.333c6.4 0 13.867-1.067 18.133-5.333s4.267-10.667 4.267-10.667c-1.067-8.533 5.333-16 13.867-17.067s16 5.333 17.067 13.867c0 2.133 1.067 20.267-11.733 34.133-6.4 7.467-14.933 11.733-25.6 13.867v10.667c0 8.533-7.467 16-16 16s-16-7.467-16-16v-10.667c-10.667-2.133-19.2-6.4-25.6-13.867-11.733-12.8-11.733-29.867-11.733-34.133 0-3.2 0-9.6 4.267-18.133 2.133-4.267 4.267-7.467 6.4-9.6 4.267-5.333 10.667-8.533 17.067-11.733 9.6-5.333 23.467-12.8 32-17.067 3.2-1.067 9.6-4.267 11.733-7.467 3.2-3.2 3.2-6.4 3.2-10.667-2.133-11.733-10.667-16-24.533-16z" />
<glyph unicode="&#xe907;" glyph-name="icon-vert-auto" d="M121.6 509.867l61.867 1.067c-24.533-28.8-39.467-66.133-39.467-106.667l1.067-107.733c1.067-45.867 23.467-84.267 62.933-105.6 1.067-22.4 10.667-43.733 27.733-59.733 17.067-17.067 39.467-25.6 62.933-25.6 0 0 1.067 0 1.067 0h19.2c49.067 1.067 86.4 27.733 96 67.2l203.733 3.2c11.733-39.467 48-65.067 96-65.067 1.067 0 1.067 0 2.133 0h9.6c26.667 0 51.2 10.667 70.4 29.867 14.933 16 24.533 36.267 27.733 57.6 39.467 22.4 60.8 61.867 60.8 107.733l-1.067 107.733c-1.067 40.533-17.067 76.8-42.667 105.6l62.933 1.067c19.2 0 34.133 16 34.133 35.2l-1.067 38.4c0 19.2-16 34.133-35.2 34.133l-91.733-1.067c-6.4 0-12.8-2.133-18.133-5.333-19.2 86.4-80 168.533-177.067 168.533-1.067 0-2.133 0-2.133 0l-210.133-3.2c-87.467-1.067-157.867-72.533-174.933-173.867-5.333 3.2-10.667 4.267-17.067 4.267l-91.733-1.067c-9.6 0-18.133-4.267-24.533-10.667s-9.6-14.933-9.6-24.533l1.067-37.333c1.067-19.2 17.067-34.133 35.2-34.133zM842.667 307.2c1.067-42.667-25.6-64-46.933-74.667l-12.8-5.333v-13.867c0-14.933-5.333-29.867-16-40.533s-24.533-17.067-40.533-17.067h-9.6c-26.667 0-56.533 10.667-58.667 44.8l-1.067 20.267-280.533-4.267-1.067-20.267c-1.067-34.133-32-45.867-57.6-45.867h-19.2c0 0 0 0-1.067 0-12.8 0-24.533 5.333-33.067 13.867-9.6 8.533-13.867 21.333-14.933 34.133v23.467l-11.733 2.133c-22.4 9.6-49.067 29.867-49.067 73.6l-2.133 107.733c-1.067 60.8 49.067 116.267 113.067 121.6l67.2 7.467c55.467 6.4 106.667 9.6 158.933 9.6 36.267 0 72.533-1.067 110.933-4.267l84.267-6.4c66.133-4.267 118.4-56.533 119.467-118.4l2.133-107.733zM809.6 594.133c0 0 1.067 1.067 2.133 1.067l91.733 1.067c1.067 0 2.133-1.067 2.133-2.133l1.067-38.4c0-1.067-1.067-2.133-2.133-2.133l-69.333-1.067-21.333-7.467c-2.133 2.133-5.333 3.2-7.467 5.333l-2.133 4.267 5.333 10.667v26.667c-1.067 1.067 0 2.133 0 2.133zM404.267 744.533l210.133 3.2c1.067 0 1.067 0 2.133 0 76.8 0 124.8-72.533 137.6-144l5.333-34.133c-10.667 3.2-22.4 5.333-34.133 5.333l-84.267 6.4c-96 7.467-182.4 5.333-278.4-5.333l-67.2-7.467c-10.667-1.067-20.267-3.2-29.867-5.333l4.267 33.067c8.533 71.467 54.4 147.2 134.4 148.267zM120.533 585.6l91.733 1.067c1.067 0 2.133-1.067 2.133-2.133v-26.667l5.333-10.667v-4.267c-2.133-1.067-4.267-2.133-5.333-4.267l-24.533 4.267-68.267-1.067c0 0 0 0 0 0-1.067 0-2.133 1.067-2.133 2.133l-1.067 38.4c0 1.067 1.067 3.2 2.133 3.2zM330.667 443.733c-40.533-1.067-73.6-34.133-73.6-75.733 1.067-40.533 34.133-73.6 74.667-73.6 0 0 1.067 0 1.067 0 40.533 1.067 73.6 34.133 73.6 75.733 0 20.267-8.533 38.4-22.4 52.267s-34.133 21.333-53.333 21.333zM331.733 326.4c0 0 0 0 0 0-23.467 0-42.667 18.133-42.667 41.6s18.133 42.667 41.6 42.667c0 0 0 0 1.067 0 10.667 0 21.333-4.267 29.867-11.733s12.8-18.133 12.8-29.867c0-22.4-19.2-41.6-42.667-42.667zM697.6 449.067c-20.267 0-38.4-8.533-52.267-22.4s-21.333-33.067-21.333-53.333c1.067-40.533 34.133-73.6 74.667-73.6 0 0 1.067 0 1.067 0 40.533 1.067 73.6 34.133 73.6 75.733s-35.2 73.6-75.733 73.6zM698.667 331.733c0 0 0 0 0 0-23.467 0-42.667 18.133-42.667 41.6 0 11.733 4.267 22.4 11.733 29.867 7.467 8.533 18.133 12.8 29.867 12.8 0 0 0 0 1.067 0 23.467 0 41.6-18.133 42.667-41.6 0-22.4-19.2-41.6-42.667-42.667z" />
<glyph unicode="&#xe908;" glyph-name="icon-vert-capitalizacao" d="M557.867 466.133c2.133 1.067 3.2 2.133 5.333 4.267h21.333c49.067-3.2 92.8-5.333 130.133-5.333 83.2 0 138.667 11.733 179.2 51.2 49.067 49.067 49.067 126.933 0 176-28.8 28.8-71.467 35.2-98.133 37.333 0 25.6-6.4 67.2-38.4 99.2-23.467 23.467-55.467 37.333-88.533 37.333s-64-12.8-88.533-37.333c-58.667-58.667-55.467-151.467-45.867-310.4v-12.8c-1.067-1.067-4.267-4.267-7.467-8.533-4.267-2.133-9.6-4.267-13.867-4.267 0 0 0 0 0 0-9.6 0-17.067 4.267-22.4 8.533v17.067c9.6 158.933 12.8 251.733-45.867 310.4-23.467 23.467-55.467 37.333-88.533 37.333s-64-12.8-88.533-37.333c-32-32-38.4-73.6-38.4-99.2-26.667-1.067-69.333-8.533-98.133-37.333-49.067-49.067-49.067-126.933 0-176 40.533-40.533 96-51.2 179.2-51.2 37.333 0 81.067 2.133 130.133 5.333h18.133c3.2-5.333 8.533-13.867 8.533-22.4 0-7.467-2.133-13.867-7.467-20.267h-18.133c-158.933 9.6-251.733 11.733-309.333-45.867-49.067-49.067-49.067-126.933 0-176 28.8-28.8 71.467-35.2 98.133-37.333 0-25.6 6.4-67.2 38.4-99.2 23.467-23.467 55.467-37.333 88.533-37.333s64 12.8 88.533 37.333c58.667 58.667 55.467 151.467 45.867 310.4v12.8c5.333 3.2 13.867 8.533 22.4 8.533 0 0 0 0 0 0 7.467 0 13.867-3.2 21.333-8.533v-12.8c-9.6-158.933-12.8-251.733 45.867-310.4 23.467-23.467 55.467-37.333 88.533-37.333s64 12.8 88.533 37.333c32 32 38.4 73.6 38.4 99.2 26.667 1.067 69.333 8.533 98.133 37.333 49.067 49.067 49.067 126.933 0 176-58.667 58.667-151.467 55.467-309.333 45.867h-23.467c-5.333 6.4-7.467 13.867-7.467 20.267-3.2 6.4 0 12.8 3.2 18.133zM508.8 443.733c0-1.067 0-2.133 0-2.133s0 0 0 0c0 1.067 0 1.067 0 2.133zM610.133 798.933c16 16 36.267 24.533 57.6 24.533s41.6-8.533 57.6-24.533c34.133-34.133 24.533-86.4 24.533-86.4-1.067-6.4 1.067-12.8 5.333-18.133s10.667-7.467 18.133-7.467c1.067 0 59.733 4.267 88.533-24.533 32-32 32-83.2 0-116.267-45.867-45.867-131.2-42.667-277.333-34.133 0 0-1.067 0-1.067 0h-7.467v6.4c0 0 0 1.067 0 1.067-8.533 148.267-10.667 233.6 34.133 279.467zM508.8 449.067c0 0 0 1.067 0 1.067s0 0 0 0c1.067 0 0-1.067 0-1.067zM439.467 512c0 0-1.067 0-1.067 0-147.2-8.533-231.467-11.733-277.333 34.133-32 32-32 83.2 0 116.267 22.4 22.4 61.867 24.533 78.933 24.533 5.333 0 9.6 0 9.6 0 6.4-1.067 12.8 2.133 18.133 6.4 4.267 5.333 6.4 11.733 5.333 18.133 0 0-9.6 52.267 24.533 86.4 16 16 36.267 24.533 57.6 24.533s41.6-8.533 57.6-24.533c45.867-45.867 42.667-131.2 34.133-278.4 0 0 0-1.067 0-1.067v-6.4h-7.467zM413.867 97.067c-16-16-36.267-24.533-57.6-24.533s-41.6 8.533-57.6 24.533c-34.133 34.133-24.533 86.4-24.533 86.4 1.067 6.4-1.067 13.867-5.333 18.133s-9.6 7.467-16 7.467c-1.067 0-1.067 0-2.133 0s-59.733-4.267-88.533 24.533c-32 32-32 83.2 0 116.267 45.867 45.867 131.2 42.667 277.333 34.133 0 0 1.067 0 1.067 0h7.467v-6.4c0 0 0-1.067 0-1.067 8.533-148.267 10.667-233.6-34.133-279.467zM577.067 377.6v6.4h7.467c0 0 1.067 0 1.067 0 147.2 8.533 231.467 11.733 277.333-34.133 32-32 32-83.2 0-116.267-28.8-28.8-88.533-24.533-88.533-24.533-6.4 1.067-12.8-2.133-18.133-6.4-4.267-5.333-6.4-11.733-5.333-18.133 0 0 9.6-52.267-24.533-86.4-16-16-36.267-24.533-57.6-24.533s-41.6 8.533-57.6 24.533c-45.867 45.867-42.667 131.2-34.133 278.4 0 0 0 0 0 1.067z" />
<glyph unicode="&#xe909;" glyph-name="icon-vert-dental" d="M779.733 825.6c-72.533 23.467-144-7.467-195.2-30.933-19.2-8.533-39.467-17.067-48-17.067s-28.8 8.533-48 17.067c-48 21.333-110.933 49.067-177.067 35.2l-5.333 30.933c-1.067 7.467-7.467 13.867-16 13.867s-14.933-5.333-16-13.867l-7.467-45.867c-49.067-23.467-89.6-65.067-112-117.333l-56.533-9.6c-7.467 0-12.8-6.4-12.8-14.933s5.333-14.933 13.867-16l41.6-6.4c-16-72.533-6.4-182.4 102.4-322.133 36.267-46.933 43.733-109.867 51.2-165.333 8.533-69.333 17.067-141.867 92.8-141.867 72.533 0 89.6 94.933 104.533 179.2 9.6 52.267 22.4 123.733 45.867 123.733 24.533 0 37.333-71.467 45.867-123.733 14.933-84.267 32-179.2 104.533-179.2 75.733 0 84.267 72.533 92.8 141.867 6.4 55.467 13.867 118.4 51.2 165.333 118.4 154.667 117.333 272 96 343.467-22.4 72.533-78.933 131.2-148.267 153.6zM262.4 690.133c1.067 0 1.067 1.067 2.133 1.067 10.667 7.467 17.067 19.2 20.267 30.933 0 1.067 0 1.067 1.067 2.133 0 0 0 1.067 0 1.067s0 0 0 0 0 0 0 0 0 0 0 0 0 1.067 0 1.067c0 0 0 1.067 0 1.067l5.333 32 5.333-30.933c0 0 0-1.067 0-1.067 4.267-23.467 22.4-41.6 46.933-45.867l40.533-6.4-41.6-6.4c-23.467-5.333-41.6-23.467-45.867-46.933l-5.333-32-5.333 32c-4.267 23.467-22.4 41.6-46.933 45.867l-40.533 6.4 41.6 6.4c7.467 1.067 14.933 4.267 21.333 9.6 0 0 1.067 0 1.067 0zM259.2 760.533l-4.267-27.733c0 0 0 0 0 0v0c0 0 0 0 0 0s0-1.067 0-1.067c-1.067-5.333-5.333-10.667-9.6-14.933 0 0 0 0 0 0s0 0 0 0c-3.2-2.133-6.4-4.267-9.6-4.267l-25.6-4.267c12.8 21.333 29.867 39.467 49.067 52.267zM796.8 354.133c-43.733-56.533-52.267-128-59.733-186.667-9.6-75.733-16-104.533-50.133-104.533-36.267 0-50.133 76.8-62.933 144-14.933 82.133-28.8 158.933-88.533 158.933s-73.6-76.8-88.533-158.933c-11.733-67.2-25.6-144-62.933-144-35.2 0-41.6 28.8-50.133 104.533-7.467 57.6-16 130.133-59.733 186.667-98.133 129.067-106.667 227.2-92.8 289.067l51.2-8.533c10.667-2.133 19.2-10.667 21.333-20.267l21.333-130.133c1.067-7.467 7.467-13.867 16-13.867s14.933 5.333 16 13.867l20.267 129.067c2.133 10.667 10.667 19.2 20.267 21.333l135.467 22.4c7.467 1.067 13.867 7.467 13.867 16s-5.333 14.933-13.867 16l-135.467 22.4c-10.667 2.133-18.133 9.6-21.333 20.267 0 0 0 0 0 0l-8.533 56.533c53.333 11.733 109.867-13.867 152.533-33.067 26.667-11.733 48-21.333 65.067-21.333s38.4 9.6 65.067 21.333c45.867 20.267 108.8 48 165.333 28.8 43.733-13.867 98.133-54.4 120.533-125.867 19.2-60.8 19.2-163.2-89.6-304z" />
<glyph unicode="&#xe90a;" glyph-name="icon-vert-previdencia" d="M556.8 235.733c-11.733 11.733-28.8 18.133-49.067 18.133-19.2-1.067-35.2-8.533-45.867-20.267l-130.133-129.067c-9.6-8.533-11.733-25.6-6.4-40.533 5.333-13.867 16-21.333 29.867-21.333h311.467c12.8 0 24.533 8.533 29.867 22.4 6.4 13.867 4.267 28.8-5.333 39.467l-134.4 131.2zM669.867 76.8c0 0 0 0 0 0v-3.2h-314.667v1.067c-2.133 2.133-2.133 5.333-2.133 6.4v1.067l1.067 1.067 131.2 128c6.4 7.467 14.933 11.733 25.6 11.733 11.733 0 20.267-3.2 25.6-10.667l132.267-130.133c2.133-2.133 1.067-4.267 1.067-5.333zM512 386.133c-9.6 0-18.133-7.467-18.133-18.133 0-9.6 7.467-18.133 18.133-18.133 9.6 0 18.133 7.467 18.133 18.133s-8.533 18.133-18.133 18.133zM512 288c9.6 0 18.133 7.467 18.133 18.133 0 9.6-7.467 18.133-18.133 18.133-9.6 0-18.133-7.467-18.133-18.133 0-9.6 8.533-18.133 18.133-18.133zM162.133-29.867h701.867c11.733 0 21.333 9.6 21.333 21.333s-9.6 21.333-21.333 21.333h-28.8v2.133c-10.667 244.267-166.4 381.867-233.6 429.867l-4.267 3.2 3.2 2.133c67.2 48 224 186.667 233.6 429.867v2.133h28.8c11.733 0 21.333 9.6 21.333 21.333s-9.6 21.333-21.333 21.333h-701.867c-11.733 0-21.333-9.6-21.333-21.333s9.6-21.333 21.333-21.333h28.8v-2.133c9.6-244.267 165.333-381.867 232.533-429.867l3.2-2.133-3.2-2.133c-66.133-48-222.933-185.6-232.533-429.867v-2.133h-27.733c-11.733 0-21.333-9.6-21.333-21.333s9.6-22.4 21.333-22.4zM232.533 16c10.667 250.667 193.067 381.867 233.6 408.533h-2.133l10.667 5.333c2.133 1.067 3.2 2.133 4.267 3.2l1.067 1.067c1.067 0 1.067 1.067 2.133 2.133 0 1.067 1.067 2.133 1.067 3.2v0c0 2.133 0 3.2 1.067 4.267v8.533c0 1.067-1.067 1.067-1.067 3.2 0 0 0 0 0 0l-1.067 1.067v1.067l-2.133 1.067v1.067c0 0-1.067 1.067-1.067 2.133-1.067 0-1.067 1.067-2.133 1.067l-1.067 1.067c-1.067 0-1.067 1.067-1.067 1.067h-1.067l-2.133 2.133c-11.733 6.4-229.333 137.6-243.2 411.733v3.2h561.067v-3.2c-12.8-276.267-234.667-407.467-243.2-412.8v-2.133h-2.133c0 0-1.067-1.067-2.133-1.067l-1.067-1.067c0-1.067-1.067-1.067-1.067-1.067v-1.067l-1.067-1.067c0-1.067-1.067-1.067-1.067-2.133s0-2.133-1.067-3.2v-13.867c0 0 0 0 0 0l1.067-1.067v-1.067c0-1.067 1.067-1.067 1.067-3.2v0c0-1.067 1.067-1.067 1.067-1.067 0-1.067 0-1.067 1.067-1.067l1.067-1.067c1.067-1.067 1.067-1.067 2.133-2.133h3.2c2.133-1.067 231.467-133.333 243.2-413.867v-3.2h-557.867v4.267zM454.4 531.2l6.4-5.333c19.2-17.067 35.2-24.533 51.2-24.533 14.933 0 29.867 6.4 49.067 22.4l1.067 1.067h1.067c0 0 1.067 1.067 2.133 2.133 51.2 43.733 96 80 131.2 144 9.6 17.067 10.667 32 3.2 44.8-11.733 18.133-36.267 18.133-36.267 18.133h-295.467c-9.6 0-30.933 0-40.533-17.067-6.4-11.733-5.333-27.733 5.333-45.867 32-59.733 71.467-94.933 121.6-139.733zM353.067 699.733h3.2c1.067 0 2.133 0 3.2 0 2.133 0 4.267 1.067 7.467 1.067h294.4c2.133 0 4.267-1.067 6.4-1.067 0 0 1.067 0 1.067 0h2.133v-2.133c0-1.067 0-3.2-4.267-11.733-28.8-53.333-65.067-86.4-120.533-133.333l-1.067-1.067h-1.067c0 0-1.067-1.067-2.133-2.133-13.867-11.733-22.4-18.133-32-18.133-8.533 0-18.133 6.4-30.933 18.133l-7.467 6.4c-46.933 41.6-84.267 74.667-114.133 126.933-3.2 6.4-5.333 10.667-5.333 13.867v3.2z" />
<glyph unicode="&#xe90b;" glyph-name="icon-vert-residencial" d="M205.867 515.2c-11.733 0-21.333-9.6-21.333-21.333v-312.533c0-33.067 26.667-59.733 59.733-59.733h537.6c33.067 0 59.733 26.667 59.733 59.733v312.533c0 11.733-9.6 21.333-21.333 21.333s-21.333-9.6-21.333-21.333v-312.533c0-9.6-7.467-17.067-17.067-17.067h-537.6c-9.6 0-17.067 7.467-17.067 17.067v312.533c0 11.733-9.6 21.333-21.333 21.333zM106.667 488.533c4.267 0 7.467 1.067 11.733 3.2l355.2 228.267c2.133 1.067 41.6 25.6 78.933 0 51.2-34.133 84.267-53.333 85.333-54.4 6.4-4.267 14.933-4.267 21.333 0s10.667 10.667 10.667 18.133v46.933h67.2v-117.333c0-7.467 3.2-13.867 9.6-18.133l158.933-104.533c9.6-6.4 23.467-4.267 29.867 6.4 6.4 9.6 4.267 23.467-6.4 29.867l-149.333 99.2v126.933c0 11.733-9.6 21.333-21.333 21.333h-109.867c-11.733 0-21.333-9.6-21.333-21.333v-29.867c-13.867 8.533-30.933 19.2-51.2 33.067-61.867 41.6-123.733 2.133-125.867 0l-355.2-229.333c-9.6-6.4-12.8-19.2-6.4-29.867 4.267-5.333 10.667-8.533 18.133-8.533z" />
<glyph unicode="&#xe90c;" glyph-name="icon-vert-saude" d="M640 874.667c-46.933 0-91.733-16-128-44.8-36.267 28.8-81.067 44.8-128 44.8-112 0-202.667-90.667-202.667-202.667 0-24.533 4.267-49.067 13.867-72.533 3.2-6.4 68.267-166.4 306.133-312.533 3.2-2.133 7.467-3.2 11.733-3.2s7.467 1.067 11.733 3.2c9.6 6.4 234.667 149.333 299.733 299.733 0 0 0 0 0 0 12.8 26.667 19.2 56.533 19.2 86.4-1.067 109.867-92.8 201.6-203.733 201.6zM785.067 603.733c0 0 0-1.067-1.067-1.067-51.2-120.533-226.133-243.2-272-274.133-215.467 137.6-276.267 284.8-277.333 285.867-7.467 18.133-10.667 38.4-10.667 57.6 0 88.533 71.467 160 160 160 42.667 0 82.133-16 112-45.867 1.067-1.067 2.133-1.067 3.2-2.133 8.533-6.4 20.267-5.333 27.733 2.133 29.867 28.8 70.4 45.867 113.067 45.867 88.533 0 160-71.467 160-160 0-24.533-5.333-46.933-14.933-68.267zM110.933 502.4c0-21.333 12.8-40.533 30.933-49.067-1.067-17.067 6.4-38.4 21.333-64 44.8-77.867 172.8-198.4 329.6-209.067 0-30.933-6.4-88.533-34.133-107.733-13.867-9.6-32-9.6-55.467-1.067l-83.2 36.267c1.067 5.333 2.133 11.733 2.133 18.133 0 53.333-43.733 96-96 96s-96-43.733-96-96 43.733-96 96-96c32 0 59.733 16 77.867 39.467l84.267-36.267c17.067-6.4 33.067-9.6 46.933-9.6 18.133 0 35.2 5.333 49.067 16 45.867 33.067 51.2 109.867 51.2 142.933 155.733 10.667 282.667 131.2 328.533 209.067 14.933 25.6 21.333 46.933 21.333 64 18.133 9.6 29.867 27.733 29.867 49.067 0 30.933-25.6 56.533-56.533 56.533s-56.533-25.6-56.533-56.533c0-24.533 17.067-45.867 39.467-53.333 0-7.467-5.333-27.733-29.867-60.8-44.8-61.867-157.867-166.4-298.667-166.4s-253.867 104.533-298.667 166.4c-24.533 33.067-28.8 53.333-29.867 60.8 22.4 7.467 39.467 27.733 39.467 53.333 0 30.933-25.6 56.533-56.533 56.533s-56.533-27.733-56.533-58.667zM224 71.467c-29.867 0-53.333 24.533-53.333 53.333s24.533 53.333 53.333 53.333c29.867 0 53.333-24.533 53.333-53.333 0 0 0 0 0 0l-44.8 19.2c-10.667 4.267-23.467 0-27.733-10.667s0-23.467 10.667-27.733l44.8-19.2c-8.533-9.6-21.333-14.933-36.267-14.933zM857.6 516.267c7.467 0 13.867-6.4 13.867-13.867s-6.4-13.867-13.867-13.867-13.867 6.4-13.867 13.867c0 7.467 6.4 13.867 13.867 13.867zM180.267 502.4c0-7.467-6.4-13.867-13.867-13.867s-13.867 6.4-13.867 13.867c0 7.467 6.4 13.867 13.867 13.867s13.867-6.4 13.867-13.867z" />
<glyph unicode="&#xe90d;" glyph-name="icon-vert-vida" d="M728.533 40.533c3.2-8.533 11.733-13.867 20.267-13.867 2.133 0 5.333 0 7.467 1.067l115.2 43.733c8.533 3.2 13.867 11.733 13.867 21.333l-13.867 181.333c-4.267 84.267-56.533 157.867-132.267 195.2 27.733 27.733 43.733 64 43.733 103.467 0 81.067-68.267 147.2-151.467 147.2-75.733 0-138.667-54.4-150.4-124.8-25.6 29.867-64 48-107.733 48-72.533 0-133.333-53.333-140.8-123.733 0-1.067 0-2.133 0-3.2v-2.133c-1.067-11.733-6.4-41.6-42.667-53.333-10.667-3.2-17.067-14.933-13.867-25.6 1.067-3.2 7.467-27.733 35.2-43.733 5.333-3.2 11.733-6.4 18.133-8.533-45.867-37.333-74.667-91.733-77.867-151.467l-12.8-139.733c-1.067-9.6 4.267-18.133 12.8-21.333l112-48c3.2-1.067 5.333-2.133 8.533-2.133 8.533 0 16 5.333 19.2 12.8 4.267 10.667 0 23.467-11.733 27.733l-97.067 41.6 10.667 124.8c4.267 71.467 54.4 134.4 125.867 155.733 6.4 2.133 10.667 6.4 13.867 11.733s2.133 12.8 0 18.133c-4.267 8.533-14.933 13.867-24.533 10.667-45.867-11.733-69.333-3.2-81.067 6.4 32 19.2 45.867 52.267 48 80v1.067c0 0 0 1.067 0 1.067v0c4.267 49.067 46.933 85.333 98.133 85.333 54.4 0 98.133-42.667 98.133-94.933 0-34.133-19.2-65.067-49.067-82.133-4.267-2.133-7.467-5.333-8.533-9.6v0c-5.333-10.667 0-23.467 10.667-28.8 6.4-3.2 13.867-2.133 20.267 1.067 36.267 20.267 60.8 54.4 68.267 92.8 11.733-13.867 25.6-26.667 42.667-35.2 5.333-3.2 12.8-4.267 20.267-2.133 10.667 4.267 16 17.067 10.667 27.733-2.133 4.267-5.333 7.467-9.6 10.667-34.133 19.2-54.4 53.333-54.4 90.667 0 57.6 49.067 104.533 108.8 104.533s108.8-46.933 108.8-104.533c0-37.333-21.333-72.533-54.4-90.667-3.2-2.133-6.4-5.333-8.533-8.533-3.2-5.333-3.2-12.8-1.067-18.133s7.467-10.667 13.867-12.8c78.933-23.467 134.4-92.8 138.667-171.733l11.733-158.933-100.267-38.4c-10.667-4.267-16-17.067-11.733-27.733zM325.333 45.867c0-1.067 0-1.067 0-2.133 0-11.733 9.6-21.333 21.333-21.333h326.4c11.733 0 21.333 9.6 21.333 21.333 0 0 0 1.067 0 1.067-3.2 61.867-40.533 117.333-94.933 147.2 19.2 21.333 29.867 48 29.867 76.8 0 64-53.333 115.2-118.4 115.2s-118.4-52.267-118.4-115.2c0-27.733 10.667-55.467 28.8-75.733-55.467-29.867-91.733-85.333-96-147.2zM468.267 166.4c5.333 2.133 10.667 5.333 12.8 10.667s3.2 11.733 1.067 17.067c-2.133 5.333-5.333 8.533-9.6 11.733-23.467 12.8-38.4 37.333-38.4 62.933 0 40.533 34.133 72.533 75.733 72.533s76.8-32 76.8-72.533c0-25.6-14.933-50.133-38.4-62.933-2.133-1.067-5.333-3.2-6.4-5.333-4.267-5.333-5.333-12.8-3.2-19.2s7.467-11.733 13.867-13.867c49.067-14.933 85.333-53.333 96-100.267h-277.333c11.733 45.867 48 84.267 97.067 99.2zM97.067 595.2c3.2-2.133 6.4-2.133 10.667-2.133 7.467 0 14.933 4.267 19.2 10.667 107.733 197.333 288 226.133 385.067 226.133s277.333-29.867 386.133-226.133c4.267-7.467 10.667-10.667 19.2-10.667 3.2 0 7.467 1.067 10.667 2.133 10.667 5.333 13.867 18.133 8.533 28.8-120.533 216.533-317.867 248.533-424.533 248.533s-304-32-423.467-248.533c-5.333-9.6-1.067-23.467 8.533-28.8z" />
<glyph unicode="&#xe90e;" glyph-name="icon-vb-beneficios" d="M772.267 418.133c17.067 0 30.933 13.867 30.933 30.933s-13.867 30.933-30.933 30.933c-17.067 0-30.933-13.867-30.933-30.933s13.867-30.933 30.933-30.933zM642.133 541.867c-6.4 6.4-16 6.4-22.4 0l-61.867-62.933c-6.4-6.4-6.4-16 0-22.4 3.2-3.2 7.467-4.267 11.733-4.267s8.533 1.067 11.733 4.267l36.267 36.267c0-114.133-93.867-208-208-208-115.2 0-208 93.867-208 208 0 8.533-7.467 16-16 16s-16-7.467-16-16c0-132.267 107.733-240 240-240 131.2 0 238.933 106.667 240 237.867l34.133-34.133c6.4-6.4 16-6.4 22.4 0s6.4 16 0 22.4l-64 62.933zM958.933 460.8l-224 277.333c-3.2 4.267-7.467 6.4-12.8 6.4h-644.267c-8.533 0-16-7.467-16-16v-560c0-8.533 7.467-16 16-16h644.267c5.333 0 9.6 2.133 12.8 6.4l224 282.667c4.267 5.333 4.267 13.867 0 19.2zM714.667 184.533h-620.8v528h620.8l211.2-261.333-211.2-266.667zM314.667 490.667c35.2 0 64 28.8 64 64s-28.8 64-64 64-64-28.8-64-64 29.867-64 64-64zM314.667 585.6c17.067 0 32-13.867 32-32 0-17.067-13.867-32-32-32s-32 13.867-32 32c1.067 17.067 14.933 32 32 32zM393.6 429.867c0-35.2 28.8-64 64-64s64 28.8 64 64-28.8 64-64 64-64-29.867-64-64zM488.533 429.867c0-17.067-13.867-32-32-32-17.067 0-32 13.867-32 32 0 17.067 13.867 32 32 32 18.133-1.067 32-14.933 32-32zM280.533 386.133c3.2-3.2 7.467-4.267 11.733-4.267s8.533 1.067 11.733 4.267l190.933 190.933c6.4 6.4 6.4 16 0 22.4s-16 6.4-22.4 0l-192-190.933c-6.4-6.4-6.4-16 0-22.4z" />
<glyph unicode="&#xe90f;" glyph-name="icon-vb-bercario" d="M542.933 376.533h273.067c0 0 0 0 0 0 2.133 0 5.333 1.067 7.467 2.133 90.667 46.933 147.2 139.733 147.2 242.133 0 150.4-122.667 273.067-273.067 273.067-8.533 0-16-7.467-16-16v-226.133h-480v115.2c0 8.533-7.467 16-16 16h-116.267c-8.533 0-16-7.467-16-16s7.467-16 16-16h100.267v-110.933c0-141.867 112-257.067 252.8-263.467v0h10.667c0 0 1.067 0 1.067 0s0 0 0 0h76.8v-221.867h-56.533c-7.467 68.267-66.133 120.533-135.467 120.533-75.733 0-136.533-61.867-136.533-136.533s61.867-136.533 136.533-136.533c70.4 0 128 53.333 135.467 120.533h144c7.467-68.267 66.133-120.533 135.467-120.533 76.8 0 138.667 61.867 138.667 136.533s-61.867 137.6-137.6 137.6c-70.4 0-128-53.333-135.467-120.533h-56.533v220.8zM202.667 619.733h494.933c8.533 0 16 7.467 16 16v226.133c124.8-8.533 225.067-113.067 225.067-241.067 0-88.533-48-169.6-126.933-212.267h-378.667c-120.533 1.067-219.733 93.867-230.4 211.2zM318.933 34.133c-57.6 0-104.533 46.933-104.533 104.533s46.933 104.533 104.533 104.533 104.533-46.933 104.533-104.533-46.933-104.533-104.533-104.533zM734.933 244.267c57.6 0 104.533-46.933 104.533-104.533s-46.933-104.533-104.533-104.533c-57.6 0-104.533 46.933-104.533 104.533s46.933 104.533 104.533 104.533z" />
<glyph unicode="&#xe910;" glyph-name="icon-vb-danca" d="M947.2 899.2h-130.133c-8.533 0-16-7.467-16-16v-121.6c-9.6 5.333-19.2 8.533-30.933 8.533-34.133 0-62.933-27.733-62.933-62.933s27.733-62.933 62.933-62.933c34.133 0 62.933 27.733 62.933 62.933v90.667h114.133c8.533 0 16 7.467 16 16v69.333c0 8.533-6.4 16-16 16zM770.133 676.267c-17.067 0-30.933 13.867-30.933 30.933s13.867 30.933 30.933 30.933 30.933-13.867 30.933-30.933c0-17.067-13.867-30.933-30.933-30.933zM931.2 829.867h-98.133v37.333h98.133v-37.333zM121.6 646.4c34.133 0 61.867 27.733 61.867 61.867v89.6h141.867v-35.2c-8.533 5.333-19.2 7.467-29.867 7.467-34.133 0-61.867-27.733-61.867-61.867s27.733-61.867 61.867-61.867 61.867 27.733 61.867 61.867v174.933c0 8.533-7.467 16-16 16h-172.8c-8.533 0-16-7.467-16-16v-119.467c-8.533 5.333-19.2 7.467-29.867 7.467-34.133 0-61.867-27.733-61.867-61.867s26.667-62.933 60.8-62.933zM296.533 678.4c-17.067 0-29.867 13.867-29.867 29.867 0 17.067 13.867 29.867 29.867 29.867 17.067 0 29.867-13.867 29.867-29.867s-12.8-29.867-29.867-29.867zM184.533 867.2h141.867v-36.267h-141.867v36.267zM121.6 739.2c17.067 0 29.867-13.867 29.867-29.867 0-17.067-13.867-29.867-29.867-29.867s-29.867 13.867-29.867 29.867c0 16 13.867 29.867 29.867 29.867zM960 533.333c0 39.467-32 71.467-71.467 71.467s-71.467-32-71.467-70.4c0 0 0 0 0 0-2.133-55.467-22.4-94.933-68.267-136.533-35.2-32-68.267-46.933-99.2-43.733-20.267 1.067-40.533 11.733-58.667 28.8 53.333 28.8 87.467 85.333 87.467 147.2 0 48-20.267 92.8-55.467 124.8s-83.2 46.933-131.2 41.6c-74.667-8.533-136.533-68.267-147.2-141.867-10.667-72.533 26.667-142.933 90.667-174.933 1.067 0 1.067-1.067 2.133-2.133v-3.2c0 0 0-1.067-1.067-2.133s-2.133 0-3.2 0c-57.6 25.6-129.067 18.133-194.133-19.2-23.467-13.867-45.867-29.867-67.2-48-71.467-67.2-107.733-148.267-107.733-244.267v0 0c0 0 0 0 0 0v0c0-39.467 32-71.467 71.467-71.467s71.467 32 71.467 70.4v0c2.133 55.467 21.333 93.867 68.267 136.533 24.533 22.4 45.867 35.2 67.2 41.6v-226.133c0-8.533 7.467-16 16-16h302.933c8.533 0 16 7.467 16 16v182.4c57.6 7.467 120.533 38.4 172.8 85.333 78.933 71.467 112 147.2 109.867 253.867v0 0c0 0 0 0 0 0s0 0 0 0zM828.8 302.933c-51.2-45.867-112-74.667-167.467-78.933 0 0-1.067 0-1.067 0-1.067 0-1.067 0-2.133 0 0 0-1.067 0-1.067 0s-1.067 0-1.067-1.067c0 0-1.067 0-1.067-1.067 0 0-1.067 0-1.067-1.067 0 0-1.067-1.067-1.067-1.067s-1.067-1.067-1.067-1.067c0 0-1.067-1.067-1.067-1.067s-1.067-1.067-1.067-1.067c0 0 0-1.067-1.067-1.067 0 0 0-1.067-1.067-1.067 0 0 0-1.067 0-1.067s0-1.067 0-1.067c0 0 0-1.067 0-1.067s0-1.067 0-1.067v-179.2h-272v228.267c0 0 0 1.067 0 1.067s0 1.067 0 1.067c0 0 0 0 0 1.067s0 1.067 0 2.133c0 0 0 1.067 0 1.067s0 1.067-1.067 1.067c0 0 0 1.067-1.067 1.067 0 0-1.067 1.067-1.067 1.067s-1.067 1.067-1.067 1.067c0 0-1.067 1.067-1.067 1.067s-1.067 1.067-1.067 1.067c0 0-1.067 0-1.067 1.067-1.067 0-1.067 1.067-2.133 1.067 0 0-1.067 0-1.067 0-1.067 0-1.067 0-2.133 1.067 0 0-1.067 0-1.067 0-1.067 0-1.067 0-2.133 0 0 0 0 0 0 0s-1.067 0-1.067 0c0 0-1.067 0-1.067 0s-1.067 0-1.067 0c0 0 0 0 0 0-33.067-4.267-65.067-21.333-101.333-53.333-53.333-48-76.8-94.933-78.933-158.933 0 0 0 0 0 0s0 0 0 0c0-21.333-18.133-39.467-39.467-39.467s-39.467 18.133-39.467 39.467v0 0c0 86.4 33.067 160 98.133 218.667 19.2 17.067 39.467 32 60.8 44.8 56.533 32 117.333 38.4 165.333 18.133 11.733-5.333 24.533-4.267 35.2 3.2s16 20.267 13.867 32v3.2c-1.067 10.667-8.533 21.333-19.2 25.6-52.267 26.667-82.133 83.2-73.6 141.867 8.533 59.733 58.667 107.733 118.4 114.133 39.467 4.267 76.8-7.467 105.6-34.133 28.8-25.6 44.8-62.933 44.8-101.333 0-56.533-35.2-107.733-88.533-126.933-8.533-3.2-12.8-12.8-9.6-20.267 1.067-3.2 3.2-5.333 5.333-7.467 27.733-32 58.667-50.133 92.8-53.333 3.2 0 5.333 0 8.533 0 37.333 0 75.733 18.133 114.133 52.267 53.333 48 76.8 96 78.933 158.933 0 0 0 0 0 0s0 0 0 0c0 21.333 18.133 39.467 39.467 39.467s40.533-17.067 40.533-38.4c0 0 0 0 0 0s0 0 0 0c2.133-98.133-26.667-165.333-99.2-230.4z" />
<glyph unicode="&#xe911;" glyph-name="icon-vb-documentarios" d="M946.133 898.133h-868.267c-8.533 0-16-7.467-16-16v-869.333c0-8.533 7.467-16 16-16h869.333c8.533 0 16 7.467 16 16v869.333c-1.067 9.6-7.467 16-17.067 16zM930.133 464h-162.133v185.6h163.2v-185.6zM736 665.6v-200.533h-446.933v401.067h446.933v-200.533zM257.067 464h-163.2v185.6h162.133l1.067-185.6zM93.867 432h162.133v-185.6h-162.133v185.6zM289.067 230.4v201.6h446.933v-403.2h-446.933v201.6zM768 432h163.2v-185.6h-163.2v185.6zM930.133 866.133v-185.6h-162.133v185.6h162.133zM93.867 866.133h162.133v-185.6h-162.133v185.6zM93.867 29.867v184.533h162.133v-185.6l-162.133 1.067zM930.133 29.867h-162.133v184.533h163.2v-184.533z" />
<glyph unicode="&#xe912;" glyph-name="icon-vb-exposicoes" d="M122.667 496h126.933c8.533 0 16 7.467 16 16v90.667c0 8.533-7.467 16-16 16h-126.933c-8.533 0-16-7.467-16-16v-90.667c0-8.533 6.4-16 16-16zM138.667 586.667h94.933v-58.667h-94.933v58.667zM773.333 496h126.933c8.533 0 16 7.467 16 16v90.667c0 8.533-7.467 16-16 16h-126.933c-8.533 0-16-7.467-16-16v-90.667c0-8.533 7.467-16 16-16zM789.333 586.667h94.933v-58.667h-94.933v58.667zM917.333 133.333v325.333c0 8.533-7.467 16-16 16h-126.933c-8.533 0-16-7.467-16-16v-38.4c-52.267-57.6-146.133-93.867-246.4-93.867s-194.133 36.267-246.4 94.933v37.333c0 8.533-7.467 16-16 16h-126.933c-8.533 0-16-7.467-16-16v-326.4c-29.867-23.467-46.933-59.733-46.933-98.133v-19.2c0-8.533 7.467-16 16-16h220.8c8.533 0 16 7.467 16 16v19.2c0 38.4-17.067 73.6-46.933 98.133v199.467c62.933-82.133 151.467-129.067 246.4-129.067s183.467 48 246.4 130.133v-199.467c-29.867-23.467-46.933-59.733-46.933-98.133v-19.2c0-8.533 7.467-16 16-16h220.8c8.533 0 16 7.467 16 16v19.2c0 38.4-18.133 73.6-46.933 98.133zM280.533 35.2v-3.2h-188.8v3.2c0 30.933 14.933 59.733 39.467 76.8 4.267 3.2 6.4 7.467 6.4 12.8v317.867h94.933v-317.867c0-5.333 2.133-9.6 6.4-12.8 26.667-17.067 41.6-45.867 41.6-76.8zM512 234.667c-89.6 0-172.8 48-228.267 129.067 59.733-42.667 141.867-68.267 228.267-68.267s169.6 24.533 229.333 67.2c-56.533-81.067-139.733-128-229.333-128zM932.267 32h-188.8v3.2c0 30.933 14.933 59.733 39.467 76.8 4.267 3.2 6.4 7.467 6.4 12.8v258.133c0 2.133 0 4.267 0 6.4v53.333h96v-317.867c0-5.333 2.133-9.6 6.4-12.8 24.533-18.133 39.467-46.933 39.467-76.8l1.067-3.2zM341.333 481.067c1.067-2.133 2.133-3.2 3.2-5.333 0 0 0 0 0 0v0c1.067-1.067 3.2-3.2 5.333-3.2 0 0 0 0 0 0 2.133-1.067 4.267-1.067 6.4-1.067h311.467c2.133 0 4.267 0 6.4 1.067 0 0 0 0 0 0 2.133 1.067 4.267 2.133 5.333 3.2 0 0 0 0 0 0s0 0 0 0c1.067 1.067 2.133 3.2 3.2 5.333 0 0 0 0 0 0 1.067 2.133 1.067 3.2 1.067 5.333v394.667c0 2.133 0 4.267-1.067 5.333 0 0 0 0 0 0-1.067 2.133-2.133 3.2-3.2 5.333 0 0 0 0 0 0s0 0 0 0c-1.067 1.067-3.2 3.2-5.333 3.2 0 0 0 0 0 0-2.133 1.067-4.267 2.133-6.4 2.133 0 0 0 0 0 0v0h-311.467c0 0 0 0 0 0-2.133 0-4.267 0-5.333-1.067 0 0 0 0 0 0-2.133-1.067-3.2-2.133-5.333-3.2v0c0 0 0 0 0 0-1.067-1.067-2.133-3.2-3.2-5.333 0 0 0 0 0 0-1.067-2.133-1.067-3.2-1.067-5.333v-394.667c-1.067-3.2-1.067-5.333 0-6.4 0 0 0 0 0 0zM449.067 664.533l20.267 18.133 17.067-21.333c3.2-4.267 7.467-6.4 12.8-6.4 4.267 0 9.6 2.133 12.8 5.333l27.733 33.067 35.2-35.2v-80h-125.867v86.4zM574.933 704l-24.533 25.6c-3.2 3.2-7.467 5.333-11.733 4.267-4.267 0-8.533-2.133-11.733-5.333l-26.667-32-16 20.267c-3.2 3.2-6.4 5.333-11.733 6.4-4.267 0-8.533-1.067-11.733-4.267l-10.667-9.6v80h124.8v-85.333zM439.467 546.133h144l44.8-43.733h-232.533l43.733 43.733zM606.933 569.6v228.267l44.8 44.8v-317.867l-44.8 44.8zM584.533 821.333h-145.067l-44.8 43.733h233.6l-43.733-43.733zM417.067 797.867v-229.333l-44.8-44.8v318.933l44.8-44.8z" />
<glyph unicode="&#xe913;" glyph-name="icon-vb-facilidades" d="M281.6 382.933c3.2-3.2 7.467-4.267 10.667-4.267 0 0 0 0 1.067 0 4.267 0 8.533 2.133 11.733 5.333l87.467 104.533c5.333 6.4 4.267 17.067-2.133 22.4s-17.067 4.267-22.4-2.133l-75.733-90.667-45.867 44.8c-6.4 6.4-16 6.4-22.4 0s-6.4-16 0-22.4l57.6-57.6zM305.067 262.4c102.4 0 185.6 83.2 185.6 185.6s-83.2 185.6-185.6 185.6c-102.4 0-185.6-83.2-185.6-185.6s83.2-185.6 185.6-185.6zM305.067 601.6c84.267 0 153.6-69.333 153.6-153.6s-68.267-153.6-153.6-153.6-153.6 69.333-153.6 153.6 69.333 153.6 153.6 153.6zM947.2 759.467h-870.4c-8.533 0-16-7.467-16-16v-589.867c0-8.533 7.467-16 16-16h870.4c8.533 0 16 7.467 16 16v589.867c0 8.533-7.467 16-16 16zM931.2 168.533h-838.4v558.933h838.4v-558.933zM532.267 432h343.467c8.533 0 16 7.467 16 16s-7.467 16-16 16h-343.467c-8.533 0-16-7.467-16-16s7.467-16 16-16zM532.267 283.733h280.533c8.533 0 16 7.467 16 16s-7.467 16-16 16h-280.533c-8.533 0-16-7.467-16-16s7.467-16 16-16zM532.267 580.267h201.6c8.533 0 16 7.467 16 16s-7.467 16-16 16h-201.6c-8.533 0-16-7.467-16-16s7.467-16 16-16z" />
<glyph unicode="&#xe914;" glyph-name="icon-vb-jazz" d="M890.667 695.467c-38.4 0-69.333-30.933-69.333-68.267 0 0 0 0 0 0 0-61.867-50.133-112-112-112h-119.467v67.2c0 8.533-7.467 16-16 16s-16-7.467-16-16v-67.2h-64v67.2c0 8.533-7.467 16-16 16s-16-7.467-16-16v-67.2h-64v67.2c0 8.533-7.467 16-16 16s-16-7.467-16-16v-67.2h-13.867c-1.067 0-2.133 0-2.133 0-1.067 0-2.133 0-2.133 0-81.067 0-148.267-61.867-156.8-140.8h-94.933v69.333c0 8.533-7.467 16-16 16s-16-7.467-16-16v-178.133c0-8.533 7.467-16 16-16s16 7.467 16 16v76.8h94.933c8.533-78.933 74.667-140.8 156.8-140.8h285.867c48 0 86.4 38.4 86.4 86.4s-38.4 86.4-86.4 86.4h-43.733v108.8h119.467c61.867 0 112-50.133 112-112 0 0 0 0 0-1.067 0 0 0 0 0-1.067 0-38.4 30.933-69.333 69.333-69.333s69.333 30.933 69.333 69.333v256c0 39.467-32 70.4-69.333 70.4zM461.867 483.2v-108.8h-64v108.8h64zM461.867 232.533h-64v109.867h64v-109.867zM493.867 342.4h64v-108.8h-64v108.8zM347.733 483.2c1.067 0 2.133 0 2.133 0 1.067 0 2.133 0 2.133 0h13.867v-108.8h-142.933c8.533 60.8 60.8 108.8 124.8 108.8zM222.933 342.4h142.933v-108.8h-18.133c-64-1.067-116.267 46.933-124.8 108.8zM632.533 342.4c29.867 0 54.4-24.533 54.4-54.4s-24.533-54.4-54.4-54.4h-43.733v108.8h43.733zM557.867 374.4h-64v108.8h64v-108.8zM928 370.133c0-20.267-17.067-37.333-37.333-37.333s-37.333 17.067-37.333 37.333c0 0 0 0 0 1.067 0 0 0 0 0 1.067 0 55.467-32 103.467-77.867 128 45.867 23.467 77.867 71.467 77.867 126.933 0 0 0 0 0 0 0 20.267 17.067 37.333 37.333 37.333s37.333-17.067 37.333-37.333v-257.067z" />
<glyph unicode="&#xe915;" glyph-name="icon-vb-livro" d="M954.667 632.533c0 19.2-9.6 36.267-25.6 46.933 0 0 0 0-1.067 0-7.467 6.4-16 11.733-24.533 16-35.2 17.067-103.467 46.933-173.867 46.933-52.267 0-112-16-173.867-46.933-18.133-9.6-30.933-20.267-40.533-30.933-4.267 5.333-8.533 10.667-14.933 14.933 0 0 0 0-1.067 0-7.467 6.4-16 11.733-24.533 16-35.2 17.067-103.467 46.933-173.867 46.933-52.267 0-112-16-173.867-46.933-50.133-25.6-60.8-61.867-60.8-87.467v-20.267c0 0 0-1.067 0-1.067v-369.067c0-30.933 25.6-56.533 56.533-56.533h347.733c16 0 29.867 6.4 40.533 17.067 10.667-10.667 24.533-17.067 40.533-17.067h347.733c30.933 0 56.533 25.6 56.533 56.533l-1.067 414.933zM528 608c0 24.533 14.933 43.733 43.733 58.667 55.467 27.733 112 42.667 157.867 42.667 64 0 128-26.667 160-43.733 9.6-4.267 19.2-11.733 26.667-20.267v0c3.2-4.267 5.333-9.6 5.333-14.933l1.067-392.533c-6.4 4.267-12.8 8.533-19.2 11.733-35.2 17.067-103.467 46.933-173.867 46.933-52.267 0-112-16-173.867-46.933-10.667-5.333-20.267-11.733-28.8-19.2v356.267c0 0 0 1.067 0 1.067v0l1.067 20.267zM100.267 587.733v20.267c0 24.533 14.933 43.733 43.733 58.667 55.467 27.733 112 42.667 157.867 42.667 64 0 128-26.667 160-43.733 9.6-4.267 19.2-11.733 26.667-20.267v0c3.2-4.267 5.333-9.6 5.333-14.933l1.067-392.533c-6.4 4.267-12.8 8.533-19.2 11.733-59.733 32-121.6 49.067-173.867 49.067s-112-16-173.867-46.933c-10.667-5.333-20.267-11.733-28.8-19.2l1.067 355.2c0 0 0 0 0 0v0 0zM471.467 194.133h-346.667c-4.267 0-8.533 1.067-12.8 3.2 7.467 9.6 18.133 18.133 32 25.6 55.467 27.733 112 42.667 157.867 42.667 46.933 0 104.533-14.933 160-43.733 9.6-4.267 19.2-11.733 26.667-20.267l3.2 3.2c-3.2-5.333-10.667-10.667-20.267-10.667zM900.267 194.133h-347.733c-4.267 0-8.533 1.067-12.8 3.2 7.467 9.6 18.133 18.133 32 25.6 55.467 27.733 112 42.667 157.867 42.667 46.933 0 104.533-14.933 160-43.733 9.6-4.267 19.2-11.733 26.667-20.267l3.2 3.2c-3.2-5.333-10.667-10.667-19.2-10.667z" />
<glyph unicode="&#xe916;" glyph-name="icon-vb-musical" d="M592 516.267c-27.733 18.133-129.067 77.867-258.133 77.867-77.867 0-167.467-27.733-258.133-80-5.333-3.2-8.533-8.533-7.467-14.933 8.533-103.467 53.333-442.667 265.6-442.667 109.867 0 187.733 76.8 232.533 227.2 25.6 86.4 32 173.867 34.133 218.667-1.067 6.4-4.267 11.733-8.533 13.867zM534.4 293.333c-39.467-135.467-107.733-204.8-201.6-204.8-80 0-141.867 58.667-184.533 176-30.933 83.2-42.667 174.933-48 227.2 83.2 45.867 163.2 70.4 233.6 70.4 109.867 0 199.467-46.933 232.533-68.267-2.133-44.8-8.533-123.733-32-200.533zM300.8 397.867c0 8.533-7.467 16-16 16h-88.533c-8.533 0-16-7.467-16-16s7.467-16 16-16h88.533c9.6 0 16 6.4 16 16zM385.067 381.867h88.533c8.533 0 16 7.467 16 16s-7.467 16-16 16h-88.533c-8.533 0-16-7.467-16-16 0-9.6 7.467-16 16-16zM328.533 324.267c-39.467 0-72.533-37.333-72.533-83.2s32-83.2 72.533-83.2 72.533 37.333 72.533 83.2-32 83.2-72.533 83.2zM328.533 190.933c-22.4 0-40.533 22.4-40.533 51.2 0 27.733 18.133 51.2 40.533 51.2s40.533-22.4 40.533-51.2c0-28.8-18.133-51.2-40.533-51.2zM695.467 667.733v89.6h114.133c8.533 0 16 7.467 16 16v69.333c0 8.533-7.467 16-16 16h-130.133c-8.533 0-16-7.467-16-16v-120.533c-8.533 5.333-19.2 7.467-30.933 7.467-34.133 0-62.933-27.733-62.933-62.933s27.733-62.933 62.933-62.933c35.2 1.067 62.933 29.867 62.933 64zM695.467 826.667h98.133v-37.333h-98.133v37.333zM633.6 636.8c-17.067 0-30.933 13.867-30.933 30.933s13.867 30.933 30.933 30.933c17.067 0 30.933-13.867 30.933-30.933s-14.933-30.933-30.933-30.933zM944 662.4h-174.933c-8.533 0-16-7.467-16-16v-120.533c-8.533 5.333-19.2 7.467-30.933 7.467-34.133 0-62.933-27.733-62.933-62.933s27.733-62.933 62.933-62.933 62.933 27.733 62.933 62.933v90.667h142.933v-36.267c-8.533 5.333-19.2 7.467-30.933 7.467-34.133 0-62.933-27.733-62.933-62.933s27.733-62.933 62.933-62.933 62.933 30.933 62.933 65.067v174.933c0 8.533-7.467 16-16 16zM722.133 440.533c-17.067 0-30.933 13.867-30.933 30.933s13.867 30.933 30.933 30.933 30.933-13.867 30.933-30.933c0-17.067-13.867-30.933-30.933-30.933zM785.067 630.4h142.933v-37.333h-142.933v37.333zM897.067 440.533c-17.067 0-30.933 13.867-30.933 30.933s13.867 30.933 30.933 30.933 30.933-13.867 30.933-30.933-13.867-30.933-30.933-30.933z" />
<glyph unicode="&#xe917;" glyph-name="icon-vb-recompensas" d="M946.133 677.333h-284.8l109.867 28.8c0 0 1.067 0 1.067 0 30.933 10.667 54.4 37.333 62.933 68.267 8.533 29.867 2.133 61.867-17.067 85.333-2.133 3.2-4.267 5.333-7.467 7.467-19.2 19.2-45.867 29.867-72.533 29.867-27.733 0-53.333-10.667-72.533-29.867l-161.067-177.067-162.133 179.2c-19.2 19.2-45.867 29.867-72.533 29.867s-53.333-10.667-72.533-29.867c-3.2-3.2-5.333-5.333-7.467-8.533-19.2-23.467-25.6-54.4-17.067-85.333 8.533-32 33.067-57.6 62.933-68.267 0 0 1.067 0 1.067 0l109.867-28.8h-268.8c-9.6 0-17.067-7.467-17.067-17.067v-185.6c0-9.6 7.467-17.067 17.067-17.067h22.4v-442.667c0-9.6 7.467-17.067 17.067-17.067h788.267c9.6 0 17.067 7.467 17.067 17.067v441.6h22.4c9.6 0 17.067 7.467 17.067 17.067v185.6c1.067 9.6-7.467 17.067-16 17.067zM421.333 457.6h170.667v-421.333c0-1.067 0-3.2 1.067-4.267h-171.733c0 1.067 1.067 3.2 1.067 4.267v421.333zM421.333 491.733v151.467h170.667v-151.467h-170.667zM690.133 845.867c12.8 12.8 29.867 19.2 48 19.2s36.267-7.467 49.067-20.267c2.133-2.133 3.2-3.2 4.267-5.333 12.8-14.933 16-35.2 10.667-54.4-5.333-21.333-21.333-38.4-41.6-45.867l-216.533-57.6c-2.133 0-3.2-1.067-4.267-2.133l150.4 166.4zM204.8 785.067c-5.333 19.2-1.067 39.467 10.667 54.4 1.067 2.133 3.2 3.2 4.267 5.333 12.8 12.8 29.867 20.267 49.067 20.267 18.133 0 36.267-7.467 48-19.2l150.4-165.333c-1.067 1.067-3.2 1.067-4.267 2.133l-216.533 57.6c-20.267 6.4-35.2 23.467-41.6 44.8zM94.933 643.2h292.267v-151.467h-292.267v151.467zM135.467 457.6h252.8v-421.333c0-1.067 0-3.2 1.067-4.267h-253.867v425.6zM888.533 32h-262.4c0 1.067 1.067 3.2 1.067 4.267v421.333h262.4l-1.067-425.6zM929.067 491.733h-302.933v151.467h301.867l1.067-151.467z" />
<glyph unicode="&#xe918;" glyph-name="icon-vb-teatro" d="M954.667 625.067c-25.6 17.067-119.467 71.467-237.867 71.467-61.867 0-130.133-18.133-201.6-54.4-42.667 22.4-117.333 54.4-206.933 54.4-71.467 0-154.667-25.6-237.867-73.6-5.333-3.2-8.533-8.533-7.467-14.933 8.533-96 49.067-407.467 245.333-407.467 96 0 166.4 64 208 188.8 35.2-98.133 94.933-188.8 200.533-188.8 101.333 0 173.867 70.4 214.4 210.133 23.467 78.933 29.867 160 30.933 201.6 0 4.267-3.2 9.6-7.467 12.8zM490.667 418.133c-36.267-123.733-98.133-186.667-183.467-186.667-72.533 0-129.067 54.4-168.533 161.067-27.733 75.733-39.467 158.933-43.733 208 75.733 41.6 149.333 64 213.333 64 70.4 0 131.2-21.333 172.8-40.533-1.067 0-1.067-1.067-2.133-1.067-5.333-3.2-8.533-8.533-7.467-14.933 3.2-34.133 9.6-97.067 27.733-162.133-3.2-9.6-5.333-19.2-8.533-27.733zM899.2 418.133c-36.267-123.733-98.133-186.667-183.467-186.667-72.533 0-129.067 54.4-168.533 161.067-27.733 75.733-39.467 158.933-43.733 208 75.733 41.6 149.333 64 213.333 64 100.267 0 181.333-42.667 212.267-61.867-2.133-41.6-8.533-114.133-29.867-184.533zM282.667 486.4c7.467 4.267 10.667 13.867 6.4 21.333s-13.867 10.667-21.333 6.4c-24.533-13.867-41.6-2.133-42.667-1.067-7.467 5.333-17.067 4.267-22.4-3.2s-4.267-17.067 3.2-22.4c1.067-1.067 16-12.8 39.467-12.8 9.6 0 22.4 3.2 37.333 11.733zM390.4 514.133c-24.533-13.867-41.6-2.133-42.667-1.067-7.467 5.333-17.067 4.267-22.4-3.2s-4.267-17.067 3.2-22.4c1.067-1.067 16-12.8 39.467-12.8 11.733 0 24.533 3.2 39.467 10.667 7.467 4.267 10.667 13.867 6.4 21.333-6.4 8.533-16 11.733-23.467 7.467zM676.267 506.667c2.133-1.067 5.333-2.133 7.467-2.133 5.333 0 10.667 3.2 13.867 8.533 4.267 7.467 2.133 17.067-6.4 21.333-43.733 24.533-76.8 0-78.933-1.067-6.4-5.333-8.533-14.933-3.2-22.4s14.933-8.533 22.4-3.2c3.2 1.067 20.267 12.8 44.8-1.067zM757.333 507.733c0 0 17.067 12.8 42.667-1.067 2.133-1.067 5.333-2.133 7.467-2.133 5.333 0 10.667 3.2 13.867 8.533 4.267 7.467 2.133 17.067-6.4 21.333-43.733 24.533-76.8 0-78.933-1.067-7.467-5.333-8.533-16-3.2-22.4 7.467-7.467 17.067-8.533 24.533-3.2zM393.6 380.8c-80 56.533-162.133 2.133-165.333 0-7.467-5.333-9.6-14.933-4.267-22.4 3.2-4.267 8.533-7.467 12.8-7.467 3.2 0 6.4 1.067 8.533 3.2 1.067 0 67.2 43.733 129.067 0 7.467-5.333 17.067-3.2 22.4 4.267s4.267 18.133-3.2 22.4zM633.6 400c-5.333-7.467-3.2-17.067 4.267-22.4 2.133-1.067 38.4-25.6 86.4-25.6 24.533 0 52.267 6.4 78.933 25.6 7.467 5.333 8.533 14.933 4.267 22.4s-14.933 8.533-22.4 4.267c-61.867-43.733-126.933-2.133-129.067 0-7.467 4.267-18.133 2.133-22.4-4.267z" />
<glyph unicode="&#xe919;" glyph-name="icon-vb-todas" d="M455.467 12.8c0 0 0 0 0 0 1.067 0 1.067 0 0 0 1.067 1.067 1.067 1.067 0 0 1.067 1.067 1.067 1.067 1.067 1.067s0 0 0 0 0 0 0 0 0 0 0 0 0 0 0 0 0 0 0 0 0 0 0 0 0 0 0 1.067c0 0 0 0 0 0s0 0 0 1.067c0 0 0 0 0 0s0 0 0 0 0 0 0 0 0 0 0 0 0 0 0 0 0 0 0 0 0 0 0 0 0 0 0 0 0 0 0 0 0 0 0 0 0 0 0 0 0 0 0 0 0 0 0 0 0 0 0 0 0 0 0 0 0 0 0 0 0 0 0 0 0 0 0 0 0 0 0 0 0 0 0 0 0 0 0 1.067v0c-7.467 58.667-43.733 109.867-96 136.533 17.067 19.2 27.733 43.733 28.8 68.267 2.133 59.733-44.8 109.867-103.467 112-28.8 1.067-56.533-9.6-76.8-28.8-21.333-19.2-33.067-45.867-34.133-74.667-1.067-26.667 9.6-53.333 28.8-74.667-53.333-26.667-90.667-78.933-97.067-137.6v0c0 0 0 0 0-1.067 0 0 0 0 0 0s0 0 0 0 0 0 0 0 0 0 0 0 0 0 0 0 0 0 0 0 0 0 0 0 0 0 0 0 0 0 0 0 0 0 0 0 0 0 0 0 0 0 0 0 0 0 0 0 0 0 0 0 0 0 0 0 0 0 0 0 0 0 0 0 0 0 0 0 0 0 0 0 0 0 0 0 0 0 0 0 0 0 0 0 0 0 0 0 0 0 0 0 0 0 0 0 0 0 0 0 0 0 0 0 0 0 0 0 0 0 0 0 0 0 0 0 0 0 0 0 0 0 0 0 0 0 0 0 0 0 0 0 0 0 0 0 0 0 0 0 0 0 0 0 0 0 0 0 0 0 0 0 0 0 0 0 0 0 0 0 0 0 0 0 0 0 0 0 0 0 0 0 0 0 0 0 0 0 0 0 0 0 0 0 0 0 0 0 0 0 0 0 0 0 0 0 0 0 0 0 0 0 0 0 0 0 0 0 0 0 0 0 0 0 0 0 0 0 0 0 0 0 1.067 0c0 0 0 0 0 0s0 0 1.067 0c0 0 0 0 0 0s0 0 1.067 0v0c0 0 0 0 1.067 0v0 0c0 0 0 0 1.067 0 0 0 0 0 0 0s1.067 0 1.067 0h320c0 0 1.067 0 1.067 0s0 0 0 0 0 0 1.067 0v0 0c0 0 0 0 1.067 0v0c0 0 0 0 1.067 0 0 0 0 0 0 0s0 0 1.067 0c0 0 0 0 0 0s0 0 1.067 0c0 0 0 0 0 0s0 0 0 0 0 0 0 0 0 0 0 0 0 0 0 0 0 0 0 0 0 0 0 0 0 0 0 0 0 0 0 0 0 0 0 0 0 0 0 0 0 0 0 0 0 0 0 0 0 0 0 0 0 0 0 0 0 0 0 0 0 0 0 0 0 0 0 0c14.933-5.333 14.933-5.333 16-4.267-1.067-1.067-1.067-1.067 0 0 0 0 0 0 0 0s0 0 0 0 0 0 0 0zM236.8 141.867c1.067 0 2.133 1.067 2.133 1.067 3.2 1.067 6.4 3.2 8.533 6.4 5.333 7.467 3.2 17.067-3.2 22.4-22.4 16-36.267 41.6-35.2 65.067 1.067 20.267 9.6 39.467 24.533 52.267 14.933 13.867 34.133 21.333 54.4 20.267 41.6-1.067 74.667-36.267 72.533-77.867-1.067-21.333-13.867-44.8-33.067-59.733-6.4-5.333-7.467-13.867-4.267-21.333 1.067-4.267 5.333-8.533 9.6-9.6 45.867-17.067 80-55.467 91.733-101.333h-281.6c11.733 46.933 46.933 86.4 93.867 102.4zM740.267 602.667h-213.333c-4.267 0-9.6-2.133-12.8-5.333s-4.267-8.533-3.2-12.8c11.733-57.6 62.933-100.267 121.6-100.267s110.933 41.6 121.6 100.267c1.067 4.267 0 9.6-3.2 12.8-1.067 3.2-6.4 5.333-10.667 5.333zM633.6 516.267c-36.267 0-69.333 22.4-84.267 55.467h169.6c-14.933-33.067-49.067-55.467-85.333-55.467zM518.4 673.067c0 10.667 13.867 19.2 28.8 19.2 16 0 28.8-8.533 28.8-19.2 0-8.533 7.467-16 16-16s16 7.467 16 16c0 28.8-26.667 51.2-60.8 51.2s-60.8-22.4-60.8-51.2c0-8.533 7.467-16 16-16s16 7.467 16 16zM715.733 724.267c-34.133 0-60.8-22.4-60.8-51.2 0-8.533 7.467-16 16-16s16 7.467 16 16c0 10.667 13.867 19.2 28.8 19.2 16 0 28.8-8.533 28.8-19.2 0-8.533 7.467-16 16-16s16 7.467 16 16c1.067 28.8-25.6 51.2-60.8 51.2zM631.467 888.533c-156.8 0-284.8-128-284.8-284.8 0-73.6 27.733-142.933 77.867-196.267-6.4-20.267-21.333-51.2-27.733-61.867-3.2-5.333-3.2-11.733 0-16 3.2-5.333 8.533-7.467 14.933-7.467 2.133 0 52.267 4.267 98.133 24.533 38.4-18.133 78.933-26.667 121.6-26.667 156.8 0 284.8 128 284.8 284.8s-128 283.733-284.8 283.733zM631.467 350.933c-39.467 0-77.867 9.6-114.133 26.667-2.133 1.067-4.267 2.133-7.467 2.133-2.133 0-4.267 0-6.4-1.067-21.333-10.667-45.867-16-64-20.267 7.467 16 16 36.267 19.2 52.267 1.067 5.333-1.067 10.667-4.267 13.867-48 48-74.667 112-74.667 179.2 0 139.733 113.067 252.8 252.8 252.8s252.8-113.067 252.8-252.8-114.133-252.8-253.867-252.8z" />
<glyph unicode="&#xe91a;" glyph-name="icon-seta-baixo-a" d="M512 214.4c-4.267 0-8.533 1.067-11.733 4.267l-435.2 435.2c-6.4 6.4-6.4 16 0 22.4s16 6.4 22.4 0l424.533-423.467 424.533 423.467c6.4 6.4 16 6.4 22.4 0s6.4-16 0-22.4l-435.2-435.2c-3.2-3.2-7.467-4.267-11.733-4.267z" />
<glyph unicode="&#xe91b;" glyph-name="icon-seta-baixo-b" d="M512 214.4c-4.267 0-8.533 1.067-11.733 4.267l-435.2 435.2c-6.4 6.4-6.4 16 0 22.4s16 6.4 22.4 0l424.533-423.467 424.533 423.467c6.4 6.4 16 6.4 22.4 0s6.4-16 0-22.4l-435.2-435.2c-3.2-3.2-7.467-4.267-11.733-4.267z" />
<glyph unicode="&#xe91c;" glyph-name="icon-seta-baixo-c" d="M512 214.4c-4.267 0-8.533 1.067-11.733 4.267l-435.2 435.2c-6.4 6.4-6.4 16 0 22.4s16 6.4 22.4 0l424.533-423.467 424.533 423.467c6.4 6.4 16 6.4 22.4 0s6.4-16 0-22.4l-435.2-435.2c-3.2-3.2-7.467-4.267-11.733-4.267z" />
<glyph unicode="&#xe91d;" glyph-name="icon-seta-cima-a" d="M947.2 214.4c-4.267 0-8.533 1.067-11.733 4.267l-423.467 424.533-423.467-423.467c-6.4-6.4-16-6.4-22.4 0s-6.4 16 0 22.4l435.2 434.133c6.4 6.4 16 6.4 22.4 0l435.2-435.2c6.4-6.4 6.4-16 0-22.4-3.2-2.133-7.467-4.267-11.733-4.267z" />
<glyph unicode="&#xe91e;" glyph-name="icon-cesta-natalidade" d="M513.067 467.2c-3.2 0-5.333 1.067-8.533 2.133-170.667 105.6-218.667 220.8-220.8 226.133-6.4 17.067-9.6 35.2-9.6 53.333 0 81.067 66.133 147.2 147.2 147.2 34.133 0 66.133-11.733 91.733-32 25.6 21.333 57.6 32 91.733 32 81.067 0 147.2-66.133 147.2-147.2 0-21.333-4.267-42.667-13.867-61.867-46.933-109.867-210.133-213.333-216.533-217.6-3.2-1.067-5.333-2.133-8.533-2.133zM421.333 862.933c-62.933 0-115.2-51.2-115.2-115.2 0-13.867 2.133-27.733 7.467-41.6 0-1.067 44.8-106.667 199.467-204.8 34.133 22.4 158.933 110.933 195.2 196.267v0c0 0 0 0 0 1.067 7.467 14.933 10.667 32 10.667 49.067 0 62.933-51.2 115.2-115.2 115.2-29.867 0-58.667-11.733-81.067-33.067-5.333-5.333-13.867-6.4-20.267-1.067-1.067 0-1.067 1.067-2.133 2.133-20.267 20.267-49.067 32-78.933 32zM446.933 416l-144 52.267 87.467 19.2c7.467 1.067 11.733 8.533 10.667 16s-8.533 11.733-16 10.667l-132.267-28.8c0 0 0 0 0 0s-1.067 0-1.067 0c0 0-1.067 0-1.067 0s0 0-1.067 0-1.067-1.067-2.133-1.067c0 0 0 0 0 0s-1.067-1.067-1.067-1.067c0 0 0 0-1.067-1.067 0 0-1.067-1.067-1.067-1.067s0-1.067 0-1.067c0 0 0-1.067-1.067-1.067 0 0 0 0 0 0l-49.067-135.467c-1.067-3.2-1.067-7.467 0-10.667s4.267-5.333 7.467-6.4l50.133-18.133v-180.267c0-5.333 3.2-9.6 7.467-11.733l247.467-112c2.133-1.067 3.2-1.067 5.333-1.067s3.2 0 5.333 1.067l249.6 112c4.267 2.133 7.467 6.4 7.467 11.733v177.067l50.133 18.133c3.2 1.067 6.4 3.2 7.467 6.4s1.067 6.4 0 10.667l-49.067 135.467c0 0 0 0 0 0s0 1.067-1.067 1.067c0 0 0 1.067 0 1.067s-1.067 1.067-1.067 1.067c0 0 0 0-1.067 1.067 0 0-1.067 1.067-1.067 1.067s0 0 0 0-1.067 1.067-2.133 1.067c0 0 0 0 0 0s-1.067 0-1.067 0c0 0-1.067 0-1.067 0s0 0 0 0l-134.4 28.8c-7.467 1.067-13.867-3.2-16-10.667-1.067-7.467 3.2-13.867 10.667-16l89.6-19.2-142.933-49.067-28.8-10.667-12.8-4.267-24.533-9.6-2.133-1.067-35.2 12.8-30.933 12.8zM262.4 454.4l231.467-84.267-40.533-110.933-232.533 84.267 41.6 110.933zM277.333 295.467l180.267-66.133c1.067 0 3.2-1.067 4.267-1.067 5.333 0 10.667 3.2 12.8 8.533l24.533 67.2v-268.8l-221.867 101.333v158.933zM747.733 136.533l-221.867-100.267v268.8l24.533-67.2c2.133-5.333 7.467-8.533 12.8-8.533 1.067 0 3.2 0 4.267 1.067l180.267 66.133v-160zM570.667 259.2l-40.533 110.933 232.533 84.267 40.533-110.933-232.533-84.267z" />
<glyph unicode="&#xe91f;" glyph-name="icon-seta-cima-c" d="M947.2 214.4c-4.267 0-8.533 1.067-11.733 4.267l-423.467 424.533-423.467-423.467c-6.4-6.4-16-6.4-22.4 0s-6.4 16 0 22.4l435.2 434.133c6.4 6.4 16 6.4 22.4 0l435.2-435.2c6.4-6.4 6.4-16 0-22.4-3.2-2.133-7.467-4.267-11.733-4.267z" />
<glyph unicode="&#xe920;" glyph-name="icon-seta-direita-a" d="M294.4-3.2c-4.267 0-8.533 1.067-11.733 4.267-6.4 6.4-6.4 16 0 22.4l424.533 424.533-423.467 424.533c-6.4 6.4-6.4 16 0 22.4s16 6.4 22.4 0l434.133-435.2c6.4-6.4 6.4-16 0-22.4l-434.133-436.267c-3.2-3.2-7.467-4.267-11.733-4.267z" />
<glyph unicode="&#xe921;" glyph-name="icon-seta-direita-b" d="M294.4-3.2c-4.267 0-8.533 1.067-11.733 4.267-6.4 6.4-6.4 16 0 22.4l424.533 424.533-423.467 424.533c-6.4 6.4-6.4 16 0 22.4s16 6.4 22.4 0l434.133-435.2c6.4-6.4 6.4-16 0-22.4l-434.133-436.267c-3.2-3.2-7.467-4.267-11.733-4.267z" />
<glyph unicode="&#xe922;" glyph-name="icon-seta-direita-c" d="M294.4-3.2c-4.267 0-8.533 1.067-11.733 4.267-6.4 6.4-6.4 16 0 22.4l424.533 424.533-423.467 424.533c-6.4 6.4-6.4 16 0 22.4s16 6.4 22.4 0l434.133-435.2c6.4-6.4 6.4-16 0-22.4l-434.133-436.267c-3.2-3.2-7.467-4.267-11.733-4.267z" />
<glyph unicode="&#xe923;" glyph-name="icon-seta-esquerda-a" d="M729.6 899.2c4.267 0 8.533-1.067 11.733-4.267 6.4-6.4 6.4-16 0-22.4l-424.533-424.533 423.467-424.533c6.4-6.4 6.4-16 0-22.4s-16-6.4-22.4 0l-435.2 435.2c-6.4 6.4-6.4 16 0 22.4l436.267 436.267c2.133 3.2 6.4 4.267 10.667 4.267z" />
<glyph unicode="&#xe924;" glyph-name="icon-seta-esquerda-b" d="M729.6 899.2c4.267 0 8.533-1.067 11.733-4.267 6.4-6.4 6.4-16 0-22.4l-424.533-424.533 423.467-424.533c6.4-6.4 6.4-16 0-22.4s-16-6.4-22.4 0l-435.2 435.2c-6.4 6.4-6.4 16 0 22.4l436.267 436.267c2.133 3.2 6.4 4.267 10.667 4.267z" />
<glyph unicode="&#xe925;" glyph-name="icon-seta-esquerda-c" d="M729.6 899.2c4.267 0 8.533-1.067 11.733-4.267 6.4-6.4 6.4-16 0-22.4l-424.533-424.533 423.467-424.533c6.4-6.4 6.4-16 0-22.4s-16-6.4-22.4 0l-435.2 435.2c-6.4 6.4-6.4 16 0 22.4l436.267 436.267c2.133 3.2 6.4 4.267 10.667 4.267z" />
<glyph unicode="&#xe926;" glyph-name="icon-saude-agendar-consulta" d="M934.4 565.333h-119.467v35.2c0 8.533-7.467 16-16 16s-16-7.467-16-16v-35.2h-67.2c0 1.067 0 1.067 0 2.133 0 180.267-146.133 326.4-326.4 326.4s-326.4-146.133-326.4-326.4c0-153.6 105.6-281.6 248.533-316.8v-221.867c0-14.933 11.733-26.667 26.667-26.667h608c8.533 0 16 7.467 16 16v520.533c-1.067 14.933-12.8 26.667-27.733 26.667zM782.933 533.333v-30.933c0-8.533 7.467-16 16-16s16 7.467 16 16v30.933h115.2v-76.8c0 0-1.067 0-1.067 0l-232.533 2.133c8.533 23.467 13.867 49.067 17.067 75.733l69.333-1.067zM94.933 567.467c0 162.133 132.267 294.4 294.4 294.4s294.4-132.267 294.4-294.4-132.267-294.4-294.4-294.4-294.4 132.267-294.4 294.4zM343.467 244.267c14.933-2.133 30.933-3.2 45.867-3.2 129.067 0 241.067 75.733 294.4 185.6l244.267-1.067c0 0 1.067 0 1.067 0v-391.467h-586.667v210.133zM675.2 298.667h-80c-8.533 0-16-7.467-16-16s7.467-16 16-16h80c8.533 0 16 7.467 16 16s-7.467 16-16 16zM824.533 298.667h-80c-8.533 0-16-7.467-16-16s7.467-16 16-16h80c8.533 0 16 7.467 16 16s-6.4 16-16 16zM675.2 195.2h-80c-8.533 0-16-7.467-16-16s7.467-16 16-16h80c8.533 0 16 7.467 16 16s-7.467 16-16 16zM526.933 195.2h-80c-8.533 0-16-7.467-16-16s7.467-16 16-16h80c8.533 0 16 7.467 16 16s-7.467 16-16 16zM824.533 195.2h-80c-8.533 0-16-7.467-16-16s7.467-16 16-16h80c8.533 0 16 7.467 16 16s-6.4 16-16 16zM389.333 747.733c-8.533 0-16-7.467-16-16v-163.2c0-4.267 2.133-8.533 4.267-11.733l100.267-100.267c3.2-3.2 7.467-4.267 11.733-4.267s8.533 1.067 11.733 4.267c6.4 6.4 6.4 16 0 22.4l-96 97.067v155.733c0 9.6-6.4 16-16 16zM387.2 781.867c8.533 0 16 7.467 16 16v24.533c0 8.533-7.467 16-16 16s-16-7.467-16-16v-24.533c0-8.533 7.467-16 16-16zM403.2 313.6v24.533c0 8.533-7.467 16-16 16s-16-7.467-16-16v-24.533c0-8.533 7.467-16 16-16s16 6.4 16 16zM156.8 585.6h-24.533c-8.533 0-16-7.467-16-16s7.467-16 16-16h24.533c8.533 0 16 7.467 16 16s-6.4 16-16 16zM620.8 553.6h24.533c8.533 0 16 7.467 16 16s-7.467 16-16 16h-24.533c-8.533 0-16-7.467-16-16s7.467-16 16-16z" />
<glyph unicode="&#xe927;" glyph-name="icon-saude-ambulancia" d="M952.533 437.333l-125.867 54.4-215.467 276.267c-3.2 4.267-7.467 6.4-12.8 6.4h-52.267v17.067c0 29.867-24.533 55.467-55.467 55.467-29.867 0-55.467-24.533-55.467-55.467v-17.067h-358.4c-8.533 0-16-7.467-16-16v-546.133c0-8.533 7.467-16 16-16h105.6c-3.2-9.6-4.267-20.267-4.267-30.933 0-64 52.267-117.333 117.333-117.333s117.333 52.267 117.333 117.333c0 10.667-1.067 21.333-4.267 30.933h252.8c-3.2-9.6-4.267-20.267-4.267-30.933 0-64 52.267-117.333 117.333-117.333 64 0 117.333 52.267 117.333 117.333 0 10.667-1.067 21.333-4.267 30.933h59.733c8.533 0 16 7.467 16 16v210.133c-1.067 6.4-5.333 11.733-10.667 14.933zM468.267 790.4c0 12.8 10.667 23.467 23.467 23.467s23.467-10.667 23.467-23.467v-17.067h-45.867l-1.067 17.067zM294.4 80c-46.933 0-85.333 38.4-85.333 85.333s38.4 85.333 85.333 85.333 85.333-38.4 85.333-85.333-38.4-85.333-85.333-85.333zM774.4 80c-46.933 0-85.333 38.4-85.333 85.333s38.4 85.333 85.333 85.333 85.333-38.4 85.333-85.333-39.467-85.333-85.333-85.333zM930.133 227.2h-55.467c-1.067 0-2.133 0-2.133 0-20.267 33.067-57.6 54.4-98.133 54.4-41.6 0-77.867-21.333-98.133-54.4-1.067 0-1.067 0-1.067 0h-281.6c-21.333 32-57.6 54.4-98.133 54.4s-77.867-21.333-98.133-54.4h-104.533v514.133h498.133l213.333-273.067c2.133-2.133 4.267-4.267 6.4-5.333l119.467-52.267v-183.467zM426.667 570.667h-71.467v71.467c0 8.533-7.467 16-16 16h-80c-8.533 0-16-7.467-16-16v-71.467h-71.467c-8.533 0-16-7.467-16-16v-80c0-8.533 7.467-16 16-16h71.467v-71.467c0-8.533 7.467-16 16-16h80c8.533 0 16 7.467 16 16v71.467h71.467c8.533 0 16 7.467 16 16v80c0 9.6-6.4 16-16 16zM410.667 490.667h-87.467v-14.933c0 0 0-1.067 0-1.067s0-1.067 0-1.067v-70.4h-48v70.4c0 0 0 0 0 1.067 0 0 0 0 0 1.067v14.933h-87.467v48h87.467v87.467h48v-87.467h87.467v-48zM638.933 599.467c-3.2 4.267-7.467 6.4-12.8 6.4h-81.067c-8.533 0-16-7.467-16-16v-134.4c0-8.533 7.467-16 16-16h140.8c8.533 0 16 7.467 16 16v56.533c0 3.2-1.067 6.4-3.2 9.6l-59.733 77.867zM668.8 472.533h-107.733v102.4h56.533l51.2-68.267v-34.133z" />
<glyph unicode="&#xe928;" glyph-name="icon-saude-cardiograma" d="M811.733 414.933h-144l-48 188.8c-2.133 7.467-8.533 11.733-14.933 11.733-7.467 0-13.867-4.267-16-11.733l-84.267-289.067-76.8 288c-2.133 6.4-7.467 11.733-14.933 11.733s-13.867-4.267-16-10.667l-39.467-123.733h-145.067c-8.533 0-16-7.467-16-16s7.467-16 16-16h157.867c7.467 0 12.8 4.267 14.933 10.667l26.667 83.2 77.867-291.2c2.133-6.4 8.533-11.733 14.933-11.733 0 0 0 0 0 0 7.467 0 12.8 4.267 14.933 11.733l84.267 286.933 36.267-141.867c2.133-7.467 8.533-11.733 16-11.733h155.733c8.533 0 16 7.467 16 16 0 7.467-7.467 14.933-16 14.933zM882.133 746.667c-51.2 53.333-121.6 82.133-197.333 84.267-62.933 1.067-123.733-19.2-172.8-56.533-49.067 36.267-108.8 55.467-170.667 55.467-154.667 0-279.467-124.8-279.467-277.333 0-33.067 6.4-67.2 19.2-99.2 0 0 0-1.067 1.067-1.067 16-37.333 114.133-234.667 412.8-419.2 0 0 1.067 0 1.067-1.067 2.133-1.067 8.533-5.333 8.533-5.333 2.133-1.067 5.333-2.133 8.533-2.133 2.133 0 5.333 1.067 7.467 2.133 0 0 9.6 5.333 11.733 6.4 3.2 2.133 315.733 195.2 404.267 401.067 17.067 36.267 26.667 76.8 26.667 118.4-1.067 73.6-29.867 142.933-81.067 194.133zM906.667 448c-83.2-194.133-388.267-385.067-391.467-387.2 0 0-1.067-1.067-2.133-1.067-1.067 1.067-2.133 1.067-2.133 1.067-290.133 179.2-384 368-398.933 404.267-10.667 28.8-17.067 58.667-17.067 87.467 0 135.467 110.933 245.333 248.533 245.333 57.6 0 114.133-20.267 157.867-57.6 6.4-5.333 14.933-5.333 20.267 0 43.733 37.333 100.267 57.6 157.867 57.6 1.067 0 3.2 0 4.267 0 68.267-1.067 130.133-27.733 174.933-74.667 45.867-44.8 70.4-105.6 70.4-171.733 1.067-35.2-7.467-71.467-22.4-103.467z" />
<glyph unicode="&#xe929;" glyph-name="icon-saude-dental-cirurgia" d="M793.6 705.067c3.2 8.533-2.133 17.067-9.6 20.267l-51.2 17.067 1.067 2.133c9.6 26.667-2.133 56.533-28.8 67.2l-126.933 56.533c-14.933 6.4-30.933 6.4-44.8-1.067s-24.533-19.2-28.8-34.133l-16-56.533c-6.4-22.4 3.2-45.867 22.4-58.667-10.667-52.267-50.133-171.733-183.467-272-5.333 2.133-10.667 2.133-16 2.133-14.933-1.067-28.8-8.533-38.4-20.267l-199.467-235.733c-9.6-11.733-14.933-26.667-13.867-41.6s8.533-28.8 20.267-38.4l117.333-100.267c10.667-9.6 23.467-13.867 37.333-13.867 16 0 32 6.4 43.733 20.267l199.467 235.733c16 18.133 17.067 43.733 6.4 64 27.733 38.4 147.2 206.933 158.933 360.533l10.667-3.2c5.333-1.067 9.6-2.133 14.933-2.133 21.333 0 42.667 13.867 50.133 35.2l2.133 4.267 52.267-18.133c2.133-1.067 3.2-1.067 5.333-1.067 6.4 0 12.8 4.267 14.933 11.733zM453.333 274.133l-199.467-234.667c-8.533-10.667-24.533-11.733-35.2-3.2l-117.333 100.267c-5.333 4.267-8.533 10.667-8.533 17.067-1.067 6.4 1.067 12.8 5.333 18.133l199.467 235.733c4.267 5.333 10.667 8.533 17.067 8.533 1.067 0 1.067 0 2.133 0 6.4 0 11.733-2.133 16-6.4l117.333-100.267c10.667-8.533 11.733-24.533 3.2-35.2zM521.6 434.133l-35.2 27.733c-7.467 5.333-18.133 4.267-23.467-3.2s-4.267-18.133 3.2-23.467l38.4-29.867c-2.133-3.2-4.267-6.4-6.4-9.6l-66.133 52.267c-7.467 5.333-17.067 4.267-22.4-3.2s-4.267-18.133 3.2-23.467l68.267-53.333c-7.467-10.667-13.867-19.2-18.133-26.667l-104.533 88.533c129.067 101.333 169.6 219.733 182.4 277.333l71.467-20.267c-5.333-87.467-49.067-183.467-90.667-252.8zM663.467 706.133l-129.067 36.267c-11.733 3.2-18.133 14.933-14.933 26.667l16 56.533c2.133 6.4 5.333 10.667 11.733 13.867 3.2 1.067 6.4 2.133 9.6 2.133s6.4-1.067 8.533-2.133l126.933-56.533c10.667-4.267 14.933-17.067 11.733-26.667l-13.867-36.267c-5.333-11.733-16-17.067-26.667-13.867zM939.733 672l-96 32c-8.533 3.2-17.067-2.133-20.267-9.6-3.2-8.533 2.133-17.067 9.6-20.267l96-32c2.133-1.067 3.2-1.067 5.333-1.067 6.4 0 12.8 4.267 14.933 10.667 3.2 8.533-1.067 18.133-9.6 20.267zM814.933 637.867c-5.333 6.4-16 8.533-22.4 2.133-7.467-5.333-8.533-16-2.133-22.4l62.933-78.933c3.2-4.267 7.467-6.4 12.8-6.4 3.2 0 7.467 1.067 9.6 3.2 7.467 5.333 8.533 16 2.133 22.4l-62.933 80zM743.467 611.2c-8.533-1.067-14.933-8.533-14.933-17.067l7.467-100.267c1.067-8.533 7.467-14.933 16-14.933 0 0 1.067 0 1.067 0 8.533 1.067 14.933 8.533 14.933 17.067l-7.467 101.333c-1.067 8.533-8.533 14.933-17.067 13.867zM947.2 788.267l-100.267-4.267c-8.533 0-16-7.467-14.933-17.067 0-8.533 7.467-14.933 16-14.933 0 0 0 0 1.067 0l100.267 4.267c8.533 0 16 7.467 14.933 17.067 0 7.467-8.533 14.933-17.067 14.933zM812.8 811.733c3.2 0 5.333 1.067 8.533 2.133l85.333 53.333c7.467 4.267 9.6 14.933 5.333 22.4s-14.933 9.6-22.4 5.333l-85.333-53.333c-7.467-4.267-9.6-14.933-5.333-22.4 3.2-4.267 8.533-7.467 13.867-7.467z" />
<glyph unicode="&#xe92a;" glyph-name="icon-saude-dental-dentista" d="M656 34.133h-129.067v120.533c0 8.533-7.467 16-16 16s-16-7.467-16-16v-120.533h-187.733c-8.533 0-16-7.467-16-16s7.467-16 16-16h348.8c8.533 0 16 7.467 16 16s-7.467 16-16 16zM315.733 577.067c4.267 0 8.533 2.133 11.733 5.333v-17.067c0-85.333 59.733-156.8 138.667-177.067v-25.6c-44.8-9.6-86.4-33.067-118.4-67.2-6.4-6.4-5.333-17.067 1.067-22.4 3.2-3.2 7.467-4.267 10.667-4.267 4.267 0 8.533 2.133 11.733 5.333 25.6 27.733 59.733 48 97.067 56.533 5.333-18.133 22.4-32 41.6-32 20.267 0 37.333 13.867 42.667 33.067 34.133-7.467 67.2-23.467 92.8-46.933 3.2-3.2 6.4-4.267 10.667-4.267s8.533 2.133 11.733 5.333c5.333 6.4 5.333 17.067-1.067 22.4-32 27.733-71.467 46.933-113.067 54.4v23.467c81.067 19.2 140.8 91.733 140.8 178.133v16c3.2-2.133 6.4-3.2 10.667-3.2 24.533 0 43.733 19.2 43.733 43.733 0 19.2-11.733 35.2-28.8 40.533 1.067 2.133 2.133 4.267 3.2 6.4 5.333 11.733 8.533 23.467 8.533 36.267 0 18.133-6.4 36.267-17.067 51.2-2.133 3.2-4.267 4.267-7.467 5.333-9.6 101.333-93.867 179.2-196.267 179.2-103.467 0-188.8-80-197.333-181.333-4.267 0-8.533-2.133-11.733-6.4-10.667-14.933-17.067-33.067-17.067-51.2 0-12.8 3.2-24.533 8.533-36.267 1.067-2.133 2.133-3.2 3.2-5.333-13.867-7.467-23.467-21.333-23.467-38.4-1.067-24.533 19.2-43.733 42.667-43.733zM322.133 724.267l34.133 9.6c101.333 27.733 209.067 27.733 310.4 0l29.867-8.533c2.133-6.4 4.267-12.8 4.267-19.2 0-7.467-2.133-16-5.333-22.4-1.067-2.133-2.133-3.2-3.2-5.333-1.067 1.067-2.133 3.2-4.267 4.267 3.2 6.4 5.333 13.867 5.333 22.4s-7.467 16-16 16-16-9.6-16-19.2c0-12.8-11.733-22.4-25.6-22.4s-25.6 10.667-25.6 22.4c0 8.533-7.467 16-16 16s-16-7.467-16-16c0-12.8-11.733-22.4-25.6-22.4s-25.6 10.667-25.6 22.4c0 1.067 0 1.067 0 2.133s0 1.067 0 2.133c0 8.533-7.467 16-16 16s-16-7.467-16-16c0-12.8-11.733-22.4-25.6-22.4s-24.533 9.6-25.6 21.333v1.067c0 8.533-7.467 16-16 16v0 0c-8.533 0-16-7.467-16-16v-1.067c-1.067-11.733-11.733-21.333-25.6-21.333s-25.6 10.667-25.6 22.4c0 8.533-7.467 16-16 16-3.2 0-6.4-1.067-8.533-2.133-6.4-2.133-9.6-8.533-9.6-14.933v-35.2c0 1.067-1.067 1.067-1.067 2.133-2.133 2.133-3.2 5.333-4.267 8.533-3.2 7.467-5.333 14.933-5.333 22.4 1.067 6.4 3.2 13.867 6.4 21.333zM315.733 609.067c-6.4 0-11.733 5.333-11.733 11.733s5.333 11.733 11.733 11.733c4.267 0 8.533 2.133 11.733 5.333v-34.133c-2.133 3.2-6.4 5.333-11.733 5.333zM522.667 381.867v-39.467c0-6.4-5.333-11.733-11.733-11.733s-11.733 5.333-11.733 11.733v39.467h23.467zM513.067 413.867c-84.267 0-152.533 67.2-152.533 150.4v92.8c8.533-4.267 18.133-7.467 27.733-7.467 16 0 30.933 6.4 41.6 17.067 10.667-10.667 24.533-17.067 41.6-17.067 14.933 0 29.867 6.4 39.467 16 10.667-11.733 25.6-19.2 42.667-19.2 16 0 30.933 6.4 41.6 17.067 10.667-10.667 25.6-17.067 41.6-17.067 9.6 0 19.2 3.2 27.733 7.467v-88.533c-1.067-83.2-68.267-151.467-151.467-151.467zM706.133 609.067c-4.267 0-7.467-1.067-10.667-3.2v30.933c3.2-2.133 6.4-3.2 10.667-3.2 6.4 0 11.733-5.333 11.733-11.733 0-7.467-5.333-12.8-11.733-12.8zM510.933 907.733c84.267 0 153.6-62.933 164.267-144-106.667 29.867-219.733 29.867-327.467 0h-2.133c11.733 81.067 81.067 144 165.333 144zM488.533 834.133h6.4v-6.4c0-8.533 7.467-16 16-16s16 7.467 16 16v6.4h6.4c8.533 0 16 7.467 16 16s-7.467 16-16 16h-6.4v6.4c0 8.533-7.467 16-16 16s-16-7.467-16-16v-6.4h-6.4c-8.533 0-16-7.467-16-16s7.467-16 16-16zM494.933 259.2v-27.733c0-8.533 7.467-16 16-16s16 7.467 16 16v27.733c0 8.533-7.467 16-16 16s-16-7.467-16-16zM461.867 597.333c9.6 0 17.067 7.467 17.067 16 0 9.6-7.467 17.067-17.067 17.067s-16-7.467-16-17.067c-1.067-8.533 6.4-16 16-16zM560 630.4c-9.6 0-17.067-7.467-17.067-17.067s7.467-16 17.067-16c9.6 0 16 7.467 16 16 1.067 9.6-6.4 17.067-16 17.067zM775.467 212.267c-6.4 21.333-23.467 38.4-43.733 44.8-5.333 2.133-11.733 3.2-18.133 3.2-14.933 0-28.8-5.333-37.333-9.6-8.533 4.267-21.333 9.6-37.333 9.6-6.4 0-11.733-1.067-18.133-3.2-21.333-6.4-37.333-23.467-43.733-44.8-6.4-19.2-6.4-50.133 22.4-88.533 3.2-4.267 4.267-12.8 5.333-20.267 1.067-4.267 1.067-9.6 2.133-13.867 6.4-32 32-34.133 39.467-34.133 6.4 0 19.2 2.133 29.867 14.933 9.6-12.8 23.467-14.933 29.867-14.933 35.2 0 39.467 35.2 41.6 48 1.067 7.467 2.133 17.067 5.333 20.267 29.867 38.4 28.8 69.333 22.4 88.533zM731.733 140.8c-17.067-22.4-4.267-58.667-24.533-58.667-5.333 0-8.533 4.267-11.733 10.667-6.4 17.067-5.333 49.067-18.133 49.067s-11.733-32-18.133-49.067c-2.133-6.4-5.333-10.667-11.733-10.667-7.467 0-10.667 5.333-11.733 12.8-3.2 12.8-2.133 32-12.8 45.867-37.333 49.067-14.933 83.2 7.467 90.667 3.2 1.067 6.4 1.067 9.6 1.067 16 0 30.933-10.667 37.333-10.667s21.333 10.667 37.333 10.667c3.2 0 6.4 0 9.6-1.067 22.4-7.467 44.8-41.6 7.467-90.667zM565.333 568.533c-8.533 3.2-17.067 0-21.333-8.533-5.333-12.8-19.2-20.267-34.133-20.267s-27.733 7.467-33.067 20.267c-4.267 8.533-12.8 11.733-21.333 7.467s-11.733-12.8-7.467-21.333c10.667-23.467 35.2-38.4 61.867-38.4 27.733 0 52.267 16 62.933 39.467 4.267 8.533 1.067 18.133-7.467 21.333zM321.067 85.333v185.6h-27.733v90.667h16c27.733 0 51.2 22.4 51.2 51.2s-22.4 51.2-51.2 51.2h-108.8v-11.733h-22.4c-21.333 0-38.4-17.067-38.4-38.4s17.067-38.4 38.4-38.4h22.4v-11.733h60.8v-90.667h-27.733v-185.6c0-24.533 19.2-43.733 43.733-43.733s43.733 18.133 43.733 41.6zM327.467 411.733c0-10.667-8.533-19.2-19.2-19.2h-72.533v38.4h73.6c10.667 0 18.133-8.533 18.133-19.2zM170.667 411.733c0 4.267 3.2 6.4 6.4 6.4h22.4v-12.8h-22.4c-3.2 0-6.4 3.2-6.4 6.4zM265.6 238.933h23.467v-30.933h-23.467v30.933zM277.333 73.6c-6.4 0-11.733 5.333-11.733 11.733v90.667h23.467v-90.667c0-6.4-5.333-11.733-11.733-11.733z" />
<glyph unicode="&#xe92b;" glyph-name="icon-saude-dental-endodontia" d="M410.667 455.467c7.467 37.333 12.8 62.933 28.8 62.933s22.4-26.667 28.8-62.933v-1.067l1.067-4.267c7.467-36.267 14.933-73.6 42.667-73.6 29.867 0 33.067 29.867 37.333 61.867 3.2 26.667 6.4 57.6 25.6 80 55.467 71.467 55.467 123.733 44.8 155.733-11.733 38.4-41.6 59.733-66.133 68.267-30.933 9.6-61.867-3.2-87.467-13.867l-1.067-1.067c-9.6-4.267-20.267-8.533-26.667-8.533s-16 4.267-26.667 8.533h-1.067c-24.533 10.667-55.467 23.467-86.4 13.867-24.533-7.467-54.4-29.867-66.133-68.267v0c-9.6-32-9.6-85.333 44.8-154.667 19.2-24.533 22.4-57.6 25.6-81.067 4.267-33.067 7.467-60.8 37.333-60.8 28.8 0 36.267 39.467 42.667 77.867zM518.4 441.6c-1.067-6.4-3.2-21.333-5.333-28.8-4.267 10.667-9.6 33.067-11.733 44.8l-1.067 5.333c-7.467 39.467-17.067 89.6-60.8 89.6s-53.333-49.067-60.8-89.6v-1.067c-2.133-12.8-7.467-38.4-11.733-49.067-2.133 7.467-4.267 23.467-5.333 29.867-3.2 26.667-7.467 66.133-32 97.067-46.933 58.667-46.933 101.333-39.467 125.867 8.533 26.667 28.8 41.6 44.8 46.933 20.267 6.4 43.733-3.2 65.067-12.8h1.067c13.867-6.4 26.667-11.733 39.467-11.733s25.6 5.333 38.4 11.733l1.067 1.067c21.333 8.533 44.8 19.2 65.067 12.8 16-5.333 37.333-20.267 44.8-46.933s7.467-68.267-39.467-128c-24.533-30.933-28.8-69.333-32-97.067zM865.067 169.6l-184.533 184.533c102.4 114.133 112 288 16 413.867-108.8 141.867-312.533 168.533-454.4 59.733-141.867-107.733-168.533-312.533-59.733-454.4 64-83.2 160-126.933 257.067-126.933 50.133 0 100.267 11.733 146.133 35.2l130.133-226.133c9.6-16 24.533-26.667 42.667-30.933 4.267-1.067 8.533-1.067 12.8-1.067 13.867 0 27.733 4.267 39.467 12.8l46.933 36.267c14.933 11.733 23.467 27.733 24.533 46.933 2.133 19.2-4.267 37.333-17.067 50.133zM208 393.6c-98.133 128-73.6 311.467 54.4 409.6 53.333 40.533 115.2 59.733 177.067 59.733 87.467 0 174.933-39.467 232.533-114.133 98.133-128 73.6-311.467-54.4-409.6v0c-128-98.133-311.467-73.6-409.6 54.4zM839.467 99.2l-46.933-36.267c-7.467-5.333-17.067-7.467-25.6-6.4-8.533 2.133-17.067 7.467-21.333 14.933l-130.133 226.133 21.333 17.067 22.4 17.067 183.467-184.533c6.4-6.4 9.6-16 9.6-24.533s-5.333-18.133-12.8-23.467z" />
<glyph unicode="&#xe92c;" glyph-name="icon-saude-dental-odontopediatria" d="M640 435.2c18.133 0 32 14.933 32 32 1.067 18.133-14.933 32-32 32-18.133 0-32-14.933-32-32s14.933-32 32-32zM384 435.2c18.133 0 32 14.933 32 32 0 18.133-14.933 32-32 32-18.133 0-32-14.933-32-32-1.067-17.067 13.867-32 32-32zM712.533 360.533h-401.067c-8.533 0-16-7.467-16-16 0-134.4 97.067-244.267 216.533-244.267s216.533 109.867 216.533 244.267c0 8.533-6.4 16-16 16zM567.467 328.533v-82.133h-110.933v82.133h110.933zM512 132.267c-97.067 0-177.067 86.4-184.533 196.267h97.067v-98.133c0-8.533 7.467-16 16-16h141.867c8.533 0 16 7.467 16 16v98.133h97.067c-6.4-109.867-86.4-196.267-183.467-196.267zM934.4 448c0 249.6-189.867 452.267-422.4 452.267 0 0-1.067 0-1.067 0-231.467 0-420.267-203.733-420.267-452.267 0-35.2 5.333-70.4 16-105.6-17.067-22.4-20.267-52.267-7.467-77.867l26.667-52.267c13.867-27.733 43.733-42.667 73.6-39.467 88.533-104.533 215.467-178.133 312.533-178.133 0 0 0 0 0 0s0 0 1.067 0c97.067 0 224 73.6 312.533 178.133 29.867-4.267 59.733 11.733 73.6 39.467l26.667 52.267c12.8 25.6 9.6 55.467-7.467 77.867 10.667 35.2 16 70.4 16 105.6zM888.533 327.467c12.8-12.8 16-32 8.533-48l-26.667-52.267c-8.533-17.067-28.8-25.6-46.933-20.267-6.4 2.133-12.8 0-17.067-5.333-81.067-100.267-204.8-173.867-293.333-173.867 0 0 0 0 0 0s0 0-1.067 0c-88.533 0-212.267 73.6-294.4 173.867-4.267 5.333-10.667 7.467-17.067 5.333-18.133-5.333-38.4 3.2-46.933 20.267l-26.667 52.267c-8.533 16-5.333 35.2 8.533 48 4.267 4.267 6.4 10.667 4.267 16-11.733 35.2-17.067 70.4-17.067 104.533 0 197.333 128 363.733 298.667 408.533v-74.667c0-57.6 46.933-104.533 104.533-104.533h43.733c42.667 0 77.867 35.2 77.867 77.867 0 41.6-34.133 75.733-75.733 75.733-8.533 0-16-7.467-16-16s7.467-16 16-16c24.533 0 43.733-19.2 43.733-43.733s-20.267-45.867-45.867-45.867h-43.733c-39.467 0-72.533 32-72.533 72.533v82.133c19.2 3.2 38.4 4.267 58.667 5.333 0 0 1.067 0 1.067 0 214.4 0 389.333-188.8 389.333-420.267 0-34.133-5.333-69.333-17.067-104.533-2.133-6.4-1.067-12.8 3.2-17.067z" />
<glyph unicode="&#xe92d;" glyph-name="icon-saude-dental-pais" d="M711.467 93.867c8.533 44.8 16 75.733 36.267 75.733s27.733-30.933 36.267-75.733l1.067-6.4c8.533-41.6 17.067-83.2 46.933-83.2 32 0 36.267 32 40.533 69.333 3.2 29.867 7.467 67.2 29.867 94.933 64 82.133 64 141.867 52.267 178.133-12.8 43.733-46.933 68.267-74.667 76.8 0 0-1.067 0-1.067 0 2.133 2.133 3.2 3.2 5.333 5.333 11.733 11.733 26.667 26.667 40.533 41.6 40.533 44.8 40.533 67.2 36.267 94.933 0 1.067 0 1.067 0 2.133-1.067 2.133-1.067 5.333-1.067 9.6 0 28.8-16 49.067-43.733 54.4h-1.067c-6.4 2.133-6.4 2.133-9.6 6.4-25.6 33.067-50.133 59.733-113.067 59.733-18.133 0-26.667 8.533-43.733 25.6 0 0-1.067 1.067-1.067 1.067-1.067 1.067-2.133 2.133-3.2 4.267-4.267 4.267-8.533 8.533-13.867 12.8-17.067 16-36.267 16-46.933 16h-2.133c-5.333 0-9.6 0-16 5.333 3.2 9.6 2.133 20.267-2.133 27.733l-30.933 60.8c-5.333 12.8-19.2 21.333-33.067 21.333s-25.6-6.4-33.067-19.2c-4.267-7.467-9.6-14.933-13.867-19.2-22.4 10.667-48 4.267-69.333 0l-9.6-2.133c-7.467-2.133-21.333-5.333-29.867-5.333 2.133 2.133 3.2 4.267 4.267 5.333 0 1.067 1.067 1.067 1.067 2.133 11.733 24.533 7.467 49.067-9.6 61.867-26.667 23.467-65.067 3.2-84.267-8.533-4.267 0-9.6 1.067-13.867 2.133h-2.133c-16 2.133-39.467 5.333-54.4-17.067-10.667-17.067-6.4-34.133 0-46.933 0 0-1.067 0-1.067 0-16 24.533-43.733 33.067-84.267 23.467 0 0-1.067 0-1.067 0-1.067 0-1.067 0-2.133 0-3.2 0-6.4 0-10.667-2.133-16-5.333-26.667-16-34.133-29.867-7.467-14.933-8.533-32-3.2-46.933 3.2-9.6 7.467-17.067 13.867-23.467 0-2.133 0-8.533-4.267-22.4-2.133-8.533-4.267-12.8-5.333-16 0 0 0 0-1.067 0-46.933-5.333-77.867-32-80-67.2 0-1.067-1.067-2.133-1.067-3.2s-1.067-3.2-1.067-3.2c-5.333-14.933-21.333-54.4 16-86.4 11.733-9.6 25.6-16 39.467-19.2 1.067-2.133 2.133-4.267 3.2-6.4 0-1.067 1.067-2.133 2.133-3.2 11.733-14.933 27.733-22.4 45.867-21.333 20.267 1.067 41.6 5.333 60.8 13.867 9.6-29.867 37.333-53.333 78.933-66.133 7.467-2.133 18.133-6.4 18.133-13.867 0-30.933 13.867-52.267 39.467-60.8 5.333-21.333 4.267-25.6 3.2-32-9.6-34.133-6.4-60.8 8.533-78.933 7.467-8.533 16-14.933 26.667-18.133 5.333-34.133 23.467-46.933 39.467-51.2-6.4-5.333-19.2-16-51.2-38.4-2.133-2.133-4.267-3.2-6.4-5.333s-5.333-3.2-6.4-5.333c-13.867-10.667-18.133-28.8-10.667-43.733 12.8-34.133 29.867-45.867 46.933-55.467 3.2-2.133 5.333-3.2 7.467-4.267 12.8-10.667 28.8-25.6 28.8-25.6 7.467-7.467 17.067-10.667 26.667-10.667s19.2 4.267 26.667 10.667c0 0 35.2 35.2 56.533 50.133 14.933 10.667 32 30.933 46.933 54.4 4.267-17.067 6.4-33.067 7.467-46.933 4.267-36.267 8.533-68.267 40.533-68.267s39.467 44.8 48 88.533zM596.267 150.4c-12.8-24.533-32-48-45.867-58.667-23.467-17.067-59.733-52.267-60.8-53.333-2.133-2.133-5.333-3.2-8.533 0-1.067 1.067-19.2 18.133-32 28.8-1.067 1.067-2.133 1.067-3.2 2.133-2.133 1.067-3.2 2.133-6.4 3.2 0 0-1.067 0-1.067 1.067-11.733 6.4-22.4 11.733-33.067 38.4 0 0 0 1.067-1.067 1.067-1.067 1.067 0 3.2 1.067 4.267 0 0 1.067 1.067 2.133 1.067 1.067 1.067 2.133 2.133 4.267 3.2 2.133 2.133 5.333 3.2 7.467 5.333 45.867 32 56.533 42.667 61.867 49.067 2.133 3.2 3.2 6.4 3.2 9.6v6.4c0 1.067 0 2.133 0 2.133 0 6.4 1.067 11.733-1.067 16-2.133 6.4-8.533 10.667-14.933 10.667h-2.133c-11.733 0-20.267 5.333-23.467 28.8v6.4c0 8.533-6.4 14.933-14.933 16-9.6 1.067-14.933 5.333-18.133 9.6-8.533 9.6-8.533 26.667-2.133 50.133 0 0 0 1.067 0 1.067 3.2 13.867 2.133 23.467-5.333 55.467-1.067 6.4-6.4 10.667-12.8 11.733-12.8 2.133-24.533 8.533-24.533 32 0 20.267-16 37.333-41.6 44.8-37.333 10.667-59.733 32-59.733 57.6v2.133c0 5.333-3.2 10.667-8.533 13.867s-10.667 3.2-16 0c-19.2-11.733-42.667-18.133-67.2-19.2-9.6 0-13.867 3.2-18.133 7.467-1.067 3.2-3.2 6.4-3.2 9.6-2.133 6.4-7.467 11.733-13.867 11.733-10.667 1.067-22.4 5.333-32 13.867-18.133 14.933-12.8 33.067-6.4 51.2l1.067 3.2c2.133 5.333 3.2 7.467 3.2 11.733 0 18.133 21.333 34.133 51.2 37.333 20.267 2.133 25.6 12.8 33.067 38.4 6.4 23.467 8.533 40.533-3.2 52.267-3.2 3.2-5.333 6.4-7.467 12.8-3.2 7.467-2.133 14.933 1.067 22.4s9.6 11.733 17.067 14.933c0 0 0 0 0 0 3.2 0 6.4 0 10.667 2.133 21.333 5.333 41.6 6.4 52.267-14.933 2.133-4.267 4.267-6.4 5.333-7.467 2.133-2.133 4.267-3.2 7.467-4.267 7.467-2.133 14.933 0 39.467 9.6l2.133 1.067c5.333 2.133 8.533 6.4 9.6 11.733s0 10.667-4.267 14.933c0 0 1.067-1.067 0 0s-1.067 1.067-2.133 2.133v0c-5.333 9.6-9.6 18.133-6.4 23.467 3.2 4.267 7.467 5.333 23.467 3.2h2.133c6.4-1.067 13.867-2.133 23.467-2.133 3.2 0 6.4 1.067 8.533 2.133 26.667 17.067 42.667 21.333 51.2 13.867 7.467-5.333 3.2-18.133 1.067-22.4-1.067-1.067-2.133-3.2-2.133-3.2-1.067-1.067-2.133-1.067-2.133-2.133-4.267-4.267-8.533-9.6-8.533-18.133 0-7.467 4.267-14.933 12.8-23.467 13.867-12.8 38.4-6.4 60.8-1.067l7.467 2.133c20.267 4.267 41.6 9.6 54.4-1.067 5.333-4.267 12.8-5.333 19.2-1.067 10.667 6.4 23.467 23.467 30.933 36.267 2.133 3.2 4.267 4.267 6.4 4.267 1.067 0 3.2-1.067 4.267-3.2l32-61.867c0-1.067 0-3.2-2.133-5.333-5.333-6.4-5.333-14.933 1.067-21.333 20.267-21.333 34.133-23.467 48-23.467h2.133c8.533 0 18.133 0 27.733-8.533 1.067-1.067 1.067-1.067 2.133-1.067 3.2-2.133 6.4-5.333 9.6-8.533 1.067-1.067 3.2-3.2 4.267-4.267 17.067-18.133 34.133-36.267 67.2-36.267 45.867 0 62.933-14.933 87.467-46.933 9.6-12.8 19.2-14.933 26.667-17.067h1.067c0 0 1.067 0 1.067 0 11.733-2.133 19.2-7.467 19.2-23.467 0-4.267 0-9.6 1.067-16 2.133-18.133 4.267-32-28.8-68.267-13.867-14.933-27.733-28.8-40.533-41.6-8.533-9.6-16-17.067-23.467-24.533v-5.333c0 0 0 0 0 0-20.267-3.2-39.467-10.667-55.467-18.133l-2.133-1.067c-11.733-5.333-23.467-10.667-32-10.667s-20.267 5.333-32 10.667l-1.067 1.067c-28.8 11.733-64 26.667-99.2 16-27.733-8.533-61.867-33.067-74.667-76.8v0c-10.667-37.333-10.667-98.133 52.267-178.133 3.2-4.267 6.4-8.533 8.533-12.8-2.133-2.133-4.267-4.267-5.333-6.4zM878.933 188.8c-27.733-34.133-33.067-76.8-36.267-112-1.067-9.6-4.267-35.2-7.467-40.533-6.4 8.533-13.867 41.6-17.067 57.6l-1.067 6.4c-8.533 44.8-19.2 101.333-68.267 101.333s-59.733-56.533-68.267-101.333v-2.133c-3.2-16-9.6-54.4-17.067-61.867-3.2 6.4-6.4 30.933-7.467 40.533-3.2 29.867-8.533 75.733-36.267 112-54.4 69.333-55.467 119.467-46.933 149.333 9.6 32 35.2 50.133 54.4 55.467 24.533 7.467 52.267-4.267 76.8-14.933h1.067c16-6.4 29.867-12.8 44.8-12.8s28.8 6.4 43.733 12.8l1.067 1.067c24.533 10.667 53.333 22.4 76.8 14.933 19.2-6.4 44.8-24.533 54.4-56.533 8.533-29.867 8.533-78.933-46.933-149.333z" />
<glyph unicode="&#xe92e;" glyph-name="icon-saude-dental-periodontia" d="M411.733 901.333c-88.533 0-160-71.467-160-160 0-83.2 62.933-151.467 144-160v-108.8c-32-7.467-56.533-36.267-56.533-70.4v-336c0-39.467 32-72.533 72.533-72.533 39.467 0 72.533 32 72.533 72.533v336c0 34.133-24.533 62.933-56.533 70.4v108.8c81.067 8.533 144 76.8 144 160 1.067 88.533-71.467 160-160 160zM452.267 402.133v-336c0-22.4-18.133-40.533-40.533-40.533s-40.533 18.133-40.533 40.533v336c0 22.4 18.133 40.533 40.533 40.533s40.533-18.133 40.533-40.533zM411.733 613.333c-70.4 0-128 57.6-128 128s57.6 128 128 128 128-57.6 128-128-56.533-128-128-128zM411.733 825.6c-45.867 0-83.2-37.333-83.2-83.2s37.333-83.2 83.2-83.2 83.2 37.333 83.2 83.2-37.333 83.2-83.2 83.2zM411.733 691.2c-28.8 0-51.2 23.467-51.2 51.2s23.467 51.2 51.2 51.2c28.8 0 51.2-23.467 51.2-51.2s-22.4-51.2-51.2-51.2zM716.8 472.533v92.8c0 2.133-1.067 5.333-2.133 7.467l-64 120.533 115.2 92.8c6.4 5.333 8.533 16 2.133 22.4-5.333 6.4-16 8.533-22.4 2.133l-125.867-101.333c-6.4-4.267-7.467-12.8-4.267-20.267l68.267-129.067v-88.533c-32-7.467-56.533-36.267-56.533-70.4v-336c0-39.467 32-72.533 72.533-72.533 39.467 0 72.533 32 72.533 72.533v337.067c0 34.133-23.467 62.933-55.467 70.4zM740.267 66.133c0-22.4-18.133-40.533-40.533-40.533v0c-22.4 0-40.533 18.133-40.533 40.533v336c0 22.4 18.133 40.533 40.533 40.533s40.533-18.133 40.533-40.533v-336z" />
<glyph unicode="&#xe92f;" glyph-name="icon-saude-dental-prevencao" d="M718.933 900.267h-67.2c-33.067 0-60.8-26.667-60.8-60.8v-205.867c0-33.067 26.667-60.8 60.8-60.8h67.2c7.467 0 14.933 1.067 21.333 4.267l-26.667-50.133c-1.067-2.133-2.133-5.333-2.133-7.467v-507.733c0-8.533 7.467-16 16-16s16 7.467 16 16v503.467l34.133 64c1.067 3.2 1.067 5.333 1.067 7.467v252.8c0 33.067-26.667 60.8-59.733 60.8zM718.933 605.867h-67.2c-16 0-28.8 12.8-28.8 28.8v204.8c0 16 12.8 28.8 28.8 28.8h67.2c16 0 28.8-12.8 28.8-28.8v-204.8c-1.067-16-13.867-28.8-28.8-28.8zM518.4 679.467c-2.133 28.8-18.133 52.267-42.667 65.067l-7.467 114.133c-2.133 23.467-21.333 41.6-44.8 41.6h-48c-23.467 0-42.667-18.133-44.8-41.6l-8.533-114.133c-23.467-12.8-40.533-36.267-42.667-65.067l-34.133-600.533c-1.067-21.333 6.4-42.667 21.333-58.667s35.2-24.533 56.533-24.533h152.533c21.333 0 41.6 8.533 56.533 24.533s22.4 36.267 21.333 58.667l-35.2 600.533zM356.267 753.067l7.467 103.467c0 6.4 6.4 11.733 12.8 11.733h48c6.4 0 11.733-5.333 12.8-11.733l7.467-103.467h-88.533zM508.8 42.667c-8.533-9.6-20.267-14.933-34.133-14.933h-151.467c-12.8 0-24.533 5.333-34.133 14.933-8.533 9.6-12.8 21.333-12.8 34.133l35.2 600.533c1.067 24.533 21.333 43.733 45.867 43.733h81.067c24.533 0 44.8-19.2 45.867-43.733l35.2-600.533c3.2-12.8-1.067-24.533-10.667-34.133z" />
</font>
</defs>
</svg>
