<?xml version="1.0" standalone="no"?>
<!DOCTYPE svg PUBLIC "-//W3C//DTD SVG 1.1//EN" "http://www.w3.org/Graphics/SVG/1.1/DTD/svg11.dtd" >
<svg xmlns="http://www.w3.org/2000/svg" xmlns:xlink="http://www.w3.org/1999/xlink" version="1.1">
<metadata>
Created by FontForge 20190531 at Fri Aug  9 12:40:23 2019
 By Henrique Beier
Copyright \(c\) 2019 Banco Bradesco S.A. All rights reserved.
</metadata>
<defs>
<font id="BradescoSans-Regular" horiz-adv-x="586" >
  <font-face 
    font-family="Bradesco Sans"
    font-weight="400"
    font-stretch="normal"
    units-per-em="1000"
    panose-1="0 0 5 0 0 0 0 0 0 0"
    ascent="800"
    descent="-200"
    x-height="520"
    cap-height="676"
    bbox="-461 -223 1299 981"
    underline-thickness="50"
    underline-position="-100"
    stemh="71"
    stemv="80"
    unicode-range="U+0020-FB02"
  />
<missing-glyph horiz-adv-x="471" 
d="M386 730v-941h-298v941h298zM313 667h-155v-31h61v-35h-62v-31h156v31h-62v35h62v31zM251 546h-94v-98h156v32h-62v66zM219 514v-34h-31v34h31zM313 422h-156v-31h62v-35h-62v-31h94v66h62v31zM313 366h-31v-62h-125v-32h156v94zM313 251h-94v-53h32v22h31v-44h-94v75
h-31v-106h156v106zM313 88h-156v-106h156v106zM282 57v-44h-94v44h94zM313 -40h-156v-31h66l-66 -44v-31h156v31h-96l66 44h30v31z" />
    <glyph glyph-name="fi" unicode="fi" horiz-adv-x="628" 
d="M74 0v546c0 126 76 197 189 197c45 0 90 -18 125 -49l-38 -54c-23 18 -51 31 -88 31c-67 0 -108 -43 -108 -118v-33h217v-70h-217v-450h-80zM513 617c-30 0 -52 22 -52 51c0 31 22 52 52 52c29 0 52 -21 52 -52c0 -29 -23 -51 -52 -51zM472 0v520h80v-520h-80z" />
    <glyph glyph-name="fl" unicode="fl" horiz-adv-x="700" 
d="M74 0v546c0 126 76 197 189 197c45 0 90 -18 125 -49l-38 -54c-23 18 -51 31 -88 31c-67 0 -108 -43 -108 -118v-33h217v-70h-217v-450h-80zM639 -6c-106 0 -165 66 -165 185v548l80 16v-568c0 -72 32 -112 94 -112h23v-69h-32z" />
    <glyph glyph-name=".notdef" horiz-adv-x="471" 
d="M386 730v-941h-298v941h298zM313 667h-155v-31h61v-35h-62v-31h156v31h-62v35h62v31zM251 546h-94v-98h156v32h-62v66zM219 514v-34h-31v34h31zM313 422h-156v-31h62v-35h-62v-31h94v66h62v31zM313 366h-31v-62h-125v-32h156v94zM313 251h-94v-53h32v22h31v-44h-94v75
h-31v-106h156v106zM313 88h-156v-106h156v106zM282 57v-44h-94v44h94zM313 -40h-156v-31h66l-66 -44v-31h156v31h-96l66 44h30v31z" />
    <glyph glyph-name="space" unicode=" " horiz-adv-x="255" 
 />
    <glyph glyph-name="A" unicode="A" horiz-adv-x="650" 
d="M21 0l268 676h73l266 -676h-85l-71 187h-298l-72 -187h-81zM203 262h241l-120 316z" />
    <glyph glyph-name="Aacute" unicode="&#xc1;" horiz-adv-x="650" 
d="M252 742l136 130h102l-148 -130h-90zM21 0l268 676h73l266 -676h-85l-71 187h-298l-72 -187h-81zM203 262h241l-120 316z" />
    <glyph glyph-name="Acircumflex" unicode="&#xc2;" horiz-adv-x="650" 
d="M157 741l123 130h89l123 -130h-85l-83 80l-83 -80h-84zM21 0l268 676h73l266 -676h-85l-71 187h-298l-72 -187h-81zM203 262h241l-120 316z" />
    <glyph glyph-name="Adieresis" unicode="&#xc4;" horiz-adv-x="650" 
d="M235 750c-31 0 -52 20 -52 50c0 29 21 50 52 50c29 0 52 -21 52 -50c0 -30 -23 -50 -52 -50zM416 750c-29 0 -52 20 -52 50c0 29 22 50 52 50s52 -21 52 -50c0 -30 -22 -50 -52 -50zM21 0l268 676h73l266 -676h-85l-71 187h-298l-72 -187h-81zM203 262h241l-120 316z" />
    <glyph glyph-name="Agrave" unicode="&#xc0;" horiz-adv-x="650" 
d="M309 742l-149 130h101l137 -130h-89zM21 0l268 676h73l266 -676h-85l-71 187h-298l-72 -187h-81zM203 262h241l-120 316z" />
    <glyph glyph-name="Aring" unicode="&#xc5;" horiz-adv-x="650" 
d="M376 641l252 -641h-85l-71 187h-298l-72 -187h-81l253 639c-43 18 -74 61 -74 112c0 68 56 120 123 120s123 -53 123 -120c0 -50 -29 -91 -70 -110zM323 815c-35 0 -64 -28 -64 -64c0 -39 29 -67 64 -67s65 28 65 67c0 36 -30 64 -65 64zM203 262h241l-120 316z" />
    <glyph glyph-name="Atilde" unicode="&#xc3;" horiz-adv-x="650" 
d="M404 752c-32 0 -56 11 -78 25c-21 13 -39 23 -64 23c-37 0 -66 -18 -94 -37v66c29 23 58 35 94 35c31 0 54 -8 76 -22c24 -14 42 -25 67 -25c40 0 71 20 96 38v-68c-27 -21 -57 -35 -97 -35zM21 0l268 676h73l266 -676h-85l-71 187h-298l-72 -187h-81zM203 262h241
l-120 316z" />
    <glyph glyph-name="AE" unicode="&#xc6;" horiz-adv-x="993" 
d="M5 0l479 676h455v-77h-351v-211h306v-78h-306v-232h361v-78h-442v182h-282l-128 -182h-92zM276 254h231v329z" />
    <glyph glyph-name="B" unicode="B" horiz-adv-x="608" 
d="M86 0v676h223c138 0 211 -79 211 -182c0 -60 -31 -110 -83 -140c76 -25 123 -85 123 -165c0 -116 -82 -189 -221 -189h-253zM164 380h141c90 0 136 42 136 113c0 68 -46 113 -144 113h-133v-226zM164 70h163c98 0 152 39 152 120c0 69 -54 117 -143 117h-172v-237z" />
    <glyph glyph-name="C" unicode="C" horiz-adv-x="654" 
d="M369 -10c-189 0 -314 142 -314 348c0 202 133 348 318 348c91 0 166 -39 221 -101l-53 -53c-44 49 -100 77 -167 77c-143 0 -236 -111 -236 -271c0 -161 95 -271 233 -271c71 0 130 30 178 79l54 -54c-60 -64 -137 -102 -234 -102z" />
    <glyph glyph-name="Ccedilla" unicode="&#xc7;" horiz-adv-x="654" 
d="M603 92c-53 -56 -118 -92 -199 -100c19 -24 30 -49 30 -76c0 -71 -59 -106 -143 -106h-25v64h23c44 0 75 16 75 51c0 23 -12 44 -32 67c-168 17 -277 154 -277 346c0 202 133 348 318 348c91 0 166 -39 221 -101l-53 -53c-44 49 -100 77 -167 77
c-143 0 -236 -111 -236 -271c0 -161 95 -271 233 -271c71 0 130 30 178 79z" />
    <glyph glyph-name="D" unicode="D" horiz-adv-x="678" 
d="M86 0v676h199c209 0 339 -133 339 -336c0 -204 -131 -340 -338 -340h-200zM168 77h119c162 0 254 101 254 263c0 159 -90 260 -254 260h-119v-523z" />
    <glyph glyph-name="Eth" unicode="&#xd0;" horiz-adv-x="703" 
d="M111 0v303h-92v70h92v303h199c209 0 339 -133 339 -336c0 -204 -131 -340 -338 -340h-200zM193 77h119c162 0 254 101 254 263c0 159 -90 260 -254 260h-119v-227h199v-70h-199v-226z" />
    <glyph glyph-name="E" unicode="E" horiz-adv-x="572" 
d="M86 0v676h432v-77h-351v-211h307v-78h-307v-232h362v-78h-443z" />
    <glyph glyph-name="Eacute" unicode="&#xc9;" horiz-adv-x="572" 
d="M235 742l136 130h102l-148 -130h-90zM86 0v676h432v-77h-351v-211h307v-78h-307v-232h362v-78h-443z" />
    <glyph glyph-name="Ecircumflex" unicode="&#xca;" horiz-adv-x="572" 
d="M140 741l123 130h89l123 -130h-85l-83 80l-83 -80h-84zM86 0v676h432v-77h-351v-211h307v-78h-307v-232h362v-78h-443z" />
    <glyph glyph-name="Edieresis" unicode="&#xcb;" horiz-adv-x="572" 
d="M218 750c-31 0 -52 20 -52 50c0 29 21 50 52 50c29 0 52 -21 52 -50c0 -30 -23 -50 -52 -50zM399 750c-29 0 -52 20 -52 50c0 29 22 50 52 50s52 -21 52 -50c0 -30 -22 -50 -52 -50zM86 0v676h432v-77h-351v-211h307v-78h-307v-232h362v-78h-443z" />
    <glyph glyph-name="Egrave" unicode="&#xc8;" horiz-adv-x="572" 
d="M292 742l-149 130h101l137 -130h-89zM86 0v676h432v-77h-351v-211h307v-78h-307v-232h362v-78h-443z" />
    <glyph glyph-name="F" unicode="F" horiz-adv-x="561" 
d="M86 0v676h433v-78h-351v-213h305v-77h-305v-308h-82z" />
    <glyph glyph-name="G" unicode="G" horiz-adv-x="679" 
d="M366 -10c-188 0 -311 138 -311 348c0 206 134 348 324 348c89 0 170 -41 220 -101l-50 -51c-41 44 -96 75 -169 75c-146 0 -243 -108 -243 -271c0 -162 92 -271 232 -271c70 0 122 19 167 56v158h-176v73h254v-265c-64 -62 -155 -99 -248 -99z" />
    <glyph glyph-name="H" unicode="H" horiz-adv-x="687" 
d="M86 0v676h82v-288h351v288h82v-676h-82v310h-351v-310h-82z" />
    <glyph glyph-name="I" unicode="I" horiz-adv-x="254" 
d="M86 0v676h82v-676h-82z" />
    <glyph glyph-name="Iacute" unicode="&#xcd;" horiz-adv-x="254" 
d="M84 742l100 130h91l-112 -130h-79zM86 0v676h82v-676h-82z" />
    <glyph glyph-name="Icircumflex" unicode="&#xce;" horiz-adv-x="254" 
d="M-41 741l123 130h89l123 -130h-85l-83 80l-83 -80h-84zM86 0v676h82v-676h-82z" />
    <glyph glyph-name="Idieresis" unicode="&#xcf;" horiz-adv-x="254" 
d="M37 750c-31 0 -52 20 -52 50c0 29 21 50 52 50c29 0 52 -21 52 -50c0 -30 -23 -50 -52 -50zM218 750c-29 0 -52 20 -52 50c0 29 22 50 52 50s52 -21 52 -50c0 -30 -22 -50 -52 -50zM86 0v676h82v-676h-82z" />
    <glyph glyph-name="Igrave" unicode="&#xcc;" horiz-adv-x="254" 
d="M91 742l-112 130h92l99 -130h-79zM86 0v676h82v-676h-82z" />
    <glyph glyph-name="J" unicode="J" horiz-adv-x="390" 
d="M37 0v78h50c91 0 138 59 138 156v442h82v-443c0 -148 -75 -233 -214 -233h-56z" />
    <glyph glyph-name="K" unicode="K" horiz-adv-x="659" 
d="M86 0v676h82v-291h88c85 0 104 29 158 121l102 170h90l-125 -206c-29 -47 -55 -87 -88 -115l251 -355h-99l-224 316c-17 -5 -34 -8 -54 -8h-99v-308h-82z" />
    <glyph glyph-name="L" unicode="L" horiz-adv-x="557" 
d="M86 0v676h82v-597h351v-79h-433z" />
    <glyph glyph-name="M" unicode="M" horiz-adv-x="849" 
d="M86 0v676h79l252 -457l271 457h75v-676h-81v526l-233 -389h-67l-215 384v-521h-81z" />
    <glyph glyph-name="N" unicode="N" horiz-adv-x="682" 
d="M86 0v676h67l363 -530v530h79v-676h-67l-363 529v-529h-79z" />
    <glyph glyph-name="Ntilde" unicode="&#xd1;" horiz-adv-x="682" 
d="M420 752c-32 0 -56 11 -78 25c-21 13 -39 23 -64 23c-37 0 -66 -18 -94 -37v66c29 23 58 35 94 35c31 0 54 -8 76 -22c24 -14 42 -25 67 -25c40 0 71 20 96 38v-68c-27 -21 -57 -35 -97 -35zM86 0v676h67l363 -530v530h79v-676h-67l-363 529v-529h-79z" />
    <glyph glyph-name="O" unicode="O" horiz-adv-x="738" 
d="M369 -10c-182 0 -314 144 -314 349c0 198 134 347 314 347c181 0 315 -145 315 -347s-135 -349 -315 -349zM369 67c136 0 232 112 232 272c0 158 -95 270 -231 270c-139 0 -232 -115 -232 -270c0 -159 93 -272 231 -272z" />
    <glyph glyph-name="Oacute" unicode="&#xd3;" horiz-adv-x="738" 
d="M296 742l136 130h102l-148 -130h-90zM369 -10c-182 0 -314 144 -314 349c0 198 134 347 314 347c181 0 315 -145 315 -347s-135 -349 -315 -349zM369 67c136 0 232 112 232 272c0 158 -95 270 -231 270c-139 0 -232 -115 -232 -270c0 -159 93 -272 231 -272z" />
    <glyph glyph-name="Ocircumflex" unicode="&#xd4;" horiz-adv-x="738" 
d="M202 741l123 130h89l123 -130h-85l-83 80l-83 -80h-84zM369 -10c-182 0 -314 144 -314 349c0 198 134 347 314 347c181 0 315 -145 315 -347s-135 -349 -315 -349zM369 67c136 0 232 112 232 272c0 158 -95 270 -231 270c-139 0 -232 -115 -232 -270
c0 -159 93 -272 231 -272z" />
    <glyph glyph-name="Odieresis" unicode="&#xd6;" horiz-adv-x="738" 
d="M280 750c-31 0 -52 20 -52 50c0 29 21 50 52 50c29 0 52 -21 52 -50c0 -30 -23 -50 -52 -50zM461 750c-29 0 -52 20 -52 50c0 29 22 50 52 50s52 -21 52 -50c0 -30 -22 -50 -52 -50zM369 -10c-182 0 -314 144 -314 349c0 198 134 347 314 347c181 0 315 -145 315 -347
s-135 -349 -315 -349zM369 67c136 0 232 112 232 272c0 158 -95 270 -231 270c-139 0 -232 -115 -232 -270c0 -159 93 -272 231 -272z" />
    <glyph glyph-name="Ograve" unicode="&#xd2;" horiz-adv-x="738" 
d="M354 742l-149 130h101l137 -130h-89zM369 -10c-182 0 -314 144 -314 349c0 198 134 347 314 347c181 0 315 -145 315 -347s-135 -349 -315 -349zM369 67c136 0 232 112 232 272c0 158 -95 270 -231 270c-139 0 -232 -115 -232 -270c0 -159 93 -272 231 -272z" />
    <glyph glyph-name="Oslash" unicode="&#xd8;" horiz-adv-x="738" 
d="M42 -46l100 134c-55 62 -87 149 -87 251c0 198 134 347 314 347c68 0 128 -20 178 -56l68 91h87l-103 -138c53 -61 85 -146 85 -244c0 -202 -135 -350 -315 -350c-66 0 -125 19 -175 53l-66 -88h-86zM192 156l308 410c-36 28 -80 43 -130 43c-139 0 -232 -115 -232 -270
c0 -73 19 -136 54 -183zM369 66c136 0 232 113 232 273c0 70 -19 131 -51 178l-308 -410c35 -26 78 -41 127 -41z" />
    <glyph glyph-name="Otilde" unicode="&#xd5;" horiz-adv-x="738" 
d="M449 752c-32 0 -56 11 -78 25c-21 13 -39 23 -64 23c-37 0 -66 -18 -94 -37v66c29 23 58 35 94 35c31 0 54 -8 76 -22c24 -14 42 -25 67 -25c40 0 71 20 96 38v-68c-27 -21 -57 -35 -97 -35zM369 -10c-182 0 -314 144 -314 349c0 198 134 347 314 347
c181 0 315 -145 315 -347s-135 -349 -315 -349zM369 67c136 0 232 112 232 272c0 158 -95 270 -231 270c-139 0 -232 -115 -232 -270c0 -159 93 -272 231 -272z" />
    <glyph glyph-name="OE" unicode="&#x152;" horiz-adv-x="1088" 
d="M367 -11c-180 0 -312 144 -312 350c0 199 135 347 312 347c99 0 182 -48 234 -128v118h432v-77h-350v-211h306v-78h-306v-232h361v-78h-443v121c-52 -81 -136 -132 -234 -132zM369 66c137 0 232 116 232 274s-93 269 -231 269s-232 -115 -232 -269
c0 -157 91 -274 231 -274z" />
    <glyph glyph-name="P" unicode="P" horiz-adv-x="597" 
d="M86 0v676h236c148 0 230 -91 230 -211c0 -119 -85 -210 -230 -210h-155v-255h-81zM167 331h145c102 0 157 50 157 134s-54 137 -157 137h-145v-271z" />
    <glyph glyph-name="Thorn" unicode="&#xde;" horiz-adv-x="597" 
d="M86 0v676h81v-94h155c148 0 230 -91 230 -211c0 -119 -85 -210 -230 -210h-155v-161h-81zM167 237h145c102 0 156 51 156 134c0 84 -53 138 -156 138h-145v-272z" />
    <glyph glyph-name="Q" unicode="Q" horiz-adv-x="738" 
d="M607 -92l-87 120c-44 -25 -95 -39 -151 -39c-182 0 -314 145 -314 350c0 198 134 347 314 347c181 0 315 -145 315 -347c0 -110 -40 -203 -104 -266l89 -122zM370 66c38 0 73 9 103 25l-85 117l63 44l82 -113c43 48 68 118 68 200c0 158 -94 270 -231 270
c-139 0 -232 -115 -232 -270c0 -159 93 -273 232 -273z" />
    <glyph glyph-name="R" unicode="R" horiz-adv-x="608" 
d="M86 0v676h227c147 0 229 -82 229 -198c0 -79 -48 -146 -130 -175c39 -28 70 -71 99 -131l83 -172h-90l-65 133c-41 85 -79 143 -170 143h-102v-276h-81zM167 350h136c103 0 157 52 157 126c0 80 -53 127 -157 127h-136v-253z" />
    <glyph glyph-name="S" unicode="S" horiz-adv-x="582" 
d="M294 -11c-113 0 -200 42 -264 111l49 52c61 -61 135 -87 217 -87c97 0 155 39 155 109c0 80 -65 109 -175 135c-151 36 -221 81 -221 198c0 100 94 179 232 179c93 0 167 -37 225 -99l-50 -50c-50 49 -113 74 -175 74c-96 0 -152 -40 -152 -106c0 -78 63 -96 178 -123
c154 -37 219 -100 219 -203c0 -112 -84 -190 -238 -190z" />
    <glyph glyph-name="Scaron" unicode="&#x160;" horiz-adv-x="582" 
d="M244 741l-123 130h85l83 -80l83 80h84l-123 -130h-89zM294 -11c-113 0 -200 42 -264 111l49 52c61 -61 135 -87 217 -87c97 0 155 39 155 109c0 80 -65 109 -175 135c-151 36 -221 81 -221 198c0 100 94 179 232 179c93 0 167 -37 225 -99l-50 -50
c-50 49 -113 74 -175 74c-96 0 -152 -40 -152 -106c0 -78 63 -96 178 -123c154 -37 219 -100 219 -203c0 -112 -84 -190 -238 -190z" />
    <glyph glyph-name="uni1E9E" unicode="&#x1e9e;" horiz-adv-x="676" 
d="M423 -10c-83 0 -143 23 -198 73l44 54c47 -40 88 -55 147 -55c86 0 141 47 141 119c0 76 -62 127 -168 127h-66v56l166 204c-32 27 -76 44 -135 44c-120 0 -196 -77 -196 -228v-384h-81v385c0 184 110 301 276 301c115 0 187 -55 234 -100l-174 -214l22 -1
c119 -5 201 -81 201 -187c0 -116 -84 -194 -213 -194z" />
    <glyph glyph-name="T" unicode="T" horiz-adv-x="613" 
d="M265 0v598h-230v78h542v-78h-230v-598h-82z" />
    <glyph glyph-name="U" unicode="U" horiz-adv-x="694" 
d="M347 -11c-166 0 -270 118 -270 330v357h82v-357c0 -170 72 -253 188 -253s188 82 188 252v358h82v-356c0 -209 -106 -331 -270 -331z" />
    <glyph glyph-name="Uacute" unicode="&#xda;" horiz-adv-x="694" 
d="M275 742l136 130h102l-148 -130h-90zM347 -11c-166 0 -270 118 -270 330v357h82v-357c0 -170 72 -253 188 -253s188 82 188 252v358h82v-356c0 -209 -106 -331 -270 -331z" />
    <glyph glyph-name="Ucircumflex" unicode="&#xdb;" horiz-adv-x="694" 
d="M180 741l123 130h89l123 -130h-85l-83 80l-83 -80h-84zM347 -11c-166 0 -270 118 -270 330v357h82v-357c0 -170 72 -253 188 -253s188 82 188 252v358h82v-356c0 -209 -106 -331 -270 -331z" />
    <glyph glyph-name="Udieresis" unicode="&#xdc;" horiz-adv-x="694" 
d="M258 750c-31 0 -52 20 -52 50c0 29 21 50 52 50c29 0 52 -21 52 -50c0 -30 -23 -50 -52 -50zM439 750c-29 0 -52 20 -52 50c0 29 22 50 52 50s52 -21 52 -50c0 -30 -22 -50 -52 -50zM347 -11c-166 0 -270 118 -270 330v357h82v-357c0 -170 72 -253 188 -253
s188 82 188 252v358h82v-356c0 -209 -106 -331 -270 -331z" />
    <glyph glyph-name="Ugrave" unicode="&#xd9;" horiz-adv-x="694" 
d="M332 742l-149 130h101l137 -130h-89zM347 -11c-166 0 -270 118 -270 330v357h82v-357c0 -170 72 -253 188 -253s188 82 188 252v358h82v-356c0 -209 -106 -331 -270 -331z" />
    <glyph glyph-name="V" unicode="V" horiz-adv-x="655" 
d="M289 0l-267 676h90l217 -568l217 568h86l-268 -676h-75z" />
    <glyph glyph-name="W" unicode="W" horiz-adv-x="947" 
d="M227 0l-198 676h87l152 -561l170 521h81l164 -521l151 561h85l-198 -676h-78l-171 522l-167 -522h-78z" />
    <glyph glyph-name="Wacute" unicode="&#x1e82;" horiz-adv-x="947" 
d="M400 742l136 130h102l-148 -130h-90zM227 0l-198 676h87l152 -561l170 521h81l164 -521l151 561h85l-198 -676h-78l-171 522l-167 -522h-78z" />
    <glyph glyph-name="Wcircumflex" unicode="&#x174;" horiz-adv-x="947" 
d="M306 741l123 130h89l123 -130h-85l-83 80l-83 -80h-84zM227 0l-198 676h87l152 -561l170 521h81l164 -521l151 561h85l-198 -676h-78l-171 522l-167 -522h-78z" />
    <glyph glyph-name="Wdieresis" unicode="&#x1e84;" horiz-adv-x="947" 
d="M384 750c-31 0 -52 20 -52 50c0 29 21 50 52 50c29 0 52 -21 52 -50c0 -30 -23 -50 -52 -50zM565 750c-29 0 -52 20 -52 50c0 29 22 50 52 50s52 -21 52 -50c0 -30 -22 -50 -52 -50zM227 0l-198 676h87l152 -561l170 521h81l164 -521l151 561h85l-198 -676h-78l-171 522
l-167 -522h-78z" />
    <glyph glyph-name="Wgrave" unicode="&#x1e80;" horiz-adv-x="947" 
d="M458 742l-149 130h101l137 -130h-89zM227 0l-198 676h87l152 -561l170 521h81l164 -521l151 561h85l-198 -676h-78l-171 522l-167 -522h-78z" />
    <glyph glyph-name="X" unicode="X" horiz-adv-x="645" 
d="M21 0l252 354l-230 322h98l183 -261l183 261h93l-230 -321l253 -355h-97l-207 293l-205 -293h-93z" />
    <glyph glyph-name="Y" unicode="Y" horiz-adv-x="582" 
d="M251 0v260l-233 416h91l184 -339l183 339h90l-233 -417v-259h-82z" />
    <glyph glyph-name="Yacute" unicode="&#xdd;" horiz-adv-x="582" 
d="M218 742l136 130h102l-148 -130h-90zM251 0v260l-233 416h91l184 -339l183 339h90l-233 -417v-259h-82z" />
    <glyph glyph-name="Ycircumflex" unicode="&#x176;" horiz-adv-x="582" 
d="M123 741l123 130h89l123 -130h-85l-83 80l-83 -80h-84zM251 0v260l-233 416h91l184 -339l183 339h90l-233 -417v-259h-82z" />
    <glyph glyph-name="Ydieresis" unicode="&#x178;" horiz-adv-x="582" 
d="M201 750c-31 0 -52 20 -52 50c0 29 21 50 52 50c29 0 52 -21 52 -50c0 -30 -23 -50 -52 -50zM382 750c-29 0 -52 20 -52 50c0 29 22 50 52 50s52 -21 52 -50c0 -30 -22 -50 -52 -50zM251 0v260l-233 416h91l184 -339l183 339h90l-233 -417v-259h-82z" />
    <glyph glyph-name="Ygrave" unicode="&#x1ef2;" horiz-adv-x="582" 
d="M275 742l-149 130h101l137 -130h-89zM251 0v260l-233 416h91l184 -339l183 339h90l-233 -417v-259h-82z" />
    <glyph glyph-name="Z" unicode="Z" horiz-adv-x="603" 
d="M40 0v63l408 535h-395v78h499v-63l-408 -534h419v-79h-523z" />
    <glyph glyph-name="Zcaron" unicode="&#x17d;" horiz-adv-x="603" 
d="M258 741l-123 130h85l83 -80l83 80h84l-123 -130h-89zM40 0v63l408 535h-395v78h499v-63l-408 -534h419v-79h-523z" />
    <glyph glyph-name="a" unicode="a" horiz-adv-x="538" 
d="M224 -10c-107 0 -171 55 -171 148c0 96 78 154 212 154h130v21c0 101 -41 145 -131 145c-53 0 -106 -23 -144 -61l-49 50c50 52 121 83 196 83c134 0 205 -75 205 -225v-305h-49l-24 74c-47 -51 -115 -84 -175 -84zM230 59c57 0 122 37 165 87v80h-133
c-84 0 -134 -32 -134 -87c0 -49 42 -80 102 -80z" />
    <glyph glyph-name="aacute" unicode="&#xe1;" horiz-adv-x="538" 
d="M198 599l135 137h99l-146 -137h-88zM224 -10c-107 0 -171 55 -171 148c0 96 78 154 212 154h130v21c0 101 -41 145 -131 145c-53 0 -106 -23 -144 -61l-49 50c50 52 121 83 196 83c134 0 205 -75 205 -225v-305h-49l-24 74c-47 -51 -115 -84 -175 -84zM230 59
c57 0 122 37 165 87v80h-133c-84 0 -134 -32 -134 -87c0 -49 42 -80 102 -80z" />
    <glyph glyph-name="acircumflex" unicode="&#xe2;" horiz-adv-x="538" 
d="M106 599l120 137h87l120 -137h-82l-82 85l-83 -85h-80zM224 -10c-107 0 -171 55 -171 148c0 96 78 154 212 154h130v21c0 101 -41 145 -131 145c-53 0 -106 -23 -144 -61l-49 50c50 52 121 83 196 83c134 0 205 -75 205 -225v-305h-49l-24 74c-47 -51 -115 -84 -175 -84z
M230 59c57 0 122 37 165 87v80h-133c-84 0 -134 -32 -134 -87c0 -49 42 -80 102 -80z" />
    <glyph glyph-name="adieresis" unicode="&#xe4;" horiz-adv-x="538" 
d="M180 617c-31 0 -51 22 -51 50c0 31 20 52 51 52c29 0 51 -21 51 -52c0 -28 -22 -50 -51 -50zM360 617c-30 0 -51 22 -51 50c0 31 21 52 51 52s51 -21 51 -52c0 -28 -21 -50 -51 -50zM224 -10c-107 0 -171 55 -171 148c0 96 78 154 212 154h130v21c0 101 -41 145 -131 145
c-53 0 -106 -23 -144 -61l-49 50c50 52 121 83 196 83c134 0 205 -75 205 -225v-305h-49l-24 74c-47 -51 -115 -84 -175 -84zM230 59c57 0 122 37 165 87v80h-133c-84 0 -134 -32 -134 -87c0 -49 42 -80 102 -80z" />
    <glyph glyph-name="agrave" unicode="&#xe0;" horiz-adv-x="538" 
d="M255 599l-146 137h99l135 -137h-88zM224 -10c-107 0 -171 55 -171 148c0 96 78 154 212 154h130v21c0 101 -41 145 -131 145c-53 0 -106 -23 -144 -61l-49 50c50 52 121 83 196 83c134 0 205 -75 205 -225v-305h-49l-24 74c-47 -51 -115 -84 -175 -84zM230 59
c57 0 122 37 165 87v80h-133c-84 0 -134 -32 -134 -87c0 -49 42 -80 102 -80z" />
    <glyph glyph-name="aring" unicode="&#xe5;" horiz-adv-x="538" 
d="M267 589c-66 0 -122 54 -122 122s56 120 122 120c67 0 123 -53 123 -120c0 -69 -56 -122 -123 -122zM267 644c35 0 65 29 65 67c0 36 -30 64 -65 64c-34 0 -64 -28 -64 -64c0 -38 30 -67 64 -67zM224 -10c-107 0 -171 55 -171 148c0 96 78 154 212 154h130v21
c0 101 -41 145 -131 145c-53 0 -106 -23 -144 -61l-49 50c50 52 121 83 196 83c134 0 205 -75 205 -225v-305h-49l-24 74c-47 -51 -115 -84 -175 -84zM230 59c57 0 122 37 165 87v80h-133c-84 0 -134 -32 -134 -87c0 -49 42 -80 102 -80z" />
    <glyph glyph-name="atilde" unicode="&#xe3;" horiz-adv-x="538" 
d="M349 608c-33 0 -54 12 -78 26c-23 13 -41 25 -67 25c-34 0 -60 -17 -89 -40v68c28 24 54 38 89 38c32 0 55 -12 78 -25c23 -14 43 -26 68 -26c37 0 65 20 90 39v-67c-26 -22 -53 -38 -91 -38zM224 -10c-107 0 -171 55 -171 148c0 96 78 154 212 154h130v21
c0 101 -41 145 -131 145c-53 0 -106 -23 -144 -61l-49 50c50 52 121 83 196 83c134 0 205 -75 205 -225v-305h-49l-24 74c-47 -51 -115 -84 -175 -84zM230 59c57 0 122 37 165 87v80h-133c-84 0 -134 -32 -134 -87c0 -49 42 -80 102 -80z" />
    <glyph glyph-name="ae" unicode="&#xe6;" horiz-adv-x="908" 
d="M225 -10c-108 0 -172 57 -172 150c0 96 78 156 212 156h130v19c0 100 -41 143 -131 143c-53 0 -106 -23 -144 -61l-49 50c49 52 121 83 196 83c89 0 148 -35 178 -103c41 62 108 103 189 103c142 0 225 -112 225 -268v-32h-386c10 -93 74 -168 175 -168
c56 0 102 22 138 59l53 -48c-46 -48 -111 -83 -193 -83c-94 0 -165 44 -207 110c-59 -68 -135 -110 -214 -110zM474 297h305c-7 98 -58 164 -148 164c-89 0 -147 -66 -157 -164zM230 57c72 0 139 45 182 101c-7 22 -12 47 -15 72h-135c-84 0 -134 -34 -134 -89
c0 -49 42 -84 102 -84z" />
    <glyph glyph-name="b" unicode="b" horiz-adv-x="615" 
d="M306 -8c-61 0 -122 26 -165 64l-17 -56h-50v727l80 16v-295c44 50 109 82 179 82c134 0 231 -102 231 -267c0 -171 -120 -271 -258 -271zM299 64c106 0 185 64 185 199c0 125 -64 194 -161 194c-71 0 -130 -37 -169 -94v-239c39 -35 92 -60 145 -60z" />
    <glyph glyph-name="c" unicode="c" horiz-adv-x="518" 
d="M302 -10c-150 0 -251 109 -251 270c0 154 106 270 252 270c78 0 135 -33 178 -80l-51 -50c-34 38 -72 58 -126 58c-104 0 -173 -80 -173 -198c0 -120 72 -198 173 -198c54 0 96 23 131 61l51 -51c-45 -48 -105 -82 -184 -82z" />
    <glyph glyph-name="ccedilla" unicode="&#xe7;" horiz-adv-x="518" 
d="M486 72c-39 -42 -90 -73 -155 -80c18 -23 29 -48 29 -74c0 -69 -57 -103 -137 -103h-25v60h23c41 0 72 16 72 52c0 23 -12 43 -33 66c-126 18 -209 121 -209 267c0 154 106 270 252 270c78 0 135 -33 178 -80l-51 -50c-34 38 -72 58 -126 58c-104 0 -173 -80 -173 -198
c0 -120 72 -198 173 -198c54 0 96 23 131 61z" />
    <glyph glyph-name="d" unicode="d" horiz-adv-x="614" 
d="M281 -10c-133 0 -230 100 -230 267c0 172 121 273 259 273c54 0 109 -20 151 -51v248l80 16v-743h-49l-24 78c-44 -55 -113 -88 -187 -88zM292 63c72 0 131 38 169 96v244c-38 34 -92 56 -145 56c-106 0 -184 -67 -184 -203c0 -126 63 -193 160 -193z" />
    <glyph glyph-name="eth" unicode="&#xf0;" horiz-adv-x="602" 
d="M302 -10c-148 0 -252 107 -252 257c0 146 98 256 242 256c55 0 111 -17 153 -46c-17 51 -45 95 -79 136l-149 -44v61l103 30c-29 28 -64 54 -102 79l83 21c36 -22 68 -49 98 -78l128 37v-61l-86 -24c68 -86 112 -195 112 -329c0 -169 -97 -295 -251 -295zM301 61
c112 0 174 94 174 223c0 30 -2 59 -7 85c-41 38 -98 66 -158 66c-115 0 -181 -72 -181 -187c0 -105 69 -187 172 -187z" />
    <glyph glyph-name="e" unicode="e" horiz-adv-x="564" 
d="M302 -10c-159 0 -251 123 -251 272c0 151 97 268 240 268c141 0 225 -112 225 -268v-27h-386c7 -96 72 -174 174 -174c56 0 103 22 139 59l52 -47c-46 -48 -111 -83 -193 -83zM131 303h304c-6 97 -58 158 -147 158c-88 0 -144 -65 -157 -158z" />
    <glyph glyph-name="eacute" unicode="&#xe9;" horiz-adv-x="564" 
d="M216 599l135 137h99l-146 -137h-88zM302 -10c-159 0 -251 123 -251 272c0 151 97 268 240 268c141 0 225 -112 225 -268v-27h-386c7 -96 72 -174 174 -174c56 0 103 22 139 59l52 -47c-46 -48 -111 -83 -193 -83zM131 303h304c-6 97 -58 158 -147 158
c-88 0 -144 -65 -157 -158z" />
    <glyph glyph-name="ecircumflex" unicode="&#xea;" horiz-adv-x="564" 
d="M125 599l120 137h87l120 -137h-82l-82 85l-83 -85h-80zM302 -10c-159 0 -251 123 -251 272c0 151 97 268 240 268c141 0 225 -112 225 -268v-27h-386c7 -96 72 -174 174 -174c56 0 103 22 139 59l52 -47c-46 -48 -111 -83 -193 -83zM131 303h304c-6 97 -58 158 -147 158
c-88 0 -144 -65 -157 -158z" />
    <glyph glyph-name="edieresis" unicode="&#xeb;" horiz-adv-x="564" 
d="M199 617c-31 0 -51 22 -51 50c0 31 20 52 51 52c29 0 51 -21 51 -52c0 -28 -22 -50 -51 -50zM379 617c-30 0 -51 22 -51 50c0 31 21 52 51 52s51 -21 51 -52c0 -28 -21 -50 -51 -50zM302 -10c-159 0 -251 123 -251 272c0 151 97 268 240 268c141 0 225 -112 225 -268v-27
h-386c7 -96 72 -174 174 -174c56 0 103 22 139 59l52 -47c-46 -48 -111 -83 -193 -83zM131 303h304c-6 97 -58 158 -147 158c-88 0 -144 -65 -157 -158z" />
    <glyph glyph-name="egrave" unicode="&#xe8;" horiz-adv-x="564" 
d="M273 599l-146 137h99l135 -137h-88zM302 -10c-159 0 -251 123 -251 272c0 151 97 268 240 268c141 0 225 -112 225 -268v-27h-386c7 -96 72 -174 174 -174c56 0 103 22 139 59l52 -47c-46 -48 -111 -83 -193 -83zM131 303h304c-6 97 -58 158 -147 158
c-88 0 -144 -65 -157 -158z" />
    <glyph glyph-name="f" unicode="f" horiz-adv-x="396" 
d="M74 0v546c0 126 76 197 189 197c45 0 90 -18 125 -49l-38 -54c-23 18 -51 31 -88 31c-67 0 -108 -43 -108 -118v-33h217v-70h-217v-450h-80z" />
    <glyph glyph-name="g" unicode="g" horiz-adv-x="609" 
d="M285 -223c-101 0 -170 37 -216 87l48 52c38 -38 92 -68 166 -68c101 0 173 63 173 173v71c-44 -49 -111 -80 -178 -80c-132 0 -227 98 -227 255c0 168 120 263 256 263c60 0 121 -23 164 -61l15 51h49v-500c0 -143 -101 -243 -250 -243zM289 83c68 0 128 38 167 90v230
c-38 34 -91 56 -144 56c-103 0 -182 -60 -182 -192c0 -118 63 -184 159 -184z" />
    <glyph glyph-name="h" unicode="h" horiz-adv-x="585" 
d="M74 0v727l80 16v-293c44 49 105 80 169 80c129 0 196 -86 196 -232v-298h-80v285c0 116 -35 172 -127 172c-62 0 -119 -36 -158 -94v-363h-80z" />
    <glyph glyph-name="i" unicode="i" horiz-adv-x="232" 
d="M117 617c-30 0 -52 22 -52 51c0 31 22 52 52 52c29 0 52 -21 52 -52c0 -29 -23 -51 -52 -51zM76 0v520h80v-520h-80z" />
    <glyph glyph-name="dotlessi" unicode="&#x131;" horiz-adv-x="232" 
d="M76 0v520h80v-520h-80z" />
    <glyph glyph-name="iacute" unicode="&#xed;" horiz-adv-x="232" 
d="M74 599l99 137h92l-112 -137h-79zM76 0v520h80v-520h-80z" />
    <glyph glyph-name="icircumflex" unicode="&#xee;" horiz-adv-x="232" 
d="M-47 599l120 137h87l120 -137h-82l-82 85l-83 -85h-80zM76 0v520h80v-520h-80z" />
    <glyph glyph-name="idieresis" unicode="&#xef;" horiz-adv-x="232" 
d="M27 617c-31 0 -51 22 -51 50c0 31 20 52 51 52c29 0 51 -21 51 -52c0 -28 -22 -50 -51 -50zM207 617c-30 0 -51 22 -51 50c0 31 21 52 51 52s51 -21 51 -52c0 -28 -21 -50 -51 -50zM76 0v520h80v-520h-80z" />
    <glyph glyph-name="igrave" unicode="&#xec;" horiz-adv-x="232" 
d="M81 599l-112 137h92l99 -137h-79zM76 0v520h80v-520h-80z" />
    <glyph glyph-name="j" unicode="j" horiz-adv-x="232" 
d="M117 617c-30 0 -52 22 -52 51c0 31 22 52 52 52c29 0 52 -21 52 -52c0 -29 -23 -51 -52 -51zM-40 -208v69h21c62 0 95 40 95 111v548h80v-542c0 -120 -60 -186 -166 -186h-30z" />
    <glyph glyph-name="uni0237" unicode="&#x237;" horiz-adv-x="232" 
d="M-40 -208v69h21c62 0 95 40 95 111v548h80v-542c0 -120 -60 -186 -166 -186h-30z" />
    <glyph glyph-name="k" unicode="k" horiz-adv-x="551" 
d="M74 0v727l78 16v-441h70c50 0 80 18 124 93l75 125h87l-96 -156c-22 -36 -44 -67 -70 -90l197 -274h-95l-169 236c-12 -3 -24 -5 -38 -5h-85v-231h-78z" />
    <glyph glyph-name="l" unicode="l" horiz-adv-x="294" 
d="M233 -6c-106 0 -165 66 -165 185v548l80 16v-568c0 -72 32 -112 94 -112h23v-69h-32z" />
    <glyph glyph-name="m" unicode="m" horiz-adv-x="883" 
d="M74 0v520h50l23 -76c41 47 95 86 162 86c72 0 124 -29 152 -86c43 50 107 86 178 86c113 0 178 -72 178 -207v-323h-78v314c0 97 -41 143 -116 143c-54 0 -106 -31 -141 -80c3 -17 4 -35 4 -54v-323h-78v314c0 97 -40 143 -115 143c-59 0 -105 -41 -139 -95v-362h-80z
" />
    <glyph glyph-name="n" unicode="n" horiz-adv-x="585" 
d="M74 0v520h50l23 -77c45 53 108 87 176 87c129 0 196 -86 196 -232v-298h-80v285c0 116 -35 172 -127 172c-62 0 -119 -36 -158 -94v-363h-80z" />
    <glyph glyph-name="ntilde" unicode="&#xf1;" horiz-adv-x="585" 
d="M375 608c-33 0 -54 12 -78 26c-23 13 -41 25 -67 25c-34 0 -60 -17 -89 -40v68c28 24 54 38 89 38c32 0 55 -12 78 -25c23 -14 43 -26 68 -26c37 0 65 20 90 39v-67c-26 -22 -53 -38 -91 -38zM74 0v520h50l23 -77c45 53 108 87 176 87c129 0 196 -86 196 -232v-298h-80
v285c0 116 -35 172 -127 172c-62 0 -119 -36 -158 -94v-363h-80z" />
    <glyph glyph-name="o" unicode="o" horiz-adv-x="611" 
d="M305 -10c-147 0 -254 112 -254 270c0 156 107 270 254 270s255 -112 255 -270s-108 -270 -255 -270zM305 62c106 0 175 76 175 198c0 120 -69 198 -175 198s-173 -79 -173 -198c0 -122 67 -198 173 -198z" />
    <glyph glyph-name="oacute" unicode="&#xf3;" horiz-adv-x="611" 
d="M234 599l135 137h99l-146 -137h-88zM305 -10c-147 0 -254 112 -254 270c0 156 107 270 254 270s255 -112 255 -270s-108 -270 -255 -270zM305 62c106 0 175 76 175 198c0 120 -69 198 -175 198s-173 -79 -173 -198c0 -122 67 -198 173 -198z" />
    <glyph glyph-name="ocircumflex" unicode="&#xf4;" horiz-adv-x="611" 
d="M142 599l120 137h87l120 -137h-82l-82 85l-83 -85h-80zM305 -10c-147 0 -254 112 -254 270c0 156 107 270 254 270s255 -112 255 -270s-108 -270 -255 -270zM305 62c106 0 175 76 175 198c0 120 -69 198 -175 198s-173 -79 -173 -198c0 -122 67 -198 173 -198z" />
    <glyph glyph-name="odieresis" unicode="&#xf6;" horiz-adv-x="611" 
d="M216 617c-31 0 -51 22 -51 50c0 31 20 52 51 52c29 0 51 -21 51 -52c0 -28 -22 -50 -51 -50zM396 617c-30 0 -51 22 -51 50c0 31 21 52 51 52s51 -21 51 -52c0 -28 -21 -50 -51 -50zM305 -10c-147 0 -254 112 -254 270c0 156 107 270 254 270s255 -112 255 -270
s-108 -270 -255 -270zM305 62c106 0 175 76 175 198c0 120 -69 198 -175 198s-173 -79 -173 -198c0 -122 67 -198 173 -198z" />
    <glyph glyph-name="ograve" unicode="&#xf2;" horiz-adv-x="611" 
d="M290 599l-146 137h99l135 -137h-88zM305 -10c-147 0 -254 112 -254 270c0 156 107 270 254 270s255 -112 255 -270s-108 -270 -255 -270zM305 62c106 0 175 76 175 198c0 120 -69 198 -175 198s-173 -79 -173 -198c0 -122 67 -198 173 -198z" />
    <glyph glyph-name="oslash" unicode="&#xf8;" horiz-adv-x="611" 
d="M42 -42l81 108c-46 48 -72 115 -72 194c0 156 107 270 254 270c50 0 95 -13 133 -36l49 66h80l-79 -106c45 -47 72 -115 72 -194c0 -158 -108 -270 -255 -270c-49 0 -95 12 -132 36l-51 -68h-80zM168 129l226 305c-25 15 -55 24 -89 24c-106 0 -173 -79 -173 -198
c0 -53 13 -98 36 -131zM305 62c106 0 175 76 175 198c0 53 -13 97 -38 131l-227 -306c26 -15 56 -23 90 -23z" />
    <glyph glyph-name="otilde" unicode="&#xf5;" horiz-adv-x="611" 
d="M385 608c-33 0 -54 12 -78 26c-23 13 -41 25 -67 25c-34 0 -60 -17 -89 -40v68c28 24 54 38 89 38c32 0 55 -12 78 -25c23 -14 43 -26 68 -26c37 0 65 20 90 39v-67c-26 -22 -53 -38 -91 -38zM305 -10c-147 0 -254 112 -254 270c0 156 107 270 254 270s255 -112 255 -270
s-108 -270 -255 -270zM305 62c106 0 175 76 175 198c0 120 -69 198 -175 198s-173 -79 -173 -198c0 -122 67 -198 173 -198z" />
    <glyph glyph-name="oe" unicode="&#x153;" horiz-adv-x="999" 
d="M305 -10c-147 0 -254 112 -254 270c0 156 107 270 254 270c95 0 173 -48 217 -124c39 75 112 124 204 124c142 0 225 -112 225 -268v-27h-386c7 -96 72 -173 174 -173c56 0 102 22 139 59l52 -48c-46 -48 -111 -83 -192 -83c-102 0 -175 51 -216 125
c-43 -77 -121 -125 -217 -125zM566 302h304c-6 97 -58 160 -147 160c-88 0 -145 -64 -157 -160zM305 63c106 0 175 76 175 197c0 120 -69 198 -175 198s-174 -79 -174 -198c0 -121 68 -197 174 -197z" />
    <glyph glyph-name="p" unicode="p" horiz-adv-x="615" 
d="M74 -220v740h50l23 -77c45 53 113 87 186 87c134 0 231 -102 231 -267c0 -171 -120 -271 -259 -271c-55 0 -109 19 -151 49v-245zM298 64c106 0 186 64 186 199c0 125 -64 194 -161 194c-71 0 -130 -37 -169 -94v-244c39 -33 91 -55 144 -55z" />
    <glyph glyph-name="thorn" unicode="&#xfe;" horiz-adv-x="615" 
d="M74 -220v947l80 16v-293c44 50 109 80 179 80c134 0 231 -102 231 -267c0 -171 -120 -271 -259 -271c-55 0 -109 22 -151 55v-251zM299 64c106 0 185 64 185 199c0 125 -64 194 -161 194c-71 0 -130 -37 -169 -94v-239c39 -35 92 -60 145 -60z" />
    <glyph glyph-name="q" unicode="q" horiz-adv-x="615" 
d="M461 -220v292c-43 -50 -109 -82 -180 -82c-133 0 -230 100 -230 267c0 172 121 273 259 273c60 0 122 -23 166 -61l16 51h49v-724zM292 63c72 0 131 38 169 96v244c-38 34 -92 56 -145 56c-106 0 -184 -67 -184 -203c0 -126 63 -193 160 -193z" />
    <glyph glyph-name="r" unicode="r" horiz-adv-x="387" 
d="M74 0v520h50l24 -79c48 54 117 87 192 87h15v-74h-25c-68 0 -133 -33 -176 -93v-361h-80z" />
    <glyph glyph-name="s" unicode="s" horiz-adv-x="489" 
d="M252 -10c-98 0 -167 37 -216 89l49 52c44 -44 102 -69 169 -69c74 0 114 26 114 74c0 58 -49 80 -128 95c-134 27 -181 65 -181 156c0 79 72 143 187 143c81 0 143 -33 188 -81l-49 -50c-39 39 -87 60 -139 60c-72 0 -111 -27 -111 -73c0 -54 42 -68 133 -86
c126 -26 179 -73 179 -159c0 -87 -66 -151 -195 -151z" />
    <glyph glyph-name="scaron" unicode="&#x161;" horiz-adv-x="489" 
d="M207 599l-120 137h83l81 -84l82 84h81l-120 -137h-87zM252 -10c-98 0 -167 37 -216 89l49 52c44 -44 102 -69 169 -69c74 0 114 26 114 74c0 58 -49 80 -128 95c-134 27 -181 65 -181 156c0 79 72 143 187 143c81 0 143 -33 188 -81l-49 -50c-39 39 -87 60 -139 60
c-72 0 -111 -27 -111 -73c0 -54 42 -68 133 -86c126 -26 179 -73 179 -159c0 -87 -66 -151 -195 -151z" />
    <glyph glyph-name="germandbls" unicode="&#xdf;" horiz-adv-x="637" 
d="M415 -10c-81 0 -142 22 -190 63l40 55c42 -32 83 -46 136 -46c75 0 118 30 118 84c0 63 -52 84 -105 107c-62 26 -125 41 -125 119c0 48 33 82 66 114c30 31 60 61 60 100c0 56 -44 86 -110 86c-93 0 -152 -68 -152 -176v-496h-79v491c0 155 96 252 235 252
c118 0 182 -66 182 -149c0 -55 -39 -94 -74 -129c-29 -28 -53 -52 -53 -79c0 -49 55 -61 111 -87s123 -65 123 -155c0 -92 -73 -154 -183 -154z" />
    <glyph glyph-name="t" unicode="t" horiz-adv-x="396" 
d="M251 -10c-113 0 -177 74 -177 195v463l80 15v-143h204v-70h-204v-268c0 -72 34 -119 96 -119c43 0 65 12 87 30l41 -53c-36 -31 -76 -50 -127 -50z" />
    <glyph glyph-name="u" unicode="u" horiz-adv-x="583" 
d="M262 -10c-129 0 -193 85 -193 232v298h79v-286c0 -115 32 -171 129 -171c59 0 113 36 152 94v363h80v-520h-49l-25 77c-44 -54 -105 -87 -173 -87z" />
    <glyph glyph-name="uacute" unicode="&#xfa;" horiz-adv-x="583" 
d="M219 599l135 137h99l-146 -137h-88zM262 -10c-129 0 -193 85 -193 232v298h79v-286c0 -115 32 -171 129 -171c59 0 113 36 152 94v363h80v-520h-49l-25 77c-44 -54 -105 -87 -173 -87z" />
    <glyph glyph-name="ucircumflex" unicode="&#xfb;" horiz-adv-x="583" 
d="M127 599l120 137h87l120 -137h-82l-82 85l-83 -85h-80zM262 -10c-129 0 -193 85 -193 232v298h79v-286c0 -115 32 -171 129 -171c59 0 113 36 152 94v363h80v-520h-49l-25 77c-44 -54 -105 -87 -173 -87z" />
    <glyph glyph-name="udieresis" unicode="&#xfc;" horiz-adv-x="583" 
d="M201 617c-31 0 -51 22 -51 50c0 31 20 52 51 52c29 0 51 -21 51 -52c0 -28 -22 -50 -51 -50zM381 617c-30 0 -51 22 -51 50c0 31 21 52 51 52s51 -21 51 -52c0 -28 -21 -50 -51 -50zM262 -10c-129 0 -193 85 -193 232v298h79v-286c0 -115 32 -171 129 -171
c59 0 113 36 152 94v363h80v-520h-49l-25 77c-44 -54 -105 -87 -173 -87z" />
    <glyph glyph-name="ugrave" unicode="&#xf9;" horiz-adv-x="583" 
d="M276 599l-146 137h99l135 -137h-88zM262 -10c-129 0 -193 85 -193 232v298h79v-286c0 -115 32 -171 129 -171c59 0 113 36 152 94v363h80v-520h-49l-25 77c-44 -54 -105 -87 -173 -87z" />
    <glyph glyph-name="v" unicode="v" horiz-adv-x="541" 
d="M234 0l-216 520h88l166 -417l166 417h86l-218 -520h-72z" />
    <glyph glyph-name="w" unicode="w" horiz-adv-x="791" 
d="M187 0l-158 520h85l111 -411l137 377h73l136 -377l115 411h79l-158 -520h-75l-138 381l-133 -381h-74z" />
    <glyph glyph-name="wacute" unicode="&#x1e83;" horiz-adv-x="791" 
d="M323 599l135 137h99l-146 -137h-88zM187 0l-158 520h85l111 -411l137 377h73l136 -377l115 411h79l-158 -520h-75l-138 381l-133 -381h-74z" />
    <glyph glyph-name="wcircumflex" unicode="&#x175;" horiz-adv-x="791" 
d="M231 599l120 137h87l120 -137h-82l-82 85l-83 -85h-80zM187 0l-158 520h85l111 -411l137 377h73l136 -377l115 411h79l-158 -520h-75l-138 381l-133 -381h-74z" />
    <glyph glyph-name="wdieresis" unicode="&#x1e85;" horiz-adv-x="791" 
d="M305 617c-31 0 -51 22 -51 50c0 31 20 52 51 52c29 0 51 -21 51 -52c0 -28 -22 -50 -51 -50zM485 617c-30 0 -51 22 -51 50c0 31 21 52 51 52s51 -21 51 -52c0 -28 -21 -50 -51 -50zM187 0l-158 520h85l111 -411l137 377h73l136 -377l115 411h79l-158 -520h-75l-138 381
l-133 -381h-74z" />
    <glyph glyph-name="wgrave" unicode="&#x1e81;" horiz-adv-x="791" 
d="M380 599l-146 137h99l135 -137h-88zM187 0l-158 520h85l111 -411l137 377h73l136 -377l115 411h79l-158 -520h-75l-138 381l-133 -381h-74z" />
    <glyph glyph-name="x" unicode="x" horiz-adv-x="536" 
d="M22 0l199 270l-182 250h93l138 -193l137 193h90l-183 -250l201 -270h-95l-154 213l-154 -213h-90z" />
    <glyph glyph-name="y" unicode="y" horiz-adv-x="535" 
d="M67 -208v71h24c62 0 101 32 128 100l21 56l-224 501h87l175 -404l155 404h84l-230 -577c-41 -103 -106 -151 -188 -151h-32z" />
    <glyph glyph-name="yacute" unicode="&#xfd;" horiz-adv-x="535" 
d="M195 599l135 137h99l-146 -137h-88zM67 -208v71h24c62 0 101 32 128 100l21 56l-224 501h87l175 -404l155 404h84l-230 -577c-41 -103 -106 -151 -188 -151h-32z" />
    <glyph glyph-name="ycircumflex" unicode="&#x177;" horiz-adv-x="535" 
d="M104 599l120 137h87l120 -137h-82l-82 85l-83 -85h-80zM67 -208v71h24c62 0 101 32 128 100l21 56l-224 501h87l175 -404l155 404h84l-230 -577c-41 -103 -106 -151 -188 -151h-32z" />
    <glyph glyph-name="ydieresis" unicode="&#xff;" horiz-adv-x="535" 
d="M178 617c-31 0 -51 22 -51 50c0 31 20 52 51 52c29 0 51 -21 51 -52c0 -28 -22 -50 -51 -50zM358 617c-30 0 -51 22 -51 50c0 31 21 52 51 52s51 -21 51 -52c0 -28 -21 -50 -51 -50zM67 -208v71h24c62 0 101 32 128 100l21 56l-224 501h87l175 -404l155 404h84l-230 -577
c-41 -103 -106 -151 -188 -151h-32z" />
    <glyph glyph-name="ygrave" unicode="&#x1ef3;" horiz-adv-x="535" 
d="M252 599l-146 137h99l135 -137h-88zM67 -208v71h24c62 0 101 32 128 100l21 56l-224 501h87l175 -404l155 404h84l-230 -577c-41 -103 -106 -151 -188 -151h-32z" />
    <glyph glyph-name="z" unicode="z" horiz-adv-x="533" 
d="M58 0v58l315 392h-311v70h410v-57l-315 -393h322v-70h-421z" />
    <glyph glyph-name="zcaron" unicode="&#x17e;" horiz-adv-x="533" 
d="M213 599l-120 137h83l81 -84l82 84h81l-120 -137h-87zM58 0v58l315 392h-311v70h410v-57l-315 -393h322v-70h-421z" />
    <glyph glyph-name="ordfeminine" unicode="&#xaa;" horiz-adv-x="422" 
d="M172 272c-85 0 -135 44 -135 114c0 74 64 119 165 119h97v11c0 56 -18 103 -95 103c-36 0 -79 -14 -111 -45l-41 44c38 40 94 64 154 64c107 0 164 -59 164 -173v-229h-48l-18 54c-37 -36 -87 -62 -132 -62zM179 334c42 0 88 24 120 58v57h-99c-59 0 -93 -23 -93 -60
c0 -32 30 -55 72 -55z" />
    <glyph glyph-name="ordmasculine" unicode="&#xba;" horiz-adv-x="474" 
d="M236 272c-113 0 -197 86 -197 206c0 119 85 204 197 204c115 0 199 -84 199 -204c0 -119 -84 -206 -199 -206zM236 340c75 0 124 55 124 138s-48 137 -123 137c-74 0 -122 -54 -122 -137s47 -138 121 -138z" />
    <glyph glyph-name="uni03BC" unicode="&#x3bc;" 
d="M73 -220v740h79v-286c0 -115 33 -171 129 -171c59 0 113 36 152 94v363h80v-520h-49l-24 77c-45 -53 -106 -87 -173 -87c-47 0 -87 14 -115 44v-238z" />
    <glyph glyph-name="zero" unicode="0" horiz-adv-x="628" 
d="M315 -10c-160 0 -262 140 -262 340c0 191 105 336 262 336c158 0 261 -140 261 -336c0 -199 -105 -340 -261 -340zM315 67c112 0 179 107 179 263c0 152 -64 259 -178 259c-115 0 -182 -110 -182 -259c0 -155 66 -263 181 -263z" />
    <glyph glyph-name="one" unicode="1" horiz-adv-x="376" 
d="M194 0v574l-154 -43v68l178 58h57v-657h-81z" />
    <glyph glyph-name="two" unicode="2" horiz-adv-x="569" 
d="M62 0v56l254 248c63 63 101 112 101 165c0 77 -48 121 -142 121c-65 0 -124 -32 -172 -81l-50 54c63 64 139 103 229 103c132 0 218 -73 218 -185c0 -76 -43 -140 -110 -206l-206 -201h322v-74h-444z" />
    <glyph glyph-name="three" unicode="3" horiz-adv-x="560" 
d="M267 -10c-97 0 -178 39 -229 91l51 52c42 -41 105 -67 177 -67c93 0 154 52 154 126c0 77 -59 124 -157 124h-82v48l195 219h-318v74h419v-54l-192 -218c130 -6 220 -80 220 -195c0 -118 -96 -200 -238 -200z" />
    <glyph glyph-name="four" unicode="4" horiz-adv-x="599" 
d="M380 0v172h-338v60l338 425h77v-413h101v-72h-101v-172h-77zM136 244h244v307z" />
    <glyph glyph-name="five" unicode="5" horiz-adv-x="551" 
d="M266 -10c-98 0 -175 39 -223 91l51 52c40 -41 98 -67 170 -67c92 0 150 53 150 131c0 83 -51 127 -152 127h-174v47l57 286h309v-74h-253l-36 -186h93c153 0 239 -69 239 -201c0 -122 -91 -206 -231 -206z" />
    <glyph glyph-name="six" unicode="6" horiz-adv-x="583" 
d="M310 -10c-153 0 -250 110 -250 303c0 220 96 373 271 373c77 0 138 -29 193 -91l-53 -49c-46 47 -88 66 -140 66c-106 0 -179 -90 -190 -229c51 29 117 44 178 44c135 0 213 -88 213 -207c0 -118 -91 -210 -222 -210zM307 64c91 0 146 55 146 136c0 79 -49 134 -146 134
c-60 0 -123 -17 -168 -44c0 -149 64 -226 168 -226z" />
    <glyph glyph-name="seven" unicode="7" horiz-adv-x="550" 
d="M147 0l266 583h-364v74h459v-46l-275 -611h-86z" />
    <glyph glyph-name="eight" unicode="8" horiz-adv-x="592" 
d="M296 -10c-142 0 -240 78 -240 184c0 72 46 133 119 177c-60 33 -97 80 -97 148c0 97 95 167 220 167c133 0 223 -71 223 -175c0 -57 -32 -117 -99 -157c69 -36 114 -88 114 -161c0 -110 -100 -183 -240 -183zM349 363c65 30 94 79 94 125c0 66 -58 109 -145 109
c-82 0 -142 -41 -142 -96c0 -64 53 -100 161 -129c11 -2 22 -5 32 -9zM298 62c87 0 158 42 158 110c0 64 -61 107 -162 133l-48 15c-72 -34 -109 -83 -109 -142c0 -67 69 -116 161 -116z" />
    <glyph glyph-name="nine" unicode="9" horiz-adv-x="584" 
d="M259 -10c-78 0 -140 28 -197 89l53 50c47 -46 89 -65 144 -65c112 0 177 88 185 238c-52 -29 -120 -43 -179 -43c-134 0 -214 80 -214 198c0 116 95 209 224 209c154 0 249 -113 249 -303c0 -227 -88 -373 -265 -373zM276 331c61 0 124 17 169 45
c-3 142 -65 216 -167 216c-91 0 -147 -55 -147 -136c0 -78 51 -125 145 -125z" />
    <glyph glyph-name="zero.zero" horiz-adv-x="629" 
d="M315 -10c-160 0 -262 140 -262 340c0 191 105 336 262 336c158 0 261 -140 261 -336c0 -199 -105 -340 -261 -340zM155 189l283 346c-30 36 -71 56 -122 56c-116 0 -184 -111 -184 -261c0 -54 8 -101 23 -141zM315 66c113 0 181 107 181 264c0 53 -8 100 -22 140
l-284 -346c30 -37 73 -58 125 -58z" />
    <glyph glyph-name="zero.tf" 
d="M293 -10c-155 0 -252 140 -252 340c0 191 99 336 252 336s252 -140 252 -336c0 -198 -100 -340 -252 -340zM293 67c109 0 169 109 169 263c0 150 -57 260 -168 260c-110 0 -170 -111 -170 -260c0 -155 59 -263 169 -263z" />
    <glyph glyph-name="one.tf" 
d="M305 0v574l-174 -47v64l196 66h58v-657h-80z" />
    <glyph glyph-name="two.tf" 
d="M70 0v56l253 248c64 63 101 112 101 165c0 77 -47 121 -141 121c-65 0 -125 -32 -173 -81l-49 54c62 64 138 103 229 103c131 0 218 -73 218 -185c0 -76 -43 -140 -111 -206l-206 -201h322v-74h-443z" />
    <glyph glyph-name="three.tf" 
d="M281 -10c-98 0 -179 39 -229 91l51 52c41 -41 104 -67 176 -67c93 0 155 52 155 126c0 77 -59 124 -158 124h-82v48l196 219h-318v74h418v-54l-192 -218c130 -6 220 -80 220 -195c0 -118 -96 -200 -237 -200z" />
    <glyph glyph-name="four.tf" 
d="M380 0v172h-341v57l341 428h77v-415h101v-70h-101v-172h-77zM128 242h252v314z" />
    <glyph glyph-name="five.tf" 
d="M288 -10c-98 0 -175 39 -223 91l51 52c40 -41 98 -67 170 -67c92 0 150 53 150 131c0 83 -51 127 -152 127h-175v47l57 286h309v-74h-253l-35 -186h93c153 0 239 -69 239 -201c0 -122 -91 -206 -231 -206z" />
    <glyph glyph-name="six.tf" 
d="M314 -10c-154 0 -251 110 -251 303c0 220 96 373 271 373c77 0 138 -29 193 -91l-53 -49c-46 47 -88 66 -140 66c-106 0 -179 -90 -190 -229c51 29 117 44 178 44c135 0 214 -88 214 -207c0 -118 -92 -210 -222 -210zM310 64c91 0 146 55 146 136c0 79 -49 134 -146 134
c-59 0 -123 -17 -168 -44c0 -149 64 -226 168 -226z" />
    <glyph glyph-name="seven.tf" 
d="M159 0l266 583h-365v74h459v-46l-274 -611h-86z" />
    <glyph glyph-name="eight.tf" 
d="M293 -10c-143 0 -240 78 -240 184c0 72 45 133 119 177c-60 33 -97 80 -97 148c0 97 95 167 220 167c133 0 223 -71 223 -175c0 -57 -33 -117 -100 -157c70 -36 115 -88 115 -161c0 -110 -101 -183 -240 -183zM346 363c65 30 94 79 94 125c0 66 -59 109 -145 109
c-82 0 -142 -41 -142 -96c0 -64 52 -100 161 -129c11 -2 22 -5 32 -9zM295 62c87 0 157 42 157 110c0 64 -60 107 -161 133l-48 15c-72 -34 -109 -83 -109 -142c0 -67 69 -116 161 -116z" />
    <glyph glyph-name="nine.tf" 
d="M258 -10c-78 0 -140 28 -196 89l52 50c48 -46 89 -65 144 -65c112 0 177 88 185 238c-52 -29 -120 -43 -179 -43c-134 0 -214 80 -214 198c0 116 95 209 224 209c155 0 249 -113 249 -303c0 -227 -87 -373 -265 -373zM275 331c61 0 125 17 170 45
c-4 142 -66 216 -168 216c-91 0 -147 -55 -147 -136c0 -78 51 -125 145 -125z" />
    <glyph glyph-name="zero.tf.zero" 
d="M293 -10c-155 0 -252 140 -252 340c0 191 100 336 252 336c153 0 252 -140 252 -336c0 -198 -99 -340 -252 -340zM140 198l273 331c-29 39 -68 62 -119 62c-111 0 -172 -111 -172 -261c0 -50 6 -94 18 -132zM293 66c110 0 171 109 171 264c0 49 -6 93 -18 130l-273 -330
c28 -41 69 -64 120 -64z" />
    <glyph glyph-name="zero.subs" horiz-adv-x="449" 
d="M225 -83c-105 0 -172 80 -172 197c0 116 69 197 172 197c102 0 171 -79 171 -197c0 -116 -69 -197 -171 -197zM225 -17c64 0 98 54 98 131s-32 131 -97 131c-66 0 -101 -54 -101 -131c0 -75 33 -131 100 -131z" />
    <glyph glyph-name="one.subs" horiz-adv-x="338" 
d="M162 -76v314l-95 -24v57l112 35h53v-382h-70z" />
    <glyph glyph-name="two.subs" horiz-adv-x="423" 
d="M67 -76v47l152 133c38 34 61 56 61 83c0 37 -27 58 -78 58c-34 0 -73 -16 -104 -43l-39 49c37 35 91 61 151 61c88 0 142 -46 142 -115c0 -44 -25 -79 -68 -115l-111 -95h181v-63h-287z" />
    <glyph glyph-name="three.subs" horiz-adv-x="422" 
d="M204 -83c-65 0 -115 27 -146 57l41 45c26 -23 62 -41 101 -41c52 0 88 24 88 61c0 35 -33 57 -86 57h-57v44l110 103h-184v62h271v-47l-117 -109c82 -5 135 -46 135 -111c0 -75 -61 -121 -156 -121z" />
    <glyph glyph-name="four.subs" horiz-adv-x="439" 
d="M263 -76v92h-212v46l212 244h65v-231h58v-59h-58v-92h-65zM131 75h132v151z" />
    <glyph glyph-name="five.subs" horiz-adv-x="414" 
d="M197 -83c-61 0 -109 24 -142 57l43 43c25 -23 56 -39 97 -39c49 0 82 24 82 63c0 37 -30 58 -81 58h-113v43l31 163h209v-63h-163l-14 -85h55c93 0 149 -43 149 -116c0 -76 -59 -124 -153 -124z" />
    <glyph glyph-name="six.subs" horiz-adv-x="432" 
d="M224 -83c-101 0 -160 66 -160 181c0 128 67 213 178 213c58 0 101 -23 129 -55l-40 -43c-24 25 -51 37 -86 37c-61 0 -101 -41 -111 -107c30 12 67 21 104 21c85 0 137 -49 137 -118c0 -74 -61 -129 -151 -129zM223 -22c54 0 85 25 85 66c0 35 -28 60 -81 60
c-34 0 -68 -5 -95 -18c2 -71 35 -108 91 -108z" />
    <glyph glyph-name="seven.subs" horiz-adv-x="416" 
d="M124 -76l154 318h-213v64h294v-35l-161 -347h-74z" />
    <glyph glyph-name="eight.subs" horiz-adv-x="455" 
d="M228 -83c-93 0 -158 42 -158 107c0 39 27 74 69 99c-34 19 -55 46 -55 86c0 60 62 102 144 102c87 0 145 -41 145 -103c0 -33 -21 -64 -55 -87c41 -21 67 -52 67 -95c0 -66 -66 -109 -157 -109zM261 142c34 15 49 39 49 60c0 33 -33 53 -82 53c-46 0 -79 -19 -79 -47
c0 -32 35 -50 98 -63zM227 -25c50 0 91 19 91 54c0 39 -42 52 -105 67l-19 5c-38 -17 -58 -42 -58 -68c0 -35 40 -58 91 -58z" />
    <glyph glyph-name="nine.subs" horiz-adv-x="431" 
d="M192 -83c-57 0 -103 22 -132 55l39 43c26 -25 52 -36 91 -36c64 0 101 40 109 110c-32 -14 -69 -22 -105 -22c-84 0 -136 48 -136 118c0 72 62 126 149 126c101 0 161 -68 161 -182c0 -133 -63 -212 -176 -212zM204 126c36 0 70 7 96 17c-2 69 -35 107 -92 107
c-50 0 -83 -25 -83 -65c0 -37 28 -59 79 -59z" />
    <glyph glyph-name="zero.dnom" horiz-adv-x="449" 
d="M225 -7c-105 0 -172 80 -172 197c0 116 69 197 172 197c102 0 171 -79 171 -197c0 -116 -69 -197 -171 -197zM225 59c64 0 98 54 98 131s-32 131 -97 131c-66 0 -101 -54 -101 -131c0 -75 33 -131 100 -131z" />
    <glyph glyph-name="one.dnom" horiz-adv-x="338" 
d="M162 0v314l-95 -24v57l112 35h53v-382h-70z" />
    <glyph glyph-name="two.dnom" horiz-adv-x="423" 
d="M67 0v48l152 132c38 34 61 56 61 83c0 37 -27 58 -78 58c-34 0 -73 -16 -104 -43l-39 49c37 35 91 61 151 61c88 0 142 -46 142 -115c0 -44 -25 -79 -68 -115l-111 -95h181v-63h-287z" />
    <glyph glyph-name="three.dnom" horiz-adv-x="422" 
d="M204 -7c-65 0 -115 27 -146 57l41 45c26 -22 62 -41 101 -41c52 0 88 24 88 61c0 35 -33 57 -86 57h-57v44l110 103h-184v62h271v-47l-117 -109c82 -5 135 -46 135 -111c0 -75 -61 -121 -156 -121z" />
    <glyph glyph-name="four.dnom" horiz-adv-x="439" 
d="M263 0v92h-212v46l212 244h65v-231h58v-59h-58v-92h-65zM131 151h132v151z" />
    <glyph glyph-name="five.dnom" horiz-adv-x="414" 
d="M197 -7c-61 0 -109 24 -142 57l43 43c25 -23 56 -39 97 -39c49 0 82 24 82 63c0 37 -30 58 -81 58h-113v43l31 163h209v-63h-163l-14 -85h55c93 0 149 -43 149 -116c0 -76 -59 -124 -153 -124z" />
    <glyph glyph-name="six.dnom" horiz-adv-x="432" 
d="M224 -7c-101 0 -160 66 -160 181c0 128 67 213 178 213c58 0 101 -23 129 -55l-40 -43c-24 25 -51 37 -86 37c-61 0 -101 -41 -111 -107c30 12 67 21 104 21c85 0 137 -49 137 -118c0 -74 -61 -129 -151 -129zM223 54c54 0 85 25 85 66c0 35 -28 60 -81 60
c-34 0 -68 -5 -95 -18c2 -71 35 -108 91 -108z" />
    <glyph glyph-name="seven.dnom" horiz-adv-x="416" 
d="M124 0l154 318h-213v64h294v-35l-161 -347h-74z" />
    <glyph glyph-name="eight.dnom" horiz-adv-x="455" 
d="M228 -7c-93 0 -158 42 -158 107c0 39 27 74 69 99c-34 19 -55 46 -55 86c0 60 62 102 144 102c87 0 145 -41 145 -103c0 -33 -21 -64 -55 -87c41 -21 67 -52 67 -95c0 -66 -66 -109 -157 -109zM261 218c34 15 49 39 49 60c0 33 -33 53 -82 53c-46 0 -79 -19 -79 -47
c0 -32 35 -50 98 -63zM227 51c50 0 91 19 91 54c0 39 -42 52 -105 67l-19 5c-38 -17 -58 -42 -58 -68c0 -35 40 -58 91 -58z" />
    <glyph glyph-name="nine.dnom" horiz-adv-x="431" 
d="M192 -7c-57 0 -103 22 -132 55l39 43c26 -25 52 -36 91 -36c64 0 101 40 109 110c-32 -14 -69 -22 -105 -22c-84 0 -136 48 -136 118c0 72 62 126 149 126c101 0 161 -68 161 -182c0 -133 -63 -212 -176 -212zM204 202c36 0 70 7 96 17c-2 69 -35 107 -92 107
c-50 0 -83 -25 -83 -65c0 -37 28 -59 79 -59z" />
    <glyph glyph-name="zero.numr" horiz-adv-x="449" 
d="M225 267c-105 0 -172 80 -172 197c0 116 69 197 172 197c102 0 171 -79 171 -197c0 -116 -69 -197 -171 -197zM225 333c64 0 98 54 98 131s-32 131 -97 131c-66 0 -101 -54 -101 -131c0 -75 33 -131 100 -131z" />
    <glyph glyph-name="one.numr" horiz-adv-x="338" 
d="M162 274v314l-95 -24v57l112 35h53v-382h-70z" />
    <glyph glyph-name="two.numr" horiz-adv-x="423" 
d="M67 274v48l152 132c38 34 61 56 61 83c0 37 -27 58 -78 58c-34 0 -73 -16 -104 -43l-39 49c37 35 91 61 151 61c88 0 142 -46 142 -115c0 -44 -25 -79 -68 -115l-111 -95h181v-63h-287z" />
    <glyph glyph-name="three.numr" horiz-adv-x="422" 
d="M204 267c-65 0 -115 27 -146 57l41 45c26 -22 62 -41 101 -41c52 0 88 24 88 61c0 35 -33 57 -86 57h-57v44l110 103h-184v62h271v-47l-117 -109c82 -5 135 -46 135 -111c0 -75 -61 -121 -156 -121z" />
    <glyph glyph-name="four.numr" horiz-adv-x="439" 
d="M263 274v92h-212v46l212 244h65v-231h58v-59h-58v-92h-65zM131 425h132v151z" />
    <glyph glyph-name="five.numr" horiz-adv-x="414" 
d="M197 267c-61 0 -109 24 -142 57l43 43c25 -23 56 -39 97 -39c49 0 82 24 82 63c0 37 -30 58 -81 58h-113v43l31 163h209v-63h-163l-14 -85h55c93 0 149 -43 149 -116c0 -76 -59 -124 -153 -124z" />
    <glyph glyph-name="six.numr" horiz-adv-x="432" 
d="M224 267c-101 0 -160 66 -160 181c0 128 67 213 178 213c58 0 101 -23 129 -55l-40 -43c-24 25 -51 37 -86 37c-61 0 -101 -41 -111 -107c30 12 67 21 104 21c85 0 137 -49 137 -118c0 -74 -61 -129 -151 -129zM223 328c54 0 85 25 85 66c0 35 -28 60 -81 60
c-34 0 -68 -5 -95 -18c2 -71 35 -108 91 -108z" />
    <glyph glyph-name="seven.numr" horiz-adv-x="416" 
d="M124 274l154 318h-213v64h294v-35l-161 -347h-74z" />
    <glyph glyph-name="eight.numr" horiz-adv-x="455" 
d="M228 267c-93 0 -158 42 -158 107c0 39 27 74 69 99c-34 19 -55 46 -55 86c0 60 62 102 144 102c87 0 145 -41 145 -103c0 -33 -21 -64 -55 -87c41 -21 67 -52 67 -95c0 -66 -66 -109 -157 -109zM261 492c34 15 49 39 49 60c0 33 -33 53 -82 53c-46 0 -79 -19 -79 -47
c0 -32 35 -50 98 -63zM227 325c50 0 91 19 91 54c0 39 -42 52 -105 67l-19 5c-38 -17 -58 -42 -58 -68c0 -35 40 -58 91 -58z" />
    <glyph glyph-name="nine.numr" horiz-adv-x="431" 
d="M192 267c-57 0 -103 22 -132 55l39 43c26 -25 52 -36 91 -36c64 0 101 40 109 110c-32 -14 -69 -22 -105 -22c-84 0 -136 48 -136 118c0 72 62 126 149 126c101 0 161 -68 161 -182c0 -133 -63 -212 -176 -212zM204 476c36 0 70 7 96 17c-2 69 -35 107 -92 107
c-50 0 -83 -25 -83 -65c0 -37 28 -59 79 -59z" />
    <glyph glyph-name="uni2070" unicode="&#x2070;" horiz-adv-x="449" 
d="M225 335c-105 0 -172 80 -172 197c0 116 69 197 172 197c102 0 171 -79 171 -197c0 -116 -69 -197 -171 -197zM225 401c64 0 98 54 98 131s-32 131 -97 131c-66 0 -101 -54 -101 -131c0 -75 33 -131 100 -131z" />
    <glyph glyph-name="uni00B9" unicode="&#xb9;" horiz-adv-x="338" 
d="M162 342v314l-95 -24v57l112 35h53v-382h-70z" />
    <glyph glyph-name="uni00B2" unicode="&#xb2;" horiz-adv-x="423" 
d="M67 342v48l152 132c38 34 61 56 61 83c0 37 -27 58 -78 58c-34 0 -73 -16 -104 -43l-39 49c37 35 91 61 151 61c88 0 142 -46 142 -115c0 -44 -25 -79 -68 -115l-111 -95h181v-63h-287z" />
    <glyph glyph-name="uni00B3" unicode="&#xb3;" horiz-adv-x="422" 
d="M204 335c-65 0 -115 27 -146 57l41 45c26 -22 62 -41 101 -41c52 0 88 24 88 61c0 35 -33 57 -86 57h-57v44l110 103h-184v62h271v-47l-117 -109c82 -5 135 -46 135 -111c0 -75 -61 -121 -156 -121z" />
    <glyph glyph-name="uni2074" unicode="&#x2074;" horiz-adv-x="439" 
d="M263 342v92h-212v46l212 244h65v-231h58v-59h-58v-92h-65zM131 493h132v151z" />
    <glyph glyph-name="uni2075" unicode="&#x2075;" horiz-adv-x="414" 
d="M197 335c-61 0 -109 24 -142 57l43 43c25 -23 56 -39 97 -39c49 0 82 24 82 63c0 37 -30 58 -81 58h-113v43l31 163h209v-63h-163l-14 -85h55c93 0 149 -43 149 -116c0 -76 -59 -124 -153 -124z" />
    <glyph glyph-name="uni2076" unicode="&#x2076;" horiz-adv-x="432" 
d="M224 335c-101 0 -160 66 -160 181c0 128 67 213 178 213c58 0 101 -23 129 -55l-40 -43c-24 25 -51 37 -86 37c-61 0 -101 -41 -111 -107c30 12 67 21 104 21c85 0 137 -49 137 -118c0 -74 -61 -129 -151 -129zM223 396c54 0 85 25 85 66c0 35 -28 60 -81 60
c-34 0 -68 -5 -95 -18c2 -71 35 -108 91 -108z" />
    <glyph glyph-name="uni2077" unicode="&#x2077;" horiz-adv-x="416" 
d="M124 342l154 318h-213v64h294v-35l-161 -347h-74z" />
    <glyph glyph-name="uni2078" unicode="&#x2078;" horiz-adv-x="455" 
d="M228 335c-93 0 -158 42 -158 107c0 39 27 74 69 99c-34 19 -55 46 -55 86c0 60 62 102 144 102c87 0 145 -41 145 -103c0 -33 -21 -64 -55 -87c41 -21 67 -52 67 -95c0 -66 -66 -109 -157 -109zM261 560c34 15 49 39 49 60c0 33 -33 53 -82 53c-46 0 -79 -19 -79 -47
c0 -32 35 -50 98 -63zM227 393c50 0 91 19 91 54c0 39 -42 52 -105 67l-19 5c-38 -17 -58 -42 -58 -68c0 -35 40 -58 91 -58z" />
    <glyph glyph-name="uni2079" unicode="&#x2079;" horiz-adv-x="431" 
d="M192 335c-57 0 -103 22 -132 55l39 43c26 -25 52 -36 91 -36c64 0 101 40 109 110c-32 -14 -69 -22 -105 -22c-84 0 -136 48 -136 118c0 72 62 126 149 126c101 0 161 -68 161 -182c0 -133 -63 -212 -176 -212zM204 544c36 0 70 7 96 17c-2 69 -35 107 -92 107
c-50 0 -83 -25 -83 -65c0 -37 28 -59 79 -59z" />
    <glyph glyph-name="fraction" unicode="&#x2044;" horiz-adv-x="142" 
d="M-225 0l502 657h90l-502 -657h-90z" />
    <glyph glyph-name="onehalf" unicode="&#xbd;" horiz-adv-x="896" 
d="M106 0l502 657h90l-503 -657h-89zM162 274v314l-95 -24v57l112 35h53v-382h-70zM540 0v48l152 132c38 34 60 56 60 83c0 37 -27 58 -77 58c-35 0 -73 -16 -104 -43l-40 49c38 35 92 61 151 61c88 0 143 -46 143 -115c0 -44 -26 -79 -68 -115l-111 -95h181v-63h-287z" />
    <glyph glyph-name="onequarter" unicode="&#xbc;" horiz-adv-x="830" 
d="M110 0l502 657h90l-502 -657h-90zM162 274v314l-95 -24v57l112 35h53v-382h-70zM653 0v92h-211v46l211 244h66v-231h58v-59h-58v-92h-66zM522 151h131v151z" />
    <glyph glyph-name="threequarters" unicode="&#xbe;" horiz-adv-x="912" 
d="M193 0l502 657h89l-502 -657h-89zM204 267c-65 0 -115 27 -146 57l41 45c26 -22 62 -41 101 -41c52 0 88 24 88 61c0 35 -33 57 -86 57h-57v44l110 103h-184v62h271v-47l-117 -109c82 -5 135 -46 135 -111c0 -75 -61 -121 -156 -121zM736 0v92h-211v46l211 244h65v-231
h59v-59h-59v-92h-65zM605 151h131v151z" />
    <glyph glyph-name="period" unicode="." horiz-adv-x="253" 
d="M126 -9c-33 0 -56 25 -56 58c0 35 23 58 56 58c35 0 58 -23 58 -58c0 -33 -23 -58 -58 -58z" />
    <glyph glyph-name="comma" unicode="," horiz-adv-x="253" 
d="M23 -118c37 63 65 148 74 219h82c-9 -80 -43 -161 -82 -219h-74z" />
    <glyph glyph-name="colon" unicode=":" horiz-adv-x="253" 
d="M126 410c-33 0 -56 25 -56 58c0 34 23 58 56 58c35 0 58 -24 58 -58c0 -33 -23 -58 -58 -58zM126 -9c-33 0 -56 25 -56 58c0 35 23 58 56 58c35 0 58 -23 58 -58c0 -33 -23 -58 -58 -58z" />
    <glyph glyph-name="semicolon" unicode=";" horiz-adv-x="253" 
d="M127 410c-33 0 -57 25 -57 58c0 34 24 58 57 58c35 0 58 -24 58 -58c0 -33 -23 -58 -58 -58zM23 -118c37 63 64 148 73 219h83c-10 -80 -44 -161 -82 -219h-74z" />
    <glyph glyph-name="ellipsis" unicode="&#x2026;" horiz-adv-x="708" 
d="M126 -9c-33 0 -56 25 -56 58c0 35 23 58 56 58c35 0 58 -23 58 -58c0 -33 -23 -58 -58 -58zM353 -9c-33 0 -56 25 -56 58c0 35 23 58 56 58c35 0 58 -23 58 -58c0 -33 -23 -58 -58 -58zM581 -9c-33 0 -56 25 -56 58c0 35 23 58 56 58c35 0 58 -23 58 -58
c0 -33 -23 -58 -58 -58z" />
    <glyph glyph-name="exclam" unicode="!" horiz-adv-x="262" 
d="M93 197l-6 479h87l-7 -479h-74zM130 -9c-33 0 -56 25 -56 58c0 35 23 58 56 58c35 0 58 -23 58 -58c0 -33 -23 -58 -58 -58z" />
    <glyph glyph-name="exclamdown" unicode="&#xa1;" horiz-adv-x="266" 
d="M136 414c-35 0 -58 23 -58 58c0 33 23 58 58 58c33 0 56 -25 56 -58c0 -35 -23 -58 -56 -58zM92 -155l7 478h74l7 -478h-88z" />
    <glyph glyph-name="question" unicode="?" horiz-adv-x="542" 
d="M211 197v23c0 82 59 129 115 173c40 32 72 66 72 113c0 69 -46 103 -134 103c-74 0 -138 -30 -186 -73l-46 56c59 58 148 94 237 94c135 0 212 -67 212 -175c0 -66 -39 -112 -85 -148c-53 -41 -108 -84 -108 -145v-21h-77zM252 -9c-33 0 -56 25 -56 58c0 35 23 58 56 58
c35 0 58 -23 58 -58c0 -33 -23 -58 -58 -58z" />
    <glyph glyph-name="questiondown" unicode="&#xbf;" horiz-adv-x="521" 
d="M277 414c-35 0 -58 23 -58 58c0 33 23 58 58 58c33 0 56 -25 56 -58c0 -35 -23 -58 -56 -58zM260 -166c-135 0 -212 68 -212 175c0 67 39 113 85 148c53 42 108 84 108 145v21h77v-22c0 -82 -59 -130 -115 -173c-40 -32 -72 -66 -72 -114c0 -68 46 -103 134 -103
c74 0 138 31 186 73l46 -56c-59 -57 -148 -94 -237 -94z" />
    <glyph glyph-name="periodcentered" unicode="&#xb7;" horiz-adv-x="253" 
d="M126 304c-33 0 -56 25 -56 58c0 34 23 58 56 58c35 0 58 -24 58 -58c0 -33 -23 -58 -58 -58z" />
    <glyph glyph-name="bullet" unicode="&#x2022;" horiz-adv-x="380" 
d="M190 250c-56 0 -101 43 -101 100c0 59 45 102 101 102s101 -43 101 -102c0 -57 -45 -100 -101 -100z" />
    <glyph glyph-name="asterisk" unicode="*" horiz-adv-x="367" 
d="M152 383l5 109l-89 -64l-36 50l96 60l-96 60l36 51l89 -64l-5 108h63l-5 -108l90 64l35 -51l-97 -60l97 -60l-35 -50l-90 64l5 -109h-63z" />
    <glyph glyph-name="numbersign" unicode="#" horiz-adv-x="640" 
d="M132 28l19 142h-95l10 63h94l28 198h-95l9 63h95l19 134h71l-19 -134h154l18 134h71l-18 -134h91l-10 -63h-90l-28 -198h91l-10 -63h-91l-20 -142h-70l20 142h-154l-19 -142h-71zM231 233h154l28 198h-154z" />
    <glyph glyph-name="slash" unicode="/" horiz-adv-x="456" 
d="M21 -136l329 871h86l-329 -871h-86z" />
    <glyph glyph-name="backslash" unicode="\" horiz-adv-x="456" 
d="M350 -136l-329 871h86l329 -871h-86z" />
    <glyph glyph-name="exclamdown.case" horiz-adv-x="262" 
d="M132 569c-35 0 -58 23 -58 58c0 33 23 58 58 58c33 0 56 -25 56 -58c0 -35 -23 -58 -56 -58zM88 0l7 479h74l7 -479h-88z" />
    <glyph glyph-name="questiondown.case" horiz-adv-x="542" 
d="M290 569c-35 0 -58 23 -58 58c0 33 23 58 58 58c33 0 56 -25 56 -58c0 -35 -23 -58 -56 -58zM273 -10c-135 0 -212 67 -212 175c0 66 39 112 85 148c53 41 108 84 108 145v21h77v-23c0 -81 -58 -129 -114 -173c-41 -32 -73 -66 -73 -113c0 -69 46 -103 134 -103
c74 0 138 30 186 73l46 -56c-59 -58 -148 -94 -237 -94z" />
    <glyph glyph-name="slash.case" horiz-adv-x="456" 
d="M21 -100l329 871h86l-329 -871h-86z" />
    <glyph glyph-name="backslash.case" horiz-adv-x="456" 
d="M350 -100l-329 871h86l329 -871h-86z" />
    <glyph glyph-name="parenleft" unicode="(" horiz-adv-x="348" 
d="M236 -137c-108 114 -163 280 -163 436c0 155 56 322 163 436h88c-105 -118 -168 -284 -168 -436s63 -318 168 -436h-88z" />
    <glyph glyph-name="parenright" unicode=")" horiz-adv-x="348" 
d="M24 -137c105 119 168 285 168 436c0 153 -63 318 -168 436h87c109 -113 164 -279 164 -436c0 -154 -57 -321 -164 -436h-87z" />
    <glyph glyph-name="braceleft" unicode="{" horiz-adv-x="431" 
d="M325 -137c-132 0 -202 71 -202 203v69c0 68 -25 108 -79 137v54c54 29 79 70 79 139v68c0 130 70 202 202 202h73l-13 -77h-53c-84 0 -128 -45 -128 -129v-75c0 -67 -25 -114 -74 -155c49 -39 74 -86 74 -154v-75c0 -85 44 -130 128 -130h53l13 -77h-73z" />
    <glyph glyph-name="braceright" unicode="}" horiz-adv-x="431" 
d="M33 -137l13 78h53c84 0 129 45 129 129v75c0 67 24 114 74 154c-50 40 -74 87 -74 154v76c0 85 -45 130 -129 130h-53l-13 76h74c131 0 201 -71 201 -202v-69c0 -69 25 -109 79 -137v-54c-54 -30 -79 -71 -79 -139v-68c0 -131 -70 -203 -201 -203h-74z" />
    <glyph glyph-name="bracketleft" unicode="[" horiz-adv-x="413" 
d="M103 -137v872h277l-13 -77h-183v-718h183l13 -77h-277z" />
    <glyph glyph-name="bracketright" unicode="]" horiz-adv-x="413" 
d="M33 -137l13 78h183v718h-183l-13 76h277v-872h-277z" />
    <glyph glyph-name="parenleft.case" horiz-adv-x="348" 
d="M236 -101c-108 114 -163 280 -163 436c0 154 56 321 163 436h88c-105 -119 -168 -285 -168 -436c0 -152 63 -318 168 -436h-88z" />
    <glyph glyph-name="parenright.case" horiz-adv-x="348" 
d="M24 -101c105 119 168 285 168 436c0 152 -63 318 -168 436h87c109 -114 164 -280 164 -436c0 -154 -57 -321 -164 -436h-87z" />
    <glyph glyph-name="braceleft.case" horiz-adv-x="431" 
d="M325 -101c-132 0 -202 71 -202 202v69c0 69 -25 109 -79 137v54c54 30 79 71 79 139v68c0 131 70 203 202 203h73l-13 -78h-53c-84 0 -128 -45 -128 -129v-74c0 -67 -25 -115 -74 -155c49 -40 74 -87 74 -154v-75c0 -85 44 -131 128 -131h53l13 -76h-73z" />
    <glyph glyph-name="braceright.case" horiz-adv-x="431" 
d="M33 -101l13 77h53c84 0 129 45 129 130v74c0 67 24 114 74 155c-50 39 -74 87 -74 154v75c0 85 -45 130 -129 130h-53l-13 77h74c131 0 201 -71 201 -203v-69c0 -68 25 -108 79 -137v-54c-54 -29 -79 -70 -79 -139v-68c0 -130 -70 -202 -201 -202h-74z" />
    <glyph glyph-name="bracketleft.case" horiz-adv-x="413" 
d="M103 -101v872h277l-13 -78h-183v-717h183l13 -77h-277z" />
    <glyph glyph-name="bracketright.case" horiz-adv-x="413" 
d="M33 -101l13 77h183v718h-183l-13 77h277v-872h-277z" />
    <glyph glyph-name="hyphen" unicode="-" horiz-adv-x="445" 
d="M63 257v75h319v-75h-319z" />
    <glyph glyph-name="uni00AD" unicode="&#xad;" horiz-adv-x="445" 
d="M63 257v75h319v-75h-319z" />
    <glyph glyph-name="endash" unicode="&#x2013;" horiz-adv-x="490" 
d="M0 258v73h490v-73h-490z" />
    <glyph glyph-name="emdash" unicode="&#x2014;" horiz-adv-x="980" 
d="M0 258v73h980v-73h-980z" />
    <glyph glyph-name="underscore" unicode="_" horiz-adv-x="490" 
d="M0 -148v68h490v-68h-490z" />
    <glyph glyph-name="hyphen.case" horiz-adv-x="445" 
d="M63 303v75h319v-75h-319z" />
    <glyph glyph-name="endash.case" horiz-adv-x="490" 
d="M0 304v73h490v-73h-490z" />
    <glyph glyph-name="emdash.case" horiz-adv-x="980" 
d="M0 304v73h980v-73h-980z" />
    <glyph glyph-name="quotesinglbase" unicode="&#x201a;" horiz-adv-x="245" 
d="M19 -118c37 63 65 148 74 219h82c-9 -80 -43 -161 -82 -219h-74z" />
    <glyph glyph-name="quotedblbase" unicode="&#x201e;" horiz-adv-x="402" 
d="M19 -118c37 63 65 148 74 219h82c-9 -80 -43 -161 -82 -219h-74zM176 -118c37 63 65 148 74 219h82c-9 -80 -43 -161 -82 -219h-74z" />
    <glyph glyph-name="quotedblleft" unicode="&#x201c;" horiz-adv-x="395" 
d="M61 468c9 74 40 150 77 209h71c-35 -64 -59 -140 -67 -209h-81zM218 468c9 74 40 150 77 209h71c-35 -64 -59 -140 -67 -209h-81z" />
    <glyph glyph-name="quotedblright" unicode="&#x201d;" horiz-adv-x="395" 
d="M34 467c35 63 59 140 68 209h81c-10 -74 -41 -151 -78 -209h-71zM191 467c35 63 59 140 68 209h81c-10 -74 -41 -151 -78 -209h-71z" />
    <glyph glyph-name="quoteleft" unicode="&#x2018;" horiz-adv-x="238" 
d="M61 468c9 74 40 150 77 209h71c-35 -64 -59 -140 -67 -209h-81z" />
    <glyph glyph-name="quoteright" unicode="&#x2019;" horiz-adv-x="238" 
d="M34 467c35 63 59 140 68 209h81c-10 -74 -41 -151 -78 -209h-71z" />
    <glyph glyph-name="guillemotleft" unicode="&#xab;" horiz-adv-x="487" 
d="M180 89l-134 193l134 192h84l-128 -192l128 -193h-84zM360 89l-133 193l133 192h85l-129 -192l129 -193h-85z" />
    <glyph glyph-name="guillemotright" unicode="&#xbb;" horiz-adv-x="487" 
d="M43 89l129 192l-129 193h85l133 -193l-133 -192h-85zM224 89l128 192l-128 193h84l134 -193l-134 -192h-84z" />
    <glyph glyph-name="guilsinglleft" unicode="&#x2039;" horiz-adv-x="307" 
d="M180 89l-134 193l134 192h84l-128 -192l128 -193h-84z" />
    <glyph glyph-name="guilsinglright" unicode="&#x203a;" horiz-adv-x="307" 
d="M43 89l129 192l-129 193h85l133 -193l-133 -192h-85z" />
    <glyph glyph-name="quotedbl" unicode="&#x22;" horiz-adv-x="407" 
d="M82 417l-5 259h83l-7 -259h-71zM253 417l-6 259h83l-6 -259h-71z" />
    <glyph glyph-name="quotesingle" unicode="'" horiz-adv-x="236" 
d="M82 417l-5 259h83l-7 -259h-71z" />
    <glyph glyph-name="guillemotleft.case" horiz-adv-x="487" 
d="M180 153l-134 193l134 192h84l-128 -192l128 -193h-84zM360 153l-133 193l133 192h85l-129 -192l129 -193h-85z" />
    <glyph glyph-name="guillemotright.case" horiz-adv-x="487" 
d="M43 153l129 192l-129 193h85l133 -193l-133 -192h-85zM224 153l128 192l-128 193h84l134 -193l-134 -192h-84z" />
    <glyph glyph-name="guilsinglleft.case" horiz-adv-x="307" 
d="M180 153l-134 193l134 192h84l-128 -192l128 -193h-84z" />
    <glyph glyph-name="guilsinglright.case" horiz-adv-x="307" 
d="M43 153l129 192l-129 193h85l133 -193l-133 -192h-85z" />
    <glyph glyph-name="period.dnom" horiz-adv-x="161" 
d="M72 -8c-28 0 -49 21 -49 49c0 30 21 50 49 50c29 0 50 -20 50 -50c0 -28 -21 -49 -50 -49z" />
    <glyph glyph-name="comma.dnom" horiz-adv-x="161" 
d="M-10 -71c27 50 44 108 51 156h75c-7 -52 -31 -112 -60 -156h-66z" />
    <glyph glyph-name="period.numr" horiz-adv-x="161" 
d="M79 266c-27 0 -48 21 -48 49c0 30 21 50 48 50c29 0 51 -20 51 -50c0 -28 -22 -49 -51 -49z" />
    <glyph glyph-name="comma.numr" horiz-adv-x="161" 
d="M0 203c27 50 44 108 51 156h75c-7 -52 -31 -112 -60 -156h-66z" />
    <glyph glyph-name="period.subs" horiz-adv-x="161" 
d="M79 -84c-27 0 -48 21 -48 49c0 30 21 50 48 50c29 0 51 -20 51 -50c0 -28 -22 -49 -51 -49z" />
    <glyph glyph-name="comma.subs" horiz-adv-x="161" 
d="M0 -148c27 50 44 108 51 156h75c-7 -52 -31 -112 -60 -156h-66z" />
    <glyph glyph-name="uni00A0" unicode="&#xa0;" horiz-adv-x="255" 
 />
    <glyph glyph-name="cent" unicode="&#xa2;" 
d="M291 -66v139c-127 19 -210 120 -210 262c0 136 86 242 210 264v112l80 18v-129c63 -7 109 -37 147 -78l-51 -49c-35 37 -74 57 -129 57c-107 0 -177 -78 -177 -195c0 -116 74 -194 177 -194c56 0 98 23 135 59l50 -50c-39 -41 -88 -71 -152 -78v-120z" />
    <glyph glyph-name="currency" unicode="&#xa4;" 
d="M87 85l-55 55l77 77c-20 34 -31 74 -31 119c0 43 11 82 32 116l-78 78l55 55l76 -74c36 27 81 43 130 43c50 0 95 -16 131 -43l75 74l55 -55l-77 -78c20 -33 31 -73 31 -117c0 -43 -11 -83 -32 -117l78 -78l-55 -55l-77 75c-36 -28 -80 -44 -129 -44
c-50 0 -95 16 -130 42zM293 186c82 0 140 68 140 149s-56 149 -140 149s-140 -69 -140 -148c0 -81 56 -150 140 -150z" />
    <glyph glyph-name="dollar" unicode="$" 
d="M261 -142v138c-87 9 -159 47 -213 106l48 51c54 -56 124 -84 207 -84c91 0 146 38 146 105c0 78 -62 106 -167 131c-144 32 -211 78 -211 191c0 88 77 161 190 173v109l79 18v-129c68 -11 125 -45 171 -93l-49 -50c-49 49 -111 72 -168 72c-87 0 -144 -38 -144 -101
c0 -76 58 -92 169 -119c148 -36 211 -99 211 -197c0 -99 -68 -171 -190 -183v-121z" />
    <glyph glyph-name="Euro" unicode="&#x20ac;" 
d="M367 -10c-133 0 -234 91 -268 230h-90l17 67h62c-1 14 -2 27 -2 41c0 17 1 33 3 49h-80l17 67h76c38 134 143 223 267 223c88 0 150 -34 200 -88l-51 -53c-42 45 -90 66 -147 66c-86 0 -155 -58 -186 -148h227l-18 -67h-224c-1 -15 -2 -32 -2 -49c0 -14 1 -27 2 -41h200
l-18 -67h-168c29 -94 99 -154 185 -154c61 0 110 21 156 66l52 -53c-58 -59 -123 -89 -210 -89z" />
    <glyph glyph-name="florin" unicode="&#x192;" 
d="M17 0v74h63c94 0 126 44 150 145l21 85h-145v71h162l16 68c35 145 96 214 230 214h55v-74h-54c-95 0 -128 -45 -152 -145l-14 -63h149v-71h-166l-21 -90c-34 -143 -94 -214 -230 -214h-64z" />
    <glyph glyph-name="sterling" unicode="&#xa3;" 
d="M81 0v56l49 226h-93v71h107l19 87c29 132 99 217 247 217h127v-74h-128c-89 0 -148 -37 -172 -148l-17 -82h243v-71h-257l-45 -209h386v-73h-466z" />
    <glyph glyph-name="yen" unicode="&#xa5;" 
d="M254 0v121h-181v67h181v82h-181v67h140l-183 320h92l172 -313l174 313h87l-182 -320h140v-67h-181v-82h181v-67h-181v-121h-78z" />
    <glyph glyph-name="plus" unicode="+" 
d="M258 119v176h-175v71h175v176h70v-176h175v-71h-175v-176h-70z" />
    <glyph glyph-name="minus" unicode="&#x2212;" 
d="M102 294v73h382v-73h-382z" />
    <glyph glyph-name="multiply" unicode="&#xd7;" 
d="M162 149l-50 50l131 132l-131 131l50 50l131 -130l131 130l50 -50l-130 -131l130 -132l-50 -50l-131 131z" />
    <glyph glyph-name="divide" unicode="&#xf7;" 
d="M292 436c-31 0 -53 24 -53 55c0 32 22 54 53 54c33 0 55 -22 55 -54c0 -31 -22 -55 -55 -55zM102 294v73h382v-73h-382zM292 116c-31 0 -53 24 -53 54c0 33 22 55 53 55c33 0 55 -22 55 -55c0 -30 -22 -54 -55 -54z" />
    <glyph glyph-name="equal" unicode="=" 
d="M102 395v74h382v-74h-382zM102 192v73h382v-73h-382z" />
    <glyph glyph-name="notequal" unicode="&#x2260;" 
d="M200 81l-65 28l45 83h-78v73h117l70 130h-187v74h226l59 110l65 -28l-44 -82h76v-74h-116l-69 -130h185v-73h-225z" />
    <glyph glyph-name="greater" unicode="&#x3e;" 
d="M151 118l-35 62l269 152l-269 150l35 63l318 -182v-63z" />
    <glyph glyph-name="less" unicode="&#x3c;" 
d="M435 117l-318 182v63l318 182l35 -62l-269 -152l269 -150z" />
    <glyph glyph-name="greaterequal" unicode="&#x2265;" 
d="M159 163l-27 63l271 137l-271 138l27 63l323 -170v-62zM115 0v72h367v-72h-367z" />
    <glyph glyph-name="lessequal" unicode="&#x2264;" 
d="M427 163l-323 169v62l323 170l27 -63l-271 -137l271 -137zM104 0v73h367v-73h-367z" />
    <glyph glyph-name="plusminus" unicode="&#xb1;" 
d="M258 133v176h-175v71h175v176h70v-176h175v-71h-175v-176h-70zM102 -1v74h382v-74h-382z" />
    <glyph glyph-name="approxequal" unicode="&#x2248;" 
d="M391 358c-39 0 -73 24 -104 46c-29 21 -54 36 -80 36c-42 0 -72 -17 -76 -74h-67c4 89 54 146 132 146c41 0 79 -26 113 -48c27 -19 53 -36 75 -36c41 0 68 27 72 78h65c-3 -88 -51 -148 -130 -148zM391 149c-39 0 -73 24 -104 46c-29 21 -54 36 -80 36
c-42 0 -72 -18 -76 -74h-67c4 89 54 146 132 146c41 0 79 -26 113 -48c27 -19 53 -36 75 -36c41 0 68 27 72 78h65c-3 -88 -51 -148 -130 -148z" />
    <glyph glyph-name="asciitilde" unicode="~" 
d="M391 246c-39 0 -73 24 -104 46c-29 21 -54 36 -80 36c-42 0 -72 -17 -76 -74h-67c4 89 54 146 132 146c41 0 79 -26 113 -48c27 -19 53 -36 75 -36c41 0 68 27 72 78h65c-3 -88 -51 -148 -130 -148z" />
    <glyph glyph-name="logicalnot" unicode="&#xac;" 
d="M413 171v178h-333v71h404v-249h-71z" />
    <glyph glyph-name="asciicircum" unicode="^" 
d="M74 340l182 336h77l179 -336h-83l-135 260l-137 -260h-83z" />
    <glyph glyph-name="uni00B5" unicode="&#xb5;" 
d="M73 -220v740h79v-286c0 -115 33 -171 129 -171c59 0 113 36 152 94v363h80v-520h-49l-24 77c-45 -53 -106 -87 -173 -87c-47 0 -87 14 -115 44v-238z" />
    <glyph glyph-name="percent" unicode="%" horiz-adv-x="953" 
d="M225 267c-105 0 -172 80 -172 197c0 116 69 197 172 197c102 0 171 -79 171 -197c0 -116 -69 -197 -171 -197zM180 0l502 657h90l-503 -657h-89zM225 333c64 0 98 54 98 131s-32 131 -97 131c-66 0 -101 -54 -101 -131c0 -75 33 -131 100 -131zM729 -7
c-105 0 -172 80 -172 197c0 116 69 197 172 197s171 -79 171 -197c0 -116 -68 -197 -171 -197zM729 59c64 0 99 54 99 131s-33 131 -98 131c-66 0 -101 -54 -101 -131c0 -75 33 -131 100 -131z" />
    <glyph glyph-name="perthousand" unicode="&#x2030;" horiz-adv-x="1351" 
d="M225 267c-105 0 -172 80 -172 197c0 116 69 197 172 197c102 0 171 -79 171 -197c0 -116 -69 -197 -171 -197zM180 0l502 657h90l-503 -657h-89zM225 333c64 0 98 54 98 131s-32 131 -97 131c-66 0 -101 -54 -101 -131c0 -75 33 -131 100 -131zM729 -7
c-105 0 -172 80 -172 197c0 116 69 197 172 197s171 -79 171 -197c0 -116 -68 -197 -171 -197zM1127 -7c-104 0 -172 80 -172 197c0 116 70 197 172 197c103 0 172 -79 172 -197c0 -116 -69 -197 -172 -197zM729 59c64 0 99 54 99 131s-33 131 -98 131
c-66 0 -101 -54 -101 -131c0 -75 33 -131 100 -131zM1127 59c65 0 99 54 99 131s-32 131 -98 131s-100 -54 -100 -131c0 -75 32 -131 99 -131z" />
    <glyph glyph-name="at" unicode="@" horiz-adv-x="948" 
d="M459 -161c-230 0 -400 172 -400 414c0 253 209 432 439 432c238 0 400 -142 400 -341c0 -172 -121 -282 -266 -282h-39l-14 47c-37 -34 -83 -54 -130 -54c-106 0 -175 80 -175 205c0 118 85 205 194 205c39 0 86 -18 118 -43l9 35h62v-330c97 8 168 86 168 217
c0 158 -128 271 -327 271c-194 0 -364 -147 -364 -361c0 -204 137 -343 327 -343c100 0 164 29 217 74l46 -53c-65 -59 -151 -93 -265 -93zM467 127c41 0 77 21 107 54v180c-29 22 -60 34 -94 34c-74 0 -126 -50 -126 -137c0 -79 41 -131 113 -131z" />
    <glyph glyph-name="ampersand" unicode="&#x26;" horiz-adv-x="647" 
d="M283 -11c-144 0 -239 77 -239 195c0 89 63 151 138 189c-40 47 -63 90 -63 144c0 99 87 169 204 169c79 0 138 -33 191 -93l-54 -52c-42 46 -82 71 -137 71c-77 0 -126 -41 -126 -102c0 -58 56 -107 127 -185l150 -165c28 42 43 97 43 156v35h72v-36
c0 -78 -23 -152 -65 -209l97 -106h-95l-52 54c-50 -41 -114 -65 -191 -65zM290 61c54 0 100 17 136 46l-200 215c-53 -24 -103 -67 -103 -131c0 -78 72 -130 167 -130z" />
    <glyph glyph-name="paragraph" unicode="&#xb6;" horiz-adv-x="561" 
d="M263 -149v76h20c66 0 103 44 103 119v616l82 14v-631c0 -124 -66 -194 -177 -194h-28zM313 221c-167 0 -265 77 -265 200c0 116 73 191 201 216l64 13v-429z" />
    <glyph glyph-name="section" unicode="&#xa7;" horiz-adv-x="460" 
d="M85 -148v70h69c71 0 109 30 109 78c0 38 -24 66 -60 97l-84 75c-47 41 -70 82 -70 132c0 60 43 111 110 128c-24 30 -37 60 -37 94c0 90 70 150 195 150h54v-71h-62c-72 0 -109 -33 -109 -80c0 -40 23 -65 59 -97l83 -73c45 -39 68 -82 68 -131c0 -59 -44 -108 -110 -125
c24 -30 41 -61 41 -99c0 -91 -69 -148 -192 -148h-64zM246 153h2c52 0 89 32 89 72c0 31 -18 55 -47 82l-78 70h-2c-51 -1 -87 -31 -87 -73c0 -30 17 -55 48 -83z" />
    <glyph glyph-name="copyright" unicode="&#xa9;" horiz-adv-x="800" 
d="M399 -11c-195 0 -353 138 -353 349c0 205 160 349 353 349c194 0 355 -141 355 -349c0 -209 -162 -349 -355 -349zM399 51c164 0 290 116 290 287c0 170 -125 287 -290 287s-288 -119 -288 -287c0 -173 121 -287 288 -287zM404 150c-110 0 -185 73 -185 189
c0 109 80 187 187 187c50 0 99 -19 129 -59l-38 -44c-26 26 -53 39 -88 39c-72 0 -118 -47 -118 -123s45 -123 118 -123c41 0 71 14 96 38l38 -47c-35 -36 -83 -57 -139 -57z" />
    <glyph glyph-name="registered" unicode="&#xae;" horiz-adv-x="557" 
d="M277 247c-133 0 -245 94 -245 241c0 142 113 241 245 241c134 0 247 -97 247 -241c0 -146 -114 -241 -247 -241zM277 294c115 0 196 79 196 194c0 113 -80 194 -196 194c-114 0 -194 -80 -194 -194c0 -115 80 -194 194 -194zM185 372v240h98c56 0 94 -32 94 -78
c0 -28 -17 -50 -43 -61c11 -8 21 -19 30 -36l33 -65h-61l-20 38c-14 29 -23 40 -54 40h-25v-78h-52zM237 498h38c29 0 44 12 44 33c0 25 -18 34 -44 34h-38v-67z" />
    <glyph glyph-name="trademark" unicode="&#x2122;" horiz-adv-x="849" 
d="M148 322v293h-117v61h297v-61h-116v-293h-64zM394 322v354h61l126 -223l134 223h61v-354h-63v238l-106 -170h-51l-101 168v-236h-61z" />
    <glyph glyph-name="degree" unicode="&#xb0;" horiz-adv-x="382" 
d="M190 398c-78 0 -141 64 -141 141c0 78 64 141 141 141c78 0 142 -63 142 -141c0 -77 -64 -141 -142 -141zM190 462c42 0 77 34 77 77s-35 77 -77 77s-75 -35 -75 -77s33 -77 75 -77z" />
    <glyph glyph-name="bar" unicode="|" horiz-adv-x="288" 
d="M103 -137v872h81v-872h-81z" />
    <glyph glyph-name="brokenbar" unicode="&#xa6;" horiz-adv-x="288" 
d="M103 407v328h81v-328h-81zM103 -137v329h81v-329h-81z" />
    <glyph glyph-name="dagger" unicode="&#x2020;" horiz-adv-x="367" 
d="M150 296v212h-120v60h120v108l64 13v-121h122v-60h-122v-212h-64z" />
    <glyph glyph-name="daggerdbl" unicode="&#x2021;" horiz-adv-x="384" 
d="M159 296v97h-117v59h117v81h-117v59h117v84l64 13v-97h119v-59h-119v-81h119v-59h-119v-97h-64z" />
    <glyph glyph-name="at.case" horiz-adv-x="948" 
d="M459 -100c-230 0 -400 171 -400 414c0 253 209 432 439 432c238 0 400 -142 400 -341c0 -172 -121 -282 -266 -282h-39l-14 47c-37 -34 -83 -54 -130 -54c-106 0 -175 80 -175 205c0 118 85 205 194 205c39 0 86 -19 118 -43l9 35h62v-330c97 7 168 85 168 217
c0 157 -128 270 -327 270c-194 0 -364 -147 -364 -360c0 -204 137 -343 327 -343c100 0 164 28 217 74l46 -53c-65 -59 -151 -93 -265 -93zM467 187c41 0 77 22 107 55v180c-29 22 -60 33 -94 33c-74 0 -126 -49 -126 -137c0 -79 41 -131 113 -131z" />
    <glyph glyph-name="uni0308" unicode="&#x308;" horiz-adv-x="0" 
d="M-384 617c-31 0 -51 22 -51 50c0 31 20 52 51 52c29 0 51 -21 51 -52c0 -28 -22 -50 -51 -50zM-204 617c-30 0 -51 22 -51 50c0 31 21 52 51 52s51 -21 51 -52c0 -28 -21 -50 -51 -50z" />
    <glyph glyph-name="uni0307" unicode="&#x307;" horiz-adv-x="0" 
d="M-294 617c-30 0 -52 22 -52 51c0 31 22 52 52 52c29 0 52 -21 52 -52c0 -29 -23 -51 -52 -51z" />
    <glyph glyph-name="gravecomb" unicode="&#x300;" horiz-adv-x="0" 
d="M-265 599l-146 137h99l135 -137h-88z" />
    <glyph glyph-name="acutecomb" unicode="&#x301;" horiz-adv-x="0" 
d="M-411 599l135 137h99l-146 -137h-88z" />
    <glyph glyph-name="uni0302" unicode="&#x302;" horiz-adv-x="0" 
d="M-457 599l120 137h87l120 -137h-82l-82 85l-83 -85h-80z" />
    <glyph glyph-name="uni030C" unicode="&#x30c;" horiz-adv-x="0" 
d="M-337 599l-120 137h83l81 -84l82 84h81l-120 -137h-87z" />
    <glyph glyph-name="uni030A" unicode="&#x30a;" horiz-adv-x="0" 
d="M-294 587c-66 0 -122 54 -122 122s56 120 122 120c67 0 123 -53 123 -120c0 -69 -56 -122 -123 -122zM-294 642c35 0 65 29 65 67c0 36 -30 64 -65 64c-34 0 -64 -28 -64 -64c0 -38 30 -67 64 -67z" />
    <glyph glyph-name="tildecomb" unicode="&#x303;" horiz-adv-x="0" 
d="M-215 608c-33 0 -54 12 -78 26c-23 13 -41 25 -67 25c-34 0 -60 -17 -89 -40v68c28 24 54 38 89 38c32 0 55 -12 78 -25c23 -14 43 -26 68 -26c37 0 65 20 90 39v-67c-26 -22 -53 -38 -91 -38z" />
    <glyph glyph-name="uni0327" unicode="&#x327;" horiz-adv-x="0" 
d="M-375 -185v60h23c41 0 72 16 72 52c0 26 -15 48 -41 75l55 14c33 -29 53 -62 53 -98c0 -69 -57 -103 -137 -103h-25z" />
    <glyph glyph-name="dieresis" unicode="&#xa8;" horiz-adv-x="588" 
d="M204 617c-31 0 -51 22 -51 50c0 31 20 52 51 52c29 0 51 -21 51 -52c0 -28 -22 -50 -51 -50zM384 617c-30 0 -51 22 -51 50c0 31 21 52 51 52s51 -21 51 -52c0 -28 -21 -50 -51 -50z" />
    <glyph glyph-name="dotaccent" unicode="&#x2d9;" horiz-adv-x="588" 
d="M294 617c-30 0 -52 22 -52 51c0 31 22 52 52 52c29 0 52 -21 52 -52c0 -29 -23 -51 -52 -51z" />
    <glyph glyph-name="grave" unicode="`" horiz-adv-x="588" 
d="M323 599l-146 137h99l135 -137h-88z" />
    <glyph glyph-name="acute" unicode="&#xb4;" horiz-adv-x="588" 
d="M177 599l135 137h99l-146 -137h-88z" />
    <glyph glyph-name="circumflex" unicode="&#x2c6;" horiz-adv-x="588" 
d="M131 599l120 137h87l120 -137h-82l-82 85l-83 -85h-80z" />
    <glyph glyph-name="caron" unicode="&#x2c7;" horiz-adv-x="588" 
d="M251 599l-120 137h83l81 -84l82 84h81l-120 -137h-87z" />
    <glyph glyph-name="ring" unicode="&#x2da;" horiz-adv-x="588" 
d="M294 587c-66 0 -122 54 -122 122s56 120 122 120c67 0 123 -53 123 -120c0 -69 -56 -122 -123 -122zM294 642c35 0 65 29 65 67c0 36 -30 64 -65 64c-34 0 -64 -28 -64 -64c0 -38 30 -67 64 -67z" />
    <glyph glyph-name="tilde" unicode="&#x2dc;" horiz-adv-x="588" 
d="M373 608c-33 0 -54 12 -78 26c-23 13 -41 25 -67 25c-34 0 -60 -17 -89 -40v68c28 24 54 38 89 38c32 0 55 -12 78 -25c23 -14 43 -26 68 -26c37 0 65 20 90 39v-67c-26 -22 -53 -38 -91 -38z" />
    <glyph glyph-name="cedilla" unicode="&#xb8;" horiz-adv-x="588" 
d="M213 -185v60h23c41 0 72 16 72 52c0 26 -15 48 -41 75l55 14c33 -29 53 -62 53 -98c0 -69 -57 -103 -137 -103h-25z" />
    <glyph glyph-name="uni0308.case" horiz-adv-x="0" 
d="M-384 750c-31 0 -52 20 -52 50c0 29 21 50 52 50c29 0 52 -21 52 -50c0 -30 -23 -50 -52 -50zM-203 750c-29 0 -52 20 -52 50c0 29 22 50 52 50s52 -21 52 -50c0 -30 -22 -50 -52 -50z" />
    <glyph glyph-name="uni0307.case" horiz-adv-x="0" 
d="M-294 758c-30 0 -53 20 -53 50c0 29 23 51 53 51c29 0 53 -22 53 -51c0 -30 -24 -50 -53 -50z" />
    <glyph glyph-name="gravecomb.case" horiz-adv-x="0" 
d="M-264 742l-149 130h101l137 -130h-89z" />
    <glyph glyph-name="acutecomb.case" horiz-adv-x="0" 
d="M-413 742l136 130h102l-148 -130h-90z" />
    <glyph glyph-name="uni0302.case" horiz-adv-x="0" 
d="M-461 741l123 130h89l123 -130h-85l-83 80l-83 -80h-84z" />
    <glyph glyph-name="uni030C.case" horiz-adv-x="0" 
d="M-338 741l-123 130h85l83 -80l83 80h84l-123 -130h-89z" />
    <glyph glyph-name="uni030A.case" horiz-adv-x="0" 
d="M-294 739c-67 0 -123 53 -123 122c0 68 56 120 123 120s124 -53 124 -120c0 -70 -57 -122 -124 -122zM-294 794c36 0 65 29 65 67c0 36 -29 64 -65 64c-35 0 -64 -28 -64 -64c0 -38 29 -67 64 -67z" />
    <glyph glyph-name="tildecomb.case" horiz-adv-x="0" 
d="M-214 752c-32 0 -56 11 -78 25c-21 13 -39 23 -64 23c-37 0 -66 -18 -94 -37v66c29 23 58 35 94 35c31 0 54 -8 76 -22c24 -14 42 -25 67 -25c40 0 71 20 96 38v-68c-27 -21 -57 -35 -97 -35z" />
    <glyph glyph-name="uni0327.case" horiz-adv-x="0" 
d="M-378 -190v64h23c44 0 75 16 75 51c0 27 -16 51 -43 78l59 14c34 -31 54 -64 54 -101c0 -71 -59 -106 -143 -106h-25z" />
    <glyph glyph-name="gravecomb.narrow.case" horiz-adv-x="0" 
d="M-283 742l-112 130h92l99 -130h-79z" />
    <glyph glyph-name="acutecomb.narrow.case" horiz-adv-x="0" 
d="M-395 742l100 130h91l-112 -130h-79z" />
    <glyph glyph-name="gravecomb.narrow" horiz-adv-x="0" 
d="M-283 599l-112 137h92l99 -137h-79z" />
    <glyph glyph-name="acutecomb.narrow" horiz-adv-x="0" 
d="M-395 599l99 137h92l-112 -137h-79z" />
    <glyph glyph-name="periodsuperior" horiz-adv-x="161" 
d="M79 334c-27 0 -48 21 -48 49c0 30 21 50 48 50c29 0 51 -20 51 -50c0 -28 -22 -49 -51 -49z" />
    <glyph glyph-name="commasuperior" horiz-adv-x="161" 
d="M0 271c27 50 44 108 51 156h75c-7 -52 -31 -112 -60 -156h-66z" />
    </font>
</defs>
</svg>
