<?xml version="1.0" standalone="no"?>
<!DOCTYPE svg PUBLIC "-//W3C//DTD SVG 1.1//EN" "http://www.w3.org/Graphics/SVG/1.1/DTD/svg11.dtd" >
<svg xmlns="http://www.w3.org/2000/svg" xmlns:xlink="http://www.w3.org/1999/xlink" version="1.1">
<metadata>
Created by FontForge 20190531 at Fri Aug  9 12:40:23 2019
 By Henrique Beier
Copyright \(c\) 2019 Banco Bradesco S.A. All rights reserved.
</metadata>
<defs>
<font id="BradescoSans-Light" horiz-adv-x="586" >
  <font-face 
    font-family="Bradesco Sans Light"
    font-weight="300"
    font-stretch="normal"
    units-per-em="1000"
    panose-1="0 0 4 0 0 0 0 0 0 0"
    ascent="800"
    descent="-200"
    x-height="516"
    cap-height="676"
    bbox="-447 -222 1226 967"
    underline-thickness="50"
    underline-position="-100"
    stemh="45"
    stemv="51"
    unicode-range="U+0020-FB02"
  />
<missing-glyph horiz-adv-x="472" 
d="M387 730v-944h-299v944h299zM314 667h-155v-31h61v-35h-62v-31h156v31h-62v35h62v31zM252 545h-94v-98h156v32h-62v66zM220 513v-34h-31v34h31zM314 421h-156v-31h62v-35h-62v-31h94v66h62v31zM314 365h-31v-63h-125v-32h156v95zM314 250h-94v-53h32v21h31v-44h-94v76
h-31v-107h156v107zM314 86h-156v-106h156v106zM283 55v-44h-94v44h94zM314 -42h-156v-31h66l-66 -45v-31h156v31h-96l66 45h30v31z" />
    <glyph glyph-name="fi" unicode="fi" horiz-adv-x="599" 
d="M79 0v544c0 118 65 195 176 195c41 0 80 -15 112 -41l-25 -36c-24 19 -52 30 -89 30c-80 0 -123 -59 -123 -145v-31h225v-45h-225v-471h-51zM493 629c-23 0 -38 17 -38 38c0 23 15 40 38 40s38 -17 38 -40c0 -21 -15 -38 -38 -38zM467 0v516h51v-516h-51z" />
    <glyph glyph-name="fl" unicode="fl" horiz-adv-x="661" 
d="M79 0v544c0 118 65 195 176 195c41 0 80 -15 112 -41l-25 -36c-24 19 -52 30 -89 30c-80 0 -123 -59 -123 -145v-31h225v-45h-225v-471h-51zM615 -5c-96 0 -151 62 -151 172v559l51 13v-577c0 -78 37 -122 103 -122h21v-45h-24z" />
    <glyph glyph-name=".notdef" horiz-adv-x="472" 
d="M387 730v-944h-299v944h299zM314 667h-155v-31h61v-35h-62v-31h156v31h-62v35h62v31zM252 545h-94v-98h156v32h-62v66zM220 513v-34h-31v34h31zM314 421h-156v-31h62v-35h-62v-31h94v66h62v31zM314 365h-31v-63h-125v-32h156v95zM314 250h-94v-53h32v21h31v-44h-94v76
h-31v-107h156v107zM314 86h-156v-106h156v106zM283 55v-44h-94v44h94zM314 -42h-156v-31h66l-66 -45v-31h156v31h-96l66 45h30v31z" />
    <glyph glyph-name="space" unicode=" " horiz-adv-x="255" 
 />
    <glyph glyph-name="A" unicode="A" horiz-adv-x="629" 
d="M25 0l267 676h47l265 -676h-54l-78 205h-316l-80 -205h-51zM175 253h278l-139 360z" />
    <glyph glyph-name="Aacute" unicode="&#xc1;" horiz-adv-x="629" 
d="M264 744l122 122h69l-131 -122h-60zM25 0l267 676h47l265 -676h-54l-78 205h-316l-80 -205h-51zM175 253h278l-139 360z" />
    <glyph glyph-name="Acircumflex" unicode="&#xc2;" horiz-adv-x="629" 
d="M167 744l120 122h56l119 -122h-59l-89 85l-89 -85h-58zM25 0l267 676h47l265 -676h-54l-78 205h-316l-80 -205h-51zM175 253h278l-139 360z" />
    <glyph glyph-name="Adieresis" unicode="&#xc4;" horiz-adv-x="629" 
d="M229 762c-23 0 -39 16 -39 37c0 22 16 38 39 38c22 0 39 -17 39 -38s-17 -37 -39 -37zM401 762c-22 0 -39 16 -39 37c0 22 17 38 39 38c23 0 39 -16 39 -38c0 -21 -16 -37 -39 -37zM25 0l267 676h47l265 -676h-54l-78 205h-316l-80 -205h-51zM175 253h278l-139 360z" />
    <glyph glyph-name="Agrave" unicode="&#xc0;" horiz-adv-x="629" 
d="M307 744l-131 122h69l122 -122h-60zM25 0l267 676h47l265 -676h-54l-78 205h-316l-80 -205h-51zM175 253h278l-139 360z" />
    <glyph glyph-name="Aring" unicode="&#xc5;" horiz-adv-x="629" 
d="M349 650l255 -650h-54l-78 205h-316l-80 -205h-51l257 650c-48 13 -84 57 -84 110c0 64 54 114 116 114s117 -51 117 -114c0 -53 -36 -95 -82 -110zM240 760c0 -44 34 -76 74 -76c41 0 75 32 75 76c0 43 -34 74 -75 74c-40 0 -74 -31 -74 -74zM175 253h278l-139 360z" />
    <glyph glyph-name="Atilde" unicode="&#xc3;" horiz-adv-x="629" 
d="M391 761c-34 0 -56 12 -78 26c-19 12 -37 21 -59 21c-32 0 -63 -17 -91 -39v46c29 24 57 37 90 37c32 0 54 -10 75 -24c20 -13 39 -23 62 -23c38 0 68 20 92 39v-47c-25 -21 -54 -36 -91 -36zM25 0l267 676h47l265 -676h-54l-78 205h-316l-80 -205h-51zM175 253h278
l-139 360z" />
    <glyph glyph-name="AE" unicode="&#xc6;" horiz-adv-x="966" 
d="M7 0l482 676h426v-49h-361v-252h316v-50h-316v-275h373v-50h-424v199h-297l-141 -199h-58zM240 245h263v371z" />
    <glyph glyph-name="B" unicode="B" horiz-adv-x="588" 
d="M91 0v676h207c129 0 202 -71 202 -176c0 -69 -35 -120 -94 -148c82 -21 133 -84 133 -167c0 -117 -79 -185 -207 -185h-241zM139 368h155c99 0 156 46 156 132c0 85 -56 131 -160 131h-151v-263zM139 45h184c105 0 165 43 165 140c0 83 -61 136 -160 136h-189v-276z" />
    <glyph glyph-name="C" unicode="C" horiz-adv-x="645" 
d="M364 -10c-184 0 -306 141 -306 349c0 205 129 347 313 347c84 0 158 -37 211 -97l-34 -33c-45 50 -106 81 -178 81c-155 0 -261 -121 -261 -298c0 -178 104 -300 256 -300c78 0 142 31 194 80l33 -34c-62 -62 -137 -95 -228 -95z" />
    <glyph glyph-name="Ccedilla" unicode="&#xc7;" horiz-adv-x="645" 
d="M592 85c-57 -57 -124 -89 -205 -94c19 -22 31 -47 31 -74c0 -65 -54 -96 -126 -96h-20v44h19c44 0 79 17 79 57c0 24 -13 46 -34 69c-168 14 -278 151 -278 348c0 205 129 347 313 347c84 0 158 -37 211 -97l-34 -33c-45 50 -106 81 -178 81c-155 0 -261 -121 -261 -298
c0 -178 104 -300 256 -300c78 0 142 31 194 80z" />
    <glyph glyph-name="D" unicode="D" horiz-adv-x="669" 
d="M91 0v676h192c205 0 328 -136 328 -336c0 -196 -127 -340 -327 -340h-193zM142 48h142c173 0 275 122 275 293c0 170 -100 287 -275 287h-142v-580z" />
    <glyph glyph-name="Eth" unicode="&#xd0;" horiz-adv-x="690" 
d="M113 0v315h-95v46h95v315h192c205 0 328 -136 328 -336c0 -196 -128 -340 -327 -340h-193zM164 48h142c173 0 275 122 275 293c0 170 -100 287 -275 287h-142v-267h217v-46h-217v-267z" />
    <glyph glyph-name="E" unicode="E" horiz-adv-x="554" 
d="M91 0v676h412v-49h-361v-252h316v-50h-316v-275h373v-50h-424z" />
    <glyph glyph-name="Eacute" unicode="&#xc9;" horiz-adv-x="554" 
d="M250 744l122 122h69l-131 -122h-60zM91 0v676h412v-49h-361v-252h316v-50h-316v-275h373v-50h-424z" />
    <glyph glyph-name="Ecircumflex" unicode="&#xca;" horiz-adv-x="554" 
d="M153 744l120 122h56l119 -122h-59l-89 85l-89 -85h-58zM91 0v676h412v-49h-361v-252h316v-50h-316v-275h373v-50h-424z" />
    <glyph glyph-name="Edieresis" unicode="&#xcb;" horiz-adv-x="554" 
d="M215 762c-23 0 -39 16 -39 37c0 22 16 38 39 38c22 0 39 -17 39 -38s-17 -37 -39 -37zM387 762c-22 0 -39 16 -39 37c0 22 17 38 39 38c23 0 39 -16 39 -38c0 -21 -16 -37 -39 -37zM91 0v676h412v-49h-361v-252h316v-50h-316v-275h373v-50h-424z" />
    <glyph glyph-name="Egrave" unicode="&#xc8;" horiz-adv-x="554" 
d="M293 744l-131 122h69l122 -122h-60zM91 0v676h412v-49h-361v-252h316v-50h-316v-275h373v-50h-424z" />
    <glyph glyph-name="F" unicode="F" horiz-adv-x="554" 
d="M91 0v676h416v-49h-365v-252h318v-50h-318v-325h-51z" />
    <glyph glyph-name="G" unicode="G" horiz-adv-x="667" 
d="M362 -10c-183 0 -304 139 -304 349c0 207 131 347 319 347c85 0 161 -39 211 -97l-32 -32c-44 48 -104 80 -180 80c-159 0 -267 -119 -267 -298c0 -178 102 -300 255 -300c79 0 137 24 188 67v183h-198v48h248v-252c-64 -61 -149 -95 -240 -95z" />
    <glyph glyph-name="H" unicode="H" horiz-adv-x="662" 
d="M91 0v676h51v-301h378v301h51v-676h-51v325h-378v-325h-51z" />
    <glyph glyph-name="I" unicode="I" horiz-adv-x="233" 
d="M91 0v676h51v-676h-51z" />
    <glyph glyph-name="Iacute" unicode="&#xcd;" horiz-adv-x="233" 
d="M88 744l96 122h63l-105 -122h-54zM91 0v676h51v-676h-51z" />
    <glyph glyph-name="Icircumflex" unicode="&#xce;" horiz-adv-x="233" 
d="M-31 744l120 122h56l119 -122h-59l-89 85l-89 -85h-58zM91 0v676h51v-676h-51z" />
    <glyph glyph-name="Idieresis" unicode="&#xcf;" horiz-adv-x="233" 
d="M31 762c-23 0 -39 16 -39 37c0 22 16 38 39 38c22 0 39 -17 39 -38s-17 -37 -39 -37zM203 762c-22 0 -39 16 -39 37c0 22 17 38 39 38c23 0 39 -16 39 -38c0 -21 -16 -37 -39 -37zM91 0v676h51v-676h-51z" />
    <glyph glyph-name="Igrave" unicode="&#xcc;" horiz-adv-x="233" 
d="M92 744l-105 122h63l97 -122h-55zM91 0v676h51v-676h-51z" />
    <glyph glyph-name="J" unicode="J" horiz-adv-x="364" 
d="M29 0v49h46c98 0 153 62 153 164v463h51v-459c0 -137 -73 -217 -204 -217h-46z" />
    <glyph glyph-name="K" unicode="K" horiz-adv-x="637" 
d="M91 0v676h51v-303h107c83 0 112 40 160 119l113 184h56l-128 -208c-30 -48 -57 -87 -94 -111l262 -357h-62l-247 334c-18 -6 -40 -9 -65 -9h-102v-325h-51z" />
    <glyph glyph-name="L" unicode="L" horiz-adv-x="538" 
d="M91 0v676h51v-626h360v-50h-411z" />
    <glyph glyph-name="M" unicode="M" horiz-adv-x="837" 
d="M91 0v676h50l267 -479l290 479h48v-676h-51v583l-267 -440h-42l-245 435v-578h-50z" />
    <glyph glyph-name="N" unicode="N" horiz-adv-x="664" 
d="M91 0v676h42l391 -581v581h49v-676h-42l-391 581v-581h-49z" />
    <glyph glyph-name="Ntilde" unicode="&#xd1;" horiz-adv-x="664" 
d="M409 761c-34 0 -56 12 -78 26c-19 12 -37 21 -59 21c-32 0 -63 -17 -91 -39v46c29 24 57 37 90 37c32 0 54 -10 75 -24c20 -13 39 -23 62 -23c38 0 68 20 92 39v-47c-25 -21 -54 -36 -91 -36zM91 0v676h42l391 -581v581h49v-676h-42l-391 581v-581h-49z" />
    <glyph glyph-name="O" unicode="O" horiz-adv-x="730" 
d="M365 -10c-180 0 -307 145 -307 350c0 196 131 346 307 346c179 0 307 -144 307 -346c0 -200 -130 -350 -307 -350zM365 39c149 0 256 128 256 301c0 174 -106 297 -256 297c-151 0 -256 -128 -256 -297c0 -173 104 -301 256 -301z" />
    <glyph glyph-name="Oacute" unicode="&#xd3;" horiz-adv-x="730" 
d="M315 744l122 122h69l-131 -122h-60zM365 -10c-180 0 -307 145 -307 350c0 196 131 346 307 346c179 0 307 -144 307 -346c0 -200 -130 -350 -307 -350zM365 39c149 0 256 128 256 301c0 174 -106 297 -256 297c-151 0 -256 -128 -256 -297c0 -173 104 -301 256 -301z" />
    <glyph glyph-name="Ocircumflex" unicode="&#xd4;" horiz-adv-x="730" 
d="M218 744l120 122h56l119 -122h-59l-89 85l-89 -85h-58zM365 -10c-180 0 -307 145 -307 350c0 196 131 346 307 346c179 0 307 -144 307 -346c0 -200 -130 -350 -307 -350zM365 39c149 0 256 128 256 301c0 174 -106 297 -256 297c-151 0 -256 -128 -256 -297
c0 -173 104 -301 256 -301z" />
    <glyph glyph-name="Odieresis" unicode="&#xd6;" horiz-adv-x="730" 
d="M280 762c-23 0 -39 16 -39 37c0 22 16 38 39 38c22 0 39 -17 39 -38s-17 -37 -39 -37zM452 762c-22 0 -39 16 -39 37c0 22 17 38 39 38c23 0 39 -16 39 -38c0 -21 -16 -37 -39 -37zM365 -10c-180 0 -307 145 -307 350c0 196 131 346 307 346c179 0 307 -144 307 -346
c0 -200 -130 -350 -307 -350zM365 39c149 0 256 128 256 301c0 174 -106 297 -256 297c-151 0 -256 -128 -256 -297c0 -173 104 -301 256 -301z" />
    <glyph glyph-name="Ograve" unicode="&#xd2;" horiz-adv-x="730" 
d="M357 744l-131 122h69l122 -122h-60zM365 -10c-180 0 -307 145 -307 350c0 196 131 346 307 346c179 0 307 -144 307 -346c0 -200 -130 -350 -307 -350zM365 39c149 0 256 128 256 301c0 174 -106 297 -256 297c-151 0 -256 -128 -256 -297c0 -173 104 -301 256 -301z" />
    <glyph glyph-name="Oslash" unicode="&#xd8;" horiz-adv-x="730" 
d="M49 -36l95 123c-55 62 -86 150 -86 253c0 196 131 346 307 346c74 0 139 -24 190 -68l72 93h56l-96 -124c54 -61 85 -147 85 -247c0 -200 -130 -350 -307 -350c-73 0 -137 23 -189 66l-71 -92h-56zM177 129l348 450c-43 37 -98 58 -160 58c-151 0 -256 -128 -256 -297
c0 -84 25 -157 68 -211zM365 38c149 0 256 129 256 302c0 82 -24 154 -65 206l-348 -450c42 -36 95 -58 157 -58z" />
    <glyph glyph-name="Otilde" unicode="&#xd5;" horiz-adv-x="730" 
d="M442 761c-34 0 -56 12 -78 26c-19 12 -37 21 -59 21c-32 0 -63 -17 -91 -39v46c29 24 57 37 90 37c32 0 54 -10 75 -24c20 -13 39 -23 62 -23c38 0 68 20 92 39v-47c-25 -21 -54 -36 -91 -36zM365 -10c-180 0 -307 145 -307 350c0 196 131 346 307 346
c179 0 307 -144 307 -346c0 -200 -130 -350 -307 -350zM365 39c149 0 256 128 256 301c0 174 -106 297 -256 297c-151 0 -256 -128 -256 -297c0 -173 104 -301 256 -301z" />
    <glyph glyph-name="OE" unicode="&#x152;" horiz-adv-x="1085" 
d="M364 -10c-179 0 -306 144 -306 350c0 197 131 346 306 346c117 0 209 -62 258 -164v154h413v-49h-362v-252h317v-50h-317v-275h373v-50h-424v159c-49 -103 -143 -169 -258 -169zM365 38c149 0 256 131 256 303c0 173 -105 297 -256 297s-256 -129 -256 -297
c0 -173 103 -303 256 -303z" />
    <glyph glyph-name="P" unicode="P" horiz-adv-x="584" 
d="M91 0v676h217c141 0 224 -82 224 -204c0 -121 -86 -203 -224 -203h-167v-269h-50zM141 318h159c114 0 180 53 180 154c0 102 -65 156 -180 156h-159v-310z" />
    <glyph glyph-name="Thorn" unicode="&#xde;" 
d="M91 0v676h50v-99h167c139 0 224 -82 224 -204c0 -121 -86 -203 -224 -203h-167v-170h-50zM141 219h159c114 0 179 53 179 154c0 102 -64 156 -179 156h-159v-310z" />
    <glyph glyph-name="Q" unicode="Q" horiz-adv-x="730" 
d="M624 -90l-97 129c-46 -31 -101 -49 -162 -49c-180 0 -307 145 -307 350c0 196 131 346 307 346c179 0 307 -144 307 -346c0 -112 -40 -208 -107 -271l99 -131zM365 38c50 0 95 15 133 41l-92 122l39 28l90 -120c53 55 86 136 86 231c0 174 -106 298 -256 298
c-151 0 -256 -129 -256 -298c0 -173 104 -302 256 -302z" />
    <glyph glyph-name="R" unicode="R" horiz-adv-x="595" 
d="M91 0v676h208c139 0 223 -72 223 -192c0 -88 -55 -154 -146 -177c47 -24 80 -67 120 -146l81 -161h-57l-69 136c-47 93 -83 155 -203 155h-107v-291h-50zM141 339h151c115 0 179 54 179 144c0 99 -64 145 -179 145h-151v-289z" />
    <glyph glyph-name="S" unicode="S" horiz-adv-x="570" 
d="M287 -10c-104 0 -186 37 -251 102l33 33c62 -61 133 -87 221 -87c111 0 177 48 177 129c0 89 -64 127 -192 156c-150 35 -218 80 -218 191c0 95 93 172 225 172c85 0 152 -31 209 -89l-32 -33c-51 49 -111 74 -177 74c-107 0 -176 -51 -176 -125c0 -85 60 -114 197 -144
c145 -34 214 -94 214 -199c0 -109 -83 -180 -230 -180z" />
    <glyph glyph-name="Scaron" unicode="&#x160;" horiz-adv-x="570" 
d="M255 744l-119 122h59l89 -86l89 86h58l-120 -122h-56zM287 -10c-104 0 -186 37 -251 102l33 33c62 -61 133 -87 221 -87c111 0 177 48 177 129c0 89 -64 127 -192 156c-150 35 -218 80 -218 191c0 95 93 172 225 172c85 0 152 -31 209 -89l-32 -33
c-51 49 -111 74 -177 74c-107 0 -176 -51 -176 -125c0 -85 60 -114 197 -144c145 -34 214 -94 214 -199c0 -109 -83 -180 -230 -180z" />
    <glyph glyph-name="uni1E9E" unicode="&#x1e9e;" horiz-adv-x="664" 
d="M411 -10c-78 0 -141 25 -197 77l29 34c54 -46 100 -64 164 -64c98 0 161 55 161 138c0 92 -69 151 -182 151h-64v36l182 221c-37 32 -90 56 -157 56c-131 0 -211 -85 -211 -250v-389h-51v389c0 188 105 297 261 297c105 0 176 -49 220 -92l-186 -225l26 -1
c125 -1 212 -78 212 -189c0 -113 -83 -189 -207 -189z" />
    <glyph glyph-name="T" unicode="T" horiz-adv-x="607" 
d="M278 0v627h-240v49h531v-49h-240v-627h-51z" />
    <glyph glyph-name="U" unicode="U" horiz-adv-x="675" 
d="M336 -10c-164 0 -254 117 -254 322v364h51v-364c0 -175 70 -274 203 -274c132 0 205 100 205 274v364h51v-364c0 -199 -95 -322 -256 -322z" />
    <glyph glyph-name="Uacute" unicode="&#xda;" horiz-adv-x="675" 
d="M287 744l122 122h69l-131 -122h-60zM336 -10c-164 0 -254 117 -254 322v364h51v-364c0 -175 70 -274 203 -274c132 0 205 100 205 274v364h51v-364c0 -199 -95 -322 -256 -322z" />
    <glyph glyph-name="Ucircumflex" unicode="&#xdb;" horiz-adv-x="675" 
d="M190 744l120 122h56l119 -122h-59l-89 85l-89 -85h-58zM336 -10c-164 0 -254 117 -254 322v364h51v-364c0 -175 70 -274 203 -274c132 0 205 100 205 274v364h51v-364c0 -199 -95 -322 -256 -322z" />
    <glyph glyph-name="Udieresis" unicode="&#xdc;" horiz-adv-x="675" 
d="M252 762c-23 0 -39 16 -39 37c0 22 16 38 39 38c22 0 39 -17 39 -38s-17 -37 -39 -37zM424 762c-22 0 -39 16 -39 37c0 22 17 38 39 38c23 0 39 -16 39 -38c0 -21 -16 -37 -39 -37zM336 -10c-164 0 -254 117 -254 322v364h51v-364c0 -175 70 -274 203 -274
c132 0 205 100 205 274v364h51v-364c0 -199 -95 -322 -256 -322z" />
    <glyph glyph-name="Ugrave" unicode="&#xd9;" horiz-adv-x="675" 
d="M329 744l-131 122h69l122 -122h-60zM336 -10c-164 0 -254 117 -254 322v364h51v-364c0 -175 70 -274 203 -274c132 0 205 100 205 274v364h51v-364c0 -199 -95 -322 -256 -322z" />
    <glyph glyph-name="V" unicode="V" horiz-adv-x="629" 
d="M290 0l-264 676h55l234 -608l236 608h52l-266 -676h-47z" />
    <glyph glyph-name="W" unicode="W" horiz-adv-x="933" 
d="M232 0l-199 676h54l170 -604l189 564h50l179 -564l173 604h52l-200 -676h-49l-184 564l-185 -564h-50z" />
    <glyph glyph-name="Wacute" unicode="&#x1e82;" horiz-adv-x="933" 
d="M416 744l122 122h69l-131 -122h-60zM232 0l-199 676h54l170 -604l189 564h50l179 -564l173 604h52l-200 -676h-49l-184 564l-185 -564h-50z" />
    <glyph glyph-name="Wcircumflex" unicode="&#x174;" horiz-adv-x="933" 
d="M319 744l120 122h56l119 -122h-59l-89 85l-89 -85h-58zM232 0l-199 676h54l170 -604l189 564h50l179 -564l173 604h52l-200 -676h-49l-184 564l-185 -564h-50z" />
    <glyph glyph-name="Wdieresis" unicode="&#x1e84;" horiz-adv-x="933" 
d="M381 762c-23 0 -39 16 -39 37c0 22 16 38 39 38c22 0 39 -17 39 -38s-17 -37 -39 -37zM553 762c-22 0 -39 16 -39 37c0 22 17 38 39 38c23 0 39 -16 39 -38c0 -21 -16 -37 -39 -37zM232 0l-199 676h54l170 -604l189 564h50l179 -564l173 604h52l-200 -676h-49l-184 564
l-185 -564h-50z" />
    <glyph glyph-name="Wgrave" unicode="&#x1e80;" horiz-adv-x="933" 
d="M458 744l-131 122h69l122 -122h-60zM232 0l-199 676h54l170 -604l189 564h50l179 -564l173 604h52l-200 -676h-49l-184 564l-185 -564h-50z" />
    <glyph glyph-name="X" unicode="X" horiz-adv-x="629" 
d="M31 0l252 356l-228 320h62l198 -282l200 282h58l-229 -320l254 -356h-62l-224 315l-223 -315h-58z" />
    <glyph glyph-name="Y" unicode="Y" horiz-adv-x="546" 
d="M247 0v263l-227 413h55l198 -365l199 365h55l-229 -413v-263h-51z" />
    <glyph glyph-name="Yacute" unicode="&#xdd;" horiz-adv-x="546" 
d="M222 744l122 122h69l-131 -122h-60zM247 0v263l-227 413h55l198 -365l199 365h55l-229 -413v-263h-51z" />
    <glyph glyph-name="Ycircumflex" unicode="&#x176;" horiz-adv-x="546" 
d="M125 744l120 122h56l119 -122h-59l-89 85l-89 -85h-58zM247 0v263l-227 413h55l198 -365l199 365h55l-229 -413v-263h-51z" />
    <glyph glyph-name="Ydieresis" unicode="&#x178;" horiz-adv-x="546" 
d="M187 762c-23 0 -39 16 -39 37c0 22 16 38 39 38c22 0 39 -17 39 -38s-17 -37 -39 -37zM359 762c-22 0 -39 16 -39 37c0 22 17 38 39 38c23 0 39 -16 39 -38c0 -21 -16 -37 -39 -37zM247 0v263l-227 413h55l198 -365l199 365h55l-229 -413v-263h-51z" />
    <glyph glyph-name="Ygrave" unicode="&#x1ef2;" horiz-adv-x="546" 
d="M265 744l-131 122h69l122 -122h-60zM247 0v263l-227 413h55l198 -365l199 365h55l-229 -413v-263h-51z" />
    <glyph glyph-name="Z" unicode="Z" horiz-adv-x="596" 
d="M42 0v40l439 587h-425v49h491v-39l-439 -587h450v-50h-516z" />
    <glyph glyph-name="Zcaron" unicode="&#x17d;" horiz-adv-x="596" 
d="M271 744l-119 122h59l89 -86l89 86h58l-120 -122h-56zM42 0v40l439 587h-425v49h491v-39l-439 -587h450v-50h-516z" />
    <glyph glyph-name="a" unicode="a" horiz-adv-x="527" 
d="M211 -10c-97 0 -158 55 -158 142c0 94 76 151 201 151h151v30c0 114 -48 166 -147 166c-55 0 -110 -24 -151 -66l-33 31c46 50 115 82 185 82c128 0 195 -72 195 -219v-307h-32l-15 81c-50 -54 -121 -91 -196 -91zM215 36c72 0 142 38 190 96v107h-153
c-93 0 -150 -39 -150 -106c0 -59 45 -97 113 -97z" />
    <glyph glyph-name="aacute" unicode="&#xe1;" horiz-adv-x="527" 
d="M212 599l122 131h66l-130 -131h-58zM211 -10c-97 0 -158 55 -158 142c0 94 76 151 201 151h151v30c0 114 -48 166 -147 166c-55 0 -110 -24 -151 -66l-33 31c46 50 115 82 185 82c128 0 195 -72 195 -219v-307h-32l-15 81c-50 -54 -121 -91 -196 -91zM215 36
c72 0 142 38 190 96v107h-153c-93 0 -150 -39 -150 -106c0 -59 45 -97 113 -97z" />
    <glyph glyph-name="acircumflex" unicode="&#xe2;" horiz-adv-x="527" 
d="M117 599l118 131h53l118 -131h-56l-89 93l-89 -93h-55zM211 -10c-97 0 -158 55 -158 142c0 94 76 151 201 151h151v30c0 114 -48 166 -147 166c-55 0 -110 -24 -151 -66l-33 31c46 50 115 82 185 82c128 0 195 -72 195 -219v-307h-32l-15 81c-50 -54 -121 -91 -196 -91z
M215 36c72 0 142 38 190 96v107h-153c-93 0 -150 -39 -150 -106c0 -59 45 -97 113 -97z" />
    <glyph glyph-name="adieresis" unicode="&#xe4;" horiz-adv-x="527" 
d="M176 629c-23 0 -38 17 -38 38c0 23 15 40 38 40c22 0 38 -17 38 -40c0 -21 -16 -38 -38 -38zM347 629c-22 0 -37 17 -37 38c0 23 15 40 37 40c23 0 39 -17 39 -40c0 -21 -16 -38 -39 -38zM211 -10c-97 0 -158 55 -158 142c0 94 76 151 201 151h151v30
c0 114 -48 166 -147 166c-55 0 -110 -24 -151 -66l-33 31c46 50 115 82 185 82c128 0 195 -72 195 -219v-307h-32l-15 81c-50 -54 -121 -91 -196 -91zM215 36c72 0 142 38 190 96v107h-153c-93 0 -150 -39 -150 -106c0 -59 45 -97 113 -97z" />
    <glyph glyph-name="agrave" unicode="&#xe0;" horiz-adv-x="527" 
d="M255 599l-130 131h67l121 -131h-58zM211 -10c-97 0 -158 55 -158 142c0 94 76 151 201 151h151v30c0 114 -48 166 -147 166c-55 0 -110 -24 -151 -66l-33 31c46 50 115 82 185 82c128 0 195 -72 195 -219v-307h-32l-15 81c-50 -54 -121 -91 -196 -91zM215 36
c72 0 142 38 190 96v107h-153c-93 0 -150 -39 -150 -106c0 -59 45 -97 113 -97z" />
    <glyph glyph-name="aring" unicode="&#xe5;" horiz-adv-x="527" 
d="M261 591c-62 0 -116 50 -116 115s54 114 116 114s117 -50 117 -114c0 -66 -55 -115 -117 -115zM261 630c41 0 75 32 75 76c0 43 -34 74 -75 74c-40 0 -74 -31 -74 -74c0 -44 34 -76 74 -76zM211 -10c-97 0 -158 55 -158 142c0 94 76 151 201 151h151v30
c0 114 -48 166 -147 166c-55 0 -110 -24 -151 -66l-33 31c46 50 115 82 185 82c128 0 195 -72 195 -219v-307h-32l-15 81c-50 -54 -121 -91 -196 -91zM215 36c72 0 142 38 190 96v107h-153c-93 0 -150 -39 -150 -106c0 -59 45 -97 113 -97z" />
    <glyph glyph-name="atilde" unicode="&#xe3;" horiz-adv-x="527" 
d="M338 616c-32 0 -55 14 -79 27c-21 12 -40 24 -64 24c-30 0 -57 -17 -86 -42v48c29 25 54 39 86 39s55 -14 79 -26c22 -12 41 -25 65 -25c36 0 63 22 87 42v-48c-25 -21 -50 -39 -88 -39zM211 -10c-97 0 -158 55 -158 142c0 94 76 151 201 151h151v30
c0 114 -48 166 -147 166c-55 0 -110 -24 -151 -66l-33 31c46 50 115 82 185 82c128 0 195 -72 195 -219v-307h-32l-15 81c-50 -54 -121 -91 -196 -91zM215 36c72 0 142 38 190 96v107h-153c-93 0 -150 -39 -150 -106c0 -59 45 -97 113 -97z" />
    <glyph glyph-name="ae" unicode="&#xe6;" horiz-adv-x="908" 
d="M211 -10c-97 0 -158 56 -158 142c0 95 76 153 201 153h151v28c0 114 -48 166 -147 166c-55 0 -110 -24 -151 -66l-33 31c46 50 115 82 185 82c96 0 156 -42 179 -127c39 78 111 127 200 127c136 0 219 -106 219 -264v-18h-402c5 -122 80 -207 196 -207
c56 0 107 23 147 60l32 -31c-51 -48 -110 -76 -179 -76c-96 0 -168 44 -209 117c-57 -70 -141 -117 -231 -117zM456 288h349c-5 117 -66 193 -170 193c-101 0 -171 -78 -179 -193zM215 35c84 0 161 47 209 112c-10 28 -16 60 -18 94h-154c-93 0 -150 -40 -150 -108
c0 -58 45 -98 113 -98z" />
    <glyph glyph-name="b" unicode="b" horiz-adv-x="589" 
d="M287 -8c-58 0 -122 27 -164 68l-12 -60h-32v726l51 13v-298c47 52 114 85 182 85c135 0 225 -103 225 -265c0 -165 -108 -269 -250 -269zM283 39c121 0 203 79 203 221c0 139 -67 219 -178 219c-69 0 -132 -36 -178 -94v-279c42 -38 97 -67 153 -67z" />
    <glyph glyph-name="c" unicode="c" horiz-adv-x="517" 
d="M293 -10c-144 0 -241 108 -241 268c0 158 102 268 246 268c70 0 127 -31 167 -76l-33 -32c-34 38 -78 61 -134 61c-117 0 -196 -88 -196 -221c0 -132 79 -222 192 -222c60 0 108 24 147 62l32 -32c-45 -46 -104 -76 -180 -76z" />
    <glyph glyph-name="ccedilla" unicode="&#xe7;" horiz-adv-x="517" 
d="M473 66c-41 -42 -93 -70 -159 -75c18 -22 31 -47 31 -74c0 -64 -53 -94 -123 -94h-21v42h20c43 0 77 17 77 58c0 23 -13 46 -35 69c-127 13 -211 117 -211 266c0 158 102 268 246 268c70 0 127 -31 167 -76l-33 -32c-34 38 -78 61 -134 61c-117 0 -196 -88 -196 -221
c0 -132 79 -222 192 -222c60 0 108 24 147 62z" />
    <glyph glyph-name="d" unicode="d" horiz-adv-x="589" 
d="M277 -10c-135 0 -225 103 -225 266c0 165 108 270 250 270c59 0 118 -26 158 -58v258l50 13v-739h-32l-15 78c-47 -54 -116 -88 -186 -88zM282 37c70 0 132 37 178 96v284c-43 37 -97 63 -154 63c-120 0 -203 -80 -203 -223c0 -140 68 -220 179 -220z" />
    <glyph glyph-name="eth" unicode="&#xf0;" 
d="M293 -10c-143 0 -243 108 -243 255s97 257 242 257c64 0 130 -26 170 -58c-19 60 -49 110 -88 155l-143 -41v42l111 33c-33 33 -73 63 -118 91l56 15c40 -26 79 -57 113 -91l122 35v-42l-93 -27c69 -85 114 -191 114 -329c0 -168 -93 -295 -243 -295zM293 36
c122 0 193 105 193 247c0 36 -3 70 -9 100c-44 41 -107 73 -176 73c-124 0 -201 -82 -201 -210c0 -116 78 -210 193 -210z" />
    <glyph glyph-name="e" unicode="e" horiz-adv-x="554" 
d="M297 -10c-151 0 -245 112 -245 271c0 153 96 265 233 265c136 0 218 -106 218 -264v-16h-401c4 -123 80 -209 196 -209c55 0 107 22 147 60l32 -31c-49 -48 -109 -76 -180 -76zM103 291h349c-6 116 -67 190 -170 190c-100 0 -170 -77 -179 -190z" />
    <glyph glyph-name="eacute" unicode="&#xe9;" horiz-adv-x="554" 
d="M233 599l122 131h66l-130 -131h-58zM297 -10c-151 0 -245 112 -245 271c0 153 96 265 233 265c136 0 218 -106 218 -264v-16h-401c4 -123 80 -209 196 -209c55 0 107 22 147 60l32 -31c-49 -48 -109 -76 -180 -76zM103 291h349c-6 116 -67 190 -170 190
c-100 0 -170 -77 -179 -190z" />
    <glyph glyph-name="ecircumflex" unicode="&#xea;" horiz-adv-x="554" 
d="M139 599l118 131h53l118 -131h-56l-89 93l-89 -93h-55zM297 -10c-151 0 -245 112 -245 271c0 153 96 265 233 265c136 0 218 -106 218 -264v-16h-401c4 -123 80 -209 196 -209c55 0 107 22 147 60l32 -31c-49 -48 -109 -76 -180 -76zM103 291h349
c-6 116 -67 190 -170 190c-100 0 -170 -77 -179 -190z" />
    <glyph glyph-name="edieresis" unicode="&#xeb;" horiz-adv-x="554" 
d="M198 629c-23 0 -38 17 -38 38c0 23 15 40 38 40c22 0 38 -17 38 -40c0 -21 -16 -38 -38 -38zM369 629c-22 0 -37 17 -37 38c0 23 15 40 37 40c23 0 39 -17 39 -40c0 -21 -16 -38 -39 -38zM297 -10c-151 0 -245 112 -245 271c0 153 96 265 233 265
c136 0 218 -106 218 -264v-16h-401c4 -123 80 -209 196 -209c55 0 107 22 147 60l32 -31c-49 -48 -109 -76 -180 -76zM103 291h349c-6 116 -67 190 -170 190c-100 0 -170 -77 -179 -190z" />
    <glyph glyph-name="egrave" unicode="&#xe8;" horiz-adv-x="554" 
d="M276 599l-130 131h67l121 -131h-58zM297 -10c-151 0 -245 112 -245 271c0 153 96 265 233 265c136 0 218 -106 218 -264v-16h-401c4 -123 80 -209 196 -209c55 0 107 22 147 60l32 -31c-49 -48 -109 -76 -180 -76zM103 291h349c-6 116 -67 190 -170 190
c-100 0 -170 -77 -179 -190z" />
    <glyph glyph-name="f" unicode="f" horiz-adv-x="386" 
d="M79 0v544c0 118 65 195 176 195c41 0 80 -15 112 -41l-25 -36c-24 19 -52 30 -89 30c-80 0 -123 -59 -123 -145v-31h225v-45h-225v-471h-51z" />
    <glyph glyph-name="g" unicode="g" horiz-adv-x="584" 
d="M273 -222c-91 0 -157 32 -204 79l31 34c41 -40 97 -67 172 -67c111 0 182 66 182 187v81c-48 -51 -115 -84 -182 -84c-134 0 -223 102 -223 257c0 159 108 261 248 261c63 0 125 -28 165 -63l11 53h31v-506c0 -141 -91 -232 -231 -232zM278 54c67 0 130 36 176 93v271
c-42 36 -96 62 -153 62c-118 0 -202 -78 -202 -215c0 -131 69 -211 179 -211z" />
    <glyph glyph-name="h" unicode="h" horiz-adv-x="571" 
d="M79 0v726l51 13v-305c53 63 122 92 185 92c120 0 183 -83 183 -230v-296h-50v288c0 114 -34 191 -140 191c-65 0 -128 -35 -178 -102v-377h-51z" />
    <glyph glyph-name="i" unicode="i" horiz-adv-x="213" 
d="M107 629c-23 0 -38 17 -38 38c0 23 15 40 38 40s38 -17 38 -40c0 -21 -15 -38 -38 -38zM81 0v516h51v-516h-51z" />
    <glyph glyph-name="dotlessi" unicode="&#x131;" horiz-adv-x="213" 
d="M81 0v516h51v-516h-51z" />
    <glyph glyph-name="iacute" unicode="&#xed;" horiz-adv-x="213" 
d="M78 599l97 131h62l-105 -131h-54zM81 0v516h51v-516h-51z" />
    <glyph glyph-name="icircumflex" unicode="&#xee;" horiz-adv-x="213" 
d="M-38 599l118 131h53l118 -131h-56l-89 93l-89 -93h-55zM81 0v516h51v-516h-51z" />
    <glyph glyph-name="idieresis" unicode="&#xef;" horiz-adv-x="213" 
d="M21 629c-23 0 -38 17 -38 38c0 23 15 40 38 40c22 0 38 -17 38 -40c0 -21 -16 -38 -38 -38zM192 629c-22 0 -37 17 -37 38c0 23 15 40 37 40c23 0 39 -17 39 -40c0 -21 -16 -38 -39 -38zM81 0v516h51v-516h-51z" />
    <glyph glyph-name="igrave" unicode="&#xec;" horiz-adv-x="213" 
d="M83 599l-105 131h63l96 -131h-54zM81 0v516h51v-516h-51z" />
    <glyph glyph-name="j" unicode="j" horiz-adv-x="213" 
d="M107 629c-23 0 -38 17 -38 38c0 23 15 40 38 40s38 -17 38 -40c0 -21 -15 -38 -38 -38zM-42 -211v46h21c66 0 102 44 102 121v560h51v-554c0 -110 -55 -173 -151 -173h-23z" />
    <glyph glyph-name="uni0237" unicode="&#x237;" horiz-adv-x="213" 
d="M-42 -211v46h21c66 0 102 44 102 121v560h51v-554c0 -110 -55 -173 -151 -173h-23z" />
    <glyph glyph-name="k" unicode="k" horiz-adv-x="535" 
d="M79 0v726l51 13v-450h87c54 0 88 24 130 90l86 137h55l-100 -157c-23 -36 -46 -66 -75 -87l209 -272h-62l-192 249c-13 -4 -28 -6 -44 -6h-94v-243h-51z" />
    <glyph glyph-name="l" unicode="l" horiz-adv-x="270" 
d="M224 -5c-96 0 -151 62 -151 172v559l51 13v-577c0 -78 37 -122 103 -122h21v-45h-24z" />
    <glyph glyph-name="m" unicode="m" horiz-adv-x="876" 
d="M79 0v516h32l17 -84c49 60 112 94 173 94c67 0 118 -30 145 -91c50 60 121 91 185 91c105 0 172 -68 172 -209v-317h-50v310c0 106 -40 169 -131 169c-57 0 -116 -29 -162 -87c5 -22 8 -46 8 -75v-317h-50v310c0 106 -37 169 -126 169c-60 0 -116 -39 -162 -103v-376h-51
z" />
    <glyph glyph-name="n" unicode="n" horiz-adv-x="570" 
d="M79 0v516h32l16 -85c53 65 124 95 188 95c119 0 182 -83 182 -230v-296h-50v288c0 114 -33 191 -139 191c-65 0 -129 -35 -178 -102v-377h-51z" />
    <glyph glyph-name="ntilde" unicode="&#xf1;" horiz-adv-x="570" 
d="M364 616c-32 0 -55 14 -79 27c-21 12 -40 24 -64 24c-30 0 -57 -17 -86 -42v48c29 25 54 39 86 39s55 -14 79 -26c22 -12 41 -25 65 -25c36 0 63 22 87 42v-48c-25 -21 -50 -39 -88 -39zM79 0v516h32l16 -85c53 65 124 95 188 95c119 0 182 -83 182 -230v-296h-50v288
c0 114 -33 191 -139 191c-65 0 -129 -35 -178 -102v-377h-51z" />
    <glyph glyph-name="o" unicode="o" horiz-adv-x="593" 
d="M296 -10c-143 0 -244 111 -244 269c0 153 103 267 244 267c144 0 245 -110 245 -267c0 -155 -103 -269 -245 -269zM296 36c116 0 195 91 195 223c0 131 -79 220 -195 220s-193 -92 -193 -220c0 -132 77 -223 193 -223z" />
    <glyph glyph-name="oacute" unicode="&#xf3;" horiz-adv-x="593" 
d="M246 599l122 131h66l-130 -131h-58zM296 -10c-143 0 -244 111 -244 269c0 153 103 267 244 267c144 0 245 -110 245 -267c0 -155 -103 -269 -245 -269zM296 36c116 0 195 91 195 223c0 131 -79 220 -195 220s-193 -92 -193 -220c0 -132 77 -223 193 -223z" />
    <glyph glyph-name="ocircumflex" unicode="&#xf4;" horiz-adv-x="593" 
d="M152 599l118 131h53l118 -131h-56l-89 93l-89 -93h-55zM296 -10c-143 0 -244 111 -244 269c0 153 103 267 244 267c144 0 245 -110 245 -267c0 -155 -103 -269 -245 -269zM296 36c116 0 195 91 195 223c0 131 -79 220 -195 220s-193 -92 -193 -220
c0 -132 77 -223 193 -223z" />
    <glyph glyph-name="odieresis" unicode="&#xf6;" horiz-adv-x="593" 
d="M211 629c-23 0 -38 17 -38 38c0 23 15 40 38 40c22 0 38 -17 38 -40c0 -21 -16 -38 -38 -38zM382 629c-22 0 -37 17 -37 38c0 23 15 40 37 40c23 0 39 -17 39 -40c0 -21 -16 -38 -39 -38zM296 -10c-143 0 -244 111 -244 269c0 153 103 267 244 267
c144 0 245 -110 245 -267c0 -155 -103 -269 -245 -269zM296 36c116 0 195 91 195 223c0 131 -79 220 -195 220s-193 -92 -193 -220c0 -132 77 -223 193 -223z" />
    <glyph glyph-name="ograve" unicode="&#xf2;" horiz-adv-x="593" 
d="M289 599l-130 131h67l121 -131h-58zM296 -10c-143 0 -244 111 -244 269c0 153 103 267 244 267c144 0 245 -110 245 -267c0 -155 -103 -269 -245 -269zM296 36c116 0 195 91 195 223c0 131 -79 220 -195 220s-193 -92 -193 -220c0 -132 77 -223 193 -223z" />
    <glyph glyph-name="oslash" unicode="&#xf8;" horiz-adv-x="593" 
d="M46 -37l75 101c-44 48 -69 115 -69 195c0 153 103 267 244 267c54 0 102 -15 140 -43l53 69h54l-74 -98c46 -46 72 -115 72 -195c0 -155 -103 -269 -245 -269c-54 0 -103 16 -142 45l-54 -72h-54zM151 104l256 340c-30 23 -68 35 -111 35c-116 0 -193 -92 -193 -220
c0 -62 17 -116 48 -155zM296 36c116 0 195 91 195 223c0 63 -19 117 -51 155l-257 -340c31 -24 69 -38 113 -38z" />
    <glyph glyph-name="otilde" unicode="&#xf5;" horiz-adv-x="593" 
d="M373 616c-32 0 -55 14 -79 27c-21 12 -40 24 -64 24c-30 0 -57 -17 -86 -42v48c29 25 54 39 86 39s55 -14 79 -26c22 -12 41 -25 65 -25c36 0 63 22 87 42v-48c-25 -21 -50 -39 -88 -39zM296 -10c-143 0 -244 111 -244 269c0 153 103 267 244 267
c144 0 245 -110 245 -267c0 -155 -103 -269 -245 -269zM296 36c116 0 195 91 195 223c0 131 -79 220 -195 220s-193 -92 -193 -220c0 -132 77 -223 193 -223z" />
    <glyph glyph-name="oe" unicode="&#x153;" horiz-adv-x="996" 
d="M296 -10c-143 0 -244 111 -244 269c0 153 103 267 244 267c102 0 183 -57 221 -146c35 89 112 146 209 146c137 0 219 -106 219 -264v-16h-402c5 -123 81 -209 196 -209c56 0 107 23 147 60l32 -31c-50 -48 -109 -76 -179 -76c-108 0 -187 57 -223 149
c-37 -90 -118 -149 -220 -149zM544 291h349c-4 116 -66 190 -170 190c-100 0 -169 -77 -179 -190zM296 37c116 0 195 91 195 222s-79 220 -195 220s-194 -92 -194 -220c0 -131 78 -222 194 -222z" />
    <glyph glyph-name="p" unicode="p" horiz-adv-x="589" 
d="M79 -219v735h32l16 -78c47 54 116 88 185 88c135 0 225 -103 225 -265c0 -165 -108 -269 -250 -269c-58 0 -118 25 -157 57v-256zM283 39c120 0 203 79 203 221c0 139 -67 219 -178 219c-69 0 -132 -36 -178 -94v-284c42 -36 96 -62 153 -62z" />
    <glyph glyph-name="thorn" unicode="&#xfe;" horiz-adv-x="589" 
d="M79 -219v945l51 13v-297c47 52 114 84 182 84c135 0 225 -103 225 -265c0 -165 -108 -269 -250 -269c-55 0 -115 24 -157 63v-262zM283 39c121 0 203 79 203 221c0 139 -67 219 -178 219c-69 0 -132 -36 -178 -94v-279c42 -38 97 -67 153 -67z" />
    <glyph glyph-name="q" unicode="q" horiz-adv-x="589" 
d="M460 -219v294c-48 -51 -115 -85 -183 -85c-135 0 -225 103 -225 266c0 165 108 270 250 270c62 0 126 -28 165 -64l11 54h32v-723zM282 37c70 0 132 37 178 96v284c-43 37 -97 63 -154 63c-120 0 -203 -80 -203 -223c0 -140 68 -220 179 -220z" />
    <glyph glyph-name="r" unicode="r" horiz-adv-x="369" 
d="M79 0v516h32l17 -85c55 64 130 93 197 93h13v-48h-20c-69 0 -135 -33 -188 -100v-376h-51z" />
    <glyph glyph-name="s" unicode="s" horiz-adv-x="486" 
d="M251 -10c-88 0 -154 30 -205 82l33 33c47 -46 102 -68 174 -68c86 0 134 33 134 92c0 65 -49 94 -146 113c-129 26 -176 61 -176 149c0 75 73 135 181 135c72 0 128 -26 173 -74l-33 -32c-40 40 -87 59 -140 59c-81 0 -133 -34 -133 -89c0 -63 44 -82 150 -104
c123 -25 175 -71 175 -154c0 -86 -66 -142 -187 -142z" />
    <glyph glyph-name="scaron" unicode="&#x161;" horiz-adv-x="486" 
d="M221 599l-118 131h56l89 -93l89 93h55l-118 -131h-53zM251 -10c-88 0 -154 30 -205 82l33 33c47 -46 102 -68 174 -68c86 0 134 33 134 92c0 65 -49 94 -146 113c-129 26 -176 61 -176 149c0 75 73 135 181 135c72 0 128 -26 173 -74l-33 -32c-40 40 -87 59 -140 59
c-81 0 -133 -34 -133 -89c0 -63 44 -82 150 -104c123 -25 175 -71 175 -154c0 -86 -66 -142 -187 -142z" />
    <glyph glyph-name="germandbls" unicode="&#xdf;" horiz-adv-x="622" 
d="M396 -10c-75 0 -134 22 -182 66l28 34c44 -36 87 -53 148 -53c87 0 136 37 136 99c0 67 -56 93 -114 118c-64 27 -130 41 -130 120c0 49 36 83 72 114c35 30 70 62 70 107c0 62 -47 98 -129 98c-100 0 -166 -76 -166 -191v-502h-50v501c0 143 93 238 218 238
c112 0 175 -59 175 -140c0 -61 -43 -99 -82 -133c-32 -28 -61 -53 -61 -87c0 -53 55 -65 115 -91c61 -26 132 -65 132 -152c0 -90 -68 -146 -180 -146z" />
    <glyph glyph-name="t" unicode="t" horiz-adv-x="388" 
d="M247 -9c-107 0 -167 71 -167 187v466l51 12v-140h211v-45h-211v-296c0 -85 40 -137 114 -137c40 0 63 9 86 28l27 -35c-32 -26 -68 -40 -111 -40z" />
    <glyph glyph-name="u" unicode="u" horiz-adv-x="569" 
d="M256 -10c-120 0 -181 83 -181 230v296h51v-288c0 -113 30 -191 139 -191c63 0 124 36 174 102v377h50v-516h-31l-17 85c-52 -65 -121 -95 -185 -95z" />
    <glyph glyph-name="uacute" unicode="&#xfa;" horiz-adv-x="569" 
d="M233 599l122 131h66l-130 -131h-58zM256 -10c-120 0 -181 83 -181 230v296h51v-288c0 -113 30 -191 139 -191c63 0 124 36 174 102v377h50v-516h-31l-17 85c-52 -65 -121 -95 -185 -95z" />
    <glyph glyph-name="ucircumflex" unicode="&#xfb;" horiz-adv-x="569" 
d="M139 599l118 131h53l118 -131h-56l-89 93l-89 -93h-55zM256 -10c-120 0 -181 83 -181 230v296h51v-288c0 -113 30 -191 139 -191c63 0 124 36 174 102v377h50v-516h-31l-17 85c-52 -65 -121 -95 -185 -95z" />
    <glyph glyph-name="udieresis" unicode="&#xfc;" horiz-adv-x="569" 
d="M198 629c-23 0 -38 17 -38 38c0 23 15 40 38 40c22 0 38 -17 38 -40c0 -21 -16 -38 -38 -38zM369 629c-22 0 -37 17 -37 38c0 23 15 40 37 40c23 0 39 -17 39 -40c0 -21 -16 -38 -39 -38zM256 -10c-120 0 -181 83 -181 230v296h51v-288c0 -113 30 -191 139 -191
c63 0 124 36 174 102v377h50v-516h-31l-17 85c-52 -65 -121 -95 -185 -95z" />
    <glyph glyph-name="ugrave" unicode="&#xf9;" horiz-adv-x="569" 
d="M276 599l-130 131h67l121 -131h-58zM256 -10c-120 0 -181 83 -181 230v296h51v-288c0 -113 30 -191 139 -191c63 0 124 36 174 102v377h50v-516h-31l-17 85c-52 -65 -121 -95 -185 -95z" />
    <glyph glyph-name="v" unicode="v" horiz-adv-x="521" 
d="M236 0l-215 516h55l185 -450l186 450h54l-218 -516h-47z" />
    <glyph glyph-name="w" unicode="w" horiz-adv-x="771" 
d="M192 0l-160 516h55l129 -446l150 408h48l143 -408l133 446h51l-160 -516h-48l-147 411l-146 -411h-48z" />
    <glyph glyph-name="wacute" unicode="&#x1e83;" horiz-adv-x="771" 
d="M335 599l122 131h66l-130 -131h-58zM192 0l-160 516h55l129 -446l150 408h48l143 -408l133 446h51l-160 -516h-48l-147 411l-146 -411h-48z" />
    <glyph glyph-name="wcircumflex" unicode="&#x175;" horiz-adv-x="771" 
d="M241 599l118 131h53l118 -131h-56l-89 93l-89 -93h-55zM192 0l-160 516h55l129 -446l150 408h48l143 -408l133 446h51l-160 -516h-48l-147 411l-146 -411h-48z" />
    <glyph glyph-name="wdieresis" unicode="&#x1e85;" horiz-adv-x="771" 
d="M300 629c-23 0 -38 17 -38 38c0 23 15 40 38 40c22 0 38 -17 38 -40c0 -21 -16 -38 -38 -38zM471 629c-22 0 -37 17 -37 38c0 23 15 40 37 40c23 0 39 -17 39 -40c0 -21 -16 -38 -39 -38zM192 0l-160 516h55l129 -446l150 408h48l143 -408l133 446h51l-160 -516h-48
l-147 411l-146 -411h-48z" />
    <glyph glyph-name="wgrave" unicode="&#x1e81;" horiz-adv-x="771" 
d="M378 599l-130 131h67l121 -131h-58zM192 0l-160 516h55l129 -446l150 408h48l143 -408l133 446h51l-160 -516h-48l-147 411l-146 -411h-48z" />
    <glyph glyph-name="x" unicode="x" horiz-adv-x="521" 
d="M30 0l200 270l-181 246h60l153 -209l152 209h58l-182 -245l201 -271h-62l-171 232l-171 -232h-57z" />
    <glyph glyph-name="y" unicode="y" horiz-adv-x="517" 
d="M66 -211v47h20c66 0 106 37 134 109l27 68l-228 503h55l197 -441l173 441h53l-234 -586c-39 -97 -92 -141 -175 -141h-22z" />
    <glyph glyph-name="yacute" unicode="&#xfd;" horiz-adv-x="517" 
d="M208 599l122 131h66l-130 -131h-58zM66 -211v47h20c66 0 106 37 134 109l27 68l-228 503h55l197 -441l173 441h53l-234 -586c-39 -97 -92 -141 -175 -141h-22z" />
    <glyph glyph-name="ycircumflex" unicode="&#x177;" horiz-adv-x="517" 
d="M114 599l118 131h53l118 -131h-56l-89 93l-89 -93h-55zM66 -211v47h20c66 0 106 37 134 109l27 68l-228 503h55l197 -441l173 441h53l-234 -586c-39 -97 -92 -141 -175 -141h-22z" />
    <glyph glyph-name="ydieresis" unicode="&#xff;" horiz-adv-x="517" 
d="M173 629c-23 0 -38 17 -38 38c0 23 15 40 38 40c22 0 38 -17 38 -40c0 -21 -16 -38 -38 -38zM344 629c-22 0 -37 17 -37 38c0 23 15 40 37 40c23 0 39 -17 39 -40c0 -21 -16 -38 -39 -38zM66 -211v47h20c66 0 106 37 134 109l27 68l-228 503h55l197 -441l173 441h53
l-234 -586c-39 -97 -92 -141 -175 -141h-22z" />
    <glyph glyph-name="ygrave" unicode="&#x1ef3;" horiz-adv-x="517" 
d="M251 599l-130 131h67l121 -131h-58zM66 -211v47h20c66 0 106 37 134 109l27 68l-228 503h55l197 -441l173 441h53l-234 -586c-39 -97 -92 -141 -175 -141h-22z" />
    <glyph glyph-name="z" unicode="z" horiz-adv-x="515" 
d="M56 0v38l340 433h-335v45h398v-38l-339 -432h347v-46h-411z" />
    <glyph glyph-name="zcaron" unicode="&#x17e;" horiz-adv-x="515" 
d="M229 599l-118 131h56l89 -93l89 93h55l-118 -131h-53zM56 0v38l340 433h-335v45h398v-38l-339 -432h347v-46h-411z" />
    <glyph glyph-name="ordfeminine" unicode="&#xaa;" horiz-adv-x="401" 
d="M161 285c-76 0 -122 41 -122 106c0 71 59 114 154 114h110v18c0 73 -30 117 -107 117c-40 0 -81 -16 -113 -47l-28 28c35 39 89 61 142 61c98 0 151 -55 151 -164v-226h-30l-13 58c-36 -37 -89 -65 -144 -65zM165 326c51 0 102 27 138 68v72h-112
c-66 0 -107 -27 -107 -74c0 -39 33 -66 81 -66z" />
    <glyph glyph-name="ordmasculine" unicode="&#xba;" horiz-adv-x="453" 
d="M226 285c-107 0 -185 82 -185 200c0 113 79 197 185 197c108 0 186 -82 186 -197c0 -116 -78 -200 -186 -200zM226 329c83 0 139 65 139 156c0 92 -56 154 -138 154s-137 -64 -137 -154c0 -91 54 -156 136 -156z" />
    <glyph glyph-name="uni03BC" unicode="&#x3bc;" horiz-adv-x="571" 
d="M78 -219v735h51v-289c0 -113 34 -190 142 -190c64 0 121 36 171 102v377h50v-516h-31l-17 85c-52 -64 -118 -95 -181 -95c-60 0 -105 24 -134 66v-263z" />
    <glyph glyph-name="zero" unicode="0" horiz-adv-x="617" 
d="M309 -10c-156 0 -252 140 -252 340c0 190 99 336 251 336c155 0 252 -140 252 -336c0 -195 -98 -340 -251 -340zM308 39c126 0 201 123 201 292c0 168 -74 286 -201 286c-126 0 -200 -124 -200 -286c0 -170 73 -292 200 -292z" />
    <glyph glyph-name="one" unicode="1" horiz-adv-x="356" 
d="M197 0v603l-159 -50v44l171 60h38v-657h-50z" />
    <glyph glyph-name="two" unicode="2" horiz-adv-x="555" 
d="M64 0v37l265 262c65 63 105 117 105 181c0 86 -56 138 -162 138c-71 0 -131 -31 -182 -83l-32 33c57 60 130 98 218 98c131 0 210 -72 210 -180c0 -75 -42 -141 -112 -209l-235 -229h355v-48h-430z" />
    <glyph glyph-name="three" unicode="3" horiz-adv-x="556" 
d="M263 -10c-91 0 -170 37 -222 87l33 34c46 -42 110 -72 188 -72c112 0 180 61 180 149c0 94 -76 143 -193 143h-56v33l214 245h-343v48h406v-37l-211 -244c141 -3 235 -69 235 -190c0 -113 -88 -196 -231 -196z" />
    <glyph glyph-name="four" unicode="4" horiz-adv-x="592" 
d="M395 0v181h-350v38l350 438h49v-429h104v-47h-104v-181h-49zM107 228h288v360z" />
    <glyph glyph-name="five" unicode="5" horiz-adv-x="545" 
d="M267 -10c-93 0 -167 37 -217 87l33 34c45 -42 104 -72 184 -72c101 0 167 60 167 153c0 95 -66 147 -174 147h-169v31l59 287h295v-48h-260l-44 -223h116c142 0 229 -69 229 -195c0 -119 -86 -201 -219 -201z" />
    <glyph glyph-name="six" unicode="6" horiz-adv-x="570" 
d="M303 -10c-148 0 -238 111 -238 309c0 224 94 367 257 367c68 0 128 -26 181 -84l-34 -31c-45 47 -90 67 -149 67c-120 0 -196 -103 -204 -268c58 32 129 48 194 48c131 0 209 -87 209 -201c0 -113 -89 -207 -216 -207zM300 38c105 0 167 68 167 161
c0 88 -57 152 -162 152c-67 0 -138 -18 -190 -49c0 -173 68 -264 185 -264z" />
    <glyph glyph-name="seven" unicode="7" horiz-adv-x="549" 
d="M161 0l282 610h-389v47h447v-34l-286 -623h-54z" />
    <glyph glyph-name="eight" unicode="8" horiz-adv-x="594" 
d="M297 -10c-139 0 -235 74 -235 183c0 73 48 137 131 182c-66 32 -109 78 -109 149c0 95 89 162 217 162c132 0 216 -69 216 -170c0 -63 -35 -124 -110 -165c76 -33 125 -83 125 -163c0 -108 -96 -178 -235 -178zM356 350c74 32 112 90 112 145c0 78 -65 126 -167 126
c-101 0 -167 -47 -167 -115c0 -77 61 -115 174 -143c17 -4 33 -8 48 -13zM299 36c106 0 182 50 182 131c0 87 -75 124 -189 153l-50 15c-80 -35 -129 -95 -129 -161c0 -83 77 -138 186 -138z" />
    <glyph glyph-name="nine" unicode="9" horiz-adv-x="570" 
d="M250 -10c-67 0 -131 25 -184 83l34 31c46 -45 91 -66 152 -66c127 0 197 96 203 278c-59 -32 -131 -48 -195 -48c-130 0 -209 79 -209 198c0 114 96 200 219 200c147 0 235 -111 235 -310c0 -234 -86 -366 -255 -366zM265 315c66 0 137 17 190 50
c-2 167 -68 253 -182 253c-103 0 -171 -60 -171 -154c0 -93 61 -149 163 -149z" />
    <glyph glyph-name="zero.zero" horiz-adv-x="617" 
d="M309 -10c-156 0 -252 140 -252 340c0 190 99 336 251 336c155 0 252 -140 252 -336c0 -195 -98 -340 -251 -340zM139 160l313 383c-34 47 -82 74 -144 74c-126 0 -201 -124 -201 -286c0 -66 11 -124 32 -171zM308 39c126 0 202 123 202 292c0 65 -11 122 -32 168
l-315 -383c34 -49 83 -77 145 -77z" />
    <glyph glyph-name="zero.tf" 
d="M293 -10c-151 0 -243 140 -243 340c0 189 95 336 242 336c150 0 244 -140 244 -336c0 -195 -94 -340 -243 -340zM292 39c122 0 194 124 194 292c0 167 -70 287 -193 287s-192 -125 -192 -287c0 -169 68 -292 191 -292z" />
    <glyph glyph-name="one.tf" 
d="M321 0v603l-181 -56v42l193 68h39v-657h-51z" />
    <glyph glyph-name="two.tf" 
d="M72 0v37l266 262c64 63 104 117 104 181c0 86 -56 138 -161 138c-72 0 -132 -31 -182 -83l-32 33c56 60 129 98 217 98c131 0 210 -72 210 -180c0 -75 -42 -141 -112 -209l-234 -229h354v-48h-430z" />
    <glyph glyph-name="three.tf" 
d="M282 -10c-92 0 -170 37 -223 87l33 34c47 -42 110 -72 189 -72c111 0 179 61 179 149c0 94 -75 143 -193 143h-55v33l213 245h-343v48h407v-37l-211 -244c140 -3 235 -69 235 -190c0 -113 -89 -196 -231 -196z" />
    <glyph glyph-name="four.tf" 
d="M395 0v181h-353v35l353 441h49v-430h104v-46h-104v-181h-49zM103 227h292v364z" />
    <glyph glyph-name="five.tf" 
d="M292 -10c-93 0 -167 37 -217 87l33 34c44 -42 103 -72 183 -72c102 0 167 60 167 153c0 95 -65 147 -174 147h-168v31l58 287h296v-48h-260l-44 -223h116c141 0 228 -69 228 -195c0 -119 -86 -201 -218 -201z" />
    <glyph glyph-name="six.tf" 
d="M316 -10c-149 0 -238 111 -238 309c0 224 94 367 257 367c67 0 127 -26 180 -84l-34 -31c-45 47 -90 67 -149 67c-119 0 -196 -103 -204 -268c59 32 129 48 195 48c130 0 208 -87 208 -201c0 -113 -89 -207 -215 -207zM312 38c106 0 168 68 168 161
c0 88 -57 152 -163 152c-66 0 -138 -18 -190 -49c0 -173 68 -264 185 -264z" />
    <glyph glyph-name="seven.tf" 
d="M175 0l282 610h-390v47h448v-34l-286 -623h-54z" />
    <glyph glyph-name="eight.tf" 
d="M293 -10c-139 0 -235 74 -235 183c0 73 48 137 131 182c-66 32 -109 78 -109 149c0 95 89 162 217 162c132 0 216 -69 216 -170c0 -63 -36 -124 -111 -165c76 -33 126 -83 126 -163c0 -108 -96 -178 -235 -178zM352 350c73 32 112 90 112 145c0 78 -65 126 -167 126
c-101 0 -167 -47 -167 -115c0 -77 61 -115 174 -143c17 -4 33 -8 48 -13zM294 36c106 0 183 50 183 131c0 87 -76 124 -190 153l-49 15c-80 -35 -129 -95 -129 -161c0 -83 77 -138 185 -138z" />
    <glyph glyph-name="nine.tf" 
d="M259 -10c-68 0 -131 25 -185 83l35 31c45 -45 91 -66 152 -66c126 0 196 96 202 278c-59 -32 -130 -48 -195 -48c-130 0 -209 79 -209 198c0 114 96 200 219 200c147 0 235 -111 235 -310c0 -234 -86 -366 -254 -366zM273 315c66 0 138 17 190 50
c-2 167 -68 253 -182 253c-102 0 -171 -60 -171 -154c0 -93 61 -149 163 -149z" />
    <glyph glyph-name="zero.tf.zero" 
d="M293 -10c-151 0 -243 140 -243 340c0 189 95 336 242 336c150 0 244 -140 244 -336c0 -195 -94 -340 -243 -340zM129 165l305 374c-33 50 -80 79 -141 79c-123 0 -192 -125 -192 -287c0 -63 9 -120 28 -166zM292 39c122 0 194 124 194 292c0 61 -10 117 -28 162
l-306 -374c32 -50 80 -80 140 -80z" />
    <glyph glyph-name="zero.subs" horiz-adv-x="435" 
d="M218 -83c-100 0 -163 79 -163 193c0 110 65 192 163 192s163 -79 163 -192c0 -112 -65 -193 -163 -193zM218 -39c73 0 115 62 115 149s-41 149 -114 149c-75 0 -117 -64 -117 -149c0 -86 41 -149 116 -149z" />
    <glyph glyph-name="one.subs" horiz-adv-x="312" 
d="M159 -76v327l-95 -26v38l107 34h34v-373h-46z" />
    <glyph glyph-name="two.subs" horiz-adv-x="405" 
d="M68 -76v32l156 140c38 34 61 62 61 93c0 44 -31 70 -89 70c-40 0 -79 -20 -107 -45l-27 31c35 33 85 58 138 58c84 0 133 -44 133 -108c0 -42 -26 -78 -68 -115l-130 -115h202v-41h-269z" />
    <glyph glyph-name="three.subs" horiz-adv-x="408" 
d="M197 -83c-61 0 -108 24 -138 53l28 31c27 -24 63 -43 108 -43c61 0 100 31 100 75c0 45 -41 70 -104 70h-43v29l120 122h-196v42h255v-31l-123 -126c83 -2 139 -41 139 -107c0 -69 -57 -115 -146 -115z" />
    <glyph glyph-name="four.subs" horiz-adv-x="422" 
d="M265 -76v97h-213v30l213 246h44v-236h60v-40h-60v-97h-44zM107 61h158v181z" />
    <glyph glyph-name="five.subs" horiz-adv-x="397" 
d="M193 -83c-58 0 -103 23 -134 52l29 29c25 -23 59 -40 104 -40c56 0 93 31 93 77c0 45 -36 72 -95 72h-105v29l30 160h192v-42h-160l-19 -108h64c87 0 141 -42 141 -112s-54 -117 -140 -117z" />
    <glyph glyph-name="six.subs" horiz-adv-x="416" 
d="M216 -83c-95 0 -150 64 -150 176c0 126 62 209 165 209c53 0 93 -22 118 -53l-28 -27c-24 26 -51 38 -89 38c-68 0 -112 -50 -120 -131c33 16 74 25 113 25c82 0 132 -49 132 -115c0 -68 -58 -122 -141 -122zM214 -42c61 0 97 33 97 80c0 44 -32 76 -92 76
c-38 0 -79 -9 -108 -24c0 -86 38 -132 103 -132z" />
    <glyph glyph-name="seven.subs" horiz-adv-x="403" 
d="M128 -76l163 331h-226v42h279v-25l-167 -348h-49z" />
    <glyph glyph-name="eight.subs" horiz-adv-x="438" 
d="M220 -83c-88 0 -149 41 -149 104c0 39 27 76 73 101c-37 18 -59 44 -59 84c0 56 57 96 136 96c82 0 136 -40 136 -99c0 -34 -20 -67 -60 -90c43 -20 70 -49 70 -93c0 -63 -61 -103 -147 -103zM255 128c40 17 60 46 60 73c0 38 -37 63 -94 63c-55 0 -93 -24 -93 -57
c0 -39 36 -58 103 -74zM219 -44c59 0 104 24 104 65c0 44 -44 61 -111 78l-28 7c-42 -18 -69 -48 -69 -80c0 -42 44 -70 104 -70z" />
    <glyph glyph-name="nine.subs" horiz-adv-x="416" 
d="M187 -83c-55 0 -96 22 -122 52l29 28c24 -26 50 -38 92 -38c72 0 111 48 118 134c-34 -16 -75 -25 -113 -25c-81 0 -131 46 -131 114s60 120 140 120c94 0 150 -66 150 -177c0 -132 -57 -208 -163 -208zM197 109c39 0 78 9 107 23c-1 84 -37 128 -102 128
c-58 0 -96 -31 -96 -78c0 -46 33 -73 91 -73z" />
    <glyph glyph-name="zero.dnom" horiz-adv-x="435" 
d="M218 -7c-100 0 -163 79 -163 193c0 110 65 192 163 192s163 -79 163 -192c0 -112 -65 -193 -163 -193zM218 37c73 0 115 62 115 149s-41 149 -114 149c-75 0 -117 -64 -117 -149c0 -86 41 -149 116 -149z" />
    <glyph glyph-name="one.dnom" horiz-adv-x="312" 
d="M159 0v327l-95 -26v38l107 34h34v-373h-46z" />
    <glyph glyph-name="two.dnom" horiz-adv-x="405" 
d="M68 0v32l156 140c38 34 61 62 61 93c0 44 -31 70 -89 70c-40 0 -79 -20 -107 -45l-27 31c35 33 85 58 138 58c84 0 133 -44 133 -108c0 -42 -26 -78 -68 -115l-130 -115h202v-41h-269z" />
    <glyph glyph-name="three.dnom" horiz-adv-x="408" 
d="M197 -7c-61 0 -108 24 -138 53l28 31c27 -24 63 -43 108 -43c61 0 100 31 100 75c0 45 -41 70 -104 70h-43v29l120 122h-196v42h255v-31l-123 -126c83 -2 139 -41 139 -107c0 -69 -57 -115 -146 -115z" />
    <glyph glyph-name="four.dnom" horiz-adv-x="422" 
d="M265 0v97h-213v30l213 246h44v-236h60v-40h-60v-97h-44zM107 137h158v181z" />
    <glyph glyph-name="five.dnom" horiz-adv-x="397" 
d="M193 -7c-58 0 -103 23 -134 52l29 29c25 -23 59 -40 104 -40c56 0 93 31 93 77c0 45 -36 72 -95 72h-105v29l30 160h192v-42h-160l-19 -108h64c87 0 141 -42 141 -112s-54 -117 -140 -117z" />
    <glyph glyph-name="six.dnom" horiz-adv-x="416" 
d="M216 -7c-95 0 -150 64 -150 176c0 126 62 209 165 209c53 0 93 -22 118 -53l-28 -27c-24 26 -51 38 -89 38c-68 0 -112 -50 -120 -131c33 16 74 25 113 25c82 0 132 -49 132 -115c0 -68 -58 -122 -141 -122zM214 34c61 0 97 33 97 80c0 44 -32 76 -92 76
c-38 0 -79 -9 -108 -24c0 -86 38 -132 103 -132z" />
    <glyph glyph-name="seven.dnom" horiz-adv-x="403" 
d="M128 0l163 331h-226v42h279v-25l-167 -348h-49z" />
    <glyph glyph-name="eight.dnom" horiz-adv-x="438" 
d="M220 -7c-88 0 -149 41 -149 104c0 39 27 76 73 101c-37 18 -59 44 -59 84c0 56 57 96 136 96c82 0 136 -40 136 -99c0 -34 -20 -67 -60 -90c43 -20 70 -49 70 -93c0 -63 -61 -103 -147 -103zM255 204c40 17 60 46 60 73c0 38 -37 63 -94 63c-55 0 -93 -24 -93 -57
c0 -39 36 -58 103 -74zM219 32c59 0 104 24 104 65c0 44 -44 61 -111 78l-28 7c-42 -18 -69 -48 -69 -80c0 -42 44 -70 104 -70z" />
    <glyph glyph-name="nine.dnom" horiz-adv-x="416" 
d="M187 -7c-55 0 -96 22 -122 52l29 28c24 -26 50 -38 92 -38c72 0 111 48 118 134c-34 -16 -75 -25 -113 -25c-81 0 -131 46 -131 114s60 120 140 120c94 0 150 -66 150 -177c0 -132 -57 -208 -163 -208zM197 185c39 0 78 9 107 23c-1 84 -37 128 -102 128
c-58 0 -96 -31 -96 -78c0 -46 33 -73 91 -73z" />
    <glyph glyph-name="zero.numr" horiz-adv-x="435" 
d="M218 276c-100 0 -163 79 -163 193c0 110 65 192 163 192s163 -79 163 -192c0 -112 -65 -193 -163 -193zM218 320c73 0 115 62 115 149s-41 149 -114 149c-75 0 -117 -64 -117 -149c0 -86 41 -149 116 -149z" />
    <glyph glyph-name="one.numr" horiz-adv-x="312" 
d="M159 283v327l-95 -26v38l107 34h34v-373h-46z" />
    <glyph glyph-name="two.numr" horiz-adv-x="405" 
d="M68 283v32l156 140c38 34 61 62 61 93c0 44 -31 70 -89 70c-40 0 -79 -20 -107 -45l-27 31c35 33 85 58 138 58c84 0 133 -44 133 -108c0 -42 -26 -78 -68 -115l-130 -115h202v-41h-269z" />
    <glyph glyph-name="three.numr" horiz-adv-x="408" 
d="M197 276c-61 0 -108 24 -138 53l28 31c27 -24 63 -43 108 -43c61 0 100 31 100 75c0 45 -41 70 -104 70h-43v29l120 122h-196v42h255v-31l-123 -126c83 -2 139 -41 139 -107c0 -69 -57 -115 -146 -115z" />
    <glyph glyph-name="four.numr" horiz-adv-x="422" 
d="M265 283v97h-213v30l213 246h44v-236h60v-40h-60v-97h-44zM107 420h158v181z" />
    <glyph glyph-name="five.numr" horiz-adv-x="397" 
d="M193 276c-58 0 -103 23 -134 52l29 29c25 -23 59 -40 104 -40c56 0 93 31 93 77c0 45 -36 72 -95 72h-105v29l30 160h192v-42h-160l-19 -108h64c87 0 141 -42 141 -112s-54 -117 -140 -117z" />
    <glyph glyph-name="six.numr" horiz-adv-x="416" 
d="M216 276c-95 0 -150 64 -150 176c0 126 62 209 165 209c53 0 93 -22 118 -53l-28 -27c-24 26 -51 38 -89 38c-68 0 -112 -50 -120 -131c33 16 74 25 113 25c82 0 132 -49 132 -115c0 -68 -58 -122 -141 -122zM214 317c61 0 97 33 97 80c0 44 -32 76 -92 76
c-38 0 -79 -9 -108 -24c0 -86 38 -132 103 -132z" />
    <glyph glyph-name="seven.numr" horiz-adv-x="403" 
d="M128 283l163 331h-226v42h279v-25l-167 -348h-49z" />
    <glyph glyph-name="eight.numr" horiz-adv-x="438" 
d="M220 276c-88 0 -149 41 -149 104c0 39 27 76 73 101c-37 18 -59 44 -59 84c0 56 57 96 136 96c82 0 136 -40 136 -99c0 -34 -20 -67 -60 -90c43 -20 70 -49 70 -93c0 -63 -61 -103 -147 -103zM255 487c40 17 60 46 60 73c0 38 -37 63 -94 63c-55 0 -93 -24 -93 -57
c0 -39 36 -58 103 -74zM219 315c59 0 104 24 104 65c0 44 -44 61 -111 78l-28 7c-42 -18 -69 -48 -69 -80c0 -42 44 -70 104 -70z" />
    <glyph glyph-name="nine.numr" horiz-adv-x="416" 
d="M187 276c-55 0 -96 22 -122 52l29 28c24 -26 50 -38 92 -38c72 0 111 48 118 134c-34 -16 -75 -25 -113 -25c-81 0 -131 46 -131 114s60 120 140 120c94 0 150 -66 150 -177c0 -132 -57 -208 -163 -208zM197 468c39 0 78 9 107 23c-1 84 -37 128 -102 128
c-58 0 -96 -31 -96 -78c0 -46 33 -73 91 -73z" />
    <glyph glyph-name="uni2070" unicode="&#x2070;" horiz-adv-x="435" 
d="M218 344c-100 0 -163 79 -163 193c0 110 65 192 163 192s163 -79 163 -192c0 -112 -65 -193 -163 -193zM218 388c73 0 115 62 115 149s-41 149 -114 149c-75 0 -117 -64 -117 -149c0 -86 41 -149 116 -149z" />
    <glyph glyph-name="uni00B9" unicode="&#xb9;" horiz-adv-x="312" 
d="M159 351v327l-95 -26v38l107 34h34v-373h-46z" />
    <glyph glyph-name="uni00B2" unicode="&#xb2;" horiz-adv-x="405" 
d="M68 351v32l156 140c38 34 61 62 61 93c0 44 -31 70 -89 70c-40 0 -79 -20 -107 -45l-27 31c35 33 85 58 138 58c84 0 133 -44 133 -108c0 -42 -26 -78 -68 -115l-130 -115h202v-41h-269z" />
    <glyph glyph-name="uni00B3" unicode="&#xb3;" horiz-adv-x="408" 
d="M197 344c-61 0 -108 24 -138 53l28 31c27 -24 63 -43 108 -43c61 0 100 31 100 75c0 45 -41 70 -104 70h-43v29l120 122h-196v42h255v-31l-123 -126c83 -2 139 -41 139 -107c0 -69 -57 -115 -146 -115z" />
    <glyph glyph-name="uni2074" unicode="&#x2074;" horiz-adv-x="422" 
d="M265 351v97h-213v30l213 246h44v-236h60v-40h-60v-97h-44zM107 488h158v181z" />
    <glyph glyph-name="uni2075" unicode="&#x2075;" horiz-adv-x="397" 
d="M193 344c-58 0 -103 23 -134 52l29 29c25 -23 59 -40 104 -40c56 0 93 31 93 77c0 45 -36 72 -95 72h-105v29l30 160h192v-42h-160l-19 -108h64c87 0 141 -42 141 -112s-54 -117 -140 -117z" />
    <glyph glyph-name="uni2076" unicode="&#x2076;" horiz-adv-x="416" 
d="M216 344c-95 0 -150 64 -150 176c0 126 62 209 165 209c53 0 93 -22 118 -53l-28 -27c-24 26 -51 38 -89 38c-68 0 -112 -50 -120 -131c33 16 74 25 113 25c82 0 132 -49 132 -115c0 -68 -58 -122 -141 -122zM214 385c61 0 97 33 97 80c0 44 -32 76 -92 76
c-38 0 -79 -9 -108 -24c0 -86 38 -132 103 -132z" />
    <glyph glyph-name="uni2077" unicode="&#x2077;" horiz-adv-x="403" 
d="M128 351l163 331h-226v42h279v-25l-167 -348h-49z" />
    <glyph glyph-name="uni2078" unicode="&#x2078;" horiz-adv-x="438" 
d="M220 344c-88 0 -149 41 -149 104c0 39 27 76 73 101c-37 18 -59 44 -59 84c0 56 57 96 136 96c82 0 136 -40 136 -99c0 -34 -20 -67 -60 -90c43 -20 70 -49 70 -93c0 -63 -61 -103 -147 -103zM255 555c40 17 60 46 60 73c0 38 -37 63 -94 63c-55 0 -93 -24 -93 -57
c0 -39 36 -58 103 -74zM219 383c59 0 104 24 104 65c0 44 -44 61 -111 78l-28 7c-42 -18 -69 -48 -69 -80c0 -42 44 -70 104 -70z" />
    <glyph glyph-name="uni2079" unicode="&#x2079;" horiz-adv-x="416" 
d="M187 344c-55 0 -96 22 -122 52l29 28c24 -26 50 -38 92 -38c72 0 111 48 118 134c-34 -16 -75 -25 -113 -25c-81 0 -131 46 -131 114s60 120 140 120c94 0 150 -66 150 -177c0 -132 -57 -208 -163 -208zM197 536c39 0 78 9 107 23c-1 84 -37 128 -102 128
c-58 0 -96 -31 -96 -78c0 -46 33 -73 91 -73z" />
    <glyph glyph-name="fraction" unicode="&#x2044;" horiz-adv-x="111" 
d="M-234 0l520 657h59l-520 -657h-59z" />
    <glyph glyph-name="onehalf" unicode="&#xbd;" horiz-adv-x="843" 
d="M82 0l521 657h59l-520 -657h-60zM159 283v327l-95 -26v38l107 34h34v-373h-46zM505 0v32l157 140c38 34 61 62 61 93c0 44 -31 70 -89 70c-40 0 -79 -20 -107 -45l-27 31c35 33 85 58 138 58c84 0 133 -44 133 -108c0 -42 -26 -78 -68 -115l-130 -115h202v-41h-270z" />
    <glyph glyph-name="onequarter" unicode="&#xbc;" horiz-adv-x="780" 
d="M86 0l521 657h59l-520 -657h-60zM159 283v327l-95 -26v38l107 34h34v-373h-46zM622 0v97h-212v30l212 246h44v-236h61v-40h-61v-97h-44zM464 137h158v181z" />
    <glyph glyph-name="threequarters" unicode="&#xbe;" horiz-adv-x="870" 
d="M177 0l521 657h59l-520 -657h-60zM197 276c-61 0 -108 24 -138 53l28 31c27 -24 63 -43 108 -43c61 0 100 31 100 75c0 45 -41 70 -104 70h-43v29l120 122h-196v42h255v-31l-123 -126c83 -2 139 -41 139 -107c0 -69 -57 -115 -146 -115zM713 0v97h-213v30l213 246h44
v-236h60v-40h-60v-97h-44zM555 137h158v181z" />
    <glyph glyph-name="period" unicode="." horiz-adv-x="253" 
d="M125 -10c-24 0 -41 19 -41 43c0 26 17 43 41 43c27 0 43 -17 43 -43c0 -24 -16 -43 -43 -43z" />
    <glyph glyph-name="comma" unicode="," horiz-adv-x="253" 
d="M34 -123c39 59 67 143 75 199h54c-8 -65 -41 -147 -80 -199h-49z" />
    <glyph glyph-name="colon" unicode=":" horiz-adv-x="253" 
d="M125 436c-24 0 -41 19 -41 43c0 26 17 43 41 43c27 0 43 -17 43 -43c0 -24 -16 -43 -43 -43zM125 -10c-24 0 -41 19 -41 43c0 26 17 43 41 43c27 0 43 -17 43 -43c0 -24 -16 -43 -43 -43z" />
    <glyph glyph-name="semicolon" unicode=";" horiz-adv-x="253" 
d="M125 436c-24 0 -41 19 -41 43c0 26 17 43 41 43c27 0 43 -17 43 -43c0 -24 -16 -43 -43 -43zM34 -123c39 59 67 143 75 199h54c-8 -65 -41 -147 -80 -199h-49z" />
    <glyph glyph-name="ellipsis" unicode="&#x2026;" horiz-adv-x="683" 
d="M125 -10c-24 0 -41 19 -41 43c0 26 17 43 41 43c27 0 43 -17 43 -43c0 -24 -16 -43 -43 -43zM340 -10c-24 0 -41 19 -41 43c0 26 17 43 41 43c27 0 43 -17 43 -43c0 -24 -16 -43 -43 -43zM555 -10c-24 0 -41 19 -41 43c0 26 17 43 41 43c27 0 43 -17 43 -43
c0 -24 -16 -43 -43 -43z" />
    <glyph glyph-name="exclam" unicode="!" horiz-adv-x="244" 
d="M98 176l-4 500h55l-4 -500h-47zM121 -10c-25 0 -41 19 -41 43c0 26 16 43 41 43c26 0 43 -17 43 -43c0 -24 -17 -43 -43 -43z" />
    <glyph glyph-name="exclamdown" unicode="&#xa1;" horiz-adv-x="246" 
d="M125 440c-27 0 -43 18 -43 43s16 43 43 43c24 0 41 -18 41 -43s-17 -43 -41 -43zM96 -159l5 500h46l5 -500h-56z" />
    <glyph glyph-name="question" unicode="?" horiz-adv-x="527" 
d="M225 176v30c0 79 57 128 111 174c44 37 81 77 81 129c0 82 -56 128 -159 128c-79 0 -144 -34 -192 -79l-31 34c55 56 139 94 225 94c134 0 208 -70 208 -175c0 -65 -42 -113 -88 -152c-53 -45 -105 -88 -105 -151v-32h-50zM251 -10c-24 0 -41 19 -41 43c0 26 17 43 41 43
c27 0 43 -17 43 -43c0 -24 -16 -43 -43 -43z" />
    <glyph glyph-name="questiondown" unicode="&#xbf;" horiz-adv-x="517" 
d="M276 440c-27 0 -43 18 -43 43s16 43 43 43c24 0 41 -18 41 -43s-17 -43 -41 -43zM267 -169c-134 0 -208 69 -208 174c0 66 42 113 88 153c53 44 105 88 105 150v33h50v-30c0 -80 -57 -128 -111 -174c-44 -37 -81 -77 -81 -129c0 -82 56 -129 159 -129c79 0 144 35 192 80
l31 -35c-55 -55 -139 -93 -225 -93z" />
    <glyph glyph-name="periodcentered" unicode="&#xb7;" horiz-adv-x="253" 
d="M125 312c-24 0 -41 19 -41 43c0 25 17 43 41 43c27 0 43 -18 43 -43c0 -24 -16 -43 -43 -43z" />
    <glyph glyph-name="bullet" unicode="&#x2022;" horiz-adv-x="367" 
d="M183 264c-47 0 -86 38 -86 87c0 50 39 87 86 87c48 0 87 -37 87 -87c0 -49 -39 -87 -87 -87z" />
    <glyph glyph-name="asterisk" unicode="*" horiz-adv-x="349" 
d="M153 406l3 113l-92 -66l-24 34l97 63l-97 62l24 34l92 -65l-3 113h43l-3 -113l92 65l24 -34l-97 -62l97 -63l-24 -34l-92 66l3 -113h-43z" />
    <glyph glyph-name="numbersign" unicode="#" horiz-adv-x="639" 
d="M145 29l22 149h-100l7 43h98l32 221h-99l6 43h98l20 142h47l-20 -142h175l20 142h47l-20 -142h93l-6 -43h-93l-31 -221h93l-7 -43h-93l-21 -149h-46l21 149h-175l-21 -149h-47zM219 221h175l31 221h-175z" />
    <glyph glyph-name="slash" unicode="/" horiz-adv-x="433" 
d="M20 -130l339 865h54l-339 -865h-54z" />
    <glyph glyph-name="backslash" unicode="\" horiz-adv-x="433" 
d="M359 -130l-339 865h54l339 -865h-54z" />
    <glyph glyph-name="exclamdown.case" horiz-adv-x="244" 
d="M123 600c-27 0 -43 17 -43 43c0 24 16 43 43 43c24 0 41 -19 41 -43c0 -26 -17 -43 -41 -43zM94 0l5 500h46l5 -500h-56z" />
    <glyph glyph-name="questiondown.case" horiz-adv-x="527" 
d="M270 600c-27 0 -43 17 -43 43c0 24 16 43 43 43c24 0 41 -19 41 -43c0 -26 -17 -43 -41 -43zM261 -10c-133 0 -208 70 -208 175c0 65 42 113 88 152c53 45 106 88 106 151v32h49v-30c0 -79 -56 -128 -111 -174c-44 -37 -80 -77 -80 -129c0 -82 55 -128 158 -128
c79 0 145 34 193 79l31 -34c-56 -56 -140 -94 -226 -94z" />
    <glyph glyph-name="slash.case" horiz-adv-x="433" 
d="M20 -96l339 864h54l-339 -864h-54z" />
    <glyph glyph-name="backslash.case" horiz-adv-x="433" 
d="M359 -96l-339 864h54l339 -864h-54z" />
    <glyph glyph-name="parenleft" unicode="(" horiz-adv-x="329" 
d="M245 -130c-109 111 -167 274 -167 433c0 156 60 320 167 432h57c-109 -116 -170 -279 -170 -432c0 -156 61 -318 170 -433h-57z" />
    <glyph glyph-name="parenright" unicode=")" horiz-adv-x="329" 
d="M27 -130c110 116 170 278 170 432c0 155 -60 318 -170 433h58c109 -111 166 -274 166 -433c0 -157 -59 -320 -166 -432h-58z" />
    <glyph glyph-name="braceleft" unicode="{" horiz-adv-x="400" 
d="M315 -130c-125 0 -192 67 -192 193v82c0 71 -30 112 -79 140v35c49 28 79 70 79 141v81c0 125 67 193 192 193h53l-10 -48h-46c-90 0 -138 -49 -138 -140v-87c0 -73 -27 -119 -76 -157c49 -38 76 -84 76 -157v-88c0 -91 48 -140 138 -140h46l10 -48h-53z" />
    <glyph glyph-name="braceright" unicode="}" horiz-adv-x="400" 
d="M33 -130l10 48h45c91 0 139 49 139 140v87c0 73 26 119 75 157c-49 38 -75 84 -75 157v88c0 91 -48 140 -139 140h-45l-10 48h52c126 0 193 -67 193 -193v-82c0 -71 30 -112 78 -140v-35c-48 -28 -78 -70 -78 -141v-81c0 -125 -67 -193 -193 -193h-52z" />
    <glyph glyph-name="bracketleft" unicode="[" horiz-adv-x="384" 
d="M106 -130v865h245l-10 -48h-184v-769h184l10 -48h-245z" />
    <glyph glyph-name="bracketright" unicode="]" horiz-adv-x="384" 
d="M33 -130l10 48h184v769h-184l-10 48h245v-865h-245z" />
    <glyph glyph-name="parenleft.case" horiz-adv-x="329" 
d="M245 -96c-109 112 -167 274 -167 433c0 157 60 320 167 432h57c-109 -116 -170 -278 -170 -432c0 -155 61 -317 170 -433h-57z" />
    <glyph glyph-name="parenright.case" horiz-adv-x="329" 
d="M27 -96c110 117 170 279 170 433c0 155 -60 317 -170 432h58c109 -111 166 -274 166 -432c0 -157 -59 -320 -166 -433h-58z" />
    <glyph glyph-name="braceleft.case" horiz-adv-x="400" 
d="M315 -96c-125 0 -192 68 -192 193v83c0 70 -30 111 -79 139v35c49 28 79 70 79 141v82c0 124 67 192 192 192h53l-10 -48h-46c-90 0 -138 -49 -138 -139v-87c0 -74 -27 -120 -76 -158c49 -38 76 -84 76 -157v-88c0 -91 48 -140 138 -140h46l10 -48h-53z" />
    <glyph glyph-name="braceright.case" horiz-adv-x="400" 
d="M33 -96l10 49h45c91 0 139 49 139 139v87c0 74 26 119 75 158c-49 37 -75 84 -75 157v88c0 90 -48 140 -139 140h-45l-10 47h52c126 0 193 -67 193 -192v-83c0 -70 30 -112 78 -139v-35c-48 -29 -78 -70 -78 -141v-82c0 -124 -67 -193 -193 -193h-52z" />
    <glyph glyph-name="bracketleft.case" horiz-adv-x="384" 
d="M106 -96v865h245l-10 -48h-184v-769h184l10 -48h-245z" />
    <glyph glyph-name="bracketright.case" horiz-adv-x="384" 
d="M33 -96l10 49h184v769h-184l-10 47h245v-865h-245z" />
    <glyph glyph-name="hyphen" unicode="-" horiz-adv-x="431" 
d="M63 269v47h306v-47h-306z" />
    <glyph glyph-name="uni00AD" unicode="&#xad;" horiz-adv-x="431" 
d="M63 269v47h306v-47h-306z" />
    <glyph glyph-name="endash" unicode="&#x2013;" horiz-adv-x="490" 
d="M0 269v47h490v-47h-490z" />
    <glyph glyph-name="emdash" unicode="&#x2014;" horiz-adv-x="980" 
d="M0 269v47h980v-47h-980z" />
    <glyph glyph-name="underscore" unicode="_" horiz-adv-x="490" 
d="M0 -133v44h490v-44h-490z" />
    <glyph glyph-name="hyphen.case" horiz-adv-x="431" 
d="M63 319v47h306v-47h-306z" />
    <glyph glyph-name="endash.case" horiz-adv-x="490" 
d="M0 319v46h490v-46h-490z" />
    <glyph glyph-name="emdash.case" horiz-adv-x="980" 
d="M0 319v46h980v-46h-980z" />
    <glyph glyph-name="quotesinglbase" unicode="&#x201a;" horiz-adv-x="238" 
d="M26 -123c39 59 68 143 75 199h54c-8 -65 -41 -147 -80 -199h-49z" />
    <glyph glyph-name="quotedblbase" unicode="&#x201e;" horiz-adv-x="371" 
d="M26 -123c39 59 68 143 75 199h54c-8 -65 -41 -147 -80 -199h-49zM159 -123c39 59 68 143 75 199h54c-8 -65 -41 -147 -80 -199h-49z" />
    <glyph glyph-name="quotedblleft" unicode="&#x201c;" horiz-adv-x="354" 
d="M60 487c8 63 39 137 76 189h46c-37 -58 -62 -133 -70 -189h-52zM193 487c8 63 39 137 76 189h46c-37 -58 -62 -133 -70 -189h-52z" />
    <glyph glyph-name="quotedblright" unicode="&#x201d;" horiz-adv-x="354" 
d="M42 487c37 59 62 133 69 189h53c-9 -63 -39 -137 -76 -189h-46zM175 487c37 59 62 133 69 189h53c-9 -63 -39 -137 -76 -189h-46z" />
    <glyph glyph-name="quoteleft" unicode="&#x2018;" horiz-adv-x="221" 
d="M60 487c8 63 39 137 76 189h46c-37 -58 -62 -133 -70 -189h-52z" />
    <glyph glyph-name="quoteright" unicode="&#x2019;" horiz-adv-x="221" 
d="M42 487c37 59 62 133 69 189h53c-9 -63 -39 -137 -76 -189h-46z" />
    <glyph glyph-name="guillemotleft" unicode="&#xab;" horiz-adv-x="444" 
d="M182 95l-129 187l129 187h55l-125 -187l125 -187h-55zM337 95l-130 187l130 187h55l-126 -187l126 -187h-55z" />
    <glyph glyph-name="guillemotright" unicode="&#xbb;" horiz-adv-x="444" 
d="M52 95l126 187l-126 187h55l130 -187l-130 -187h-55zM206 95l126 187l-126 187h56l129 -187l-129 -187h-56z" />
    <glyph glyph-name="guilsinglleft" unicode="&#x2039;" horiz-adv-x="290" 
d="M182 95l-129 187l129 187h55l-125 -187l125 -187h-55z" />
    <glyph glyph-name="guilsinglright" unicode="&#x203a;" horiz-adv-x="290" 
d="M52 95l126 187l-126 187h55l130 -187l-130 -187h-55z" />
    <glyph glyph-name="quotedbl" unicode="&#x22;" horiz-adv-x="378" 
d="M86 427l-4 249h55l-4 -249h-47zM245 427l-4 249h55l-4 -249h-47z" />
    <glyph glyph-name="quotesingle" unicode="'" horiz-adv-x="219" 
d="M86 427l-4 249h55l-4 -249h-47z" />
    <glyph glyph-name="guillemotleft.case" horiz-adv-x="444" 
d="M182 159l-129 187l129 187h55l-125 -187l125 -187h-55zM337 159l-130 187l130 187h55l-126 -187l126 -187h-55z" />
    <glyph glyph-name="guillemotright.case" horiz-adv-x="444" 
d="M52 159l126 187l-126 187h55l130 -187l-130 -187h-55zM206 159l126 187l-126 187h56l129 -187l-129 -187h-56z" />
    <glyph glyph-name="guilsinglleft.case" horiz-adv-x="290" 
d="M182 159l-129 187l129 187h55l-125 -187l125 -187h-55z" />
    <glyph glyph-name="guilsinglright.case" horiz-adv-x="290" 
d="M52 159l126 187l-126 187h55l130 -187l-130 -187h-55z" />
    <glyph glyph-name="period.dnom" horiz-adv-x="149" 
d="M64 -8c-20 0 -35 16 -35 36c0 21 15 36 35 36c22 0 37 -15 37 -36c0 -20 -15 -36 -37 -36z" />
    <glyph glyph-name="comma.dnom" horiz-adv-x="149" 
d="M-2 -78c27 42 47 98 53 140h51c-6 -46 -30 -102 -59 -140h-45z" />
    <glyph glyph-name="period.numr" horiz-adv-x="149" 
d="M73 275c-20 0 -35 15 -35 36s15 36 35 36c22 0 37 -15 37 -36s-15 -36 -37 -36z" />
    <glyph glyph-name="comma.numr" horiz-adv-x="149" 
d="M-3 205c27 42 48 98 53 140h51c-6 -46 -30 -102 -59 -140h-45z" />
    <glyph glyph-name="period.subs" horiz-adv-x="149" 
d="M73 -84c-20 0 -35 16 -35 36c0 21 15 36 35 36c22 0 37 -15 37 -36c0 -20 -15 -36 -37 -36z" />
    <glyph glyph-name="comma.subs" horiz-adv-x="149" 
d="M-3 -154c27 42 48 98 53 140h51c-6 -46 -30 -102 -59 -140h-45z" />
    <glyph glyph-name="uni00A0" unicode="&#xa0;" horiz-adv-x="255" 
 />
    <glyph glyph-name="cent" unicode="&#xa2;" 
d="M298 -67v137c-129 13 -214 115 -214 259c0 140 87 243 214 260v109l51 14v-122c62 -5 114 -33 152 -74l-33 -31c-35 36 -80 59 -137 59c-118 0 -196 -86 -196 -215c0 -128 78 -214 193 -214c62 0 109 23 149 59l31 -32c-40 -39 -92 -68 -159 -73v-123z" />
    <glyph glyph-name="currency" unicode="&#xa4;" 
d="M78 95l-36 35l78 79c-23 36 -36 79 -36 127c0 46 14 89 37 125l-79 79l36 35l77 -76c36 33 84 53 138 53c55 0 104 -19 140 -52l76 75l35 -35l-78 -78c23 -35 37 -79 37 -126s-14 -90 -38 -126l79 -80l-35 -35l-78 77c-36 -34 -84 -53 -138 -53c-55 0 -103 19 -139 51z
M293 165c94 0 160 78 160 171s-65 170 -160 170s-160 -79 -160 -170c0 -92 65 -171 160 -171z" />
    <glyph glyph-name="dollar" unicode="$" 
d="M270 -146v141c-88 6 -161 42 -218 100l31 33c60 -59 127 -86 216 -86c108 0 172 45 172 125c0 84 -63 123 -188 151c-147 32 -211 76 -211 185c0 89 84 158 198 166v114l51 14v-129c68 -7 125 -36 175 -85l-32 -33c-47 47 -109 72 -173 72c-100 0 -170 -47 -170 -120
c0 -85 52 -108 191 -139c143 -33 209 -95 209 -193c0 -102 -72 -168 -200 -175v-128z" />
    <glyph glyph-name="Euro" unicode="&#x20ac;" 
d="M367 -10c-133 0 -232 91 -264 233h-87l12 46h68c-3 19 -4 37 -4 58s1 42 4 62h-80l12 45h77c34 140 137 232 267 232c76 0 140 -32 186 -84l-33 -32c-41 43 -92 68 -154 68c-104 0 -184 -72 -214 -184h246l-12 -45h-244c-3 -20 -4 -40 -4 -62c0 -21 1 -39 4 -58h221
l-13 -46h-199c30 -112 108 -184 212 -184c70 0 121 24 168 69l33 -33c-55 -57 -119 -85 -202 -85z" />
    <glyph glyph-name="florin" unicode="&#x192;" 
d="M14 0v47h58c109 0 144 52 171 163l27 106h-158v47h169l21 83c35 142 88 211 224 211h45v-48h-46c-109 0 -145 -52 -172 -162l-21 -84h160v-47h-171l-26 -105c-35 -141 -87 -211 -223 -211h-58z" />
    <glyph glyph-name="sterling" unicode="&#xa3;" 
d="M84 0v37l54 256h-98v46h107l22 106c28 132 95 212 238 212h125v-48h-128c-101 0 -160 -43 -185 -163l-22 -107h260v-46h-270l-52 -246h408v-47h-459z" />
    <glyph glyph-name="yen" unicode="&#xa5;" 
d="M267 0v132h-184v45h184v97h-184v45h159l-203 338h56l198 -334l200 334h53l-203 -338h159v-45h-185v-97h185v-45h-185v-132h-50z" />
    <glyph glyph-name="plus" unicode="+" 
d="M270 126v182h-181v45h181v182h46v-182h181v-45h-181v-182h-46z" />
    <glyph glyph-name="minus" unicode="&#x2212;" 
d="M110 307v47h366v-47h-366z" />
    <glyph glyph-name="multiply" unicode="&#xd7;" 
d="M158 163l-33 32l136 135l-136 136l33 32l135 -135l135 135l33 -32l-136 -136l136 -135l-33 -32l-135 135z" />
    <glyph glyph-name="divide" unicode="&#xf7;" 
d="M292 434c-24 0 -40 19 -40 42c0 25 16 42 40 42c26 0 42 -17 42 -42c0 -23 -16 -42 -42 -42zM110 307v47h366v-47h-366zM292 143c-24 0 -40 18 -40 42s16 42 40 42c26 0 42 -18 42 -42s-16 -42 -42 -42z" />
    <glyph glyph-name="equal" unicode="=" 
d="M110 406v46h366v-46h-366zM110 210v46h366v-46h-366z" />
    <glyph glyph-name="notequal" unicode="&#x2260;" 
d="M184 103l-41 18l53 89h-86v46h113l89 150h-202v46h229l63 106l41 -18l-53 -88h86v-46h-113l-89 -150h202v-46h-229z" />
    <glyph glyph-name="greater" unicode="&#x3e;" 
d="M150 137l-22 38l277 156l-277 156l22 39l308 -176v-38z" />
    <glyph glyph-name="less" unicode="&#x3c;" 
d="M436 136l-308 176v38l308 175l22 -38l-277 -156l277 -156z" />
    <glyph glyph-name="greaterequal" unicode="&#x2265;" 
d="M165 154l-19 39l278 150l-278 151l19 40l311 -172v-37zM127 0v45h349v-45h-349z" />
    <glyph glyph-name="lessequal" unicode="&#x2264;" 
d="M421 154l-311 171v37l311 172l19 -40l-278 -150l278 -151zM110 0v46h349v-46h-349z" />
    <glyph glyph-name="plusminus" unicode="&#xb1;" 
d="M270 131v182h-181v46h181v181h46v-181h181v-46h-181v-182h-46zM110 0v46h366v-46h-366z" />
    <glyph glyph-name="approxequal" unicode="&#x2248;" 
d="M387 361c-38 0 -72 24 -103 48c-30 22 -58 42 -88 42c-45 0 -79 -21 -85 -81h-44c6 81 55 126 125 126c40 0 77 -27 112 -51c29 -21 57 -40 81 -40c45 0 73 31 78 84h44c-6 -79 -51 -128 -120 -128zM387 166c-38 0 -72 24 -103 48c-30 22 -58 42 -88 42
c-45 0 -79 -21 -85 -81h-44c6 81 55 126 125 126c40 0 77 -27 112 -51c29 -21 57 -40 81 -40c45 0 73 31 78 84h44c-6 -79 -51 -128 -120 -128z" />
    <glyph glyph-name="asciitilde" unicode="~" 
d="M392 253c-38 0 -71 25 -103 49c-30 22 -58 42 -88 42c-45 0 -78 -21 -84 -81h-44c6 81 54 126 124 126c40 0 78 -27 112 -51c30 -21 57 -40 82 -40c45 0 73 31 78 84h43c-5 -79 -50 -129 -120 -129z" />
    <glyph glyph-name="logicalnot" unicode="&#xac;" 
d="M431 182v182h-349v46h395v-228h-46z" />
    <glyph glyph-name="asciicircum" unicode="^" 
d="M88 343l181 333h50l179 -333h-51l-152 285l-155 -285h-52z" />
    <glyph glyph-name="uni00B5" unicode="&#xb5;" horiz-adv-x="571" 
d="M78 -219v735h51v-289c0 -113 34 -190 142 -190c64 0 121 36 171 102v377h50v-516h-31l-17 85c-52 -64 -118 -95 -181 -95c-60 0 -105 24 -134 66v-263z" />
    <glyph glyph-name="percent" unicode="%" horiz-adv-x="898" 
d="M218 276c-100 0 -163 79 -163 193c0 110 65 192 163 192s163 -79 163 -192c0 -112 -65 -193 -163 -193zM158 0l521 657h59l-520 -657h-60zM218 320c73 0 115 62 115 149s-41 149 -114 149c-75 0 -117 -64 -117 -149c0 -86 41 -149 116 -149zM681 -7
c-100 0 -164 79 -164 193c0 110 66 192 163 192c99 0 164 -79 164 -192c0 -112 -66 -193 -163 -193zM680 37c73 0 115 62 115 149s-40 149 -114 149s-116 -64 -116 -149c0 -86 40 -149 115 -149z" />
    <glyph glyph-name="perthousand" unicode="&#x2030;" horiz-adv-x="1281" 
d="M218 276c-100 0 -163 79 -163 193c0 110 65 192 163 192s163 -79 163 -192c0 -112 -65 -193 -163 -193zM158 0l521 657h59l-520 -657h-60zM218 320c73 0 115 62 115 149s-41 149 -114 149c-75 0 -117 -64 -117 -149c0 -86 41 -149 116 -149zM681 -7
c-100 0 -164 79 -164 193c0 110 66 192 163 192c99 0 164 -79 164 -192c0 -112 -66 -193 -163 -193zM1064 -7c-100 0 -164 79 -164 193c0 110 66 192 163 192c99 0 163 -79 163 -192c0 -112 -65 -193 -162 -193zM680 37c73 0 115 62 115 149s-40 149 -114 149
s-116 -64 -116 -149c0 -86 40 -149 115 -149zM1063 37c73 0 115 62 115 149s-40 149 -114 149c-75 0 -117 -64 -117 -149c0 -86 41 -149 116 -149z" />
    <glyph glyph-name="at" unicode="@" horiz-adv-x="927" 
d="M449 -161c-224 0 -388 168 -388 411c0 254 204 426 424 426c236 0 390 -144 390 -337c0 -169 -115 -281 -252 -281h-26l-10 51c-38 -36 -87 -60 -138 -60c-108 0 -176 81 -176 205c0 119 82 206 194 206c42 0 93 -22 124 -47l7 39h39v-352c106 5 189 94 189 239
c0 166 -132 291 -341 291c-197 0 -375 -152 -375 -380c0 -216 143 -363 341 -363c98 0 172 26 228 78l32 -34c-66 -62 -151 -92 -262 -92zM457 96c48 0 91 24 127 63v212c-36 29 -72 42 -112 42c-87 0 -148 -59 -148 -160c0 -97 50 -157 133 -157z" />
    <glyph glyph-name="ampersand" unicode="&#x26;" horiz-adv-x="639" 
d="M286 -10c-143 0 -238 76 -238 190c0 92 68 156 147 188c-45 52 -72 95 -72 153c0 97 82 165 194 165c74 0 133 -35 182 -90l-35 -33c-44 49 -88 75 -147 75c-88 0 -145 -48 -145 -120c0 -66 56 -115 132 -197l174 -187c34 47 52 107 52 180v33h48v-31
c0 -84 -24 -160 -67 -217l92 -99h-62l-61 65c-50 -47 -117 -75 -194 -75zM289 37c64 0 118 23 159 62l-222 236c-66 -24 -128 -75 -128 -150c0 -89 79 -148 191 -148z" />
    <glyph glyph-name="paragraph" unicode="&#xb6;" horiz-adv-x="540" 
d="M265 -133v48h20c67 0 107 46 107 125v623l51 11v-631c0 -112 -58 -176 -155 -176h-23zM316 223c-164 0 -261 75 -261 196c0 115 72 187 199 216l62 14v-426z" />
    <glyph glyph-name="section" unicode="&#xa7;" horiz-adv-x="437" 
d="M86 -134v46h67c80 0 121 32 121 89c0 38 -23 71 -63 107l-91 83c-44 40 -63 76 -63 123c0 57 45 106 110 118c-35 37 -50 73 -50 107c0 85 64 137 174 137h57v-45h-61c-79 0 -121 -35 -121 -91c0 -39 23 -69 63 -106l90 -81c42 -37 61 -76 61 -121
c0 -58 -47 -106 -110 -118c32 -34 55 -71 55 -111c0 -86 -62 -137 -173 -137h-66zM231 151h4c55 0 97 37 97 81c0 35 -17 62 -48 91l-79 72h-4c-56 -1 -97 -36 -97 -81c0 -35 17 -62 50 -93z" />
    <glyph glyph-name="copyright" unicode="&#xa9;" horiz-adv-x="798" 
d="M398 -10c-192 0 -350 137 -350 348c0 205 160 348 350 348c191 0 352 -140 352 -348c0 -209 -162 -348 -352 -348zM398 35c172 0 304 122 304 303c0 180 -131 303 -304 303c-172 0 -302 -125 -302 -303c0 -183 128 -303 302 -303zM403 147c-108 0 -182 77 -182 191
c0 112 79 191 186 191c47 0 95 -20 125 -58l-27 -29c-31 29 -61 42 -97 42c-83 0 -139 -56 -139 -146c0 -88 55 -145 137 -145c46 0 79 16 107 41l27 -31c-36 -36 -83 -56 -137 -56z" />
    <glyph glyph-name="registered" unicode="&#xae;" horiz-adv-x="541" 
d="M271 267c-125 0 -229 88 -229 225c0 132 105 225 229 225c122 0 228 -91 228 -225c0 -136 -107 -225 -228 -225zM271 304c108 0 187 75 187 188c0 111 -79 187 -187 187c-110 0 -188 -76 -188 -187c0 -114 78 -188 188 -188zM186 378v233h88c52 0 87 -28 87 -72
c0 -28 -18 -50 -45 -60c12 -9 23 -22 33 -40l31 -61h-45l-21 40c-15 30 -24 44 -61 44h-28v-84h-39zM225 499h43c32 0 50 14 50 38c0 28 -21 39 -50 39h-43v-77z" />
    <glyph glyph-name="trademark" unicode="&#x2122;" horiz-adv-x="825" 
d="M148 324v310h-123v42h291v-42h-124v-310h-44zM384 324v352h43l135 -237l146 237h42v-352h-44v270l-126 -199h-36l-117 197v-268h-43z" />
    <glyph glyph-name="degree" unicode="&#xb0;" horiz-adv-x="373" 
d="M186 405c-75 0 -136 61 -136 136s62 136 136 136c76 0 137 -61 137 -136s-61 -136 -137 -136zM186 448c51 0 92 42 92 93c0 52 -41 93 -92 93c-50 0 -91 -42 -91 -93s41 -93 91 -93z" />
    <glyph glyph-name="bar" unicode="|" horiz-adv-x="263" 
d="M106 -130v865h51v-865h-51z" />
    <glyph glyph-name="brokenbar" unicode="&#xa6;" horiz-adv-x="263" 
d="M106 409v326h51v-326h-51zM106 -130v327h51v-327h-51z" />
    <glyph glyph-name="dagger" unicode="&#x2020;" horiz-adv-x="354" 
d="M154 299v221h-125v42h125v114l45 10v-124h126v-42h-126v-221h-45z" />
    <glyph glyph-name="daggerdbl" unicode="&#x2021;" horiz-adv-x="364" 
d="M160 305v104h-119v42h119v94h-119v42h119v89l44 10v-99h119v-42h-119v-94h119v-42h-119v-104h-44z" />
    <glyph glyph-name="at.case" horiz-adv-x="927" 
d="M449 -94c-224 0 -388 168 -388 410c0 255 204 427 424 427c236 0 390 -144 390 -337c0 -170 -115 -281 -252 -281h-26l-10 50c-38 -36 -87 -59 -138 -59c-108 0 -176 80 -176 205c0 119 82 205 194 205c42 0 93 -21 124 -46l7 39h39v-352c106 4 189 94 189 239
c0 165 -132 291 -341 291c-197 0 -375 -153 -375 -380c0 -217 143 -363 341 -363c98 0 172 26 228 78l32 -35c-66 -61 -151 -91 -262 -91zM457 162c48 0 91 25 127 64v211c-36 29 -72 43 -112 43c-87 0 -148 -59 -148 -160c0 -97 50 -158 133 -158z" />
    <glyph glyph-name="uni0308" unicode="&#x308;" horiz-adv-x="0" 
d="M-380 629c-23 0 -38 17 -38 38c0 23 15 40 38 40c22 0 38 -17 38 -40c0 -21 -16 -38 -38 -38zM-209 629c-22 0 -37 17 -37 38c0 23 15 40 37 40c23 0 39 -17 39 -40c0 -21 -16 -38 -39 -38z" />
    <glyph glyph-name="uni0307" unicode="&#x307;" horiz-adv-x="0" 
d="M-294 629c-23 0 -38 17 -38 38c0 23 15 40 38 40s38 -17 38 -40c0 -21 -15 -38 -38 -38z" />
    <glyph glyph-name="gravecomb" unicode="&#x300;" horiz-adv-x="0" 
d="M-258 599l-130 131h67l121 -131h-58z" />
    <glyph glyph-name="acutecomb" unicode="&#x301;" horiz-adv-x="0" 
d="M-388 599l122 131h66l-130 -131h-58z" />
    <glyph glyph-name="uni0302" unicode="&#x302;" horiz-adv-x="0" 
d="M-438 599l118 131h53l118 -131h-56l-89 93l-89 -93h-55z" />
    <glyph glyph-name="uni030C" unicode="&#x30c;" horiz-adv-x="0" 
d="M-320 599l-118 131h56l89 -93l89 93h55l-118 -131h-53z" />
    <glyph glyph-name="uni030A" unicode="&#x30a;" horiz-adv-x="0" 
d="M-294 590c-62 0 -116 50 -116 115s54 114 116 114s117 -50 117 -114c0 -66 -55 -115 -117 -115zM-294 629c41 0 75 32 75 76c0 43 -34 74 -75 74c-40 0 -74 -31 -74 -74c0 -44 34 -76 74 -76z" />
    <glyph glyph-name="tildecomb" unicode="&#x303;" horiz-adv-x="0" 
d="M-218 616c-32 0 -55 14 -79 27c-21 12 -40 24 -64 24c-30 0 -57 -17 -86 -42v48c29 25 54 39 86 39s55 -14 79 -26c22 -12 41 -25 65 -25c36 0 63 22 87 42v-48c-25 -21 -50 -39 -88 -39z" />
    <glyph glyph-name="uni0327" unicode="&#x327;" horiz-adv-x="0" 
d="M-366 -177v42h20c43 0 77 17 77 58c0 25 -15 50 -40 74l43 8c25 -24 44 -55 44 -88c0 -64 -53 -94 -123 -94h-21z" />
    <glyph glyph-name="dieresis" unicode="&#xa8;" horiz-adv-x="588" 
d="M208 629c-23 0 -38 17 -38 38c0 23 15 40 38 40c22 0 38 -17 38 -40c0 -21 -16 -38 -38 -38zM379 629c-22 0 -37 17 -37 38c0 23 15 40 37 40c23 0 39 -17 39 -40c0 -21 -16 -38 -39 -38z" />
    <glyph glyph-name="dotaccent" unicode="&#x2d9;" horiz-adv-x="588" 
d="M294 629c-23 0 -38 17 -38 38c0 23 15 40 38 40s38 -17 38 -40c0 -21 -15 -38 -38 -38z" />
    <glyph glyph-name="grave" unicode="`" horiz-adv-x="588" 
d="M330 599l-130 131h67l121 -131h-58z" />
    <glyph glyph-name="acute" unicode="&#xb4;" horiz-adv-x="588" 
d="M200 599l122 131h66l-130 -131h-58z" />
    <glyph glyph-name="circumflex" unicode="&#x2c6;" horiz-adv-x="588" 
d="M150 599l118 131h53l118 -131h-56l-89 93l-89 -93h-55z" />
    <glyph glyph-name="caron" unicode="&#x2c7;" horiz-adv-x="588" 
d="M268 599l-118 131h56l89 -93l89 93h55l-118 -131h-53z" />
    <glyph glyph-name="ring" unicode="&#x2da;" horiz-adv-x="588" 
d="M294 590c-62 0 -116 50 -116 115s54 114 116 114s117 -50 117 -114c0 -66 -55 -115 -117 -115zM294 629c41 0 75 32 75 76c0 43 -34 74 -75 74c-40 0 -74 -31 -74 -74c0 -44 34 -76 74 -76z" />
    <glyph glyph-name="tilde" unicode="&#x2dc;" horiz-adv-x="588" 
d="M370 616c-32 0 -55 14 -79 27c-21 12 -40 24 -64 24c-30 0 -57 -17 -86 -42v48c29 25 54 39 86 39s55 -14 79 -26c22 -12 41 -25 65 -25c36 0 63 22 87 42v-48c-25 -21 -50 -39 -88 -39z" />
    <glyph glyph-name="cedilla" unicode="&#xb8;" horiz-adv-x="588" 
d="M222 -177v42h20c43 0 77 17 77 58c0 25 -15 50 -40 74l43 8c25 -24 44 -55 44 -88c0 -64 -53 -94 -123 -94h-21z" />
    <glyph glyph-name="uni0308.case" horiz-adv-x="0" 
d="M-380 762c-23 0 -39 16 -39 37c0 22 16 38 39 38c22 0 39 -17 39 -38s-17 -37 -39 -37zM-208 762c-22 0 -39 16 -39 37c0 22 17 38 39 38c23 0 39 -16 39 -38c0 -21 -16 -37 -39 -37z" />
    <glyph glyph-name="uni0307.case" horiz-adv-x="0" 
d="M-294 771c-23 0 -39 16 -39 37c0 22 16 38 39 38s39 -17 39 -38s-16 -37 -39 -37z" />
    <glyph glyph-name="gravecomb.case" horiz-adv-x="0" 
d="M-258 744l-131 122h69l122 -122h-60z" />
    <glyph glyph-name="acutecomb.case" horiz-adv-x="0" 
d="M-389 744l122 122h69l-131 -122h-60z" />
    <glyph glyph-name="uni0302.case" horiz-adv-x="0" 
d="M-441 744l120 122h56l119 -122h-59l-89 85l-89 -85h-58z" />
    <glyph glyph-name="uni030C.case" horiz-adv-x="0" 
d="M-322 744l-119 122h59l89 -86l89 86h58l-120 -122h-56z" />
    <glyph glyph-name="uni030A.case" horiz-adv-x="0" 
d="M-294 738c-62 0 -116 50 -116 115s54 114 116 114s117 -50 117 -114c0 -66 -55 -115 -117 -115zM-294 777c41 0 75 33 75 76s-34 74 -75 74c-40 0 -74 -31 -74 -74c0 -44 34 -76 74 -76z" />
    <glyph glyph-name="tildecomb.case" horiz-adv-x="0" 
d="M-217 761c-34 0 -56 12 -78 26c-19 12 -37 21 -59 21c-32 0 -63 -17 -91 -39v46c29 24 57 37 90 37c32 0 54 -10 75 -24c20 -13 39 -23 62 -23c38 0 68 20 92 39v-47c-25 -21 -54 -36 -91 -36z" />
    <glyph glyph-name="uni0327.case" horiz-adv-x="0" 
d="M-367 -179v44h19c44 0 79 17 79 57c0 26 -16 51 -41 76l44 8c26 -25 45 -56 45 -89c0 -65 -54 -96 -126 -96h-20z" />
    <glyph glyph-name="gravecomb.narrow.case" horiz-adv-x="0" 
d="M-273 744l-105 122h63l97 -122h-55z" />
    <glyph glyph-name="acutecomb.narrow.case" horiz-adv-x="0" 
d="M-378 744l96 122h63l-105 -122h-54z" />
    <glyph glyph-name="gravecomb.narrow" horiz-adv-x="0" 
d="M-273 599l-105 131h63l96 -131h-54z" />
    <glyph glyph-name="acutecomb.narrow" horiz-adv-x="0" 
d="M-378 599l97 131h62l-105 -131h-54z" />
    <glyph glyph-name="periodsuperior" horiz-adv-x="149" 
d="M73 343c-20 0 -35 15 -35 36s15 36 35 36c22 0 37 -15 37 -36s-15 -36 -37 -36z" />
    <glyph glyph-name="commasuperior" horiz-adv-x="149" 
d="M3 273c27 42 47 98 53 140h50c-6 -46 -29 -102 -58 -140h-45z" />
    </font>
</defs>
</svg>
