<?xml version="1.0" standalone="no"?>
<!DOCTYPE svg PUBLIC "-//W3C//DTD SVG 1.1//EN" "http://www.w3.org/Graphics/SVG/1.1/DTD/svg11.dtd" >
<svg xmlns="http://www.w3.org/2000/svg" xmlns:xlink="http://www.w3.org/1999/xlink" version="1.1">
<metadata>
Created by FontForge 20190531 at Fri Aug  9 12:40:44 2019
 By Henrique Beier
Copyright \(c\) 2019 Banco Bradesco S.A. All rights reserved.
</metadata>
<defs>
<font id="BradescoSans-LightItalic" horiz-adv-x="586" >
  <font-face 
    font-family="Bradesco Sans Light"
    font-weight="300"
    font-style="italic"
    font-stretch="normal"
    units-per-em="1000"
    panose-1="0 0 4 0 0 0 0 0 0 0"
    ascent="800"
    descent="-200"
    x-height="516"
    cap-height="676"
    bbox="-453 -222 1181 967"
    underline-thickness="50"
    underline-position="-100"
    slope="-12"
    stemh="45"
    stemv="51"
    unicode-range="U+0020-FB02"
  />
<missing-glyph horiz-adv-x="472" 
d="M387 730v-944h-299v944h299zM314 667h-155v-31h61v-35h-62v-31h156v31h-62v35h62v31zM252 545h-94v-98h156v32h-62v66zM220 513v-34h-31v34h31zM314 421h-156v-31h62v-35h-62v-31h94v66h62v31zM314 365h-31v-63h-125v-32h156v95zM314 250h-94v-53h32v21h31v-44h-94v76
h-31v-107h156v107zM314 86h-156v-106h156v106zM283 55v-44h-94v44h94zM314 -42h-156v-31h66l-66 -45v-31h156v31h-96l66 45h30v31z" />
    <glyph glyph-name="fi" unicode="fi" horiz-adv-x="588" 
d="M22 0l117 546c26 124 95 193 201 193c41 0 83 -19 111 -49l-33 -32c-27 26 -52 34 -84 34c-79 0 -126 -52 -147 -147l-5 -29h221l-10 -45h-222l-99 -471h-50zM562 629c-20 0 -33 14 -33 33c0 25 18 45 42 45c20 0 33 -14 33 -33c0 -25 -19 -45 -42 -45zM404 0l110 516h50
l-110 -516h-50z" />
    <glyph glyph-name="fl" unicode="fl" horiz-adv-x="647" 
d="M22 0l117 546c26 124 95 193 201 193c41 0 83 -19 111 -49l-33 -32c-27 26 -52 34 -84 34c-79 0 -126 -52 -147 -147l-5 -29h221l-10 -45h-222l-99 -471h-50zM549 -5c-77 0 -118 42 -118 118c0 17 2 36 6 56l118 557l53 13l-124 -579c-3 -16 -4 -30 -4 -42
c0 -51 26 -79 78 -79h23l-10 -44h-22z" />
    <glyph glyph-name=".notdef" horiz-adv-x="472" 
d="M387 730v-944h-299v944h299zM314 667h-155v-31h61v-35h-62v-31h156v31h-62v35h62v31zM252 545h-94v-98h156v32h-62v66zM220 513v-34h-31v34h31zM314 421h-156v-31h62v-35h-62v-31h94v66h62v31zM314 365h-31v-63h-125v-32h156v95zM314 250h-94v-53h32v21h31v-44h-94v76
h-31v-107h156v107zM314 86h-156v-106h156v106zM283 55v-44h-94v44h94zM314 -42h-156v-31h66l-66 -45v-31h156v31h-96l66 45h30v31z" />
    <glyph glyph-name="space" unicode=" " horiz-adv-x="250" 
 />
    <glyph glyph-name="A" unicode="A" horiz-adv-x="616" 
d="M-31 0l406 676h45l117 -676h-51l-34 205h-309l-122 -205h-52zM172 253h272l-59 360z" />
    <glyph glyph-name="Aacute" unicode="&#xc1;" horiz-adv-x="616" 
d="M352 744l146 122h72l-155 -122h-63zM-31 0l406 676h45l117 -676h-51l-34 205h-309l-122 -205h-52zM172 253h272l-59 360z" />
    <glyph glyph-name="Acircumflex" unicode="&#xc2;" horiz-adv-x="616" 
d="M259 744l143 122h55l90 -122h-54l-68 85l-106 -85h-60zM-31 0l406 676h45l117 -676h-51l-34 205h-309l-122 -205h-52zM172 253h272l-59 360z" />
    <glyph glyph-name="Adieresis" unicode="&#xc4;" horiz-adv-x="616" 
d="M328 762c-22 0 -35 13 -35 32c0 24 20 43 43 43c20 0 34 -14 34 -33c0 -22 -19 -42 -42 -42zM496 762c-21 0 -34 13 -34 32c0 24 19 43 43 43c20 0 34 -13 34 -33c0 -23 -19 -42 -43 -42zM-31 0l406 676h45l117 -676h-51l-34 205h-309l-122 -205h-52zM172 253h272
l-59 360z" />
    <glyph glyph-name="Agrave" unicode="&#xc0;" horiz-adv-x="616" 
d="M399 744l-103 122h63l95 -122h-55zM-31 0l406 676h45l117 -676h-51l-34 205h-309l-122 -205h-52zM172 253h272l-59 360z" />
    <glyph glyph-name="Aring" unicode="&#xc5;" horiz-adv-x="616" 
d="M425 647l112 -647h-51l-34 205h-309l-122 -205h-52l392 653c-41 17 -72 58 -72 107c0 64 54 114 115 114c62 0 117 -51 117 -114c0 -58 -43 -104 -96 -113zM331 760c0 -44 34 -76 73 -76c41 0 75 32 75 76c0 43 -34 74 -75 74c-39 0 -73 -31 -73 -74zM172 253h272
l-59 360z" />
    <glyph glyph-name="Atilde" unicode="&#xc3;" horiz-adv-x="616" 
d="M483 761c-31 0 -55 17 -79 30c-18 10 -37 18 -58 18c-33 0 -60 -17 -91 -41l11 50c30 25 55 36 87 36c26 0 48 -12 70 -24s43 -24 66 -24c39 0 67 22 94 42l-12 -51c-26 -21 -51 -36 -88 -36zM-31 0l406 676h45l117 -676h-51l-34 205h-309l-122 -205h-52zM172 253h272
l-59 360z" />
    <glyph glyph-name="AE" unicode="&#xc6;" horiz-adv-x="947" 
d="M-49 0l614 676h421l-11 -49h-354l-53 -252h309l-10 -50h-310l-58 -275h365l-11 -50h-415l43 199h-288l-181 -199h-61zM235 245h255l78 368z" />
    <glyph glyph-name="B" unicode="B" horiz-adv-x="576" 
d="M34 0l144 676h194c108 0 173 -67 173 -150c0 -86 -52 -149 -132 -177c65 -21 103 -79 103 -145c0 -125 -104 -204 -243 -204h-239zM160 368h149c108 0 188 60 188 155c0 62 -45 108 -133 108h-148zM92 45h178c117 0 196 60 196 158c0 68 -48 118 -129 118h-187z" />
    <glyph glyph-name="C" unicode="C" horiz-adv-x="632" 
d="M304 -10c-150 0 -240 104 -240 257c0 229 161 439 384 439c85 0 149 -39 191 -99l-38 -31c-41 54 -90 81 -156 81c-196 0 -330 -189 -330 -385c0 -127 71 -213 193 -213c78 0 148 32 209 82l29 -37c-74 -62 -155 -94 -242 -94z" />
    <glyph glyph-name="Ccedilla" unicode="&#xc7;" horiz-adv-x="632" 
d="M448 686c85 0 149 -39 191 -99l-38 -31c-41 54 -90 81 -156 81c-196 0 -330 -189 -330 -385c0 -127 71 -213 193 -213c78 0 148 32 209 82l29 -37c-68 -57 -142 -89 -221 -93c10 -17 17 -37 17 -58c0 -72 -66 -111 -144 -111h-23l10 43h17c53 0 93 28 93 76
c0 16 -6 33 -17 50c-135 12 -214 112 -214 256c0 229 161 439 384 439z" />
    <glyph glyph-name="D" unicode="D" horiz-adv-x="661" 
d="M34 0l144 676h164c173 0 283 -118 283 -275c0 -229 -163 -401 -402 -401h-189zM95 48h133c213 0 346 155 346 350c0 136 -93 231 -233 231h-122z" />
    <glyph glyph-name="Eth" unicode="&#xd0;" horiz-adv-x="682" 
d="M56 0l69 323h-93l9 46h93l66 307h164c173 0 283 -118 283 -275c0 -229 -163 -401 -402 -401h-189zM116 48h134c213 0 346 155 346 350c0 136 -93 231 -233 231h-122l-56 -260h213l-10 -46h-213z" />
    <glyph glyph-name="E" unicode="E" horiz-adv-x="543" 
d="M34 0l144 676h404l-11 -49h-354l-53 -252h309l-10 -50h-310l-58 -275h365l-11 -50h-415z" />
    <glyph glyph-name="Eacute" unicode="&#xc9;" horiz-adv-x="543" 
d="M334 744l146 122h72l-155 -122h-63zM34 0l144 676h404l-11 -49h-354l-53 -252h309l-10 -50h-310l-58 -275h365l-11 -50h-415z" />
    <glyph glyph-name="Ecircumflex" unicode="&#xca;" horiz-adv-x="543" 
d="M241 744l143 122h55l90 -122h-54l-68 85l-106 -85h-60zM34 0l144 676h404l-11 -49h-354l-53 -252h309l-10 -50h-310l-58 -275h365l-11 -50h-415z" />
    <glyph glyph-name="Edieresis" unicode="&#xcb;" horiz-adv-x="543" 
d="M310 762c-22 0 -35 13 -35 32c0 24 20 43 43 43c20 0 34 -14 34 -33c0 -22 -19 -42 -42 -42zM478 762c-21 0 -34 13 -34 32c0 24 19 43 43 43c20 0 34 -13 34 -33c0 -23 -19 -42 -43 -42zM34 0l144 676h404l-11 -49h-354l-53 -252h309l-10 -50h-310l-58 -275h365l-11 -50
h-415z" />
    <glyph glyph-name="Egrave" unicode="&#xc8;" horiz-adv-x="543" 
d="M381 744l-103 122h63l95 -122h-55zM34 0l144 676h404l-11 -49h-354l-53 -252h309l-10 -50h-310l-58 -275h365l-11 -50h-415z" />
    <glyph glyph-name="F" unicode="F" horiz-adv-x="544" 
d="M34 0l144 676h408l-11 -49h-357l-54 -252h311l-11 -50h-310l-70 -325h-50z" />
    <glyph glyph-name="G" unicode="G" horiz-adv-x="655" 
d="M307 -10c-150 0 -243 102 -243 256c0 234 162 440 390 440c85 0 152 -40 193 -99l-36 -30c-40 52 -92 80 -161 80c-200 0 -335 -184 -335 -385c0 -128 74 -213 196 -213c80 0 139 22 197 63l41 187h-194l10 48h244l-55 -260c-76 -59 -160 -87 -247 -87z" />
    <glyph glyph-name="H" unicode="H" horiz-adv-x="648" 
d="M34 0l144 676h50l-64 -301h370l64 301h51l-144 -676h-51l69 325h-369l-70 -325h-50z" />
    <glyph glyph-name="I" unicode="I" horiz-adv-x="228" 
d="M34 0l144 676h50l-144 -676h-50z" />
    <glyph glyph-name="Iacute" unicode="&#xcd;" horiz-adv-x="228" 
d="M184 744l122 122h66l-131 -122h-57zM34 0l144 676h50l-144 -676h-50z" />
    <glyph glyph-name="Icircumflex" unicode="&#xce;" horiz-adv-x="228" 
d="M69 744l143 122h55l90 -122h-54l-68 85l-106 -85h-60zM34 0l144 676h50l-144 -676h-50z" />
    <glyph glyph-name="Idieresis" unicode="&#xcf;" horiz-adv-x="228" 
d="M138 762c-22 0 -35 13 -35 32c0 24 20 43 43 43c20 0 34 -14 34 -33c0 -22 -19 -42 -42 -42zM306 762c-21 0 -34 13 -34 32c0 24 19 43 43 43c20 0 34 -13 34 -33c0 -23 -19 -42 -43 -42zM34 0l144 676h50l-144 -676h-50z" />
    <glyph glyph-name="Igrave" unicode="&#xcc;" horiz-adv-x="228" 
d="M192 744l-75 122h58l67 -122h-50zM34 0l144 676h50l-144 -676h-50z" />
    <glyph glyph-name="J" unicode="J" horiz-adv-x="357" 
d="M-27 0l11 49h37c103 0 169 56 194 171l97 456h50l-98 -462c-33 -153 -121 -214 -254 -214h-37z" />
    <glyph glyph-name="K" unicode="K" horiz-adv-x="624" 
d="M34 0l144 676h50l-64 -303h103c80 0 120 40 185 121l146 182h58l-169 -210c-42 -51 -78 -90 -121 -115l182 -351h-58l-170 332c-19 -5 -40 -7 -64 -7h-103l-69 -325h-50z" />
    <glyph glyph-name="L" unicode="L" horiz-adv-x="527" 
d="M34 0l144 676h50l-133 -626h352l-10 -50h-403z" />
    <glyph glyph-name="M" unicode="M" horiz-adv-x="821" 
d="M34 0l144 676h46l160 -479l386 479h50l-143 -676h-51l126 583l-356 -440h-41l-148 435l-123 -578h-50z" />
    <glyph glyph-name="N" unicode="N" horiz-adv-x="650" 
d="M34 0l144 676h39l261 -585l124 585h48l-144 -676h-38l-262 584l-123 -584h-49z" />
    <glyph glyph-name="Ntilde" unicode="&#xd1;" horiz-adv-x="650" 
d="M492 761c-31 0 -55 17 -79 30c-18 10 -37 18 -58 18c-33 0 -60 -17 -91 -41l11 50c30 25 55 36 87 36c26 0 48 -12 70 -24s43 -24 66 -24c39 0 67 22 94 42l-12 -51c-26 -21 -51 -36 -88 -36zM34 0l144 676h39l261 -585l124 585h48l-144 -676h-38l-262 584l-123 -584h-49
z" />
    <glyph glyph-name="O" unicode="O" horiz-adv-x="715" 
d="M307 -10c-149 0 -243 105 -243 260c0 225 169 436 378 436c148 0 243 -106 243 -260c0 -222 -167 -436 -378 -436zM311 39c183 0 323 195 323 384c0 127 -74 214 -194 214c-188 0 -325 -194 -325 -382c0 -127 73 -216 196 -216z" />
    <glyph glyph-name="Oacute" unicode="&#xd3;" horiz-adv-x="715" 
d="M394 744l146 122h72l-155 -122h-63zM307 -10c-149 0 -243 105 -243 260c0 225 169 436 378 436c148 0 243 -106 243 -260c0 -222 -167 -436 -378 -436zM311 39c183 0 323 195 323 384c0 127 -74 214 -194 214c-188 0 -325 -194 -325 -382c0 -127 73 -216 196 -216z" />
    <glyph glyph-name="Ocircumflex" unicode="&#xd4;" horiz-adv-x="715" 
d="M301 744l143 122h55l90 -122h-54l-68 85l-106 -85h-60zM307 -10c-149 0 -243 105 -243 260c0 225 169 436 378 436c148 0 243 -106 243 -260c0 -222 -167 -436 -378 -436zM311 39c183 0 323 195 323 384c0 127 -74 214 -194 214c-188 0 -325 -194 -325 -382
c0 -127 73 -216 196 -216z" />
    <glyph glyph-name="Odieresis" unicode="&#xd6;" horiz-adv-x="715" 
d="M370 762c-22 0 -35 13 -35 32c0 24 20 43 43 43c20 0 34 -14 34 -33c0 -22 -19 -42 -42 -42zM538 762c-21 0 -34 13 -34 32c0 24 19 43 43 43c20 0 34 -13 34 -33c0 -23 -19 -42 -43 -42zM307 -10c-149 0 -243 105 -243 260c0 225 169 436 378 436
c148 0 243 -106 243 -260c0 -222 -167 -436 -378 -436zM311 39c183 0 323 195 323 384c0 127 -74 214 -194 214c-188 0 -325 -194 -325 -382c0 -127 73 -216 196 -216z" />
    <glyph glyph-name="Ograve" unicode="&#xd2;" horiz-adv-x="715" 
d="M440 744l-103 122h63l95 -122h-55zM307 -10c-149 0 -243 105 -243 260c0 225 169 436 378 436c148 0 243 -106 243 -260c0 -222 -167 -436 -378 -436zM311 39c183 0 323 195 323 384c0 127 -74 214 -194 214c-188 0 -325 -194 -325 -382c0 -127 73 -216 196 -216z" />
    <glyph glyph-name="Oslash" unicode="&#xd8;" horiz-adv-x="715" 
d="M-6 -36l116 123c-29 43 -46 99 -46 163c0 225 169 436 378 436c70 0 128 -24 170 -65l86 90h59l-117 -124c29 -43 45 -98 45 -161c0 -222 -167 -436 -378 -436c-69 0 -127 23 -169 64l-84 -90h-60zM147 126l430 457c-33 34 -80 54 -137 54c-188 0 -325 -194 -325 -382
c0 -49 12 -94 32 -129zM311 39c183 0 323 195 323 384c0 48 -11 91 -31 125l-429 -456c33 -33 80 -53 137 -53z" />
    <glyph glyph-name="Otilde" unicode="&#xd5;" horiz-adv-x="715" 
d="M524 761c-31 0 -55 17 -79 30c-18 10 -37 18 -58 18c-33 0 -60 -17 -91 -41l11 50c30 25 55 36 87 36c26 0 48 -12 70 -24s43 -24 66 -24c39 0 67 22 94 42l-12 -51c-26 -21 -51 -36 -88 -36zM307 -10c-149 0 -243 105 -243 260c0 225 169 436 378 436
c148 0 243 -106 243 -260c0 -222 -167 -436 -378 -436zM311 39c183 0 323 195 323 384c0 127 -74 214 -194 214c-188 0 -325 -194 -325 -382c0 -127 73 -216 196 -216z" />
    <glyph glyph-name="OE" unicode="&#x152;" horiz-adv-x="1063" 
d="M307 -10c-149 0 -243 105 -243 260c0 225 169 436 378 436c117 0 195 -67 222 -170l34 160h404l-11 -49h-354l-53 -252h309l-10 -50h-310l-58 -275h365l-11 -50h-415l32 148c-66 -93 -165 -158 -279 -158zM311 39c183 0 323 195 323 384c0 127 -74 214 -194 214
c-188 0 -325 -194 -325 -382c0 -127 73 -216 196 -216z" />
    <glyph glyph-name="P" unicode="P" horiz-adv-x="576" 
d="M34 0l144 676h197c123 0 197 -73 197 -170c0 -142 -113 -237 -269 -237h-162l-58 -269h-49zM151 318h150c134 0 220 72 220 186c0 75 -54 124 -152 124h-152z" />
    <glyph glyph-name="Thorn" unicode="&#xde;" horiz-adv-x="574" 
d="M34 0l144 676h49l-21 -99h154c122 0 197 -74 197 -170c0 -143 -114 -237 -270 -237h-167l-37 -170h-49zM130 219h156c134 0 220 72 220 186c0 74 -55 124 -153 124h-157z" />
    <glyph glyph-name="Q" unicode="Q" horiz-adv-x="715" 
d="M557 -89l-78 130c-51 -32 -110 -51 -172 -51c-149 0 -243 105 -243 260c0 225 169 436 378 436c148 0 243 -106 243 -260c0 -139 -65 -275 -165 -357l79 -132zM311 38c52 0 101 17 144 44l-72 120l41 26l71 -117c85 74 139 193 139 312c0 127 -74 214 -194 214
c-188 0 -325 -194 -325 -382c0 -127 73 -217 196 -217z" />
    <glyph glyph-name="R" unicode="R" horiz-adv-x="582" 
d="M34 0l144 676h191c115 0 194 -62 194 -159c0 -113 -79 -187 -190 -209c39 -23 65 -67 88 -144l48 -164h-53l-40 138c-28 99 -48 155 -156 155h-114l-62 -293h-50zM156 341h142c125 0 215 65 215 175c0 70 -51 112 -148 112h-148z" />
    <glyph glyph-name="S" unicode="S" horiz-adv-x="583" 
d="M255 -10c-93 0 -178 37 -236 107l36 32c55 -62 127 -91 206 -91c112 0 183 58 183 140c0 66 -40 104 -145 145c-123 48 -177 93 -177 181c0 115 115 182 232 182c91 0 164 -36 215 -102l-37 -30c-52 61 -106 84 -183 84c-99 0 -177 -53 -178 -131c0 -70 56 -101 153 -139
c113 -45 171 -99 171 -186c0 -116 -92 -192 -240 -192z" />
    <glyph glyph-name="Scaron" unicode="&#x160;" horiz-adv-x="583" 
d="M337 744l-91 122h54l69 -86l106 86h60l-143 -122h-55zM255 -10c-93 0 -178 37 -236 107l36 32c55 -62 127 -91 206 -91c112 0 183 58 183 140c0 66 -40 104 -145 145c-123 48 -177 93 -177 181c0 115 115 182 232 182c91 0 164 -36 215 -102l-37 -30
c-52 61 -106 84 -183 84c-99 0 -177 -53 -178 -131c0 -70 56 -101 153 -139c113 -45 171 -99 171 -186c0 -116 -92 -192 -240 -192z" />
    <glyph glyph-name="uni1E9E" unicode="&#x1e9e;" horiz-adv-x="650" 
d="M354 -10c-75 0 -137 27 -184 79l33 32c47 -45 90 -64 149 -64c110 0 190 63 190 159c0 72 -52 130 -153 130h-60l7 37l223 222c-29 32 -79 54 -140 54c-135 0 -223 -81 -259 -252l-82 -387h-50l83 390c41 195 154 296 309 296c105 0 166 -53 201 -96l-225 -221l11 -1
c108 -4 186 -72 185 -170c0 -124 -105 -208 -238 -208z" />
    <glyph glyph-name="T" unicode="T" horiz-adv-x="595" 
d="M217 0l133 627h-235l10 49h521l-11 -49h-234l-134 -627h-50z" />
    <glyph glyph-name="U" unicode="U" horiz-adv-x="661" 
d="M293 -10c-132 0 -212 80 -212 223c0 31 3 65 11 101l77 362h51l-79 -365c-7 -35 -11 -67 -11 -95c0 -115 60 -178 165 -178c122 0 208 92 247 275l77 363h51l-78 -366c-45 -207 -152 -320 -299 -320z" />
    <glyph glyph-name="Uacute" unicode="&#xda;" horiz-adv-x="661" 
d="M368 744l146 122h72l-155 -122h-63zM293 -10c-132 0 -212 80 -212 223c0 31 3 65 11 101l77 362h51l-79 -365c-7 -35 -11 -67 -11 -95c0 -115 60 -178 165 -178c122 0 208 92 247 275l77 363h51l-78 -366c-45 -207 -152 -320 -299 -320z" />
    <glyph glyph-name="Ucircumflex" unicode="&#xdb;" horiz-adv-x="661" 
d="M275 744l143 122h55l90 -122h-54l-68 85l-106 -85h-60zM293 -10c-132 0 -212 80 -212 223c0 31 3 65 11 101l77 362h51l-79 -365c-7 -35 -11 -67 -11 -95c0 -115 60 -178 165 -178c122 0 208 92 247 275l77 363h51l-78 -366c-45 -207 -152 -320 -299 -320z" />
    <glyph glyph-name="Udieresis" unicode="&#xdc;" horiz-adv-x="661" 
d="M344 762c-22 0 -35 13 -35 32c0 24 20 43 43 43c20 0 34 -14 34 -33c0 -22 -19 -42 -42 -42zM512 762c-21 0 -34 13 -34 32c0 24 19 43 43 43c20 0 34 -13 34 -33c0 -23 -19 -42 -43 -42zM293 -10c-132 0 -212 80 -212 223c0 31 3 65 11 101l77 362h51l-79 -365
c-7 -35 -11 -67 -11 -95c0 -115 60 -178 165 -178c122 0 208 92 247 275l77 363h51l-78 -366c-45 -207 -152 -320 -299 -320z" />
    <glyph glyph-name="Ugrave" unicode="&#xd9;" horiz-adv-x="661" 
d="M415 744l-103 122h63l95 -122h-55zM293 -10c-132 0 -212 80 -212 223c0 31 3 65 11 101l77 362h51l-79 -365c-7 -35 -11 -67 -11 -95c0 -115 60 -178 165 -178c122 0 208 92 247 275l77 363h51l-78 -366c-45 -207 -152 -320 -299 -320z" />
    <glyph glyph-name="V" unicode="V" horiz-adv-x="615" 
d="M229 0l-115 676h51l99 -608l361 608h55l-405 -676h-46z" />
    <glyph glyph-name="W" unicode="W" horiz-adv-x="914" 
d="M173 0l-51 676h51l39 -604l305 564h49l55 -564l298 604h52l-339 -676h-48l-60 565l-302 -565h-49z" />
    <glyph glyph-name="Wacute" unicode="&#x1e82;" horiz-adv-x="914" 
d="M497 744l146 122h72l-155 -122h-63zM173 0l-51 676h51l39 -604l305 564h49l55 -564l298 604h52l-339 -676h-48l-60 565l-302 -565h-49z" />
    <glyph glyph-name="Wcircumflex" unicode="&#x174;" horiz-adv-x="914" 
d="M404 744l143 122h55l90 -122h-54l-68 85l-106 -85h-60zM173 0l-51 676h51l39 -604l305 564h49l55 -564l298 604h52l-339 -676h-48l-60 565l-302 -565h-49z" />
    <glyph glyph-name="Wdieresis" unicode="&#x1e84;" horiz-adv-x="914" 
d="M473 762c-22 0 -35 13 -35 32c0 24 20 43 43 43c20 0 34 -14 34 -33c0 -22 -19 -42 -42 -42zM641 762c-21 0 -34 13 -34 32c0 24 19 43 43 43c20 0 34 -13 34 -33c0 -23 -19 -42 -43 -42zM173 0l-51 676h51l39 -604l305 564h49l55 -564l298 604h52l-339 -676h-48l-60 565
l-302 -565h-49z" />
    <glyph glyph-name="Wgrave" unicode="&#x1e80;" horiz-adv-x="914" 
d="M544 744l-103 122h63l95 -122h-55zM173 0l-51 676h51l39 -604l305 564h49l55 -564l298 604h52l-339 -676h-48l-60 565l-302 -565h-49z" />
    <glyph glyph-name="X" unicode="X" horiz-adv-x="616" 
d="M-26 0l323 362l-153 314h55l135 -282l256 282h61l-294 -322l174 -354h-57l-155 319l-283 -319h-62z" />
    <glyph glyph-name="Y" unicode="Y" horiz-adv-x="533" 
d="M185 0l57 265l-135 411h51l117 -364l271 364h58l-313 -414l-55 -262h-51z" />
    <glyph glyph-name="Yacute" unicode="&#xdd;" horiz-adv-x="533" 
d="M295 744l146 122h72l-155 -122h-63zM185 0l57 265l-135 411h51l117 -364l271 364h58l-313 -414l-55 -262h-51z" />
    <glyph glyph-name="Ycircumflex" unicode="&#x176;" horiz-adv-x="533" 
d="M202 744l143 122h55l90 -122h-54l-68 85l-106 -85h-60zM185 0l57 265l-135 411h51l117 -364l271 364h58l-313 -414l-55 -262h-51z" />
    <glyph glyph-name="Ydieresis" unicode="&#x178;" horiz-adv-x="533" 
d="M271 762c-22 0 -35 13 -35 32c0 24 20 43 43 43c20 0 34 -14 34 -33c0 -22 -19 -42 -42 -42zM439 762c-21 0 -34 13 -34 32c0 24 19 43 43 43c20 0 34 -13 34 -33c0 -23 -19 -42 -43 -42zM185 0l57 265l-135 411h51l117 -364l271 364h58l-313 -414l-55 -262h-51z" />
    <glyph glyph-name="Ygrave" unicode="&#x1ef2;" horiz-adv-x="533" 
d="M341 744l-103 122h63l95 -122h-55zM185 0l57 265l-135 411h51l117 -364l271 364h58l-313 -414l-55 -262h-51z" />
    <glyph glyph-name="Z" unicode="Z" horiz-adv-x="589" 
d="M-12 0l8 40l552 587h-412l11 49h480l-7 -40l-551 -587h437l-11 -49h-507z" />
    <glyph glyph-name="Zcaron" unicode="&#x17d;" horiz-adv-x="589" 
d="M359 744l-91 122h54l69 -86l106 86h60l-143 -122h-55zM-12 0l8 40l552 587h-412l11 49h480l-7 -40l-551 -587h437l-11 -49h-507z" />
    <glyph glyph-name="a" unicode="a" horiz-adv-x="516" 
d="M154 -10c-85 0 -132 54 -132 124c0 107 94 169 231 169h149l7 32c5 23 6 43 6 58c0 69 -42 106 -118 106c-55 0 -111 -25 -159 -67l-27 34c55 50 123 80 190 80c103 0 162 -56 162 -151c0 -20 -3 -41 -9 -70l-65 -305h-31l2 79c-59 -53 -136 -89 -206 -89zM160 36
c72 0 152 40 211 99l21 104h-146c-106 0 -177 -47 -177 -122c0 -48 32 -81 91 -81z" />
    <glyph glyph-name="aacute" unicode="&#xe1;" horiz-adv-x="516" 
d="M263 599l144 131h72l-156 -131h-60zM154 -10c-85 0 -132 54 -132 124c0 107 94 169 231 169h149l7 32c5 23 6 43 6 58c0 69 -42 106 -118 106c-55 0 -111 -25 -159 -67l-27 34c55 50 123 80 190 80c103 0 162 -56 162 -151c0 -20 -3 -41 -9 -70l-65 -305h-31l2 79
c-59 -53 -136 -89 -206 -89zM160 36c72 0 152 40 211 99l21 104h-146c-106 0 -177 -47 -177 -122c0 -48 32 -81 91 -81z" />
    <glyph glyph-name="acircumflex" unicode="&#xe2;" horiz-adv-x="516" 
d="M170 599l143 131h54l87 -131h-52l-68 93l-108 -93h-56zM154 -10c-85 0 -132 54 -132 124c0 107 94 169 231 169h149l7 32c5 23 6 43 6 58c0 69 -42 106 -118 106c-55 0 -111 -25 -159 -67l-27 34c55 50 123 80 190 80c103 0 162 -56 162 -151c0 -20 -3 -41 -9 -70
l-65 -305h-31l2 79c-59 -53 -136 -89 -206 -89zM160 36c72 0 152 40 211 99l21 104h-146c-106 0 -177 -47 -177 -122c0 -48 32 -81 91 -81z" />
    <glyph glyph-name="adieresis" unicode="&#xe4;" horiz-adv-x="516" 
d="M240 629c-21 0 -34 14 -34 32c0 26 19 46 43 46c20 0 33 -14 33 -33c0 -25 -20 -45 -42 -45zM407 629c-20 0 -33 14 -33 33c0 25 19 45 42 45c21 0 34 -14 34 -33c0 -25 -19 -45 -43 -45zM154 -10c-85 0 -132 54 -132 124c0 107 94 169 231 169h149l7 32c5 23 6 43 6 58
c0 69 -42 106 -118 106c-55 0 -111 -25 -159 -67l-27 34c55 50 123 80 190 80c103 0 162 -56 162 -151c0 -20 -3 -41 -9 -70l-65 -305h-31l2 79c-59 -53 -136 -89 -206 -89zM160 36c72 0 152 40 211 99l21 104h-146c-106 0 -177 -47 -177 -122c0 -48 32 -81 91 -81z" />
    <glyph glyph-name="agrave" unicode="&#xe0;" horiz-adv-x="516" 
d="M308 599l-99 131h61l90 -131h-52zM154 -10c-85 0 -132 54 -132 124c0 107 94 169 231 169h149l7 32c5 23 6 43 6 58c0 69 -42 106 -118 106c-55 0 -111 -25 -159 -67l-27 34c55 50 123 80 190 80c103 0 162 -56 162 -151c0 -20 -3 -41 -9 -70l-65 -305h-31l2 79
c-59 -53 -136 -89 -206 -89zM160 36c72 0 152 40 211 99l21 104h-146c-106 0 -177 -47 -177 -122c0 -48 32 -81 91 -81z" />
    <glyph glyph-name="aring" unicode="&#xe5;" horiz-adv-x="516" 
d="M330 591c-62 0 -116 50 -116 115s54 114 116 114s117 -50 117 -114c0 -66 -55 -115 -117 -115zM330 630c41 0 75 32 75 76c0 43 -34 74 -75 74c-40 0 -74 -31 -74 -74c0 -44 34 -76 74 -76zM154 -10c-85 0 -132 54 -132 124c0 107 94 169 231 169h149l7 32
c5 23 6 43 6 58c0 69 -42 106 -118 106c-55 0 -111 -25 -159 -67l-27 34c55 50 123 80 190 80c103 0 162 -56 162 -151c0 -20 -3 -41 -9 -70l-65 -305h-31l2 79c-59 -53 -136 -89 -206 -89zM160 36c72 0 152 40 211 99l21 104h-146c-106 0 -177 -47 -177 -122
c0 -48 32 -81 91 -81z" />
    <glyph glyph-name="atilde" unicode="&#xe3;" horiz-adv-x="516" 
d="M392 616c-30 0 -52 15 -73 28c-20 12 -41 22 -64 22c-33 0 -60 -18 -91 -43l11 51c29 25 54 38 86 38c28 0 51 -15 73 -28c21 -11 42 -22 64 -22c38 0 66 23 93 43l-11 -52c-26 -21 -51 -37 -88 -37zM154 -10c-85 0 -132 54 -132 124c0 107 94 169 231 169h149l7 32
c5 23 6 43 6 58c0 69 -42 106 -118 106c-55 0 -111 -25 -159 -67l-27 34c55 50 123 80 190 80c103 0 162 -56 162 -151c0 -20 -3 -41 -9 -70l-65 -305h-31l2 79c-59 -53 -136 -89 -206 -89zM160 36c72 0 152 40 211 99l21 104h-146c-106 0 -177 -47 -177 -122
c0 -48 32 -81 91 -81z" />
    <glyph glyph-name="ae" unicode="&#xe6;" horiz-adv-x="890" 
d="M161 -10c-91 0 -139 54 -139 124c0 109 94 173 231 173h150l6 28c5 23 6 43 6 58c0 69 -42 106 -118 106c-55 0 -111 -25 -159 -67l-27 34c55 50 123 80 190 80c92 0 148 -46 157 -126c51 75 130 126 220 126c110 0 172 -72 172 -183c0 -27 -4 -56 -11 -85l-3 -16h-393
c-3 -16 -5 -33 -5 -49c0 -93 53 -156 149 -156c56 0 111 24 158 62l29 -34c-60 -49 -123 -75 -190 -75c-93 0 -156 45 -181 119c-67 -72 -163 -119 -242 -119zM452 287h344c3 19 5 38 5 54c0 87 -44 140 -128 140c-107 0 -188 -89 -221 -194zM167 36c78 0 164 47 226 114
c-2 13 -3 26 -3 40c0 17 1 35 4 53h-148c-100 0 -177 -46 -177 -126c0 -48 33 -81 98 -81z" />
    <glyph glyph-name="b" unicode="b" horiz-adv-x="579" 
d="M231 -8c-63 0 -120 32 -152 69l-25 -61h-32l155 726l52 13l-63 -294c57 50 128 81 192 81c110 0 178 -81 178 -196c0 -182 -126 -338 -305 -338zM228 38c161 0 258 135 258 291c0 91 -50 150 -134 150c-71 0 -142 -39 -199 -98l-60 -280c35 -35 82 -63 135 -63z" />
    <glyph glyph-name="c" unicode="c" horiz-adv-x="507" 
d="M234 -10c-119 0 -191 80 -191 199c0 177 131 337 302 337c62 0 114 -29 149 -78l-35 -28c-29 37 -66 59 -116 59c-147 0 -250 -143 -250 -286c0 -94 54 -157 144 -157c61 0 113 24 160 62l27 -33c-55 -47 -117 -75 -190 -75z" />
    <glyph glyph-name="ccedilla" unicode="&#xe7;" horiz-adv-x="507" 
d="M345 526c62 0 114 -29 149 -78l-35 -28c-29 37 -66 59 -116 59c-147 0 -250 -143 -250 -286c0 -94 54 -157 144 -157c61 0 113 24 160 62l27 -33c-51 -44 -108 -71 -175 -75c11 -16 18 -36 18 -57c0 -71 -63 -110 -140 -110h-22l9 42h17c52 0 92 28 92 75
c0 17 -6 34 -19 52c-101 12 -161 88 -161 197c0 177 131 337 302 337z" />
    <glyph glyph-name="d" unicode="d" horiz-adv-x="578" 
d="M221 -10c-110 0 -178 82 -178 197c0 183 126 339 305 339c59 0 114 -29 146 -63l56 263l52 13l-157 -739h-30v75c-57 -53 -129 -85 -194 -85zM227 37c69 0 140 38 197 97l60 283c-33 36 -80 63 -134 63c-160 0 -257 -136 -257 -291c0 -91 50 -152 134 -152z" />
    <glyph glyph-name="eth" unicode="&#xf0;" horiz-adv-x="575" 
d="M236 -10c-121 0 -196 79 -196 194c0 168 129 318 293 318c66 0 128 -28 161 -61c-4 60 -22 113 -51 159l-152 -42l9 42l119 34c-26 34 -59 65 -98 92l53 11c34 -24 64 -55 91 -91l130 37l-8 -42l-101 -28c36 -60 58 -131 58 -209c0 -38 -4 -79 -14 -123
c-35 -167 -150 -291 -294 -291zM237 36c118 0 215 105 246 252c7 35 12 68 13 98c-35 40 -90 71 -156 71c-146 0 -250 -128 -250 -268c0 -88 52 -153 147 -153z" />
    <glyph glyph-name="e" unicode="e" horiz-adv-x="543" 
d="M238 -10c-124 0 -195 82 -195 200c0 173 126 336 289 336c109 0 172 -72 172 -183c0 -25 -4 -53 -11 -82l-3 -15h-393c-3 -18 -4 -35 -4 -53c0 -93 51 -157 147 -157c57 0 112 25 158 63l30 -34c-60 -49 -124 -75 -190 -75zM109 291h340c4 19 6 34 6 50
c0 87 -44 140 -128 140c-105 0 -186 -87 -218 -190z" />
    <glyph glyph-name="eacute" unicode="&#xe9;" horiz-adv-x="543" 
d="M286 599l144 131h72l-156 -131h-60zM238 -10c-124 0 -195 82 -195 200c0 173 126 336 289 336c109 0 172 -72 172 -183c0 -25 -4 -53 -11 -82l-3 -15h-393c-3 -18 -4 -35 -4 -53c0 -93 51 -157 147 -157c57 0 112 25 158 63l30 -34c-60 -49 -124 -75 -190 -75zM109 291
h340c4 19 6 34 6 50c0 87 -44 140 -128 140c-105 0 -186 -87 -218 -190z" />
    <glyph glyph-name="ecircumflex" unicode="&#xea;" horiz-adv-x="543" 
d="M193 599l143 131h54l87 -131h-52l-68 93l-108 -93h-56zM238 -10c-124 0 -195 82 -195 200c0 173 126 336 289 336c109 0 172 -72 172 -183c0 -25 -4 -53 -11 -82l-3 -15h-393c-3 -18 -4 -35 -4 -53c0 -93 51 -157 147 -157c57 0 112 25 158 63l30 -34
c-60 -49 -124 -75 -190 -75zM109 291h340c4 19 6 34 6 50c0 87 -44 140 -128 140c-105 0 -186 -87 -218 -190z" />
    <glyph glyph-name="edieresis" unicode="&#xeb;" horiz-adv-x="543" 
d="M263 629c-21 0 -34 14 -34 32c0 26 19 46 43 46c20 0 33 -14 33 -33c0 -25 -20 -45 -42 -45zM430 629c-20 0 -33 14 -33 33c0 25 19 45 42 45c21 0 34 -14 34 -33c0 -25 -19 -45 -43 -45zM238 -10c-124 0 -195 82 -195 200c0 173 126 336 289 336c109 0 172 -72 172 -183
c0 -25 -4 -53 -11 -82l-3 -15h-393c-3 -18 -4 -35 -4 -53c0 -93 51 -157 147 -157c57 0 112 25 158 63l30 -34c-60 -49 -124 -75 -190 -75zM109 291h340c4 19 6 34 6 50c0 87 -44 140 -128 140c-105 0 -186 -87 -218 -190z" />
    <glyph glyph-name="egrave" unicode="&#xe8;" horiz-adv-x="543" 
d="M331 599l-99 131h61l90 -131h-52zM238 -10c-124 0 -195 82 -195 200c0 173 126 336 289 336c109 0 172 -72 172 -183c0 -25 -4 -53 -11 -82l-3 -15h-393c-3 -18 -4 -35 -4 -53c0 -93 51 -157 147 -157c57 0 112 25 158 63l30 -34c-60 -49 -124 -75 -190 -75zM109 291h340
c4 19 6 34 6 50c0 87 -44 140 -128 140c-105 0 -186 -87 -218 -190z" />
    <glyph glyph-name="f" unicode="f" horiz-adv-x="380" 
d="M22 0l117 546c26 124 95 193 201 193c41 0 83 -19 111 -49l-33 -32c-27 26 -52 34 -84 34c-79 0 -126 -52 -147 -147l-5 -29h221l-10 -45h-222l-99 -471h-50z" />
    <glyph glyph-name="g" unicode="g" horiz-adv-x="571" 
d="M177 -222c-89 0 -155 42 -192 89l34 32c38 -43 91 -75 159 -75c112 0 190 72 214 188l16 73c-56 -48 -126 -77 -188 -77c-109 0 -178 83 -178 192c0 175 125 326 303 326c61 0 117 -30 149 -66l24 56h31l-108 -509c-30 -141 -128 -229 -264 -229zM225 54
c70 0 140 37 196 95l57 272c-33 33 -79 59 -130 59c-161 0 -256 -129 -256 -279c0 -85 51 -147 133 -147z" />
    <glyph glyph-name="h" unicode="h" horiz-adv-x="559" 
d="M22 0l155 726l52 13l-64 -302c64 62 131 89 189 89c95 0 150 -59 150 -154c0 -25 -3 -53 -10 -83l-61 -289h-50l61 284c6 30 11 60 11 84c0 68 -33 111 -108 111c-62 0 -132 -37 -196 -106l-79 -373h-50z" />
    <glyph glyph-name="i" unicode="i" horiz-adv-x="208" 
d="M182 629c-20 0 -33 14 -33 33c0 25 18 45 42 45c20 0 33 -14 33 -33c0 -25 -19 -45 -42 -45zM24 0l110 516h50l-110 -516h-50z" />
    <glyph glyph-name="dotlessi" unicode="&#x131;" horiz-adv-x="208" 
d="M24 0l110 516h50l-110 -516h-50z" />
    <glyph glyph-name="iacute" unicode="&#xed;" horiz-adv-x="208" 
d="M142 599l122 131h67l-132 -131h-57zM24 0l110 516h50l-110 -516h-50z" />
    <glyph glyph-name="icircumflex" unicode="&#xee;" horiz-adv-x="208" 
d="M29 599l143 131h54l87 -131h-52l-68 93l-108 -93h-56zM24 0l110 516h50l-110 -516h-50z" />
    <glyph glyph-name="idieresis" unicode="&#xef;" horiz-adv-x="208" 
d="M99 629c-21 0 -34 14 -34 32c0 26 19 46 43 46c20 0 33 -14 33 -33c0 -25 -20 -45 -42 -45zM266 629c-20 0 -33 14 -33 33c0 25 19 45 42 45c21 0 34 -14 34 -33c0 -25 -19 -45 -43 -45zM24 0l110 516h50l-110 -516h-50z" />
    <glyph glyph-name="igrave" unicode="&#xec;" horiz-adv-x="208" 
d="M150 599l-75 131h58l67 -131h-50zM24 0l110 516h50l-110 -516h-50z" />
    <glyph glyph-name="j" unicode="j" horiz-adv-x="208" 
d="M182 629c-20 0 -33 14 -33 33c0 25 18 45 42 45c20 0 33 -14 33 -33c0 -25 -19 -45 -42 -45zM-142 -211l11 46h18c75 0 112 45 129 124l118 557h50l-119 -557c-24 -112 -80 -170 -181 -170h-26z" />
    <glyph glyph-name="uni0237" unicode="&#x237;" horiz-adv-x="208" 
d="M-142 -211l11 46h18c75 0 112 45 129 124l118 557h50l-119 -557c-24 -112 -80 -170 -181 -170h-26z" />
    <glyph glyph-name="k" unicode="k" horiz-adv-x="522" 
d="M22 0l155 726l52 13l-96 -450h79c57 0 97 27 151 92l111 135h57l-132 -159c-30 -37 -61 -67 -93 -87l146 -270h-56l-135 250c-15 -5 -31 -7 -47 -7h-91l-51 -243h-50z" />
    <glyph glyph-name="l" unicode="l" horiz-adv-x="264" 
d="M165 -5c-77 0 -118 42 -118 118c0 17 2 36 6 56l118 557l53 13l-124 -579c-3 -16 -4 -30 -4 -42c0 -51 26 -79 78 -79h23l-10 -44h-22z" />
    <glyph glyph-name="m" unicode="m" horiz-adv-x="858" 
d="M22 0l110 516h31l-2 -82c61 59 126 92 181 92c66 0 112 -34 129 -91c62 61 134 91 196 91c85 0 139 -50 139 -144c0 -21 -2 -42 -7 -67l-67 -315h-50l66 312c5 24 8 44 8 64c0 65 -30 103 -98 103c-58 0 -123 -32 -180 -91c1 -17 -2 -48 -7 -71l-67 -317h-50l67 312
c5 26 8 47 8 67c0 60 -30 100 -96 100c-56 0 -124 -42 -182 -107l-79 -372h-50z" />
    <glyph glyph-name="n" unicode="n" horiz-adv-x="559" 
d="M22 0l110 516h31l-2 -82c65 64 134 92 193 92c95 0 150 -59 150 -154c0 -25 -3 -53 -10 -83l-61 -289h-50l61 284c6 30 11 60 11 84c0 68 -33 111 -108 111c-62 0 -132 -37 -196 -106l-79 -373h-50z" />
    <glyph glyph-name="ntilde" unicode="&#xf1;" horiz-adv-x="559" 
d="M421 616c-30 0 -52 15 -73 28c-20 12 -41 22 -64 22c-33 0 -60 -18 -91 -43l11 51c29 25 54 38 86 38c28 0 51 -15 73 -28c21 -11 42 -22 64 -22c38 0 66 23 93 43l-11 -52c-26 -21 -51 -37 -88 -37zM22 0l110 516h31l-2 -82c65 64 134 92 193 92c95 0 150 -59 150 -154
c0 -25 -3 -53 -10 -83l-61 -289h-50l61 284c6 30 11 60 11 84c0 68 -33 111 -108 111c-62 0 -132 -37 -196 -106l-79 -373h-50z" />
    <glyph glyph-name="o" unicode="o" horiz-adv-x="580" 
d="M239 -10c-121 0 -196 83 -196 203c0 171 134 333 298 333c120 0 196 -83 196 -202c0 -173 -134 -334 -298 -334zM241 36c142 0 246 146 246 286c0 94 -55 157 -148 157c-142 0 -246 -144 -246 -284c0 -95 55 -159 148 -159z" />
    <glyph glyph-name="oacute" unicode="&#xf3;" horiz-adv-x="580" 
d="M300 599l144 131h72l-156 -131h-60zM239 -10c-121 0 -196 83 -196 203c0 171 134 333 298 333c120 0 196 -83 196 -202c0 -173 -134 -334 -298 -334zM241 36c142 0 246 146 246 286c0 94 -55 157 -148 157c-142 0 -246 -144 -246 -284c0 -95 55 -159 148 -159z" />
    <glyph glyph-name="ocircumflex" unicode="&#xf4;" horiz-adv-x="580" 
d="M207 599l143 131h54l87 -131h-52l-68 93l-108 -93h-56zM239 -10c-121 0 -196 83 -196 203c0 171 134 333 298 333c120 0 196 -83 196 -202c0 -173 -134 -334 -298 -334zM241 36c142 0 246 146 246 286c0 94 -55 157 -148 157c-142 0 -246 -144 -246 -284
c0 -95 55 -159 148 -159z" />
    <glyph glyph-name="odieresis" unicode="&#xf6;" horiz-adv-x="580" 
d="M277 629c-21 0 -34 14 -34 32c0 26 19 46 43 46c20 0 33 -14 33 -33c0 -25 -20 -45 -42 -45zM444 629c-20 0 -33 14 -33 33c0 25 19 45 42 45c21 0 34 -14 34 -33c0 -25 -19 -45 -43 -45zM239 -10c-121 0 -196 83 -196 203c0 171 134 333 298 333c120 0 196 -83 196 -202
c0 -173 -134 -334 -298 -334zM241 36c142 0 246 146 246 286c0 94 -55 157 -148 157c-142 0 -246 -144 -246 -284c0 -95 55 -159 148 -159z" />
    <glyph glyph-name="ograve" unicode="&#xf2;" horiz-adv-x="580" 
d="M346 599l-99 131h61l90 -131h-52zM239 -10c-121 0 -196 83 -196 203c0 171 134 333 298 333c120 0 196 -83 196 -202c0 -173 -134 -334 -298 -334zM241 36c142 0 246 146 246 286c0 94 -55 157 -148 157c-142 0 -246 -144 -246 -284c0 -95 55 -159 148 -159z" />
    <glyph glyph-name="oslash" unicode="&#xf8;" horiz-adv-x="580" 
d="M-9 -37l91 100c-25 34 -39 78 -39 130c0 171 134 333 298 333c51 0 94 -15 126 -41l62 67h57l-89 -98c25 -34 40 -78 40 -130c0 -173 -134 -334 -298 -334c-53 0 -95 15 -127 43l-64 -70h-57zM117 101l317 347c-24 20 -56 31 -95 31c-142 0 -246 -144 -246 -284
c0 -36 8 -68 24 -94zM241 36c142 0 246 146 246 286c0 37 -8 70 -25 95l-317 -348c24 -21 56 -33 96 -33z" />
    <glyph glyph-name="otilde" unicode="&#xf5;" horiz-adv-x="580" 
d="M429 616c-30 0 -52 15 -73 28c-20 12 -41 22 -64 22c-33 0 -60 -18 -91 -43l11 51c29 25 54 38 86 38c28 0 51 -15 73 -28c21 -11 42 -22 64 -22c38 0 66 23 93 43l-11 -52c-26 -21 -51 -37 -88 -37zM239 -10c-121 0 -196 83 -196 203c0 171 134 333 298 333
c120 0 196 -83 196 -202c0 -173 -134 -334 -298 -334zM241 36c142 0 246 146 246 286c0 94 -55 157 -148 157c-142 0 -246 -144 -246 -284c0 -95 55 -159 148 -159z" />
    <glyph glyph-name="oe" unicode="&#x153;" horiz-adv-x="974" 
d="M239 -10c-121 0 -196 83 -196 203c0 171 134 333 298 333c101 0 168 -59 187 -148c51 87 136 148 235 148c110 0 172 -72 172 -183c0 -25 -4 -53 -11 -82l-3 -15h-392c-3 -18 -5 -35 -5 -53c0 -93 52 -156 148 -156c56 0 111 24 158 62l29 -34c-60 -49 -123 -75 -190 -75
c-104 0 -170 57 -187 149c-53 -88 -142 -149 -243 -149zM540 291h341c3 19 5 34 5 50c0 87 -44 140 -128 140c-105 0 -186 -87 -218 -190zM241 36c142 0 246 146 246 286c0 94 -55 157 -148 157c-142 0 -246 -144 -246 -284c0 -95 55 -159 148 -159z" />
    <glyph glyph-name="p" unicode="p" horiz-adv-x="579" 
d="M-24 -219l156 735h31l-1 -76c57 53 130 86 196 86c110 0 178 -81 178 -196c0 -182 -126 -338 -305 -338c-60 0 -116 27 -147 60l-55 -259zM228 38c161 0 258 135 258 291c0 91 -50 150 -134 150c-71 0 -142 -39 -199 -98l-60 -283c34 -35 82 -60 135 -60z" />
    <glyph glyph-name="thorn" unicode="&#xfe;" horiz-adv-x="579" 
d="M-24 -219l201 945l52 13l-63 -295c57 51 128 82 192 82c110 0 178 -81 178 -196c0 -182 -127 -338 -305 -338c-60 0 -116 27 -147 60l-55 -259zM228 38c161 0 258 135 258 291c0 91 -50 150 -134 150c-71 0 -142 -38 -199 -98l-60 -283c34 -35 82 -60 135 -60z" />
    <glyph glyph-name="q" unicode="q" horiz-adv-x="579" 
d="M351 -219l61 290c-57 -50 -128 -81 -191 -81c-110 0 -178 82 -178 197c0 183 126 339 305 339c62 0 120 -32 152 -69l25 59h31l-154 -723zM227 37c70 0 141 39 199 98l59 282c-34 35 -81 63 -135 63c-160 0 -257 -136 -257 -291c0 -91 50 -152 134 -152z" />
    <glyph glyph-name="r" unicode="r" horiz-adv-x="361" 
d="M22 0l110 516h31l-2 -83c68 64 144 91 211 91h16l-11 -48h-18c-69 0 -141 -35 -208 -104l-79 -372h-50z" />
    <glyph glyph-name="s" unicode="s" horiz-adv-x="480" 
d="M202 -10c-85 0 -157 36 -199 92l36 28c39 -49 97 -73 169 -73c82 0 135 40 135 99c0 48 -29 76 -110 107c-93 35 -139 72 -139 137c0 92 87 146 185 146c73 0 131 -31 171 -81l-37 -27c-39 45 -81 62 -137 62c-72 0 -133 -33 -134 -95c0 -52 43 -73 116 -100
c91 -34 135 -79 135 -145c0 -91 -76 -150 -191 -150z" />
    <glyph glyph-name="scaron" unicode="&#x161;" horiz-adv-x="480" 
d="M273 599l-87 131h52l68 -93l108 93h56l-143 -131h-54zM202 -10c-85 0 -157 36 -199 92l36 28c39 -49 97 -73 169 -73c82 0 135 40 135 99c0 48 -29 76 -110 107c-93 35 -139 72 -139 137c0 92 87 146 185 146c73 0 131 -31 171 -81l-37 -27c-39 45 -81 62 -137 62
c-72 0 -133 -33 -134 -95c0 -52 43 -73 116 -100c91 -34 135 -79 135 -145c0 -91 -76 -150 -191 -150z" />
    <glyph glyph-name="germandbls" unicode="&#xdf;" horiz-adv-x="610" 
d="M338 -10c-75 1 -132 32 -170 78l34 30c36 -39 78 -60 137 -61c89 -1 155 36 155 108c0 57 -38 85 -87 109c-52 27 -108 44 -108 108c0 57 47 91 96 128c44 33 93 64 93 120c0 50 -48 83 -115 83c-100 0 -170 -73 -195 -192l-106 -501h-50l107 503c32 148 127 236 248 236
c94 0 159 -54 159 -126c0 -71 -53 -107 -109 -149c-38 -29 -81 -54 -81 -94s41 -54 92 -80c54 -26 106 -68 106 -143c0 -101 -88 -159 -206 -157z" />
    <glyph glyph-name="t" unicode="t" horiz-adv-x="380" 
d="M189 -9c-88 0 -134 49 -134 132c0 17 2 36 6 57l99 464l52 12l-29 -140h208l-10 -45h-208l-63 -298c-4 -16 -6 -32 -6 -46c0 -57 30 -89 86 -89c39 0 63 11 91 29l23 -36c-35 -26 -74 -40 -115 -40z" />
    <glyph glyph-name="u" unicode="u" horiz-adv-x="554" 
d="M201 -9c-94 0 -147 58 -147 153c0 25 3 54 10 83l61 289h50l-60 -284c-7 -30 -12 -60 -12 -84c0 -67 31 -111 105 -111c61 0 130 38 194 107l80 372h49l-109 -516h-31l1 83c-64 -64 -132 -92 -191 -92z" />
    <glyph glyph-name="uacute" unicode="&#xfa;" horiz-adv-x="554" 
d="M282 599l144 131h72l-156 -131h-60zM201 -9c-94 0 -147 58 -147 153c0 25 3 54 10 83l61 289h50l-60 -284c-7 -30 -12 -60 -12 -84c0 -67 31 -111 105 -111c61 0 130 38 194 107l80 372h49l-109 -516h-31l1 83c-64 -64 -132 -92 -191 -92z" />
    <glyph glyph-name="ucircumflex" unicode="&#xfb;" horiz-adv-x="554" 
d="M189 599l143 131h54l87 -131h-52l-68 93l-108 -93h-56zM201 -9c-94 0 -147 58 -147 153c0 25 3 54 10 83l61 289h50l-60 -284c-7 -30 -12 -60 -12 -84c0 -67 31 -111 105 -111c61 0 130 38 194 107l80 372h49l-109 -516h-31l1 83c-64 -64 -132 -92 -191 -92z" />
    <glyph glyph-name="udieresis" unicode="&#xfc;" horiz-adv-x="554" 
d="M259 629c-21 0 -34 14 -34 32c0 26 19 46 43 46c20 0 33 -14 33 -33c0 -25 -20 -45 -42 -45zM426 629c-20 0 -33 14 -33 33c0 25 19 45 42 45c21 0 34 -14 34 -33c0 -25 -19 -45 -43 -45zM201 -9c-94 0 -147 58 -147 153c0 25 3 54 10 83l61 289h50l-60 -284
c-7 -30 -12 -60 -12 -84c0 -67 31 -111 105 -111c61 0 130 38 194 107l80 372h49l-109 -516h-31l1 83c-64 -64 -132 -92 -191 -92z" />
    <glyph glyph-name="ugrave" unicode="&#xf9;" horiz-adv-x="554" 
d="M327 599l-99 131h61l90 -131h-52zM201 -9c-94 0 -147 58 -147 153c0 25 3 54 10 83l61 289h50l-60 -284c-7 -30 -12 -60 -12 -84c0 -67 31 -111 105 -111c61 0 130 38 194 107l80 372h49l-109 -516h-31l1 83c-64 -64 -132 -92 -191 -92z" />
    <glyph glyph-name="v" unicode="v" horiz-adv-x="511" 
d="M177 0l-101 516h51l85 -450l278 450h56l-323 -516h-46z" />
    <glyph glyph-name="w" unicode="w" horiz-adv-x="756" 
d="M134 0l-47 516h50l35 -445l233 407h47l53 -408l224 446h53l-267 -516h-47l-55 411l-232 -411h-47z" />
    <glyph glyph-name="wacute" unicode="&#x1e83;" horiz-adv-x="756" 
d="M387 599l144 131h72l-156 -131h-60zM134 0l-47 516h50l35 -445l233 407h47l53 -408l224 446h53l-267 -516h-47l-55 411l-232 -411h-47z" />
    <glyph glyph-name="wcircumflex" unicode="&#x175;" horiz-adv-x="756" 
d="M295 599l143 131h54l87 -131h-52l-68 93l-108 -93h-56zM134 0l-47 516h50l35 -445l233 407h47l53 -408l224 446h53l-267 -516h-47l-55 411l-232 -411h-47z" />
    <glyph glyph-name="wdieresis" unicode="&#x1e85;" horiz-adv-x="756" 
d="M365 629c-21 0 -34 14 -34 32c0 26 19 46 43 46c20 0 33 -14 33 -33c0 -25 -20 -45 -42 -45zM532 629c-20 0 -33 14 -33 33c0 25 19 45 42 45c21 0 34 -14 34 -33c0 -25 -19 -45 -43 -45zM134 0l-47 516h50l35 -445l233 407h47l53 -408l224 446h53l-267 -516h-47l-55 411
l-232 -411h-47z" />
    <glyph glyph-name="wgrave" unicode="&#x1e81;" horiz-adv-x="756" 
d="M433 599l-99 131h61l90 -131h-52zM134 0l-47 516h50l35 -445l233 407h47l53 -408l224 446h53l-267 -516h-47l-55 411l-232 -411h-47z" />
    <glyph glyph-name="x" unicode="x" horiz-adv-x="510" 
d="M-27 0l255 274l-125 242h56l105 -209l194 209h59l-231 -248l139 -268h-58l-119 234l-215 -234h-60z" />
    <glyph glyph-name="y" unicode="y" horiz-adv-x="507" 
d="M-35 -211l10 47h18c64 0 112 39 155 111l42 70l-116 499h52l99 -440l264 440h53l-354 -588c-58 -97 -118 -139 -199 -139h-24z" />
    <glyph glyph-name="yacute" unicode="&#xfd;" horiz-adv-x="507" 
d="M264 599l144 131h72l-156 -131h-60zM-35 -211l10 47h18c64 0 112 39 155 111l42 70l-116 499h52l99 -440l264 440h53l-354 -588c-58 -97 -118 -139 -199 -139h-24z" />
    <glyph glyph-name="ycircumflex" unicode="&#x177;" horiz-adv-x="507" 
d="M171 599l143 131h54l87 -131h-52l-68 93l-108 -93h-56zM-35 -211l10 47h18c64 0 112 39 155 111l42 70l-116 499h52l99 -440l264 440h53l-354 -588c-58 -97 -118 -139 -199 -139h-24z" />
    <glyph glyph-name="ydieresis" unicode="&#xff;" horiz-adv-x="507" 
d="M241 629c-21 0 -34 14 -34 32c0 26 19 46 43 46c20 0 33 -14 33 -33c0 -25 -20 -45 -42 -45zM408 629c-20 0 -33 14 -33 33c0 25 19 45 42 45c21 0 34 -14 34 -33c0 -25 -19 -45 -43 -45zM-35 -211l10 47h18c64 0 112 39 155 111l42 70l-116 499h52l99 -440l264 440h53
l-354 -588c-58 -97 -118 -139 -199 -139h-24z" />
    <glyph glyph-name="ygrave" unicode="&#x1ef3;" horiz-adv-x="507" 
d="M310 599l-99 131h61l90 -131h-52zM-35 -211l10 47h18c64 0 112 39 155 111l42 70l-116 499h52l99 -440l264 440h53l-354 -588c-58 -97 -118 -139 -199 -139h-24z" />
    <glyph glyph-name="z" unicode="z" horiz-adv-x="501" 
d="M-2 0l7 38l423 433h-325l10 45h390l-8 -37l-421 -433h336l-10 -46h-402z" />
    <glyph glyph-name="zcaron" unicode="&#x17e;" horiz-adv-x="501" 
d="M286 599l-87 131h52l68 -93l108 93h56l-143 -131h-54zM-2 0l7 38l423 433h-325l10 45h390l-8 -37l-421 -433h336l-10 -46h-402z" />
    <glyph glyph-name="ordfeminine" unicode="&#xaa;" horiz-adv-x="384" 
d="M164 285c-66 0 -103 37 -103 91c0 84 74 129 176 129h109l4 19c4 17 5 31 5 44c0 47 -25 72 -82 72c-41 0 -84 -17 -121 -49l-25 31c43 39 98 60 148 60c81 0 124 -38 124 -112c0 -16 -2 -34 -6 -54l-48 -224h-29v57c-43 -37 -99 -64 -152 -64zM170 326
c52 0 111 29 154 71l14 69h-107c-70 0 -125 -30 -125 -85c0 -31 23 -55 64 -55z" />
    <glyph glyph-name="ordmasculine" unicode="&#xba;" horiz-adv-x="440" 
d="M232 285c-90 0 -149 63 -149 154c0 128 97 243 220 243c90 0 150 -63 150 -153c0 -124 -95 -244 -221 -244zM233 329c102 0 173 99 173 198c0 66 -40 112 -105 112c-103 0 -171 -99 -171 -199c0 -65 38 -111 103 -111z" />
    <glyph glyph-name="uni03BC" unicode="&#x3bc;" horiz-adv-x="561" 
d="M-24 -219l156 735h50l-63 -291c-6 -30 -10 -56 -10 -80c0 -67 30 -108 107 -108c64 0 130 38 193 105l79 374h50l-109 -516h-31l1 82c-65 -64 -134 -91 -194 -91s-101 26 -121 67l-55 -265z" />
    <glyph glyph-name="zero" unicode="0" horiz-adv-x="609" 
d="M257 -10c-123 0 -196 97 -196 237c0 214 132 439 320 439c123 0 197 -98 197 -237c0 -208 -129 -439 -321 -439zM259 39c166 0 269 213 269 392c0 110 -54 186 -149 186c-167 0 -268 -209 -268 -389c0 -111 52 -189 148 -189z" />
    <glyph glyph-name="one" unicode="1" horiz-adv-x="354" 
d="M140 0l128 603l-166 -50l9 44l181 60h37l-139 -657h-50z" />
    <glyph glyph-name="two" unicode="2" horiz-adv-x="549" 
d="M10 0l7 37l311 258c80 66 155 124 152 215c-2 64 -46 108 -134 108c-76 0 -133 -30 -193 -84l-29 35c67 62 140 97 226 97c114 0 178 -67 181 -155c2 -101 -73 -170 -161 -241l-275 -222h346l-9 -48h-422z" />
    <glyph glyph-name="three" unicode="3" horiz-adv-x="546" 
d="M219 -10c-82 0 -166 39 -212 93l36 29c41 -44 108 -73 180 -73c113 0 198 57 198 161c0 80 -56 131 -157 131h-62l5 33l261 245h-333l11 48h398l-8 -37l-259 -244c119 -5 195 -72 195 -175c0 -136 -111 -211 -253 -211z" />
    <glyph glyph-name="four" unicode="4" horiz-adv-x="585" 
d="M334 0l39 181h-343l8 38l436 438h48l-91 -429h102l-10 -47h-101l-39 -181h-49zM104 228h279l76 358z" />
    <glyph glyph-name="five" unicode="5" horiz-adv-x="539" 
d="M222 -10c-89 0 -164 41 -204 91l36 31c37 -44 97 -73 171 -73c116 0 193 65 193 173c0 72 -52 127 -152 127h-157l6 31l104 287h304l-9 -48h-265l-80 -223h99c125 0 201 -72 201 -171c0 -140 -103 -225 -247 -225z" />
    <glyph glyph-name="six" unicode="6" horiz-adv-x="563" 
d="M266 -10c-123 0 -199 88 -199 217c0 34 4 66 11 108c40 222 163 351 313 351c62 0 122 -24 163 -80l-34 -30c-34 44 -76 62 -132 62c-119 0 -211 -96 -254 -265c62 30 124 45 186 45c110 0 183 -74 181 -183c-1 -130 -103 -225 -235 -225zM270 37c108 0 183 77 182 180
c0 80 -52 134 -141 134c-68 0 -131 -17 -187 -48c-8 -40 -10 -65 -9 -97c1 -102 58 -169 155 -169z" />
    <glyph glyph-name="seven" unicode="7" horiz-adv-x="540" 
d="M99 0l406 610h-379l10 47h438l-6 -34l-411 -623h-58z" />
    <glyph glyph-name="eight" unicode="8" horiz-adv-x="594" 
d="M269 -10c-136 0 -225 66 -225 167c0 90 76 159 179 205c-52 31 -86 71 -86 133c0 105 110 171 235 171c119 0 197 -66 197 -150c0 -90 -66 -151 -157 -194c63 -36 101 -80 101 -147c0 -116 -112 -185 -244 -185zM367 345c84 29 155 86 155 167c0 61 -60 109 -154 109
c-102 0 -184 -47 -184 -125c0 -64 48 -97 141 -133c15 -6 28 -12 42 -18zM272 36c108 0 192 56 192 138c0 75 -62 111 -165 151c-11 5 -22 9 -33 14c-92 -34 -173 -99 -173 -177c0 -82 81 -126 179 -126z" />
    <glyph glyph-name="nine" unicode="9" horiz-adv-x="563" 
d="M206 -10c-59 0 -128 25 -170 79l35 29c35 -41 85 -60 138 -60c126 0 208 96 248 277c-62 -32 -122 -47 -184 -47c-113 0 -188 74 -188 178c0 129 103 220 235 220c122 0 199 -93 199 -220c0 -35 -2 -74 -10 -116c-38 -217 -148 -340 -303 -340zM282 315
c66 0 128 18 185 51c5 33 6 60 5 87c-1 97 -61 165 -156 165c-106 0 -181 -68 -181 -168c0 -82 53 -135 147 -135z" />
    <glyph glyph-name="zero.zero" horiz-adv-x="609" 
d="M381 666c123 0 197 -98 197 -237c0 -208 -129 -439 -321 -439c-123 0 -196 97 -196 237c0 214 132 439 320 439zM379 617c-167 0 -268 -209 -268 -389c0 -27 3 -52 9 -74l380 395c-25 43 -66 68 -121 68zM259 39c166 0 269 213 269 392c0 26 -3 51 -9 73l-381 -396
c25 -43 66 -69 121 -69z" />
    <glyph glyph-name="zero.tf" 
d="M246 -10c-119 0 -191 97 -191 237c0 214 129 439 314 439c119 0 192 -98 192 -237c0 -208 -127 -439 -315 -439zM247 39c163 0 264 213 264 392c0 110 -53 186 -144 186c-163 0 -262 -209 -262 -389c0 -111 52 -189 142 -189z" />
    <glyph glyph-name="one.tf" 
d="M266 0l128 603l-189 -56l8 42l205 68h37l-139 -657h-50z" />
    <glyph glyph-name="two.tf" 
d="M21 0l8 37l311 258c80 66 155 124 152 215c-2 64 -47 108 -135 108c-76 0 -133 -30 -192 -84l-30 35c67 62 141 97 226 97c115 0 179 -67 181 -155c3 -101 -73 -170 -161 -241l-275 -222h347l-10 -48h-422z" />
    <glyph glyph-name="three.tf" 
d="M235 -10c-82 0 -166 39 -212 93l37 29c41 -44 108 -73 179 -73c113 0 199 57 199 161c0 80 -57 131 -157 131h-63l6 33l260 245h-332l10 48h398l-7 -37l-259 -244c118 -5 194 -72 194 -175c0 -136 -111 -211 -253 -211z" />
    <glyph glyph-name="four.tf" 
d="M338 0l39 181h-347l7 36l441 440h48l-91 -430h102l-10 -46h-102l-38 -181h-49zM103 227h283l77 360z" />
    <glyph glyph-name="five.tf" 
d="M252 -10c-89 0 -164 41 -204 91l36 31c37 -44 97 -73 171 -73c116 0 193 65 193 173c0 72 -52 127 -152 127h-157l6 31l105 287h304l-10 -48h-265l-80 -223h99c125 0 201 -72 201 -171c0 -140 -103 -225 -247 -225z" />
    <glyph glyph-name="six.tf" 
d="M284 -10c-123 0 -198 88 -198 217c0 34 3 66 11 108c39 222 162 351 312 351c62 0 122 -24 163 -80l-34 -30c-34 44 -75 62 -132 62c-119 0 -211 -96 -253 -265c62 30 123 45 185 45c111 0 183 -74 181 -183c-1 -130 -103 -225 -235 -225zM288 37c108 0 183 77 182 180
c0 80 -52 134 -141 134c-67 0 -131 -17 -187 -48c-8 -40 -10 -65 -9 -97c1 -102 58 -169 155 -169z" />
    <glyph glyph-name="seven.tf" 
d="M119 0l406 610h-379l9 47h439l-7 -34l-411 -623h-57z" />
    <glyph glyph-name="eight.tf" 
d="M271 -10c-136 0 -225 66 -225 167c0 90 76 159 179 205c-52 31 -86 71 -86 133c0 105 110 171 234 171c120 0 198 -66 198 -150c0 -90 -66 -151 -157 -194c63 -36 100 -80 100 -147c0 -116 -111 -185 -243 -185zM368 345c85 29 156 86 156 167c0 61 -60 109 -154 109
c-102 0 -184 -47 -184 -125c0 -64 48 -97 141 -133c15 -6 28 -12 41 -18zM274 36c107 0 192 56 192 138c0 75 -63 111 -165 151c-12 5 -23 9 -33 14c-92 -34 -173 -99 -173 -177c0 -82 81 -126 179 -126z" />
    <glyph glyph-name="nine.tf" 
d="M220 -10c-59 0 -128 25 -169 79l34 29c35 -41 85 -60 138 -60c126 0 209 96 248 277c-62 -32 -122 -47 -184 -47c-112 0 -188 74 -188 178c0 129 103 220 235 220c122 0 200 -93 200 -220c0 -35 -3 -74 -10 -116c-39 -217 -149 -340 -304 -340zM296 315
c66 0 129 18 185 51c5 33 6 60 5 87c-1 97 -61 165 -155 165c-106 0 -182 -68 -182 -168c0 -82 54 -135 147 -135z" />
    <glyph glyph-name="zero.tf.zero" 
d="M369 666c119 0 192 -98 192 -237c0 -208 -127 -439 -315 -439c-119 0 -191 97 -191 237c0 214 129 439 314 439zM367 617c-163 0 -262 -209 -262 -389c0 -23 2 -44 7 -64l374 381c-24 45 -65 72 -119 72zM247 39c163 0 264 213 264 392c0 25 -3 48 -8 69l-376 -382
c23 -49 64 -79 120 -79z" />
    <glyph glyph-name="zero.subs" horiz-adv-x="411" 
d="M140 -83c-76 0 -125 55 -125 140c0 121 75 245 191 245c76 0 126 -56 126 -141c0 -118 -74 -244 -192 -244zM143 -39c91 0 144 110 144 201c0 60 -31 97 -82 97c-93 0 -145 -109 -145 -201c0 -60 31 -97 83 -97z" />
    <glyph glyph-name="one.subs" horiz-adv-x="289" 
d="M78 -76l69 326l-99 -27l8 40l112 34h34l-79 -373h-45z" />
    <glyph glyph-name="two.subs" horiz-adv-x="389" 
d="M-9 -76l6 31l179 138c53 40 88 67 88 111c0 32 -25 55 -73 55c-43 0 -78 -18 -113 -47l-25 33c45 38 92 58 143 58c74 0 115 -44 115 -98c0 -55 -46 -94 -94 -130l-146 -110h191l-8 -41h-263z" />
    <glyph glyph-name="three.subs" horiz-adv-x="396" 
d="M137 -83c-57 0 -111 22 -141 58l31 28c26 -26 63 -45 109 -45c60 0 103 31 103 80c0 40 -32 65 -86 65h-45l4 29l142 122h-187l8 43h250l-6 -31l-148 -128c68 -4 115 -43 115 -101c0 -74 -65 -120 -149 -120z" />
    <glyph glyph-name="four.subs" horiz-adv-x="416" 
d="M189 -76l20 97h-207l5 30l261 246h43l-50 -236h60l-8 -40h-61l-20 -97h-43zM66 61h152l38 177z" />
    <glyph glyph-name="five.subs" horiz-adv-x="388" 
d="M128 -83c-56 0 -103 26 -129 56l31 27c23 -24 58 -42 98 -42c63 0 105 32 105 84c0 41 -31 65 -85 65h-98l5 27l57 163h196l-8 -43h-163l-37 -108h52c76 0 128 -40 128 -101c0 -80 -63 -128 -152 -128z" />
    <glyph glyph-name="six.subs" horiz-adv-x="408" 
d="M157 -83c-74 0 -127 51 -127 128c0 17 1 40 6 63c25 123 99 194 191 194c41 0 79 -15 106 -48l-29 -26c-21 23 -45 32 -77 32c-67 0 -119 -46 -142 -129c35 15 70 23 105 23c67 0 114 -44 113 -107c0 -75 -64 -130 -146 -130zM160 -42c59 0 98 37 98 88
c0 41 -28 68 -78 68c-40 0 -74 -9 -104 -24c-2 -15 -3 -28 -3 -41c0 -56 34 -91 87 -91z" />
    <glyph glyph-name="seven.subs" horiz-adv-x="391" 
d="M47 -76l231 331h-218l9 42h274l-5 -25l-238 -348h-53z" />
    <glyph glyph-name="eight.subs" horiz-adv-x="424" 
d="M154 -84c-84 0 -140 40 -140 98c0 47 40 86 99 112c-27 17 -46 40 -46 74c0 61 68 102 144 102c75 0 126 -37 126 -88c0 -48 -36 -82 -85 -105c36 -21 56 -47 56 -83c0 -69 -71 -110 -154 -110zM214 126c45 15 81 43 81 81c0 33 -35 56 -86 56c-55 0 -100 -25 -100 -62
c0 -34 29 -51 85 -68zM159 -44c60 0 106 29 106 69s-37 58 -98 78c-6 1 -12 4 -16 5c-50 -18 -92 -49 -92 -88c0 -41 44 -64 100 -64z" />
    <glyph glyph-name="nine.subs" horiz-adv-x="406" 
d="M126 -84c-40 0 -86 16 -114 49l29 27c22 -24 52 -33 80 -33c70 0 118 45 137 137c-34 -17 -71 -26 -106 -26c-73 0 -116 51 -116 109c0 73 61 123 144 123c74 0 126 -57 128 -133c0 -20 0 -37 -3 -58c-19 -123 -87 -195 -179 -195zM161 111c39 0 73 10 103 25
c1 11 1 21 1 32c-2 54 -35 92 -89 92c-57 0 -96 -32 -96 -79c0 -42 28 -70 81 -70z" />
    <glyph glyph-name="zero.dnom" horiz-adv-x="411" 
d="M156 -7c-76 0 -125 55 -125 140c0 121 75 245 191 245c76 0 126 -56 126 -141c0 -118 -74 -244 -192 -244zM159 37c91 0 144 110 144 201c0 60 -31 97 -82 97c-93 0 -145 -109 -145 -201c0 -60 31 -97 83 -97z" />
    <glyph glyph-name="one.dnom" horiz-adv-x="289" 
d="M94 0l69 326l-99 -27l8 40l112 34h34l-79 -373h-45z" />
    <glyph glyph-name="two.dnom" horiz-adv-x="389" 
d="M7 0l6 31l179 138c53 40 88 67 88 111c0 32 -25 55 -73 55c-43 0 -78 -18 -113 -47l-25 33c45 38 92 58 143 58c74 0 115 -44 115 -98c0 -55 -46 -94 -94 -130l-146 -110h191l-8 -41h-263z" />
    <glyph glyph-name="three.dnom" horiz-adv-x="396" 
d="M153 -7c-57 0 -111 22 -141 58l31 28c26 -26 63 -45 109 -45c60 0 103 31 103 80c0 40 -32 65 -86 65h-45l4 29l142 122h-187l8 43h250l-6 -31l-148 -128c68 -4 115 -43 115 -101c0 -74 -65 -120 -149 -120z" />
    <glyph glyph-name="four.dnom" horiz-adv-x="416" 
d="M205 0l20 97h-207l5 30l261 246h43l-50 -236h60l-8 -40h-61l-20 -97h-43zM82 137h152l38 177z" />
    <glyph glyph-name="five.dnom" horiz-adv-x="388" 
d="M144 -7c-56 0 -103 26 -129 56l31 27c23 -24 58 -42 98 -42c63 0 105 32 105 84c0 41 -31 65 -85 65h-98l5 27l57 163h196l-8 -43h-163l-37 -108h52c76 0 128 -40 128 -101c0 -80 -63 -128 -152 -128z" />
    <glyph glyph-name="six.dnom" horiz-adv-x="408" 
d="M173 -7c-74 0 -127 51 -127 128c0 17 1 40 6 63c25 123 99 194 191 194c41 0 79 -15 106 -48l-29 -26c-21 23 -45 32 -77 32c-67 0 -119 -46 -142 -129c35 15 70 23 105 23c67 0 114 -44 113 -107c0 -75 -64 -130 -146 -130zM176 34c59 0 98 37 98 88c0 41 -28 68 -78 68
c-40 0 -74 -9 -104 -24c-2 -15 -3 -28 -3 -41c0 -56 34 -91 87 -91z" />
    <glyph glyph-name="seven.dnom" horiz-adv-x="391" 
d="M63 0l231 331h-218l9 42h274l-5 -25l-238 -348h-53z" />
    <glyph glyph-name="eight.dnom" horiz-adv-x="424" 
d="M170 -8c-84 0 -140 40 -140 98c0 47 40 86 99 112c-27 17 -46 40 -46 74c0 61 68 102 144 102c75 0 126 -37 126 -88c0 -48 -36 -82 -85 -105c36 -21 56 -47 56 -83c0 -69 -71 -110 -154 -110zM230 202c45 15 81 43 81 81c0 33 -35 56 -86 56c-55 0 -100 -25 -100 -62
c0 -34 29 -51 85 -68zM175 32c60 0 106 29 106 69s-37 58 -98 78c-6 1 -12 4 -16 5c-50 -18 -92 -49 -92 -88c0 -41 44 -64 100 -64z" />
    <glyph glyph-name="nine.dnom" horiz-adv-x="406" 
d="M142 -8c-40 0 -86 16 -114 49l29 27c22 -24 52 -33 80 -33c70 0 118 45 137 137c-34 -17 -71 -26 -106 -26c-73 0 -116 51 -116 109c0 73 61 123 144 123c74 0 126 -57 128 -133c0 -20 0 -37 -3 -58c-19 -123 -87 -195 -179 -195zM177 187c39 0 73 10 103 25
c1 11 1 21 1 32c-2 54 -35 92 -89 92c-57 0 -96 -32 -96 -79c0 -42 28 -70 81 -70z" />
    <glyph glyph-name="zero.numr" horiz-adv-x="411" 
d="M217 276c-76 0 -125 55 -125 140c0 121 75 245 191 245c76 0 126 -56 126 -141c0 -118 -74 -244 -192 -244zM220 320c91 0 144 110 144 201c0 60 -31 97 -82 97c-93 0 -145 -109 -145 -201c0 -60 31 -97 83 -97z" />
    <glyph glyph-name="one.numr" horiz-adv-x="289" 
d="M155 283l69 326l-99 -27l8 40l112 34h34l-79 -373h-45z" />
    <glyph glyph-name="two.numr" horiz-adv-x="389" 
d="M68 283l6 31l179 138c53 40 88 67 88 111c0 32 -25 55 -73 55c-43 0 -78 -18 -113 -47l-25 33c45 38 92 58 143 58c74 0 115 -44 115 -98c0 -55 -46 -94 -94 -130l-146 -110h191l-8 -41h-263z" />
    <glyph glyph-name="three.numr" horiz-adv-x="396" 
d="M214 276c-57 0 -111 22 -141 58l31 28c26 -26 63 -45 109 -45c60 0 103 31 103 80c0 40 -32 65 -86 65h-45l4 29l142 122h-187l8 43h250l-6 -31l-148 -128c68 -4 115 -43 115 -101c0 -74 -65 -120 -149 -120z" />
    <glyph glyph-name="four.numr" horiz-adv-x="416" 
d="M266 283l20 97h-207l5 30l261 246h43l-50 -236h60l-8 -40h-61l-20 -97h-43zM143 420h152l38 177z" />
    <glyph glyph-name="five.numr" horiz-adv-x="388" 
d="M205 276c-56 0 -103 26 -129 56l31 27c23 -24 58 -42 98 -42c63 0 105 32 105 84c0 41 -31 65 -85 65h-98l5 27l57 163h196l-8 -43h-163l-37 -108h52c76 0 128 -40 128 -101c0 -80 -63 -128 -152 -128z" />
    <glyph glyph-name="six.numr" horiz-adv-x="408" 
d="M234 276c-74 0 -127 51 -127 128c0 17 1 40 6 63c25 123 99 194 191 194c41 0 79 -15 106 -48l-29 -26c-21 23 -45 32 -77 32c-67 0 -119 -46 -142 -129c35 15 70 23 105 23c67 0 114 -44 113 -107c0 -75 -64 -130 -146 -130zM237 317c59 0 98 37 98 88
c0 41 -28 68 -78 68c-40 0 -74 -9 -104 -24c-2 -15 -3 -28 -3 -41c0 -56 34 -91 87 -91z" />
    <glyph glyph-name="seven.numr" horiz-adv-x="391" 
d="M124 283l231 331h-218l9 42h274l-5 -25l-238 -348h-53z" />
    <glyph glyph-name="eight.numr" horiz-adv-x="424" 
d="M231 275c-84 0 -140 40 -140 98c0 47 40 86 99 112c-27 17 -46 40 -46 74c0 61 68 102 144 102c75 0 126 -37 126 -88c0 -48 -36 -82 -85 -105c36 -21 56 -47 56 -83c0 -69 -71 -110 -154 -110zM291 485c45 15 81 43 81 81c0 33 -35 56 -86 56c-55 0 -100 -25 -100 -62
c0 -34 29 -51 85 -68zM236 315c60 0 106 29 106 69s-37 58 -98 78c-6 1 -12 4 -16 5c-50 -18 -92 -49 -92 -88c0 -41 44 -64 100 -64z" />
    <glyph glyph-name="nine.numr" horiz-adv-x="406" 
d="M203 275c-40 0 -86 16 -114 49l29 27c22 -24 52 -33 80 -33c70 0 118 45 137 137c-34 -17 -71 -26 -106 -26c-73 0 -116 51 -116 109c0 73 61 123 144 123c74 0 126 -57 128 -133c0 -20 0 -37 -3 -58c-19 -123 -87 -195 -179 -195zM238 470c39 0 73 10 103 25
c1 11 1 21 1 32c-2 54 -35 92 -89 92c-57 0 -96 -32 -96 -79c0 -42 28 -70 81 -70z" />
    <glyph glyph-name="uni2070" unicode="&#x2070;" horiz-adv-x="411" 
d="M231 344c-76 0 -125 55 -125 140c0 121 75 245 191 245c76 0 126 -56 126 -141c0 -118 -74 -244 -192 -244zM234 388c91 0 144 110 144 201c0 60 -31 97 -82 97c-93 0 -145 -109 -145 -201c0 -60 31 -97 83 -97z" />
    <glyph glyph-name="uni00B9" unicode="&#xb9;" horiz-adv-x="289" 
d="M169 351l69 326l-99 -27l8 40l112 34h34l-79 -373h-45z" />
    <glyph glyph-name="uni00B2" unicode="&#xb2;" horiz-adv-x="389" 
d="M82 351l6 31l179 138c53 40 88 67 88 111c0 32 -25 55 -73 55c-43 0 -78 -18 -113 -47l-25 33c45 38 92 58 143 58c74 0 115 -44 115 -98c0 -55 -46 -94 -94 -130l-146 -110h191l-8 -41h-263z" />
    <glyph glyph-name="uni00B3" unicode="&#xb3;" horiz-adv-x="396" 
d="M228 344c-57 0 -111 22 -141 58l31 28c26 -26 63 -45 109 -45c60 0 103 31 103 80c0 40 -32 65 -86 65h-45l4 29l142 122h-187l8 43h250l-6 -31l-148 -128c68 -4 115 -43 115 -101c0 -74 -65 -120 -149 -120z" />
    <glyph glyph-name="uni2074" unicode="&#x2074;" horiz-adv-x="416" 
d="M280 351l20 97h-207l5 30l261 246h43l-50 -236h60l-8 -40h-61l-20 -97h-43zM157 488h152l38 177z" />
    <glyph glyph-name="uni2075" unicode="&#x2075;" horiz-adv-x="388" 
d="M219 344c-56 0 -103 26 -129 56l31 27c23 -24 58 -42 98 -42c63 0 105 32 105 84c0 41 -31 65 -85 65h-98l5 27l57 163h196l-8 -43h-163l-37 -108h52c76 0 128 -40 128 -101c0 -80 -63 -128 -152 -128z" />
    <glyph glyph-name="uni2076" unicode="&#x2076;" horiz-adv-x="408" 
d="M248 344c-74 0 -127 51 -127 128c0 17 1 40 6 63c25 123 99 194 191 194c41 0 79 -15 106 -48l-29 -26c-21 23 -45 32 -77 32c-67 0 -119 -46 -142 -129c35 15 70 23 105 23c67 0 114 -44 113 -107c0 -75 -64 -130 -146 -130zM251 385c59 0 98 37 98 88
c0 41 -28 68 -78 68c-40 0 -74 -9 -104 -24c-2 -15 -3 -28 -3 -41c0 -56 34 -91 87 -91z" />
    <glyph glyph-name="uni2077" unicode="&#x2077;" horiz-adv-x="391" 
d="M138 351l231 331h-218l9 42h274l-5 -25l-238 -348h-53z" />
    <glyph glyph-name="uni2078" unicode="&#x2078;" horiz-adv-x="424" 
d="M245 343c-84 0 -140 40 -140 98c0 47 40 86 99 112c-27 17 -46 40 -46 74c0 61 68 102 144 102c75 0 126 -37 126 -88c0 -48 -36 -82 -85 -105c36 -21 56 -47 56 -83c0 -69 -71 -110 -154 -110zM305 553c45 15 81 43 81 81c0 33 -35 56 -86 56c-55 0 -100 -25 -100 -62
c0 -34 29 -51 85 -68zM250 383c60 0 106 29 106 69s-37 58 -98 78c-6 1 -12 4 -16 5c-50 -18 -92 -49 -92 -88c0 -41 44 -64 100 -64z" />
    <glyph glyph-name="uni2079" unicode="&#x2079;" horiz-adv-x="406" 
d="M217 343c-40 0 -86 16 -114 49l29 27c22 -24 52 -33 80 -33c70 0 118 45 137 137c-34 -17 -71 -26 -106 -26c-73 0 -116 51 -116 109c0 73 61 123 144 123c74 0 126 -57 128 -133c0 -20 0 -37 -3 -58c-19 -123 -87 -195 -179 -195zM252 538c39 0 73 10 103 25
c1 11 1 21 1 32c-2 54 -35 92 -89 92c-57 0 -96 -32 -96 -79c0 -42 28 -70 81 -70z" />
    <glyph glyph-name="fraction" unicode="&#x2044;" horiz-adv-x="108" 
d="M-259 0l597 657h59l-596 -657h-60z" />
    <glyph glyph-name="onehalf" unicode="&#xbd;" horiz-adv-x="848" 
d="M51 0l597 657h59l-596 -657h-60zM155 283l69 326l-99 -27l8 40l112 34h34l-79 -373h-45zM466 0l6 31l180 138c52 40 88 67 88 111c0 32 -26 55 -74 55c-43 0 -77 -18 -112 -47l-26 33c45 38 93 58 143 58c75 0 115 -44 115 -98c0 -55 -46 -94 -94 -130l-146 -110h192
l-8 -41h-264z" />
    <glyph glyph-name="onequarter" unicode="&#xbc;" horiz-adv-x="798" 
d="M73 0l598 657h59l-597 -657h-60zM155 283l69 326l-99 -27l8 40l112 34h34l-79 -373h-45zM587 0l21 97h-208l5 30l261 246h43l-50 -236h60l-8 -40h-60l-21 -97h-43zM464 137h152l38 177z" />
    <glyph glyph-name="threequarters" unicode="&#xbe;" horiz-adv-x="868" 
d="M145 0l597 657h59l-596 -657h-60zM214 276c-57 0 -111 22 -141 58l31 28c26 -26 63 -45 109 -45c60 0 103 31 103 80c0 40 -32 65 -86 65h-45l4 29l142 122h-187l8 43h250l-6 -31l-148 -128c68 -4 115 -43 115 -101c0 -74 -65 -120 -149 -120zM657 0l20 97h-207l5 30
l261 246h43l-50 -236h60l-8 -40h-61l-20 -97h-43zM534 137h152l38 177z" />
    <glyph glyph-name="period" unicode="." horiz-adv-x="253" 
d="M73 -10c-22 0 -36 16 -36 37c0 28 21 49 46 49c23 0 37 -14 37 -36c0 -27 -20 -50 -47 -50z" />
    <glyph glyph-name="comma" unicode="," horiz-adv-x="253" 
d="M-41 -123c51 59 97 143 117 199h54c-22 -65 -71 -147 -120 -199h-51z" />
    <glyph glyph-name="colon" unicode=":" horiz-adv-x="254" 
d="M170 436c-23 0 -36 15 -36 36c0 29 20 50 45 50c24 0 37 -14 37 -36c0 -27 -19 -50 -46 -50zM75 -10c-22 0 -36 16 -36 37c0 28 21 49 46 49c23 0 37 -14 37 -36c0 -27 -20 -50 -47 -50z" />
    <glyph glyph-name="semicolon" unicode=";" horiz-adv-x="253" 
d="M168 436c-22 0 -36 15 -36 36c0 29 21 50 46 50c23 0 37 -14 37 -36c0 -27 -20 -50 -47 -50zM-40 -123c51 59 97 143 117 199h54c-22 -65 -71 -147 -120 -199h-51z" />
    <glyph glyph-name="ellipsis" unicode="&#x2026;" horiz-adv-x="679" 
d="M73 -10c-22 0 -36 16 -36 37c0 28 21 49 46 49c23 0 37 -14 37 -36c0 -27 -20 -50 -47 -50zM286 -10c-22 0 -36 16 -36 37c0 28 20 49 46 49c23 0 37 -14 37 -36c0 -27 -20 -50 -47 -50zM499 -10c-22 0 -36 16 -36 37c0 28 20 49 45 49c24 0 38 -14 38 -36
c0 -27 -20 -50 -47 -50z" />
    <glyph glyph-name="exclam" unicode="!" horiz-adv-x="239" 
d="M80 176l101 500h54l-111 -500h-44zM72 -10c-23 0 -36 16 -36 37c0 28 20 49 45 49c23 0 37 -14 37 -36c0 -27 -19 -50 -46 -50z" />
    <glyph glyph-name="exclamdown" unicode="&#xa1;" horiz-adv-x="241" 
d="M161 440c-23 0 -37 15 -37 36c0 28 20 50 47 50c22 0 36 -15 36 -36c0 -29 -20 -50 -46 -50zM8 -159l111 500h43l-101 -500h-53z" />
    <glyph glyph-name="question" unicode="?" horiz-adv-x="517" 
d="M204 176l6 32c17 85 78 130 143 174c65 45 113 83 113 154c0 59 -44 102 -129 102c-82 0 -148 -34 -207 -83l-26 38c69 59 150 93 236 93c114 0 177 -64 177 -148c0 -82 -48 -128 -123 -181c-60 -43 -120 -76 -135 -150l-7 -31h-48zM203 -10c-23 0 -36 16 -36 37
c0 28 20 49 45 49c24 0 37 -14 37 -36c0 -27 -19 -50 -46 -50z" />
    <glyph glyph-name="questiondown" unicode="&#xbf;" horiz-adv-x="499" 
d="M321 440c-24 0 -38 15 -38 36c0 28 20 50 47 50c22 0 36 -15 36 -36c0 -29 -20 -50 -45 -50zM193 -169c-115 0 -177 64 -177 148c0 81 48 127 122 181c61 43 120 76 136 149l7 32h48l-7 -32c-17 -85 -77 -130 -143 -175c-64 -44 -112 -83 -112 -153
c0 -60 44 -102 128 -102c83 0 149 34 208 83l26 -38c-69 -59 -150 -93 -236 -93z" />
    <glyph glyph-name="periodcentered" unicode="&#xb7;" horiz-adv-x="248" 
d="M142 312c-23 0 -36 15 -36 36c0 29 20 50 45 50c24 0 37 -15 37 -36c0 -27 -19 -50 -46 -50z" />
    <glyph glyph-name="bullet" unicode="&#x2022;" horiz-adv-x="367" 
d="M203 264c-48 0 -87 38 -87 87c0 50 39 87 87 87s87 -37 87 -87c0 -49 -39 -87 -87 -87z" />
    <glyph glyph-name="asterisk" unicode="*" horiz-adv-x="367" 
d="M196 406l27 112l-104 -64l-18 32l111 65l-84 63l27 30l79 -64l23 114h42l-27 -113l104 65l18 -33l-111 -64l83 -63l-27 -30l-79 64l-23 -114h-41z" />
    <glyph glyph-name="numbersign" unicode="#" horiz-adv-x="614" 
d="M98 29l48 149h-98l14 43h97l71 221h-98l14 43h97l45 142h46l-46 -142h172l45 142h46l-46 -142h92l-13 -43h-92l-71 -221h93l-14 -43h-93l-47 -149h-45l47 149h-171l-48 -149h-45zM205 221h171l70 221h-171z" />
    <glyph glyph-name="slash" unicode="/" horiz-adv-x="425" 
d="M-64 -130l516 865h56l-515 -865h-57z" />
    <glyph glyph-name="backslash" unicode="\" horiz-adv-x="422" 
d="M269 -130l-148 865h51l148 -865h-51z" />
    <glyph glyph-name="exclamdown.case" horiz-adv-x="239" 
d="M192 600c-24 0 -37 14 -37 36c0 27 19 50 46 50c23 0 36 -16 36 -37c0 -28 -20 -49 -45 -49zM38 0l111 500h44l-102 -500h-53z" />
    <glyph glyph-name="questiondown.case" horiz-adv-x="517" 
d="M339 600c-24 0 -37 14 -37 36c0 27 19 50 46 50c23 0 36 -16 36 -37c0 -28 -20 -49 -45 -49zM211 -10c-114 0 -177 64 -177 148c0 82 48 128 123 181c60 43 120 76 135 150l7 31h48l-6 -32c-17 -85 -78 -130 -143 -174c-65 -45 -113 -83 -113 -154
c0 -59 44 -102 129 -102c82 0 148 34 207 83l26 -38c-69 -59 -150 -93 -236 -93z" />
    <glyph glyph-name="slash.case" horiz-adv-x="425" 
d="M-58 -96l516 864h57l-516 -864h-57z" />
    <glyph glyph-name="backslash.case" horiz-adv-x="425" 
d="M269 -96l-148 864h52l148 -864h-52z" />
    <glyph glyph-name="parenleft" unicode="(" horiz-adv-x="323" 
d="M159 -130c-58 78 -87 183 -87 294c0 215 109 432 268 571h58c-161 -142 -274 -357 -274 -568c0 -110 29 -215 88 -297h-53z" />
    <glyph glyph-name="parenright" unicode=")" horiz-adv-x="323" 
d="M-69 -130c161 142 274 357 274 568c0 110 -28 215 -87 297h52c59 -78 87 -183 87 -294c0 -215 -109 -432 -267 -571h-59z" />
    <glyph glyph-name="braceleft" unicode="{" horiz-adv-x="379" 
d="M216 -130c-103 0 -157 48 -157 136c0 18 2 37 7 59l18 82c3 17 5 31 5 45c0 45 -21 73 -52 94l7 35c60 27 91 70 107 142l17 81c26 126 103 191 226 191h55l-20 -48h-43c-89 0 -148 -50 -167 -142l-19 -85c-16 -74 -44 -120 -107 -160c29 -28 46 -60 46 -106
c0 -16 -2 -32 -6 -50l-19 -88c-3 -16 -5 -31 -5 -44c0 -62 37 -94 109 -94h47l4 -48h-53z" />
    <glyph glyph-name="braceright" unicode="}" horiz-adv-x="380" 
d="M-50 -130l20 48h43c88 0 147 50 167 142l18 85c17 74 44 120 108 160c-29 27 -46 60 -46 106c0 16 2 32 6 50l19 88c3 16 5 31 5 44c0 61 -37 94 -110 94h-46l-4 48h53c102 0 157 -48 157 -136c0 -18 -2 -37 -7 -59l-18 -82c-3 -17 -5 -32 -5 -45c0 -45 20 -73 52 -94
l-7 -35c-60 -27 -92 -70 -107 -142l-17 -81c-27 -126 -104 -191 -227 -191h-54z" />
    <glyph glyph-name="bracketleft" unicode="[" horiz-adv-x="377" 
d="M21 -130l184 865h241l-20 -48h-181l-164 -769h180l4 -48h-244z" />
    <glyph glyph-name="bracketright" unicode="]" horiz-adv-x="377" 
d="M-62 -130l20 48h181l164 769h-180l-3 48h243l-184 -865h-241z" />
    <glyph glyph-name="parenleft.case" horiz-adv-x="323" 
d="M167 -93c-59 78 -88 183 -88 294c0 215 109 432 268 571h59c-162 -143 -274 -358 -274 -569c0 -109 28 -214 87 -296h-52z" />
    <glyph glyph-name="parenright.case" horiz-adv-x="323" 
d="M-61 -93c161 142 274 357 274 568c0 109 -29 214 -88 297h53c58 -79 87 -184 87 -295c0 -215 -109 -431 -268 -570h-58z" />
    <glyph glyph-name="braceleft.case" horiz-adv-x="379" 
d="M224 -93c-103 0 -157 48 -157 136c0 17 2 37 7 58l18 83c3 17 5 31 5 45c0 44 -21 72 -52 94l7 35c60 26 91 70 107 141l17 82c26 125 103 191 226 191h55l-20 -49h-43c-89 0 -148 -50 -167 -141l-19 -86c-16 -74 -44 -120 -107 -160c29 -27 46 -60 46 -105
c0 -16 -2 -32 -6 -51l-19 -88c-3 -16 -5 -30 -5 -44c0 -61 37 -94 109 -94h47l4 -47h-53z" />
    <glyph glyph-name="braceright.case" horiz-adv-x="380" 
d="M-42 -93l20 48h43c88 0 147 50 167 141l18 86c17 74 44 120 108 160c-29 27 -46 60 -46 106c0 15 2 31 6 50l19 88c3 16 5 30 5 44c0 61 -37 94 -110 94h-46l-4 48h53c102 0 157 -49 157 -136c0 -18 -2 -38 -7 -59l-18 -83c-3 -16 -5 -31 -5 -44c0 -45 20 -73 52 -95
l-7 -35c-60 -26 -92 -69 -107 -141l-17 -81c-27 -126 -104 -191 -227 -191h-54z" />
    <glyph glyph-name="bracketleft.case" horiz-adv-x="377" 
d="M29 -93l184 865h240l-20 -49h-180l-164 -769h179l4 -47h-243z" />
    <glyph glyph-name="bracketright.case" horiz-adv-x="377" 
d="M-54 -93l20 48h180l165 769h-180l-4 48h243l-183 -865h-241z" />
    <glyph glyph-name="hyphen" unicode="-" horiz-adv-x="423" 
d="M64 269l10 47h299l-10 -47h-299z" />
    <glyph glyph-name="uni00AD" unicode="&#xad;" horiz-adv-x="423" 
d="M64 269l10 47h299l-10 -47h-299z" />
    <glyph glyph-name="endash" unicode="&#x2013;" horiz-adv-x="480" 
d="M2 269l10 47h480l-10 -47h-480z" />
    <glyph glyph-name="emdash" unicode="&#x2014;" horiz-adv-x="960" 
d="M2 269l10 47h960l-10 -47h-960z" />
    <glyph glyph-name="underscore" unicode="_" horiz-adv-x="480" 
d="M-83 -133l9 44h481l-10 -44h-480z" />
    <glyph glyph-name="hyphen.case" horiz-adv-x="423" 
d="M75 319l9 47h300l-10 -47h-299z" />
    <glyph glyph-name="endash.case" horiz-adv-x="480" 
d="M13 319l10 46h480l-10 -46h-480z" />
    <glyph glyph-name="emdash.case" horiz-adv-x="960" 
d="M13 319l10 46h960l-10 -46h-960z" />
    <glyph glyph-name="quotesinglbase" unicode="&#x201a;" horiz-adv-x="240" 
d="M-29 -123c51 59 98 143 118 199h53c-21 -65 -70 -147 -120 -199h-51z" />
    <glyph glyph-name="quotedblbase" unicode="&#x201e;" horiz-adv-x="370" 
d="M-29 -123c51 59 98 143 118 199h53c-21 -65 -70 -147 -120 -199h-51zM102 -123c51 59 97 143 117 199h54c-22 -65 -71 -147 -120 -199h-51z" />
    <glyph glyph-name="quotedblleft" unicode="&#x201c;" horiz-adv-x="362" 
d="M101 487c22 63 67 137 114 189h47c-48 -58 -89 -133 -110 -189h-51zM232 487c21 63 66 137 114 189h46c-48 -58 -89 -133 -109 -189h-51z" />
    <glyph glyph-name="quotedblright" unicode="&#x201d;" horiz-adv-x="362" 
d="M96 487c48 59 89 133 109 189h52c-22 -63 -67 -137 -115 -189h-46zM227 487c47 59 88 133 109 189h51c-21 -63 -66 -137 -114 -189h-46z" />
    <glyph glyph-name="quoteleft" unicode="&#x2018;" horiz-adv-x="231" 
d="M101 487c22 63 67 137 114 189h47c-48 -58 -89 -133 -110 -189h-51z" />
    <glyph glyph-name="quoteright" unicode="&#x2019;" horiz-adv-x="231" 
d="M96 487c48 59 89 133 109 189h52c-22 -63 -67 -137 -115 -189h-46z" />
    <glyph glyph-name="guillemotleft" unicode="&#xab;" horiz-adv-x="440" 
d="M142 95l-90 188l164 186h58l-164 -190l82 -184h-50zM298 95l-90 188l164 186h58l-163 -190l82 -184h-51z" />
    <glyph glyph-name="guillemotright" unicode="&#xbb;" horiz-adv-x="435" 
d="M16 95l163 190l-82 184h50l91 -188l-165 -186h-57zM167 95l163 190l-82 184h51l90 -188l-164 -186h-58z" />
    <glyph glyph-name="guilsinglleft" unicode="&#x2039;" horiz-adv-x="284" 
d="M142 95l-90 188l164 186h58l-164 -190l82 -184h-50z" />
    <glyph glyph-name="guilsinglright" unicode="&#x203a;" horiz-adv-x="284" 
d="M16 95l163 190l-82 184h50l91 -188l-165 -186h-57z" />
    <glyph glyph-name="quotedbl" unicode="&#x22;" horiz-adv-x="375" 
d="M119 427l51 249h55l-60 -249h-46zM279 427l51 249h55l-60 -249h-46z" />
    <glyph glyph-name="quotesingle" unicode="'" horiz-adv-x="215" 
d="M119 427l51 249h55l-60 -249h-46z" />
    <glyph glyph-name="guillemotleft.case" horiz-adv-x="440" 
d="M156 159l-90 188l164 186h58l-164 -190l82 -184h-50zM312 159l-90 188l164 186h58l-163 -190l82 -184h-51z" />
    <glyph glyph-name="guillemotright.case" horiz-adv-x="435" 
d="M30 159l163 190l-82 184h50l91 -188l-165 -186h-57zM181 159l163 190l-82 184h51l90 -188l-164 -186h-58z" />
    <glyph glyph-name="guilsinglleft.case" horiz-adv-x="284" 
d="M160 159l-90 188l164 186h57l-163 -190l82 -184h-50z" />
    <glyph glyph-name="guilsinglright.case" horiz-adv-x="284" 
d="M30 159l163 190l-82 184h50l91 -188l-165 -186h-57z" />
    <glyph glyph-name="period.dnom" horiz-adv-x="157" 
d="M20 -8c-19 0 -32 13 -32 31c0 23 18 41 39 41c19 0 32 -12 32 -30c0 -24 -18 -42 -39 -42z" />
    <glyph glyph-name="comma.dnom" horiz-adv-x="157" 
d="M-63 -78c35 42 68 98 82 140h51c-16 -46 -50 -102 -86 -140h-47z" />
    <glyph glyph-name="period.numr" horiz-adv-x="157" 
d="M86 275c-19 0 -32 12 -32 30c0 24 18 42 40 42c19 0 31 -13 31 -31c0 -23 -18 -41 -39 -41z" />
    <glyph glyph-name="comma.numr" horiz-adv-x="157" 
d="M-3 205c35 42 68 98 83 140h50c-16 -46 -50 -102 -86 -140h-47z" />
    <glyph glyph-name="period.subs" horiz-adv-x="157" 
d="M9 -84c-19 0 -31 13 -31 31c0 23 17 41 39 41c19 0 31 -12 31 -30c0 -24 -17 -42 -39 -42z" />
    <glyph glyph-name="comma.subs" horiz-adv-x="157" 
d="M-79 -154c35 42 68 98 82 140h51c-16 -46 -50 -102 -86 -140h-47z" />
    <glyph glyph-name="uni00A0" unicode="&#xa0;" horiz-adv-x="250" 
 />
    <glyph glyph-name="cent" unicode="&#xa2;" 
d="M229 -67l30 138c-101 11 -161 84 -161 191c0 161 115 310 271 327l23 109l52 14l-25 -123c51 -6 96 -32 128 -77l-35 -28c-29 38 -66 60 -116 60c-147 0 -248 -141 -248 -278c0 -93 54 -151 145 -151c60 0 113 24 159 62l28 -34c-51 -43 -107 -69 -173 -74l-26 -123z" />
    <glyph glyph-name="currency" unicode="&#xa4;" 
d="M49 96l-29 34l95 82c-9 21 -14 45 -14 71c0 65 26 129 68 178l-62 79l41 34l60 -75c41 32 91 52 144 52c54 0 98 -20 127 -54l92 77l29 -34l-97 -82c10 -20 14 -44 14 -69c0 -66 -26 -129 -67 -178l62 -81l-41 -34l-61 76c-41 -32 -90 -52 -144 -52s-97 19 -125 52z
M270 164c115 0 200 113 200 222c0 72 -46 121 -122 121c-114 0 -200 -112 -200 -221c0 -73 47 -122 122 -122z" />
    <glyph glyph-name="dollar" unicode="$" 
d="M192 -146l30 143c-75 9 -143 44 -191 102l34 30c53 -60 124 -88 201 -88c110 0 179 56 179 135c0 65 -40 102 -143 142c-120 47 -175 89 -174 175c0 110 107 174 219 177h4l24 113l54 14l-28 -130c67 -11 123 -44 163 -96l-38 -28c-51 59 -102 80 -177 80
c-97 0 -173 -51 -173 -126c-1 -69 53 -97 151 -136c111 -44 168 -95 168 -180c0 -109 -84 -182 -222 -186h-1l-27 -128z" />
    <glyph glyph-name="Euro" unicode="&#x20ac;" 
d="M314 -10c-127 0 -207 95 -213 233h-87l22 45h65c3 41 10 83 23 121h-75l22 45h70c56 132 168 232 306 232c77 0 136 -30 174 -85l-36 -29c-34 46 -81 66 -141 66c-112 0 -200 -80 -250 -184h245l-22 -45h-241c-14 -38 -22 -80 -25 -121h219l-22 -45h-197
c7 -110 69 -184 167 -184c70 0 124 25 180 70l29 -35c-67 -56 -133 -84 -213 -84z" />
    <glyph glyph-name="florin" unicode="&#x192;" 
d="M-35 0l10 47h60c107 0 154 53 202 165l44 104h-152l9 47h163l36 85c61 145 129 209 262 209h52l-10 -48h-50c-108 0 -154 -52 -202 -164l-34 -82h155l-10 -47h-165l-46 -107c-62 -145 -124 -209 -258 -209h-66z" />
    <glyph glyph-name="sterling" unicode="&#xa3;" 
d="M34 0l7 37l106 256h-94l10 46h104l44 108c61 145 123 210 258 210h139l-10 -48h-136c-102 0 -151 -43 -202 -165l-43 -105h254l-10 -46h-263l-101 -246h396l-10 -47h-449z" />
    <glyph glyph-name="yen" unicode="&#xa5;" 
d="M213 0l28 132h-180l9 45h181l20 97h-180l9 45h158l-128 338h52l123 -334l265 334h57l-271 -338h154l-9 -45h-181l-21 -97h181l-9 -45h-181l-28 -132h-49z" />
    <glyph glyph-name="plus" unicode="+" 
d="M242 126l39 182h-177l10 45h177l38 182h45l-38 -182h177l-10 -45h-177l-39 -182h-45z" />
    <glyph glyph-name="minus" unicode="&#x2212;" 
d="M125 307l9 47h358l-10 -47h-357z" />
    <glyph glyph-name="multiply" unicode="&#xd7;" 
d="M141 162l-28 33l165 138l-105 137l35 27l104 -135l163 137l28 -34l-165 -137l105 -137l-34 -28l-104 136z" />
    <glyph glyph-name="divide" unicode="&#xf7;" 
d="M343 434c-21 0 -34 14 -34 33c0 27 19 47 42 47c22 0 35 -14 35 -34c0 -25 -18 -46 -43 -46zM131 307l9 47h358l-10 -47h-357zM283 143c-22 0 -35 16 -35 35c0 28 20 49 44 49c22 0 36 -15 36 -35c0 -26 -19 -49 -45 -49z" />
    <glyph glyph-name="equal" unicode="=" 
d="M145 406l10 46h358l-10 -46h-358zM104 210l9 46h358l-10 -46h-357z" />
    <glyph glyph-name="notequal" unicode="&#x2260;" 
d="M149 99l-36 24l69 87h-78l9 46h105l119 150h-192l10 46h217l87 110l35 -24l-68 -86h87l-10 -46h-113l-118 -150h199l-10 -46h-225z" />
    <glyph glyph-name="greater" unicode="&#x3e;" 
d="M130 137l-18 41l307 158l-236 154l27 36l265 -176l-7 -38z" />
    <glyph glyph-name="less" unicode="&#x3c;" 
d="M407 136l-266 176l8 38l338 175l18 -41l-308 -158l236 -154z" />
    <glyph glyph-name="greaterequal" unicode="&#x2265;" 
d="M149 155l-18 40l307 153l-236 149l26 35l266 -170l-8 -37zM76 0l9 45h342l-10 -45h-341z" />
    <glyph glyph-name="lessequal" unicode="&#x2264;" 
d="M395 155l-266 170l7 37l337 170l18 -40l-307 -153l236 -149zM59 0l10 46h341l-9 -46h-342z" />
    <glyph glyph-name="plusminus" unicode="&#xb1;" 
d="M250 131l39 182h-178l10 46h177l39 181h45l-39 -181h177l-9 -46h-177l-39 -182h-45zM65 0l10 46h358l-10 -46h-358z" />
    <glyph glyph-name="approxequal" unicode="&#x2248;" 
d="M432 362c-81 0 -129 91 -196 91c-44 0 -71 -30 -85 -83h-44c21 81 64 126 132 126c80 0 128 -91 195 -91c44 0 72 31 85 84h44c-20 -81 -63 -127 -131 -127zM391 167c-81 0 -129 91 -196 91c-44 0 -71 -30 -85 -83h-44c20 81 63 126 131 126c81 0 129 -91 196 -91
c44 0 71 31 85 84h44c-20 -81 -64 -127 -131 -127z" />
    <glyph glyph-name="asciitilde" unicode="~" 
d="M403 255c-81 0 -129 90 -196 90c-44 0 -71 -29 -85 -82h-44c21 81 64 126 132 126c80 0 128 -91 195 -91c44 0 72 31 85 84h44c-20 -81 -63 -127 -131 -127z" />
    <glyph glyph-name="logicalnot" unicode="&#xac;" 
d="M411 182l39 182h-341l10 46h386l-48 -228h-46z" />
    <glyph glyph-name="asciicircum" unicode="^" 
d="M110 343l248 333h49l104 -333h-48l-88 286l-212 -286h-53z" />
    <glyph glyph-name="uni00B5" unicode="&#xb5;" horiz-adv-x="561" 
d="M-24 -219l156 735h50l-63 -291c-6 -30 -10 -56 -10 -80c0 -67 30 -108 107 -108c64 0 130 38 193 105l79 374h50l-109 -516h-31l1 82c-65 -64 -134 -91 -194 -91s-101 26 -121 67l-55 -265z" />
    <glyph glyph-name="percent" unicode="%" horiz-adv-x="874" 
d="M217 276c-76 0 -125 55 -125 140c0 121 75 245 191 245c76 0 126 -56 126 -141c0 -118 -74 -244 -192 -244zM123 0l597 657h59l-596 -657h-60zM220 320c91 0 144 110 144 201c0 60 -31 97 -82 97c-93 0 -145 -109 -145 -201c0 -60 31 -97 83 -97zM620 -7
c-77 0 -126 55 -126 140c0 121 76 245 191 245c76 0 126 -56 126 -141c0 -118 -74 -244 -191 -244zM622 37c91 0 144 110 144 201c0 60 -31 97 -82 97c-92 0 -144 -109 -144 -201c0 -60 30 -97 82 -97z" />
    <glyph glyph-name="perthousand" unicode="&#x2030;" horiz-adv-x="1244" 
d="M217 276c-76 0 -125 55 -125 140c0 121 75 245 191 245c76 0 126 -56 126 -141c0 -118 -74 -244 -192 -244zM123 0l597 657h59l-596 -657h-60zM220 320c91 0 144 110 144 201c0 60 -31 97 -82 97c-93 0 -145 -109 -145 -201c0 -60 31 -97 83 -97zM620 -7
c-77 0 -126 55 -126 140c0 121 76 245 191 245c76 0 126 -56 126 -141c0 -118 -74 -244 -191 -244zM990 -7c-77 0 -126 55 -126 140c0 121 76 245 191 245c76 0 126 -56 126 -141c0 -118 -74 -244 -191 -244zM622 37c91 0 144 110 144 201c0 60 -31 97 -82 97
c-92 0 -144 -109 -144 -201c0 -60 30 -97 82 -97zM992 37c91 0 144 110 144 201c0 60 -31 97 -82 97c-92 0 -144 -109 -144 -201c0 -60 30 -97 82 -97z" />
    <glyph glyph-name="at" unicode="@" horiz-adv-x="917" 
d="M386 -161c-204 0 -334 155 -334 351c0 293 223 486 491 486c206 0 343 -129 343 -294c0 -175 -136 -324 -310 -324h-30v49c-44 -35 -96 -58 -144 -58c-89 0 -139 66 -139 156c0 140 101 255 234 255c44 0 91 -23 117 -48l16 40h38l-74 -351c141 3 244 139 244 281
c0 139 -119 248 -297 248c-243 0 -441 -174 -441 -438c0 -169 114 -305 288 -305c91 0 167 28 227 76l28 -37c-72 -58 -159 -87 -257 -87zM413 96c49 0 99 27 143 67l43 210c-29 28 -63 40 -100 40c-113 0 -186 -94 -186 -206c0 -65 35 -111 100 -111z" />
    <glyph glyph-name="ampersand" unicode="&#x26;" horiz-adv-x="630" 
d="M237 -10c-121 -1 -207 61 -207 161c0 106 83 180 189 220c-31 48 -43 90 -43 130c0 113 92 185 202 185c69 0 132 -36 171 -92l-38 -29c-36 48 -85 73 -135 73c-87 0 -151 -53 -151 -134c0 -55 32 -103 70 -157l152 -216c43 48 73 112 88 183l6 33h48l-7 -36
c-19 -86 -56 -161 -109 -217l66 -94h-59l-44 61c-56 -45 -124 -71 -199 -71zM240 37c66 0 124 22 171 60l-168 238c-88 -29 -163 -94 -163 -177c0 -74 64 -121 160 -121z" />
    <glyph glyph-name="paragraph" unicode="&#xb6;" horiz-adv-x="529" 
d="M177 -133l10 48h18c66 0 115 47 132 127l133 621l52 11l-134 -633c-25 -113 -91 -174 -187 -174h-24zM305 223c-161 0 -242 77 -217 201c24 112 108 184 240 211l65 14z" />
    <glyph glyph-name="section" unicode="&#xa7;" horiz-adv-x="428" 
d="M0 -134l10 45h66c88 0 142 41 142 110c0 32 -15 59 -40 89l-73 83c-27 31 -41 63 -41 97c0 76 57 132 138 142c-21 32 -31 65 -31 93c0 98 76 151 194 151h65l-10 -45h-63c-87 0 -138 -36 -138 -107c0 -28 11 -57 40 -91l71 -81c26 -30 40 -64 40 -98
c0 -77 -62 -130 -138 -141c20 -27 34 -58 34 -93c0 -98 -81 -154 -196 -154h-70zM201 151h4c65 1 119 40 119 101c0 24 -11 50 -31 73l-61 70h-3c-70 -2 -118 -43 -118 -101c0 -24 9 -50 30 -74z" />
    <glyph glyph-name="copyright" unicode="&#xa9;" horiz-adv-x="782" 
d="M407 -10c-192 0 -350 137 -350 348c0 205 160 348 350 348c192 0 353 -140 353 -348c0 -209 -162 -348 -353 -348zM407 35c173 0 305 122 305 303c0 180 -131 303 -305 303c-172 0 -303 -125 -303 -303c0 -183 129 -303 303 -303zM413 147c-108 0 -183 77 -183 191
c0 112 79 191 187 191c47 0 94 -20 124 -58l-27 -29c-30 30 -60 42 -97 42c-82 0 -138 -56 -138 -146c0 -88 54 -145 136 -145c47 0 80 16 108 41l27 -31c-36 -36 -83 -56 -137 -56z" />
    <glyph glyph-name="registered" unicode="&#xae;" horiz-adv-x="536" 
d="M318 267c-125 0 -229 88 -229 225c0 132 105 225 229 225c122 0 228 -91 228 -225c0 -136 -107 -225 -228 -225zM318 304c108 0 187 75 187 188c0 111 -79 187 -187 187c-110 0 -188 -76 -188 -187c0 -114 78 -188 188 -188zM233 378v233h88c52 0 87 -28 87 -72
c0 -28 -18 -50 -45 -60c12 -9 23 -22 33 -40l31 -61h-45l-21 40c-15 30 -24 44 -61 44h-28v-84h-39zM272 499h43c32 0 50 14 50 38c0 28 -21 39 -50 39h-43v-77z" />
    <glyph glyph-name="trademark" unicode="&#x2122;" horiz-adv-x="808" 
d="M159 324l67 310h-122l10 42h284l-8 -42h-122l-65 -310h-44zM390 324l75 352h41l82 -237l193 237h42l-75 -352h-43l59 270l-166 -199h-35l-73 197l-57 -268h-43z" />
    <glyph glyph-name="degree" unicode="&#xb0;" horiz-adv-x="373" 
d="M241 405c-75 0 -136 61 -136 136s62 136 136 136c75 0 136 -61 136 -136s-61 -136 -136 -136zM241 448c51 0 92 42 92 93c0 52 -41 93 -92 93s-92 -42 -92 -93s41 -93 92 -93z" />
    <glyph glyph-name="bar" unicode="|" horiz-adv-x="258" 
d="M21 -130l184 865h50l-184 -865h-50z" />
    <glyph glyph-name="brokenbar" unicode="&#xa6;" horiz-adv-x="258" 
d="M136 409l69 326h50l-69 -326h-50zM21 -130l70 327h49l-69 -327h-50z" />
    <glyph glyph-name="dagger" unicode="&#x2020;" horiz-adv-x="347" 
d="M160 299l47 221h-123l9 42h123l24 114l46 10l-27 -124h124l-9 -42h-124l-47 -221h-43z" />
    <glyph glyph-name="daggerdbl" unicode="&#x2021;" horiz-adv-x="357" 
d="M166 305l22 104h-115l8 42h117l19 94h-115l9 42h115l19 89l46 10l-21 -99h116l-9 -42h-117l-19 -94h116l-9 -42h-117l-22 -104h-43z" />
    <glyph glyph-name="at.case" horiz-adv-x="918" 
d="M405 -94c-204 0 -334 154 -334 350c0 294 223 487 491 487c206 0 343 -129 343 -294c0 -175 -136 -324 -310 -324h-30v49c-44 -36 -96 -58 -144 -58c-89 0 -139 65 -139 155c0 141 101 255 234 255c44 0 91 -22 117 -48l16 41h38l-74 -352c141 3 244 140 244 281
c0 140 -119 249 -297 249c-243 0 -441 -174 -441 -438c0 -169 114 -305 288 -305c91 0 167 27 227 76l28 -38c-72 -58 -159 -86 -257 -86zM432 162c49 0 99 27 143 68l43 210c-29 28 -63 40 -100 40c-113 0 -186 -94 -186 -206c0 -66 35 -112 100 -112z" />
    <glyph glyph-name="uni0308" unicode="&#x308;" horiz-adv-x="0" 
d="M-289 629c-21 0 -34 14 -34 32c0 26 19 46 43 46c20 0 33 -14 33 -33c0 -25 -20 -45 -42 -45zM-122 629c-20 0 -33 14 -33 33c0 25 19 45 42 45c21 0 34 -14 34 -33c0 -25 -19 -45 -43 -45z" />
    <glyph glyph-name="uni0307" unicode="&#x307;" horiz-adv-x="0" 
d="M-205 629c-20 0 -33 14 -33 33c0 25 18 45 42 45c20 0 33 -14 33 -33c0 -25 -19 -45 -42 -45z" />
    <glyph glyph-name="gravecomb" unicode="&#x300;" horiz-adv-x="0" 
d="M-178 599l-99 131h61l90 -131h-52z" />
    <glyph glyph-name="acutecomb" unicode="&#x301;" horiz-adv-x="0" 
d="M-309 599l144 131h72l-156 -131h-60z" />
    <glyph glyph-name="uni0302" unicode="&#x302;" horiz-adv-x="0" 
d="M-358 599l143 131h54l87 -131h-52l-68 93l-108 -93h-56z" />
    <glyph glyph-name="uni030C" unicode="&#x30c;" horiz-adv-x="0" 
d="M-241 599l-87 131h52l68 -93l108 93h56l-143 -131h-54z" />
    <glyph glyph-name="uni030A" unicode="&#x30a;" horiz-adv-x="0" 
d="M-156 590c-62 0 -116 50 -116 115s54 114 116 114s117 -50 117 -114c0 -66 -55 -115 -117 -115zM-156 629c41 0 75 32 75 76c0 43 -34 74 -75 74c-40 0 -74 -31 -74 -74c0 -44 34 -76 74 -76z" />
    <glyph glyph-name="tildecomb" unicode="&#x303;" horiz-adv-x="0" 
d="M-137 616c-30 0 -52 15 -73 28c-20 12 -41 22 -64 22c-33 0 -60 -18 -91 -43l11 51c29 25 54 38 86 38c28 0 51 -15 73 -28c21 -11 42 -22 64 -22c38 0 66 23 93 43l-11 -52c-26 -21 -51 -37 -88 -37z" />
    <glyph glyph-name="uni0327" unicode="&#x327;" horiz-adv-x="0" 
d="M-451 -177l9 42h17c52 0 92 28 92 75c0 19 -8 39 -24 59l41 4c16 -19 27 -43 27 -70c0 -71 -63 -110 -140 -110h-22z" />
    <glyph glyph-name="dieresis" unicode="&#xa8;" horiz-adv-x="576" 
d="M287 629c-21 0 -34 14 -34 32c0 26 19 46 43 46c20 0 33 -14 33 -33c0 -25 -20 -45 -42 -45zM454 629c-20 0 -33 14 -33 33c0 25 19 45 42 45c21 0 34 -14 34 -33c0 -25 -19 -45 -43 -45z" />
    <glyph glyph-name="dotaccent" unicode="&#x2d9;" horiz-adv-x="576" 
d="M371 629c-20 0 -33 14 -33 33c0 25 18 45 42 45c20 0 33 -14 33 -33c0 -25 -19 -45 -42 -45z" />
    <glyph glyph-name="grave" unicode="`" horiz-adv-x="576" 
d="M398 599l-99 131h61l90 -131h-52z" />
    <glyph glyph-name="acute" unicode="&#xb4;" horiz-adv-x="576" 
d="M267 599l144 131h72l-156 -131h-60z" />
    <glyph glyph-name="circumflex" unicode="&#x2c6;" horiz-adv-x="576" 
d="M218 599l143 131h54l87 -131h-52l-68 93l-108 -93h-56z" />
    <glyph glyph-name="caron" unicode="&#x2c7;" horiz-adv-x="576" 
d="M335 599l-87 131h52l68 -93l108 93h56l-143 -131h-54z" />
    <glyph glyph-name="ring" unicode="&#x2da;" horiz-adv-x="576" 
d="M420 590c-62 0 -116 50 -116 115s54 114 116 114s117 -50 117 -114c0 -66 -55 -115 -117 -115zM420 629c41 0 75 32 75 76c0 43 -34 74 -75 74c-40 0 -74 -31 -74 -74c0 -44 34 -76 74 -76z" />
    <glyph glyph-name="tilde" unicode="&#x2dc;" horiz-adv-x="576" 
d="M439 616c-30 0 -52 15 -73 28c-20 12 -41 22 -64 22c-33 0 -60 -18 -91 -43l11 51c29 25 54 38 86 38c28 0 51 -15 73 -28c21 -11 42 -22 64 -22c38 0 66 23 93 43l-11 -52c-26 -21 -51 -37 -88 -37z" />
    <glyph glyph-name="cedilla" unicode="&#xb8;" horiz-adv-x="576" 
d="M125 -177l9 42h17c52 0 92 28 92 75c0 19 -8 39 -24 59l41 4c16 -19 27 -43 27 -70c0 -71 -63 -110 -140 -110h-22z" />
    <glyph glyph-name="uni0308.case" horiz-adv-x="0" 
d="M-261 762c-22 0 -35 13 -35 32c0 24 20 43 43 43c20 0 34 -14 34 -33c0 -22 -19 -42 -42 -42zM-93 762c-21 0 -34 13 -34 32c0 24 19 43 43 43c20 0 34 -13 34 -33c0 -23 -19 -42 -43 -42z" />
    <glyph glyph-name="uni0307.case" horiz-adv-x="0" 
d="M-175 771c-20 0 -34 13 -34 32c0 23 19 43 42 43c21 0 34 -14 34 -32c0 -23 -18 -43 -42 -43z" />
    <glyph glyph-name="gravecomb.case" horiz-adv-x="0" 
d="M-147 744l-103 122h63l95 -122h-55z" />
    <glyph glyph-name="acutecomb.case" horiz-adv-x="0" 
d="M-280 744l146 122h72l-155 -122h-63z" />
    <glyph glyph-name="uni0302.case" horiz-adv-x="0" 
d="M-329 744l143 122h55l90 -122h-54l-68 85l-106 -85h-60z" />
    <glyph glyph-name="uni030C.case" horiz-adv-x="0" 
d="M-211 744l-91 122h54l69 -86l106 86h60l-143 -122h-55z" />
    <glyph glyph-name="uni030A.case" horiz-adv-x="0" 
d="M-188 738c-62 0 -116 50 -116 115s54 114 116 114c61 0 116 -50 116 -114c0 -66 -55 -115 -116 -115zM-188 777c40 0 74 33 74 76s-34 74 -74 74s-74 -31 -74 -74c0 -44 34 -76 74 -76z" />
    <glyph glyph-name="tildecomb.case" horiz-adv-x="0" 
d="M-106 761c-31 0 -55 17 -79 30c-18 10 -37 18 -58 18c-33 0 -60 -17 -91 -41l11 50c30 25 55 36 87 36c26 0 48 -12 70 -24s43 -24 66 -24c39 0 67 22 94 42l-12 -51c-26 -21 -51 -36 -88 -36z" />
    <glyph glyph-name="uni0327.case" horiz-adv-x="0" 
d="M-453 -178l10 43h17c53 0 93 28 93 76c0 19 -8 39 -24 59l44 5c15 -20 27 -45 27 -72c0 -72 -66 -111 -144 -111h-23z" />
    <glyph glyph-name="gravecomb.narrow.case" horiz-adv-x="0" 
d="M-197 744l-75 122h58l67 -122h-50z" />
    <glyph glyph-name="acutecomb.narrow.case" horiz-adv-x="0" 
d="M-303 744l122 122h66l-131 -122h-57z" />
    <glyph glyph-name="gravecomb.narrow" horiz-adv-x="0" 
d="M-193 599l-75 131h58l67 -131h-50z" />
    <glyph glyph-name="acutecomb.narrow" horiz-adv-x="0" 
d="M-300 599l122 131h67l-132 -131h-57z" />
    <glyph glyph-name="periodsuperior" horiz-adv-x="157" 
d="M100 343c-19 0 -32 12 -32 30c0 24 18 42 40 42c19 0 31 -13 31 -31c0 -23 -18 -41 -39 -41z" />
    <glyph glyph-name="commasuperior" horiz-adv-x="157" 
d="M11 273c36 42 68 98 83 140h50c-15 -46 -49 -102 -86 -140h-47z" />
    </font>
</defs>
</svg>
