<?xml version="1.0" standalone="no"?>
<!DOCTYPE svg PUBLIC "-//W3C//DTD SVG 1.1//EN" "http://www.w3.org/Graphics/SVG/1.1/DTD/svg11.dtd" >
<svg xmlns="http://www.w3.org/2000/svg" xmlns:xlink="http://www.w3.org/1999/xlink" version="1.1">
<metadata>
Created by FontForge 20190531 at Fri Aug  9 12:40:52 2019
 By Henrique Beier
Copyright \(c\) 2019 Banco Bradesco S.A. All rights reserved.
</metadata>
<defs>
<font id="BradescoSans-CondensedBold" horiz-adv-x="521" >
  <font-face 
    font-family="Bradesco Sans Condensed"
    font-weight="700"
    font-stretch="condensed"
    units-per-em="1000"
    panose-1="0 0 8 6 0 0 0 0 0 0"
    ascent="800"
    descent="-200"
    x-height="525"
    cap-height="676"
    bbox="-448 -224 1272 1001"
    underline-thickness="50"
    underline-position="-100"
    stemh="125"
    stemv="149"
    unicode-range="U+0020-FB02"
  />
<missing-glyph horiz-adv-x="471" 
d="M386 730v-942h-298v942h298zM314 667h-156v-31h61v-35h-62v-31h157v31h-62v35h62v31zM252 545h-95v-98h157v32h-62v66zM219 513v-34h-31v34h31zM314 422h-157v-31h62v-35h-62v-31h95v66h62v31zM314 365h-31v-62h-126v-32h157v94zM314 251h-95v-53h33v21h31v-44h-95v76
h-31v-107h157v107zM314 88h-157v-107h157v107zM283 56v-44h-95v44h95zM314 -41h-157v-31h66l-66 -44v-31h157v31h-96l66 44h30v31z" />
    <glyph glyph-name="fi" unicode="fi" horiz-adv-x="688" 
d="M554 595c-48 0 -83 32 -83 79s36 79 83 79c49 0 85 -32 85 -79s-36 -79 -85 -79zM62 0v520c0 141 80 228 203 228c65 0 116 -25 152 -60l-59 -84c-19 15 -42 27 -73 27c-49 0 -77 -34 -77 -96v-10h171v-121h-171v-404h-146zM480 0v525h146v-525h-146z" />
    <glyph glyph-name="fl" unicode="fl" horiz-adv-x="728" 
d="M62 0v520c0 141 80 228 203 228c65 0 116 -25 152 -60l-59 -84c-19 15 -42 27 -73 27c-49 0 -77 -34 -77 -96v-10h171v-121h-171v-404h-146zM656 -7c-120 0 -181 67 -181 208v522l146 21v-546c0 -57 23 -86 68 -86h14v-119h-47z" />
    <glyph glyph-name=".notdef" horiz-adv-x="471" 
d="M386 730v-942h-298v942h298zM314 667h-156v-31h61v-35h-62v-31h157v31h-62v35h62v31zM252 545h-95v-98h157v32h-62v66zM219 513v-34h-31v34h31zM314 422h-157v-31h62v-35h-62v-31h95v66h62v31zM314 365h-31v-62h-126v-32h157v94zM314 251h-95v-53h33v21h31v-44h-95v76
h-31v-107h157v107zM314 88h-157v-107h157v107zM283 56v-44h-95v44h95zM314 -41h-157v-31h66l-66 -44v-31h157v31h-96l66 44h30v31z" />
    <glyph glyph-name="space" unicode=" " horiz-adv-x="255" 
 />
    <glyph glyph-name="A" unicode="A" horiz-adv-x="630" 
d="M18 0l217 676h161l216 -676h-158l-40 147h-204l-41 -147h-151zM245 273h134l-67 243z" />
    <glyph glyph-name="Aacute" unicode="&#xc1;" horiz-adv-x="630" 
d="M217 742l122 146h152l-137 -146h-137zM18 0l217 676h161l216 -676h-158l-40 147h-204l-41 -147h-151zM245 273h134l-67 243z" />
    <glyph glyph-name="Acircumflex" unicode="&#xc2;" horiz-adv-x="630" 
d="M128 742l122 146h128l122 -146h-127l-58 71l-61 -71h-126zM18 0l217 676h161l216 -676h-158l-40 147h-204l-41 -147h-151zM245 273h134l-67 243z" />
    <glyph glyph-name="Adieresis" unicode="&#xc4;" horiz-adv-x="630" 
d="M211 734c-44 0 -79 30 -79 75c0 44 35 76 79 76c45 0 79 -32 79 -76c0 -45 -34 -75 -79 -75zM420 734c-44 0 -79 30 -79 75c0 44 35 76 79 76c45 0 79 -32 79 -76c0 -45 -34 -75 -79 -75zM18 0l217 676h161l216 -676h-158l-40 147h-204l-41 -147h-151zM245 273h134
l-67 243z" />
    <glyph glyph-name="Agrave" unicode="&#xc0;" horiz-adv-x="630" 
d="M276 742l-136 146h151l123 -146h-138zM18 0l217 676h161l216 -676h-158l-40 147h-204l-41 -147h-151zM245 273h134l-67 243z" />
    <glyph glyph-name="Aring" unicode="&#xc5;" horiz-adv-x="630" 
d="M407 641l205 -641h-158l-40 147h-204l-41 -147h-151l206 642c-26 25 -42 59 -42 97c0 76 60 133 135 133c73 0 134 -58 134 -133c0 -39 -17 -74 -44 -98zM317 796c-30 0 -52 -23 -52 -57c0 -33 21 -58 52 -58c29 0 51 25 51 58c0 34 -22 57 -51 57zM245 273h134l-67 243z
" />
    <glyph glyph-name="Atilde" unicode="&#xc3;" horiz-adv-x="630" 
d="M392 738c-32 0 -53 11 -77 26c-26 16 -45 26 -69 26c-34 0 -60 -15 -91 -36v102c29 23 57 36 93 36c33 0 55 -10 80 -25s44 -26 67 -26c41 0 67 17 94 37v-102c-26 -20 -54 -38 -97 -38zM18 0l217 676h161l216 -676h-158l-40 147h-204l-41 -147h-151zM245 273h134
l-67 243z" />
    <glyph glyph-name="AE" unicode="&#xc6;" horiz-adv-x="941" 
d="M7 0l409 676h472v-135h-272v-131h237v-133h-237v-141h279v-136h-424v145h-214l-84 -145h-166zM331 272h140v242z" />
    <glyph glyph-name="B" unicode="B" horiz-adv-x="591" 
d="M72 0v676h236c131 0 209 -72 209 -180c0 -58 -29 -105 -76 -136c68 -29 112 -90 112 -166c0 -118 -79 -194 -211 -194h-270zM210 402h80c58 0 87 31 87 79c0 49 -29 81 -88 81h-79v-160zM210 115h108c60 0 94 29 94 86c0 49 -33 82 -91 82h-111v-168z" />
    <glyph glyph-name="C" unicode="C" horiz-adv-x="588" 
d="M339 -12c-173 0 -290 137 -290 349c0 203 126 350 292 350c89 0 171 -41 215 -103l-94 -90c-29 35 -60 55 -112 55c-86 0 -147 -86 -147 -212c0 -124 58 -210 142 -210c52 0 87 15 124 55l93 -92c-49 -66 -128 -102 -223 -102z" />
    <glyph glyph-name="Ccedilla" unicode="&#xc7;" horiz-adv-x="588" 
d="M562 90c-39 -52 -96 -85 -164 -97c17 -23 27 -47 27 -76c0 -77 -62 -123 -166 -123h-36v99h32c35 0 59 15 59 43c0 21 -8 37 -25 56c-145 24 -240 154 -240 345c0 203 126 350 292 350c89 0 171 -41 215 -103l-94 -90c-29 35 -60 55 -112 55c-86 0 -147 -86 -147 -212
c0 -124 58 -210 142 -210c52 0 87 15 124 55z" />
    <glyph glyph-name="D" unicode="D" horiz-adv-x="654" 
d="M72 0v676h226c184 0 307 -130 307 -337c0 -209 -125 -339 -307 -339h-226zM220 136h72c104 0 160 71 160 203c0 128 -54 201 -160 201h-72v-404z" />
    <glyph glyph-name="Eth" unicode="&#xd0;" horiz-adv-x="686" 
d="M104 0v274h-74v129h74v273h226c184 0 307 -130 307 -337c0 -209 -125 -339 -307 -339h-226zM252 136h72c104 0 160 71 160 203c0 128 -54 201 -160 201h-72v-137h119v-129h-119v-138z" />
    <glyph glyph-name="E" unicode="E" horiz-adv-x="542" 
d="M72 0v676h417v-135h-272v-131h237v-133h-237v-141h279v-136h-424z" />
    <glyph glyph-name="Eacute" unicode="&#xc9;" horiz-adv-x="542" 
d="M187 742l122 146h152l-137 -146h-137zM72 0v676h417v-135h-272v-131h237v-133h-237v-141h279v-136h-424z" />
    <glyph glyph-name="Ecircumflex" unicode="&#xca;" horiz-adv-x="542" 
d="M98 742l122 146h128l122 -146h-127l-58 71l-61 -71h-126zM72 0v676h417v-135h-272v-131h237v-133h-237v-141h279v-136h-424z" />
    <glyph glyph-name="Edieresis" unicode="&#xcb;" horiz-adv-x="542" 
d="M181 734c-44 0 -79 30 -79 75c0 44 35 76 79 76c45 0 79 -32 79 -76c0 -45 -34 -75 -79 -75zM390 734c-44 0 -79 30 -79 75c0 44 35 76 79 76c45 0 79 -32 79 -76c0 -45 -34 -75 -79 -75zM72 0v676h417v-135h-272v-131h237v-133h-237v-141h279v-136h-424z" />
    <glyph glyph-name="Egrave" unicode="&#xc8;" horiz-adv-x="542" 
d="M246 742l-136 146h151l123 -146h-138zM72 0v676h417v-135h-272v-131h237v-133h-237v-141h279v-136h-424z" />
    <glyph glyph-name="F" unicode="F" horiz-adv-x="526" 
d="M72 0v676h412v-140h-266v-149h232v-139h-232v-248h-146z" />
    <glyph glyph-name="G" unicode="G" horiz-adv-x="630" 
d="M340 -11c-173 0 -291 127 -291 348c0 210 129 350 298 350c85 0 166 -36 215 -99l-92 -93c-32 38 -68 54 -117 54c-92 0 -150 -79 -150 -212c0 -135 57 -210 142 -210c40 0 73 6 98 23v103h-103v118h232v-298c-59 -54 -148 -84 -232 -84z" />
    <glyph glyph-name="H" unicode="H" horiz-adv-x="658" 
d="M72 0v676h150v-258h214v258h150v-676h-150v274h-214v-274h-150z" />
    <glyph glyph-name="I" unicode="I" horiz-adv-x="294" 
d="M72 0v676h150v-676h-150z" />
    <glyph glyph-name="Iacute" unicode="&#xcd;" horiz-adv-x="294" 
d="M67 742l100 146h152l-115 -146h-137zM72 0v676h150v-676h-150z" />
    <glyph glyph-name="Icircumflex" unicode="&#xce;" horiz-adv-x="294" 
d="M-40 742l122 146h128l122 -146h-127l-58 71l-61 -71h-126zM72 0v676h150v-676h-150z" />
    <glyph glyph-name="Idieresis" unicode="&#xcf;" horiz-adv-x="294" 
d="M43 734c-44 0 -79 30 -79 75c0 44 35 76 79 76c45 0 79 -32 79 -76c0 -45 -34 -75 -79 -75zM252 734c-44 0 -79 30 -79 75c0 44 35 76 79 76c45 0 79 -32 79 -76c0 -45 -34 -75 -79 -75zM72 0v676h150v-676h-150z" />
    <glyph glyph-name="Igrave" unicode="&#xcc;" horiz-adv-x="294" 
d="M90 742l-115 146h152l100 -146h-137zM72 0v676h150v-676h-150z" />
    <glyph glyph-name="J" unicode="J" horiz-adv-x="431" 
d="M40 0v145h48c78 0 126 48 126 146v385h151v-394c0 -190 -96 -282 -258 -282h-67z" />
    <glyph glyph-name="K" unicode="K" horiz-adv-x="646" 
d="M72 0v676h147v-260h38c53 0 77 6 127 121l62 139h164l-96 -202c-22 -47 -49 -89 -79 -122l201 -352h-175l-150 276c-9 -2 -18 -3 -27 -3h-65v-273h-147z" />
    <glyph glyph-name="L" unicode="L" horiz-adv-x="524" 
d="M72 0v676h150v-530h262v-146h-412z" />
    <glyph glyph-name="M" unicode="M" horiz-adv-x="787" 
d="M72 0v676h139l182 -400l187 400h135v-676h-147v391l-118 -268h-119l-116 259v-382h-143z" />
    <glyph glyph-name="N" unicode="N" horiz-adv-x="662" 
d="M72 0v676h124l247 -396v396h147v-676h-124l-247 396v-396h-147z" />
    <glyph glyph-name="Ntilde" unicode="&#xd1;" horiz-adv-x="662" 
d="M408 738c-32 0 -53 11 -77 26c-26 16 -45 26 -69 26c-34 0 -60 -15 -91 -36v102c29 23 57 36 93 36c33 0 55 -10 80 -25s44 -26 67 -26c41 0 67 17 94 37v-102c-26 -20 -54 -38 -97 -38zM72 0v676h124l247 -396v396h147v-676h-124l-247 396v-396h-147z" />
    <glyph glyph-name="O" unicode="O" horiz-adv-x="686" 
d="M342 -12c-167 0 -293 139 -293 350c0 205 128 350 293 350c168 0 295 -142 295 -350s-128 -350 -295 -350zM342 127c89 0 142 78 142 211c0 131 -52 211 -141 211c-90 0 -141 -81 -141 -211c0 -131 51 -211 140 -211z" />
    <glyph glyph-name="Oacute" unicode="&#xd3;" horiz-adv-x="686" 
d="M245 742l122 146h152l-137 -146h-137zM342 -12c-167 0 -293 139 -293 350c0 205 128 350 293 350c168 0 295 -142 295 -350s-128 -350 -295 -350zM342 127c89 0 142 78 142 211c0 131 -52 211 -141 211c-90 0 -141 -81 -141 -211c0 -131 51 -211 140 -211z" />
    <glyph glyph-name="Ocircumflex" unicode="&#xd4;" horiz-adv-x="686" 
d="M156 742l122 146h128l122 -146h-127l-58 71l-61 -71h-126zM342 -12c-167 0 -293 139 -293 350c0 205 128 350 293 350c168 0 295 -142 295 -350s-128 -350 -295 -350zM342 127c89 0 142 78 142 211c0 131 -52 211 -141 211c-90 0 -141 -81 -141 -211
c0 -131 51 -211 140 -211z" />
    <glyph glyph-name="Odieresis" unicode="&#xd6;" horiz-adv-x="686" 
d="M239 734c-44 0 -79 30 -79 75c0 44 35 76 79 76c45 0 79 -32 79 -76c0 -45 -34 -75 -79 -75zM448 734c-44 0 -79 30 -79 75c0 44 35 76 79 76c45 0 79 -32 79 -76c0 -45 -34 -75 -79 -75zM342 -12c-167 0 -293 139 -293 350c0 205 128 350 293 350
c168 0 295 -142 295 -350s-128 -350 -295 -350zM342 127c89 0 142 78 142 211c0 131 -52 211 -141 211c-90 0 -141 -81 -141 -211c0 -131 51 -211 140 -211z" />
    <glyph glyph-name="Ograve" unicode="&#xd2;" horiz-adv-x="686" 
d="M304 742l-136 146h151l123 -146h-138zM342 -12c-167 0 -293 139 -293 350c0 205 128 350 293 350c168 0 295 -142 295 -350s-128 -350 -295 -350zM342 127c89 0 142 78 142 211c0 131 -52 211 -141 211c-90 0 -141 -81 -141 -211c0 -131 51 -211 140 -211z" />
    <glyph glyph-name="Oslash" unicode="&#xd8;" horiz-adv-x="686" 
d="M48 -55l82 142c-50 61 -81 147 -81 251c0 205 128 350 293 350c44 0 85 -10 122 -28l41 70h133l-83 -142c51 -62 82 -148 82 -250c0 -208 -128 -350 -295 -350c-43 0 -83 9 -120 27l-40 -70h-134zM216 233l178 306c-15 7 -32 10 -51 10c-90 0 -141 -81 -141 -211
c0 -40 5 -75 14 -105zM342 127c89 0 142 78 142 211c0 39 -5 74 -14 103l-177 -305c15 -6 31 -9 49 -9z" />
    <glyph glyph-name="Otilde" unicode="&#xd5;" horiz-adv-x="686" 
d="M420 738c-32 0 -53 11 -77 26c-26 16 -45 26 -69 26c-34 0 -60 -15 -91 -36v102c29 23 57 36 93 36c33 0 55 -10 80 -25s44 -26 67 -26c41 0 67 17 94 37v-102c-26 -20 -54 -38 -97 -38zM342 -12c-167 0 -293 139 -293 350c0 205 128 350 293 350
c168 0 295 -142 295 -350s-128 -350 -295 -350zM342 127c89 0 142 78 142 211c0 131 -52 211 -141 211c-90 0 -141 -81 -141 -211c0 -131 51 -211 140 -211z" />
    <glyph glyph-name="OE" unicode="&#x152;" horiz-adv-x="960" 
d="M335 -12c-160 0 -286 133 -286 350c0 212 128 350 286 350c57 0 111 -25 155 -69v57h417v-135h-272v-131h237v-133h-237v-141h279v-136h-424v58c-44 -45 -98 -70 -155 -70zM342 127c87 0 142 84 142 212c0 126 -53 210 -141 210c-90 0 -141 -86 -141 -210
c0 -127 51 -212 140 -212z" />
    <glyph glyph-name="P" unicode="P" horiz-adv-x="583" 
d="M72 0v676h245c135 0 226 -90 226 -228c0 -137 -91 -228 -226 -228h-94v-220h-151zM223 348h71c64 0 97 36 97 100s-32 103 -97 103h-71v-203z" />
    <glyph glyph-name="Thorn" unicode="&#xde;" horiz-adv-x="581" 
d="M72 0v676h151v-83h94c135 0 226 -90 226 -228c0 -137 -91 -228 -226 -228h-94v-137h-151zM223 265h71c64 0 97 36 97 100s-32 103 -97 103h-71v-203z" />
    <glyph glyph-name="Q" unicode="Q" horiz-adv-x="686" 
d="M517 -86l-64 97c-34 -15 -71 -23 -111 -23c-167 0 -293 139 -293 350c0 205 128 350 293 350c168 0 295 -142 295 -350c0 -102 -31 -189 -82 -250l68 -104zM342 123c12 0 24 1 35 4l-67 102l106 71l53 -81c10 31 15 71 15 119c0 131 -52 211 -141 211
c-90 0 -141 -81 -141 -211c0 -134 51 -215 140 -215z" />
    <glyph glyph-name="R" unicode="R" horiz-adv-x="596" 
d="M72 0v676h240c135 0 225 -86 225 -212c0 -79 -41 -141 -103 -172c28 -24 52 -58 72 -105l78 -187h-162l-45 116c-31 81 -52 119 -119 119h-41v-235h-145zM217 359h73c64 0 97 36 97 98c0 64 -32 98 -97 98h-73v-196z" />
    <glyph glyph-name="S" unicode="S" horiz-adv-x="570" 
d="M287 -12c-100 0 -180 27 -264 96l76 106c62 -48 126 -67 190 -67c54 0 84 24 84 67c0 52 -37 67 -112 87c-142 38 -210 90 -210 213c0 113 97 198 230 198c88 0 164 -27 236 -101l-85 -92c-40 38 -96 60 -152 60c-47 0 -79 -25 -79 -64c0 -43 29 -61 116 -84
c142 -38 208 -100 208 -212c0 -124 -88 -207 -238 -207z" />
    <glyph glyph-name="Scaron" unicode="&#x160;" horiz-adv-x="570" 
d="M220 742l-121 146h127l59 -73l60 73h126l-122 -146h-129zM287 -12c-100 0 -180 27 -264 96l76 106c62 -48 126 -67 190 -67c54 0 84 24 84 67c0 52 -37 67 -112 87c-142 38 -210 90 -210 213c0 113 97 198 230 198c88 0 164 -27 236 -101l-85 -92c-40 38 -96 60 -152 60
c-47 0 -79 -25 -79 -64c0 -43 29 -61 116 -84c142 -38 208 -100 208 -212c0 -124 -88 -207 -238 -207z" />
    <glyph glyph-name="uni1E9E" unicode="&#x1e9e;" horiz-adv-x="639" 
d="M407 -12c-68 0 -131 23 -168 61l62 94c25 -21 55 -33 89 -33c47 0 78 34 78 85c0 56 -41 89 -110 89h-56v81l114 173c-17 15 -46 24 -78 24c-79 0 -135 -59 -135 -192v-370h-141v375c0 202 110 312 274 312c94 0 187 -44 241 -106l-133 -204l14 -2
c87 -12 147 -87 147 -181c0 -122 -78 -206 -198 -206z" />
    <glyph glyph-name="T" unicode="T" horiz-adv-x="564" 
d="M206 0v532h-168v144h488v-144h-170v-532h-150z" />
    <glyph glyph-name="U" unicode="U" horiz-adv-x="658" 
d="M328 -12c-159 0 -262 101 -262 319v369h150v-374c0 -117 38 -175 112 -175c78 0 114 55 114 175v374h150v-369c0 -208 -106 -319 -264 -319z" />
    <glyph glyph-name="Uacute" unicode="&#xda;" horiz-adv-x="658" 
d="M231 742l122 146h152l-137 -146h-137zM328 -12c-159 0 -262 101 -262 319v369h150v-374c0 -117 38 -175 112 -175c78 0 114 55 114 175v374h150v-369c0 -208 -106 -319 -264 -319z" />
    <glyph glyph-name="Ucircumflex" unicode="&#xdb;" horiz-adv-x="658" 
d="M142 742l122 146h128l122 -146h-127l-58 71l-61 -71h-126zM328 -12c-159 0 -262 101 -262 319v369h150v-374c0 -117 38 -175 112 -175c78 0 114 55 114 175v374h150v-369c0 -208 -106 -319 -264 -319z" />
    <glyph glyph-name="Udieresis" unicode="&#xdc;" horiz-adv-x="658" 
d="M225 734c-44 0 -79 30 -79 75c0 44 35 76 79 76c45 0 79 -32 79 -76c0 -45 -34 -75 -79 -75zM434 734c-44 0 -79 30 -79 75c0 44 35 76 79 76c45 0 79 -32 79 -76c0 -45 -34 -75 -79 -75zM328 -12c-159 0 -262 101 -262 319v369h150v-374c0 -117 38 -175 112 -175
c78 0 114 55 114 175v374h150v-369c0 -208 -106 -319 -264 -319z" />
    <glyph glyph-name="Ugrave" unicode="&#xd9;" horiz-adv-x="658" 
d="M290 742l-136 146h151l123 -146h-138zM328 -12c-159 0 -262 101 -262 319v369h150v-374c0 -117 38 -175 112 -175c78 0 114 55 114 175v374h150v-369c0 -208 -106 -319 -264 -319z" />
    <glyph glyph-name="V" unicode="V" horiz-adv-x="651" 
d="M241 0l-223 676h173l137 -492l136 492h169l-224 -676h-168z" />
    <glyph glyph-name="W" unicode="W" horiz-adv-x="893" 
d="M182 0l-156 676h165l78 -486l100 440h161l94 -440l83 486h160l-162 -676h-163l-99 435l-101 -435h-160z" />
    <glyph glyph-name="Wacute" unicode="&#x1e82;" horiz-adv-x="893" 
d="M348 742l122 146h152l-137 -146h-137zM182 0l-156 676h165l78 -486l100 440h161l94 -440l83 486h160l-162 -676h-163l-99 435l-101 -435h-160z" />
    <glyph glyph-name="Wcircumflex" unicode="&#x174;" horiz-adv-x="893" 
d="M259 742l122 146h128l122 -146h-127l-58 71l-61 -71h-126zM182 0l-156 676h165l78 -486l100 440h161l94 -440l83 486h160l-162 -676h-163l-99 435l-101 -435h-160z" />
    <glyph glyph-name="Wdieresis" unicode="&#x1e84;" horiz-adv-x="893" 
d="M342 734c-44 0 -79 30 -79 75c0 44 35 76 79 76c45 0 79 -32 79 -76c0 -45 -34 -75 -79 -75zM551 734c-44 0 -79 30 -79 75c0 44 35 76 79 76c45 0 79 -32 79 -76c0 -45 -34 -75 -79 -75zM182 0l-156 676h165l78 -486l100 440h161l94 -440l83 486h160l-162 -676h-163
l-99 435l-101 -435h-160z" />
    <glyph glyph-name="Wgrave" unicode="&#x1e80;" horiz-adv-x="893" 
d="M407 742l-136 146h151l123 -146h-138zM182 0l-156 676h165l78 -486l100 440h161l94 -440l83 486h160l-162 -676h-163l-99 435l-101 -435h-160z" />
    <glyph glyph-name="X" unicode="X" horiz-adv-x="650" 
d="M19 0l218 351l-205 325h182l116 -208l110 208h176l-201 -324l216 -352h-180l-130 238l-126 -238h-176z" />
    <glyph glyph-name="Y" unicode="Y" horiz-adv-x="615" 
d="M233 0v250l-215 426h173l119 -280l120 280h167l-213 -424v-252h-151z" />
    <glyph glyph-name="Yacute" unicode="&#xdd;" horiz-adv-x="615" 
d="M210 742l122 146h152l-137 -146h-137zM233 0v250l-215 426h173l119 -280l120 280h167l-213 -424v-252h-151z" />
    <glyph glyph-name="Ycircumflex" unicode="&#x176;" horiz-adv-x="615" 
d="M121 742l122 146h128l122 -146h-127l-58 71l-61 -71h-126zM233 0v250l-215 426h173l119 -280l120 280h167l-213 -424v-252h-151z" />
    <glyph glyph-name="Ydieresis" unicode="&#x178;" horiz-adv-x="615" 
d="M204 734c-44 0 -79 30 -79 75c0 44 35 76 79 76c45 0 79 -32 79 -76c0 -45 -34 -75 -79 -75zM413 734c-44 0 -79 30 -79 75c0 44 35 76 79 76c45 0 79 -32 79 -76c0 -45 -34 -75 -79 -75zM233 0v250l-215 426h173l119 -280l120 280h167l-213 -424v-252h-151z" />
    <glyph glyph-name="Ygrave" unicode="&#x1ef2;" horiz-adv-x="615" 
d="M269 742l-136 146h151l123 -146h-138zM233 0v250l-215 426h173l119 -280l120 280h167l-213 -424v-252h-151z" />
    <glyph glyph-name="Z" unicode="Z" horiz-adv-x="567" 
d="M46 0v119l286 418h-276v139h455v-119l-286 -417h294v-140h-473z" />
    <glyph glyph-name="Zcaron" unicode="&#x17d;" horiz-adv-x="567" 
d="M219 742l-121 146h127l59 -73l60 73h126l-122 -146h-129zM46 0v119l286 418h-276v139h455v-119l-286 -417h294v-140h-473z" />
    <glyph glyph-name="a" unicode="a" horiz-adv-x="507" 
d="M188 -12c-94 0 -152 59 -152 158s75 161 203 161h79v10c0 70 -26 105 -83 105c-41 0 -80 -18 -115 -51l-70 81c53 53 121 85 190 85c139 0 210 -81 210 -236v-301h-102l-16 53c-40 -39 -91 -65 -144 -65zM218 94c40 0 72 20 100 54v67h-78c-50 0 -79 -23 -79 -63
c0 -35 23 -58 57 -58z" />
    <glyph glyph-name="aacute" unicode="&#xe1;" horiz-adv-x="507" 
d="M155 600l114 148h144l-126 -148h-132zM188 -12c-94 0 -152 59 -152 158s75 161 203 161h79v10c0 70 -26 105 -83 105c-41 0 -80 -18 -115 -51l-70 81c53 53 121 85 190 85c139 0 210 -81 210 -236v-301h-102l-16 53c-40 -39 -91 -65 -144 -65zM218 94c40 0 72 20 100 54
v67h-78c-50 0 -79 -23 -79 -63c0 -35 23 -58 57 -58z" />
    <glyph glyph-name="acircumflex" unicode="&#xe2;" horiz-adv-x="507" 
d="M73 600l116 148h123l115 -148h-119l-58 74l-59 -74h-118zM188 -12c-94 0 -152 59 -152 158s75 161 203 161h79v10c0 70 -26 105 -83 105c-41 0 -80 -18 -115 -51l-70 81c53 53 121 85 190 85c139 0 210 -81 210 -236v-301h-102l-16 53c-40 -39 -91 -65 -144 -65zM218 94
c40 0 72 20 100 54v67h-78c-50 0 -79 -23 -79 -63c0 -35 23 -58 57 -58z" />
    <glyph glyph-name="adieresis" unicode="&#xe4;" horiz-adv-x="507" 
d="M149 598c-43 0 -76 29 -76 72s33 73 76 73c44 0 76 -30 76 -73s-32 -72 -76 -72zM351 598c-44 0 -76 29 -76 72s32 73 76 73c43 0 76 -30 76 -73s-33 -72 -76 -72zM188 -12c-94 0 -152 59 -152 158s75 161 203 161h79v10c0 70 -26 105 -83 105c-41 0 -80 -18 -115 -51
l-70 81c53 53 121 85 190 85c139 0 210 -81 210 -236v-301h-102l-16 53c-40 -39 -91 -65 -144 -65zM218 94c40 0 72 20 100 54v67h-78c-50 0 -79 -23 -79 -63c0 -35 23 -58 57 -58z" />
    <glyph glyph-name="agrave" unicode="&#xe0;" horiz-adv-x="507" 
d="M213 600l-127 148h145l113 -148h-131zM188 -12c-94 0 -152 59 -152 158s75 161 203 161h79v10c0 70 -26 105 -83 105c-41 0 -80 -18 -115 -51l-70 81c53 53 121 85 190 85c139 0 210 -81 210 -236v-301h-102l-16 53c-40 -39 -91 -65 -144 -65zM218 94c40 0 72 20 100 54
v67h-78c-50 0 -79 -23 -79 -63c0 -35 23 -58 57 -58z" />
    <glyph glyph-name="aring" unicode="&#xe5;" horiz-adv-x="507" 
d="M249 592c-70 0 -129 56 -129 128c0 73 59 128 129 128c69 0 128 -55 128 -128s-59 -128 -128 -128zM249 663c29 0 50 24 50 57s-21 55 -50 55s-51 -22 -51 -55s22 -57 51 -57zM188 -12c-94 0 -152 59 -152 158s75 161 203 161h79v10c0 70 -26 105 -83 105
c-41 0 -80 -18 -115 -51l-70 81c53 53 121 85 190 85c139 0 210 -81 210 -236v-301h-102l-16 53c-40 -39 -91 -65 -144 -65zM218 94c40 0 72 20 100 54v67h-78c-50 0 -79 -23 -79 -63c0 -35 23 -58 57 -58z" />
    <glyph glyph-name="atilde" unicode="&#xe3;" horiz-adv-x="507" 
d="M324 598c-28 0 -48 8 -73 26c-22 16 -41 27 -64 27c-33 0 -57 -15 -86 -36v97c28 24 54 39 87 39c30 0 51 -10 74 -26s41 -27 64 -27c38 0 62 17 87 36v-98c-25 -21 -51 -38 -89 -38zM188 -12c-94 0 -152 59 -152 158s75 161 203 161h79v10c0 70 -26 105 -83 105
c-41 0 -80 -18 -115 -51l-70 81c53 53 121 85 190 85c139 0 210 -81 210 -236v-301h-102l-16 53c-40 -39 -91 -65 -144 -65zM218 94c40 0 72 20 100 54v67h-78c-50 0 -79 -23 -79 -63c0 -35 23 -58 57 -58z" />
    <glyph glyph-name="ae" unicode="&#xe6;" horiz-adv-x="802" 
d="M191 -12c-96 0 -155 61 -155 159c0 97 75 161 203 161h79v9c0 68 -26 105 -83 105c-41 0 -80 -18 -115 -51l-70 81c53 53 121 85 190 85c66 0 117 -25 150 -74c41 46 96 73 158 73c130 0 214 -109 214 -281v-36h-312c10 -67 53 -112 116 -112c43 0 74 12 104 44l78 -77
c-51 -63 -111 -86 -192 -86c-76 0 -136 33 -177 86c-47 -51 -109 -86 -188 -86zM450 313h178c-2 75 -32 112 -83 112c-49 0 -86 -36 -95 -112zM218 94c43 0 84 21 120 60c-6 20 -11 40 -14 62h-84c-50 0 -79 -25 -79 -63c0 -34 23 -59 57 -59z" />
    <glyph glyph-name="b" unicode="b" horiz-adv-x="578" 
d="M322 -9c-56 0 -101 22 -137 58l-15 -49h-108v723l146 21v-265c38 36 82 57 128 57c117 0 200 -105 200 -272c0 -160 -97 -273 -214 -273zM286 114c65 0 107 52 107 153c0 89 -34 141 -95 141c-38 0 -68 -21 -90 -54v-206c23 -21 49 -34 78 -34z" />
    <glyph glyph-name="c" unicode="c" horiz-adv-x="483" 
d="M277 -11c-140 0 -235 103 -235 275c0 154 100 272 237 272c71 0 136 -35 172 -89l-80 -80c-23 28 -46 43 -82 43c-63 0 -103 -55 -103 -146c0 -96 43 -149 103 -149c34 0 60 14 87 44l80 -82c-45 -54 -108 -88 -179 -88z" />
    <glyph glyph-name="ccedilla" unicode="&#xe7;" horiz-adv-x="483" 
d="M456 77c-36 -43 -83 -73 -137 -84c17 -22 26 -45 26 -74c0 -78 -60 -121 -148 -121h-33v93h29c30 0 49 16 49 44c0 22 -6 37 -23 60c-108 25 -177 122 -177 269c0 154 100 272 237 272c71 0 136 -35 172 -89l-80 -80c-23 28 -46 43 -82 43c-63 0 -103 -55 -103 -146
c0 -96 43 -149 103 -149c34 0 60 14 87 44z" />
    <glyph glyph-name="d" unicode="d" horiz-adv-x="578" 
d="M242 -11c-118 0 -200 104 -200 273c0 163 98 273 223 273c39 0 75 -14 105 -36v224l146 21v-744h-108l-19 62c-41 -46 -93 -73 -147 -73zM280 117c37 0 68 22 90 54v208c-23 21 -50 33 -79 33c-64 0 -106 -54 -106 -154c0 -89 34 -141 95 -141z" />
    <glyph glyph-name="eth" unicode="&#xf0;" horiz-adv-x="554" 
d="M277 -11c-137 0 -236 105 -236 262c0 137 84 243 206 243c34 0 69 -10 99 -29c-13 38 -31 72 -52 105l-131 -37v84l77 22c-22 24 -47 47 -74 68l147 37c23 -20 45 -42 65 -66l107 30v-85l-58 -16c54 -94 86 -207 86 -326c0 -178 -88 -292 -236 -292zM276 114
c71 0 101 73 101 168c0 22 -1 43 -3 64c-27 26 -59 39 -89 39c-62 0 -102 -54 -102 -134s37 -137 93 -137z" />
    <glyph glyph-name="e" unicode="e" horiz-adv-x="528" 
d="M282 -12c-147 0 -240 115 -240 278c0 159 95 270 232 270c130 0 214 -108 214 -273v-36h-313c8 -72 52 -120 117 -120c43 0 74 12 104 44l78 -77c-51 -63 -111 -86 -192 -86zM177 321h177c-2 68 -32 104 -83 104s-84 -38 -94 -104z" />
    <glyph glyph-name="eacute" unicode="&#xe9;" horiz-adv-x="528" 
d="M176 600l114 148h144l-126 -148h-132zM282 -12c-147 0 -240 115 -240 278c0 159 95 270 232 270c130 0 214 -108 214 -273v-36h-313c8 -72 52 -120 117 -120c43 0 74 12 104 44l78 -77c-51 -63 -111 -86 -192 -86zM177 321h177c-2 68 -32 104 -83 104s-84 -38 -94 -104z
" />
    <glyph glyph-name="ecircumflex" unicode="&#xea;" horiz-adv-x="528" 
d="M94 600l116 148h123l115 -148h-119l-58 74l-59 -74h-118zM282 -12c-147 0 -240 115 -240 278c0 159 95 270 232 270c130 0 214 -108 214 -273v-36h-313c8 -72 52 -120 117 -120c43 0 74 12 104 44l78 -77c-51 -63 -111 -86 -192 -86zM177 321h177c-2 68 -32 104 -83 104
s-84 -38 -94 -104z" />
    <glyph glyph-name="edieresis" unicode="&#xeb;" horiz-adv-x="528" 
d="M170 598c-43 0 -76 29 -76 72s33 73 76 73c44 0 76 -30 76 -73s-32 -72 -76 -72zM372 598c-44 0 -76 29 -76 72s32 73 76 73c43 0 76 -30 76 -73s-33 -72 -76 -72zM282 -12c-147 0 -240 115 -240 278c0 159 95 270 232 270c130 0 214 -108 214 -273v-36h-313
c8 -72 52 -120 117 -120c43 0 74 12 104 44l78 -77c-51 -63 -111 -86 -192 -86zM177 321h177c-2 68 -32 104 -83 104s-84 -38 -94 -104z" />
    <glyph glyph-name="egrave" unicode="&#xe8;" horiz-adv-x="528" 
d="M234 600l-127 148h145l113 -148h-131zM282 -12c-147 0 -240 115 -240 278c0 159 95 270 232 270c130 0 214 -108 214 -273v-36h-313c8 -72 52 -120 117 -120c43 0 74 12 104 44l78 -77c-51 -63 -111 -86 -192 -86zM177 321h177c-2 68 -32 104 -83 104s-84 -38 -94 -104z
" />
    <glyph glyph-name="f" unicode="f" horiz-adv-x="418" 
d="M62 0v520c0 141 80 228 203 228c65 0 116 -25 152 -60l-59 -84c-19 15 -42 27 -73 27c-49 0 -77 -34 -77 -96v-10h171v-121h-171v-404h-146z" />
    <glyph glyph-name="g" unicode="g" horiz-adv-x="574" 
d="M259 -224c-94 0 -169 32 -215 86l69 91c38 -36 81 -56 138 -56c66 0 116 49 116 139v39c-36 -35 -80 -54 -125 -54c-117 0 -201 86 -201 249c0 170 99 266 222 266c46 0 93 -21 127 -55l13 44h109v-483c0 -156 -103 -266 -253 -266zM278 139c37 0 67 24 89 55v187
c-23 21 -49 34 -77 34c-64 0 -107 -46 -107 -144c0 -82 35 -132 95 -132z" />
    <glyph glyph-name="h" unicode="h" horiz-adv-x="572" 
d="M62 0v723l146 21v-262c37 35 81 54 133 54c110 0 174 -82 174 -233v-303h-146v288c0 76 -14 120 -74 120c-32 0 -64 -22 -87 -59v-349h-146z" />
    <glyph glyph-name="i" unicode="i" horiz-adv-x="270" 
d="M136 595c-48 0 -83 32 -83 79s36 79 83 79c49 0 85 -32 85 -79s-36 -79 -85 -79zM62 0v525h146v-525h-146z" />
    <glyph glyph-name="dotlessi" unicode="&#x131;" horiz-adv-x="270" 
d="M62 0v525h146v-525h-146z" />
    <glyph glyph-name="iacute" unicode="&#xed;" horiz-adv-x="270" 
d="M63 600l94 148h144l-109 -148h-129zM62 0v525h146v-525h-146z" />
    <glyph glyph-name="icircumflex" unicode="&#xee;" horiz-adv-x="270" 
d="M-41 600l116 148h123l115 -148h-119l-58 74l-59 -74h-118zM62 0v525h146v-525h-146z" />
    <glyph glyph-name="idieresis" unicode="&#xef;" horiz-adv-x="270" 
d="M35 598c-43 0 -76 29 -76 72s33 73 76 73c44 0 76 -30 76 -73s-32 -72 -76 -72zM237 598c-44 0 -76 29 -76 72s32 73 76 73c43 0 76 -30 76 -73s-33 -72 -76 -72zM62 0v525h146v-525h-146z" />
    <glyph glyph-name="igrave" unicode="&#xec;" horiz-adv-x="270" 
d="M79 600l-108 148h143l95 -148h-130zM62 0v525h146v-525h-146z" />
    <glyph glyph-name="j" unicode="j" horiz-adv-x="270" 
d="M135 595c-48 0 -83 32 -83 79s36 79 83 79c49 0 85 -32 85 -79s-36 -79 -85 -79zM-25 -204v117h16c43 0 71 33 71 90v522h146v-517c0 -138 -67 -212 -186 -212h-47z" />
    <glyph glyph-name="uni0237" unicode="&#x237;" horiz-adv-x="270" 
d="M-25 -204v117h16c43 0 71 33 71 90v522h146v-517c0 -138 -67 -212 -186 -212h-47z" />
    <glyph glyph-name="k" unicode="k" horiz-adv-x="578" 
d="M62 0v723l143 21v-418h21c42 0 58 6 106 101l49 98h156l-78 -155c-18 -37 -41 -69 -66 -96l163 -274h-166l-115 205c-7 -1 -14 -2 -21 -2h-49v-203h-143z" />
    <glyph glyph-name="l" unicode="l" horiz-adv-x="310" 
d="M238 -7c-120 0 -181 67 -181 208v522l146 21v-546c0 -57 23 -86 68 -86h14v-119h-47z" />
    <glyph glyph-name="m" unicode="m" horiz-adv-x="836" 
d="M62 0v525h107l18 -61c38 45 85 72 143 72c59 0 105 -27 133 -78c40 49 91 78 154 78c101 0 162 -84 162 -230v-306h-146v291c0 70 -9 117 -64 117c-28 0 -56 -21 -76 -58c1 -14 2 -29 2 -44v-306h-146v291c0 69 -11 117 -62 117c-29 0 -59 -23 -79 -62v-346h-146z" />
    <glyph glyph-name="n" unicode="n" horiz-adv-x="572" 
d="M62 0v525h107l20 -62c41 46 91 73 152 73c110 0 174 -82 174 -233v-303h-146v288c0 76 -14 120 -74 120c-32 0 -64 -22 -87 -59v-349h-146z" />
    <glyph glyph-name="ntilde" unicode="&#xf1;" horiz-adv-x="572" 
d="M372 598c-28 0 -48 8 -73 26c-22 16 -41 27 -64 27c-33 0 -57 -15 -86 -36v97c28 24 54 39 87 39c30 0 51 -10 74 -26s41 -27 64 -27c38 0 62 17 87 36v-98c-25 -21 -51 -38 -89 -38zM62 0v525h107l20 -62c41 46 91 73 152 73c110 0 174 -82 174 -233v-303h-146v288
c0 76 -14 120 -74 120c-32 0 -64 -22 -87 -59v-349h-146z" />
    <glyph glyph-name="o" unicode="o" horiz-adv-x="566" 
d="M282 -11c-139 0 -240 108 -240 275c0 160 104 272 240 272c139 0 242 -110 242 -273c0 -165 -106 -274 -242 -274zM282 114c62 0 99 57 99 149c0 89 -36 148 -98 148c-61 0 -98 -58 -98 -147c0 -93 37 -150 97 -150z" />
    <glyph glyph-name="oacute" unicode="&#xf3;" horiz-adv-x="566" 
d="M188 600l114 148h144l-126 -148h-132zM282 -11c-139 0 -240 108 -240 275c0 160 104 272 240 272c139 0 242 -110 242 -273c0 -165 -106 -274 -242 -274zM282 114c62 0 99 57 99 149c0 89 -36 148 -98 148c-61 0 -98 -58 -98 -147c0 -93 37 -150 97 -150z" />
    <glyph glyph-name="ocircumflex" unicode="&#xf4;" horiz-adv-x="566" 
d="M106 600l116 148h123l115 -148h-119l-58 74l-59 -74h-118zM282 -11c-139 0 -240 108 -240 275c0 160 104 272 240 272c139 0 242 -110 242 -273c0 -165 -106 -274 -242 -274zM282 114c62 0 99 57 99 149c0 89 -36 148 -98 148c-61 0 -98 -58 -98 -147
c0 -93 37 -150 97 -150z" />
    <glyph glyph-name="odieresis" unicode="&#xf6;" horiz-adv-x="566" 
d="M182 598c-43 0 -76 29 -76 72s33 73 76 73c44 0 76 -30 76 -73s-32 -72 -76 -72zM384 598c-44 0 -76 29 -76 72s32 73 76 73c43 0 76 -30 76 -73s-33 -72 -76 -72zM282 -11c-139 0 -240 108 -240 275c0 160 104 272 240 272c139 0 242 -110 242 -273
c0 -165 -106 -274 -242 -274zM282 114c62 0 99 57 99 149c0 89 -36 148 -98 148c-61 0 -98 -58 -98 -147c0 -93 37 -150 97 -150z" />
    <glyph glyph-name="ograve" unicode="&#xf2;" horiz-adv-x="566" 
d="M246 600l-127 148h145l113 -148h-131zM282 -11c-139 0 -240 108 -240 275c0 160 104 272 240 272c139 0 242 -110 242 -273c0 -165 -106 -274 -242 -274zM282 114c62 0 99 57 99 149c0 89 -36 148 -98 148c-61 0 -98 -58 -98 -147c0 -93 37 -150 97 -150z" />
    <glyph glyph-name="oslash" unicode="&#xf8;" horiz-adv-x="566" 
d="M37 -49l71 115c-41 48 -66 116 -66 198c0 160 104 272 240 272c37 0 72 -8 103 -23l37 61h107l-72 -116c42 -48 67 -115 67 -195c0 -165 -106 -274 -242 -274c-37 0 -71 8 -101 22l-37 -60h-107zM192 201l125 203c-10 5 -22 7 -34 7c-61 0 -98 -58 -98 -147
c0 -23 2 -44 7 -63zM282 114c62 0 99 57 99 149c0 22 -2 43 -7 61l-125 -203c10 -5 21 -7 33 -7z" />
    <glyph glyph-name="otilde" unicode="&#xf5;" horiz-adv-x="566" 
d="M357 598c-28 0 -48 8 -73 26c-22 16 -41 27 -64 27c-33 0 -57 -15 -86 -36v97c28 24 54 39 87 39c30 0 51 -10 74 -26s41 -27 64 -27c38 0 62 17 87 36v-98c-25 -21 -51 -38 -89 -38zM282 -11c-139 0 -240 108 -240 275c0 160 104 272 240 272c139 0 242 -110 242 -273
c0 -165 -106 -274 -242 -274zM282 114c62 0 99 57 99 149c0 89 -36 148 -98 148c-61 0 -98 -58 -98 -147c0 -93 37 -150 97 -150z" />
    <glyph glyph-name="oe" unicode="&#x153;" horiz-adv-x="875" 
d="M282 -11c-139 0 -240 108 -240 275c0 160 104 272 240 272c74 0 130 -34 166 -89c39 56 98 89 173 89c130 0 214 -106 214 -273v-36h-313c8 -72 52 -120 117 -120c43 0 74 12 104 44l78 -77c-51 -63 -111 -86 -192 -86c-80 0 -141 34 -181 91c-36 -56 -93 -90 -166 -90z
M524 321h177c-2 70 -32 104 -83 104s-84 -38 -94 -104zM282 114c62 0 99 57 99 149c0 89 -36 148 -98 148c-61 0 -98 -58 -98 -147c0 -93 37 -150 97 -150z" />
    <glyph glyph-name="p" unicode="p" horiz-adv-x="578" 
d="M62 -221v746h107l20 -64c41 46 93 75 147 75c117 0 200 -105 200 -272c0 -164 -98 -273 -223 -273c-37 0 -74 14 -105 37v-228zM286 113c65 0 107 52 107 154c0 89 -34 141 -95 141c-38 0 -68 -21 -90 -54v-207c23 -22 49 -34 78 -34z" />
    <glyph glyph-name="thorn" unicode="&#xfe;" horiz-adv-x="578" 
d="M62 -221v944l146 21v-265c38 36 82 57 128 57c117 0 200 -105 200 -272c0 -160 -97 -273 -214 -273c-45 0 -82 14 -114 38v-229zM286 114c65 0 107 52 107 153c0 89 -34 141 -95 141c-38 0 -68 -21 -90 -54v-206c23 -21 49 -34 78 -34z" />
    <glyph glyph-name="q" unicode="q" horiz-adv-x="579" 
d="M371 -221v267c-38 -36 -82 -57 -129 -57c-118 0 -200 105 -200 274c0 163 99 273 224 273c46 0 94 -23 128 -56l14 45h109v-725zM280 117c37 0 68 22 91 55v205c-24 22 -51 35 -81 35c-64 0 -105 -53 -105 -153c0 -88 35 -142 95 -142z" />
    <glyph glyph-name="r" unicode="r" horiz-adv-x="408" 
d="M62 0v525h107l21 -68c46 51 101 77 170 77h11v-123h-15c-55 0 -114 -22 -148 -73v-338h-146z" />
    <glyph glyph-name="s" unicode="s" horiz-adv-x="467" 
d="M240 -11c-88 0 -162 29 -215 78l65 86c41 -36 92 -51 148 -51c42 0 63 13 63 43c0 41 -53 56 -121 77c-85 26 -132 73 -132 157c0 90 74 157 186 157c82 0 146 -28 193 -79l-72 -77c-34 30 -73 45 -115 45c-41 0 -61 -15 -61 -44c0 -38 49 -46 118 -71
c78 -28 135 -76 135 -159c0 -95 -71 -162 -192 -162z" />
    <glyph glyph-name="scaron" unicode="&#x161;" horiz-adv-x="467" 
d="M174 600l-116 148h119l58 -74l59 74h118l-115 -148h-123zM240 -11c-88 0 -162 29 -215 78l65 86c41 -36 92 -51 148 -51c42 0 63 13 63 43c0 41 -53 56 -121 77c-85 26 -132 73 -132 157c0 90 74 157 186 157c82 0 146 -28 193 -79l-72 -77c-34 30 -73 45 -115 45
c-41 0 -61 -15 -61 -44c0 -38 49 -46 118 -71c78 -28 135 -76 135 -159c0 -95 -71 -162 -192 -162z" />
    <glyph glyph-name="germandbls" unicode="&#xdf;" horiz-adv-x="619" 
d="M420 -11c-81 0 -132 22 -173 53l48 94c30 -19 57 -29 89 -29c38 0 62 23 62 60c0 54 -38 67 -74 85c-46 23 -94 42 -94 117c0 38 17 68 36 94c18 25 32 49 32 80c0 52 -22 76 -63 76c-57 0 -78 -54 -78 -125v-494h-143v478c0 172 86 267 228 267c133 0 198 -78 198 -160
c0 -51 -19 -76 -44 -117c-13 -21 -31 -41 -31 -65c0 -42 47 -52 89 -79c39 -25 85 -73 85 -161c0 -104 -68 -174 -167 -174z" />
    <glyph glyph-name="t" unicode="t" horiz-adv-x="419" 
d="M255 -11c-122 0 -193 77 -193 215v448l146 21v-148h167v-121h-167v-201c0 -56 23 -87 65 -87c28 0 46 9 65 26l67 -91c-41 -42 -95 -62 -150 -62z" />
    <glyph glyph-name="u" unicode="u" horiz-adv-x="568" 
d="M227 -11c-109 0 -171 82 -171 232v304h146v-288c0 -77 11 -120 71 -120c33 0 64 21 87 59v349h146v-525h-107l-20 62c-41 -46 -91 -73 -152 -73z" />
    <glyph glyph-name="uacute" unicode="&#xfa;" horiz-adv-x="568" 
d="M186 600l114 148h144l-126 -148h-132zM227 -11c-109 0 -171 82 -171 232v304h146v-288c0 -77 11 -120 71 -120c33 0 64 21 87 59v349h146v-525h-107l-20 62c-41 -46 -91 -73 -152 -73z" />
    <glyph glyph-name="ucircumflex" unicode="&#xfb;" horiz-adv-x="568" 
d="M104 600l116 148h123l115 -148h-119l-58 74l-59 -74h-118zM227 -11c-109 0 -171 82 -171 232v304h146v-288c0 -77 11 -120 71 -120c33 0 64 21 87 59v349h146v-525h-107l-20 62c-41 -46 -91 -73 -152 -73z" />
    <glyph glyph-name="udieresis" unicode="&#xfc;" horiz-adv-x="568" 
d="M180 598c-43 0 -76 29 -76 72s33 73 76 73c44 0 76 -30 76 -73s-32 -72 -76 -72zM382 598c-44 0 -76 29 -76 72s32 73 76 73c43 0 76 -30 76 -73s-33 -72 -76 -72zM227 -11c-109 0 -171 82 -171 232v304h146v-288c0 -77 11 -120 71 -120c33 0 64 21 87 59v349h146v-525
h-107l-20 62c-41 -46 -91 -73 -152 -73z" />
    <glyph glyph-name="ugrave" unicode="&#xf9;" horiz-adv-x="568" 
d="M244 600l-127 148h145l113 -148h-131zM227 -11c-109 0 -171 82 -171 232v304h146v-288c0 -77 11 -120 71 -120c33 0 64 21 87 59v349h146v-525h-107l-20 62c-41 -46 -91 -73 -152 -73z" />
    <glyph glyph-name="v" unicode="v" horiz-adv-x="565" 
d="M201 0l-186 525h161l107 -382l109 382h158l-187 -525h-162z" />
    <glyph glyph-name="w" unicode="w" horiz-adv-x="769" 
d="M154 0l-134 525h152l61 -357l79 322h148l75 -322l65 357h149l-137 -525h-152l-78 325l-80 -325h-148z" />
    <glyph glyph-name="wacute" unicode="&#x1e83;" horiz-adv-x="769" 
d="M289 600l114 148h144l-126 -148h-132zM154 0l-134 525h152l61 -357l79 322h148l75 -322l65 357h149l-137 -525h-152l-78 325l-80 -325h-148z" />
    <glyph glyph-name="wcircumflex" unicode="&#x175;" horiz-adv-x="769" 
d="M207 600l116 148h123l115 -148h-119l-58 74l-59 -74h-118zM154 0l-134 525h152l61 -357l79 322h148l75 -322l65 357h149l-137 -525h-152l-78 325l-80 -325h-148z" />
    <glyph glyph-name="wdieresis" unicode="&#x1e85;" horiz-adv-x="769" 
d="M283 598c-43 0 -76 29 -76 72s33 73 76 73c44 0 76 -30 76 -73s-32 -72 -76 -72zM485 598c-44 0 -76 29 -76 72s32 73 76 73c43 0 76 -30 76 -73s-33 -72 -76 -72zM154 0l-134 525h152l61 -357l79 322h148l75 -322l65 357h149l-137 -525h-152l-78 325l-80 -325h-148z" />
    <glyph glyph-name="wgrave" unicode="&#x1e81;" horiz-adv-x="769" 
d="M347 600l-127 148h145l113 -148h-131zM154 0l-134 525h152l61 -357l79 322h148l75 -322l65 357h149l-137 -525h-152l-78 325l-80 -325h-148z" />
    <glyph glyph-name="x" unicode="x" horiz-adv-x="554" 
d="M20 0l177 271l-170 254h163l91 -150l86 150h160l-168 -255l176 -270h-164l-97 166l-93 -166h-161z" />
    <glyph glyph-name="y" unicode="y" horiz-adv-x="555" 
d="M68 -204v125h34c55 0 97 35 122 93l2 5l-215 506h163l110 -322l100 322h156l-191 -533c-45 -125 -111 -196 -235 -196h-46z" />
    <glyph glyph-name="yacute" unicode="&#xfd;" horiz-adv-x="555" 
d="M183 600l114 148h144l-126 -148h-132zM68 -204v125h34c55 0 97 35 122 93l2 5l-215 506h163l110 -322l100 322h156l-191 -533c-45 -125 -111 -196 -235 -196h-46z" />
    <glyph glyph-name="ycircumflex" unicode="&#x177;" horiz-adv-x="555" 
d="M101 600l116 148h123l115 -148h-119l-58 74l-59 -74h-118zM68 -204v125h34c55 0 97 35 122 93l2 5l-215 506h163l110 -322l100 322h156l-191 -533c-45 -125 -111 -196 -235 -196h-46z" />
    <glyph glyph-name="ydieresis" unicode="&#xff;" horiz-adv-x="555" 
d="M177 598c-43 0 -76 29 -76 72s33 73 76 73c44 0 76 -30 76 -73s-32 -72 -76 -72zM379 598c-44 0 -76 29 -76 72s32 73 76 73c43 0 76 -30 76 -73s-33 -72 -76 -72zM68 -204v125h34c55 0 97 35 122 93l2 5l-215 506h163l110 -322l100 322h156l-191 -533
c-45 -125 -111 -196 -235 -196h-46z" />
    <glyph glyph-name="ygrave" unicode="&#x1ef3;" horiz-adv-x="555" 
d="M241 600l-127 148h145l113 -148h-131zM68 -204v125h34c55 0 97 35 122 93l2 5l-215 506h163l110 -322l100 322h156l-191 -533c-45 -125 -111 -196 -235 -196h-46z" />
    <glyph glyph-name="z" unicode="z" horiz-adv-x="503" 
d="M50 0v93l224 312h-217v120h390v-93l-220 -312h226v-120h-403z" />
    <glyph glyph-name="zcaron" unicode="&#x17e;" horiz-adv-x="503" 
d="M189 600l-116 148h119l58 -74l59 74h118l-115 -148h-123zM50 0v93l224 312h-217v120h390v-93l-220 -312h226v-120h-403z" />
    <glyph glyph-name="ordfeminine" unicode="&#xaa;" horiz-adv-x="403" 
d="M148 266c-76 0 -121 46 -121 121c0 77 60 124 156 124h60v3c0 47 -17 73 -58 73c-29 0 -62 -12 -89 -38l-59 73c42 40 95 65 152 65c110 0 169 -69 169 -188v-225h-89l-13 38c-30 -28 -68 -46 -108 -46zM171 356c28 0 52 13 72 36v43h-57c-30 0 -52 -15 -52 -41
c0 -23 14 -38 37 -38z" />
    <glyph glyph-name="ordmasculine" unicode="&#xba;" horiz-adv-x="443" 
d="M221 266c-109 0 -190 84 -190 211c0 125 82 210 190 210c109 0 190 -84 190 -211c0 -125 -84 -210 -190 -210zM220 378c44 0 66 39 66 98s-21 99 -64 99s-66 -38 -66 -98s23 -99 64 -99z" />
    <glyph glyph-name="uni03BC" unicode="&#x3bc;" horiz-adv-x="574" 
d="M62 -221v746h146v-298c0 -80 23 -110 72 -110c33 0 63 21 86 59v349h146v-525h-109l-19 68c-31 -49 -80 -79 -121 -79c-22 0 -43 5 -56 14v-203z" />
    <glyph glyph-name="zero" unicode="0" horiz-adv-x="574" 
d="M287 -12c-146 0 -238 132 -238 341c0 202 94 339 238 339s238 -133 238 -339c0 -209 -95 -341 -238 -341zM287 129c63 0 88 79 88 200c0 114 -20 198 -86 198c-65 0 -90 -83 -90 -198c0 -117 22 -200 88 -200z" />
    <glyph glyph-name="one" unicode="1" horiz-adv-x="391" 
d="M169 0v516l-134 -41v120l166 62h114v-657h-146z" />
    <glyph glyph-name="two" unicode="2" horiz-adv-x="532" 
d="M54 0v97l195 216c53 58 76 92 76 133c0 52 -28 82 -75 82c-39 0 -82 -20 -128 -68l-87 102c59 67 145 106 231 106c128 0 209 -79 209 -198c0 -73 -27 -130 -90 -201l-123 -137h212v-132h-420z" />
    <glyph glyph-name="three" unicode="3" horiz-adv-x="514" 
d="M242 -12c-85 0 -166 35 -214 92l80 91c38 -36 81 -52 127 -52c54 0 92 35 92 85c0 51 -38 81 -102 81h-79v89l142 153h-238v130h404v-94l-159 -170c109 -11 181 -82 181 -193c0 -127 -94 -212 -234 -212z" />
    <glyph glyph-name="four" unicode="4" horiz-adv-x="561" 
d="M320 0v150h-280v106l280 401h131v-383h73v-124h-73v-150h-131zM189 274h131v194z" />
    <glyph glyph-name="five" unicode="5" horiz-adv-x="485" 
d="M226 -12c-78 0 -161 36 -205 89l81 93c35 -33 70 -51 116 -51c52 0 88 34 88 85c0 53 -34 82 -94 82h-153v91l49 280h309v-130h-215l-17 -117h51c135 0 219 -72 219 -203s-88 -219 -229 -219z" />
    <glyph glyph-name="six" unicode="6" horiz-adv-x="538" 
d="M281 -12c-143 0 -232 117 -232 319c0 215 106 361 256 361c79 0 147 -35 188 -84l-78 -89c-26 29 -60 43 -102 43c-65 0 -112 -52 -125 -153c36 17 76 28 119 28c114 0 188 -82 188 -199c0 -129 -82 -226 -214 -226zM287 115c51 0 79 38 79 94c0 52 -31 89 -83 89
c-37 0 -71 -7 -99 -19c2 -115 41 -164 103 -164z" />
    <glyph glyph-name="seven" unicode="7" horiz-adv-x="506" 
d="M107 0l193 522h-261v135h430v-78l-206 -579h-156z" />
    <glyph glyph-name="eight" unicode="8" horiz-adv-x="569" 
d="M285 -12c-145 0 -238 73 -238 185c0 64 41 122 97 165c-49 33 -79 82 -79 149c0 108 95 181 219 181c133 0 220 -71 220 -178c0 -55 -36 -103 -81 -142c59 -36 99 -91 99 -168c0 -113 -98 -192 -237 -192zM321 390c36 25 54 57 54 85c0 47 -36 75 -89 75
c-52 0 -88 -27 -88 -67c0 -53 53 -71 117 -91zM286 111c56 0 98 28 98 80c0 61 -53 78 -126 99l-11 3c-42 -27 -63 -59 -63 -96c0 -51 42 -86 102 -86z" />
    <glyph glyph-name="nine" unicode="9" horiz-adv-x="540" 
d="M238 -12c-75 0 -148 30 -196 82l73 95c37 -32 76 -46 114 -46c78 0 117 60 126 156c-36 -18 -77 -29 -120 -29c-115 0 -189 85 -189 202c0 129 88 219 215 219c143 0 232 -115 232 -316c0 -229 -103 -363 -255 -363zM268 360c31 0 62 6 90 18c-1 109 -39 163 -97 163
c-53 0 -85 -36 -85 -91c0 -58 29 -90 92 -90z" />
    <glyph glyph-name="zero.zero" horiz-adv-x="574" 
d="M287 -12c-146 0 -238 132 -238 341c0 202 94 339 238 339s238 -133 238 -339c0 -209 -95 -341 -238 -341zM189 263l174 228c-16 30 -39 48 -74 48c-77 0 -103 -88 -103 -210c0 -23 1 -45 3 -66zM287 117c75 0 101 84 101 212c0 19 -1 37 -2 55l-171 -224
c16 -27 39 -43 72 -43z" />
    <glyph glyph-name="zero.tf" 
d="M261 -12c-140 0 -227 126 -227 341c0 209 89 339 227 339c137 0 227 -127 227 -339c0 -214 -90 -341 -227 -341zM261 129c57 0 77 72 77 200c0 122 -15 198 -75 198c-59 0 -79 -76 -79 -198c0 -125 17 -200 77 -200z" />
    <glyph glyph-name="one.tf" 
d="M239 0v513l-152 -44v117l183 71h115v-657h-146z" />
    <glyph glyph-name="two.tf" 
d="M48 0v97l195 216c53 58 76 92 76 133c0 52 -28 82 -75 82c-39 0 -82 -20 -128 -68l-87 102c59 67 145 106 231 106c128 0 209 -79 209 -198c0 -73 -27 -130 -90 -201l-123 -137h212v-132h-420z" />
    <glyph glyph-name="three.tf" 
d="M248 -12c-85 0 -166 35 -214 92l80 91c38 -36 81 -52 127 -52c54 0 92 35 92 85c0 51 -38 81 -102 81h-79v89l142 153h-238v130h404v-94l-159 -170c109 -11 181 -82 181 -193c0 -127 -94 -212 -234 -212z" />
    <glyph glyph-name="four.tf" 
d="M292 0v150h-265v106l265 401h131v-383h71v-124h-71v-150h-131zM173 274h119v194z" />
    <glyph glyph-name="five.tf" 
d="M245 -12c-78 0 -161 36 -205 89l81 93c35 -33 70 -51 116 -51c52 0 88 34 88 85c0 53 -34 82 -94 82h-153v91l49 280h309v-130h-215l-17 -117h51c135 0 219 -72 219 -203s-88 -219 -229 -219z" />
    <glyph glyph-name="six.tf" 
d="M275 -12c-143 0 -232 117 -232 319c0 215 106 361 256 361c79 0 147 -35 188 -84l-78 -89c-26 29 -60 43 -102 43c-65 0 -112 -52 -125 -153c36 17 76 28 119 28c114 0 188 -82 188 -199c0 -129 -82 -226 -214 -226zM281 115c51 0 79 38 79 94c0 52 -31 89 -83 89
c-37 0 -71 -7 -99 -19c2 -115 41 -164 103 -164z" />
    <glyph glyph-name="seven.tf" 
d="M113 0l193 522h-261v135h430v-78l-206 -579h-156z" />
    <glyph glyph-name="eight.tf" 
d="M271 -12c-145 0 -238 73 -238 185c0 64 41 122 97 165c-49 33 -79 82 -79 149c0 108 95 181 219 181c133 0 220 -71 220 -178c0 -55 -36 -103 -81 -142c59 -36 99 -91 99 -168c0 -113 -98 -192 -237 -192zM307 390c36 25 54 57 54 85c0 47 -36 75 -89 75
c-52 0 -88 -27 -88 -67c0 -53 53 -71 117 -91zM272 111c56 0 98 28 98 80c0 61 -53 78 -126 99l-11 3c-42 -27 -63 -59 -63 -96c0 -51 42 -86 102 -86z" />
    <glyph glyph-name="nine.tf" 
d="M227 -12c-75 0 -148 30 -196 82l73 95c37 -32 76 -46 114 -46c78 0 117 60 126 156c-36 -18 -77 -29 -120 -29c-115 0 -189 85 -189 202c0 129 88 219 215 219c143 0 232 -115 232 -316c0 -229 -103 -363 -255 -363zM257 360c31 0 62 6 90 18c-1 109 -39 163 -97 163
c-53 0 -85 -36 -85 -91c0 -58 29 -90 92 -90z" />
    <glyph glyph-name="zero.tf.zero" 
d="M261 -12c-140 0 -227 126 -227 341c0 209 89 339 227 339c137 0 227 -127 227 -339c0 -214 -90 -341 -227 -341zM168 284l160 212c-14 25 -35 39 -65 39c-69 0 -96 -76 -96 -206c0 -16 0 -31 1 -45zM261 121c67 0 94 72 94 208c0 19 0 36 -1 53l-162 -215
c14 -30 37 -46 69 -46z" />
    <glyph glyph-name="zero.subs" horiz-adv-x="439" 
d="M219 -85c-97 0 -161 77 -161 203c0 122 65 201 161 201c97 0 161 -78 161 -201c0 -125 -64 -203 -161 -203zM219 17c40 0 53 40 53 100c0 58 -12 101 -51 101c-40 0 -55 -42 -55 -101c0 -58 13 -100 53 -100z" />
    <glyph glyph-name="one.subs" horiz-adv-x="354" 
d="M152 -77v290l-87 -23v86l110 38h81v-391h-104z" />
    <glyph glyph-name="two.subs" horiz-adv-x="415" 
d="M66 -77v71l122 118c26 25 50 45 50 68c0 25 -15 38 -43 38c-23 0 -52 -13 -81 -41l-60 74c40 41 100 69 154 69c84 0 139 -49 139 -123c0 -46 -21 -78 -60 -115l-64 -62h122v-97h-279z" />
    <glyph glyph-name="three.subs" horiz-adv-x="419" 
d="M200 -85c-60 0 -109 26 -138 59l60 64c21 -20 45 -32 73 -32c30 0 53 16 53 41c0 23 -17 36 -47 36h-66v61l83 76h-143v93h257v-70l-88 -85c66 -8 110 -50 110 -114c0 -82 -61 -129 -154 -129z" />
    <glyph glyph-name="four.subs" horiz-adv-x="423" 
d="M230 -77v84h-174v68l174 239h92v-222h45v-85h-45v-84h-92zM160 92h70v101z" />
    <glyph glyph-name="five.subs" horiz-adv-x="399" 
d="M185 -85c-53 0 -104 25 -135 60l59 63c21 -20 41 -29 72 -29c29 0 50 14 50 39c0 23 -17 36 -46 36h-110v65l31 164h208v-94h-143l-7 -51h33c89 0 141 -43 141 -119c0 -83 -58 -134 -153 -134z" />
    <glyph glyph-name="six.subs" horiz-adv-x="412" 
d="M215 -85c-100 0 -155 69 -155 189c0 127 69 215 171 215c51 0 95 -20 128 -55l-51 -65c-19 19 -45 28 -71 28c-39 0 -68 -23 -78 -70c21 8 46 14 74 14c76 0 124 -47 124 -118c0 -80 -54 -138 -142 -138zM219 5c32 0 48 16 48 43c0 26 -19 42 -51 42c-22 0 -43 -3 -60 -9
c4 -52 32 -76 63 -76z" />
    <glyph glyph-name="seven.subs" horiz-adv-x="394" 
d="M106 -77l113 293h-156v98h276v-51l-125 -340h-108z" />
    <glyph glyph-name="eight.subs" horiz-adv-x="435" 
d="M215 -85c-87 0 -146 44 -146 111c0 36 25 69 59 94c-30 20 -48 48 -48 89c0 65 60 110 137 110c83 0 137 -42 137 -108c0 -31 -22 -57 -48 -78c35 -21 60 -55 60 -101c0 -72 -63 -117 -151 -117zM239 159c19 12 27 28 27 42c0 21 -20 36 -47 36s-47 -12 -47 -30
c0 -23 22 -34 57 -45zM220 0c30 0 52 13 52 39c0 28 -31 39 -70 50l-7 2c-23 -14 -32 -30 -32 -48c0 -27 23 -43 57 -43z" />
    <glyph glyph-name="nine.subs" horiz-adv-x="396" 
d="M173 -85c-49 0 -98 22 -129 55l52 64c25 -20 47 -27 71 -27c46 0 71 27 79 74c-22 -10 -47 -16 -74 -16c-77 0 -126 50 -126 119c0 79 57 135 142 135c100 0 155 -69 155 -189c0 -134 -66 -215 -170 -215zM190 146c23 0 42 3 59 8c-4 47 -26 75 -60 75
c-33 0 -51 -16 -51 -42c0 -27 17 -41 52 -41z" />
    <glyph glyph-name="zero.dnom" horiz-adv-x="439" 
d="M219 -8c-97 0 -161 77 -161 203c0 122 65 201 161 201c97 0 161 -78 161 -201c0 -125 -64 -203 -161 -203zM219 94c40 0 53 40 53 100c0 58 -12 101 -51 101c-40 0 -55 -42 -55 -101c0 -58 13 -100 53 -100z" />
    <glyph glyph-name="one.dnom" horiz-adv-x="354" 
d="M152 0v290l-87 -23v86l110 38h81v-391h-104z" />
    <glyph glyph-name="two.dnom" horiz-adv-x="415" 
d="M66 0v71l122 118c26 25 50 45 50 68c0 25 -15 38 -43 38c-23 0 -52 -13 -81 -41l-60 74c40 41 100 69 154 69c84 0 139 -49 139 -123c0 -46 -21 -78 -60 -115l-64 -62h122v-97h-279z" />
    <glyph glyph-name="three.dnom" horiz-adv-x="419" 
d="M200 -8c-60 0 -109 26 -138 59l60 64c21 -20 45 -32 73 -32c30 0 53 16 53 41c0 23 -17 36 -47 36h-66v61l83 76h-143v93h257v-70l-88 -85c66 -8 110 -50 110 -114c0 -82 -61 -129 -154 -129z" />
    <glyph glyph-name="four.dnom" horiz-adv-x="423" 
d="M230 0v84h-174v68l174 239h92v-222h45v-85h-45v-84h-92zM160 169h70v101z" />
    <glyph glyph-name="five.dnom" horiz-adv-x="399" 
d="M185 -8c-53 0 -104 25 -135 60l59 63c21 -20 41 -29 72 -29c29 0 50 14 50 39c0 23 -17 36 -46 36h-110v65l31 164h208v-94h-143l-7 -51h33c89 0 141 -43 141 -119c0 -83 -58 -134 -153 -134z" />
    <glyph glyph-name="six.dnom" horiz-adv-x="412" 
d="M215 -8c-100 0 -155 69 -155 189c0 127 69 215 171 215c51 0 95 -20 128 -55l-51 -65c-19 19 -45 28 -71 28c-39 0 -68 -23 -78 -70c21 8 46 14 74 14c76 0 124 -47 124 -118c0 -80 -54 -138 -142 -138zM219 82c32 0 48 16 48 43c0 26 -19 42 -51 42c-22 0 -43 -3 -60 -9
c4 -52 32 -76 63 -76z" />
    <glyph glyph-name="seven.dnom" horiz-adv-x="394" 
d="M106 0l113 293h-156v98h276v-51l-125 -340h-108z" />
    <glyph glyph-name="eight.dnom" horiz-adv-x="435" 
d="M215 -8c-87 0 -146 44 -146 111c0 36 25 69 59 94c-30 20 -48 48 -48 89c0 65 60 110 137 110c83 0 137 -42 137 -108c0 -31 -22 -57 -48 -78c35 -21 60 -55 60 -101c0 -72 -63 -117 -151 -117zM239 236c19 12 27 28 27 42c0 21 -20 36 -47 36s-47 -12 -47 -30
c0 -23 22 -34 57 -45zM220 77c30 0 52 13 52 39c0 28 -31 39 -70 50l-7 2c-23 -14 -32 -30 -32 -48c0 -27 23 -43 57 -43z" />
    <glyph glyph-name="nine.dnom" horiz-adv-x="396" 
d="M173 -8c-49 0 -98 22 -129 55l52 64c25 -20 47 -27 71 -27c46 0 71 27 79 74c-22 -10 -47 -16 -74 -16c-77 0 -126 50 -126 119c0 79 57 135 142 135c100 0 155 -69 155 -189c0 -134 -66 -215 -170 -215zM190 223c23 0 42 3 59 8c-4 47 -26 75 -60 75
c-33 0 -51 -16 -51 -42c0 -27 17 -41 52 -41z" />
    <glyph glyph-name="zero.numr" horiz-adv-x="439" 
d="M219 257c-97 0 -161 77 -161 203c0 122 65 201 161 201c97 0 161 -78 161 -201c0 -125 -64 -203 -161 -203zM219 359c40 0 53 40 53 100c0 58 -12 101 -51 101c-40 0 -55 -42 -55 -101c0 -58 13 -100 53 -100z" />
    <glyph glyph-name="one.numr" horiz-adv-x="354" 
d="M152 265v290l-87 -23v86l110 38h81v-391h-104z" />
    <glyph glyph-name="two.numr" horiz-adv-x="415" 
d="M66 265v71l122 118c26 25 50 45 50 68c0 25 -15 38 -43 38c-23 0 -52 -13 -81 -41l-60 74c40 41 100 69 154 69c84 0 139 -49 139 -123c0 -46 -21 -78 -60 -115l-64 -62h122v-97h-279z" />
    <glyph glyph-name="three.numr" horiz-adv-x="419" 
d="M200 257c-60 0 -109 26 -138 59l60 64c21 -20 45 -32 73 -32c30 0 53 16 53 41c0 23 -17 36 -47 36h-66v61l83 76h-143v93h257v-70l-88 -85c66 -8 110 -50 110 -114c0 -82 -61 -129 -154 -129z" />
    <glyph glyph-name="four.numr" horiz-adv-x="423" 
d="M230 265v84h-174v68l174 239h92v-222h45v-85h-45v-84h-92zM160 434h70v101z" />
    <glyph glyph-name="five.numr" horiz-adv-x="399" 
d="M185 257c-53 0 -104 25 -135 60l59 63c21 -20 41 -29 72 -29c29 0 50 14 50 39c0 23 -17 36 -46 36h-110v65l31 164h208v-94h-143l-7 -51h33c89 0 141 -43 141 -119c0 -83 -58 -134 -153 -134z" />
    <glyph glyph-name="six.numr" horiz-adv-x="412" 
d="M215 257c-100 0 -155 69 -155 189c0 127 69 215 171 215c51 0 95 -20 128 -55l-51 -65c-19 19 -45 28 -71 28c-39 0 -68 -23 -78 -70c21 8 46 14 74 14c76 0 124 -47 124 -118c0 -80 -54 -138 -142 -138zM219 347c32 0 48 16 48 43c0 26 -19 42 -51 42
c-22 0 -43 -3 -60 -9c4 -52 32 -76 63 -76z" />
    <glyph glyph-name="seven.numr" horiz-adv-x="394" 
d="M106 265l113 293h-156v98h276v-51l-125 -340h-108z" />
    <glyph glyph-name="eight.numr" horiz-adv-x="435" 
d="M215 257c-87 0 -146 44 -146 111c0 36 25 69 59 94c-30 20 -48 48 -48 89c0 65 60 110 137 110c83 0 137 -42 137 -108c0 -31 -22 -57 -48 -78c35 -21 60 -55 60 -101c0 -72 -63 -117 -151 -117zM239 501c19 12 27 28 27 42c0 21 -20 36 -47 36s-47 -12 -47 -30
c0 -23 22 -34 57 -45zM220 342c30 0 52 13 52 39c0 28 -31 39 -70 50l-7 2c-23 -14 -32 -30 -32 -48c0 -27 23 -43 57 -43z" />
    <glyph glyph-name="nine.numr" horiz-adv-x="396" 
d="M173 257c-49 0 -98 22 -129 55l52 64c25 -20 47 -27 71 -27c46 0 71 27 79 74c-22 -10 -47 -16 -74 -16c-77 0 -126 50 -126 119c0 79 57 135 142 135c100 0 155 -69 155 -189c0 -134 -66 -215 -170 -215zM190 488c23 0 42 3 59 8c-4 47 -26 75 -60 75
c-33 0 -51 -16 -51 -42c0 -27 17 -41 52 -41z" />
    <glyph glyph-name="uni2070" unicode="&#x2070;" horiz-adv-x="439" 
d="M219 324c-97 0 -161 77 -161 203c0 122 65 201 161 201c97 0 161 -78 161 -201c0 -125 -64 -203 -161 -203zM219 426c40 0 53 40 53 100c0 58 -12 101 -51 101c-40 0 -55 -42 -55 -101c0 -58 13 -100 53 -100z" />
    <glyph glyph-name="uni00B9" unicode="&#xb9;" horiz-adv-x="354" 
d="M152 332v290l-87 -23v86l110 38h81v-391h-104z" />
    <glyph glyph-name="uni00B2" unicode="&#xb2;" horiz-adv-x="415" 
d="M66 332v71l122 118c26 25 50 45 50 68c0 25 -15 38 -43 38c-23 0 -52 -13 -81 -41l-60 74c40 41 100 69 154 69c84 0 139 -49 139 -123c0 -46 -21 -78 -60 -115l-64 -62h122v-97h-279z" />
    <glyph glyph-name="uni00B3" unicode="&#xb3;" horiz-adv-x="419" 
d="M200 324c-60 0 -109 26 -138 59l60 64c21 -20 45 -32 73 -32c30 0 53 16 53 41c0 23 -17 36 -47 36h-66v61l83 76h-143v93h257v-70l-88 -85c66 -8 110 -50 110 -114c0 -82 -61 -129 -154 -129z" />
    <glyph glyph-name="uni2074" unicode="&#x2074;" horiz-adv-x="423" 
d="M230 332v84h-174v68l174 239h92v-222h45v-85h-45v-84h-92zM160 501h70v101z" />
    <glyph glyph-name="uni2075" unicode="&#x2075;" horiz-adv-x="399" 
d="M185 324c-53 0 -104 25 -135 60l59 63c21 -20 41 -29 72 -29c29 0 50 14 50 39c0 23 -17 36 -46 36h-110v65l31 164h208v-94h-143l-7 -51h33c89 0 141 -43 141 -119c0 -83 -58 -134 -153 -134z" />
    <glyph glyph-name="uni2076" unicode="&#x2076;" horiz-adv-x="412" 
d="M215 324c-100 0 -155 69 -155 189c0 127 69 215 171 215c51 0 95 -20 128 -55l-51 -65c-19 19 -45 28 -71 28c-39 0 -68 -23 -78 -70c21 8 46 14 74 14c76 0 124 -47 124 -118c0 -80 -54 -138 -142 -138zM219 414c32 0 48 16 48 43c0 26 -19 42 -51 42
c-22 0 -43 -3 -60 -9c4 -52 32 -76 63 -76z" />
    <glyph glyph-name="uni2077" unicode="&#x2077;" horiz-adv-x="394" 
d="M106 332l113 293h-156v98h276v-51l-125 -340h-108z" />
    <glyph glyph-name="uni2078" unicode="&#x2078;" horiz-adv-x="435" 
d="M215 324c-87 0 -146 44 -146 111c0 36 25 69 59 94c-30 20 -48 48 -48 89c0 65 60 110 137 110c83 0 137 -42 137 -108c0 -31 -22 -57 -48 -78c35 -21 60 -55 60 -101c0 -72 -63 -117 -151 -117zM239 568c19 12 27 28 27 42c0 21 -20 36 -47 36s-47 -12 -47 -30
c0 -23 22 -34 57 -45zM220 409c30 0 52 13 52 39c0 28 -31 39 -70 50l-7 2c-23 -14 -32 -30 -32 -48c0 -27 23 -43 57 -43z" />
    <glyph glyph-name="uni2079" unicode="&#x2079;" horiz-adv-x="396" 
d="M173 324c-49 0 -98 22 -129 55l52 64c25 -20 47 -27 71 -27c46 0 71 27 79 74c-22 -10 -47 -16 -74 -16c-77 0 -126 50 -126 119c0 79 57 135 142 135c100 0 155 -69 155 -189c0 -134 -66 -215 -170 -215zM190 555c23 0 42 3 59 8c-4 47 -26 75 -60 75
c-33 0 -51 -16 -51 -42c0 -27 17 -41 52 -41z" />
    <glyph glyph-name="fraction" unicode="&#x2044;" horiz-adv-x="188" 
d="M-189 0l419 657h147l-419 -657h-147z" />
    <glyph glyph-name="onehalf" unicode="&#xbd;" horiz-adv-x="955" 
d="M160 0l419 657h147l-419 -657h-147zM152 265v290l-87 -23v86l110 38h81v-391h-104zM606 0v71l122 118c26 25 50 45 50 68c0 25 -15 38 -43 38c-23 0 -52 -13 -81 -41l-60 74c40 41 100 69 154 69c84 0 139 -49 139 -123c0 -46 -21 -78 -60 -115l-64 -62h122v-97h-279z
" />
    <glyph glyph-name="onequarter" unicode="&#xbc;" horiz-adv-x="897" 
d="M173 0l419 657h147l-419 -657h-147zM152 265v290l-87 -23v86l110 38h81v-391h-104zM704 0v84h-174v68l174 239h92v-222h45v-85h-45v-84h-92zM634 169h70v101z" />
    <glyph glyph-name="threequarters" unicode="&#xbe;" horiz-adv-x="936" 
d="M221 0l419 657h147l-419 -657h-147zM200 257c-60 0 -109 26 -138 59l60 64c21 -20 45 -32 73 -32c30 0 53 16 53 41c0 23 -17 36 -47 36h-66v61l83 76h-143v93h257v-70l-88 -85c66 -8 110 -50 110 -114c0 -82 -61 -129 -154 -129zM743 0v84h-174v68l174 239h92v-222h45
v-85h-45v-84h-92zM673 169h70v101z" />
    <glyph glyph-name="period" unicode="." horiz-adv-x="231" 
d="M114 -10c-47 0 -82 35 -82 85s35 85 82 85c48 0 84 -34 84 -85c0 -49 -36 -85 -84 -85z" />
    <glyph glyph-name="comma" unicode="," horiz-adv-x="231" 
d="M7 -120c31 89 51 186 56 261h132c-6 -91 -36 -188 -72 -261h-116z" />
    <glyph glyph-name="colon" unicode=":" horiz-adv-x="253" 
d="M114 361c-47 0 -82 35 -82 85s35 85 82 85c48 0 84 -34 84 -85c0 -49 -36 -85 -84 -85zM114 -10c-47 0 -82 35 -82 85s35 85 82 85c48 0 84 -34 84 -85c0 -49 -36 -85 -84 -85z" />
    <glyph glyph-name="semicolon" unicode=";" horiz-adv-x="253" 
d="M122 361c-47 0 -82 35 -82 85s35 85 82 85c48 0 84 -34 84 -85c0 -49 -36 -85 -84 -85zM2 -120c31 89 51 186 56 261h132c-6 -91 -36 -188 -72 -261h-116z" />
    <glyph glyph-name="ellipsis" unicode="&#x2026;" horiz-adv-x="725" 
d="M114 -10c-47 0 -82 35 -82 85s35 85 82 85c48 0 84 -34 84 -85c0 -49 -36 -85 -84 -85zM361 -10c-47 0 -82 35 -82 85s35 85 82 85c48 0 84 -34 84 -85c0 -49 -36 -85 -84 -85zM608 -10c-47 0 -82 35 -82 85s35 85 82 85c48 0 84 -34 84 -85c0 -49 -36 -85 -84 -85z" />
    <glyph glyph-name="exclam" unicode="!" horiz-adv-x="286" 
d="M73 230l-12 446h155l-12 -446h-131zM142 -10c-47 0 -82 35 -82 85s35 85 82 85c48 0 84 -34 84 -85c0 -49 -36 -85 -84 -85z" />
    <glyph glyph-name="exclamdown" unicode="&#xa1;" horiz-adv-x="304" 
d="M162 366c-48 0 -84 34 -84 85c0 49 36 85 84 85c47 0 82 -35 82 -85s-35 -85 -82 -85zM88 -150l12 446h131l12 -446h-155z" />
    <glyph glyph-name="question" unicode="?" horiz-adv-x="485" 
d="M156 230v19c0 66 36 111 78 151c34 33 62 57 62 90c0 35 -23 58 -62 58c-40 0 -85 -15 -129 -58l-85 102c58 60 144 96 232 96c118 0 197 -73 197 -174c0 -71 -31 -114 -79 -159c-37 -35 -72 -71 -72 -116v-9h-142zM223 -10c-47 0 -82 35 -82 85s35 85 82 85
c48 0 84 -34 84 -85c0 -49 -36 -85 -84 -85z" />
    <glyph glyph-name="questiondown" unicode="&#xbf;" horiz-adv-x="485" 
d="M280 366c-48 0 -84 34 -84 85c0 49 36 85 84 85c47 0 82 -35 82 -85s-35 -85 -82 -85zM251 -162c-118 0 -197 73 -197 174c0 71 31 114 79 159c37 35 72 71 72 116v9h142v-19c0 -66 -36 -111 -78 -151c-34 -33 -62 -57 -62 -90c0 -35 23 -58 62 -58c40 0 85 15 129 58
l85 -102c-58 -60 -144 -96 -232 -96z" />
    <glyph glyph-name="periodcentered" unicode="&#xb7;" horiz-adv-x="230" 
d="M114 282c-47 0 -82 35 -82 85s35 85 82 85c48 0 84 -34 84 -85c0 -49 -36 -85 -84 -85z" />
    <glyph glyph-name="bullet" unicode="&#x2022;" horiz-adv-x="412" 
d="M205 207c-72 0 -133 60 -133 138c0 79 61 139 133 139c74 0 135 -60 135 -139c0 -78 -61 -138 -135 -138z" />
    <glyph glyph-name="asterisk" unicode="*" horiz-adv-x="445" 
d="M166 323l11 103l-74 -65l-65 90l99 57l-99 56l65 92l74 -66l-11 103h114l-11 -101l73 64l65 -92l-100 -56l100 -57l-65 -90l-73 64l11 -102h-114z" />
    <glyph glyph-name="numbersign" unicode="#" horiz-adv-x="575" 
d="M87 27l15 121h-75l15 111h74l17 144h-76l16 110h74l14 116h123l-14 -116l80 1l14 115h123l-14 -115h75l-15 -110h-74l-17 -144h76l-16 -110h-74l-15 -123h-123l15 122h-79l-15 -122h-124zM239 259l80 1l17 144l-79 -1z" />
    <glyph glyph-name="slash" unicode="/" horiz-adv-x="464" 
d="M20 -150l268 885h156l-268 -885h-156z" />
    <glyph glyph-name="backslash" unicode="\" horiz-adv-x="464" 
d="M288 -150l-268 885h156l268 -885h-156z" />
    <glyph glyph-name="exclamdown.case" horiz-adv-x="286" 
d="M144 516c-48 0 -84 34 -84 85c0 49 36 85 84 85c47 0 82 -35 82 -85s-35 -85 -82 -85zM70 0l12 446h131l12 -446h-155z" />
    <glyph glyph-name="questiondown.case" horiz-adv-x="485" 
d="M262 516c-48 0 -84 34 -84 85c0 49 36 85 84 85c47 0 82 -35 82 -85s-35 -85 -82 -85zM233 -12c-118 0 -197 73 -197 174c0 71 31 114 79 159c37 35 72 71 72 116v9h142v-19c0 -66 -36 -111 -78 -151c-34 -33 -62 -57 -62 -90c0 -35 23 -58 62 -58c40 0 85 15 129 58
l85 -102c-58 -60 -144 -96 -232 -96z" />
    <glyph glyph-name="slash.case" horiz-adv-x="464" 
d="M20 -108l268 885h156l-268 -885h-156z" />
    <glyph glyph-name="backslash.case" horiz-adv-x="464" 
d="M288 -108l-268 885h156l268 -885h-156z" />
    <glyph glyph-name="parenleft" unicode="(" horiz-adv-x="363" 
d="M194 -151c-83 119 -135 285 -135 443s54 324 135 443h147c-82 -123 -141 -278 -141 -443c0 -166 59 -320 141 -443h-147z" />
    <glyph glyph-name="parenright" unicode=")" horiz-adv-x="363" 
d="M22 -151c82 123 141 278 141 443c0 166 -59 320 -141 443h147c83 -119 135 -285 135 -443s-54 -324 -135 -443h-147z" />
    <glyph glyph-name="braceleft" unicode="{" horiz-adv-x="453" 
d="M307 -151c-130 0 -199 79 -199 223v51c0 70 -14 95 -68 120v98c56 26 68 54 68 120v52c0 144 69 222 199 222h117l-20 -142h-65c-55 0 -85 -38 -85 -105v-53c0 -67 -18 -107 -65 -143c46 -36 65 -74 65 -143v-52c0 -68 30 -105 85 -105h65l20 -143h-117z" />
    <glyph glyph-name="braceright" unicode="}" horiz-adv-x="453" 
d="M29 -151l20 142h65c55 0 85 38 85 105v53c0 67 18 107 65 143c-46 36 -65 74 -65 143v52c0 68 -30 105 -85 105h-65l-20 143h117c130 0 199 -79 199 -223v-51c0 -70 14 -95 68 -120v-98c-56 -26 -68 -54 -68 -120v-52c0 -144 -69 -222 -199 -222h-117z" />
    <glyph glyph-name="bracketleft" unicode="[" horiz-adv-x="445" 
d="M88 -151v886h327l-19 -144h-158v-598h158l19 -144h-327z" />
    <glyph glyph-name="bracketright" unicode="]" horiz-adv-x="445" 
d="M30 -151l19 144h158v598h-158l-19 144h327v-886h-327z" />
    <glyph glyph-name="parenleft.case" horiz-adv-x="363" 
d="M194 -109c-83 119 -135 285 -135 443s54 324 135 443h147c-82 -123 -141 -278 -141 -443c0 -166 59 -320 141 -443h-147z" />
    <glyph glyph-name="parenright.case" horiz-adv-x="363" 
d="M22 -109c82 123 141 278 141 443c0 166 -59 320 -141 443h147c83 -119 135 -285 135 -443s-54 -324 -135 -443h-147z" />
    <glyph glyph-name="braceleft.case" horiz-adv-x="453" 
d="M307 -109c-130 0 -199 79 -199 223v51c0 70 -14 95 -68 120v98c56 26 68 54 68 120v52c0 144 69 222 199 222h117l-20 -142h-65c-55 0 -85 -38 -85 -105v-53c0 -67 -18 -107 -65 -143c46 -36 65 -74 65 -143v-52c0 -68 30 -105 85 -105h65l20 -143h-117z" />
    <glyph glyph-name="braceright.case" horiz-adv-x="453" 
d="M29 -109l20 142h65c55 0 85 38 85 105v53c0 67 18 107 65 143c-46 36 -65 74 -65 143v52c0 68 -30 105 -85 105h-65l-20 143h117c130 0 199 -79 199 -223v-51c0 -70 14 -95 68 -120v-98c-56 -26 -68 -54 -68 -120v-52c0 -144 -69 -222 -199 -222h-117z" />
    <glyph glyph-name="bracketleft.case" horiz-adv-x="445" 
d="M88 -109v886h327l-19 -144h-158v-598h158l19 -144h-327z" />
    <glyph glyph-name="bracketright.case" horiz-adv-x="445" 
d="M30 -109l19 144h158v598h-158l-19 144h327v-886h-327z" />
    <glyph glyph-name="hyphen" unicode="-" horiz-adv-x="413" 
d="M52 240v133h309v-133h-309z" />
    <glyph glyph-name="uni00AD" unicode="&#xad;" horiz-adv-x="413" 
d="M52 240v133h309v-133h-309z" />
    <glyph glyph-name="endash" unicode="&#x2013;" horiz-adv-x="427" 
d="M0 242v129h427v-129h-427z" />
    <glyph glyph-name="emdash" unicode="&#x2014;" horiz-adv-x="854" 
d="M0 242v129h854v-129h-854z" />
    <glyph glyph-name="underscore" unicode="_" horiz-adv-x="439" 
d="M6 -193v122h427v-122h-427z" />
    <glyph glyph-name="hyphen.case" horiz-adv-x="413" 
d="M52 277v133h309v-133h-309z" />
    <glyph glyph-name="endash.case" horiz-adv-x="427" 
d="M0 279v129h427v-129h-427z" />
    <glyph glyph-name="emdash.case" horiz-adv-x="854" 
d="M0 279v129h854v-129h-854z" />
    <glyph glyph-name="quotesinglbase" unicode="&#x201a;" horiz-adv-x="263" 
d="M13 -120c31 89 51 186 56 261h132c-6 -91 -36 -188 -72 -261h-116z" />
    <glyph glyph-name="quotedblbase" unicode="&#x201e;" horiz-adv-x="463" 
d="M13 -120c31 89 51 186 56 261h132c-6 -91 -36 -188 -72 -261h-116zM213 -120c31 89 51 186 56 261h132c-6 -91 -36 -188 -72 -261h-116z" />
    <glyph glyph-name="quotedblleft" unicode="&#x201c;" horiz-adv-x="457" 
d="M44 419c7 87 34 183 71 256h116c-31 -86 -49 -182 -55 -256h-132zM244 419c7 87 34 183 71 256h116c-31 -86 -49 -182 -55 -256h-132z" />
    <glyph glyph-name="quotedblright" unicode="&#x201d;" horiz-adv-x="457" 
d="M26 420c31 86 49 182 55 256h132c-7 -87 -34 -183 -71 -256h-116zM226 420c31 86 49 182 55 256h132c-7 -87 -34 -183 -71 -256h-116z" />
    <glyph glyph-name="quoteleft" unicode="&#x2018;" horiz-adv-x="257" 
d="M44 419c7 87 34 183 71 256h116c-31 -86 -49 -182 -55 -256h-132z" />
    <glyph glyph-name="quoteright" unicode="&#x2019;" horiz-adv-x="257" 
d="M26 420c31 86 49 182 55 256h132c-7 -87 -34 -183 -71 -256h-116z" />
    <glyph glyph-name="guillemotleft" unicode="&#xab;" horiz-adv-x="567" 
d="M159 73l-118 204l118 203h142l-115 -203l115 -204h-142zM390 73l-118 204l118 203h142l-115 -203l115 -204h-142z" />
    <glyph glyph-name="guillemotright" unicode="&#xbb;" horiz-adv-x="567" 
d="M35 73l115 203l-115 204h142l118 -204l-118 -203h-142zM266 73l115 203l-115 204h142l118 -204l-118 -203h-142z" />
    <glyph glyph-name="guilsinglleft" unicode="&#x2039;" horiz-adv-x="336" 
d="M159 73l-118 204l118 203h142l-115 -203l115 -204h-142z" />
    <glyph glyph-name="guilsinglright" unicode="&#x203a;" horiz-adv-x="336" 
d="M35 73l115 203l-115 204h142l118 -204l-118 -203h-142z" />
    <glyph glyph-name="quotedbl" unicode="&#x22;" horiz-adv-x="466" 
d="M69 394l-10 282h142l-10 -282h-122zM275 394l-10 282h142l-10 -282h-122z" />
    <glyph glyph-name="quotesingle" unicode="'" horiz-adv-x="260" 
d="M69 394l-10 282h142l-10 -282h-122z" />
    <glyph glyph-name="guillemotleft.case" horiz-adv-x="567" 
d="M159 137l-118 204l118 203h142l-115 -203l115 -204h-142zM390 137l-118 204l118 203h142l-115 -203l115 -204h-142z" />
    <glyph glyph-name="guillemotright.case" horiz-adv-x="567" 
d="M35 137l115 203l-115 204h142l118 -204l-118 -203h-142zM266 137l115 203l-115 204h142l118 -204l-118 -203h-142z" />
    <glyph glyph-name="guilsinglleft.case" horiz-adv-x="336" 
d="M159 137l-118 204l118 203h142l-115 -203l115 -204h-142z" />
    <glyph glyph-name="guilsinglright.case" horiz-adv-x="336" 
d="M35 137l115 203l-115 204h142l118 -204l-118 -203h-142z" />
    <glyph glyph-name="period.dnom" horiz-adv-x="188" 
d="M94 -8c-38 0 -69 30 -69 71s30 71 69 71s69 -29 69 -71c0 -41 -30 -71 -69 -71z" />
    <glyph glyph-name="comma.dnom" horiz-adv-x="193" 
d="M5 -60c21 68 34 133 38 184h112c-5 -60 -25 -128 -52 -184h-98z" />
    <glyph glyph-name="period.numr" horiz-adv-x="188" 
d="M94 257c-38 0 -69 30 -69 71s30 71 69 71s69 -29 69 -71c0 -41 -30 -71 -69 -71z" />
    <glyph glyph-name="comma.numr" horiz-adv-x="193" 
d="M5 205c21 68 34 133 38 184h112c-5 -60 -25 -128 -52 -184h-98z" />
    <glyph glyph-name="period.subs" horiz-adv-x="188" 
d="M94 -85c-38 0 -69 30 -69 71s30 71 69 71s69 -29 69 -71c0 -41 -30 -71 -69 -71z" />
    <glyph glyph-name="comma.subs" horiz-adv-x="193" 
d="M5 -145c21 68 34 133 38 184h112c-5 -60 -25 -128 -52 -184h-98z" />
    <glyph glyph-name="uni00A0" unicode="&#xa0;" horiz-adv-x="255" 
 />
    <glyph glyph-name="cent" unicode="&#xa2;" 
d="M219 -71v154c-98 29 -160 118 -160 253c0 121 63 218 159 252v125l135 22v-142c45 -11 84 -35 110 -72l-77 -84c-25 29 -53 40 -86 40c-61 0 -101 -57 -101 -141c0 -83 41 -140 100 -140c34 0 64 11 93 39l76 -87c-30 -37 -69 -59 -114 -69v-128z" />
    <glyph glyph-name="currency" unicode="&#xa4;" 
d="M102 66l-91 88l68 74c-13 30 -21 65 -21 103c0 37 8 72 22 102l-69 75l91 87l64 -67c28 15 60 24 94 24c35 0 67 -9 95 -24l64 67l91 -87l-69 -75c14 -30 22 -65 22 -103s-8 -72 -22 -102l69 -74l-91 -88l-65 68c-28 -16 -60 -24 -94 -24s-66 8 -94 23zM259 221
c51 0 83 44 83 109c0 64 -31 110 -82 110c-48 0 -81 -45 -81 -109c0 -65 33 -110 80 -110z" />
    <glyph glyph-name="dollar" unicode="$" 
d="M187 -151v152c-62 13 -122 42 -175 85l73 105c59 -48 115 -67 175 -67c49 0 78 24 78 65c0 48 -37 64 -102 84c-133 41 -197 87 -197 206c0 87 58 157 146 182v120l136 22v-139c56 -12 107 -40 157 -91l-82 -88c-37 37 -81 58 -132 58c-54 0 -81 -25 -81 -62
c0 -39 26 -58 108 -83c133 -41 194 -98 194 -204c0 -103 -59 -177 -164 -196v-127z" />
    <glyph glyph-name="Euro" unicode="&#x20ac;" 
d="M324 -12c-125 0 -214 87 -245 223h-69l23 88h34c-1 9 -1 19 -1 28c0 11 0 21 1 32h-57l23 88h48c35 132 127 221 243 221c90 0 153 -36 193 -88l-85 -89c-27 30 -58 44 -99 44c-50 0 -90 -32 -112 -88h157l-23 -88h-153c-1 -10 -1 -21 -1 -32c0 -10 0 -19 1 -28h142
l-23 -88h-101c22 -57 61 -89 111 -89c38 0 69 13 105 46l85 -89c-52 -59 -119 -91 -197 -91z" />
    <glyph glyph-name="florin" unicode="&#x192;" 
d="M19 0v125h39c51 0 95 17 115 113l8 37h-98v124h123l7 35c30 146 101 223 242 223h46v-125h-38c-57 0 -99 -28 -115 -113l-4 -20h107v-124h-130l-10 -53c-27 -142 -99 -222 -242 -222h-50z" />
    <glyph glyph-name="sterling" unicode="&#xa3;" 
d="M67 0v97l32 165h-66v123h90l8 44c28 145 116 228 244 228h105v-130h-97c-65 0 -109 -25 -125 -115l-5 -27h169v-123h-190l-23 -132h281v-130h-423z" />
    <glyph glyph-name="yen" unicode="&#xa5;" 
d="M190 0v102h-125v94h125v60h-125v94h83l-135 307h162l89 -252l89 252h156l-135 -307h83v-94h-122v-60h122v-94h-122v-102h-145z" />
    <glyph glyph-name="plus" unicode="+" 
d="M197 100v167h-140v128h140v165h129v-165h139v-128h-139v-167h-129z" />
    <glyph glyph-name="minus" unicode="&#x2212;" 
d="M67 264v133h387v-133h-387z" />
    <glyph glyph-name="multiply" unicode="&#xd7;" 
d="M140 117l-93 94l120 120l-120 119l93 94l120 -120l120 120l93 -94l-119 -119l119 -120l-93 -94l-120 120z" />
    <glyph glyph-name="divide" unicode="&#xf7;" 
d="M269 443c-41 0 -74 32 -74 77c0 46 32 78 74 78c44 0 76 -32 76 -78c0 -45 -33 -77 -76 -77zM67 264v133h387v-133h-387zM270 61c-42 0 -75 32 -75 76c0 47 33 79 75 79c43 0 75 -32 75 -79c0 -45 -32 -76 -75 -76z" />
    <glyph glyph-name="equal" unicode="=" 
d="M67 381v133h387v-133h-387zM67 144v133h387v-133h-387z" />
    <glyph glyph-name="notequal" unicode="&#x2260;" 
d="M198 18l-117 50l31 76h-45v133h99l43 104h-142v133h196l50 123l117 -48l-30 -75h54v-133h-109l-42 -104h151v-133h-205z" />
    <glyph glyph-name="greater" unicode="&#x3e;" 
d="M151 80l-72 112l220 139l-220 139l72 113l291 -192v-119z" />
    <glyph glyph-name="less" unicode="&#x3c;" 
d="M370 79l-291 192v119l291 192l72 -112l-220 -139l220 -139z" />
    <glyph glyph-name="greaterequal" unicode="&#x2265;" 
d="M130 186l-52 114l224 107l-224 107l52 116l306 -162v-120zM68 0v131h368v-131h-368z" />
    <glyph glyph-name="lessequal" unicode="&#x2264;" 
d="M391 186l-306 162v120l306 162l52 -114l-224 -107l224 -107zM85 0v131h369v-131h-369z" />
    <glyph glyph-name="plusminus" unicode="&#xb1;" 
d="M464 299h-139v-166h128v-133h-387v133h130v166h-140v128h140v165h129v-165h139v-128z" />
    <glyph glyph-name="approxequal" unicode="&#x2248;" 
d="M351 351c-37 0 -65 18 -89 33s-42 29 -61 29c-27 0 -45 -16 -47 -59h-118c1 110 44 191 134 191c36 0 64 -17 91 -34c22 -14 40 -29 60 -29c27 0 44 20 46 61h117c0 -109 -43 -192 -133 -192zM351 113c-37 0 -65 18 -89 33s-42 29 -61 29c-27 0 -45 -16 -47 -59h-118
c1 110 44 191 134 191c36 0 64 -17 91 -34c22 -14 40 -29 60 -29c27 0 44 20 46 61h117c0 -109 -43 -192 -133 -192z" />
    <glyph glyph-name="asciitilde" unicode="~" 
d="M351 229c-37 0 -65 18 -89 33s-42 29 -61 29c-27 0 -45 -16 -47 -59h-118c1 110 44 191 134 191c36 0 64 -17 91 -34c22 -14 40 -29 60 -29c27 0 44 20 46 61h117c0 -109 -43 -192 -133 -192z" />
    <glyph glyph-name="logicalnot" unicode="&#xac;" 
d="M322 147v168h-256v128h385v-296h-129z" />
    <glyph glyph-name="asciicircum" unicode="^" 
d="M40 339l153 337h137l151 -337h-148l-72 197l-72 -197h-149z" />
    <glyph glyph-name="uni00B5" unicode="&#xb5;" horiz-adv-x="574" 
d="M62 -221v746h146v-298c0 -80 23 -110 72 -110c33 0 63 21 86 59v349h146v-525h-109l-19 68c-31 -49 -80 -79 -121 -79c-22 0 -43 5 -56 14v-203z" />
    <glyph glyph-name="percent" unicode="%" horiz-adv-x="963" 
d="M219 257c-97 0 -161 77 -161 203c0 122 65 201 161 201c97 0 161 -78 161 -201c0 -125 -64 -203 -161 -203zM197 0l419 657h147l-419 -657h-147zM219 359c40 0 53 40 53 100c0 58 -12 101 -51 101c-40 0 -55 -42 -55 -101c0 -58 13 -100 53 -100zM743 -8
c-97 0 -161 77 -161 203c0 122 65 201 161 201c97 0 161 -78 161 -201c0 -125 -64 -203 -161 -203zM743 94c40 0 53 40 53 100c0 58 -12 101 -51 101c-40 0 -55 -42 -55 -101c0 -58 13 -100 53 -100z" />
    <glyph glyph-name="perthousand" unicode="&#x2030;" horiz-adv-x="1331" 
d="M219 257c-97 0 -161 77 -161 203c0 122 65 201 161 201c97 0 161 -78 161 -201c0 -125 -64 -203 -161 -203zM197 0l419 657h147l-419 -657h-147zM219 359c40 0 53 40 53 100c0 58 -12 101 -51 101c-40 0 -55 -42 -55 -101c0 -58 13 -100 53 -100zM743 -8
c-97 0 -161 77 -161 203c0 122 65 201 161 201c97 0 161 -78 161 -201c0 -125 -64 -203 -161 -203zM1111 -8c-97 0 -161 77 -161 203c0 122 65 201 161 201c97 0 161 -78 161 -201c0 -125 -64 -203 -161 -203zM743 94c40 0 53 40 53 100c0 58 -12 101 -51 101
c-40 0 -55 -42 -55 -101c0 -58 13 -100 53 -100zM1111 94c40 0 53 40 53 100c0 58 -12 101 -51 101c-40 0 -55 -42 -55 -101c0 -58 13 -100 53 -100z" />
    <glyph glyph-name="at" unicode="@" horiz-adv-x="893" 
d="M427 -173c-217 0 -373 180 -373 426c0 256 196 448 419 448c215 0 376 -140 376 -347c0 -182 -126 -298 -264 -298h-50l-21 46c-29 -32 -64 -49 -101 -49c-94 0 -153 80 -153 207c0 119 76 207 171 207c31 0 67 -14 97 -41l10 32h96v-302c69 20 116 85 116 197
c0 152 -111 251 -277 251c-173 0 -319 -146 -319 -350c0 -194 108 -331 274 -331c78 0 130 19 187 60l56 -71c-68 -58 -145 -85 -244 -85zM447 166c24 0 44 14 59 35v138c-16 12 -34 18 -52 18c-43 0 -69 -37 -69 -102c0 -53 22 -89 62 -89z" />
    <glyph glyph-name="ampersand" unicode="&#x26;" horiz-adv-x="612" 
d="M261 -12c-129 0 -220 82 -220 207c0 81 38 145 109 193c-20 40 -30 74 -30 115c0 107 80 184 197 184c78 0 135 -33 183 -89l-88 -90c-25 30 -55 46 -87 46c-44 0 -69 -26 -69 -68s31 -78 86 -152l83 -112c13 35 16 67 16 105v36h118v-39c0 -73 -20 -146 -59 -204
l89 -120h-146l-29 40c-43 -33 -95 -52 -153 -52zM280 110c23 0 44 11 60 23l-124 167c-30 -24 -45 -54 -45 -95c0 -57 44 -95 109 -95z" />
    <glyph glyph-name="paragraph" unicode="&#xb6;" horiz-adv-x="576" 
d="M255 -187v137h18c53 0 81 40 81 107v600l146 20v-633c0 -145 -77 -231 -208 -231h-37zM295 193c-158 0 -247 82 -247 216c0 121 70 207 188 229l59 11v-456z" />
    <glyph glyph-name="section" unicode="&#xa7;" horiz-adv-x="480" 
d="M83 -179v123h77c42 0 65 20 65 52c0 28 -17 48 -47 76l-61 58c-42 39 -75 83 -75 152c0 63 38 118 101 146c-13 22 -20 45 -20 71c0 109 75 177 206 177h63v-124h-70c-43 0 -65 -20 -65 -52c0 -30 18 -49 47 -77l60 -57c50 -48 74 -97 74 -151c0 -63 -38 -118 -101 -145
c14 -22 22 -46 22 -73c0 -110 -77 -176 -207 -176h-69zM265 152c34 3 53 26 53 58c0 27 -12 48 -38 72l-67 64c-31 -3 -51 -25 -51 -58c0 -28 16 -50 39 -73z" />
    <glyph glyph-name="copyright" unicode="&#xa9;" horiz-adv-x="709" 
d="M354 -12c-170 0 -311 139 -311 350c0 205 143 350 311 350s312 -142 312 -350c0 -209 -145 -350 -312 -350zM354 48c145 0 250 116 250 290c0 173 -104 290 -250 290s-249 -119 -249 -290c0 -176 101 -290 249 -290zM365 145c-103 0 -171 71 -171 193
c0 110 72 192 171 192c55 0 100 -22 128 -60l-62 -64c-15 18 -31 27 -58 27c-44 0 -71 -38 -71 -95s25 -95 69 -95c25 0 48 9 67 28l59 -67c-31 -38 -80 -59 -132 -59z" />
    <glyph glyph-name="registered" unicode="&#xae;" horiz-adv-x="541" 
d="M270 235c-127 0 -231 99 -231 248c0 146 106 250 231 250c126 0 232 -102 232 -250s-107 -248 -232 -248zM270 284c107 0 178 83 178 199c0 117 -71 201 -178 201s-177 -85 -177 -201s70 -199 177 -199zM179 368v240h100c54 0 91 -33 91 -81c0 -27 -14 -49 -37 -60
c8 -7 15 -17 21 -30l31 -69h-71l-17 36c-11 24 -17 33 -35 33h-18v-69h-65zM244 497h27c19 0 29 8 29 25c0 21 -13 27 -29 27h-27v-52z" />
    <glyph glyph-name="trademark" unicode="&#x2122;" horiz-adv-x="835" 
d="M128 300v277h-98v99h294v-99h-97v-277h-99zM382 300v376h101l95 -199l95 199h100v-376h-99v207l-56 -136h-82l-58 136v-207h-96z" />
    <glyph glyph-name="degree" unicode="&#xb0;" horiz-adv-x="388" 
d="M194 381c-89 0 -148 71 -148 155c0 86 61 156 148 156c89 0 148 -71 148 -155c0 -86 -61 -156 -148 -156zM194 473c33 0 55 27 55 64s-22 63 -55 63s-55 -27 -55 -64s22 -63 55 -63z" />
    <glyph glyph-name="bar" unicode="|" horiz-adv-x="328" 
d="M88 -152v887h152v-887h-152z" />
    <glyph glyph-name="brokenbar" unicode="&#xa6;" horiz-adv-x="328" 
d="M88 400v335h152v-335h-152zM88 -152v336h152v-336h-152z" />
    <glyph glyph-name="dagger" unicode="&#x2020;" horiz-adv-x="370" 
d="M136 278v205h-98v98h98v95l99 19v-114h97v-98h-97v-205h-99z" />
    <glyph glyph-name="daggerdbl" unicode="&#x2021;" horiz-adv-x="384" 
d="M143 278v87h-98v89h98v58h-98v89h98v75l98 19v-94h98v-89h-98v-58h98v-89h-98v-87h-98z" />
    <glyph glyph-name="at.case" horiz-adv-x="893" 
d="M427 -106c-217 0 -373 180 -373 426c0 256 196 448 419 448c215 0 376 -140 376 -347c0 -182 -126 -298 -264 -298h-50l-21 46c-29 -32 -64 -49 -101 -49c-94 0 -153 80 -153 207c0 119 76 207 171 207c31 0 67 -14 97 -41l10 32h96v-302c69 20 116 85 116 197
c0 152 -111 251 -277 251c-173 0 -319 -146 -319 -350c0 -194 108 -331 274 -331c78 0 130 19 187 60l56 -71c-68 -58 -145 -85 -244 -85zM447 233c24 0 44 14 59 35v138c-16 12 -34 18 -52 18c-43 0 -69 -37 -69 -102c0 -53 22 -89 62 -89z" />
    <glyph glyph-name="uni0308" unicode="&#x308;" horiz-adv-x="0" 
d="M-363 598c-43 0 -76 29 -76 72s33 73 76 73c44 0 76 -30 76 -73s-32 -72 -76 -72zM-161 598c-44 0 -76 29 -76 72s32 73 76 73c43 0 76 -30 76 -73s-33 -72 -76 -72z" />
    <glyph glyph-name="uni0307" unicode="&#x307;" horiz-adv-x="0" 
d="M-263 595c-48 0 -83 32 -83 79s36 79 83 79c49 0 85 -32 85 -79s-36 -79 -85 -79z" />
    <glyph glyph-name="gravecomb" unicode="&#x300;" horiz-adv-x="0" 
d="M-264 600l-127 148h145l113 -148h-131z" />
    <glyph glyph-name="acutecomb" unicode="&#x301;" horiz-adv-x="0" 
d="M-391 600l114 148h144l-126 -148h-132z" />
    <glyph glyph-name="uni0302" unicode="&#x302;" horiz-adv-x="0" 
d="M-439 600l116 148h123l115 -148h-119l-58 74l-59 -74h-118z" />
    <glyph glyph-name="uni030C" unicode="&#x30c;" horiz-adv-x="0" 
d="M-323 600l-116 148h119l58 -74l59 74h118l-115 -148h-123z" />
    <glyph glyph-name="uni030A" unicode="&#x30a;" horiz-adv-x="0" 
d="M-261 591c-70 0 -129 56 -129 128c0 73 59 128 129 128c69 0 128 -55 128 -128s-59 -128 -128 -128zM-261 662c29 0 50 24 50 57s-21 55 -50 55s-51 -22 -51 -55s22 -57 51 -57z" />
    <glyph glyph-name="tildecomb" unicode="&#x303;" horiz-adv-x="0" 
d="M-189 598c-28 0 -48 8 -73 26c-22 16 -41 27 -64 27c-33 0 -57 -15 -86 -36v97c28 24 54 39 87 39c30 0 51 -10 74 -26s41 -27 64 -27c38 0 62 17 87 36v-98c-25 -21 -51 -38 -89 -38z" />
    <glyph glyph-name="uni0327" unicode="&#x327;" horiz-adv-x="0" 
d="M-353 -202v93h29c30 0 49 16 49 44c0 27 -9 44 -36 77l72 25c41 -37 67 -70 67 -118c0 -78 -60 -121 -148 -121h-33z" />
    <glyph glyph-name="dieresis" unicode="&#xa8;" horiz-adv-x="588" 
d="M161 598c-43 0 -76 29 -76 72s33 73 76 73c44 0 76 -30 76 -73s-32 -72 -76 -72zM363 598c-44 0 -76 29 -76 72s32 73 76 73c43 0 76 -30 76 -73s-33 -72 -76 -72z" />
    <glyph glyph-name="dotaccent" unicode="&#x2d9;" horiz-adv-x="588" 
d="M262 595c-48 0 -83 32 -83 79s36 79 83 79c49 0 85 -32 85 -79s-36 -79 -85 -79z" />
    <glyph glyph-name="grave" unicode="`" horiz-adv-x="588" 
d="M260 600l-127 148h145l113 -148h-131z" />
    <glyph glyph-name="acute" unicode="&#xb4;" horiz-adv-x="588" 
d="M133 600l114 148h144l-126 -148h-132z" />
    <glyph glyph-name="circumflex" unicode="&#x2c6;" horiz-adv-x="588" 
d="M85 600l116 148h123l115 -148h-119l-58 74l-59 -74h-118z" />
    <glyph glyph-name="caron" unicode="&#x2c7;" horiz-adv-x="588" 
d="M201 600l-116 148h119l58 -74l59 74h118l-115 -148h-123z" />
    <glyph glyph-name="ring" unicode="&#x2da;" horiz-adv-x="588" 
d="M263 591c-70 0 -129 56 -129 128c0 73 59 128 129 128c69 0 128 -55 128 -128s-59 -128 -128 -128zM263 662c29 0 50 24 50 57s-21 55 -50 55s-51 -22 -51 -55s22 -57 51 -57z" />
    <glyph glyph-name="tilde" unicode="&#x2dc;" horiz-adv-x="588" 
d="M336 598c-28 0 -48 8 -73 26c-22 16 -41 27 -64 27c-33 0 -57 -15 -86 -36v97c28 24 54 39 87 39c30 0 51 -10 74 -26s41 -27 64 -27c38 0 62 17 87 36v-98c-25 -21 -51 -38 -89 -38z" />
    <glyph glyph-name="cedilla" unicode="&#xb8;" horiz-adv-x="588" 
d="M172 -202v93h29c30 0 49 16 49 44c0 27 -9 44 -36 77l72 25c41 -37 67 -70 67 -118c0 -78 -60 -121 -148 -121h-33z" />
    <glyph glyph-name="uni0308.case" horiz-adv-x="0" 
d="M-366 734c-44 0 -79 30 -79 75c0 44 35 76 79 76c45 0 79 -32 79 -76c0 -45 -34 -75 -79 -75zM-157 734c-44 0 -79 30 -79 75c0 44 35 76 79 76c45 0 79 -32 79 -76c0 -45 -34 -75 -79 -75z" />
    <glyph glyph-name="uni0307.case" horiz-adv-x="0" 
d="M-263 735c-48 0 -86 32 -86 80c0 47 38 81 86 81c50 0 87 -34 87 -81c0 -48 -37 -80 -87 -80z" />
    <glyph glyph-name="gravecomb.case" horiz-adv-x="0" 
d="M-263 742l-136 146h151l123 -146h-138z" />
    <glyph glyph-name="acutecomb.case" horiz-adv-x="0" 
d="M-399 742l122 146h152l-137 -146h-137z" />
    <glyph glyph-name="uni0302.case" horiz-adv-x="0" 
d="M-448 742l122 146h128l122 -146h-127l-58 71l-61 -71h-126z" />
    <glyph glyph-name="uni030C.case" horiz-adv-x="0" 
d="M-327 742l-121 146h127l59 -73l60 73h126l-122 -146h-129z" />
    <glyph glyph-name="uni030A.case" horiz-adv-x="0" 
d="M-262 735c-75 0 -135 60 -135 133c0 76 60 133 135 133c73 0 134 -58 134 -133c0 -74 -61 -133 -134 -133zM-262 810c29 0 51 25 51 58c0 34 -22 57 -51 57c-30 0 -52 -23 -52 -57c0 -33 21 -58 52 -58z" />
    <glyph glyph-name="tildecomb.case" horiz-adv-x="0" 
d="M-185 738c-32 0 -53 11 -77 26c-26 16 -45 26 -69 26c-34 0 -60 -15 -91 -36v102c29 23 57 36 93 36c33 0 55 -10 80 -25s44 -26 67 -26c41 0 67 17 94 37v-102c-26 -20 -54 -38 -97 -38z" />
    <glyph glyph-name="uni0327.case" horiz-adv-x="0" 
d="M-367 -206v99h32c35 0 59 15 59 43s-14 46 -43 76l81 27c46 -40 73 -73 73 -122c0 -77 -62 -123 -166 -123h-36z" />
    <glyph glyph-name="gravecomb.narrow.case" horiz-adv-x="0" 
d="M-270 742l-115 146h152l100 -146h-137z" />
    <glyph glyph-name="acutecomb.narrow.case" horiz-adv-x="0" 
d="M-342 742l100 146h152l-115 -146h-137z" />
    <glyph glyph-name="gravecomb.narrow" horiz-adv-x="0" 
d="M-279 600l-108 148h143l95 -148h-130z" />
    <glyph glyph-name="acutecomb.narrow" horiz-adv-x="0" 
d="M-387 600l94 148h144l-109 -148h-129z" />
    <glyph glyph-name="periodsuperior" horiz-adv-x="192" 
d="M96 324c-38 0 -69 30 -69 71s30 71 69 71s69 -29 69 -71c0 -41 -30 -71 -69 -71z" />
    <glyph glyph-name="commasuperior" horiz-adv-x="192" 
d="M14 272c21 68 34 133 38 184h112c-5 -60 -25 -128 -52 -184h-98z" />
    </font>
</defs>
</svg>
