<?xml version="1.0" standalone="no"?>
<!DOCTYPE svg PUBLIC "-//W3C//DTD SVG 1.1//EN" "http://www.w3.org/Graphics/SVG/1.1/DTD/svg11.dtd" >
<svg xmlns="http://www.w3.org/2000/svg" xmlns:xlink="http://www.w3.org/1999/xlink" version="1.1">
<metadata>
Created by FontForge 20190531 at Fri Aug  9 12:40:25 2019
 By Henrique Beier
Copyright \(c\) 2019 Banco Bradesco S.A. All rights reserved.
</metadata>
<defs>
<font id="BradescoSans-Bold" horiz-adv-x="586" >
  <font-face 
    font-family="Bradesco Sans"
    font-weight="700"
    font-stretch="normal"
    units-per-em="1000"
    panose-1="0 0 8 0 0 0 0 0 0 0"
    ascent="800"
    descent="-200"
    x-height="525"
    cap-height="676"
    bbox="-499 -225 1408 1001"
    underline-thickness="50"
    underline-position="-100"
    stemh="127"
    stemv="151"
    unicode-range="U+0020-FB02"
  />
<missing-glyph horiz-adv-x="471" 
d="M386 730v-942h-298v942h298zM314 667h-156v-31h61v-35h-62v-31h157v31h-62v35h62v31zM252 545h-95v-98h157v32h-62v66zM219 513v-34h-31v34h31zM314 422h-157v-31h62v-35h-62v-31h95v66h62v31zM314 365h-31v-62h-126v-32h157v94zM314 251h-95v-53h33v21h31v-44h-95v76
h-31v-107h157v107zM314 88h-157v-107h157v107zM283 56v-44h-95v44h95zM314 -41h-157v-31h66l-66 -44v-31h157v31h-96l66 44h30v31z" />
    <glyph glyph-name="fi" unicode="fi" horiz-adv-x="738" 
d="M596 594c-50 0 -88 33 -88 81c0 47 38 80 88 80c51 0 89 -33 89 -80c0 -48 -38 -81 -89 -81zM66 0v517c0 142 90 231 226 231c66 0 123 -24 164 -60l-63 -90c-22 18 -47 29 -82 29c-59 0 -94 -35 -94 -96v-6h201v-125h-201v-400h-151zM521 0v525h150v-525h-150z" />
    <glyph glyph-name="fl" unicode="fl" horiz-adv-x="796" 
d="M66 0v517c0 142 90 231 226 231c66 0 123 -24 164 -60l-63 -90c-22 18 -47 29 -82 29c-59 0 -94 -35 -94 -96v-6h201v-125h-201v-400h-151zM723 -8c-130 0 -199 76 -199 216v515l151 22v-537c0 -57 29 -91 81 -91h15v-125h-48z" />
    <glyph glyph-name=".notdef" horiz-adv-x="471" 
d="M386 730v-942h-298v942h298zM314 667h-156v-31h61v-35h-62v-31h157v31h-62v35h62v31zM252 545h-95v-98h157v32h-62v66zM219 513v-34h-31v34h31zM314 422h-157v-31h62v-35h-62v-31h95v66h62v31zM314 365h-31v-62h-126v-32h157v94zM314 251h-95v-53h33v21h31v-44h-95v76
h-31v-107h157v107zM314 88h-157v-107h157v107zM283 56v-44h-95v44h95zM314 -41h-157v-31h66l-66 -44v-31h157v31h-96l66 44h30v31z" />
    <glyph glyph-name="space" unicode=" " horiz-adv-x="255" 
 />
    <glyph glyph-name="A" unicode="A" horiz-adv-x="703" 
d="M15 0l256 676h163l254 -676h-163l-49 145h-255l-49 -145h-157zM264 275h169l-84 247z" />
    <glyph glyph-name="Aacute" unicode="&#xc1;" horiz-adv-x="703" 
d="M246 742l140 147h161l-156 -147h-145zM15 0l256 676h163l254 -676h-163l-49 145h-255l-49 -145h-157zM264 275h169l-84 247z" />
    <glyph glyph-name="Acircumflex" unicode="&#xc2;" horiz-adv-x="703" 
d="M146 742l137 147h137l136 -147h-134l-70 71l-72 -71h-134zM15 0l256 676h163l254 -676h-163l-49 145h-255l-49 -145h-157zM264 275h169l-84 247z" />
    <glyph glyph-name="Adieresis" unicode="&#xc4;" horiz-adv-x="703" 
d="M239 734c-45 0 -81 30 -81 75c0 44 35 75 81 75c48 0 83 -31 83 -75c0 -45 -35 -75 -83 -75zM465 734c-47 0 -83 30 -83 75c0 44 36 75 83 75c46 0 81 -31 81 -75c0 -45 -35 -75 -81 -75zM15 0l256 676h163l254 -676h-163l-49 145h-255l-49 -145h-157zM264 275h169
l-84 247z" />
    <glyph glyph-name="Agrave" unicode="&#xc0;" horiz-adv-x="703" 
d="M314 742l-156 147h161l140 -147h-145zM15 0l256 676h163l254 -676h-163l-49 145h-255l-49 -145h-157zM264 275h169l-84 247z" />
    <glyph glyph-name="Aring" unicode="&#xc5;" horiz-adv-x="703" 
d="M446 644l242 -644h-163l-49 145h-255l-49 -145h-157l242 639c-29 24 -47 60 -47 99c0 76 63 133 139 133c75 0 138 -57 138 -133c0 -37 -16 -70 -41 -94zM349 793c-32 0 -56 -23 -56 -55c0 -31 24 -56 56 -56c31 0 55 25 55 56c0 32 -24 55 -55 55zM264 275h169l-84 247z
" />
    <glyph glyph-name="Atilde" unicode="&#xc3;" horiz-adv-x="703" 
d="M439 737c-36 0 -60 11 -87 26c-26 15 -47 27 -76 27c-39 0 -69 -15 -103 -36v103c33 23 64 37 104 37c37 0 62 -11 89 -26c28 -14 48 -26 76 -26c46 0 76 18 105 37v-104c-29 -20 -61 -38 -108 -38zM15 0l256 676h163l254 -676h-163l-49 145h-255l-49 -145h-157zM264 275
h169l-84 247z" />
    <glyph glyph-name="AE" unicode="&#xc6;" horiz-adv-x="1049" 
d="M1 0l471 676h520v-138h-319v-127h279v-136h-279v-135h328v-140h-479v143h-250l-98 -143h-173zM359 273h163v238z" />
    <glyph glyph-name="B" unicode="B" horiz-adv-x="640" 
d="M77 0v676h256c144 0 229 -71 229 -180c0 -57 -30 -104 -79 -134c73 -31 119 -92 119 -168c0 -118 -87 -194 -232 -194h-293zM220 405h95c68 0 102 30 102 76c0 47 -34 78 -104 78h-93v-154zM220 117h126c71 0 110 30 110 85c0 46 -38 79 -106 79h-130v-164z" />
    <glyph glyph-name="C" unicode="C" horiz-adv-x="660" 
d="M380 -12c-197 0 -329 139 -329 349c0 201 142 351 332 351c99 0 188 -47 239 -110l-96 -96c-34 39 -78 64 -137 64c-107 0 -178 -86 -178 -209c0 -120 73 -207 177 -207c54 0 104 23 147 68l94 -99c-57 -66 -142 -111 -249 -111z" />
    <glyph glyph-name="Ccedilla" unicode="&#xc7;" horiz-adv-x="660" 
d="M629 99c-46 -53 -109 -92 -188 -106c19 -23 30 -48 30 -78c0 -81 -70 -127 -182 -127h-39v102h35c41 0 68 16 68 44c0 22 -9 38 -27 58c-167 23 -275 155 -275 345c0 201 142 351 332 351c99 0 188 -47 239 -110l-96 -96c-34 39 -78 64 -137 64
c-107 0 -178 -86 -178 -209c0 -120 73 -207 177 -207c54 0 104 23 147 68z" />
    <glyph glyph-name="D" unicode="D" horiz-adv-x="727" 
d="M77 0v676h258c203 0 342 -137 342 -337c0 -201 -141 -339 -342 -339h-258zM232 140h97c119 0 189 77 189 199c0 118 -68 198 -188 198h-98v-397z" />
    <glyph glyph-name="Eth" unicode="&#xd0;" horiz-adv-x="763" 
d="M113 0v272h-80v133h80v271h258c203 0 342 -137 342 -337c0 -201 -141 -339 -342 -339h-258zM268 140h97c119 0 189 77 189 199c0 118 -68 198 -188 198h-98v-132h153v-133h-153v-132z" />
    <glyph glyph-name="E" unicode="E" horiz-adv-x="604" 
d="M77 0v676h470v-138h-319v-127h279v-136h-279v-135h328v-140h-479z" />
    <glyph glyph-name="Eacute" unicode="&#xc9;" horiz-adv-x="604" 
d="M211 742l140 147h161l-156 -147h-145zM77 0v676h470v-138h-319v-127h279v-136h-279v-135h328v-140h-479z" />
    <glyph glyph-name="Ecircumflex" unicode="&#xca;" horiz-adv-x="604" 
d="M112 742l137 147h137l136 -147h-134l-70 71l-72 -71h-134zM77 0v676h470v-138h-319v-127h279v-136h-279v-135h328v-140h-479z" />
    <glyph glyph-name="Edieresis" unicode="&#xcb;" horiz-adv-x="604" 
d="M205 734c-45 0 -81 30 -81 75c0 44 35 75 81 75c48 0 83 -31 83 -75c0 -45 -35 -75 -83 -75zM431 734c-47 0 -83 30 -83 75c0 44 36 75 83 75c46 0 81 -31 81 -75c0 -45 -35 -75 -81 -75zM77 0v676h470v-138h-319v-127h279v-136h-279v-135h328v-140h-479z" />
    <glyph glyph-name="Egrave" unicode="&#xc8;" horiz-adv-x="604" 
d="M279 742l-156 147h161l140 -147h-145zM77 0v676h470v-138h-319v-127h279v-136h-279v-135h328v-140h-479z" />
    <glyph glyph-name="F" unicode="F" horiz-adv-x="585" 
d="M77 0v676h466v-142h-314v-146h274v-142h-274v-246h-152z" />
    <glyph glyph-name="G" unicode="G" horiz-adv-x="701" 
d="M379 -12c-196 0 -328 136 -328 349c0 202 143 351 337 351c101 0 192 -47 242 -110l-95 -96c-33 38 -77 64 -141 64c-113 0 -186 -85 -186 -209c0 -126 71 -208 176 -208c51 0 92 12 124 31v91h-130v121h264v-284c-64 -61 -167 -100 -263 -100z" />
    <glyph glyph-name="H" unicode="H" horiz-adv-x="733" 
d="M77 0v676h156v-256h267v256h156v-676h-156v271h-267v-271h-156z" />
    <glyph glyph-name="I" unicode="I" horiz-adv-x="310" 
d="M77 0v676h156v-676h-156z" />
    <glyph glyph-name="Iacute" unicode="&#xcd;" horiz-adv-x="310" 
d="M77 742l112 147h151l-125 -147h-138zM77 0v676h156v-676h-156z" />
    <glyph glyph-name="Icircumflex" unicode="&#xce;" horiz-adv-x="310" 
d="M-51 742l137 147h137l136 -147h-134l-70 71l-72 -71h-134zM77 0v676h156v-676h-156z" />
    <glyph glyph-name="Idieresis" unicode="&#xcf;" horiz-adv-x="310" 
d="M42 734c-45 0 -81 30 -81 75c0 44 35 75 81 75c48 0 83 -31 83 -75c0 -45 -35 -75 -83 -75zM268 734c-47 0 -83 30 -83 75c0 44 36 75 83 75c46 0 81 -31 81 -75c0 -45 -35 -75 -81 -75zM77 0v676h156v-676h-156z" />
    <glyph glyph-name="Igrave" unicode="&#xcc;" horiz-adv-x="310" 
d="M96 742l-125 147h151l112 -147h-138zM77 0v676h156v-676h-156z" />
    <glyph glyph-name="J" unicode="J" horiz-adv-x="463" 
d="M39 0v148h53c91 0 144 55 144 153v375h157v-384c0 -192 -104 -292 -282 -292h-72z" />
    <glyph glyph-name="K" unicode="K" horiz-adv-x="715" 
d="M77 0v676h153v-258h52c70 0 94 17 150 121l75 137h172l-115 -202c-27 -46 -55 -88 -87 -120l231 -354h-182l-178 276c-12 -3 -26 -4 -39 -4h-79v-272h-153z" />
    <glyph glyph-name="L" unicode="L" horiz-adv-x="582" 
d="M77 0v676h156v-527h310v-149h-466z" />
    <glyph glyph-name="M" unicode="M" horiz-adv-x="881" 
d="M77 0v676h141l220 -407l227 407h139v-676h-152v403l-153 -281h-124l-150 279v-401h-148z" />
    <glyph glyph-name="N" unicode="N" horiz-adv-x="734" 
d="M77 0v676h129l298 -410v410h153v-676h-129l-298 411v-411h-153z" />
    <glyph glyph-name="Ntilde" unicode="&#xd1;" horiz-adv-x="734" 
d="M454 737c-36 0 -60 11 -87 26c-26 15 -47 27 -76 27c-39 0 -69 -15 -103 -36v103c33 23 64 37 104 37c37 0 62 -11 89 -26c28 -14 48 -26 76 -26c46 0 76 18 105 37v-104c-29 -20 -61 -38 -108 -38zM77 0v676h129l298 -410v410h153v-676h-129l-298 411v-411h-153z" />
    <glyph glyph-name="O" unicode="O" horiz-adv-x="767" 
d="M383 -12c-191 0 -332 141 -332 350c0 204 143 350 332 350c191 0 334 -144 334 -350s-144 -350 -334 -350zM383 130c106 0 175 83 175 208c0 123 -67 208 -174 208c-108 0 -174 -86 -174 -208s66 -208 173 -208z" />
    <glyph glyph-name="Oacute" unicode="&#xd3;" horiz-adv-x="767" 
d="M278 742l140 147h161l-156 -147h-145zM383 -12c-191 0 -332 141 -332 350c0 204 143 350 332 350c191 0 334 -144 334 -350s-144 -350 -334 -350zM383 130c106 0 175 83 175 208c0 123 -67 208 -174 208c-108 0 -174 -86 -174 -208s66 -208 173 -208z" />
    <glyph glyph-name="Ocircumflex" unicode="&#xd4;" horiz-adv-x="767" 
d="M178 742l137 147h137l136 -147h-134l-70 71l-72 -71h-134zM383 -12c-191 0 -332 141 -332 350c0 204 143 350 332 350c191 0 334 -144 334 -350s-144 -350 -334 -350zM383 130c106 0 175 83 175 208c0 123 -67 208 -174 208c-108 0 -174 -86 -174 -208s66 -208 173 -208z
" />
    <glyph glyph-name="Odieresis" unicode="&#xd6;" horiz-adv-x="767" 
d="M271 734c-45 0 -81 30 -81 75c0 44 35 75 81 75c48 0 83 -31 83 -75c0 -45 -35 -75 -83 -75zM497 734c-47 0 -83 30 -83 75c0 44 36 75 83 75c46 0 81 -31 81 -75c0 -45 -35 -75 -81 -75zM383 -12c-191 0 -332 141 -332 350c0 204 143 350 332 350
c191 0 334 -144 334 -350s-144 -350 -334 -350zM383 130c106 0 175 83 175 208c0 123 -67 208 -174 208c-108 0 -174 -86 -174 -208s66 -208 173 -208z" />
    <glyph glyph-name="Ograve" unicode="&#xd2;" horiz-adv-x="767" 
d="M345 742l-156 147h161l140 -147h-145zM383 -12c-191 0 -332 141 -332 350c0 204 143 350 332 350c191 0 334 -144 334 -350s-144 -350 -334 -350zM383 130c106 0 175 83 175 208c0 123 -67 208 -174 208c-108 0 -174 -86 -174 -208s66 -208 173 -208z" />
    <glyph glyph-name="Oslash" unicode="&#xd8;" horiz-adv-x="767" 
d="M44 -56l97 145c-57 60 -90 147 -90 249c0 204 143 350 332 350c52 0 100 -12 142 -32l51 75h150l-99 -147c57 -61 90 -146 90 -246c0 -206 -144 -350 -334 -350c-51 0 -97 10 -138 30l-50 -74h-151zM234 228l209 305c-17 8 -37 13 -59 13c-108 0 -174 -86 -174 -208
c0 -42 9 -79 24 -110zM383 130c106 0 175 83 175 208c0 41 -8 77 -23 107l-207 -302c16 -9 35 -13 55 -13z" />
    <glyph glyph-name="Otilde" unicode="&#xd5;" horiz-adv-x="767" 
d="M471 737c-36 0 -60 11 -87 26c-26 15 -47 27 -76 27c-39 0 -69 -15 -103 -36v103c33 23 64 37 104 37c37 0 62 -11 89 -26c28 -14 48 -26 76 -26c46 0 76 18 105 37v-104c-29 -20 -61 -38 -108 -38zM383 -12c-191 0 -332 141 -332 350c0 204 143 350 332 350
c191 0 334 -144 334 -350s-144 -350 -334 -350zM383 130c106 0 175 83 175 208c0 123 -67 208 -174 208c-108 0 -174 -86 -174 -208s66 -208 173 -208z" />
    <glyph glyph-name="OE" unicode="&#x152;" horiz-adv-x="1084" 
d="M376 -12c-184 0 -325 141 -325 350c0 204 143 350 325 350c70 0 134 -29 182 -77v65h470v-138h-319v-127h279v-136h-279v-135h328v-140h-479v66c-49 -49 -113 -78 -182 -78zM383 130c106 0 175 84 175 209c0 122 -67 207 -174 207c-108 0 -174 -87 -174 -207
c0 -122 65 -209 173 -209z" />
    <glyph glyph-name="P" unicode="P" horiz-adv-x="645" 
d="M77 0v676h275c154 0 253 -89 253 -228s-100 -229 -253 -229h-118v-219h-157zM234 349h93c79 0 120 35 120 99c0 62 -40 100 -120 100h-93v-199z" />
    <glyph glyph-name="Thorn" unicode="&#xde;" horiz-adv-x="642" 
d="M77 0v676h157v-81h118c154 0 253 -91 253 -230c0 -138 -100 -229 -253 -229h-118v-136h-157zM234 267h93c79 0 120 36 120 98c0 63 -41 102 -120 102h-93v-200z" />
    <glyph glyph-name="Q" unicode="Q" horiz-adv-x="768" 
d="M591 -87l-75 101c-40 -17 -85 -26 -133 -26c-191 0 -332 141 -332 351c0 203 143 349 332 349c191 0 335 -144 335 -349c0 -100 -34 -185 -90 -247l75 -102zM385 125c16 0 31 3 45 7l-74 99l113 76l67 -90c17 32 26 73 26 118c0 124 -67 212 -176 212
c-112 0 -178 -88 -178 -212c0 -120 71 -210 177 -210z" />
    <glyph glyph-name="R" unicode="R" horiz-adv-x="658" 
d="M77 0v676h267c155 0 253 -86 253 -213c0 -78 -44 -139 -113 -171c30 -23 55 -57 78 -104l88 -188h-168l-54 116c-37 80 -63 117 -143 117h-57v-233h-151zM228 360h94c79 0 120 34 120 96c0 63 -40 97 -120 97h-94v-193z" />
    <glyph glyph-name="S" unicode="S" horiz-adv-x="630" 
d="M318 -12c-126 0 -219 39 -297 108l81 109c56 -47 132 -79 218 -79c70 0 106 23 106 65c0 51 -45 65 -136 85c-163 33 -238 80 -238 213c0 114 101 199 259 199c106 0 191 -34 262 -109l-89 -95c-49 47 -114 68 -174 68c-68 0 -103 -22 -103 -61c0 -47 36 -60 142 -83
c162 -34 234 -97 234 -212c0 -125 -95 -208 -265 -208z" />
    <glyph glyph-name="Scaron" unicode="&#x160;" horiz-adv-x="630" 
d="M246 742l-137 147h135l70 -72l72 72h133l-137 -147h-136zM318 -12c-126 0 -219 39 -297 108l81 109c56 -47 132 -79 218 -79c70 0 106 23 106 65c0 51 -45 65 -136 85c-163 33 -238 80 -238 213c0 114 101 199 259 199c106 0 191 -34 262 -109l-89 -95
c-49 47 -114 68 -174 68c-68 0 -103 -22 -103 -61c0 -47 36 -60 142 -83c162 -34 234 -97 234 -212c0 -125 -95 -208 -265 -208z" />
    <glyph glyph-name="uni1E9E" unicode="&#x1e9e;" horiz-adv-x="709" 
d="M453 -12c-80 0 -144 25 -194 69l64 98c36 -30 69 -41 117 -41c60 0 94 30 94 82c0 53 -45 85 -134 85h-64v88l130 166c-22 15 -50 25 -91 25c-95 0 -161 -75 -161 -197v-363h-147v369c0 192 123 319 306 319c111 0 200 -43 269 -107l-156 -199l19 -3
c103 -13 171 -90 171 -184c0 -123 -88 -207 -223 -207z" />
    <glyph glyph-name="T" unicode="T" horiz-adv-x="630" 
d="M238 0v528h-201v148h556v-148h-201v-528h-154z" />
    <glyph glyph-name="U" unicode="U" horiz-adv-x="736" 
d="M367 -12c-181 0 -297 114 -297 332v356h156v-357c0 -126 51 -189 141 -189c91 0 143 63 143 189v357h156v-356c0 -207 -118 -332 -299 -332z" />
    <glyph glyph-name="Uacute" unicode="&#xda;" horiz-adv-x="736" 
d="M262 742l140 147h161l-156 -147h-145zM367 -12c-181 0 -297 114 -297 332v356h156v-357c0 -126 51 -189 141 -189c91 0 143 63 143 189v357h156v-356c0 -207 -118 -332 -299 -332z" />
    <glyph glyph-name="Ucircumflex" unicode="&#xdb;" horiz-adv-x="736" 
d="M162 742l137 147h137l136 -147h-134l-70 71l-72 -71h-134zM367 -12c-181 0 -297 114 -297 332v356h156v-357c0 -126 51 -189 141 -189c91 0 143 63 143 189v357h156v-356c0 -207 -118 -332 -299 -332z" />
    <glyph glyph-name="Udieresis" unicode="&#xdc;" horiz-adv-x="736" 
d="M255 734c-45 0 -81 30 -81 75c0 44 35 75 81 75c48 0 83 -31 83 -75c0 -45 -35 -75 -83 -75zM481 734c-47 0 -83 30 -83 75c0 44 36 75 83 75c46 0 81 -31 81 -75c0 -45 -35 -75 -81 -75zM367 -12c-181 0 -297 114 -297 332v356h156v-357c0 -126 51 -189 141 -189
c91 0 143 63 143 189v357h156v-356c0 -207 -118 -332 -299 -332z" />
    <glyph glyph-name="Ugrave" unicode="&#xd9;" horiz-adv-x="736" 
d="M329 742l-156 147h161l140 -147h-145zM367 -12c-181 0 -297 114 -297 332v356h156v-357c0 -126 51 -189 141 -189c91 0 143 63 143 189v357h156v-356c0 -207 -118 -332 -299 -332z" />
    <glyph glyph-name="V" unicode="V" horiz-adv-x="719" 
d="M273 0l-257 676h177l169 -491l167 491h174l-258 -676h-172z" />
    <glyph glyph-name="W" unicode="W" horiz-adv-x="1015" 
d="M212 0l-187 676h171l105 -478l128 432h165l122 -432l109 478h165l-191 -676h-166l-129 429l-128 -429h-164z" />
    <glyph glyph-name="Wacute" unicode="&#x1e82;" horiz-adv-x="1015" 
d="M401 742l140 147h161l-156 -147h-145zM212 0l-187 676h171l105 -478l128 432h165l122 -432l109 478h165l-191 -676h-166l-129 429l-128 -429h-164z" />
    <glyph glyph-name="Wcircumflex" unicode="&#x174;" horiz-adv-x="1015" 
d="M302 742l137 147h137l136 -147h-134l-70 71l-72 -71h-134zM212 0l-187 676h171l105 -478l128 432h165l122 -432l109 478h165l-191 -676h-166l-129 429l-128 -429h-164z" />
    <glyph glyph-name="Wdieresis" unicode="&#x1e84;" horiz-adv-x="1015" 
d="M395 734c-45 0 -81 30 -81 75c0 44 35 75 81 75c48 0 83 -31 83 -75c0 -45 -35 -75 -83 -75zM621 734c-47 0 -83 30 -83 75c0 44 36 75 83 75c46 0 81 -31 81 -75c0 -45 -35 -75 -81 -75zM212 0l-187 676h171l105 -478l128 432h165l122 -432l109 478h165l-191 -676h-166
l-129 429l-128 -429h-164z" />
    <glyph glyph-name="Wgrave" unicode="&#x1e80;" horiz-adv-x="1015" 
d="M469 742l-156 147h161l140 -147h-145zM212 0l-187 676h171l105 -478l128 432h165l122 -432l109 478h165l-191 -676h-166l-129 429l-128 -429h-164z" />
    <glyph glyph-name="X" unicode="X" horiz-adv-x="716" 
d="M16 0l247 352l-231 324h188l144 -210l136 210h181l-227 -324l246 -352h-186l-161 240l-156 -240h-181z" />
    <glyph glyph-name="Y" unicode="Y" horiz-adv-x="672" 
d="M259 0v248l-244 428h178l146 -278l146 278h172l-242 -425v-251h-156z" />
    <glyph glyph-name="Yacute" unicode="&#xdd;" horiz-adv-x="672" 
d="M230 742l140 147h161l-156 -147h-145zM259 0v248l-244 428h178l146 -278l146 278h172l-242 -425v-251h-156z" />
    <glyph glyph-name="Ycircumflex" unicode="&#x176;" horiz-adv-x="672" 
d="M130 742l137 147h137l136 -147h-134l-70 71l-72 -71h-134zM259 0v248l-244 428h178l146 -278l146 278h172l-242 -425v-251h-156z" />
    <glyph glyph-name="Ydieresis" unicode="&#x178;" horiz-adv-x="672" 
d="M223 734c-45 0 -81 30 -81 75c0 44 35 75 81 75c48 0 83 -31 83 -75c0 -45 -35 -75 -83 -75zM449 734c-47 0 -83 30 -83 75c0 44 36 75 83 75c46 0 81 -31 81 -75c0 -45 -35 -75 -81 -75zM259 0v248l-244 428h178l146 -278l146 278h172l-242 -425v-251h-156z" />
    <glyph glyph-name="Ygrave" unicode="&#x1ef2;" horiz-adv-x="672" 
d="M298 742l-156 147h161l140 -147h-145zM259 0v248l-244 428h178l146 -278l146 278h172l-242 -425v-251h-156z" />
    <glyph glyph-name="Z" unicode="Z" horiz-adv-x="631" 
d="M45 0v122l336 412h-325v142h518v-121l-335 -412h345v-143h-539z" />
    <glyph glyph-name="Zcaron" unicode="&#x17d;" horiz-adv-x="631" 
d="M248 742l-137 147h135l70 -72l72 72h133l-137 -147h-136zM45 0v122l336 412h-325v142h518v-121l-335 -412h345v-143h-539z" />
    <glyph glyph-name="a" unicode="a" horiz-adv-x="565" 
d="M216 -12c-108 0 -176 57 -176 157c0 98 80 161 224 161h106c-1 75 -35 111 -102 111c-50 0 -99 -18 -138 -51l-73 86c59 54 138 85 216 85c155 0 234 -86 234 -242v-295h-104l-19 60c-46 -43 -105 -72 -168 -72zM240 98c51 0 94 22 130 61v51h-111c-55 0 -88 -22 -88 -58
c0 -31 29 -54 69 -54z" />
    <glyph glyph-name="aacute" unicode="&#xe1;" horiz-adv-x="565" 
d="M181 601l131 148h154l-146 -148h-139zM216 -12c-108 0 -176 57 -176 157c0 98 80 161 224 161h106c-1 75 -35 111 -102 111c-50 0 -99 -18 -138 -51l-73 86c59 54 138 85 216 85c155 0 234 -86 234 -242v-295h-104l-19 60c-46 -43 -105 -72 -168 -72zM240 98
c51 0 94 22 130 61v51h-111c-55 0 -88 -22 -88 -58c0 -31 29 -54 69 -54z" />
    <glyph glyph-name="acircumflex" unicode="&#xe2;" horiz-adv-x="565" 
d="M86 601l131 148h131l130 -148h-126l-70 73l-70 -73h-126zM216 -12c-108 0 -176 57 -176 157c0 98 80 161 224 161h106c-1 75 -35 111 -102 111c-50 0 -99 -18 -138 -51l-73 86c59 54 138 85 216 85c155 0 234 -86 234 -242v-295h-104l-19 60c-46 -43 -105 -72 -168 -72z
M240 98c51 0 94 22 130 61v51h-111c-55 0 -88 -22 -88 -58c0 -31 29 -54 69 -54z" />
    <glyph glyph-name="adieresis" unicode="&#xe4;" horiz-adv-x="565" 
d="M172 597c-46 0 -81 30 -81 74s35 74 81 74s81 -30 81 -74s-35 -74 -81 -74zM392 597c-46 0 -80 30 -80 74s34 74 80 74s81 -30 81 -74s-35 -74 -81 -74zM216 -12c-108 0 -176 57 -176 157c0 98 80 161 224 161h106c-1 75 -35 111 -102 111c-50 0 -99 -18 -138 -51l-73 86
c59 54 138 85 216 85c155 0 234 -86 234 -242v-295h-104l-19 60c-46 -43 -105 -72 -168 -72zM240 98c51 0 94 22 130 61v51h-111c-55 0 -88 -22 -88 -58c0 -31 29 -54 69 -54z" />
    <glyph glyph-name="agrave" unicode="&#xe0;" horiz-adv-x="565" 
d="M245 601l-146 148h153l132 -148h-139zM216 -12c-108 0 -176 57 -176 157c0 98 80 161 224 161h106c-1 75 -35 111 -102 111c-50 0 -99 -18 -138 -51l-73 86c59 54 138 85 216 85c155 0 234 -86 234 -242v-295h-104l-19 60c-46 -43 -105 -72 -168 -72zM240 98
c51 0 94 22 130 61v51h-111c-55 0 -88 -22 -88 -58c0 -31 29 -54 69 -54z" />
    <glyph glyph-name="aring" unicode="&#xe5;" horiz-adv-x="565" 
d="M281 592c-72 0 -131 56 -131 128c0 73 59 128 131 128c71 0 130 -55 130 -128s-59 -128 -130 -128zM281 665c29 0 52 24 52 55s-23 53 -52 53c-30 0 -52 -22 -52 -53s22 -55 52 -55zM216 -12c-108 0 -176 57 -176 157c0 98 80 161 224 161h106c-1 75 -35 111 -102 111
c-50 0 -99 -18 -138 -51l-73 86c59 54 138 85 216 85c155 0 234 -86 234 -242v-295h-104l-19 60c-46 -43 -105 -72 -168 -72zM240 98c51 0 94 22 130 61v51h-111c-55 0 -88 -22 -88 -58c0 -31 29 -54 69 -54z" />
    <glyph glyph-name="atilde" unicode="&#xe3;" horiz-adv-x="565" 
d="M366 596c-34 0 -56 11 -82 26c-25 16 -46 28 -73 28c-36 0 -64 -14 -96 -36v98c31 23 60 39 97 39c35 0 58 -12 84 -27c26 -14 47 -27 73 -27c43 0 71 18 98 37v-100c-28 -19 -58 -38 -101 -38zM216 -12c-108 0 -176 57 -176 157c0 98 80 161 224 161h106
c-1 75 -35 111 -102 111c-50 0 -99 -18 -138 -51l-73 86c59 54 138 85 216 85c155 0 234 -86 234 -242v-295h-104l-19 60c-46 -43 -105 -72 -168 -72zM240 98c51 0 94 22 130 61v51h-111c-55 0 -88 -22 -88 -58c0 -31 29 -54 69 -54z" />
    <glyph glyph-name="ae" unicode="&#xe6;" horiz-adv-x="914" 
d="M224 -12c-115 0 -184 58 -184 157s80 165 225 165h106c-1 74 -36 107 -103 107c-50 0 -98 -17 -137 -51l-74 86c58 53 133 85 215 85c83 0 138 -35 170 -90c45 53 111 90 187 90c151 0 244 -109 244 -278v-37h-364c12 -69 65 -114 141 -114c51 0 92 19 122 50l83 -78
c-55 -60 -130 -92 -215 -92c-93 0 -165 34 -210 93c-50 -54 -121 -93 -206 -93zM511 319h222c-4 63 -41 104 -107 104c-62 0 -102 -39 -115 -104zM241 97c54 0 102 28 144 75c-4 13 -6 27 -9 42h-117c-55 0 -88 -23 -88 -62c0 -34 29 -55 70 -55z" />
    <glyph glyph-name="b" unicode="b" horiz-adv-x="644" 
d="M352 -10c-65 0 -117 23 -160 60l-16 -50h-110v723l151 22v-270c42 38 97 62 153 62c134 0 230 -106 230 -272c0 -161 -113 -275 -248 -275zM317 119c81 0 135 50 135 148c0 85 -44 137 -119 137c-49 0 -88 -25 -116 -62v-188c28 -22 63 -35 100 -35z" />
    <glyph glyph-name="c" unicode="c" horiz-adv-x="538" 
d="M311 -12c-159 0 -266 103 -266 276c0 155 113 273 268 273c80 0 151 -36 193 -88l-84 -90c-27 29 -58 48 -103 48c-76 0 -126 -58 -126 -143c0 -87 52 -146 125 -146c46 0 81 20 111 50l83 -91c-48 -54 -118 -89 -201 -89z" />
    <glyph glyph-name="ccedilla" unicode="&#xe7;" horiz-adv-x="538" 
d="M512 77c-38 -43 -90 -74 -152 -85c17 -21 26 -45 26 -73c0 -77 -65 -121 -163 -121h-35v95h31c37 0 59 15 59 43c0 23 -7 36 -24 57c-127 22 -209 120 -209 271c0 155 113 273 268 273c80 0 151 -36 193 -88l-84 -90c-27 29 -58 48 -103 48c-76 0 -126 -58 -126 -143
c0 -87 52 -146 125 -146c46 0 81 20 111 50z" />
    <glyph glyph-name="d" unicode="d" horiz-adv-x="644" 
d="M274 -12c-135 0 -229 105 -229 274c0 163 114 273 256 273c44 0 90 -15 127 -38v226l150 22v-745h-109l-22 66c-46 -48 -108 -78 -173 -78zM312 121c48 0 88 25 116 62v191c-29 21 -64 34 -102 34c-79 0 -133 -52 -133 -150c0 -86 44 -137 119 -137z" />
    <glyph glyph-name="eth" unicode="&#xf0;" horiz-adv-x="618" 
d="M309 -12c-156 0 -267 105 -267 263c0 138 97 243 238 243c43 0 86 -12 122 -32c-16 39 -38 75 -64 108l-151 -38v85l87 23c-25 24 -54 46 -84 67l153 37c28 -20 55 -43 78 -68l124 32v-86l-67 -17c63 -91 99 -201 99 -324c0 -179 -100 -293 -268 -293zM308 116
c88 0 129 71 129 166c0 20 -1 40 -4 59c-32 28 -75 45 -115 45c-81 0 -130 -53 -130 -135c0 -79 47 -135 120 -135z" />
    <glyph glyph-name="e" unicode="e" horiz-adv-x="590" 
d="M316 -12c-168 0 -271 113 -271 278c0 156 111 271 261 271s243 -109 243 -276v-38h-367c12 -70 67 -114 143 -114c52 0 93 18 123 49l83 -78c-56 -60 -129 -92 -215 -92zM185 321h224c-4 65 -40 102 -106 102c-62 0 -104 -39 -118 -102z" />
    <glyph glyph-name="eacute" unicode="&#xe9;" horiz-adv-x="590" 
d="M202 601l131 148h154l-146 -148h-139zM316 -12c-168 0 -271 113 -271 278c0 156 111 271 261 271s243 -109 243 -276v-38h-367c12 -70 67 -114 143 -114c52 0 93 18 123 49l83 -78c-56 -60 -129 -92 -215 -92zM185 321h224c-4 65 -40 102 -106 102
c-62 0 -104 -39 -118 -102z" />
    <glyph glyph-name="ecircumflex" unicode="&#xea;" horiz-adv-x="590" 
d="M107 601l131 148h131l130 -148h-126l-70 73l-70 -73h-126zM316 -12c-168 0 -271 113 -271 278c0 156 111 271 261 271s243 -109 243 -276v-38h-367c12 -70 67 -114 143 -114c52 0 93 18 123 49l83 -78c-56 -60 -129 -92 -215 -92zM185 321h224c-4 65 -40 102 -106 102
c-62 0 -104 -39 -118 -102z" />
    <glyph glyph-name="edieresis" unicode="&#xeb;" horiz-adv-x="590" 
d="M193 597c-46 0 -81 30 -81 74s35 74 81 74s81 -30 81 -74s-35 -74 -81 -74zM413 597c-46 0 -80 30 -80 74s34 74 80 74s81 -30 81 -74s-35 -74 -81 -74zM316 -12c-168 0 -271 113 -271 278c0 156 111 271 261 271s243 -109 243 -276v-38h-367c12 -70 67 -114 143 -114
c52 0 93 18 123 49l83 -78c-56 -60 -129 -92 -215 -92zM185 321h224c-4 65 -40 102 -106 102c-62 0 -104 -39 -118 -102z" />
    <glyph glyph-name="egrave" unicode="&#xe8;" horiz-adv-x="590" 
d="M266 601l-146 148h153l132 -148h-139zM316 -12c-168 0 -271 113 -271 278c0 156 111 271 261 271s243 -109 243 -276v-38h-367c12 -70 67 -114 143 -114c52 0 93 18 123 49l83 -78c-56 -60 -129 -92 -215 -92zM185 321h224c-4 65 -40 102 -106 102
c-62 0 -104 -39 -118 -102z" />
    <glyph glyph-name="f" unicode="f" horiz-adv-x="454" 
d="M66 0v517c0 142 90 231 226 231c66 0 123 -24 164 -60l-63 -90c-22 18 -47 29 -82 29c-59 0 -94 -35 -94 -96v-6h201v-125h-201v-400h-151z" />
    <glyph glyph-name="g" unicode="g" horiz-adv-x="638" 
d="M289 -225c-106 0 -192 36 -241 90l75 93c39 -36 92 -58 159 -58c80 0 140 55 140 144v35c-42 -37 -94 -58 -150 -58c-133 0 -230 93 -230 249c0 163 115 267 256 267c54 0 109 -22 150 -56l14 44h110v-482c0 -157 -114 -268 -283 -268zM308 142c47 0 86 26 114 60v177
c-28 22 -62 34 -99 34c-78 0 -134 -46 -134 -142c0 -80 45 -129 119 -129z" />
    <glyph glyph-name="h" unicode="h" horiz-adv-x="630" 
d="M66 0v723l151 22v-271c43 40 96 63 157 63c126 0 198 -89 198 -239v-298h-151v280c0 83 -24 124 -94 124c-41 0 -82 -24 -110 -66v-338h-151z" />
    <glyph glyph-name="i" unicode="i" horiz-adv-x="284" 
d="M142 594c-50 0 -88 33 -88 81c0 47 38 80 88 80c51 0 89 -33 89 -80c0 -48 -38 -81 -89 -81zM67 0v525h150v-525h-150z" />
    <glyph glyph-name="dotlessi" unicode="&#x131;" horiz-adv-x="284" 
d="M67 0v525h150v-525h-150z" />
    <glyph glyph-name="iacute" unicode="&#xed;" horiz-adv-x="284" 
d="M66 601l107 148h151l-122 -148h-136zM67 0v525h150v-525h-150z" />
    <glyph glyph-name="icircumflex" unicode="&#xee;" horiz-adv-x="284" 
d="M-54 601l131 148h131l130 -148h-126l-70 73l-70 -73h-126zM67 0v525h150v-525h-150z" />
    <glyph glyph-name="idieresis" unicode="&#xef;" horiz-adv-x="284" 
d="M32 597c-46 0 -81 30 -81 74s35 74 81 74s81 -30 81 -74s-35 -74 -81 -74zM252 597c-46 0 -80 30 -80 74s34 74 80 74s81 -30 81 -74s-35 -74 -81 -74zM67 0v525h150v-525h-150z" />
    <glyph glyph-name="igrave" unicode="&#xec;" horiz-adv-x="284" 
d="M82 601l-122 148h151l107 -148h-136zM67 0v525h150v-525h-150z" />
    <glyph glyph-name="j" unicode="j" horiz-adv-x="284" 
d="M142 594c-50 0 -88 33 -88 81c0 47 38 80 88 80c51 0 89 -33 89 -80c0 -48 -38 -81 -89 -81zM-35 -204v120h17c52 0 85 32 85 89v520h150v-515c0 -140 -73 -214 -204 -214h-48z" />
    <glyph glyph-name="uni0237" unicode="&#x237;" horiz-adv-x="284" 
d="M-35 -204v120h17c52 0 85 32 85 89v520h150v-515c0 -140 -73 -214 -204 -214h-48z" />
    <glyph glyph-name="k" unicode="k" horiz-adv-x="631" 
d="M66 0v723l148 22v-417h31c49 0 71 5 125 99l55 98h165l-93 -155c-22 -36 -46 -69 -71 -94l187 -276h-173l-135 204c-10 -2 -20 -3 -30 -3h-61v-201h-148z" />
    <glyph glyph-name="l" unicode="l" horiz-adv-x="332" 
d="M259 -8c-130 0 -199 76 -199 216v515l151 22v-537c0 -57 29 -91 81 -91h15v-125h-48z" />
    <glyph glyph-name="m" unicode="m" horiz-adv-x="934" 
d="M66 0v525h111l21 -66c43 47 96 78 162 78c71 0 123 -30 153 -86c46 53 106 86 177 86c117 0 185 -85 185 -232v-305h-150v288c0 69 -18 116 -83 116c-36 0 -73 -22 -98 -61c1 -12 1 -25 1 -38v-305h-149v288c0 69 -18 116 -83 116c-39 0 -73 -26 -98 -67v-337h-149z" />
    <glyph glyph-name="n" unicode="n" horiz-adv-x="630" 
d="M66 0v525h111l21 -68c47 50 106 80 176 80c126 0 198 -89 198 -239v-298h-151v280c0 83 -24 124 -94 124c-41 0 -82 -24 -110 -66v-338h-151z" />
    <glyph glyph-name="ntilde" unicode="&#xf1;" horiz-adv-x="630" 
d="M406 596c-34 0 -56 11 -82 26c-25 16 -46 28 -73 28c-36 0 -64 -14 -96 -36v98c31 23 60 39 97 39c35 0 58 -12 84 -27c26 -14 47 -27 73 -27c43 0 71 18 98 37v-100c-28 -19 -58 -38 -101 -38zM66 0v525h111l21 -68c47 50 106 80 176 80c126 0 198 -89 198 -239v-298
h-151v280c0 83 -24 124 -94 124c-41 0 -82 -24 -110 -66v-338h-151z" />
    <glyph glyph-name="o" unicode="o" horiz-adv-x="634" 
d="M316 -12c-157 0 -271 110 -271 276c0 160 116 273 271 273c157 0 273 -111 273 -274c0 -164 -118 -275 -273 -275zM315 118c77 0 126 57 126 145c0 86 -47 144 -124 144c-76 0 -124 -57 -124 -143c0 -89 48 -146 122 -146z" />
    <glyph glyph-name="oacute" unicode="&#xf3;" horiz-adv-x="634" 
d="M215 601l131 148h154l-146 -148h-139zM316 -12c-157 0 -271 110 -271 276c0 160 116 273 271 273c157 0 273 -111 273 -274c0 -164 -118 -275 -273 -275zM315 118c77 0 126 57 126 145c0 86 -47 144 -124 144c-76 0 -124 -57 -124 -143c0 -89 48 -146 122 -146z" />
    <glyph glyph-name="ocircumflex" unicode="&#xf4;" horiz-adv-x="634" 
d="M120 601l131 148h131l130 -148h-126l-70 73l-70 -73h-126zM316 -12c-157 0 -271 110 -271 276c0 160 116 273 271 273c157 0 273 -111 273 -274c0 -164 -118 -275 -273 -275zM315 118c77 0 126 57 126 145c0 86 -47 144 -124 144c-76 0 -124 -57 -124 -143
c0 -89 48 -146 122 -146z" />
    <glyph glyph-name="odieresis" unicode="&#xf6;" horiz-adv-x="634" 
d="M206 597c-46 0 -81 30 -81 74s35 74 81 74s81 -30 81 -74s-35 -74 -81 -74zM426 597c-46 0 -80 30 -80 74s34 74 80 74s81 -30 81 -74s-35 -74 -81 -74zM316 -12c-157 0 -271 110 -271 276c0 160 116 273 271 273c157 0 273 -111 273 -274c0 -164 -118 -275 -273 -275z
M315 118c77 0 126 57 126 145c0 86 -47 144 -124 144c-76 0 -124 -57 -124 -143c0 -89 48 -146 122 -146z" />
    <glyph glyph-name="ograve" unicode="&#xf2;" horiz-adv-x="634" 
d="M280 601l-146 148h153l132 -148h-139zM316 -12c-157 0 -271 110 -271 276c0 160 116 273 271 273c157 0 273 -111 273 -274c0 -164 -118 -275 -273 -275zM315 118c77 0 126 57 126 145c0 86 -47 144 -124 144c-76 0 -124 -57 -124 -143c0 -89 48 -146 122 -146z" />
    <glyph glyph-name="oslash" unicode="&#xf8;" horiz-adv-x="634" 
d="M36 -49l83 116c-47 48 -74 116 -74 197c0 160 116 273 271 273c43 0 83 -9 118 -25l44 62h117l-81 -115c47 -48 75 -116 75 -196c0 -164 -118 -275 -273 -275c-43 0 -84 9 -119 25l-44 -62h-117zM208 193l147 206c-11 5 -24 8 -38 8c-76 0 -124 -57 -124 -143
c0 -27 5 -51 15 -71zM315 118c77 0 126 57 126 145c0 27 -5 51 -16 71l-148 -208c11 -5 24 -8 38 -8z" />
    <glyph glyph-name="otilde" unicode="&#xf5;" horiz-adv-x="634" 
d="M400 596c-34 0 -56 11 -82 26c-25 16 -46 28 -73 28c-36 0 -64 -14 -96 -36v98c31 23 60 39 97 39c35 0 58 -12 84 -27c26 -14 47 -27 73 -27c43 0 71 18 98 37v-100c-28 -19 -58 -38 -101 -38zM316 -12c-157 0 -271 110 -271 276c0 160 116 273 271 273
c157 0 273 -111 273 -274c0 -164 -118 -275 -273 -275zM315 118c77 0 126 57 126 145c0 86 -47 144 -124 144c-76 0 -124 -57 -124 -143c0 -89 48 -146 122 -146z" />
    <glyph glyph-name="oe" unicode="&#x153;" horiz-adv-x="999" 
d="M316 -12c-157 0 -271 110 -271 276c0 160 116 273 271 273c83 0 155 -40 201 -102c44 61 113 102 197 102c150 0 244 -109 244 -276v-39h-367c11 -69 68 -113 143 -113c52 0 92 18 123 49l83 -78c-56 -60 -130 -92 -216 -92c-94 0 -164 41 -208 102
c-47 -63 -119 -102 -200 -102zM593 321h225c-4 64 -40 102 -105 102c-64 0 -107 -37 -120 -102zM315 119c77 0 126 56 126 144c0 86 -47 144 -124 144c-76 0 -124 -57 -124 -143c0 -88 48 -145 122 -145z" />
    <glyph glyph-name="p" unicode="p" horiz-adv-x="644" 
d="M66 -221v746h111l21 -67c46 49 108 79 172 79c134 0 230 -106 230 -273c0 -164 -114 -273 -257 -273c-44 0 -89 16 -126 38v-228zM317 118c81 0 135 51 135 149c0 85 -44 137 -119 137c-49 0 -88 -25 -116 -62v-190c28 -21 62 -34 100 -34z" />
    <glyph glyph-name="thorn" unicode="&#xfe;" horiz-adv-x="644" 
d="M66 -221v944l151 22v-269c42 38 97 61 153 61c134 0 230 -106 230 -272c0 -164 -114 -273 -257 -273c-44 0 -89 16 -126 43v-235zM317 119c81 0 135 50 135 148c0 85 -44 137 -119 137c-49 0 -88 -25 -116 -62v-188c28 -22 63 -35 100 -35z" />
    <glyph glyph-name="q" unicode="q" horiz-adv-x="644" 
d="M428 -221v271c-44 -38 -97 -61 -154 -61c-135 0 -229 105 -229 274c0 164 114 274 256 274c55 0 111 -23 152 -57l15 45h110v-724zM312 122c48 0 88 25 116 62v191c-29 21 -65 34 -102 34c-80 0 -133 -51 -133 -150c0 -86 44 -137 119 -137z" />
    <glyph glyph-name="r" unicode="r" horiz-adv-x="443" 
d="M66 0v525h111l23 -71c51 53 114 80 194 80h13v-125h-19c-64 0 -132 -22 -171 -73v-336h-151z" />
    <glyph glyph-name="s" unicode="s" horiz-adv-x="518" 
d="M266 -11c-99 0 -184 33 -240 82l67 92c42 -36 108 -57 175 -57c54 0 78 13 78 43c0 31 -28 45 -101 58c-134 24 -194 64 -194 172c0 92 82 158 209 158c89 0 166 -32 217 -83l-76 -83c-38 34 -90 51 -141 51c-49 0 -73 -14 -73 -41c0 -30 20 -40 105 -56
c126 -25 190 -73 190 -172c0 -100 -77 -164 -216 -164z" />
    <glyph glyph-name="scaron" unicode="&#x161;" horiz-adv-x="518" 
d="M196 601l-131 148h127l69 -74l71 74h125l-130 -148h-131zM266 -11c-99 0 -184 33 -240 82l67 92c42 -36 108 -57 175 -57c54 0 78 13 78 43c0 31 -28 45 -101 58c-134 24 -194 64 -194 172c0 92 82 158 209 158c89 0 166 -32 217 -83l-76 -83c-38 34 -90 51 -141 51
c-49 0 -73 -14 -73 -41c0 -30 20 -40 105 -56c126 -25 190 -73 190 -172c0 -100 -77 -164 -216 -164z" />
    <glyph glyph-name="germandbls" unicode="&#xdf;" horiz-adv-x="686" 
d="M464 -12c-92 0 -151 20 -198 53l51 100c35 -22 71 -31 111 -31c49 0 79 23 79 59c0 54 -45 66 -88 83c-55 23 -109 42 -109 117c0 37 21 65 44 92c20 24 41 49 41 81c0 50 -29 73 -80 73c-69 0 -101 -53 -101 -131v-484h-148v468c0 173 98 277 257 277
c146 0 219 -78 219 -160c0 -51 -28 -87 -55 -116c-20 -22 -37 -42 -37 -65c0 -41 52 -52 101 -79c47 -25 103 -65 103 -161c0 -103 -77 -176 -190 -176z" />
    <glyph glyph-name="t" unicode="t" horiz-adv-x="454" 
d="M279 -12c-134 0 -213 83 -213 222v443l151 21v-149h194v-125h-194v-189c0 -57 29 -92 79 -92c35 0 56 10 78 28l68 -93c-44 -42 -101 -66 -163 -66z" />
    <glyph glyph-name="u" unicode="u" horiz-adv-x="628" 
d="M256 -12c-128 0 -196 89 -196 238v299h150v-280c0 -83 22 -124 93 -124c41 0 80 24 108 65v339h151v-525h-111l-22 68c-46 -50 -104 -80 -173 -80z" />
    <glyph glyph-name="uacute" unicode="&#xfa;" horiz-adv-x="628" 
d="M212 601l131 148h154l-146 -148h-139zM256 -12c-128 0 -196 89 -196 238v299h150v-280c0 -83 22 -124 93 -124c41 0 80 24 108 65v339h151v-525h-111l-22 68c-46 -50 -104 -80 -173 -80z" />
    <glyph glyph-name="ucircumflex" unicode="&#xfb;" horiz-adv-x="628" 
d="M118 601l131 148h131l130 -148h-126l-70 73l-70 -73h-126zM256 -12c-128 0 -196 89 -196 238v299h150v-280c0 -83 22 -124 93 -124c41 0 80 24 108 65v339h151v-525h-111l-22 68c-46 -50 -104 -80 -173 -80z" />
    <glyph glyph-name="udieresis" unicode="&#xfc;" horiz-adv-x="628" 
d="M204 597c-46 0 -81 30 -81 74s35 74 81 74s81 -30 81 -74s-35 -74 -81 -74zM424 597c-46 0 -80 30 -80 74s34 74 80 74s81 -30 81 -74s-35 -74 -81 -74zM256 -12c-128 0 -196 89 -196 238v299h150v-280c0 -83 22 -124 93 -124c41 0 80 24 108 65v339h151v-525h-111
l-22 68c-46 -50 -104 -80 -173 -80z" />
    <glyph glyph-name="ugrave" unicode="&#xf9;" horiz-adv-x="628" 
d="M277 601l-146 148h153l132 -148h-139zM256 -12c-128 0 -196 89 -196 238v299h150v-280c0 -83 22 -124 93 -124c41 0 80 24 108 65v339h151v-525h-111l-22 68c-46 -50 -104 -80 -173 -80z" />
    <glyph glyph-name="v" unicode="v" horiz-adv-x="618" 
d="M226 0l-214 525h166l132 -371l132 371h164l-216 -525h-164z" />
    <glyph glyph-name="w" unicode="w" horiz-adv-x="853" 
d="M173 0l-155 525h158l78 -354l99 319h152l95 -319l82 354h154l-157 -525h-156l-99 323l-99 -323h-152z" />
    <glyph glyph-name="wacute" unicode="&#x1e83;" horiz-adv-x="853" 
d="M325 601l131 148h154l-146 -148h-139zM173 0l-155 525h158l78 -354l99 319h152l95 -319l82 354h154l-157 -525h-156l-99 323l-99 -323h-152z" />
    <glyph glyph-name="wcircumflex" unicode="&#x175;" horiz-adv-x="853" 
d="M230 601l131 148h131l130 -148h-126l-70 73l-70 -73h-126zM173 0l-155 525h158l78 -354l99 319h152l95 -319l82 354h154l-157 -525h-156l-99 323l-99 -323h-152z" />
    <glyph glyph-name="wdieresis" unicode="&#x1e85;" horiz-adv-x="853" 
d="M317 597c-46 0 -81 30 -81 74s35 74 81 74s81 -30 81 -74s-35 -74 -81 -74zM537 597c-46 0 -80 30 -80 74s34 74 80 74s81 -30 81 -74s-35 -74 -81 -74zM173 0l-155 525h158l78 -354l99 319h152l95 -319l82 354h154l-157 -525h-156l-99 323l-99 -323h-152z" />
    <glyph glyph-name="wgrave" unicode="&#x1e81;" horiz-adv-x="853" 
d="M390 601l-146 148h153l132 -148h-139zM173 0l-155 525h158l78 -354l99 319h152l95 -319l82 354h154l-157 -525h-156l-99 323l-99 -323h-152z" />
    <glyph glyph-name="x" unicode="x" horiz-adv-x="611" 
d="M15 0l203 273l-190 252h172l110 -152l104 152h168l-188 -253l203 -272h-173l-122 173l-118 -173h-169z" />
    <glyph glyph-name="y" unicode="y" horiz-adv-x="607" 
d="M71 -204v128h36c59 0 100 32 130 85l5 15l-234 501h168l135 -328l123 328h161l-219 -531c-52 -125 -126 -198 -256 -198h-49z" />
    <glyph glyph-name="yacute" unicode="&#xfd;" horiz-adv-x="607" 
d="M202 601l131 148h154l-146 -148h-139zM71 -204v128h36c59 0 100 32 130 85l5 15l-234 501h168l135 -328l123 328h161l-219 -531c-52 -125 -126 -198 -256 -198h-49z" />
    <glyph glyph-name="ycircumflex" unicode="&#x177;" horiz-adv-x="607" 
d="M108 601l131 148h131l130 -148h-126l-70 73l-70 -73h-126zM71 -204v128h36c59 0 100 32 130 85l5 15l-234 501h168l135 -328l123 328h161l-219 -531c-52 -125 -126 -198 -256 -198h-49z" />
    <glyph glyph-name="ydieresis" unicode="&#xff;" horiz-adv-x="607" 
d="M194 597c-46 0 -81 30 -81 74s35 74 81 74s81 -30 81 -74s-35 -74 -81 -74zM414 597c-46 0 -80 30 -80 74s34 74 80 74s81 -30 81 -74s-35 -74 -81 -74zM71 -204v128h36c59 0 100 32 130 85l5 15l-234 501h168l135 -328l123 328h161l-219 -531
c-52 -125 -126 -198 -256 -198h-49z" />
    <glyph glyph-name="ygrave" unicode="&#x1ef3;" horiz-adv-x="607" 
d="M267 601l-146 148h153l132 -148h-139zM71 -204v128h36c59 0 100 32 130 85l5 15l-234 501h168l135 -328l123 328h161l-219 -531c-52 -125 -126 -198 -256 -198h-49z" />
    <glyph glyph-name="z" unicode="z" horiz-adv-x="559" 
d="M54 0v95l265 308h-258v122h440v-95l-261 -308h268v-122h-454z" />
    <glyph glyph-name="zcaron" unicode="&#x17e;" horiz-adv-x="559" 
d="M212 601l-131 148h127l69 -74l71 74h125l-130 -148h-131zM54 0v95l265 308h-258v122h440v-95l-261 -308h268v-122h-454z" />
    <glyph glyph-name="ordfeminine" unicode="&#xaa;" horiz-adv-x="447" 
d="M168 266c-85 0 -137 43 -137 120s66 123 166 123h84v3c-2 46 -23 73 -72 73c-36 0 -74 -12 -104 -38l-63 74c47 41 106 66 171 66c123 0 188 -69 188 -189v-224h-92l-15 43c-35 -31 -80 -51 -126 -51zM191 357c35 0 65 15 90 40v35h-81c-36 0 -57 -13 -57 -39
c0 -22 20 -36 48 -36z" />
    <glyph glyph-name="ordmasculine" unicode="&#xba;" horiz-adv-x="491" 
d="M245 266c-123 0 -214 83 -214 211c0 124 92 210 214 210c123 0 214 -85 214 -211s-93 -210 -214 -210zM244 380c52 0 85 38 85 96c0 57 -32 96 -83 96s-83 -37 -83 -95s31 -97 81 -97z" />
    <glyph glyph-name="uni03BC" unicode="&#x3bc;" horiz-adv-x="634" 
d="M66 -221v746h150v-280c0 -83 22 -124 93 -124c41 0 79 24 108 65v339h151v-525h-110l-22 68c-47 -50 -106 -80 -174 -80c-18 0 -33 4 -46 13v-201z" />
    <glyph glyph-name="zero" unicode="0" horiz-adv-x="642" 
d="M321 -12c-166 0 -271 132 -271 341c0 202 107 339 271 339s271 -133 271 -339c0 -208 -108 -341 -271 -341zM321 133c80 0 116 78 116 196c0 114 -31 195 -114 195c-82 0 -118 -81 -118 -195c0 -115 33 -196 116 -196z" />
    <glyph glyph-name="one" unicode="1" horiz-adv-x="424" 
d="M189 0v513l-154 -41v123l187 62h118v-657h-151z" />
    <glyph glyph-name="two" unicode="2" horiz-adv-x="592" 
d="M56 0v99l226 215c61 57 94 92 94 130c0 53 -33 81 -96 81c-49 0 -103 -25 -152 -74l-91 104c74 74 162 113 258 113c142 0 237 -79 237 -199c0 -72 -36 -132 -105 -198l-141 -135h246v-136h-476z" />
    <glyph glyph-name="three" unicode="3" horiz-adv-x="571" 
d="M270 -12c-98 0 -185 36 -239 93l80 96c39 -35 91 -56 152 -56c67 0 114 33 114 84c0 50 -42 78 -114 78h-99v92l160 150h-272v132h455v-102l-173 -163c119 -12 198 -83 198 -191c0 -134 -104 -213 -262 -213z" />
    <glyph glyph-name="four" unicode="4" horiz-adv-x="609" 
d="M353 0v148h-314v112l314 397h136v-381h84v-128h-84v-148h-136zM202 276h151v193z" />
    <glyph glyph-name="five" unicode="5" horiz-adv-x="545" 
d="M255 -12c-95 0 -179 37 -232 95l84 93c38 -35 83 -55 141 -55c65 0 108 32 108 83c0 52 -34 80 -99 80h-192v94l56 279h348v-133h-253l-18 -111h69c154 0 244 -71 244 -205c0 -135 -98 -220 -256 -220z" />
    <glyph glyph-name="six" unicode="6" horiz-adv-x="600" 
d="M315 -12c-162 0 -264 117 -264 320c0 215 116 360 289 360c81 0 157 -28 213 -92l-83 -93c-38 38 -77 52 -121 52c-80 0 -136 -53 -152 -153c43 20 93 32 143 32c132 0 216 -82 216 -199c0 -130 -94 -227 -241 -227zM314 118c69 0 107 35 107 92c0 50 -38 86 -105 86
c-45 0 -89 -8 -123 -23c5 -101 50 -155 121 -155z" />
    <glyph glyph-name="seven" unicode="7" horiz-adv-x="564" 
d="M122 0l227 519h-309v138h487v-80l-243 -577h-162z" />
    <glyph glyph-name="eight" unicode="8" horiz-adv-x="616" 
d="M309 -12c-159 0 -262 72 -262 185c0 65 41 124 103 166c-51 33 -82 82 -82 148c0 108 103 181 240 181c146 0 241 -71 241 -178c0 -57 -35 -105 -84 -143c62 -36 104 -91 104 -167c0 -113 -108 -192 -260 -192zM354 390c42 24 59 55 59 84c0 45 -42 72 -103 72
s-103 -25 -103 -65c0 -44 45 -64 123 -85zM310 116c64 0 113 26 113 77c0 62 -64 76 -150 97l-11 3c-50 -26 -71 -56 -71 -94c0 -50 50 -83 119 -83z" />
    <glyph glyph-name="nine" unicode="9" horiz-adv-x="602" 
d="M265 -12c-83 0 -160 29 -218 92l77 94c42 -36 82 -52 133 -52c90 0 140 55 152 155c-43 -20 -94 -32 -145 -32c-133 0 -217 85 -217 203c0 129 100 220 243 220c162 0 263 -116 263 -318c0 -229 -112 -362 -288 -362zM287 362c46 0 89 7 125 22c-6 99 -52 154 -122 154
c-66 0 -107 -34 -107 -88c0 -57 36 -88 104 -88z" />
    <glyph glyph-name="zero.zero" horiz-adv-x="642" 
d="M321 -12c-166 0 -271 132 -271 341c0 202 107 339 271 339s271 -133 271 -339c0 -208 -108 -341 -271 -341zM198 255l210 247c-20 24 -48 38 -84 38c-92 0 -133 -88 -133 -211c0 -26 3 -51 7 -74zM321 117c89 0 130 84 130 212c0 26 -2 50 -7 71l-208 -245
c20 -24 48 -38 85 -38z" />
    <glyph glyph-name="zero.tf" 
d="M292 -12c-159 0 -259 133 -259 341c0 202 102 339 259 339c158 0 260 -135 260 -339c0 -206 -102 -341 -260 -341zM292 133c74 0 104 78 104 196c0 113 -25 195 -101 195s-106 -81 -106 -195c0 -115 27 -196 103 -196z" />
    <glyph glyph-name="one.tf" 
d="M276 0v513l-176 -47v120l209 71h118v-657h-151z" />
    <glyph glyph-name="two.tf" 
d="M50 0v99l226 215c61 57 94 92 94 130c0 53 -33 81 -96 81c-49 0 -103 -25 -152 -74l-91 104c74 74 162 113 258 113c142 0 237 -79 237 -199c0 -72 -36 -132 -105 -198l-141 -135h246v-136h-476z" />
    <glyph glyph-name="three.tf" 
d="M275 -12c-98 0 -185 36 -238 93l79 96c40 -35 91 -56 153 -56c67 0 113 33 113 84c0 50 -41 78 -114 78h-99v92l160 150h-272v132h455v-102l-173 -163c119 -12 198 -83 198 -191c0 -134 -103 -213 -262 -213z" />
    <glyph glyph-name="four.tf" 
d="M339 0v148h-311v107l311 402h136v-382h85v-127h-85v-148h-136zM182 275h157v204z" />
    <glyph glyph-name="five.tf" 
d="M275 -12c-95 0 -179 37 -232 95l84 93c38 -35 83 -55 141 -55c65 0 108 32 108 83c0 52 -34 80 -99 80h-192v94l56 279h348v-133h-253l-18 -111h69c154 0 244 -71 244 -205c0 -135 -98 -220 -256 -220z" />
    <glyph glyph-name="six.tf" 
d="M309 -12c-162 0 -263 117 -263 320c0 215 115 360 288 360c81 0 157 -28 213 -92l-82 -93c-39 38 -77 52 -122 52c-80 0 -136 -53 -151 -153c42 20 92 32 143 32c132 0 215 -82 215 -199c0 -130 -93 -227 -241 -227zM309 118c68 0 106 35 106 92c0 50 -38 86 -105 86
c-45 0 -89 -8 -123 -23c6 -101 50 -155 122 -155z" />
    <glyph glyph-name="seven.tf" 
d="M128 0l227 519h-309v138h487v-80l-243 -577h-162z" />
    <glyph glyph-name="eight.tf" 
d="M294 -12c-159 0 -262 72 -262 185c0 65 41 124 103 166c-51 33 -82 82 -82 148c0 108 103 181 240 181c146 0 241 -71 241 -178c0 -57 -35 -105 -84 -143c62 -36 104 -91 104 -167c0 -113 -108 -192 -260 -192zM339 390c42 24 59 55 59 84c0 45 -42 72 -103 72
s-103 -25 -103 -65c0 -44 45 -64 123 -85zM295 116c64 0 113 26 113 77c0 62 -64 76 -150 97l-11 3c-50 -26 -71 -56 -71 -94c0 -50 50 -83 119 -83z" />
    <glyph glyph-name="nine.tf" 
d="M256 -12c-83 0 -160 29 -218 92l77 94c42 -36 82 -52 133 -52c90 0 140 55 152 155c-43 -20 -94 -32 -145 -32c-133 0 -217 85 -217 203c0 129 100 220 243 220c162 0 263 -116 263 -318c0 -229 -112 -362 -288 -362zM278 362c46 0 89 7 125 22c-6 99 -52 154 -122 154
c-66 0 -107 -34 -107 -88c0 -57 36 -88 104 -88z" />
    <glyph glyph-name="zero.tf.zero" 
d="M292 -12c-159 0 -259 133 -259 341c0 202 102 339 259 339c158 0 260 -135 260 -339c0 -206 -102 -341 -260 -341zM175 264l198 232c-18 23 -44 36 -77 36c-87 0 -126 -86 -126 -203c0 -23 2 -45 5 -65zM292 125c85 0 123 81 123 204c0 23 -2 45 -5 65l-198 -231
c19 -24 45 -38 80 -38z" />
    <glyph glyph-name="zero.subs" horiz-adv-x="483" 
d="M241 -85c-110 0 -182 77 -182 203c0 123 73 201 182 201c110 0 183 -78 183 -201c0 -125 -73 -203 -183 -203zM241 19c49 0 68 39 68 98c0 58 -17 99 -66 99s-69 -40 -69 -99c0 -56 17 -98 67 -98z" />
    <glyph glyph-name="one.subs" horiz-adv-x="382" 
d="M167 -77v288l-96 -22v87l121 38h85v-391h-110z" />
    <glyph glyph-name="two.subs" horiz-adv-x="455" 
d="M69 -77v72l141 117c38 33 58 47 58 67c0 25 -19 37 -54 37c-29 0 -65 -15 -97 -43l-62 78c45 41 105 69 172 69c94 0 157 -49 157 -123c0 -46 -21 -79 -67 -114l-79 -62h145v-98h-314z" />
    <glyph glyph-name="three.subs" horiz-adv-x="459" 
d="M219 -85c-67 0 -122 25 -154 59l61 67c24 -21 53 -33 88 -33c39 0 66 15 66 39c0 20 -20 35 -56 35h-76v65l91 71h-161v95h290v-69l-101 -86c76 -8 125 -50 125 -114c0 -83 -68 -129 -173 -129z" />
    <glyph glyph-name="four.subs" horiz-adv-x="465" 
d="M258 -77v83h-204v69l204 239h99v-219h52v-89h-52v-83h-99zM170 95h88v100z" />
    <glyph glyph-name="five.subs" horiz-adv-x="439" 
d="M204 -85c-68 0 -120 24 -152 59l64 67c22 -20 46 -30 83 -30c36 0 61 13 61 37s-20 35 -54 35h-126v66l34 164h233v-95h-163l-9 -50h41c100 0 159 -43 159 -119c0 -84 -65 -134 -171 -134z" />
    <glyph glyph-name="six.subs" horiz-adv-x="454" 
d="M237 -85c-112 0 -174 70 -174 190c0 127 76 214 192 214c60 0 111 -20 144 -57l-57 -66c-25 23 -50 29 -80 29c-46 0 -80 -23 -93 -68c26 9 56 15 87 15c87 0 142 -47 142 -118c0 -81 -62 -139 -161 -139zM236 7c43 0 65 14 65 42c0 24 -22 40 -62 40
c-27 0 -53 -4 -74 -11c5 -47 31 -71 71 -71z" />
    <glyph glyph-name="seven.subs" horiz-adv-x="434" 
d="M117 -77l133 291h-185v100h313v-51l-146 -340h-115z" />
    <glyph glyph-name="eight.subs" horiz-adv-x="481" 
d="M241 -85c-101 0 -169 43 -169 111c0 37 25 71 61 96c-29 20 -47 49 -47 87c0 65 67 110 154 110c93 0 154 -42 154 -108c0 -31 -20 -59 -47 -80c36 -22 61 -55 61 -99c0 -70 -70 -117 -167 -117zM269 160c22 11 32 27 32 41c0 20 -25 35 -60 35c-33 0 -58 -13 -58 -31
c0 -23 27 -33 75 -43zM240 2c36 0 68 12 68 38c0 29 -35 36 -83 47l-16 3c-26 -13 -37 -29 -37 -46c0 -25 28 -42 68 -42z" />
    <glyph glyph-name="nine.subs" horiz-adv-x="439" 
d="M192 -85c-61 0 -111 21 -144 57l55 67c27 -22 51 -30 83 -30c52 0 82 26 93 71c-26 -10 -57 -17 -88 -17c-87 0 -142 52 -142 121c0 79 64 135 160 135c112 0 174 -75 174 -189c0 -134 -73 -215 -191 -215zM208 147c28 0 54 3 75 10c-5 44 -33 71 -73 71s-64 -16 -64 -41
c0 -27 20 -40 62 -40z" />
    <glyph glyph-name="zero.dnom" horiz-adv-x="483" 
d="M241 -8c-110 0 -182 77 -182 203c0 123 73 201 182 201c110 0 183 -78 183 -201c0 -125 -73 -203 -183 -203zM241 96c49 0 68 39 68 98c0 58 -17 99 -66 99s-69 -40 -69 -99c0 -56 17 -98 67 -98z" />
    <glyph glyph-name="one.dnom" horiz-adv-x="382" 
d="M167 0v288l-96 -22v87l121 38h85v-391h-110z" />
    <glyph glyph-name="two.dnom" horiz-adv-x="455" 
d="M69 0v72l141 117c38 33 58 47 58 67c0 25 -19 37 -54 37c-29 0 -65 -15 -97 -43l-62 78c45 41 105 69 172 69c94 0 157 -49 157 -123c0 -46 -21 -79 -67 -114l-79 -62h145v-98h-314z" />
    <glyph glyph-name="three.dnom" horiz-adv-x="459" 
d="M219 -8c-67 0 -122 25 -154 59l61 67c24 -21 53 -33 88 -33c39 0 66 15 66 39c0 20 -20 35 -56 35h-76v65l91 71h-161v95h290v-69l-101 -86c76 -8 125 -50 125 -114c0 -83 -68 -129 -173 -129z" />
    <glyph glyph-name="four.dnom" horiz-adv-x="465" 
d="M258 0v83h-204v69l204 239h99v-219h52v-89h-52v-83h-99zM170 172h88v100z" />
    <glyph glyph-name="five.dnom" horiz-adv-x="439" 
d="M204 -8c-68 0 -120 24 -152 59l64 67c22 -20 46 -30 83 -30c36 0 61 13 61 37s-20 35 -54 35h-126v66l34 164h233v-95h-163l-9 -50h41c100 0 159 -43 159 -119c0 -84 -65 -134 -171 -134z" />
    <glyph glyph-name="six.dnom" horiz-adv-x="454" 
d="M237 -8c-112 0 -174 70 -174 190c0 127 76 214 192 214c60 0 111 -20 144 -57l-57 -66c-25 23 -50 29 -80 29c-46 0 -80 -23 -93 -68c26 9 56 15 87 15c87 0 142 -47 142 -118c0 -81 -62 -139 -161 -139zM236 84c43 0 65 14 65 42c0 24 -22 40 -62 40
c-27 0 -53 -4 -74 -11c5 -47 31 -71 71 -71z" />
    <glyph glyph-name="seven.dnom" horiz-adv-x="434" 
d="M117 0l133 291h-185v100h313v-51l-146 -340h-115z" />
    <glyph glyph-name="eight.dnom" horiz-adv-x="481" 
d="M241 -8c-101 0 -169 43 -169 111c0 37 25 71 61 96c-29 20 -47 49 -47 87c0 65 67 110 154 110c93 0 154 -42 154 -108c0 -31 -20 -59 -47 -80c36 -22 61 -55 61 -99c0 -69 -70 -117 -167 -117zM269 237c22 11 32 27 32 41c0 20 -25 35 -60 35c-33 0 -58 -13 -58 -31
c0 -23 27 -33 75 -43zM240 79c36 0 68 12 68 38c0 29 -35 36 -83 47l-16 3c-26 -13 -37 -29 -37 -46c0 -25 28 -42 68 -42z" />
    <glyph glyph-name="nine.dnom" horiz-adv-x="439" 
d="M192 -8c-61 0 -111 21 -144 57l55 67c27 -22 51 -30 83 -30c52 0 82 26 93 71c-26 -10 -57 -17 -88 -17c-87 0 -142 52 -142 121c0 79 64 135 160 135c112 0 174 -75 174 -189c0 -134 -73 -215 -191 -215zM208 224c28 0 54 3 75 10c-5 44 -33 71 -73 71s-64 -16 -64 -41
c0 -27 20 -40 62 -40z" />
    <glyph glyph-name="zero.numr" horiz-adv-x="483" 
d="M241 257c-110 0 -182 77 -182 203c0 123 73 201 182 201c110 0 183 -78 183 -201c0 -125 -73 -203 -183 -203zM241 361c49 0 68 39 68 98c0 58 -17 99 -66 99s-69 -40 -69 -99c0 -56 17 -98 67 -98z" />
    <glyph glyph-name="one.numr" horiz-adv-x="382" 
d="M167 265v288l-96 -22v87l121 38h85v-391h-110z" />
    <glyph glyph-name="two.numr" horiz-adv-x="455" 
d="M69 265v72l141 117c38 33 58 47 58 67c0 25 -19 37 -54 37c-29 0 -65 -15 -97 -43l-62 78c45 41 105 69 172 69c94 0 157 -49 157 -123c0 -46 -21 -79 -67 -114l-79 -62h145v-98h-314z" />
    <glyph glyph-name="three.numr" horiz-adv-x="459" 
d="M219 257c-67 0 -122 25 -154 59l61 67c24 -21 53 -33 88 -33c39 0 66 15 66 39c0 20 -20 35 -56 35h-76v65l91 71h-161v95h290v-69l-101 -86c76 -8 125 -50 125 -114c0 -83 -68 -129 -173 -129z" />
    <glyph glyph-name="four.numr" horiz-adv-x="465" 
d="M258 265v83h-204v69l204 239h99v-219h52v-89h-52v-83h-99zM170 437h88v100z" />
    <glyph glyph-name="five.numr" horiz-adv-x="439" 
d="M204 257c-68 0 -120 24 -152 59l64 67c22 -20 46 -30 83 -30c36 0 61 13 61 37s-20 35 -54 35h-126v66l34 164h233v-95h-163l-9 -50h41c100 0 159 -43 159 -119c0 -84 -65 -134 -171 -134z" />
    <glyph glyph-name="six.numr" horiz-adv-x="454" 
d="M237 257c-112 0 -174 70 -174 190c0 127 76 214 192 214c60 0 111 -20 144 -57l-57 -66c-25 23 -50 29 -80 29c-46 0 -80 -23 -93 -68c26 9 56 15 87 15c87 0 142 -47 142 -118c0 -81 -62 -139 -161 -139zM236 349c43 0 65 14 65 42c0 24 -22 40 -62 40
c-27 0 -53 -4 -74 -11c5 -47 31 -71 71 -71z" />
    <glyph glyph-name="seven.numr" horiz-adv-x="434" 
d="M117 265l133 291h-185v100h313v-51l-146 -340h-115z" />
    <glyph glyph-name="eight.numr" horiz-adv-x="481" 
d="M241 257c-101 0 -169 43 -169 111c0 37 25 71 61 96c-29 20 -47 49 -47 87c0 65 67 110 154 110c93 0 154 -42 154 -108c0 -31 -20 -59 -47 -80c36 -22 61 -55 61 -99c0 -69 -70 -117 -167 -117zM269 502c22 11 32 27 32 41c0 20 -25 35 -60 35c-33 0 -58 -13 -58 -31
c0 -23 27 -33 75 -43zM240 344c36 0 68 12 68 38c0 29 -35 36 -83 47l-16 3c-26 -13 -37 -29 -37 -46c0 -25 28 -42 68 -42z" />
    <glyph glyph-name="nine.numr" horiz-adv-x="439" 
d="M192 257c-61 0 -111 21 -144 57l55 67c27 -22 51 -30 83 -30c52 0 82 26 93 71c-26 -10 -57 -17 -88 -17c-87 0 -142 52 -142 121c0 79 64 135 160 135c112 0 174 -75 174 -189c0 -134 -73 -215 -191 -215zM208 489c28 0 54 3 75 10c-5 44 -33 71 -73 71s-64 -16 -64 -41
c0 -27 20 -40 62 -40z" />
    <glyph glyph-name="uni2070" unicode="&#x2070;" horiz-adv-x="483" 
d="M241 324c-110 0 -182 77 -182 203c0 123 73 201 182 201c110 0 183 -78 183 -201c0 -125 -73 -203 -183 -203zM241 428c49 0 68 39 68 98c0 58 -17 99 -66 99s-69 -40 -69 -99c0 -56 17 -98 67 -98z" />
    <glyph glyph-name="uni00B9" unicode="&#xb9;" horiz-adv-x="382" 
d="M167 332v288l-96 -22v87l121 38h85v-391h-110z" />
    <glyph glyph-name="uni00B2" unicode="&#xb2;" horiz-adv-x="455" 
d="M69 332v72l141 117c38 33 58 47 58 67c0 25 -19 37 -54 37c-29 0 -65 -15 -97 -43l-62 78c45 41 105 69 172 69c94 0 157 -49 157 -123c0 -46 -21 -79 -67 -114l-79 -62h145v-98h-314z" />
    <glyph glyph-name="uni00B3" unicode="&#xb3;" horiz-adv-x="459" 
d="M219 324c-67 0 -122 25 -154 59l61 67c24 -21 53 -33 88 -33c39 0 66 15 66 39c0 20 -20 35 -56 35h-76v65l91 71h-161v95h290v-69l-101 -86c76 -8 125 -50 125 -114c0 -83 -68 -129 -173 -129z" />
    <glyph glyph-name="uni2074" unicode="&#x2074;" horiz-adv-x="465" 
d="M258 332v83h-204v69l204 239h99v-219h52v-89h-52v-83h-99zM170 504h88v100z" />
    <glyph glyph-name="uni2075" unicode="&#x2075;" horiz-adv-x="439" 
d="M204 324c-68 0 -120 24 -152 59l64 67c22 -20 46 -30 83 -30c36 0 61 13 61 37s-20 35 -54 35h-126v66l34 164h233v-95h-163l-9 -50h41c100 0 159 -43 159 -119c0 -84 -65 -134 -171 -134z" />
    <glyph glyph-name="uni2076" unicode="&#x2076;" horiz-adv-x="454" 
d="M237 324c-112 0 -174 70 -174 190c0 127 76 214 192 214c60 0 111 -20 144 -57l-57 -66c-25 23 -50 29 -80 29c-46 0 -80 -23 -93 -68c26 9 56 15 87 15c87 0 142 -47 142 -118c0 -81 -62 -139 -161 -139zM236 416c43 0 65 14 65 42c0 24 -22 40 -62 40
c-27 0 -53 -4 -74 -11c5 -47 31 -71 71 -71z" />
    <glyph glyph-name="uni2077" unicode="&#x2077;" horiz-adv-x="434" 
d="M117 332l133 291h-185v100h313v-51l-146 -340h-115z" />
    <glyph glyph-name="uni2078" unicode="&#x2078;" horiz-adv-x="481" 
d="M241 324c-101 0 -169 43 -169 111c0 37 25 71 61 96c-29 20 -47 49 -47 87c0 65 67 110 154 110c93 0 154 -42 154 -108c0 -31 -20 -59 -47 -80c36 -22 61 -55 61 -99c0 -69 -70 -117 -167 -117zM269 569c22 11 32 27 32 41c0 20 -25 35 -60 35c-33 0 -58 -13 -58 -31
c0 -23 27 -33 75 -43zM240 411c36 0 68 12 68 38c0 29 -35 36 -83 47l-16 3c-26 -13 -37 -29 -37 -46c0 -25 28 -42 68 -42z" />
    <glyph glyph-name="uni2079" unicode="&#x2079;" horiz-adv-x="439" 
d="M192 324c-61 0 -111 21 -144 57l55 67c27 -22 51 -30 83 -30c52 0 82 26 93 71c-26 -10 -57 -17 -88 -17c-87 0 -142 52 -142 121c0 79 64 135 160 135c112 0 174 -75 174 -189c0 -134 -73 -215 -191 -215zM208 556c28 0 54 3 75 10c-5 44 -33 71 -73 71s-64 -16 -64 -41
c0 -27 20 -40 62 -40z" />
    <glyph glyph-name="fraction" unicode="&#x2044;" horiz-adv-x="191" 
d="M-223 0l486 657h151l-486 -657h-151z" />
    <glyph glyph-name="onehalf" unicode="&#xbd;" horiz-adv-x="1010" 
d="M143 0l485 657h151l-485 -657h-151zM167 265v288l-96 -22v87l121 38h85v-391h-110zM623 0v72l141 117c39 33 59 47 59 67c0 25 -19 37 -54 37c-29 0 -65 -15 -97 -43l-62 78c45 41 104 69 172 69c94 0 157 -49 157 -123c0 -46 -21 -79 -67 -114l-79 -62h144v-98h-314z
" />
    <glyph glyph-name="onequarter" unicode="&#xbc;" horiz-adv-x="941" 
d="M150 0l486 657h151l-485 -657h-152zM167 265v288l-96 -22v87l121 38h85v-391h-110zM734 0v83h-204v69l204 239h98v-219h53v-89h-53v-83h-98zM646 172h88v100z" />
    <glyph glyph-name="threequarters" unicode="&#xbe;" horiz-adv-x="1000" 
d="M208 0l485 657h151l-485 -657h-151zM219 257c-67 0 -122 25 -154 59l61 67c24 -21 53 -33 88 -33c39 0 66 15 66 39c0 20 -20 35 -56 35h-76v65l91 71h-161v95h290v-69l-101 -86c76 -8 125 -50 125 -114c0 -83 -68 -129 -173 -129zM792 0v83h-203v69l203 239h99v-219h52
v-89h-52v-83h-99zM704 172h88v100z" />
    <glyph glyph-name="period" unicode="." horiz-adv-x="253" 
d="M125 -11c-49 0 -87 37 -87 87c0 52 38 87 87 87c52 0 89 -35 89 -87c0 -50 -37 -87 -89 -87z" />
    <glyph glyph-name="comma" unicode="," horiz-adv-x="253" 
d="M6 -120c36 88 60 188 67 263h138c-7 -89 -41 -188 -82 -263h-123z" />
    <glyph glyph-name="colon" unicode=":" horiz-adv-x="253" 
d="M125 359c-49 0 -87 36 -87 86c0 52 38 88 87 88c52 0 89 -36 89 -88c0 -50 -37 -86 -89 -86zM125 -11c-49 0 -87 37 -87 87c0 52 38 87 87 87c52 0 89 -35 89 -87c0 -50 -37 -87 -89 -87z" />
    <glyph glyph-name="semicolon" unicode=";" horiz-adv-x="253" 
d="M134 359c-50 0 -88 36 -88 86c0 52 38 88 88 88c51 0 88 -36 88 -88c0 -50 -37 -86 -88 -86zM1 -120c36 88 60 188 67 263h138c-8 -89 -41 -188 -83 -263h-122z" />
    <glyph glyph-name="ellipsis" unicode="&#x2026;" horiz-adv-x="748" 
d="M125 -11c-49 0 -87 37 -87 87c0 52 38 87 87 87c52 0 89 -35 89 -87c0 -50 -37 -87 -89 -87zM373 -11c-50 0 -88 37 -88 87c0 52 38 87 88 87c52 0 89 -35 89 -87c0 -50 -37 -87 -89 -87zM621 -11c-50 0 -88 37 -88 87c0 52 38 87 88 87c51 0 88 -35 88 -87
c0 -50 -37 -87 -88 -87z" />
    <glyph glyph-name="exclam" unicode="!" horiz-adv-x="304" 
d="M85 230l-13 446h161l-14 -446h-134zM151 -11c-49 0 -87 37 -87 87c0 52 38 87 87 87c52 0 89 -35 89 -87c0 -50 -37 -87 -89 -87z" />
    <glyph glyph-name="exclamdown" unicode="&#xa1;" horiz-adv-x="306" 
d="M154 363c-51 0 -88 35 -88 87c0 51 37 87 88 87c50 0 88 -36 88 -87c0 -52 -38 -87 -88 -87zM73 -150l14 446h134l12 -446h-160z" />
    <glyph glyph-name="question" unicode="?" horiz-adv-x="543" 
d="M180 230v19c0 67 47 114 94 152c37 30 69 58 69 88c0 39 -29 58 -80 58c-54 0 -108 -20 -156 -64l-87 101c63 65 160 104 260 104c136 0 223 -73 223 -182c0 -62 -36 -108 -89 -151c-45 -36 -87 -71 -87 -116v-9h-147zM253 -11c-50 0 -88 37 -88 87c0 52 38 87 88 87
c52 0 89 -35 89 -87c0 -50 -37 -87 -89 -87z" />
    <glyph glyph-name="questiondown" unicode="&#xbf;" horiz-adv-x="537" 
d="M293 363c-52 0 -89 35 -89 87c0 51 37 87 89 87c50 0 88 -36 88 -87c0 -52 -38 -87 -88 -87zM266 -162c-136 0 -223 73 -223 182c0 63 36 108 89 151c45 36 87 72 87 117v8h147v-18c0 -68 -47 -115 -94 -153c-37 -30 -69 -58 -69 -87c0 -40 29 -59 80 -59
c54 0 108 20 156 64l87 -101c-63 -65 -160 -104 -260 -104z" />
    <glyph glyph-name="periodcentered" unicode="&#xb7;" horiz-adv-x="253" 
d="M125 281c-49 0 -87 36 -87 86c0 52 38 87 87 87c52 0 89 -35 89 -87c0 -50 -37 -86 -89 -86z" />
    <glyph glyph-name="bullet" unicode="&#x2022;" horiz-adv-x="428" 
d="M213 207c-75 0 -138 60 -138 138c0 79 63 139 138 139c77 0 140 -60 140 -139c0 -78 -63 -138 -140 -138z" />
    <glyph glyph-name="asterisk" unicode="*" horiz-adv-x="466" 
d="M176 321l10 105l-82 -67l-66 92l103 56l-103 57l66 93l82 -68l-10 106h114l-10 -105l82 67l66 -93l-104 -57l104 -56l-66 -92l-82 67l10 -105h-114z" />
    <glyph glyph-name="numbersign" unicode="#" horiz-adv-x="659" 
d="M108 27l17 121h-88l16 113h87l20 141h-87l16 113h87l16 114h128l-16 -114h103l16 114h128l-16 -114h87l-16 -113h-87l-19 -141h87l-17 -113h-87l-17 -121h-127l17 121h-103l-17 -121h-128zM268 261h103l20 141h-103z" />
    <glyph glyph-name="slash" unicode="/" horiz-adv-x="507" 
d="M17 -150l312 885h162l-312 -885h-162z" />
    <glyph glyph-name="backslash" unicode="\" horiz-adv-x="507" 
d="M329 -150l-312 885h162l312 -885h-162z" />
    <glyph glyph-name="exclamdown.case" horiz-adv-x="304" 
d="M153 513c-52 0 -89 35 -89 87c0 51 37 87 89 87c49 0 87 -36 87 -87c0 -52 -38 -87 -87 -87zM71 0l14 446h134l13 -446h-161z" />
    <glyph glyph-name="questiondown.case" horiz-adv-x="543" 
d="M290 513c-52 0 -89 35 -89 87c0 51 37 87 89 87c50 0 88 -36 88 -87c0 -52 -38 -87 -88 -87zM263 -12c-136 0 -223 73 -223 182c0 63 36 108 89 151c45 36 87 72 87 117v8h147v-18c0 -68 -47 -115 -94 -153c-37 -30 -69 -58 -69 -87c0 -39 29 -59 80 -59
c54 0 108 20 156 64l87 -101c-63 -64 -160 -104 -260 -104z" />
    <glyph glyph-name="slash.case" horiz-adv-x="507" 
d="M17 -108l312 885h162l-312 -885h-162z" />
    <glyph glyph-name="backslash.case" horiz-adv-x="507" 
d="M329 -108l-312 885h162l312 -885h-162z" />
    <glyph glyph-name="parenleft" unicode="(" horiz-adv-x="393" 
d="M220 -152c-107 119 -157 284 -157 444c0 158 52 324 157 443h153c-96 -123 -162 -288 -162 -443c0 -156 66 -320 162 -444h-153z" />
    <glyph glyph-name="parenright" unicode=")" horiz-adv-x="393" 
d="M20 -152c96 124 162 289 162 444c0 156 -66 319 -162 443h153c106 -118 157 -283 157 -443c0 -158 -52 -324 -157 -444h-153z" />
    <glyph glyph-name="braceleft" unicode="{" horiz-adv-x="490" 
d="M339 -152c-145 0 -223 79 -223 224v40c0 63 -21 104 -78 129v101c57 26 78 67 78 130v40c0 145 78 223 223 223h123l-21 -146h-71c-66 0 -103 -37 -103 -103v-52c0 -67 -22 -106 -74 -142c52 -36 74 -74 74 -142v-52c0 -67 37 -103 103 -103h71l21 -147h-123z" />
    <glyph glyph-name="braceright" unicode="}" horiz-adv-x="490" 
d="M27 -152l21 146h72c66 0 103 37 103 104v51c0 68 22 107 74 143c-52 35 -74 74 -74 142v52c0 67 -37 103 -103 103h-72l-21 146h124c145 0 223 -79 223 -223v-41c0 -63 21 -103 78 -129v-100c-57 -26 -78 -68 -78 -130v-40c0 -145 -78 -224 -223 -224h-124z" />
    <glyph glyph-name="bracketleft" unicode="[" horiz-adv-x="481" 
d="M96 -152v887h357l-20 -147h-182v-592h182l20 -148h-357z" />
    <glyph glyph-name="bracketright" unicode="]" horiz-adv-x="481" 
d="M28 -152l20 148h183v591h-183l-20 148h357v-887h-357z" />
    <glyph glyph-name="parenleft.case" horiz-adv-x="393" 
d="M220 -110c-107 119 -157 284 -157 444c0 157 52 324 157 443h153c-96 -123 -162 -289 -162 -443c0 -156 66 -320 162 -444h-153z" />
    <glyph glyph-name="parenright.case" horiz-adv-x="393" 
d="M20 -110c96 124 162 289 162 444s-66 319 -162 443h153c106 -118 157 -284 157 -443c0 -158 -52 -324 -157 -444h-153z" />
    <glyph glyph-name="braceleft.case" horiz-adv-x="490" 
d="M339 -110c-145 0 -223 79 -223 224v40c0 63 -21 104 -78 129v101c57 25 78 67 78 129v41c0 144 78 223 223 223h123l-21 -146h-71c-66 0 -103 -37 -103 -103v-52c0 -68 -22 -107 -74 -142c52 -36 74 -74 74 -143v-51c0 -67 37 -103 103 -103h71l21 -147h-123z" />
    <glyph glyph-name="braceright.case" horiz-adv-x="490" 
d="M27 -110l21 146h72c66 0 103 37 103 104v51c0 68 22 107 74 143c-52 35 -74 73 -74 142v52c0 66 -37 103 -103 103h-72l-21 146h124c145 0 223 -79 223 -223v-41c0 -63 21 -104 78 -129v-101c-57 -25 -78 -67 -78 -129v-40c0 -145 -78 -224 -223 -224h-124z" />
    <glyph glyph-name="bracketleft.case" horiz-adv-x="481" 
d="M96 -110v887h357l-20 -147h-182v-592h182l20 -148h-357z" />
    <glyph glyph-name="bracketright.case" horiz-adv-x="481" 
d="M28 -110l20 148h183v591h-183l-20 148h357v-887h-357z" />
    <glyph glyph-name="hyphen" unicode="-" horiz-adv-x="458" 
d="M55 240v135h348v-135h-348z" />
    <glyph glyph-name="uni00AD" unicode="&#xad;" horiz-adv-x="458" 
d="M55 240v135h348v-135h-348z" />
    <glyph glyph-name="endash" unicode="&#x2013;" horiz-adv-x="490" 
d="M0 241v132h490v-132h-490z" />
    <glyph glyph-name="emdash" unicode="&#x2014;" horiz-adv-x="980" 
d="M0 241v132h980v-132h-980z" />
    <glyph glyph-name="underscore" unicode="_" horiz-adv-x="490" 
d="M0 -195v124h490v-124h-490z" />
    <glyph glyph-name="hyphen.case" horiz-adv-x="458" 
d="M55 277v135h348v-135h-348z" />
    <glyph glyph-name="endash.case" horiz-adv-x="490" 
d="M0 279v132h490v-132h-490z" />
    <glyph glyph-name="emdash.case" horiz-adv-x="980" 
d="M0 279v132h980v-132h-980z" />
    <glyph glyph-name="quotesinglbase" unicode="&#x201a;" horiz-adv-x="266" 
d="M13 -120c35 88 59 188 66 263h139c-8 -89 -41 -188 -83 -263h-122z" />
    <glyph glyph-name="quotedblbase" unicode="&#x201e;" horiz-adv-x="480" 
d="M13 -120c35 88 59 188 66 263h139c-8 -89 -41 -188 -83 -263h-122zM227 -120c35 88 59 188 66 263h139c-8 -89 -41 -188 -83 -263h-122z" />
    <glyph glyph-name="quotedblleft" unicode="&#x201c;" horiz-adv-x="486" 
d="M46 418c9 88 40 184 81 258h122c-35 -88 -57 -184 -64 -258h-139zM260 418c9 88 40 184 81 258h122c-35 -88 -57 -184 -64 -258h-139z" />
    <glyph glyph-name="quotedblright" unicode="&#x201d;" horiz-adv-x="486" 
d="M25 417c35 88 57 185 64 259h139c-9 -88 -40 -184 -81 -259h-122zM239 417c35 88 57 185 64 259h139c-9 -88 -40 -184 -81 -259h-122z" />
    <glyph glyph-name="quoteleft" unicode="&#x2018;" horiz-adv-x="272" 
d="M46 418c9 88 40 184 81 258h122c-35 -88 -57 -184 -64 -258h-139z" />
    <glyph glyph-name="quoteright" unicode="&#x2019;" horiz-adv-x="272" 
d="M25 417c35 88 57 185 64 259h139c-9 -88 -40 -184 -81 -259h-122z" />
    <glyph glyph-name="guillemotleft" unicode="&#xab;" horiz-adv-x="592" 
d="M184 72l-135 205l135 204h149l-132 -204l132 -205h-149zM416 72l-135 205l135 204h149l-132 -204l132 -205h-149z" />
    <glyph glyph-name="guillemotright" unicode="&#xbb;" horiz-adv-x="592" 
d="M35 72l132 204l-132 205h149l135 -205l-135 -204h-149zM267 72l132 204l-132 205h149l135 -205l-135 -204h-149z" />
    <glyph glyph-name="guilsinglleft" unicode="&#x2039;" horiz-adv-x="360" 
d="M184 72l-135 205l135 204h149l-132 -204l132 -205h-149z" />
    <glyph glyph-name="guilsinglright" unicode="&#x203a;" horiz-adv-x="360" 
d="M35 72l132 204l-132 205h149l135 -205l-135 -204h-149z" />
    <glyph glyph-name="quotedbl" unicode="&#x22;" horiz-adv-x="491" 
d="M73 393l-9 283h148l-10 -283h-129zM289 393l-10 283h148l-9 -283h-129z" />
    <glyph glyph-name="quotesingle" unicode="'" horiz-adv-x="276" 
d="M73 393l-9 283h148l-10 -283h-129z" />
    <glyph glyph-name="guillemotleft.case" horiz-adv-x="592" 
d="M184 136l-135 205l135 204h149l-132 -204l132 -205h-149zM416 136l-135 205l135 204h149l-132 -204l132 -205h-149z" />
    <glyph glyph-name="guillemotright.case" horiz-adv-x="592" 
d="M35 136l132 204l-132 205h149l135 -205l-135 -204h-149zM267 136l132 204l-132 205h149l135 -205l-135 -204h-149z" />
    <glyph glyph-name="guilsinglleft.case" horiz-adv-x="360" 
d="M184 136l-135 205l135 204h149l-132 -204l132 -205h-149z" />
    <glyph glyph-name="guilsinglright.case" horiz-adv-x="360" 
d="M35 136l132 204l-132 205h149l135 -205l-135 -204h-149z" />
    <glyph glyph-name="period.dnom" horiz-adv-x="198" 
d="M95 -8c-41 0 -73 30 -73 72s32 72 73 72c43 0 74 -30 74 -72s-31 -72 -74 -72z" />
    <glyph glyph-name="comma.dnom" horiz-adv-x="198" 
d="M-3 -59c25 69 40 133 46 185h118c-6 -59 -28 -129 -60 -185h-104z" />
    <glyph glyph-name="period.numr" horiz-adv-x="198" 
d="M99 257c-41 0 -73 30 -73 72s32 72 73 72c42 0 73 -30 73 -72s-31 -72 -73 -72z" />
    <glyph glyph-name="comma.numr" horiz-adv-x="198" 
d="M7 206c25 69 40 133 46 185h118c-6 -58 -28 -129 -60 -185h-104z" />
    <glyph glyph-name="period.subs" horiz-adv-x="198" 
d="M99 -86c-41 0 -73 30 -73 72c0 43 32 72 73 72c42 0 73 -29 73 -72c0 -42 -31 -72 -73 -72z" />
    <glyph glyph-name="comma.subs" horiz-adv-x="198" 
d="M7 -144c25 69 40 132 46 185h118c-6 -59 -28 -129 -60 -185h-104z" />
    <glyph glyph-name="uni00A0" unicode="&#xa0;" horiz-adv-x="255" 
 />
    <glyph glyph-name="cent" unicode="&#xa2;" 
d="M254 -71v152c-115 26 -188 116 -188 256c0 123 74 221 186 252v124l142 23v-144c55 -12 99 -41 130 -78l-82 -85c-27 27 -59 46 -104 46c-77 0 -127 -57 -127 -138c0 -82 52 -138 126 -138c45 0 82 18 112 48l81 -89c-36 -39 -81 -66 -136 -78v-129z" />
    <glyph glyph-name="currency" unicode="&#xa4;" 
d="M108 61l-95 94l75 75c-14 30 -22 63 -22 101c0 36 8 70 23 100l-76 76l95 93l76 -75c32 17 69 27 109 27c41 0 78 -9 111 -27l75 75l94 -93l-75 -76c14 -29 23 -64 23 -101c0 -36 -9 -70 -23 -99l75 -76l-94 -94l-76 76c-32 -18 -70 -27 -110 -27s-78 9 -109 25zM292 223
c63 0 102 48 102 107c0 58 -38 108 -101 108c-61 0 -100 -48 -100 -107c0 -60 39 -108 99 -108z" />
    <glyph glyph-name="dollar" unicode="$" 
d="M220 -152v151c-81 13 -146 48 -203 100l77 104c51 -48 125 -75 203 -75c61 0 94 19 94 61c0 50 -38 66 -124 84c-143 31 -221 75 -221 206c0 91 67 163 172 185v117l143 22v-139c68 -13 126 -48 173 -99l-84 -91c-46 49 -112 66 -163 66c-57 0 -90 -19 -90 -59
c0 -47 32 -57 123 -79c152 -36 225 -93 225 -207c0 -102 -66 -177 -184 -196v-128z" />
    <glyph glyph-name="Euro" unicode="&#x20ac;" 
d="M365 -12c-138 0 -239 86 -276 222h-82l25 91h43v27c0 10 0 20 1 30h-69l25 90h60c39 132 144 220 274 220c98 0 169 -41 215 -92l-89 -91c-32 30 -69 48 -119 48c-58 0 -105 -31 -131 -85h179l-25 -90h-178c-1 -10 -1 -20 -1 -30s0 -19 1 -27h166l-25 -91h-117
c26 -54 72 -86 130 -86c46 0 83 13 125 51l89 -93c-56 -58 -123 -94 -221 -94z" />
    <glyph glyph-name="florin" unicode="&#x192;" 
d="M16 0v127h56c75 0 111 30 130 112l7 34h-117v127h145l8 36c32 150 112 221 263 221h61v-127h-53c-75 0 -113 -32 -129 -112l-4 -18h126v-127h-152l-11 -52c-30 -150 -111 -221 -263 -221h-67z" />
    <glyph glyph-name="sterling" unicode="&#xa3;" 
d="M69 0v99l37 161h-77v127h106l9 41c33 146 119 229 265 229h131v-133h-124c-71 0 -120 -36 -136 -113l-6 -24h199v-127h-225l-27 -127h331v-133h-483z" />
    <glyph glyph-name="yen" unicode="&#xa5;" 
d="M220 0v101h-154v94h154v61h-154v94h102l-160 307h175l113 -259l113 259h169l-160 -307h102v-94h-153v-61h153v-94h-153v-101h-147z" />
    <glyph glyph-name="plus" unicode="+" 
d="M227 100v164h-164v133h164v163h133v-163h163v-133h-163v-164h-133z" />
    <glyph glyph-name="minus" unicode="&#x2212;" 
d="M77 262v137h432v-137h-432z" />
    <glyph glyph-name="multiply" unicode="&#xd7;" 
d="M173 117l-93 94l120 120l-120 119l93 94l120 -120l120 120l93 -94l-119 -119l119 -120l-93 -94l-120 120z" />
    <glyph glyph-name="divide" unicode="&#xf7;" 
d="M292 446c-45 0 -80 32 -80 79s35 79 80 79c48 0 81 -32 81 -79s-33 -79 -81 -79zM77 262v137h432v-137h-432zM292 57c-45 0 -80 33 -80 79c0 47 35 80 80 80c48 0 81 -33 81 -80c0 -46 -33 -79 -81 -79z" />
    <glyph glyph-name="equal" unicode="=" 
d="M77 379v138h432v-138h-432zM77 142v137h432v-137h-432z" />
    <glyph glyph-name="notequal" unicode="&#x2260;" 
d="M222 15l-120 51l35 76h-60v137h122l47 100h-169v138h231l57 123l121 -49l-35 -74h58v-138h-120l-47 -100h167v-137h-229z" />
    <glyph glyph-name="greater" unicode="&#x3e;" 
d="M155 75l-68 118l249 138l-249 138l68 119l339 -195v-123z" />
    <glyph glyph-name="less" unicode="&#x3c;" 
d="M431 74l-339 195v123l339 195l68 -117l-249 -138l249 -139z" />
    <glyph glyph-name="greaterequal" unicode="&#x2265;" 
d="M136 186l-43 118l252 105l-252 106l43 120l356 -163v-123zM79 0v134h413v-134h-413z" />
    <glyph glyph-name="lessequal" unicode="&#x2264;" 
d="M450 186l-355 163v123l355 163l44 -119l-253 -105l253 -106zM95 0v134h412v-134h-412z" />
    <glyph glyph-name="plusminus" unicode="&#xb1;" 
d="M523 297h-163v-161h149v-138h-432v138h150v161h-164v132h164v164h133v-164h163v-132z" />
    <glyph glyph-name="approxequal" unicode="&#x2248;" 
d="M394 350c-41 0 -73 20 -101 37c-25 16 -47 29 -71 29c-33 0 -57 -16 -58 -63h-123c2 111 53 193 152 193c42 0 75 -20 104 -37c24 -16 45 -29 70 -29c33 0 55 20 56 64h122c-1 -110 -52 -194 -151 -194zM394 111c-41 0 -73 20 -101 37c-25 16 -47 29 -71 29
c-33 0 -57 -16 -58 -63h-123c2 111 53 193 152 193c42 0 75 -20 104 -37c24 -16 45 -29 70 -29c33 0 55 20 56 64h122c-1 -110 -52 -194 -151 -194z" />
    <glyph glyph-name="asciitilde" unicode="~" 
d="M394 228c-41 0 -73 19 -101 37c-25 16 -47 29 -71 29c-33 0 -57 -17 -58 -63h-123c2 111 53 193 152 193c42 0 75 -20 104 -38c24 -15 45 -28 70 -28c33 0 55 19 56 64h122c-1 -110 -52 -194 -151 -194z" />
    <glyph glyph-name="logicalnot" unicode="&#xac;" 
d="M374 147v165h-302v132h435v-297h-133z" />
    <glyph glyph-name="asciicircum" unicode="^" 
d="M47 339l176 337h143l174 -337h-155l-91 194l-91 -194h-156z" />
    <glyph glyph-name="uni00B5" unicode="&#xb5;" horiz-adv-x="634" 
d="M66 -221v746h150v-280c0 -83 22 -124 93 -124c41 0 79 24 108 65v339h151v-525h-110l-22 68c-47 -50 -106 -80 -174 -80c-18 0 -33 4 -46 13v-201z" />
    <glyph glyph-name="percent" unicode="%" horiz-adv-x="1054" 
d="M241 257c-110 0 -182 77 -182 203c0 123 73 201 182 201c110 0 183 -78 183 -201c0 -125 -73 -203 -183 -203zM209 0l485 657h151l-485 -657h-151zM241 361c49 0 68 39 68 98c0 58 -17 99 -66 99s-69 -40 -69 -99c0 -56 17 -98 67 -98zM812 -8c-110 0 -182 77 -182 203
c0 123 74 201 182 201c110 0 183 -78 183 -201c0 -125 -73 -203 -183 -203zM812 96c49 0 68 39 68 98c0 58 -17 99 -66 99s-69 -40 -69 -99c0 -56 17 -98 67 -98z" />
    <glyph glyph-name="perthousand" unicode="&#x2030;" horiz-adv-x="1467" 
d="M241 257c-110 0 -182 77 -182 203c0 123 73 201 182 201c110 0 183 -78 183 -201c0 -125 -73 -203 -183 -203zM209 0l485 657h151l-485 -657h-151zM241 361c49 0 68 39 68 98c0 58 -17 99 -66 99s-69 -40 -69 -99c0 -56 17 -98 67 -98zM812 -8c-110 0 -182 77 -182 203
c0 123 74 201 182 201c110 0 183 -78 183 -201c0 -125 -73 -203 -183 -203zM1225 -8c-110 0 -182 77 -182 203c0 123 73 201 182 201c110 0 183 -78 183 -201c0 -125 -73 -203 -183 -203zM812 96c49 0 68 39 68 98c0 58 -17 99 -66 99s-69 -40 -69 -99c0 -56 17 -98 67 -98z
M1225 96c49 0 68 39 68 98c0 58 -17 99 -66 99s-69 -40 -69 -99c0 -56 17 -98 67 -98z" />
    <glyph glyph-name="at" unicode="@" horiz-adv-x="989" 
d="M474 -175c-243 0 -416 182 -416 428c0 256 217 449 466 449c242 0 418 -139 418 -347c0 -183 -137 -299 -291 -299h-54l-22 46c-34 -32 -74 -49 -116 -49c-107 0 -174 80 -174 207c0 120 86 207 194 207c36 0 78 -13 111 -41l11 33h100v-302c81 18 136 82 136 197
c0 150 -124 247 -313 247c-196 0 -359 -144 -359 -347c0 -193 122 -329 310 -329c96 0 155 26 211 67l62 -74c-69 -60 -156 -93 -274 -93zM494 169c30 0 54 16 73 38v128c-20 13 -42 19 -64 19c-53 0 -85 -35 -85 -99c0 -51 27 -86 76 -86z" />
    <glyph glyph-name="ampersand" unicode="&#x26;" horiz-adv-x="681" 
d="M291 -12c-147 0 -251 82 -251 208c0 80 47 144 127 192c-26 39 -38 73 -38 115c0 107 91 185 222 185c86 0 151 -41 204 -100l-89 -94c-35 38 -67 57 -116 57c-51 0 -79 -27 -79 -65c0 -42 48 -83 106 -150l100 -117c17 34 25 72 25 109v36h124v-39
c0 -73 -23 -145 -66 -203l103 -122h-160l-35 38c-49 -31 -109 -50 -177 -50zM310 113c29 0 55 7 77 18l-149 168c-37 -24 -61 -53 -61 -93c0 -56 54 -93 133 -93z" />
    <glyph glyph-name="paragraph" unicode="&#xb6;" horiz-adv-x="632" 
d="M281 -189v140h21c62 0 95 40 95 107v599l151 21v-634c0 -147 -84 -233 -226 -233h-41zM329 192c-179 0 -281 82 -281 216c0 124 81 209 214 230l67 11v-457z" />
    <glyph glyph-name="section" unicode="&#xa7;" horiz-adv-x="523" 
d="M88 -180v126h84c53 0 82 19 82 49c0 28 -21 48 -56 76l-72 57c-50 40 -83 85 -83 153c0 64 42 119 111 147c-14 22 -22 44 -22 70c0 110 83 178 229 178h69v-126h-77c-54 0 -81 -20 -81 -51c0 -29 21 -48 55 -76l70 -57c56 -44 83 -95 83 -151c0 -64 -42 -119 -110 -146
c15 -22 24 -45 24 -72c0 -110 -85 -177 -230 -177h-76zM286 154h1c42 1 68 23 68 55c0 26 -15 46 -45 71l-75 63h-1c-40 -2 -66 -22 -66 -56c0 -27 18 -50 45 -72z" />
    <glyph glyph-name="copyright" unicode="&#xa9;" horiz-adv-x="800" 
d="M399 -12c-195 0 -353 139 -353 350c0 205 160 350 353 350c194 0 355 -142 355 -350c0 -209 -162 -350 -355 -350zM399 50c166 0 292 116 292 288s-125 289 -292 289s-289 -119 -289 -289c0 -174 120 -288 289 -288zM407 145c-117 0 -194 71 -194 193
c0 110 82 193 195 193c55 0 110 -25 141 -65l-64 -68c-18 19 -39 33 -71 33c-53 0 -87 -37 -87 -93s33 -93 86 -93c32 0 58 14 79 35l62 -71c-36 -39 -88 -64 -147 -64z" />
    <glyph glyph-name="registered" unicode="&#xae;" horiz-adv-x="580" 
d="M290 234c-140 0 -254 99 -254 249c0 146 116 250 254 250c139 0 254 -102 254 -250c0 -149 -116 -249 -254 -249zM290 286c117 0 199 81 199 197c0 117 -81 198 -199 198s-199 -81 -199 -198c0 -116 81 -197 199 -197zM189 368v240h109c60 0 99 -33 99 -81
c0 -27 -16 -48 -39 -60c8 -7 15 -17 22 -29l35 -70h-77l-18 36c-13 23 -19 32 -42 32h-20v-68h-69zM258 497h32c22 0 34 8 34 25s-12 26 -34 26h-32v-51z" />
    <glyph glyph-name="trademark" unicode="&#x2122;" horiz-adv-x="927" 
d="M142 299v277h-114v100h330v-100h-112v-277h-104zM425 299v377h105l113 -198l114 198h105v-377h-105v206l-72 -135h-86l-73 134v-205h-101z" />
    <glyph glyph-name="degree" unicode="&#xb0;" horiz-adv-x="405" 
d="M203 380c-86 0 -157 70 -157 156s71 157 157 157s155 -71 155 -157s-69 -156 -155 -156zM203 475c34 0 60 27 60 61s-26 62 -60 62c-35 0 -61 -28 -61 -62s26 -61 61 -61z" />
    <glyph glyph-name="bar" unicode="|" horiz-adv-x="349" 
d="M96 -152v887h158v-887h-158z" />
    <glyph glyph-name="brokenbar" unicode="&#xa6;" horiz-adv-x="349" 
d="M96 400v335h158v-335h-158zM96 -152v336h158v-336h-158z" />
    <glyph glyph-name="dagger" unicode="&#x2020;" horiz-adv-x="404" 
d="M149 278v203h-114v101h114v94l105 19v-113h114v-101h-114v-203h-105z" />
    <glyph glyph-name="daggerdbl" unicode="&#x2021;" horiz-adv-x="419" 
d="M158 278v86h-114v91h114v55h-114v91h114v75l103 19v-94h114v-91h-114v-55h114v-91h-114v-86h-103z" />
    <glyph glyph-name="at.case" horiz-adv-x="989" 
d="M474 -107c-243 0 -416 181 -416 428c0 256 217 449 466 449c242 0 418 -140 418 -348c0 -182 -137 -299 -291 -299h-54l-22 47c-34 -32 -74 -49 -116 -49c-107 0 -174 80 -174 207c0 119 86 207 194 207c36 0 78 -14 111 -42l11 33h100v-301c81 18 136 82 136 196
c0 151 -124 248 -313 248c-196 0 -359 -145 -359 -347c0 -194 122 -330 310 -330c96 0 155 27 211 68l62 -74c-69 -60 -156 -93 -274 -93zM494 237c30 0 54 15 73 37v128c-20 13 -42 20 -64 20c-53 0 -85 -36 -85 -99c0 -51 27 -86 76 -86z" />
    <glyph glyph-name="uni0308" unicode="&#x308;" horiz-adv-x="0" 
d="M-404 597c-46 0 -81 30 -81 74s35 74 81 74s81 -30 81 -74s-35 -74 -81 -74zM-184 597c-46 0 -80 30 -80 74s34 74 80 74s81 -30 81 -74s-35 -74 -81 -74z" />
    <glyph glyph-name="uni0307" unicode="&#x307;" horiz-adv-x="0" 
d="M-294 594c-50 0 -88 33 -88 81c0 47 38 80 88 80c51 0 89 -33 89 -80c0 -48 -38 -81 -89 -81z" />
    <glyph glyph-name="gravecomb" unicode="&#x300;" horiz-adv-x="0" 
d="M-290 601l-146 148h153l132 -148h-139z" />
    <glyph glyph-name="acutecomb" unicode="&#x301;" horiz-adv-x="0" 
d="M-436 601l131 148h154l-146 -148h-139z" />
    <glyph glyph-name="uni0302" unicode="&#x302;" horiz-adv-x="0" 
d="M-490 601l131 148h131l130 -148h-126l-70 73l-70 -73h-126z" />
    <glyph glyph-name="uni030C" unicode="&#x30c;" horiz-adv-x="0" 
d="M-359 601l-131 148h127l69 -74l71 74h125l-130 -148h-131z" />
    <glyph glyph-name="uni030A" unicode="&#x30a;" horiz-adv-x="0" 
d="M-293 591c-72 0 -131 56 -131 128c0 73 59 128 131 128c71 0 130 -55 130 -128s-59 -128 -130 -128zM-293 664c29 0 52 24 52 55s-23 53 -52 53c-30 0 -52 -22 -52 -53s22 -55 52 -55z" />
    <glyph glyph-name="tildecomb" unicode="&#x303;" horiz-adv-x="0" 
d="M-210 596c-34 0 -56 11 -82 26c-25 16 -46 28 -73 28c-36 0 -64 -14 -96 -36v98c31 23 60 39 97 39c35 0 58 -12 84 -27c26 -14 47 -27 73 -27c43 0 71 18 98 37v-100c-28 -19 -58 -38 -101 -38z" />
    <glyph glyph-name="uni0327" unicode="&#x327;" horiz-adv-x="0" 
d="M-393 -202v95h31c37 0 59 15 59 43c0 29 -11 43 -41 76l77 26c44 -36 72 -70 72 -119c0 -77 -65 -121 -163 -121h-35z" />
    <glyph glyph-name="dieresis" unicode="&#xa8;" horiz-adv-x="588" 
d="M184 597c-46 0 -81 30 -81 74s35 74 81 74s81 -30 81 -74s-35 -74 -81 -74zM404 597c-46 0 -80 30 -80 74s34 74 80 74s81 -30 81 -74s-35 -74 -81 -74z" />
    <glyph glyph-name="dotaccent" unicode="&#x2d9;" horiz-adv-x="588" 
d="M294 594c-50 0 -88 33 -88 81c0 47 38 80 88 80c51 0 89 -33 89 -80c0 -48 -38 -81 -89 -81z" />
    <glyph glyph-name="grave" unicode="`" horiz-adv-x="588" 
d="M298 601l-146 148h153l132 -148h-139z" />
    <glyph glyph-name="acute" unicode="&#xb4;" horiz-adv-x="588" 
d="M152 601l131 148h154l-146 -148h-139z" />
    <glyph glyph-name="circumflex" unicode="&#x2c6;" horiz-adv-x="588" 
d="M98 601l131 148h131l130 -148h-126l-70 73l-70 -73h-126z" />
    <glyph glyph-name="caron" unicode="&#x2c7;" horiz-adv-x="588" 
d="M229 601l-131 148h127l69 -74l71 74h125l-130 -148h-131z" />
    <glyph glyph-name="ring" unicode="&#x2da;" horiz-adv-x="588" 
d="M295 591c-72 0 -131 56 -131 128c0 73 59 128 131 128c71 0 130 -55 130 -128s-59 -128 -130 -128zM295 664c29 0 52 24 52 55s-23 53 -52 53c-30 0 -52 -22 -52 -53s22 -55 52 -55z" />
    <glyph glyph-name="tilde" unicode="&#x2dc;" horiz-adv-x="588" 
d="M378 596c-34 0 -56 11 -82 26c-25 16 -46 28 -73 28c-36 0 -64 -14 -96 -36v98c31 23 60 39 97 39c35 0 58 -12 84 -27c26 -14 47 -27 73 -27c43 0 71 18 98 37v-100c-28 -19 -58 -38 -101 -38z" />
    <glyph glyph-name="cedilla" unicode="&#xb8;" horiz-adv-x="588" 
d="M195 -202v95h31c37 0 59 15 59 43c0 29 -11 43 -41 76l77 26c44 -36 72 -70 72 -119c0 -77 -65 -121 -163 -121h-35z" />
    <glyph glyph-name="uni0308.case" horiz-adv-x="0" 
d="M-407 734c-45 0 -81 30 -81 75c0 44 35 75 81 75c48 0 83 -31 83 -75c0 -45 -35 -75 -83 -75zM-181 734c-47 0 -83 30 -83 75c0 44 36 75 83 75c46 0 81 -31 81 -75c0 -45 -35 -75 -81 -75z" />
    <glyph glyph-name="uni0307.case" horiz-adv-x="0" 
d="M-294 734c-51 0 -90 32 -90 81s39 83 90 83c52 0 91 -34 91 -83s-39 -81 -91 -81z" />
    <glyph glyph-name="gravecomb.case" horiz-adv-x="0" 
d="M-288 742l-156 147h161l140 -147h-145z" />
    <glyph glyph-name="acutecomb.case" horiz-adv-x="0" 
d="M-444 742l140 147h161l-156 -147h-145z" />
    <glyph glyph-name="uni0302.case" horiz-adv-x="0" 
d="M-499 742l137 147h137l136 -147h-134l-70 71l-72 -71h-134z" />
    <glyph glyph-name="uni030C.case" horiz-adv-x="0" 
d="M-362 742l-137 147h135l70 -72l72 72h133l-137 -147h-136z" />
    <glyph glyph-name="uni030A.case" horiz-adv-x="0" 
d="M-293 735c-77 0 -139 60 -139 133c0 76 62 133 139 133c75 0 138 -58 138 -133c0 -74 -63 -133 -138 -133zM-293 812c31 0 55 25 55 56c0 32 -24 55 -55 55c-32 0 -56 -23 -56 -55c0 -31 23 -56 56 -56z" />
    <glyph glyph-name="tildecomb.case" horiz-adv-x="0" 
d="M-206 737c-36 0 -60 11 -87 26c-26 15 -47 27 -76 27c-39 0 -69 -15 -103 -36v103c33 23 64 37 104 37c37 0 62 -11 89 -26c28 -14 48 -26 76 -26c46 0 76 18 105 37v-104c-29 -20 -61 -38 -108 -38z" />
    <glyph glyph-name="uni0327.case" horiz-adv-x="0" 
d="M-407 -212v102h35c41 0 68 16 68 44c0 29 -16 48 -47 79l86 27c49 -40 79 -75 79 -125c0 -81 -70 -127 -182 -127h-39z" />
    <glyph glyph-name="gravecomb.narrow.case" horiz-adv-x="0" 
d="M-306 742l-125 147h151l112 -147h-138z" />
    <glyph glyph-name="acutecomb.narrow.case" horiz-adv-x="0" 
d="M-431 742l112 147h151l-125 -147h-138z" />
    <glyph glyph-name="gravecomb.narrow" horiz-adv-x="0" 
d="M-307 601l-122 148h151l107 -148h-136z" />
    <glyph glyph-name="acutecomb.narrow" horiz-adv-x="0" 
d="M-429 601l107 148h151l-122 -148h-136z" />
    <glyph glyph-name="periodsuperior" horiz-adv-x="198" 
d="M99 324c-41 0 -73 30 -73 72s32 71 73 71c42 0 73 -29 73 -71s-31 -72 -73 -72z" />
    <glyph glyph-name="commasuperior" horiz-adv-x="198" 
d="M7 273c25 69 40 132 46 185h118c-6 -59 -28 -129 -60 -185h-104z" />
    </font>
</defs>
</svg>
