<?xml version="1.0" standalone="no"?>
<!DOCTYPE svg PUBLIC "-//W3C//DTD SVG 1.1//EN" "http://www.w3.org/Graphics/SVG/1.1/DTD/svg11.dtd" >
<svg xmlns="http://www.w3.org/2000/svg" xmlns:xlink="http://www.w3.org/1999/xlink" version="1.1">
<metadata>
Created by FontForge 20190531 at Fri Aug  9 12:40:44 2019
 By Henrique Beier
Copyright \(c\) 2019 Banco Bradesco S.A. All rights reserved.
</metadata>
<defs>
<font id="BradescoSans-ThinItalic" horiz-adv-x="586" >
  <font-face 
    font-family="Bradesco Sans Thin"
    font-weight="250"
    font-style="italic"
    font-stretch="normal"
    units-per-em="1000"
    panose-1="0 0 3 0 0 0 0 0 0 0"
    ascent="800"
    descent="-200"
    x-height="514"
    cap-height="676"
    bbox="-444 -222 1133 957"
    underline-thickness="50"
    underline-position="-100"
    slope="-12"
    stemh="29"
    stemv="32"
    unicode-range="U+0020-FB02"
  />
<missing-glyph horiz-adv-x="474" 
d="M388 730v-947h-300v947h300zM315 667h-156v-32h62v-35h-63v-31h157v31h-62v35h62v32zM253 544h-95v-98h157v32h-62v66zM221 512v-34h-32v34h32zM315 420h-157v-31h63v-35h-63v-31h95v66h62v31zM315 364h-31v-63h-126v-32h157v95zM315 248h-94v-53h32v22h31v-45h-95v76
h-31v-107h157v107zM315 84h-157v-107h157v107zM284 53v-45h-95v45h95zM315 -45h-157v-31h66l-66 -44v-32h157v32h-96l66 44h30v31z" />
    <glyph glyph-name="fi" unicode="fi" horiz-adv-x="571" 
d="M26 0l115 541c26 123 88 195 194 195c38 0 77 -16 104 -46l-22 -19c-32 30 -54 35 -87 35c-86 0 -135 -59 -158 -166l-5 -26h227l-7 -30h-227l-102 -484h-32zM552 637c-16 0 -26 11 -26 25c0 20 15 37 34 37c16 0 26 -11 26 -25c0 -20 -15 -37 -34 -37zM402 0l109 514h32
l-109 -514h-32z" />
    <glyph glyph-name="fl" unicode="fl" horiz-adv-x="623" 
d="M26 0l115 541c26 123 88 195 194 195c38 0 77 -16 104 -46l-22 -19c-32 30 -54 35 -87 35c-86 0 -135 -59 -158 -166l-5 -26h227l-7 -30h-227l-102 -484h-32zM534 -5c-72 0 -110 40 -110 112c0 16 1 34 5 54l120 565l34 10l-124 -583c-3 -16 -4 -30 -4 -43
c0 -55 28 -86 82 -86h21l-6 -29h-18z" />
    <glyph glyph-name=".notdef" horiz-adv-x="474" 
d="M388 730v-947h-300v947h300zM315 667h-156v-32h62v-35h-63v-31h157v31h-62v35h62v32zM253 544h-95v-98h157v32h-62v66zM221 512v-34h-32v34h32zM315 420h-157v-31h63v-35h-63v-31h95v66h62v31zM315 364h-31v-63h-126v-32h157v95zM315 248h-94v-53h32v22h31v-45h-95v76
h-31v-107h157v107zM315 84h-157v-107h157v107zM284 53v-45h-95v45h95zM315 -45h-157v-31h66l-66 -44v-32h157v32h-96l66 44h30v31z" />
    <glyph glyph-name="space" unicode=" " horiz-adv-x="250" 
 />
    <glyph glyph-name="A" unicode="A" horiz-adv-x="605" 
d="M-28 0l404 676h32l114 -676h-32l-36 216h-320l-128 -216h-34zM153 247h296l-64 391z" />
    <glyph glyph-name="Aacute" unicode="&#xc1;" horiz-adv-x="605" 
d="M366 746l133 117h50l-141 -117h-42zM-28 0l404 676h32l114 -676h-32l-36 216h-320l-128 -216h-34zM153 247h296l-64 391z" />
    <glyph glyph-name="Acircumflex" unicode="&#xc2;" horiz-adv-x="605" 
d="M271 746l140 117h32l90 -117h-37l-73 89l-110 -89h-42zM-28 0l404 676h32l114 -676h-32l-36 216h-320l-128 -216h-34zM153 247h296l-64 391z" />
    <glyph glyph-name="Adieresis" unicode="&#xc4;" horiz-adv-x="605" 
d="M328 770c-17 0 -27 11 -27 26c0 18 17 33 35 33c16 0 26 -11 26 -25c0 -15 -14 -34 -34 -34zM492 770c-16 0 -26 10 -26 25c0 18 15 34 34 34c16 0 27 -10 27 -25c0 -17 -15 -34 -35 -34zM-28 0l404 676h32l114 -676h-32l-36 216h-320l-128 -216h-34zM153 247h296
l-64 391z" />
    <glyph glyph-name="Agrave" unicode="&#xc0;" horiz-adv-x="605" 
d="M402 746l-91 117h43l84 -117h-36zM-28 0l404 676h32l114 -676h-32l-36 216h-320l-128 -216h-34zM153 247h296l-64 391z" />
    <glyph glyph-name="Aring" unicode="&#xc5;" horiz-adv-x="605" 
d="M411 657l111 -657h-32l-36 216h-320l-128 -216h-34l395 661c-44 14 -79 55 -79 106c0 62 53 109 111 109s112 -48 112 -109c0 -59 -47 -104 -100 -110zM318 767c0 -49 37 -83 81 -83c45 0 82 35 82 83c0 47 -37 81 -82 81c-44 0 -81 -33 -81 -81zM153 247h296l-64 391z
" />
    <glyph glyph-name="Atilde" unicode="&#xc3;" horiz-adv-x="605" 
d="M481 769c-32 0 -58 17 -81 30c-16 9 -33 16 -52 16c-33 0 -61 -16 -92 -42l8 36c31 26 54 37 87 37c26 0 48 -11 70 -23c20 -11 40 -23 62 -23c41 0 68 21 93 43l-8 -38c-25 -20 -48 -36 -87 -36zM-28 0l404 676h32l114 -676h-32l-36 216h-320l-128 -216h-34zM153 247
h296l-64 391z" />
    <glyph glyph-name="AE" unicode="&#xc6;" horiz-adv-x="929" 
d="M-47 0l617 676h401l-6 -31h-360l-59 -279h315l-7 -32h-315l-64 -303h371l-7 -31h-403l45 209h-298l-191 -209h-39zM211 240h276l84 393z" />
    <glyph glyph-name="B" unicode="B" horiz-adv-x="562" 
d="M37 0l144 676h188c102 0 165 -64 165 -146c0 -88 -56 -154 -141 -182c69 -19 109 -78 109 -146c0 -119 -98 -202 -233 -202h-232zM144 360h156c122 0 204 67 204 168c0 70 -51 119 -141 119h-158zM73 29h193c125 0 205 70 205 174c0 70 -49 127 -139 127h-195z" />
    <glyph glyph-name="C" unicode="C" horiz-adv-x="627" 
d="M300 -10c-144 0 -233 106 -233 257c0 232 156 439 381 439c79 0 142 -38 185 -97l-23 -18c-46 57 -98 84 -165 84c-207 0 -346 -196 -346 -403c0 -135 75 -231 204 -231c83 0 155 32 219 82l18 -24c-75 -60 -156 -89 -240 -89z" />
    <glyph glyph-name="Ccedilla" unicode="&#xc7;" horiz-adv-x="627" 
d="M448 686c79 0 142 -38 185 -97l-23 -18c-46 57 -98 84 -165 84c-207 0 -346 -196 -346 -403c0 -135 75 -231 204 -231c83 0 155 32 219 82l18 -24c-70 -56 -146 -85 -225 -89c11 -15 19 -35 19 -57c0 -66 -60 -105 -132 -105h-19l7 31h16c55 0 95 29 95 77
c0 18 -7 37 -21 55c-132 9 -213 112 -213 256c0 232 156 439 381 439z" />
    <glyph glyph-name="D" unicode="D" horiz-adv-x="657" 
d="M37 0l144 676h156c165 0 283 -107 283 -272c0 -224 -160 -404 -400 -404h-183zM75 30h145c226 0 368 173 368 370c0 159 -113 246 -249 246h-132z" />
    <glyph glyph-name="Eth" unicode="&#xd0;" horiz-adv-x="677" 
d="M57 0l71 331h-94l6 30h94l67 315h156c165 0 283 -107 283 -272c0 -224 -160 -404 -400 -404h-183zM95 30h145c226 0 368 173 368 370c0 159 -113 246 -249 246h-132l-61 -285h223l-6 -30h-223z" />
    <glyph glyph-name="E" unicode="E" horiz-adv-x="530" 
d="M37 0l144 676h391l-6 -31h-360l-59 -279h315l-7 -32h-315l-64 -303h371l-7 -31h-403z" />
    <glyph glyph-name="Eacute" unicode="&#xc9;" horiz-adv-x="530" 
d="M344 746l133 117h50l-141 -117h-42zM37 0l144 676h391l-6 -31h-360l-59 -279h315l-7 -32h-315l-64 -303h371l-7 -31h-403z" />
    <glyph glyph-name="Ecircumflex" unicode="&#xca;" horiz-adv-x="530" 
d="M249 746l140 117h32l90 -117h-37l-73 89l-110 -89h-42zM37 0l144 676h391l-6 -31h-360l-59 -279h315l-7 -32h-315l-64 -303h371l-7 -31h-403z" />
    <glyph glyph-name="Edieresis" unicode="&#xcb;" horiz-adv-x="530" 
d="M306 770c-17 0 -27 11 -27 26c0 18 17 33 35 33c16 0 26 -11 26 -25c0 -15 -14 -34 -34 -34zM470 770c-16 0 -26 10 -26 25c0 18 15 34 34 34c16 0 27 -10 27 -25c0 -17 -15 -34 -35 -34zM37 0l144 676h391l-6 -31h-360l-59 -279h315l-7 -32h-315l-64 -303h371l-7 -31
h-403z" />
    <glyph glyph-name="Egrave" unicode="&#xc8;" horiz-adv-x="530" 
d="M380 746l-91 117h43l84 -117h-36zM37 0l144 676h391l-6 -31h-360l-59 -279h315l-7 -32h-315l-64 -303h371l-7 -31h-403z" />
    <glyph glyph-name="F" unicode="F" horiz-adv-x="539" 
d="M37 0l144 676h398l-7 -31h-366l-59 -279h318l-7 -32h-318l-71 -334h-32z" />
    <glyph glyph-name="G" unicode="G" horiz-adv-x="648" 
d="M308 -10c-146 0 -241 101 -241 254c0 240 159 442 387 442c82 0 145 -38 188 -97l-23 -18c-46 57 -99 84 -169 84c-209 0 -351 -190 -351 -406c0 -137 81 -228 212 -228c85 0 145 25 206 68l44 205h-207l6 31h239l-54 -253c-75 -57 -151 -82 -237 -82z" />
    <glyph glyph-name="H" unicode="H" horiz-adv-x="632" 
d="M37 0l144 676h32l-66 -310h384l66 310h32l-144 -676h-32l71 335h-384l-71 -335h-32z" />
    <glyph glyph-name="I" unicode="I" horiz-adv-x="216" 
d="M37 0l144 676h32l-144 -676h-32z" />
    <glyph glyph-name="Iacute" unicode="&#xcd;" horiz-adv-x="216" 
d="M187 746l120 117h47l-127 -117h-40zM37 0l144 676h32l-144 -676h-32z" />
    <glyph glyph-name="Icircumflex" unicode="&#xce;" horiz-adv-x="216" 
d="M78 746l140 117h32l90 -117h-37l-73 89l-110 -89h-42zM37 0l144 676h32l-144 -676h-32z" />
    <glyph glyph-name="Idieresis" unicode="&#xcf;" horiz-adv-x="216" 
d="M135 770c-17 0 -27 11 -27 26c0 18 17 33 35 33c16 0 26 -11 26 -25c0 -15 -14 -34 -34 -34zM299 770c-16 0 -26 10 -26 25c0 18 15 34 34 34c16 0 27 -10 27 -25c0 -17 -15 -34 -35 -34zM37 0l144 676h32l-144 -676h-32z" />
    <glyph glyph-name="Igrave" unicode="&#xcc;" horiz-adv-x="216" 
d="M193 746l-71 117h40l66 -117h-35zM37 0l144 676h32l-144 -676h-32z" />
    <glyph glyph-name="J" unicode="J" horiz-adv-x="342" 
d="M-33 0l7 30h33c108 0 183 55 209 179l99 467h32l-100 -468c-32 -150 -116 -208 -250 -208h-30z" />
    <glyph glyph-name="K" unicode="K" horiz-adv-x="612" 
d="M37 0l144 676h32l-66 -310h116c79 0 127 47 184 118l155 192h37l-170 -210c-43 -52 -78 -90 -123 -112l188 -354h-36l-182 343c-21 -5 -45 -8 -73 -8h-103l-71 -335h-32z" />
    <glyph glyph-name="L" unicode="L" horiz-adv-x="514" 
d="M37 0l144 676h32l-137 -645h356l-6 -31h-389z" />
    <glyph glyph-name="M" unicode="M" horiz-adv-x="814" 
d="M37 0l144 676h29l167 -493l400 493h33l-143 -676h-32l133 620l-384 -473h-26l-160 468l-130 -615h-31z" />
    <glyph glyph-name="N" unicode="N" horiz-adv-x="641" 
d="M37 0l144 676h25l271 -615l130 615h31l-144 -676h-24l-271 616l-131 -616h-31z" />
    <glyph glyph-name="Ntilde" unicode="&#xd1;" horiz-adv-x="641" 
d="M487 769c-32 0 -58 17 -81 30c-16 9 -33 16 -52 16c-33 0 -61 -16 -92 -42l8 36c31 26 54 37 87 37c26 0 48 -11 70 -23c20 -11 40 -23 62 -23c41 0 68 21 93 43l-8 -38c-25 -20 -48 -36 -87 -36zM37 0l144 676h25l271 -615l130 615h31l-144 -676h-24l-271 616l-131 -616
h-31z" />
    <glyph glyph-name="O" unicode="O" horiz-adv-x="711" 
d="M304 -10c-146 0 -238 104 -238 257c0 224 167 439 376 439c145 0 238 -104 238 -256c0 -224 -168 -440 -376 -440zM306 21c190 0 342 206 342 405c0 136 -80 229 -208 229c-196 0 -342 -205 -342 -402c0 -135 78 -232 208 -232z" />
    <glyph glyph-name="Oacute" unicode="&#xd3;" horiz-adv-x="711" 
d="M407 746l133 117h50l-141 -117h-42zM304 -10c-146 0 -238 104 -238 257c0 224 167 439 376 439c145 0 238 -104 238 -256c0 -224 -168 -440 -376 -440zM306 21c190 0 342 206 342 405c0 136 -80 229 -208 229c-196 0 -342 -205 -342 -402c0 -135 78 -232 208 -232z" />
    <glyph glyph-name="Ocircumflex" unicode="&#xd4;" horiz-adv-x="711" 
d="M312 746l140 117h32l90 -117h-37l-73 89l-110 -89h-42zM304 -10c-146 0 -238 104 -238 257c0 224 167 439 376 439c145 0 238 -104 238 -256c0 -224 -168 -440 -376 -440zM306 21c190 0 342 206 342 405c0 136 -80 229 -208 229c-196 0 -342 -205 -342 -402
c0 -135 78 -232 208 -232z" />
    <glyph glyph-name="Odieresis" unicode="&#xd6;" horiz-adv-x="711" 
d="M369 770c-17 0 -27 11 -27 26c0 18 17 33 35 33c16 0 26 -11 26 -25c0 -15 -14 -34 -34 -34zM533 770c-16 0 -26 10 -26 25c0 18 15 34 34 34c16 0 27 -10 27 -25c0 -17 -15 -34 -35 -34zM304 -10c-146 0 -238 104 -238 257c0 224 167 439 376 439
c145 0 238 -104 238 -256c0 -224 -168 -440 -376 -440zM306 21c190 0 342 206 342 405c0 136 -80 229 -208 229c-196 0 -342 -205 -342 -402c0 -135 78 -232 208 -232z" />
    <glyph glyph-name="Ograve" unicode="&#xd2;" horiz-adv-x="711" 
d="M443 746l-91 117h43l84 -117h-36zM304 -10c-146 0 -238 104 -238 257c0 224 167 439 376 439c145 0 238 -104 238 -256c0 -224 -168 -440 -376 -440zM306 21c190 0 342 206 342 405c0 136 -80 229 -208 229c-196 0 -342 -205 -342 -402c0 -135 78 -232 208 -232z" />
    <glyph glyph-name="Oslash" unicode="&#xd8;" horiz-adv-x="711" 
d="M1 -29l110 115c-29 42 -45 97 -45 161c0 224 167 439 376 439c73 0 133 -26 175 -72l86 90h40l-108 -113c29 -43 45 -98 45 -161c0 -224 -168 -440 -376 -440c-74 0 -133 26 -175 72l-87 -91h-41zM135 111l459 479c-36 41 -89 65 -154 65c-196 0 -342 -205 -342 -402
c0 -55 13 -104 37 -142zM306 21c190 0 342 206 342 405c0 55 -13 103 -37 140l-458 -479c36 -42 88 -66 153 -66z" />
    <glyph glyph-name="Otilde" unicode="&#xd5;" horiz-adv-x="711" 
d="M522 769c-32 0 -58 17 -81 30c-16 9 -33 16 -52 16c-33 0 -61 -16 -92 -42l8 36c31 26 54 37 87 37c26 0 48 -11 70 -23c20 -11 40 -23 62 -23c41 0 68 21 93 43l-8 -38c-25 -20 -48 -36 -87 -36zM304 -10c-146 0 -238 104 -238 257c0 224 167 439 376 439
c145 0 238 -104 238 -256c0 -224 -168 -440 -376 -440zM306 21c190 0 342 206 342 405c0 136 -80 229 -208 229c-196 0 -342 -205 -342 -402c0 -135 78 -232 208 -232z" />
    <glyph glyph-name="OE" unicode="&#x152;" horiz-adv-x="1060" 
d="M304 -10c-146 0 -238 104 -238 257c0 224 167 439 376 439c124 0 208 -78 230 -195l39 185h391l-6 -31h-360l-59 -279h315l-7 -32h-315l-64 -303h371l-7 -31h-403l39 181c-68 -111 -177 -191 -302 -191zM306 21c190 0 342 206 342 405c0 136 -80 229 -208 229
c-196 0 -342 -205 -342 -402c0 -135 78 -232 208 -232z" />
    <glyph glyph-name="P" unicode="P" horiz-adv-x="566" 
d="M37 0l144 676h182c122 0 199 -68 199 -163c0 -148 -112 -235 -264 -235h-171l-59 -278h-31zM134 309h161c148 0 235 76 235 204c0 82 -64 132 -171 132h-154z" />
    <glyph glyph-name="Thorn" unicode="&#xde;" horiz-adv-x="569" 
d="M37 0l144 676h31l-22 -103h151c122 0 199 -68 199 -163c0 -148 -112 -235 -264 -235h-171l-37 -175h-31zM112 206h161c148 0 235 76 235 204c0 82 -64 132 -171 132h-154z" />
    <glyph glyph-name="Q" unicode="Q" horiz-adv-x="711" 
d="M567 -86l-83 134c-53 -37 -115 -58 -180 -58c-146 0 -238 104 -238 257c0 224 167 439 376 439c145 0 238 -104 238 -256c0 -142 -68 -281 -170 -364l85 -136zM306 21c59 0 114 20 162 53l-77 124l26 16l76 -121c94 77 155 206 155 333c0 136 -80 229 -208 229
c-196 0 -342 -205 -342 -402c0 -135 78 -232 208 -232z" />
    <glyph glyph-name="R" unicode="R" horiz-adv-x="574" 
d="M37 0l144 676h183c113 0 189 -57 189 -151c0 -115 -83 -193 -199 -213c42 -19 70 -61 97 -150l50 -162h-34l-42 138c-32 104 -49 166 -173 166h-119l-64 -304h-32zM139 334h148c139 0 234 71 234 192c0 78 -59 119 -162 119h-154z" />
    <glyph glyph-name="S" unicode="S" horiz-adv-x="562" 
d="M245 -10c-86 0 -167 31 -225 100l24 20c56 -62 129 -89 206 -89c120 0 192 66 192 153c0 68 -41 112 -151 157c-121 50 -174 94 -174 177c0 116 115 178 221 178c88 0 155 -30 208 -96l-24 -19c-61 68 -110 84 -188 84c-104 0 -186 -60 -186 -143c0 -78 61 -113 161 -154
c111 -45 165 -99 165 -181c0 -108 -83 -187 -229 -187z" />
    <glyph glyph-name="Scaron" unicode="&#x160;" horiz-adv-x="562" 
d="M338 746l-90 117h37l73 -89l110 89h42l-140 -117h-32zM245 -10c-86 0 -167 31 -225 100l24 20c56 -62 129 -89 206 -89c120 0 192 66 192 153c0 68 -41 112 -151 157c-121 50 -174 94 -174 177c0 116 115 178 221 178c88 0 155 -30 208 -96l-24 -19
c-61 68 -110 84 -188 84c-104 0 -186 -60 -186 -143c0 -78 61 -113 161 -154c111 -45 165 -99 165 -181c0 -108 -83 -187 -229 -187z" />
    <glyph glyph-name="uni1E9E" unicode="&#x1e9e;" horiz-adv-x="642" 
d="M343 -10c-74 0 -132 27 -180 81l22 20c48 -48 90 -70 157 -70c120 0 206 72 206 174c0 82 -55 144 -164 144h-54l5 24l233 231c-32 35 -85 63 -155 63c-144 0 -226 -82 -265 -266l-83 -391h-32l83 390c43 204 144 296 297 296c96 0 160 -49 193 -91l-231 -228h9
c112 0 197 -65 196 -172c-1 -120 -106 -205 -237 -205z" />
    <glyph glyph-name="T" unicode="T" horiz-adv-x="591" 
d="M225 0l137 645h-241l6 31h514l-7 -31h-240l-137 -645h-32z" />
    <glyph glyph-name="U" unicode="U" horiz-adv-x="649" 
d="M285 -10c-129 0 -201 79 -201 215c0 32 3 66 11 103l78 368h32l-79 -370c-8 -35 -11 -68 -11 -98c0 -117 57 -187 172 -187c131 0 218 105 257 287l78 368h32l-79 -371c-43 -200 -142 -315 -290 -315z" />
    <glyph glyph-name="Uacute" unicode="&#xda;" horiz-adv-x="649" 
d="M376 746l133 117h50l-141 -117h-42zM285 -10c-129 0 -201 79 -201 215c0 32 3 66 11 103l78 368h32l-79 -370c-8 -35 -11 -68 -11 -98c0 -117 57 -187 172 -187c131 0 218 105 257 287l78 368h32l-79 -371c-43 -200 -142 -315 -290 -315z" />
    <glyph glyph-name="Ucircumflex" unicode="&#xdb;" horiz-adv-x="649" 
d="M281 746l140 117h32l90 -117h-37l-73 89l-110 -89h-42zM285 -10c-129 0 -201 79 -201 215c0 32 3 66 11 103l78 368h32l-79 -370c-8 -35 -11 -68 -11 -98c0 -117 57 -187 172 -187c131 0 218 105 257 287l78 368h32l-79 -371c-43 -200 -142 -315 -290 -315z" />
    <glyph glyph-name="Udieresis" unicode="&#xdc;" horiz-adv-x="649" 
d="M338 770c-17 0 -27 11 -27 26c0 18 17 33 35 33c16 0 26 -11 26 -25c0 -15 -14 -34 -34 -34zM502 770c-16 0 -26 10 -26 25c0 18 15 34 34 34c16 0 27 -10 27 -25c0 -17 -15 -34 -35 -34zM285 -10c-129 0 -201 79 -201 215c0 32 3 66 11 103l78 368h32l-79 -370
c-8 -35 -11 -68 -11 -98c0 -117 57 -187 172 -187c131 0 218 105 257 287l78 368h32l-79 -371c-43 -200 -142 -315 -290 -315z" />
    <glyph glyph-name="Ugrave" unicode="&#xd9;" horiz-adv-x="649" 
d="M412 746l-91 117h43l84 -117h-36zM285 -10c-129 0 -201 79 -201 215c0 32 3 66 11 103l78 368h32l-79 -370c-8 -35 -11 -68 -11 -98c0 -117 57 -187 172 -187c131 0 218 105 257 287l78 368h32l-79 -371c-43 -200 -142 -315 -290 -315z" />
    <glyph glyph-name="V" unicode="V" horiz-adv-x="599" 
d="M227 0l-112 676h32l103 -633l378 633h33l-402 -676h-32z" />
    <glyph glyph-name="W" unicode="W" horiz-adv-x="908" 
d="M176 0l-51 676h31l45 -633l321 593h32l58 -593l318 633h33l-341 -676h-33l-61 592l-319 -592h-33z" />
    <glyph glyph-name="Wacute" unicode="&#x1e82;" horiz-adv-x="908" 
d="M512 746l133 117h50l-141 -117h-42zM176 0l-51 676h31l45 -633l321 593h32l58 -593l318 633h33l-341 -676h-33l-61 592l-319 -592h-33z" />
    <glyph glyph-name="Wcircumflex" unicode="&#x174;" horiz-adv-x="908" 
d="M417 746l140 117h32l90 -117h-37l-73 89l-110 -89h-42zM176 0l-51 676h31l45 -633l321 593h32l58 -593l318 633h33l-341 -676h-33l-61 592l-319 -592h-33z" />
    <glyph glyph-name="Wdieresis" unicode="&#x1e84;" horiz-adv-x="908" 
d="M474 770c-17 0 -27 11 -27 26c0 18 17 33 35 33c16 0 26 -11 26 -25c0 -15 -14 -34 -34 -34zM638 770c-16 0 -26 10 -26 25c0 18 15 34 34 34c16 0 27 -10 27 -25c0 -17 -15 -34 -35 -34zM176 0l-51 676h31l45 -633l321 593h32l58 -593l318 633h33l-341 -676h-33l-61 592
l-319 -592h-33z" />
    <glyph glyph-name="Wgrave" unicode="&#x1e80;" horiz-adv-x="908" 
d="M548 746l-91 117h43l84 -117h-36zM176 0l-51 676h31l45 -633l321 593h32l58 -593l318 633h33l-341 -676h-33l-61 592l-319 -592h-33z" />
    <glyph glyph-name="X" unicode="X" horiz-adv-x="610" 
d="M-18 0l323 362l-153 314h36l141 -295l268 295h39l-293 -321l174 -355h-37l-161 333l-298 -333h-39z" />
    <glyph glyph-name="Y" unicode="Y" horiz-adv-x="510" 
d="M182 0l57 267l-132 409h31l122 -379l284 379h35l-310 -413l-55 -263h-32z" />
    <glyph glyph-name="Yacute" unicode="&#xdd;" horiz-adv-x="510" 
d="M299 746l133 117h50l-141 -117h-42zM182 0l57 267l-132 409h31l122 -379l284 379h35l-310 -413l-55 -263h-32z" />
    <glyph glyph-name="Ycircumflex" unicode="&#x176;" horiz-adv-x="510" 
d="M204 746l140 117h32l90 -117h-37l-73 89l-110 -89h-42zM182 0l57 267l-132 409h31l122 -379l284 379h35l-310 -413l-55 -263h-32z" />
    <glyph glyph-name="Ydieresis" unicode="&#x178;" horiz-adv-x="510" 
d="M261 770c-17 0 -27 11 -27 26c0 18 17 33 35 33c16 0 26 -11 26 -25c0 -15 -14 -34 -34 -34zM425 770c-16 0 -26 10 -26 25c0 18 15 34 34 34c16 0 27 -10 27 -25c0 -17 -15 -34 -35 -34zM182 0l57 267l-132 409h31l122 -379l284 379h35l-310 -413l-55 -263h-32z" />
    <glyph glyph-name="Ygrave" unicode="&#x1ef2;" horiz-adv-x="510" 
d="M335 746l-91 117h43l84 -117h-36zM182 0l57 267l-132 409h31l122 -379l284 379h35l-310 -413l-55 -263h-32z" />
    <glyph glyph-name="Z" unicode="Z" horiz-adv-x="580" 
d="M-12 0l5 26l579 619h-432l7 31h475l-4 -25l-578 -620h457l-7 -31h-502z" />
    <glyph glyph-name="Zcaron" unicode="&#x17d;" horiz-adv-x="580" 
d="M371 746l-90 117h37l73 -89l110 89h42l-140 -117h-32zM-12 0l5 26l579 619h-432l7 31h475l-4 -25l-578 -620h457l-7 -31h-502z" />
    <glyph glyph-name="a" unicode="a" horiz-adv-x="511" 
d="M144 -10c-76 0 -122 52 -122 117c0 108 93 170 224 170h162l8 36c5 25 6 48 6 65c0 74 -43 115 -124 115c-56 0 -115 -25 -166 -70l-18 21c53 48 122 79 187 79c98 0 152 -54 152 -146c0 -20 -2 -41 -8 -70l-65 -307h-22l10 84c-61 -55 -142 -94 -224 -94zM149 20
c83 0 164 40 227 102l26 126h-160c-113 0 -189 -51 -189 -140c0 -49 35 -88 96 -88z" />
    <glyph glyph-name="aacute" unicode="&#xe1;" horiz-adv-x="511" 
d="M274 599l133 126h50l-142 -126h-41zM144 -10c-76 0 -122 52 -122 117c0 108 93 170 224 170h162l8 36c5 25 6 48 6 65c0 74 -43 115 -124 115c-56 0 -115 -25 -166 -70l-18 21c53 48 122 79 187 79c98 0 152 -54 152 -146c0 -20 -2 -41 -8 -70l-65 -307h-22l10 84
c-61 -55 -142 -94 -224 -94zM149 20c83 0 164 40 227 102l26 126h-160c-113 0 -189 -51 -189 -140c0 -49 35 -88 96 -88z" />
    <glyph glyph-name="acircumflex" unicode="&#xe2;" horiz-adv-x="511" 
d="M181 599l141 126h29l88 -126h-35l-72 98l-112 -98h-39zM144 -10c-76 0 -122 52 -122 117c0 108 93 170 224 170h162l8 36c5 25 6 48 6 65c0 74 -43 115 -124 115c-56 0 -115 -25 -166 -70l-18 21c53 48 122 79 187 79c98 0 152 -54 152 -146c0 -20 -2 -41 -8 -70
l-65 -307h-22l10 84c-61 -55 -142 -94 -224 -94zM149 20c83 0 164 40 227 102l26 126h-160c-113 0 -189 -51 -189 -140c0 -49 35 -88 96 -88z" />
    <glyph glyph-name="adieresis" unicode="&#xe4;" horiz-adv-x="511" 
d="M239 637c-16 0 -26 11 -26 25c0 20 15 37 34 37c16 0 26 -11 26 -25c0 -20 -15 -37 -34 -37zM403 637c-16 0 -26 11 -26 25c0 20 15 37 34 37c16 0 26 -11 26 -25c0 -20 -15 -37 -34 -37zM144 -10c-76 0 -122 52 -122 117c0 108 93 170 224 170h162l8 36c5 25 6 48 6 65
c0 74 -43 115 -124 115c-56 0 -115 -25 -166 -70l-18 21c53 48 122 79 187 79c98 0 152 -54 152 -146c0 -20 -2 -41 -8 -70l-65 -307h-22l10 84c-61 -55 -142 -94 -224 -94zM149 20c83 0 164 40 227 102l26 126h-160c-113 0 -189 -51 -189 -140c0 -49 35 -88 96 -88z" />
    <glyph glyph-name="agrave" unicode="&#xe0;" horiz-adv-x="511" 
d="M309 599l-88 126h42l80 -126h-34zM144 -10c-76 0 -122 52 -122 117c0 108 93 170 224 170h162l8 36c5 25 6 48 6 65c0 74 -43 115 -124 115c-56 0 -115 -25 -166 -70l-18 21c53 48 122 79 187 79c98 0 152 -54 152 -146c0 -20 -2 -41 -8 -70l-65 -307h-22l10 84
c-61 -55 -142 -94 -224 -94zM149 20c83 0 164 40 227 102l26 126h-160c-113 0 -189 -51 -189 -140c0 -49 35 -88 96 -88z" />
    <glyph glyph-name="aring" unicode="&#xe5;" horiz-adv-x="511" 
d="M328 592c-58 0 -111 48 -111 111c0 62 53 109 111 109s112 -48 112 -109c0 -64 -54 -111 -112 -111zM328 620c45 0 82 35 82 83c0 47 -37 81 -82 81c-44 0 -81 -33 -81 -81c0 -49 37 -83 81 -83zM144 -10c-76 0 -122 52 -122 117c0 108 93 170 224 170h162l8 36
c5 25 6 48 6 65c0 74 -43 115 -124 115c-56 0 -115 -25 -166 -70l-18 21c53 48 122 79 187 79c98 0 152 -54 152 -146c0 -20 -2 -41 -8 -70l-65 -307h-22l10 84c-61 -55 -142 -94 -224 -94zM149 20c83 0 164 40 227 102l26 126h-160c-113 0 -189 -51 -189 -140
c0 -49 35 -88 96 -88z" />
    <glyph glyph-name="atilde" unicode="&#xe3;" horiz-adv-x="511" 
d="M389 623c-30 0 -52 15 -74 28c-18 11 -37 21 -59 21c-33 0 -60 -18 -92 -44l8 36c31 26 54 38 87 38c28 0 52 -15 75 -28c19 -11 37 -21 57 -21c41 0 68 23 93 45l-8 -38c-25 -20 -48 -37 -87 -37zM144 -10c-76 0 -122 52 -122 117c0 108 93 170 224 170h162l8 36
c5 25 6 48 6 65c0 74 -43 115 -124 115c-56 0 -115 -25 -166 -70l-18 21c53 48 122 79 187 79c98 0 152 -54 152 -146c0 -20 -2 -41 -8 -70l-65 -307h-22l10 84c-61 -55 -142 -94 -224 -94zM149 20c83 0 164 40 227 102l26 126h-160c-113 0 -189 -51 -189 -140
c0 -49 35 -88 96 -88z" />
    <glyph glyph-name="ae" unicode="&#xe6;" horiz-adv-x="893" 
d="M154 -10c-84 0 -132 52 -132 117c0 110 93 174 224 174h164l6 32c5 25 6 48 6 65c0 74 -43 115 -124 115c-56 0 -115 -25 -166 -70l-18 21c53 48 122 79 187 79c97 0 151 -53 152 -143c51 84 134 143 231 143c104 0 169 -65 169 -175c0 -27 -4 -57 -12 -88l-2 -8h-403
c-5 -22 -7 -44 -7 -66c0 -103 59 -166 160 -166c56 0 113 25 162 62l18 -22c-64 -49 -123 -70 -181 -70c-94 0 -158 44 -181 121c-67 -71 -164 -121 -253 -121zM442 281h371c4 22 7 43 7 62c0 94 -49 151 -141 151c-116 0 -204 -98 -237 -213zM159 20c86 0 174 48 241 121
c-2 14 -3 27 -3 42c0 23 2 46 7 69h-162c-113 0 -189 -53 -189 -144c0 -49 37 -88 106 -88z" />
    <glyph glyph-name="b" unicode="b" horiz-adv-x="560" 
d="M221 -8c-63 0 -123 36 -152 72l-21 -64h-22l154 726l34 10l-63 -296c60 51 131 83 193 83c107 0 173 -81 173 -191c0 -182 -119 -340 -296 -340zM217 22c167 0 268 145 268 309c0 97 -55 162 -143 162c-67 0 -138 -36 -199 -94l-66 -309c36 -37 84 -68 140 -68z" />
    <glyph glyph-name="c" unicode="c" horiz-adv-x="509" 
d="M227 -10c-114 0 -184 76 -184 194c0 176 126 339 301 339c51 0 106 -23 142 -74l-23 -18c-29 38 -67 62 -121 62c-157 0 -267 -152 -267 -307c0 -100 57 -166 155 -166c64 0 120 25 169 62l17 -22c-56 -45 -118 -70 -189 -70z" />
    <glyph glyph-name="ccedilla" unicode="&#xe7;" horiz-adv-x="509" 
d="M344 523c51 0 106 -23 142 -74l-23 -18c-29 38 -67 62 -121 62c-157 0 -267 -152 -267 -307c0 -100 57 -166 155 -166c64 0 120 25 169 62l17 -22c-54 -43 -114 -68 -182 -70c11 -15 19 -35 19 -57c0 -66 -59 -105 -131 -105h-19l7 30h16c55 0 95 30 95 78
c0 18 -7 37 -21 56c-98 11 -157 84 -157 192c0 176 126 339 301 339z" />
    <glyph glyph-name="d" unicode="d" horiz-adv-x="560" 
d="M216 -10c-107 0 -173 83 -173 193c0 182 119 340 296 340c61 0 119 -34 150 -68l57 271l34 10l-156 -736h-22l8 75c-60 -52 -132 -85 -194 -85zM218 20c66 0 137 36 198 94l66 311c-35 38 -83 68 -139 68c-168 0 -268 -144 -268 -309c0 -96 56 -164 143 -164z" />
    <glyph glyph-name="eth" unicode="&#xf0;" horiz-adv-x="564" 
d="M230 -10c-118 0 -191 79 -191 192c0 168 128 319 294 319c71 0 139 -35 168 -70c-3 66 -22 123 -53 173l-146 -41l7 30l123 35c-28 39 -64 72 -107 101l35 8c38 -26 72 -60 101 -101l124 35l-6 -30l-103 -29c35 -58 57 -128 57 -206c0 -38 -4 -79 -14 -124
c-36 -169 -148 -292 -289 -292zM230 20c120 0 226 109 258 266c8 39 13 76 14 109c-36 41 -96 76 -167 76c-153 0 -264 -138 -264 -285c0 -95 56 -166 159 -166z" />
    <glyph glyph-name="e" unicode="e" horiz-adv-x="538" 
d="M234 -10c-120 0 -191 72 -191 193c0 175 124 340 287 340c104 0 169 -65 169 -175c0 -27 -4 -55 -12 -86l-2 -8h-403c-5 -23 -7 -45 -7 -68c0 -103 59 -166 160 -166c56 0 113 25 162 62l18 -22c-64 -49 -123 -70 -181 -70zM89 283h370c4 22 7 41 7 60
c0 94 -49 151 -141 151c-115 0 -203 -97 -236 -211z" />
    <glyph glyph-name="eacute" unicode="&#xe9;" horiz-adv-x="538" 
d="M298 599l133 126h50l-142 -126h-41zM234 -10c-120 0 -191 72 -191 193c0 175 124 340 287 340c104 0 169 -65 169 -175c0 -27 -4 -55 -12 -86l-2 -8h-403c-5 -23 -7 -45 -7 -68c0 -103 59 -166 160 -166c56 0 113 25 162 62l18 -22c-64 -49 -123 -70 -181 -70zM89 283
h370c4 22 7 41 7 60c0 94 -49 151 -141 151c-115 0 -203 -97 -236 -211z" />
    <glyph glyph-name="ecircumflex" unicode="&#xea;" horiz-adv-x="538" 
d="M205 599l141 126h29l88 -126h-35l-72 98l-112 -98h-39zM234 -10c-120 0 -191 72 -191 193c0 175 124 340 287 340c104 0 169 -65 169 -175c0 -27 -4 -55 -12 -86l-2 -8h-403c-5 -23 -7 -45 -7 -68c0 -103 59 -166 160 -166c56 0 113 25 162 62l18 -22
c-64 -49 -123 -70 -181 -70zM89 283h370c4 22 7 41 7 60c0 94 -49 151 -141 151c-115 0 -203 -97 -236 -211z" />
    <glyph glyph-name="edieresis" unicode="&#xeb;" horiz-adv-x="538" 
d="M263 637c-16 0 -26 11 -26 25c0 20 15 37 34 37c16 0 26 -11 26 -25c0 -20 -15 -37 -34 -37zM427 637c-16 0 -26 11 -26 25c0 20 15 37 34 37c16 0 26 -11 26 -25c0 -20 -15 -37 -34 -37zM234 -10c-120 0 -191 72 -191 193c0 175 124 340 287 340c104 0 169 -65 169 -175
c0 -27 -4 -55 -12 -86l-2 -8h-403c-5 -23 -7 -45 -7 -68c0 -103 59 -166 160 -166c56 0 113 25 162 62l18 -22c-64 -49 -123 -70 -181 -70zM89 283h370c4 22 7 41 7 60c0 94 -49 151 -141 151c-115 0 -203 -97 -236 -211z" />
    <glyph glyph-name="egrave" unicode="&#xe8;" horiz-adv-x="538" 
d="M333 599l-88 126h42l80 -126h-34zM234 -10c-120 0 -191 72 -191 193c0 175 124 340 287 340c104 0 169 -65 169 -175c0 -27 -4 -55 -12 -86l-2 -8h-403c-5 -23 -7 -45 -7 -68c0 -103 59 -166 160 -166c56 0 113 25 162 62l18 -22c-64 -49 -123 -70 -181 -70zM89 283h370
c4 22 7 41 7 60c0 94 -49 151 -141 151c-115 0 -203 -97 -236 -211z" />
    <glyph glyph-name="f" unicode="f" horiz-adv-x="374" 
d="M26 0l115 541c26 123 88 195 194 195c38 0 77 -16 104 -46l-22 -19c-32 30 -54 35 -87 35c-86 0 -135 -59 -158 -166l-5 -26h227l-7 -30h-227l-102 -484h-32z" />
    <glyph glyph-name="g" unicode="g" horiz-adv-x="552" 
d="M167 -222c-82 0 -148 37 -187 83l22 21c40 -44 96 -74 166 -74c118 0 193 78 218 196l18 84c-59 -51 -131 -83 -192 -83c-107 0 -173 87 -173 188c0 177 119 330 296 330c61 0 118 -34 149 -68l20 59h22l-109 -513c-30 -139 -119 -223 -250 -223zM214 35
c66 0 138 36 198 94l63 299c-35 36 -82 65 -136 65c-168 0 -268 -139 -268 -299c0 -88 56 -159 143 -159z" />
    <glyph glyph-name="h" unicode="h" horiz-adv-x="551" 
d="M26 0l154 726l34 10l-66 -310c74 72 147 97 206 97c87 0 139 -57 139 -145c0 -26 -5 -59 -12 -91l-61 -287h-32l61 285c7 31 12 65 12 91c0 66 -33 117 -114 117c-65 0 -135 -35 -208 -109l-81 -384h-32z" />
    <glyph glyph-name="i" unicode="i" horiz-adv-x="197" 
d="M178 637c-16 0 -26 11 -26 25c0 20 15 37 34 37c16 0 26 -11 26 -25c0 -20 -15 -37 -34 -37zM28 0l109 514h32l-109 -514h-32z" />
    <glyph glyph-name="dotlessi" unicode="&#x131;" horiz-adv-x="197" 
d="M28 0l109 514h32l-109 -514h-32z" />
    <glyph glyph-name="iacute" unicode="&#xed;" horiz-adv-x="197" 
d="M146 599l120 126h47l-128 -126h-39zM28 0l109 514h32l-109 -514h-32z" />
    <glyph glyph-name="icircumflex" unicode="&#xee;" horiz-adv-x="197" 
d="M38 599l141 126h29l88 -126h-35l-72 98l-112 -98h-39zM28 0l109 514h32l-109 -514h-32z" />
    <glyph glyph-name="idieresis" unicode="&#xef;" horiz-adv-x="197" 
d="M96 637c-16 0 -26 11 -26 25c0 20 15 37 34 37c16 0 26 -11 26 -25c0 -20 -15 -37 -34 -37zM260 637c-16 0 -26 11 -26 25c0 20 15 37 34 37c16 0 26 -11 26 -25c0 -20 -15 -37 -34 -37zM28 0l109 514h32l-109 -514h-32z" />
    <glyph glyph-name="igrave" unicode="&#xec;" horiz-adv-x="197" 
d="M153 599l-72 126h40l66 -126h-34zM28 0l109 514h32l-109 -514h-32z" />
    <glyph glyph-name="j" unicode="j" horiz-adv-x="197" 
d="M178 637c-16 0 -26 11 -26 25c0 20 15 37 34 37c16 0 26 -11 26 -25c0 -20 -15 -37 -34 -37zM-143 -213l7 31h18c78 0 117 47 135 130l120 566h32l-120 -566c-23 -107 -75 -161 -172 -161h-20z" />
    <glyph glyph-name="uni0237" unicode="&#x237;" horiz-adv-x="197" 
d="M-143 -213l7 31h18c78 0 117 47 135 130l120 566h32l-120 -566c-23 -107 -75 -161 -172 -161h-20z" />
    <glyph glyph-name="k" unicode="k" horiz-adv-x="513" 
d="M26 0l154 726l34 10l-97 -456h93c55 0 97 29 149 90l123 144h38l-136 -159c-31 -37 -62 -67 -97 -85l157 -270h-38l-149 258c-16 -5 -32 -7 -50 -7h-96l-53 -251h-32z" />
    <glyph glyph-name="l" unicode="l" horiz-adv-x="249" 
d="M160 -5c-72 0 -110 40 -110 112c0 16 1 34 5 54l120 565l34 10l-124 -583c-3 -16 -4 -30 -4 -43c0 -55 28 -86 82 -86h21l-6 -29h-18z" />
    <glyph glyph-name="m" unicode="m" horiz-adv-x="855" 
d="M26 0l109 514h22l-10 -89c71 70 144 98 191 98c63 0 109 -35 124 -95c71 69 147 95 203 95c79 0 133 -46 133 -142c0 -21 -2 -45 -8 -71l-66 -310h-32l65 305c5 26 9 50 9 72c0 70 -29 116 -107 116c-58 0 -126 -30 -193 -95c3 -18 -1 -59 -7 -86l-66 -312h-32l65 306
c6 29 9 53 9 76c0 62 -29 111 -102 111c-55 0 -125 -38 -194 -109l-81 -384h-32z" />
    <glyph glyph-name="n" unicode="n" horiz-adv-x="551" 
d="M26 0l109 514h22l-9 -89c73 73 147 98 206 98c87 0 139 -57 139 -145c0 -26 -5 -59 -12 -91l-61 -287h-32l61 285c7 31 12 65 12 91c0 66 -33 117 -114 117c-65 0 -135 -35 -208 -109l-81 -384h-32z" />
    <glyph glyph-name="ntilde" unicode="&#xf1;" horiz-adv-x="551" 
d="M415 623c-30 0 -52 15 -74 28c-18 11 -37 21 -59 21c-33 0 -60 -18 -92 -44l8 36c31 26 54 38 87 38c28 0 52 -15 75 -28c19 -11 37 -21 57 -21c41 0 68 23 93 45l-8 -38c-25 -20 -48 -37 -87 -37zM26 0l109 514h22l-9 -89c73 73 147 98 206 98c87 0 139 -57 139 -145
c0 -26 -5 -59 -12 -91l-61 -287h-32l61 285c7 31 12 65 12 91c0 66 -33 117 -114 117c-65 0 -135 -35 -208 -109l-81 -384h-32z" />
    <glyph glyph-name="o" unicode="o" horiz-adv-x="567" 
d="M229 -10c-117 0 -186 80 -186 196c0 175 133 337 294 337c117 0 187 -79 187 -194c0 -175 -133 -339 -295 -339zM230 20c147 0 262 158 262 305c0 100 -58 168 -156 168c-149 0 -261 -154 -261 -302c0 -101 57 -171 155 -171z" />
    <glyph glyph-name="oacute" unicode="&#xf3;" horiz-adv-x="567" 
d="M309 599l133 126h50l-142 -126h-41zM229 -10c-117 0 -186 80 -186 196c0 175 133 337 294 337c117 0 187 -79 187 -194c0 -175 -133 -339 -295 -339zM230 20c147 0 262 158 262 305c0 100 -58 168 -156 168c-149 0 -261 -154 -261 -302c0 -101 57 -171 155 -171z" />
    <glyph glyph-name="ocircumflex" unicode="&#xf4;" horiz-adv-x="567" 
d="M216 599l141 126h29l88 -126h-35l-72 98l-112 -98h-39zM229 -10c-117 0 -186 80 -186 196c0 175 133 337 294 337c117 0 187 -79 187 -194c0 -175 -133 -339 -295 -339zM230 20c147 0 262 158 262 305c0 100 -58 168 -156 168c-149 0 -261 -154 -261 -302
c0 -101 57 -171 155 -171z" />
    <glyph glyph-name="odieresis" unicode="&#xf6;" horiz-adv-x="567" 
d="M274 637c-16 0 -26 11 -26 25c0 20 15 37 34 37c16 0 26 -11 26 -25c0 -20 -15 -37 -34 -37zM438 637c-16 0 -26 11 -26 25c0 20 15 37 34 37c16 0 26 -11 26 -25c0 -20 -15 -37 -34 -37zM229 -10c-117 0 -186 80 -186 196c0 175 133 337 294 337c117 0 187 -79 187 -194
c0 -175 -133 -339 -295 -339zM230 20c147 0 262 158 262 305c0 100 -58 168 -156 168c-149 0 -261 -154 -261 -302c0 -101 57 -171 155 -171z" />
    <glyph glyph-name="ograve" unicode="&#xf2;" horiz-adv-x="567" 
d="M344 599l-88 126h42l80 -126h-34zM229 -10c-117 0 -186 80 -186 196c0 175 133 337 294 337c117 0 187 -79 187 -194c0 -175 -133 -339 -295 -339zM230 20c147 0 262 158 262 305c0 100 -58 168 -156 168c-149 0 -261 -154 -261 -302c0 -101 57 -171 155 -171z" />
    <glyph glyph-name="oslash" unicode="&#xf8;" horiz-adv-x="567" 
d="M-6 -33l86 93c-24 33 -37 76 -37 126c0 175 133 337 294 337c53 0 97 -16 128 -45l64 69h40l-84 -91c25 -33 39 -76 39 -127c0 -175 -133 -339 -295 -339c-55 0 -99 17 -130 48l-66 -71h-39zM103 85l340 369c-26 25 -62 39 -107 39c-149 0 -261 -154 -261 -302
c0 -41 10 -78 28 -106zM230 20c147 0 262 158 262 305c0 42 -10 79 -30 107l-341 -370c26 -27 63 -42 109 -42z" />
    <glyph glyph-name="otilde" unicode="&#xf5;" horiz-adv-x="567" 
d="M424 623c-30 0 -52 15 -74 28c-18 11 -37 21 -59 21c-33 0 -60 -18 -92 -44l8 36c31 26 54 38 87 38c28 0 52 -15 75 -28c19 -11 37 -21 57 -21c41 0 68 23 93 45l-8 -38c-25 -20 -48 -37 -87 -37zM229 -10c-117 0 -186 80 -186 196c0 175 133 337 294 337
c117 0 187 -79 187 -194c0 -175 -133 -339 -295 -339zM230 20c147 0 262 158 262 305c0 100 -58 168 -156 168c-149 0 -261 -154 -261 -302c0 -101 57 -171 155 -171z" />
    <glyph glyph-name="oe" unicode="&#x153;" horiz-adv-x="972" 
d="M229 -10c-117 0 -186 80 -186 196c0 175 133 337 294 337c106 0 172 -65 184 -162c50 94 139 162 243 162s169 -65 169 -175c0 -27 -4 -55 -12 -86l-2 -8h-403c-5 -23 -7 -45 -7 -68c0 -103 59 -166 160 -166c56 0 113 25 162 62l18 -22c-64 -49 -123 -70 -181 -70
c-110 0 -179 61 -190 165c-52 -96 -144 -165 -249 -165zM523 283h370c4 22 7 41 7 60c0 94 -49 151 -141 151c-115 0 -203 -97 -236 -211zM230 20c147 0 262 158 262 305c0 100 -58 168 -156 168c-149 0 -261 -154 -261 -302c0 -101 57 -171 155 -171z" />
    <glyph glyph-name="p" unicode="p" horiz-adv-x="560" 
d="M-21 -219l156 733h22l-8 -77c60 52 133 86 195 86c107 0 173 -81 173 -191c0 -182 -119 -340 -296 -340c-62 0 -121 32 -150 66l-57 -267zM217 22c167 0 268 145 268 309c0 97 -55 162 -143 162c-67 0 -138 -36 -199 -94l-66 -312c35 -37 84 -65 140 -65z" />
    <glyph glyph-name="thorn" unicode="&#xfe;" horiz-adv-x="560" 
d="M-21 -219l201 945l34 10l-63 -297c59 51 131 84 193 84c107 0 173 -81 173 -191c0 -181 -120 -340 -296 -340c-62 0 -121 32 -150 66l-57 -267zM217 22c167 0 268 145 268 309c0 98 -55 162 -143 162c-67 0 -138 -36 -199 -94l-66 -312c35 -37 84 -65 140 -65z" />
    <glyph glyph-name="q" unicode="q" horiz-adv-x="560" 
d="M347 -219l62 293c-59 -51 -131 -84 -193 -84c-107 0 -173 83 -173 193c0 182 119 340 296 340c63 0 123 -36 152 -71l21 62h22l-154 -723zM218 20c67 0 138 37 200 95l65 310c-36 37 -84 68 -140 68c-168 0 -268 -144 -268 -309c0 -96 56 -164 143 -164z" />
    <glyph glyph-name="r" unicode="r" horiz-adv-x="351" 
d="M26 0l109 514h22l-9 -89c76 73 154 96 215 96h15l-7 -31h-15c-70 0 -142 -32 -216 -106l-82 -384h-32z" />
    <glyph glyph-name="s" unicode="s" horiz-adv-x="480" 
d="M205 -10c-80 0 -154 30 -195 84l23 18c40 -49 106 -71 176 -71c91 0 147 48 147 110c0 52 -32 85 -120 118c-96 36 -139 72 -139 136c0 88 88 138 176 138c70 0 122 -24 164 -73l-23 -18c-49 50 -84 62 -144 62c-72 0 -141 -38 -142 -105c-1 -62 50 -85 127 -114
c90 -34 133 -77 133 -140c0 -84 -70 -145 -183 -145z" />
    <glyph glyph-name="scaron" unicode="&#x161;" horiz-adv-x="480" 
d="M284 599l-88 126h35l72 -98l112 98h39l-141 -126h-29zM205 -10c-80 0 -154 30 -195 84l23 18c40 -49 106 -71 176 -71c91 0 147 48 147 110c0 52 -32 85 -120 118c-96 36 -139 72 -139 136c0 88 88 138 176 138c70 0 122 -24 164 -73l-23 -18c-49 50 -84 62 -144 62
c-72 0 -141 -38 -142 -105c-1 -62 50 -85 127 -114c90 -34 133 -77 133 -140c0 -84 -70 -145 -183 -145z" />
    <glyph glyph-name="germandbls" unicode="&#xdf;" horiz-adv-x="602" 
d="M322 -10c-70 2 -122 29 -160 75l21 18c37 -39 76 -60 141 -62c98 -3 173 38 173 120c0 57 -40 90 -91 115c-53 26 -111 46 -111 107c0 59 51 88 100 124c50 36 102 65 102 128c0 50 -51 91 -129 91c-102 0 -176 -74 -203 -200l-107 -506h-32l108 509
c30 142 124 227 237 227c92 0 156 -54 156 -118c0 -78 -57 -111 -116 -154c-39 -28 -87 -53 -87 -100c0 -41 46 -57 95 -80c58 -27 110 -71 110 -141c0 -105 -91 -156 -207 -153z" />
    <glyph glyph-name="t" unicode="t" horiz-adv-x="378" 
d="M188 -8c-85 0 -129 47 -129 127c0 17 2 36 6 56l99 466l34 10l-29 -137h213l-6 -30h-213l-67 -313c-4 -18 -6 -35 -6 -50c0 -64 34 -98 98 -98c36 0 61 9 90 27l15 -24c-34 -23 -70 -34 -105 -34z" />
    <glyph glyph-name="u" unicode="u" horiz-adv-x="546" 
d="M192 -9c-86 0 -136 57 -136 145c0 26 5 59 12 91l61 287h32l-61 -285c-7 -31 -12 -65 -12 -91c0 -66 31 -117 111 -117c65 0 134 35 206 109l82 384h32l-109 -514h-22l9 89c-73 -73 -146 -98 -205 -98z" />
    <glyph glyph-name="uacute" unicode="&#xfa;" horiz-adv-x="546" 
d="M289 599l133 126h50l-142 -126h-41zM192 -9c-86 0 -136 57 -136 145c0 26 5 59 12 91l61 287h32l-61 -285c-7 -31 -12 -65 -12 -91c0 -66 31 -117 111 -117c65 0 134 35 206 109l82 384h32l-109 -514h-22l9 89c-73 -73 -146 -98 -205 -98z" />
    <glyph glyph-name="ucircumflex" unicode="&#xfb;" horiz-adv-x="546" 
d="M196 599l141 126h29l88 -126h-35l-72 98l-112 -98h-39zM192 -9c-86 0 -136 57 -136 145c0 26 5 59 12 91l61 287h32l-61 -285c-7 -31 -12 -65 -12 -91c0 -66 31 -117 111 -117c65 0 134 35 206 109l82 384h32l-109 -514h-22l9 89c-73 -73 -146 -98 -205 -98z" />
    <glyph glyph-name="udieresis" unicode="&#xfc;" horiz-adv-x="546" 
d="M254 637c-16 0 -26 11 -26 25c0 20 15 37 34 37c16 0 26 -11 26 -25c0 -20 -15 -37 -34 -37zM418 637c-16 0 -26 11 -26 25c0 20 15 37 34 37c16 0 26 -11 26 -25c0 -20 -15 -37 -34 -37zM192 -9c-86 0 -136 57 -136 145c0 26 5 59 12 91l61 287h32l-61 -285
c-7 -31 -12 -65 -12 -91c0 -66 31 -117 111 -117c65 0 134 35 206 109l82 384h32l-109 -514h-22l9 89c-73 -73 -146 -98 -205 -98z" />
    <glyph glyph-name="ugrave" unicode="&#xf9;" horiz-adv-x="546" 
d="M324 599l-88 126h42l80 -126h-34zM192 -9c-86 0 -136 57 -136 145c0 26 5 59 12 91l61 287h32l-61 -285c-7 -31 -12 -65 -12 -91c0 -66 31 -117 111 -117c65 0 134 35 206 109l82 384h32l-109 -514h-22l9 89c-73 -73 -146 -98 -205 -98z" />
    <glyph glyph-name="v" unicode="v" horiz-adv-x="501" 
d="M178 0l-101 514h33l92 -475l297 475h35l-322 -514h-34z" />
    <glyph glyph-name="w" unicode="w" horiz-adv-x="746" 
d="M137 0l-49 514h33l40 -471l245 429h33l53 -429l241 471h34l-267 -514h-32l-55 431l-244 -431h-32z" />
    <glyph glyph-name="wacute" unicode="&#x1e83;" horiz-adv-x="746" 
d="M398 599l133 126h50l-142 -126h-41zM137 0l-49 514h33l40 -471l245 429h33l53 -429l241 471h34l-267 -514h-32l-55 431l-244 -431h-32z" />
    <glyph glyph-name="wcircumflex" unicode="&#x175;" horiz-adv-x="746" 
d="M305 599l141 126h29l88 -126h-35l-72 98l-112 -98h-39zM137 0l-49 514h33l40 -471l245 429h33l53 -429l241 471h34l-267 -514h-32l-55 431l-244 -431h-32z" />
    <glyph glyph-name="wdieresis" unicode="&#x1e85;" horiz-adv-x="746" 
d="M363 637c-16 0 -26 11 -26 25c0 20 15 37 34 37c16 0 26 -11 26 -25c0 -20 -15 -37 -34 -37zM527 637c-16 0 -26 11 -26 25c0 20 15 37 34 37c16 0 26 -11 26 -25c0 -20 -15 -37 -34 -37zM137 0l-49 514h33l40 -471l245 429h33l53 -429l241 471h34l-267 -514h-32l-55 431
l-244 -431h-32z" />
    <glyph glyph-name="wgrave" unicode="&#x1e81;" horiz-adv-x="746" 
d="M433 599l-88 126h42l80 -126h-34zM137 0l-49 514h33l40 -471l245 429h33l53 -429l241 471h34l-267 -514h-32l-55 431l-244 -431h-32z" />
    <glyph glyph-name="x" unicode="x" horiz-adv-x="505" 
d="M-20 0l255 274l-125 240h36l113 -219l206 219h39l-231 -245l140 -269h-37l-128 248l-229 -248h-39z" />
    <glyph glyph-name="y" unicode="y" horiz-adv-x="499" 
d="M-35 -213l6 31h17c66 0 115 42 161 118l45 75l-119 503h34l107 -466l281 466h35l-358 -592c-56 -93 -107 -135 -193 -135h-16z" />
    <glyph glyph-name="yacute" unicode="&#xfd;" horiz-adv-x="499" 
d="M273 599l133 126h50l-142 -126h-41zM-35 -213l6 31h17c66 0 115 42 161 118l45 75l-119 503h34l107 -466l281 466h35l-358 -592c-56 -93 -107 -135 -193 -135h-16z" />
    <glyph glyph-name="ycircumflex" unicode="&#x177;" horiz-adv-x="499" 
d="M180 599l141 126h29l88 -126h-35l-72 98l-112 -98h-39zM-35 -213l6 31h17c66 0 115 42 161 118l45 75l-119 503h34l107 -466l281 466h35l-358 -592c-56 -93 -107 -135 -193 -135h-16z" />
    <glyph glyph-name="ydieresis" unicode="&#xff;" horiz-adv-x="499" 
d="M238 637c-16 0 -26 11 -26 25c0 20 15 37 34 37c16 0 26 -11 26 -25c0 -20 -15 -37 -34 -37zM402 637c-16 0 -26 11 -26 25c0 20 15 37 34 37c16 0 26 -11 26 -25c0 -20 -15 -37 -34 -37zM-35 -213l6 31h17c66 0 115 42 161 118l45 75l-119 503h34l107 -466l281 466h35
l-358 -592c-56 -93 -107 -135 -193 -135h-16z" />
    <glyph glyph-name="ygrave" unicode="&#x1ef3;" horiz-adv-x="499" 
d="M308 599l-88 126h42l80 -126h-34zM-35 -213l6 31h17c66 0 115 42 161 118l45 75l-119 503h34l107 -466l281 466h35l-358 -592c-56 -93 -107 -135 -193 -135h-16z" />
    <glyph glyph-name="z" unicode="z" horiz-adv-x="489" 
d="M-4 0l5 25l444 459h-339l6 30h383l-5 -25l-442 -459h351l-6 -30h-397z" />
    <glyph glyph-name="zcaron" unicode="&#x17e;" horiz-adv-x="489" 
d="M292 599l-88 126h35l72 -98l112 98h39l-141 -126h-29zM-4 0l5 25l444 459h-339l6 30h383l-5 -25l-442 -459h351l-6 -30h-397z" />
    <glyph glyph-name="ordfeminine" unicode="&#xaa;" horiz-adv-x="370" 
d="M157 295c-61 0 -94 37 -94 87c0 81 75 123 168 123h118l5 24c4 17 5 32 5 45c0 55 -29 81 -88 81c-43 0 -85 -18 -123 -50l-18 19c42 38 97 58 143 58c74 0 113 -35 113 -105c0 -17 -2 -34 -6 -54l-47 -221h-18l4 59c-43 -37 -101 -66 -162 -66zM161 322
c57 0 120 30 165 75l17 82h-116c-79 0 -135 -33 -135 -96c0 -33 24 -61 69 -61z" />
    <glyph glyph-name="ordmasculine" unicode="&#xba;" horiz-adv-x="425" 
d="M225 295c-86 0 -140 60 -140 148c0 125 96 239 214 239c86 0 140 -60 140 -147c0 -120 -92 -240 -214 -240zM225 323c107 0 184 110 184 212c0 71 -42 120 -112 120c-108 0 -182 -108 -182 -212c0 -70 40 -120 110 -120z" />
    <glyph glyph-name="uni03BC" unicode="&#x3bc;" horiz-adv-x="552" 
d="M-21 -219l156 733h32l-63 -294c-6 -28 -10 -55 -10 -79c0 -71 31 -120 114 -120c65 0 131 36 203 108l82 385h32l-109 -514h-22l9 88c-74 -73 -146 -97 -203 -97c-68 0 -109 32 -126 81l-60 -281z" />
    <glyph glyph-name="zero" unicode="0" horiz-adv-x="600" 
d="M253 -10c-119 0 -190 95 -190 232c0 215 125 444 311 444c120 0 193 -97 193 -234c0 -207 -125 -442 -314 -442zM253 21c174 0 282 223 282 412c0 118 -60 202 -162 202c-174 0 -278 -219 -278 -410c0 -117 56 -204 158 -204z" />
    <glyph glyph-name="one" unicode="1" horiz-adv-x="340" 
d="M141 0l132 622l-171 -56l6 30l178 61h26l-139 -657h-32z" />
    <glyph glyph-name="two" unicode="2" horiz-adv-x="538" 
d="M10 0l5 26l326 270c81 67 154 128 149 221c-4 68 -53 118 -147 118c-75 0 -133 -26 -196 -84l-20 21c63 60 137 94 219 94c112 0 172 -64 176 -147c5 -100 -72 -172 -158 -242l-301 -246h367l-6 -31h-414z" />
    <glyph glyph-name="three" unicode="3" horiz-adv-x="539" 
d="M217 -10c-83 0 -168 34 -214 85l23 20c42 -44 112 -74 190 -74c122 0 214 61 214 175c0 90 -65 145 -178 145h-44l4 24l276 261h-349l7 31h391l-6 -27l-276 -260c127 -3 207 -66 207 -173c0 -133 -107 -207 -245 -207z" />
    <glyph glyph-name="four" unicode="4" horiz-adv-x="579" 
d="M344 0l40 187h-351l5 23l446 447h30l-93 -440h103l-7 -30h-102l-40 -187h-31zM84 217h306l84 392z" />
    <glyph glyph-name="five" unicode="5" horiz-adv-x="533" 
d="M218 -10c-88 0 -161 38 -200 85l22 20c39 -42 98 -74 180 -74c124 0 207 74 207 188c0 83 -58 140 -163 140h-152l4 21l107 287h295l-6 -31h-270l-92 -247h115c121 0 194 -67 194 -168c0 -134 -101 -221 -241 -221z" />
    <glyph glyph-name="six" unicode="6" horiz-adv-x="553" 
d="M258 -10c-121 0 -192 83 -192 210c0 36 4 65 12 110c40 224 161 356 310 356c59 0 116 -24 155 -79l-23 -18c-34 45 -76 66 -136 66c-129 0 -226 -108 -270 -293c67 33 131 49 197 49c109 0 178 -72 178 -177c0 -129 -101 -224 -231 -224zM260 20c115 0 198 83 198 194
c0 89 -57 147 -150 147c-71 0 -140 -18 -201 -53c-9 -43 -11 -72 -11 -107c0 -111 60 -181 164 -181z" />
    <glyph glyph-name="seven" unicode="7" horiz-adv-x="536" 
d="M107 0l419 626h-396l7 31h431l-5 -27l-418 -630h-38z" />
    <glyph glyph-name="eight" unicode="8" horiz-adv-x="590" 
d="M266 -10c-134 0 -220 65 -220 166c0 93 83 163 189 207c-57 32 -94 73 -94 137c0 103 107 166 231 166c116 0 192 -66 192 -148c0 -93 -71 -154 -169 -196c69 -37 109 -80 109 -151c0 -112 -108 -181 -238 -181zM363 337c91 31 171 93 171 181c0 67 -65 118 -165 118
c-110 0 -198 -49 -198 -135c0 -71 50 -107 145 -144c17 -7 32 -13 47 -20zM267 20c113 0 206 60 206 150c0 83 -66 121 -171 162c-13 5 -25 10 -37 16c-99 -35 -188 -107 -188 -191c0 -90 87 -137 190 -137z" />
    <glyph glyph-name="nine" unicode="9" horiz-adv-x="553" 
d="M196 -10c-53 0 -115 24 -156 75l23 18c36 -41 84 -62 138 -62c137 0 221 110 263 304c-68 -35 -130 -51 -195 -51c-115 0 -183 74 -183 176c0 129 102 216 231 216c117 0 192 -90 192 -208c0 -36 -2 -75 -11 -120c-44 -225 -145 -348 -302 -348zM272 304
c69 0 137 19 199 55c6 37 8 68 8 99c0 102 -64 178 -164 178c-115 0 -198 -73 -198 -184c0 -86 55 -148 155 -148z" />
    <glyph glyph-name="zero.zero" horiz-adv-x="600" 
d="M374 666c120 0 193 -97 193 -234c0 -207 -125 -442 -314 -442c-119 0 -190 95 -190 232c0 215 125 444 311 444zM373 635c-174 0 -278 -219 -278 -410c0 -35 5 -68 15 -96l396 428c-27 49 -73 78 -133 78zM253 21c174 0 282 223 282 412c0 35 -5 68 -16 96l-396 -429
c26 -49 70 -79 130 -79z" />
    <glyph glyph-name="zero.tf" 
d="M246 -10c-115 0 -186 95 -186 232c0 215 124 444 307 444c116 0 189 -97 189 -234c0 -207 -124 -442 -310 -442zM246 21c171 0 278 223 278 412c0 118 -60 202 -158 202c-171 0 -274 -219 -274 -410c0 -117 56 -204 154 -204z" />
    <glyph glyph-name="one.tf" 
d="M277 0l132 622l-197 -63l6 28l203 70h27l-139 -657h-32z" />
    <glyph glyph-name="two.tf" 
d="M25 0l5 26l326 270c81 67 154 128 149 221c-4 68 -53 118 -147 118c-75 0 -133 -26 -196 -84l-20 21c63 60 137 94 219 94c112 0 172 -64 176 -147c5 -100 -72 -172 -158 -242l-301 -246h367l-6 -31h-414z" />
    <glyph glyph-name="three.tf" 
d="M237 -10c-83 0 -168 34 -214 85l23 20c42 -44 112 -74 190 -74c122 0 214 61 214 175c0 90 -65 145 -178 145h-44l4 24l276 261h-349l7 31h391l-6 -27l-276 -260c127 -3 207 -66 207 -173c0 -133 -107 -207 -245 -207z" />
    <glyph glyph-name="four.tf" 
d="M347 0l40 187h-354l4 21l450 449h30l-93 -440h103l-7 -30h-102l-40 -187h-31zM83 217h310l84 394z" />
    <glyph glyph-name="five.tf" 
d="M250 -10c-88 0 -161 38 -200 85l22 20c39 -42 98 -74 180 -74c124 0 207 74 207 188c0 83 -58 140 -163 140h-152l4 21l107 287h295l-6 -31h-270l-92 -247h115c121 0 194 -67 194 -168c0 -134 -101 -221 -241 -221z" />
    <glyph glyph-name="six.tf" 
d="M283 -10c-121 0 -192 83 -192 210c0 36 4 65 12 110c40 224 161 356 310 356c59 0 116 -24 155 -79l-23 -18c-34 45 -76 66 -136 66c-129 0 -226 -108 -270 -293c67 33 131 49 197 49c109 0 178 -72 178 -177c0 -129 -101 -224 -231 -224zM285 20c115 0 198 83 198 194
c0 89 -57 147 -150 147c-71 0 -140 -18 -201 -53c-9 -43 -11 -72 -11 -107c0 -111 60 -181 164 -181z" />
    <glyph glyph-name="seven.tf" 
d="M128 0l419 626h-396l7 31h431l-5 -27l-418 -630h-38z" />
    <glyph glyph-name="eight.tf" 
d="M266 -10c-134 0 -220 65 -220 166c0 93 83 163 189 207c-57 32 -94 73 -94 137c0 103 107 166 231 166c116 0 192 -66 192 -148c0 -93 -71 -154 -169 -196c69 -37 109 -80 109 -151c0 -112 -108 -181 -238 -181zM363 337c91 31 171 93 171 181c0 67 -65 118 -165 118
c-110 0 -198 -49 -198 -135c0 -71 50 -107 145 -144c17 -7 32 -13 47 -20zM267 20c113 0 206 60 206 150c0 83 -66 121 -171 162c-13 5 -25 10 -37 16c-99 -35 -188 -107 -188 -191c0 -90 87 -137 190 -137z" />
    <glyph glyph-name="nine.tf" 
d="M217 -10c-53 0 -115 24 -156 75l23 18c36 -41 84 -62 138 -62c137 0 221 110 263 304c-68 -35 -130 -51 -195 -51c-115 0 -183 74 -183 176c0 129 102 216 231 216c117 0 192 -90 192 -208c0 -36 -2 -75 -11 -120c-44 -225 -145 -348 -302 -348zM293 304
c69 0 137 19 199 55c6 37 8 68 8 99c0 102 -64 178 -164 178c-115 0 -198 -73 -198 -184c0 -86 55 -148 155 -148z" />
    <glyph glyph-name="zero.tf.zero" 
d="M367 666c116 0 189 -97 189 -234c0 -207 -124 -442 -310 -442c-115 0 -186 95 -186 232c0 215 124 444 307 444zM366 635c-171 0 -274 -219 -274 -410c0 -33 4 -63 13 -89l390 421c-26 49 -71 78 -129 78zM246 21c171 0 278 223 278 412c0 36 -6 69 -16 97l-392 -424
c25 -52 70 -85 130 -85z" />
    <glyph glyph-name="zero.subs" horiz-adv-x="398" 
d="M132 -83c-73 0 -119 54 -119 137c0 118 76 242 188 242c72 0 120 -54 120 -137c0 -115 -75 -242 -189 -242zM133 -54c98 0 158 115 158 214c0 67 -35 108 -91 108c-99 0 -158 -114 -158 -214c0 -67 35 -108 91 -108z" />
    <glyph glyph-name="one.subs" horiz-adv-x="277" 
d="M79 -76l71 336l-99 -28l5 26l108 33h22l-78 -367h-29z" />
    <glyph glyph-name="two.subs" horiz-adv-x="370" 
d="M-12 -76l4 20l185 144c57 44 89 71 89 118c0 35 -28 63 -82 63c-45 0 -79 -18 -115 -48l-17 21c42 36 86 55 134 55c73 0 110 -44 110 -94c0 -56 -51 -95 -95 -129l-161 -124h206l-5 -26h-253z" />
    <glyph glyph-name="three.subs" horiz-adv-x="391" 
d="M134 -83c-50 0 -105 20 -134 56l19 19c27 -28 69 -47 115 -47c65 0 113 34 113 89c0 46 -37 74 -98 74h-36l3 20l151 135h-196l6 28h239l-4 -21l-154 -137c70 -3 119 -39 119 -99c0 -71 -63 -117 -143 -117z" />
    <glyph glyph-name="four.subs" horiz-adv-x="407" 
d="M192 -76l21 101h-208l3 19l262 247h28l-51 -240h61l-5 -26h-62l-21 -101h-28zM50 51h169l42 199z" />
    <glyph glyph-name="five.subs" horiz-adv-x="384" 
d="M125 -83c-52 0 -97 25 -121 53l21 17c23 -24 59 -42 101 -42c69 0 115 36 115 95c0 46 -35 73 -92 73h-94l3 17l54 161h188l-5 -28h-166l-41 -124h60c74 0 123 -39 123 -98c0 -77 -61 -124 -146 -124z" />
    <glyph glyph-name="six.subs" horiz-adv-x="399" 
d="M152 -83c-72 0 -121 49 -121 125c0 17 3 42 7 61c26 125 96 193 186 193c38 0 73 -14 98 -45l-20 -17c-21 24 -45 34 -80 34c-73 0 -127 -53 -151 -145c38 17 75 25 111 25c66 0 110 -44 110 -102c0 -73 -62 -129 -140 -129zM154 -55c64 0 108 43 108 100
c0 44 -33 76 -85 76c-43 0 -81 -10 -112 -27c-4 -18 -6 -34 -6 -50c0 -62 37 -99 95 -99z" />
    <glyph glyph-name="seven.subs" horiz-adv-x="382" 
d="M51 -76l238 340h-227l6 27h264l-4 -18l-243 -349h-34z" />
    <glyph glyph-name="eight.subs" horiz-adv-x="417" 
d="M152 -83c-81 0 -135 38 -135 95c0 48 42 88 102 113c-29 17 -50 39 -50 74c0 58 66 97 140 97c72 0 120 -37 120 -85c0 -49 -38 -84 -89 -107c37 -20 58 -45 58 -83c0 -64 -67 -104 -146 -104zM210 117c50 16 91 48 91 91c0 36 -38 62 -93 62c-61 0 -111 -28 -111 -71
c0 -37 31 -55 87 -73zM154 -56c64 0 116 32 116 77c0 44 -40 64 -102 84c-7 2 -14 5 -20 7c-54 -18 -102 -53 -102 -97c0 -46 49 -71 108 -71z" />
    <glyph glyph-name="nine.subs" horiz-adv-x="395" 
d="M117 -83c-35 0 -75 12 -102 44l19 18c21 -24 48 -34 80 -34c76 0 127 52 147 156c-38 -19 -77 -28 -114 -28c-71 0 -111 47 -111 103c0 71 59 120 139 120c70 0 117 -53 120 -125c0 -20 -1 -41 -4 -62c-20 -123 -83 -192 -174 -192zM150 100c42 0 81 12 116 30
c1 14 1 26 1 40c-2 58 -38 98 -95 98c-64 0 -107 -37 -107 -91c0 -45 31 -77 85 -77z" />
    <glyph glyph-name="zero.dnom" horiz-adv-x="398" 
d="M148 -7c-73 0 -119 54 -119 137c0 118 76 242 188 242c72 0 120 -54 120 -137c0 -115 -75 -242 -189 -242zM149 22c98 0 158 115 158 214c0 67 -35 108 -91 108c-99 0 -158 -114 -158 -214c0 -67 35 -108 91 -108z" />
    <glyph glyph-name="one.dnom" horiz-adv-x="277" 
d="M95 0l71 336l-99 -28l5 26l108 33h22l-78 -367h-29z" />
    <glyph glyph-name="two.dnom" horiz-adv-x="370" 
d="M4 0l4 20l185 144c57 44 89 71 89 118c0 35 -28 63 -82 63c-45 0 -79 -18 -115 -48l-17 21c42 36 86 55 134 55c73 0 110 -44 110 -94c0 -56 -51 -95 -95 -129l-161 -124h206l-5 -26h-253z" />
    <glyph glyph-name="three.dnom" horiz-adv-x="391" 
d="M150 -7c-50 0 -105 20 -134 56l19 19c27 -28 69 -47 115 -47c65 0 113 34 113 89c0 46 -37 74 -98 74h-36l3 20l151 135h-196l6 28h239l-4 -21l-154 -137c70 -3 119 -39 119 -99c0 -71 -63 -117 -143 -117z" />
    <glyph glyph-name="four.dnom" horiz-adv-x="407" 
d="M208 0l21 101h-208l3 19l262 247h28l-51 -240h61l-5 -26h-62l-21 -101h-28zM66 127h169l42 199z" />
    <glyph glyph-name="five.dnom" horiz-adv-x="384" 
d="M141 -7c-52 0 -97 25 -121 53l21 17c23 -24 59 -42 101 -42c69 0 115 36 115 95c0 46 -35 73 -92 73h-94l3 17l54 161h188l-5 -28h-166l-41 -124h60c74 0 123 -39 123 -98c0 -77 -61 -124 -146 -124z" />
    <glyph glyph-name="six.dnom" horiz-adv-x="399" 
d="M168 -7c-72 0 -121 49 -121 125c0 17 3 42 7 61c26 125 96 193 186 193c38 0 73 -14 98 -45l-20 -17c-21 24 -45 34 -80 34c-73 0 -127 -53 -151 -145c38 17 75 25 111 25c66 0 110 -44 110 -102c0 -73 -62 -129 -140 -129zM170 21c64 0 108 43 108 100
c0 44 -33 76 -85 76c-43 0 -81 -10 -112 -27c-4 -18 -6 -34 -6 -50c0 -62 37 -99 95 -99z" />
    <glyph glyph-name="seven.dnom" horiz-adv-x="382" 
d="M67 0l238 340h-227l6 27h264l-4 -18l-243 -349h-34z" />
    <glyph glyph-name="eight.dnom" horiz-adv-x="417" 
d="M168 -7c-81 0 -135 38 -135 95c0 48 42 88 102 113c-29 17 -50 39 -50 74c0 58 66 97 140 97c72 0 120 -37 120 -85c0 -49 -38 -84 -89 -107c37 -20 58 -45 58 -83c0 -64 -67 -104 -146 -104zM226 193c50 16 91 48 91 91c0 36 -38 62 -93 62c-61 0 -111 -28 -111 -71
c0 -37 31 -55 87 -73zM170 20c64 0 116 32 116 77c0 44 -40 64 -102 84c-7 2 -14 5 -20 7c-54 -18 -102 -53 -102 -97c0 -46 49 -71 108 -71z" />
    <glyph glyph-name="nine.dnom" horiz-adv-x="395" 
d="M133 -7c-35 0 -75 12 -102 44l19 18c21 -24 48 -34 80 -34c76 0 127 52 147 156c-38 -19 -77 -28 -114 -28c-71 0 -111 47 -111 103c0 71 59 120 139 120c70 0 117 -53 120 -125c0 -20 -1 -41 -4 -62c-20 -123 -83 -192 -174 -192zM166 176c42 0 81 12 116 30
c1 14 1 26 1 40c-2 58 -38 98 -95 98c-64 0 -107 -37 -107 -91c0 -45 31 -77 85 -77z" />
    <glyph glyph-name="zero.numr" horiz-adv-x="398" 
d="M210 282c-73 0 -119 54 -119 137c0 118 76 242 188 242c72 0 120 -54 120 -137c0 -115 -75 -242 -189 -242zM211 311c98 0 158 115 158 214c0 67 -35 108 -91 108c-99 0 -158 -114 -158 -214c0 -67 35 -108 91 -108z" />
    <glyph glyph-name="one.numr" horiz-adv-x="277" 
d="M157 289l71 336l-99 -28l5 26l108 33h22l-78 -367h-29z" />
    <glyph glyph-name="two.numr" horiz-adv-x="370" 
d="M66 289l4 20l185 144c57 44 89 71 89 118c0 35 -28 63 -82 63c-45 0 -79 -18 -115 -48l-17 21c42 36 86 55 134 55c73 0 110 -44 110 -94c0 -56 -51 -95 -95 -129l-161 -124h206l-5 -26h-253z" />
    <glyph glyph-name="three.numr" horiz-adv-x="391" 
d="M212 282c-50 0 -105 20 -134 56l19 19c27 -28 69 -47 115 -47c65 0 113 34 113 89c0 46 -37 74 -98 74h-36l3 20l151 135h-196l6 28h239l-4 -21l-154 -137c70 -3 119 -39 119 -99c0 -71 -63 -117 -143 -117z" />
    <glyph glyph-name="four.numr" horiz-adv-x="407" 
d="M270 289l21 101h-208l3 19l262 247h28l-51 -240h61l-5 -26h-62l-21 -101h-28zM128 416h169l42 199z" />
    <glyph glyph-name="five.numr" horiz-adv-x="384" 
d="M203 282c-52 0 -97 25 -121 53l21 17c23 -24 59 -42 101 -42c69 0 115 36 115 95c0 46 -35 73 -92 73h-94l3 17l54 161h188l-5 -28h-166l-41 -124h60c74 0 123 -39 123 -98c0 -77 -61 -124 -146 -124z" />
    <glyph glyph-name="six.numr" horiz-adv-x="399" 
d="M230 282c-72 0 -121 49 -121 125c0 17 3 42 7 61c26 125 96 193 186 193c38 0 73 -14 98 -45l-20 -17c-21 24 -45 34 -80 34c-73 0 -127 -53 -151 -145c38 17 75 25 111 25c66 0 110 -44 110 -102c0 -73 -62 -129 -140 -129zM232 310c64 0 108 43 108 100
c0 44 -33 76 -85 76c-43 0 -81 -10 -112 -27c-4 -18 -6 -34 -6 -50c0 -62 37 -99 95 -99z" />
    <glyph glyph-name="seven.numr" horiz-adv-x="382" 
d="M129 289l238 340h-227l6 27h264l-4 -18l-243 -349h-34z" />
    <glyph glyph-name="eight.numr" horiz-adv-x="417" 
d="M230 282c-81 0 -135 38 -135 95c0 48 42 88 102 113c-29 17 -50 39 -50 74c0 58 66 97 140 97c72 0 120 -37 120 -85c0 -49 -38 -84 -89 -107c37 -20 58 -45 58 -83c0 -64 -67 -104 -146 -104zM288 482c50 16 91 48 91 91c0 36 -38 62 -93 62c-61 0 -111 -28 -111 -71
c0 -37 31 -55 87 -73zM232 309c64 0 116 32 116 77c0 44 -40 64 -102 84c-7 2 -14 5 -20 7c-54 -18 -102 -53 -102 -97c0 -46 49 -71 108 -71z" />
    <glyph glyph-name="nine.numr" horiz-adv-x="395" 
d="M195 282c-35 0 -75 12 -102 44l19 18c21 -24 48 -34 80 -34c76 0 127 52 147 156c-38 -19 -77 -28 -114 -28c-71 0 -111 47 -111 103c0 71 59 120 139 120c70 0 117 -53 120 -125c0 -20 -1 -41 -4 -62c-20 -123 -83 -192 -174 -192zM228 465c42 0 81 12 116 30
c1 14 1 26 1 40c-2 58 -38 98 -95 98c-64 0 -107 -37 -107 -91c0 -45 31 -77 85 -77z" />
    <glyph glyph-name="uni2070" unicode="&#x2070;" horiz-adv-x="398" 
d="M224 350c-73 0 -119 54 -119 137c0 118 76 242 188 242c72 0 120 -54 120 -137c0 -115 -75 -242 -189 -242zM225 379c98 0 158 115 158 214c0 67 -35 108 -91 108c-99 0 -158 -114 -158 -214c0 -67 35 -108 91 -108z" />
    <glyph glyph-name="uni00B9" unicode="&#xb9;" horiz-adv-x="277" 
d="M171 357l71 336l-99 -28l5 26l108 33h22l-78 -367h-29z" />
    <glyph glyph-name="uni00B2" unicode="&#xb2;" horiz-adv-x="370" 
d="M80 357l4 20l185 144c57 44 89 71 89 118c0 35 -28 63 -82 63c-45 0 -79 -18 -115 -48l-17 21c42 36 86 55 134 55c73 0 110 -44 110 -94c0 -56 -51 -95 -95 -129l-161 -124h206l-5 -26h-253z" />
    <glyph glyph-name="uni00B3" unicode="&#xb3;" horiz-adv-x="391" 
d="M226 350c-50 0 -105 20 -134 56l19 19c27 -28 69 -47 115 -47c65 0 113 34 113 89c0 46 -37 74 -98 74h-36l3 20l151 135h-196l6 28h239l-4 -21l-154 -137c70 -3 119 -39 119 -99c0 -71 -63 -117 -143 -117z" />
    <glyph glyph-name="uni2074" unicode="&#x2074;" horiz-adv-x="407" 
d="M284 357l21 101h-208l3 19l262 247h28l-51 -240h61l-5 -26h-62l-21 -101h-28zM142 484h169l42 199z" />
    <glyph glyph-name="uni2075" unicode="&#x2075;" horiz-adv-x="384" 
d="M217 350c-52 0 -97 25 -121 53l21 17c23 -24 59 -42 101 -42c69 0 115 36 115 95c0 46 -35 73 -92 73h-94l3 17l54 161h188l-5 -28h-166l-41 -124h60c74 0 123 -39 123 -98c0 -77 -61 -124 -146 -124z" />
    <glyph glyph-name="uni2076" unicode="&#x2076;" horiz-adv-x="399" 
d="M244 350c-72 0 -121 49 -121 125c0 17 3 42 7 61c26 125 96 193 186 193c38 0 73 -14 98 -45l-20 -17c-21 24 -45 34 -80 34c-73 0 -127 -53 -151 -145c38 17 75 25 111 25c66 0 110 -44 110 -102c0 -73 -62 -129 -140 -129zM246 378c64 0 108 43 108 100
c0 44 -33 76 -85 76c-43 0 -81 -10 -112 -27c-4 -18 -6 -34 -6 -50c0 -62 37 -99 95 -99z" />
    <glyph glyph-name="uni2077" unicode="&#x2077;" horiz-adv-x="382" 
d="M143 357l238 340h-227l6 27h264l-4 -18l-243 -349h-34z" />
    <glyph glyph-name="uni2078" unicode="&#x2078;" horiz-adv-x="417" 
d="M244 350c-81 0 -135 38 -135 95c0 48 42 88 102 113c-29 17 -50 39 -50 74c0 58 66 97 140 97c72 0 120 -37 120 -85c0 -49 -38 -84 -89 -107c37 -20 58 -45 58 -83c0 -64 -67 -104 -146 -104zM302 550c50 16 91 48 91 91c0 36 -38 62 -93 62c-61 0 -111 -28 -111 -71
c0 -37 31 -55 87 -73zM246 377c64 0 116 32 116 77c0 44 -40 64 -102 84c-7 2 -14 5 -20 7c-54 -18 -102 -53 -102 -97c0 -46 49 -71 108 -71z" />
    <glyph glyph-name="uni2079" unicode="&#x2079;" horiz-adv-x="395" 
d="M209 350c-35 0 -75 12 -102 44l19 18c21 -24 48 -34 80 -34c76 0 127 52 147 156c-38 -19 -77 -28 -114 -28c-71 0 -111 47 -111 103c0 71 59 120 139 120c70 0 117 -53 120 -125c0 -20 -1 -41 -4 -62c-20 -123 -83 -192 -174 -192zM242 533c42 0 81 12 116 30
c1 14 1 26 1 40c-2 58 -38 98 -95 98c-64 0 -107 -37 -107 -91c0 -45 31 -77 85 -77z" />
    <glyph glyph-name="fraction" unicode="&#x2044;" horiz-adv-x="87" 
d="M-262 0l603 657h39l-602 -657h-40z" />
    <glyph glyph-name="onehalf" unicode="&#xbd;" horiz-adv-x="808" 
d="M40 0l603 657h39l-602 -657h-40zM157 289l71 336l-99 -28l5 26l108 33h22l-78 -367h-29zM442 0l4 20l185 144c57 44 89 71 89 118c0 35 -28 63 -82 63c-45 0 -79 -18 -115 -48l-17 21c42 36 86 55 134 55c73 0 110 -44 110 -94c0 -56 -51 -95 -95 -129l-161 -124h206
l-5 -26h-253z" />
    <glyph glyph-name="onequarter" unicode="&#xbc;" horiz-adv-x="770" 
d="M63 0l603 657h39l-602 -657h-40zM157 289l71 336l-99 -28l5 26l108 33h22l-78 -367h-29zM571 0l21 101h-208l3 19l262 247h28l-51 -240h61l-5 -26h-62l-21 -101h-28zM429 127h169l42 199z" />
    <glyph glyph-name="threequarters" unicode="&#xbe;" horiz-adv-x="843" 
d="M138 0l603 657h39l-602 -657h-40zM212 282c-50 0 -105 20 -134 56l19 19c27 -28 69 -47 115 -47c65 0 113 34 113 89c0 46 -37 74 -98 74h-36l3 20l151 135h-196l6 28h239l-4 -21l-154 -137c70 -3 119 -39 119 -99c0 -71 -63 -117 -143 -117zM644 0l21 101h-208l3 19
l262 247h28l-51 -240h61l-5 -26h-62l-21 -101h-28zM502 127h169l42 199z" />
    <glyph glyph-name="period" unicode="." horiz-adv-x="253" 
d="M72 -10c-18 0 -28 11 -28 27c0 21 14 39 35 39c18 0 28 -11 28 -27c0 -21 -14 -39 -35 -39z" />
    <glyph glyph-name="comma" unicode="," horiz-adv-x="253" 
d="M-33 -127c52 57 99 142 115 187h35c-18 -54 -67 -139 -117 -187h-33z" />
    <glyph glyph-name="colon" unicode=":" horiz-adv-x="254" 
d="M173 454c-18 0 -28 11 -28 27c0 21 14 39 35 39c18 0 28 -11 28 -27c0 -21 -14 -39 -35 -39zM75 -10c-18 0 -28 11 -28 27c0 21 14 39 35 39c18 0 28 -11 28 -27c0 -21 -14 -39 -35 -39z" />
    <glyph glyph-name="semicolon" unicode=";" horiz-adv-x="253" 
d="M172 454c-18 0 -28 11 -28 27c0 21 14 39 35 39c18 0 28 -11 28 -27c0 -21 -14 -39 -35 -39zM-32 -127c52 57 99 142 115 187h35c-18 -54 -67 -139 -117 -187h-33z" />
    <glyph glyph-name="ellipsis" unicode="&#x2026;" horiz-adv-x="657" 
d="M72 -10c-18 0 -28 11 -28 27c0 21 14 39 35 39c18 0 28 -11 28 -27c0 -21 -14 -39 -35 -39zM274 -10c-18 0 -28 11 -28 27c0 21 14 39 35 39c18 0 28 -11 28 -27c0 -21 -14 -39 -35 -39zM476 -10c-18 0 -28 11 -28 27c0 21 14 39 35 39c18 0 28 -11 28 -27
c0 -21 -14 -39 -35 -39z" />
    <glyph glyph-name="exclam" unicode="!" horiz-adv-x="227" 
d="M80 161l106 515h34l-112 -515h-28zM64 -10c-18 0 -28 11 -28 27c0 21 14 39 35 39c18 0 28 -11 28 -27c0 -21 -14 -39 -35 -39z" />
    <glyph glyph-name="exclamdown" unicode="&#xa1;" horiz-adv-x="227" 
d="M156 458c-18 0 -28 11 -28 27c0 21 14 39 35 39c18 0 28 -11 28 -27c0 -21 -14 -39 -35 -39zM7 -162l112 515h28l-106 -515h-34z" />
    <glyph glyph-name="question" unicode="?" horiz-adv-x="505" 
d="M210 161l8 37c18 85 75 126 139 173c70 52 119 92 119 167c0 67 -48 118 -141 118c-87 0 -153 -35 -210 -86l-19 23c63 57 142 93 230 93c112 0 172 -64 172 -146c0 -86 -53 -131 -126 -186c-59 -45 -114 -78 -131 -153l-9 -40h-32zM202 -10c-18 0 -28 11 -28 27
c0 21 14 39 35 39c18 0 28 -11 28 -27c0 -21 -14 -39 -35 -39z" />
    <glyph glyph-name="questiondown" unicode="&#xbf;" horiz-adv-x="473" 
d="M306 458c-18 0 -28 11 -28 27c0 21 14 39 35 39c18 0 28 -11 28 -27c0 -21 -14 -39 -35 -39zM179 -172c-112 0 -172 64 -172 146c0 86 53 131 126 186c59 45 114 78 131 153l9 40h32l-8 -37c-18 -85 -75 -126 -139 -173c-70 -52 -119 -92 -119 -167
c0 -67 48 -118 141 -118c87 0 153 35 210 86l19 -23c-63 -57 -142 -93 -230 -93z" />
    <glyph glyph-name="periodcentered" unicode="&#xb7;" horiz-adv-x="248" 
d="M142 317c-18 0 -28 11 -28 27c0 21 14 39 35 39c18 0 28 -11 28 -27c0 -21 -14 -39 -35 -39z" />
    <glyph glyph-name="bullet" unicode="&#x2022;" horiz-adv-x="360" 
d="M200 273c-43 0 -78 34 -78 78c0 45 35 78 78 78s78 -33 78 -78c0 -44 -35 -78 -78 -78z" />
    <glyph glyph-name="asterisk" unicode="*" horiz-adv-x="350" 
d="M198 419l26 116l-107 -65l-11 21l112 67l-85 65l18 20l81 -65l25 116h28l-26 -116l107 66l12 -22l-112 -66l83 -65l-19 -20l-80 65l-24 -117h-28z" />
    <glyph glyph-name="numbersign" unicode="#" horiz-adv-x="614" 
d="M107 29l49 154h-99l10 31h99l75 235h-99l10 30h98l47 148h30l-47 -148h185l47 148h30l-47 -148h94l-9 -30h-94l-75 -235h94l-10 -31h-94l-49 -154h-30l49 154h-185l-49 -154h-30zM196 214h185l75 235h-186z" />
    <glyph glyph-name="slash" unicode="/" horiz-adv-x="411" 
d="M-63 -126l521 861h37l-521 -861h-37z" />
    <glyph glyph-name="backslash" unicode="\" horiz-adv-x="410" 
d="M276 -126l-155 861h33l155 -861h-33z" />
    <glyph glyph-name="exclamdown.case" horiz-adv-x="227" 
d="M194 620c-18 0 -28 11 -28 27c0 21 14 39 35 39c18 0 28 -11 28 -27c0 -21 -14 -39 -35 -39zM45 0l112 515h28l-106 -515h-34z" />
    <glyph glyph-name="questiondown.case" horiz-adv-x="505" 
d="M331 620c-18 0 -28 11 -28 27c0 21 14 39 35 39c18 0 28 -11 28 -27c0 -21 -14 -39 -35 -39zM204 -10c-112 0 -172 64 -172 146c0 86 53 131 126 186c59 45 114 78 131 153l9 40h32l-8 -37c-18 -85 -75 -126 -139 -173c-70 -52 -119 -92 -119 -167
c0 -67 48 -118 141 -118c87 0 153 35 210 86l19 -23c-63 -57 -142 -93 -230 -93z" />
    <glyph glyph-name="slash.case" horiz-adv-x="410" 
d="M-58 -94l521 861h37l-521 -861h-37z" />
    <glyph glyph-name="backslash.case" horiz-adv-x="410" 
d="M276 -94l-155 861h33l155 -861h-33z" />
    <glyph glyph-name="parenleft" unicode="(" horiz-adv-x="312" 
d="M165 -126c-59 78 -89 181 -89 293c0 214 109 429 269 568h39c-163 -140 -274 -355 -274 -568c0 -109 29 -212 90 -293h-35z" />
    <glyph glyph-name="parenright" unicode=")" horiz-adv-x="312" 
d="M-66 -126c163 140 274 355 274 568c0 109 -29 212 -90 293h35c59 -78 89 -181 89 -293c0 -214 -109 -429 -269 -568h-39z" />
    <glyph glyph-name="braceleft" unicode="{" horiz-adv-x="359" 
d="M210 -126c-99 0 -153 46 -153 131c0 17 2 36 7 57l20 91c3 16 5 30 5 43c0 47 -22 77 -52 98l5 23c58 27 91 69 107 142l19 90c26 122 100 186 220 186h41l-14 -30h-39c-92 0 -154 -52 -174 -147l-20 -93c-17 -79 -44 -125 -109 -162c29 -26 47 -58 47 -105
c0 -16 -2 -33 -6 -53l-21 -96c-3 -16 -5 -31 -5 -45c0 -64 39 -100 115 -100h41l2 -30h-36z" />
    <glyph glyph-name="braceright" unicode="}" horiz-adv-x="360" 
d="M-49 -126l14 30h39c92 0 154 52 174 147l20 93c17 79 44 125 109 162c-29 26 -47 58 -47 105c0 16 2 33 6 53l21 96c3 16 5 31 5 45c0 64 -39 100 -115 100h-41l-2 30h36c99 0 153 -46 153 -131c0 -17 -2 -36 -7 -57l-20 -91c-3 -16 -5 -30 -5 -43c0 -47 22 -77 52 -98
l-5 -23c-58 -27 -91 -69 -107 -142l-19 -90c-26 -122 -100 -186 -220 -186h-41z" />
    <glyph glyph-name="bracketleft" unicode="[" horiz-adv-x="359" 
d="M24 -126l183 861h222l-14 -30h-182l-171 -801h181l2 -30h-221z" />
    <glyph glyph-name="bracketright" unicode="]" horiz-adv-x="359" 
d="M-63 -126l14 30h182l171 801h-181l-2 30h221l-183 -861h-222z" />
    <glyph glyph-name="parenleft.case" horiz-adv-x="312" 
d="M173 -88c-59 78 -89 181 -89 293c0 214 109 429 269 568h39c-163 -140 -274 -355 -274 -568c0 -109 29 -212 90 -293h-35z" />
    <glyph glyph-name="parenright.case" horiz-adv-x="312" 
d="M-58 -88c163 140 274 355 274 568c0 109 -29 212 -90 293h35c59 -78 89 -181 89 -293c0 -214 -109 -429 -269 -568h-39z" />
    <glyph glyph-name="braceleft.case" horiz-adv-x="359" 
d="M218 -88c-99 0 -153 46 -153 131c0 17 2 36 7 57l20 91c3 16 5 30 5 43c0 47 -22 77 -52 98l5 23c58 27 91 69 107 142l19 90c26 122 100 186 220 186h41l-14 -30h-39c-92 0 -154 -52 -174 -147l-20 -93c-17 -79 -44 -125 -109 -162c29 -26 47 -58 47 -105
c0 -16 -2 -33 -6 -53l-21 -96c-3 -16 -5 -31 -5 -45c0 -64 39 -100 115 -100h41l2 -30h-36z" />
    <glyph glyph-name="braceright.case" horiz-adv-x="360" 
d="M-41 -88l14 30h39c92 0 154 52 174 147l20 93c17 79 44 125 109 162c-29 26 -47 58 -47 105c0 16 2 33 6 53l21 96c3 16 5 31 5 45c0 64 -39 100 -115 100h-41l-2 30h36c99 0 153 -46 153 -131c0 -17 -2 -36 -7 -57l-20 -91c-3 -16 -5 -30 -5 -43c0 -47 22 -77 52 -98
l-5 -23c-58 -27 -91 -69 -107 -142l-19 -90c-26 -122 -100 -186 -220 -186h-41z" />
    <glyph glyph-name="bracketleft.case" horiz-adv-x="359" 
d="M32 -88l183 861h222l-14 -30h-182l-171 -801h181l2 -30h-221z" />
    <glyph glyph-name="bracketright.case" horiz-adv-x="359" 
d="M-55 -88l14 30h182l171 801h-181l-2 30h221l-183 -861h-222z" />
    <glyph glyph-name="hyphen" unicode="-" horiz-adv-x="413" 
d="M65 277l6 30h291l-6 -30h-291z" />
    <glyph glyph-name="uni00AD" unicode="&#xad;" horiz-adv-x="413" 
d="M65 277l6 30h291l-6 -30h-291z" />
    <glyph glyph-name="endash" unicode="&#x2013;" horiz-adv-x="480" 
d="M4 277l7 30h480l-7 -30h-480z" />
    <glyph glyph-name="emdash" unicode="&#x2014;" horiz-adv-x="960" 
d="M4 277l7 30h960l-7 -30h-960z" />
    <glyph glyph-name="underscore" unicode="_" horiz-adv-x="480" 
d="M-81 -125l6 29h480l-6 -29h-480z" />
    <glyph glyph-name="hyphen.case" horiz-adv-x="413" 
d="M76 329l6 30h291l-6 -30h-291z" />
    <glyph glyph-name="endash.case" horiz-adv-x="480" 
d="M15 329l7 30h480l-7 -30h-480z" />
    <glyph glyph-name="emdash.case" horiz-adv-x="960" 
d="M15 329l7 30h960l-7 -30h-960z" />
    <glyph glyph-name="quotesinglbase" unicode="&#x201a;" horiz-adv-x="233" 
d="M-20 -127c52 57 99 142 115 187h35c-18 -54 -67 -139 -117 -187h-33z" />
    <glyph glyph-name="quotedblbase" unicode="&#x201e;" horiz-adv-x="349" 
d="M-20 -127c52 57 99 142 115 187h35c-18 -54 -67 -139 -117 -187h-33zM96 -127c52 57 99 142 115 187h35c-18 -54 -67 -139 -117 -187h-33z" />
    <glyph glyph-name="quotedblleft" unicode="&#x201c;" horiz-adv-x="342" 
d="M102 499c18 54 63 129 111 177h30c-50 -57 -92 -132 -108 -177h-33zM218 499c18 54 63 129 111 177h30c-50 -57 -92 -132 -108 -177h-33z" />
    <glyph glyph-name="quotedblright" unicode="&#x201d;" horiz-adv-x="342" 
d="M107 499c50 57 92 132 108 177h33c-18 -54 -63 -129 -111 -177h-30zM223 499c50 57 92 132 108 177h33c-18 -54 -63 -129 -111 -177h-30z" />
    <glyph glyph-name="quoteleft" unicode="&#x2018;" horiz-adv-x="226" 
d="M102 499c18 54 63 129 111 177h30c-50 -57 -92 -132 -108 -177h-33z" />
    <glyph glyph-name="quoteright" unicode="&#x2019;" horiz-adv-x="226" 
d="M107 499c50 57 92 132 108 177h33c-18 -54 -63 -129 -111 -177h-30z" />
    <glyph glyph-name="guillemotleft" unicode="&#xab;" horiz-adv-x="412" 
d="M145 98l-88 184l161 184h38l-161 -187l82 -181h-32zM283 98l-88 184l161 184h38l-161 -187l82 -181h-32z" />
    <glyph glyph-name="guillemotright" unicode="&#xbb;" horiz-adv-x="409" 
d="M24 98l161 187l-82 181h32l88 -184l-161 -184h-38zM158 98l161 187l-82 181h32l88 -184l-161 -184h-38z" />
    <glyph glyph-name="guilsinglleft" unicode="&#x2039;" horiz-adv-x="274" 
d="M145 98l-88 184l161 184h38l-161 -187l82 -181h-32z" />
    <glyph glyph-name="guilsinglright" unicode="&#x203a;" horiz-adv-x="275" 
d="M24 98l161 187l-82 181h32l88 -184l-161 -184h-38z" />
    <glyph glyph-name="quotedbl" unicode="&#x22;" horiz-adv-x="359" 
d="M124 433l50 243h37l-57 -243h-30zM278 433l50 243h37l-57 -243h-30z" />
    <glyph glyph-name="quotesingle" unicode="'" horiz-adv-x="205" 
d="M124 433l50 243h37l-57 -243h-30z" />
    <glyph glyph-name="guillemotleft.case" horiz-adv-x="412" 
d="M159 162l-88 184l161 184h38l-161 -187l82 -181h-32zM297 162l-88 184l161 184h38l-161 -187l82 -181h-32z" />
    <glyph glyph-name="guillemotright.case" horiz-adv-x="409" 
d="M38 162l161 187l-82 181h32l88 -184l-161 -184h-38zM172 162l161 187l-82 181h32l88 -184l-161 -184h-38z" />
    <glyph glyph-name="guilsinglleft.case" horiz-adv-x="274" 
d="M164 162l-88 184l161 184h38l-161 -187l82 -181h-32z" />
    <glyph glyph-name="guilsinglright.case" horiz-adv-x="275" 
d="M38 162l161 187l-82 181h32l88 -184l-161 -184h-38z" />
    <glyph glyph-name="period.dnom" horiz-adv-x="139" 
d="M5 -8c-14 0 -23 9 -23 22c0 16 12 32 30 32c14 0 23 -9 23 -22c0 -16 -12 -32 -30 -32z" />
    <glyph glyph-name="comma.dnom" horiz-adv-x="139" 
d="M-67 -83c34 37 68 92 81 130h34c-14 -41 -47 -95 -83 -130h-32z" />
    <glyph glyph-name="period.numr" horiz-adv-x="139" 
d="M77 281c-14 0 -23 9 -23 22c0 16 12 32 30 32c14 0 23 -9 23 -22c0 -16 -12 -32 -30 -32z" />
    <glyph glyph-name="comma.numr" horiz-adv-x="138" 
d="M-6 206c34 37 68 92 81 130h34c-14 -41 -47 -95 -83 -130h-32z" />
    <glyph glyph-name="period.subs" horiz-adv-x="139" 
d="M-1 -84c-14 0 -23 9 -23 22c0 16 12 32 30 32c14 0 23 -9 23 -22c0 -16 -12 -32 -30 -32z" />
    <glyph glyph-name="comma.subs" horiz-adv-x="139" 
d="M-83 -159c34 37 68 92 81 130h34c-14 -41 -47 -95 -83 -130h-32z" />
    <glyph glyph-name="uni00A0" unicode="&#xa0;" horiz-adv-x="250" 
 />
    <glyph glyph-name="cent" unicode="&#xa2;" 
d="M232 -69l29 138c-102 7 -164 77 -164 185c0 160 113 312 272 326l23 108l34 10l-24 -117c48 -3 99 -26 133 -74l-23 -18c-29 38 -67 62 -121 62c-157 0 -262 -148 -262 -295c0 -97 57 -158 155 -158c64 0 120 25 169 62l17 -22c-53 -43 -111 -67 -178 -70l-27 -127z" />
    <glyph glyph-name="currency" unicode="&#xa4;" 
d="M44 103l-18 21l95 82c-10 21 -15 46 -15 73c0 69 28 136 73 186l-64 81l27 21l61 -78c42 37 95 60 151 60c57 0 102 -23 130 -60l92 78l19 -21l-97 -81c10 -21 15 -45 15 -71c0 -69 -28 -136 -73 -187l65 -83l-26 -21l-63 79c-42 -37 -95 -60 -151 -60
c-57 0 -101 22 -128 58zM266 151c120 0 216 123 216 238c0 77 -50 131 -130 131c-121 0 -215 -121 -215 -235c0 -79 50 -134 129 -134z" />
    <glyph glyph-name="dollar" unicode="$" 
d="M197 -151l31 148c-71 7 -137 38 -185 95l23 19c55 -60 126 -86 199 -86c120 0 189 64 189 148c0 66 -40 108 -150 153c-120 49 -173 89 -173 172c0 112 112 172 216 172h8l25 118l34 10l-28 -130c67 -8 120 -38 163 -91l-23 -18c-60 66 -107 81 -183 81
c-102 0 -182 -59 -182 -138c0 -76 59 -109 161 -150c111 -45 163 -96 163 -176c0 -104 -81 -181 -223 -181h-2l-29 -136z" />
    <glyph glyph-name="Euro" unicode="&#x20ac;" 
d="M311 -10c-125 0 -203 95 -207 234h-84l16 30h68c2 49 11 98 27 144h-74l16 29h69c54 135 165 239 307 239c70 0 130 -28 167 -81l-23 -17c-33 45 -82 68 -147 68c-125 0 -221 -92 -272 -209h259l-16 -29h-254c-16 -46 -26 -95 -28 -144h232l-15 -30h-217
c5 -121 70 -203 179 -203c76 0 133 27 189 72l18 -22c-63 -53 -129 -81 -210 -81z" />
    <glyph glyph-name="florin" unicode="&#x192;" 
d="M-38 0l7 30h60c118 0 165 56 216 176l50 118h-160l6 31h167l40 94c61 144 121 208 256 208h49l-7 -31h-48c-118 0 -163 -56 -214 -175l-41 -96h161l-6 -31h-168l-50 -116c-62 -144 -115 -208 -251 -208h-67z" />
    <glyph glyph-name="sterling" unicode="&#xa3;" 
d="M36 0l5 26l113 274h-97l6 31h104l49 118c65 157 123 208 248 208h137l-6 -31h-136c-109 0 -157 -47 -209 -175l-49 -120h264l-7 -31h-270l-110 -269h408l-6 -31h-444z" />
    <glyph glyph-name="yen" unicode="&#xa5;" 
d="M222 0l30 139h-182l6 30h182l23 105h-182l6 30h169l-138 353h32l134 -346l284 346h36l-290 -353h167l-6 -30h-181l-23 -105h181l-6 -30h-181l-30 -139h-31z" />
    <glyph glyph-name="plus" unicode="+" 
d="M251 130l40 186h-181l6 29h181l39 185h30l-39 -185h181l-6 -29h-181l-40 -186h-30z" />
    <glyph glyph-name="minus" unicode="&#x2212;" 
d="M131 316l6 29h349l-6 -29h-349z" />
    <glyph glyph-name="multiply" unicode="&#xd7;" 
d="M139 172l-18 20l167 140l-105 138l23 17l104 -137l166 139l18 -21l-167 -139l106 -139l-22 -18l-106 138z" />
    <glyph glyph-name="divide" unicode="&#xf7;" 
d="M344 434c-17 0 -27 10 -27 25c0 20 14 37 33 37c17 0 27 -11 27 -26c0 -19 -14 -36 -33 -36zM137 316l6 29h349l-6 -29h-349zM287 163c-17 0 -27 11 -27 26c0 20 14 38 34 38c17 0 27 -11 27 -26c0 -20 -14 -38 -34 -38z" />
    <glyph glyph-name="equal" unicode="=" 
d="M152 413l6 29h349l-6 -29h-349zM111 221l6 29h349l-6 -29h-349z" />
    <glyph glyph-name="notequal" unicode="&#x2260;" 
d="M140 112l-23 16l77 93h-83l6 29h101l135 163h-201l6 29h219l90 109l22 -17l-76 -92h94l-6 -29h-112l-135 -163h212l-6 -29h-230z" />
    <glyph glyph-name="greater" unicode="&#x3e;" 
d="M130 148l-12 26l312 160l-241 159l17 22l261 -173l-4 -22z" />
    <glyph glyph-name="less" unicode="&#x3c;" 
d="M411 147l-261 173l4 22l333 172l12 -26l-312 -160l241 -159z" />
    <glyph glyph-name="greaterequal" unicode="&#x2265;" 
d="M148 148l-12 26l312 160l-241 159l17 22l261 -173l-4 -22zM83 0l6 29h330l-6 -29h-330z" />
    <glyph glyph-name="lessequal" unicode="&#x2264;" 
d="M394 148l-261 173l4 22l333 172l12 -26l-312 -160l241 -159zM64 0l6 29h330l-6 -29h-330z" />
    <glyph glyph-name="plusminus" unicode="&#xb1;" 
d="M257 130l40 186h-181l6 29h181l39 185h30l-39 -185h181l-6 -29h-181l-40 -186h-30zM70 0l6 29h349l-6 -29h-349z" />
    <glyph glyph-name="approxequal" unicode="&#x2248;" 
d="M435 363c-83 0 -132 96 -202 96c-47 0 -75 -32 -90 -86h-30c20 70 59 113 121 113c83 0 132 -96 202 -96c47 0 75 34 90 88h30c-20 -70 -59 -115 -121 -115zM396 177c-83 0 -132 96 -202 96c-47 0 -75 -32 -90 -86h-30c20 70 59 113 121 113c83 0 132 -96 202 -96
c47 0 75 34 90 88h30c-20 -70 -59 -115 -121 -115z" />
    <glyph glyph-name="asciitilde" unicode="~" 
d="M407 259c-83 0 -132 96 -202 96c-47 0 -75 -32 -90 -86h-30c20 70 59 113 121 113c83 0 132 -96 202 -96c47 0 75 34 90 88h30c-20 -70 -59 -115 -121 -115z" />
    <glyph glyph-name="logicalnot" unicode="&#xac;" 
d="M425 189l39 185h-352l7 30h381l-46 -215h-29z" />
    <glyph glyph-name="asciicircum" unicode="^" 
d="M120 345l247 331h32l104 -331h-30l-94 302l-226 -302h-33z" />
    <glyph glyph-name="uni00B5" unicode="&#xb5;" horiz-adv-x="552" 
d="M-21 -219l156 733h32l-63 -294c-6 -28 -10 -55 -10 -79c0 -71 31 -120 114 -120c65 0 131 36 203 108l82 385h32l-109 -514h-22l9 88c-74 -73 -146 -97 -203 -97c-68 0 -109 32 -126 81l-60 -281z" />
    <glyph glyph-name="percent" unicode="%" horiz-adv-x="834" 
d="M210 282c-73 0 -119 54 -119 137c0 118 76 242 188 242c72 0 120 -54 120 -137c0 -115 -75 -242 -189 -242zM109 0l603 657h39l-602 -657h-40zM211 311c98 0 158 115 158 214c0 67 -35 108 -91 108c-99 0 -158 -114 -158 -214c0 -67 35 -108 91 -108zM584 -7
c-73 0 -119 54 -119 137c0 118 76 242 188 242c72 0 120 -54 120 -137c0 -115 -75 -242 -189 -242zM585 22c98 0 158 115 158 214c0 67 -35 108 -91 108c-99 0 -158 -114 -158 -214c0 -67 35 -108 91 -108z" />
    <glyph glyph-name="perthousand" unicode="&#x2030;" horiz-adv-x="1194" 
d="M210 282c-73 0 -119 54 -119 137c0 118 76 242 188 242c72 0 120 -54 120 -137c0 -115 -75 -242 -189 -242zM109 0l603 657h39l-602 -657h-40zM211 311c98 0 158 115 158 214c0 67 -35 108 -91 108c-99 0 -158 -114 -158 -214c0 -67 35 -108 91 -108zM584 -7
c-73 0 -119 54 -119 137c0 118 76 242 188 242c72 0 120 -54 120 -137c0 -115 -75 -242 -189 -242zM944 -7c-73 0 -119 54 -119 137c0 118 76 242 188 242c72 0 120 -54 120 -137c0 -115 -75 -242 -189 -242zM585 22c98 0 158 115 158 214c0 67 -35 108 -91 108
c-99 0 -158 -114 -158 -214c0 -67 35 -108 91 -108zM945 22c98 0 158 115 158 214c0 67 -35 108 -91 108c-99 0 -158 -114 -158 -214c0 -67 35 -108 91 -108z" />
    <glyph glyph-name="at" unicode="@" horiz-adv-x="904" 
d="M373 -162c-201 0 -321 147 -321 342c0 293 221 491 487 491c204 0 332 -133 332 -290c0 -173 -133 -327 -303 -327h-22l5 53c-46 -38 -101 -63 -153 -63c-89 0 -138 65 -138 153c0 140 99 258 236 258c45 0 93 -23 119 -49l15 42h23l-77 -367c149 0 264 149 264 299
c0 142 -118 261 -303 261c-251 0 -454 -186 -454 -459c0 -176 111 -313 290 -313c89 0 174 26 238 79l20 -24c-74 -60 -162 -86 -258 -86zM403 74c53 0 107 28 155 72l48 232c-32 33 -70 47 -111 47c-126 0 -203 -106 -203 -228c0 -73 39 -123 111 -123z" />
    <glyph glyph-name="ampersand" unicode="&#x26;" horiz-adv-x="625" 
d="M239 -10c-116 -1 -205 58 -205 159c0 108 84 182 195 219c-36 54 -50 98 -50 137c0 110 87 181 198 181c65 0 127 -38 164 -89l-24 -18c-38 49 -88 76 -141 76c-98 0 -167 -59 -167 -147c0 -53 28 -99 58 -141l180 -252c48 52 82 122 98 199l6 30h32l-6 -29
c-19 -89 -59 -166 -114 -223l66 -92h-38l-50 70c-57 -50 -127 -80 -202 -80zM236 21c73 0 137 27 188 72l-179 251c-98 -27 -180 -99 -180 -191c0 -83 71 -132 171 -132z" />
    <glyph glyph-name="paragraph" unicode="&#xb6;" horiz-adv-x="518" 
d="M183 -123l6 31h19c67 0 116 47 134 129l134 627l33 8l-135 -631c-23 -106 -83 -164 -171 -164h-20zM309 223c-160 0 -241 75 -216 197c24 112 108 183 240 213l65 15z" />
    <glyph glyph-name="section" unicode="&#xa7;" horiz-adv-x="415" 
d="M3 -125l6 30h69c97 0 150 45 150 118c0 29 -15 61 -43 93l-76 88c-25 28 -39 61 -39 92c0 74 55 129 137 136c-27 35 -38 71 -38 100c0 92 68 144 179 144h68l-6 -30h-63c-97 0 -147 -39 -147 -112c0 -28 10 -58 42 -96l74 -86c24 -27 38 -60 38 -91
c0 -79 -62 -130 -138 -137c25 -30 43 -65 43 -101c0 -91 -70 -148 -181 -148h-75zM193 150h7c65 0 123 41 123 108c0 25 -11 54 -31 77l-63 71h-5c-74 0 -123 -45 -123 -106c0 -26 10 -55 31 -80z" />
    <glyph glyph-name="copyright" unicode="&#xa9;" horiz-adv-x="780" 
d="M407 -10c-190 0 -348 137 -348 348c0 205 160 348 348 348c189 0 350 -140 350 -348c0 -209 -162 -348 -350 -348zM407 22c178 0 316 126 316 316c0 188 -137 317 -316 317c-178 0 -315 -131 -315 -317c0 -192 135 -316 315 -316zM413 145c-107 0 -182 79 -182 193
s79 193 187 193c46 0 92 -20 122 -56l-20 -20c-33 32 -66 44 -103 44c-90 0 -153 -62 -153 -161c0 -98 62 -162 150 -162c49 0 85 18 115 44l20 -21c-37 -36 -83 -54 -136 -54z" />
    <glyph glyph-name="registered" unicode="&#xae;" horiz-adv-x="524" 
d="M313 282c-117 0 -214 84 -214 213c0 124 98 212 214 212c114 0 213 -86 213 -212c0 -128 -100 -213 -213 -213zM313 312c103 0 182 72 182 183c0 110 -79 182 -182 182c-105 0 -183 -74 -183 -182c0 -113 77 -183 183 -183zM234 383v228h81c49 0 81 -26 81 -68
c0 -29 -18 -51 -47 -60c14 -9 26 -23 36 -43l30 -57h-33l-22 41c-16 31 -24 47 -65 47h-31v-88h-30zM264 500h46c34 0 55 15 55 42c0 28 -23 41 -55 41h-46v-83z" />
    <glyph glyph-name="trademark" unicode="&#x2122;" horiz-adv-x="795" 
d="M159 324l69 322h-126l7 30h282l-6 -30h-127l-68 -322h-31zM385 324l75 352h29l87 -246l203 246h30l-75 -352h-31l64 294l-184 -220h-25l-80 217l-62 -291h-31z" />
    <glyph glyph-name="degree" unicode="&#xb0;" horiz-adv-x="368" 
d="M238 410c-73 0 -133 59 -133 133c0 73 61 133 133 133c74 0 134 -60 134 -133c0 -74 -60 -133 -134 -133zM238 438c58 0 104 47 104 105s-46 105 -104 105c-57 0 -104 -47 -104 -105s47 -105 104 -105z" />
    <glyph glyph-name="bar" unicode="|" horiz-adv-x="243" 
d="M24 -126l183 861h32l-183 -861h-32z" />
    <glyph glyph-name="brokenbar" unicode="&#xa6;" horiz-adv-x="243" 
d="M138 409l69 326h32l-69 -326h-32zM24 -126l70 326h31l-69 -326h-32z" />
    <glyph glyph-name="dagger" unicode="&#x2020;" horiz-adv-x="340" 
d="M164 300l48 227h-126l6 31h127l25 118l32 8l-27 -126h127l-7 -31h-127l-48 -227h-30z" />
    <glyph glyph-name="daggerdbl" unicode="&#x2021;" horiz-adv-x="344" 
d="M168 310l23 109h-116l6 31h117l22 104h-117l7 30h116l20 92l32 8l-21 -100h116l-6 -30h-117l-22 -104h117l-7 -31h-117l-23 -109h-30z" />
    <glyph glyph-name="at.case" horiz-adv-x="903" 
d="M392 -90c-201 0 -321 147 -321 342c0 293 221 491 487 491c204 0 332 -133 332 -290c0 -173 -133 -327 -303 -327h-22l5 53c-46 -38 -101 -63 -153 -63c-89 0 -138 65 -138 153c0 140 99 258 236 258c45 0 93 -23 119 -49l15 42h23l-77 -367c149 0 264 149 264 299
c0 142 -118 261 -303 261c-251 0 -454 -186 -454 -459c0 -176 111 -313 290 -313c89 0 174 26 238 79l20 -24c-74 -60 -162 -86 -258 -86zM422 146c53 0 107 28 155 72l48 232c-32 33 -70 47 -111 47c-126 0 -203 -106 -203 -228c0 -73 39 -123 111 -123z" />
    <glyph glyph-name="uni0308" unicode="&#x308;" horiz-adv-x="0" 
d="M-287 637c-16 0 -26 11 -26 25c0 20 15 37 34 37c16 0 26 -11 26 -25c0 -20 -15 -37 -34 -37zM-123 637c-16 0 -26 11 -26 25c0 20 15 37 34 37c16 0 26 -11 26 -25c0 -20 -15 -37 -34 -37z" />
    <glyph glyph-name="uni0307" unicode="&#x307;" horiz-adv-x="0" 
d="M-204 637c-16 0 -26 11 -26 25c0 20 15 37 34 37c16 0 26 -11 26 -25c0 -20 -15 -37 -34 -37z" />
    <glyph glyph-name="gravecomb" unicode="&#x300;" horiz-adv-x="0" 
d="M-175 599l-88 126h42l80 -126h-34z" />
    <glyph glyph-name="acutecomb" unicode="&#x301;" horiz-adv-x="0" 
d="M-293 599l133 126h50l-142 -126h-41z" />
    <glyph glyph-name="uni0302" unicode="&#x302;" horiz-adv-x="0" 
d="M-344 599l141 126h29l88 -126h-35l-72 98l-112 -98h-39z" />
    <glyph glyph-name="uni030C" unicode="&#x30c;" horiz-adv-x="0" 
d="M-228 599l-88 126h35l72 -98l112 98h39l-141 -126h-29z" />
    <glyph glyph-name="uni030A" unicode="&#x30a;" horiz-adv-x="0" 
d="M-156 592c-58 0 -111 48 -111 111c0 62 53 109 111 109s112 -48 112 -109c0 -64 -54 -111 -112 -111zM-156 620c45 0 82 35 82 83c0 47 -37 81 -82 81c-44 0 -81 -33 -81 -81c0 -49 37 -83 81 -83z" />
    <glyph glyph-name="tildecomb" unicode="&#x303;" horiz-adv-x="0" 
d="M-137 623c-30 0 -52 15 -74 28c-18 11 -37 21 -59 21c-33 0 -60 -18 -92 -44l8 36c31 26 54 38 87 38c28 0 52 -15 75 -28c19 -11 37 -21 57 -21c41 0 68 23 93 45l-8 -38c-25 -20 -48 -37 -87 -37z" />
    <glyph glyph-name="uni0327" unicode="&#x327;" horiz-adv-x="0" 
d="M-444 -172l7 30h16c55 0 95 30 95 78c0 19 -8 40 -24 59l33 1c13 -16 23 -38 23 -63c0 -66 -59 -105 -131 -105h-19z" />
    <glyph glyph-name="dieresis" unicode="&#xa8;" horiz-adv-x="576" 
d="M289 637c-16 0 -26 11 -26 25c0 20 15 37 34 37c16 0 26 -11 26 -25c0 -20 -15 -37 -34 -37zM453 637c-16 0 -26 11 -26 25c0 20 15 37 34 37c16 0 26 -11 26 -25c0 -20 -15 -37 -34 -37z" />
    <glyph glyph-name="dotaccent" unicode="&#x2d9;" horiz-adv-x="576" 
d="M372 637c-16 0 -26 11 -26 25c0 20 15 37 34 37c16 0 26 -11 26 -25c0 -20 -15 -37 -34 -37z" />
    <glyph glyph-name="grave" unicode="`" horiz-adv-x="576" 
d="M401 599l-88 126h42l80 -126h-34z" />
    <glyph glyph-name="acute" unicode="&#xb4;" horiz-adv-x="576" 
d="M283 599l133 126h50l-142 -126h-41z" />
    <glyph glyph-name="circumflex" unicode="&#x2c6;" horiz-adv-x="576" 
d="M232 599l141 126h29l88 -126h-35l-72 98l-112 -98h-39z" />
    <glyph glyph-name="caron" unicode="&#x2c7;" horiz-adv-x="576" 
d="M348 599l-88 126h35l72 -98l112 98h39l-141 -126h-29z" />
    <glyph glyph-name="ring" unicode="&#x2da;" horiz-adv-x="576" 
d="M420 592c-58 0 -111 48 -111 111c0 62 53 109 111 109s112 -48 112 -109c0 -64 -54 -111 -112 -111zM420 620c45 0 82 35 82 83c0 47 -37 81 -82 81c-44 0 -81 -33 -81 -81c0 -49 37 -83 81 -83z" />
    <glyph glyph-name="tilde" unicode="&#x2dc;" horiz-adv-x="576" 
d="M439 623c-30 0 -52 15 -74 28c-18 11 -37 21 -59 21c-33 0 -60 -18 -92 -44l8 36c31 26 54 38 87 38c28 0 52 -15 75 -28c19 -11 37 -21 57 -21c41 0 68 23 93 45l-8 -38c-25 -20 -48 -37 -87 -37z" />
    <glyph glyph-name="cedilla" unicode="&#xb8;" horiz-adv-x="576" 
d="M132 -172l7 30h16c55 0 95 30 95 78c0 19 -8 40 -24 59l33 1c13 -16 23 -38 23 -63c0 -66 -59 -105 -131 -105h-19z" />
    <glyph glyph-name="uni0308.case" horiz-adv-x="0" 
d="M-259 770c-17 0 -27 11 -27 26c0 18 17 33 35 33c16 0 26 -11 26 -25c0 -15 -14 -34 -34 -34zM-95 770c-16 0 -26 10 -26 25c0 18 15 34 34 34c16 0 27 -10 27 -25c0 -17 -15 -34 -35 -34z" />
    <glyph glyph-name="uni0307.case" horiz-adv-x="0" 
d="M-174 780c-16 0 -26 10 -26 24c0 19 14 35 33 35c17 0 26 -11 26 -25c0 -15 -12 -34 -33 -34z" />
    <glyph glyph-name="gravecomb.case" horiz-adv-x="0" 
d="M-143 746l-91 117h43l84 -117h-36z" />
    <glyph glyph-name="acutecomb.case" horiz-adv-x="0" 
d="M-262 746l133 117h50l-141 -117h-42z" />
    <glyph glyph-name="uni0302.case" horiz-adv-x="0" 
d="M-315 746l140 117h32l90 -117h-37l-73 89l-110 -89h-42z" />
    <glyph glyph-name="uni030C.case" horiz-adv-x="0" 
d="M-199 746l-90 117h37l73 -89l110 89h42l-140 -117h-32z" />
    <glyph glyph-name="uni030A.case" horiz-adv-x="0" 
d="M-193 737c-58 0 -111 48 -111 111c0 62 53 109 111 109s112 -48 112 -109c0 -64 -54 -111 -112 -111zM-193 765c45 0 82 35 82 83c0 47 -37 81 -82 81c-44 0 -81 -33 -81 -81c0 -49 37 -83 81 -83z" />
    <glyph glyph-name="tildecomb.case" horiz-adv-x="0" 
d="M-106 769c-32 0 -58 17 -81 30c-16 9 -33 16 -52 16c-33 0 -61 -16 -92 -42l8 36c31 26 54 37 87 37c26 0 48 -11 70 -23c20 -11 40 -23 62 -23c41 0 68 21 93 43l-8 -38c-25 -20 -48 -36 -87 -36z" />
    <glyph glyph-name="uni0327.case" horiz-adv-x="0" 
d="M-444 -172l7 31h16c55 0 95 29 95 77c0 19 -8 40 -24 59l34 1c13 -16 23 -38 23 -63c0 -66 -60 -105 -132 -105h-19z" />
    <glyph glyph-name="gravecomb.narrow.case" horiz-adv-x="0" 
d="M-191 746l-71 117h40l66 -117h-35z" />
    <glyph glyph-name="acutecomb.narrow.case" horiz-adv-x="0" 
d="M-292 746l120 117h47l-127 -117h-40z" />
    <glyph glyph-name="gravecomb.narrow" horiz-adv-x="0" 
d="M-186 599l-72 126h40l66 -126h-34z" />
    <glyph glyph-name="acutecomb.narrow" horiz-adv-x="0" 
d="M-288 599l120 126h47l-128 -126h-39z" />
    <glyph glyph-name="periodsuperior" horiz-adv-x="139" 
d="M91 349c-14 0 -23 9 -23 22c0 16 12 32 30 32c14 0 23 -9 23 -22c0 -16 -12 -32 -30 -32z" />
    <glyph glyph-name="commasuperior" horiz-adv-x="139" 
d="M9 274c34 37 68 92 81 130h34c-14 -41 -47 -95 -83 -130h-32z" />
    </font>
</defs>
</svg>
